<svg xmlns="http://www.w3.org/2000/svg" width="1170" height="254" fill="none"><rect width="269" height="229" x=".5" y="10.5" stroke="#000" stroke-opacity=".3" rx="3.5"/><path fill="#2F2E30" d="M174.5 80c0 22.091-17.909 40-40 40s-40-17.909-40-40 17.909-40 40-40 40 17.909 40 40m-69.093 0c0 16.067 13.025 29.093 29.093 29.093S163.593 96.067 163.593 80c0-16.068-13.025-29.093-29.093-29.093S105.407 63.933 105.407 80" opacity=".3"/><circle cx="134.5" cy="80" r="29" fill="#000"/><path stroke="#fff" stroke-width="2" d="M148.642 65h-6.654l.834 8.333S144.488 75 146.988 75a5.38 5.38 0 0 0 3.565-1.343.84.84 0 0 0 .25-.775l-1.176-7.049a1 1 0 0 0-.985-.833Z"/><path stroke="#FAFAFA" stroke-width="2" d="m141.988 65 .834 8.333S141.155 75 138.655 75s-4.167-1.667-4.167-1.667V65z"/><path stroke="#FAFAFA" stroke-width="2" d="M134.489 65v8.333S132.822 75 130.322 75s-4.167-1.667-4.167-1.667l.834-8.333z"/><path stroke="#FAFAFA" stroke-width="2" d="M126.988 65h-6.651a1 1 0 0 0-.987.835l-1.175 7.048a.83.83 0 0 0 .25.775 5.4 5.4 0 0 0 3.563 1.344c2.5 0 4.167-1.667 4.167-1.667l.833-8.333z"/><path stroke="#FAFAFA" stroke-width="2" d="M119.5 75v16.667A3.334 3.334 0 0 0 122.833 95h23.334a3.333 3.333 0 0 0 3.333-3.333V75"/><path stroke="#FAFAFA" stroke-miterlimit="16" stroke-width="2" d="M139.222 95V85a3.335 3.335 0 0 0-3.334-3.333h-3.333A3.333 3.333 0 0 0 129.222 85v10"/><path fill="#000" d="M100.511 147.727V171h-4.92v-18.602h-.136l-5.33 3.341v-4.364l5.761-3.648zm15.937 23.784q-2.932-.01-5.046-1.443-2.102-1.431-3.238-4.148-1.126-2.715-1.114-6.534 0-3.806 1.125-6.488 1.136-2.682 3.239-4.08 2.114-1.409 5.034-1.409t5.022 1.409q2.114 1.41 3.25 4.091 1.137 2.67 1.125 6.477 0 3.83-1.136 6.546-1.125 2.715-3.227 4.148-2.103 1.431-5.034 1.431m0-4.079q2 0 3.193-2.012 1.192-2.01 1.182-6.034 0-2.647-.546-4.409-.533-1.761-1.523-2.647a3.32 3.32 0 0 0-2.306-.887q-1.99 0-3.182 1.989-1.194 1.989-1.205 5.954 0 2.682.534 4.478.546 1.784 1.534 2.681.99.887 2.319.887m16.123 3.863q-1.125 0-1.931-.795a2.65 2.65 0 0 1-.796-1.932q0-1.113.796-1.909a2.65 2.65 0 0 1 1.931-.795q1.092 0 1.909.795.819.796.819 1.909 0 .75-.387 1.375a2.94 2.94 0 0 1-.988.989q-.613.363-1.353.363m16.249.023q-2.41 0-4.295-.886-1.875-.886-2.978-2.443-1.102-1.557-1.147-3.569h4.772q.08 1.353 1.137 2.194 1.056.84 2.511.841 1.16 0 2.046-.512a3.65 3.65 0 0 0 1.397-1.443q.512-.932.512-2.136 0-1.228-.523-2.159a3.7 3.7 0 0 0-1.421-1.455q-.909-.523-2.079-.534a4.9 4.9 0 0 0-1.989.42q-.954.421-1.488 1.148L140.9 160l1.102-12.273h14.227v4.023h-10.17l-.603 5.83h.137q.613-.864 1.852-1.432t2.773-.568q2.102 0 3.75.988a7.1 7.1 0 0 1 2.602 2.716q.954 1.716.943 3.955.012 2.352-1.091 4.181-1.09 1.819-3.056 2.864-1.955 1.034-4.546 1.034m17.837-5.341.011-5.807h.705l5.591-6.625h5.557l-7.512 8.773h-1.148zM162.271 171v-23.273h4.84V171zm10.909 0-5.137-7.602 3.228-3.421L178.85 171zM54.87 204.112q-1.104 0-1.984-.384-.864-.4-1.36-1.088a2.8 2.8 0 0 1-.512-1.616h1.552q.08.784.64 1.328.576.528 1.664.528 1.04 0 1.632-.512.608-.528.608-1.344 0-.64-.352-1.04a2.25 2.25 0 0 0-.88-.608 14 14 0 0 0-1.424-.448q-1.104-.288-1.776-.576a2.95 2.95 0 0 1-1.136-.896q-.465-.624-.464-1.664 0-.912.464-1.616.463-.704 1.296-1.088.847-.384 1.936-.384 1.567 0 2.56.784 1.008.784 1.136 2.08h-1.6q-.081-.64-.672-1.12-.593-.496-1.568-.496-.912 0-1.488.48-.576.464-.576 1.312 0 .608.336.992.351.384.848.592.511.192 1.424.448 1.104.304 1.776.608.672.288 1.152.912.48.608.48 1.664 0 .816-.432 1.536t-1.28 1.168-2 .448m5.31-4.528q0-1.344.544-2.352a3.95 3.95 0 0 1 1.488-1.584 4.15 4.15 0 0 1 2.128-.56q1.152 0 2 .496.849.497 1.264 1.248v-1.6h1.472V204h-1.472v-1.632q-.432.768-1.296 1.28-.848.496-1.984.496a3.97 3.97 0 0 1-2.112-.576 4.04 4.04 0 0 1-1.488-1.616q-.544-1.04-.544-2.368m7.424.016q0-.992-.4-1.728a2.75 2.75 0 0 0-1.088-1.12 2.85 2.85 0 0 0-1.488-.4q-.816 0-1.488.384a2.8 2.8 0 0 0-1.072 1.12q-.4.737-.4 1.728 0 1.008.4 1.76a2.9 2.9 0 0 0 1.072 1.136q.672.384 1.488.384t1.488-.384a2.86 2.86 0 0 0 1.088-1.136q.4-.752.4-1.744m5.389-7.44V204h-1.456v-11.84zm3.937 0V204h-1.456v-11.84zm10.482 7.12q0 .416-.048.88h-7.008q.08 1.296.88 2.032.816.72 1.968.72.944 0 1.568-.432.64-.448.896-1.184h1.568a3.8 3.8 0 0 1-1.408 2.064q-1.056.784-2.624.784-1.248 0-2.24-.56A4 4 0 0 1 79.428 202q-.56-1.04-.56-2.4t.544-2.384a3.8 3.8 0 0 1 1.52-1.568q.991-.56 2.272-.56 1.248 0 2.208.544t1.472 1.504q.528.944.528 2.144m-1.504-.304q0-.832-.368-1.424a2.3 2.3 0 0 0-1.008-.912 3 3 0 0 0-1.392-.32q-1.105 0-1.888.704-.768.704-.88 1.952zm4.882-2.32a2.8 2.8 0 0 1 1.088-1.168q.719-.416 1.744-.416v1.504h-.384q-2.448 0-2.448 2.656V204h-1.456v-8.768h1.456zm7.616 7.488q-1.007 0-1.808-.336-.8-.352-1.264-.96a2.6 2.6 0 0 1-.512-1.424h1.504q.065.656.608 1.072.56.416 1.456.416.832 0 1.312-.368t.48-.928a.9.9 0 0 0-.512-.848q-.511-.288-1.584-.56a13 13 0 0 1-1.6-.512 3 3 0 0 1-1.056-.784q-.432-.528-.432-1.376 0-.672.4-1.232t1.136-.88q.736-.336 1.68-.336 1.457 0 2.352.736.897.736.96 2.016h-1.456a1.5 1.5 0 0 0-.56-1.104q-.495-.416-1.344-.416-.783 0-1.248.336t-.464.88q0 .432.272.72.288.272.704.448.432.16 1.184.368.945.256 1.536.512.593.24 1.008.736.432.497.448 1.296 0 .72-.4 1.296t-1.136.912q-.72.32-1.664.32m8.977-4.56q0-1.344.544-2.352a3.95 3.95 0 0 1 1.488-1.584 4.15 4.15 0 0 1 2.128-.56q1.152 0 2 .496.849.497 1.264 1.248v-1.6h1.472V204h-1.472v-1.632q-.432.768-1.296 1.28-.847.496-1.984.496a4 4 0 0 1-2.112-.576 4.05 4.05 0 0 1-1.488-1.616q-.544-1.04-.544-2.368m7.424.016q0-.992-.4-1.728a2.75 2.75 0 0 0-1.088-1.12 2.85 2.85 0 0 0-1.488-.4q-.816 0-1.488.384a2.8 2.8 0 0 0-1.072 1.12q-.4.737-.4 1.728 0 1.008.4 1.76.4.736 1.072 1.136.672.384 1.488.384t1.488-.384a2.86 2.86 0 0 0 1.088-1.136q.4-.752.4-1.744m3.389 0q0-1.36.544-2.368a3.9 3.9 0 0 1 1.504-1.584q.976-.56 2.224-.56 1.615 0 2.656.784 1.056.784 1.392 2.176h-1.568a2.24 2.24 0 0 0-.88-1.264q-.64-.464-1.6-.464-1.248 0-2.016.864-.768.848-.768 2.416 0 1.584.768 2.448t2.016.864q.96 0 1.6-.448t.88-1.28h1.568q-.352 1.344-1.408 2.16-1.056.8-2.64.8-1.248 0-2.224-.56A3.9 3.9 0 0 1 118.74 202q-.544-1.025-.544-2.4m12.039-3.168v5.168q0 .64.272.912.272.256.944.256h1.072V204h-1.312q-1.216 0-1.824-.56t-.608-1.84v-5.168h-1.136v-1.2h1.136v-2.208h1.456v2.208h2.288v1.2zm4.804-2.624a.96.96 0 0 1-.704-.288.96.96 0 0 1-.288-.704q0-.416.288-.704a.96.96 0 0 1 .704-.288.9.9 0 0 1 .672.288.96.96 0 0 1 .288.704.96.96 0 0 1-.288.704.9.9 0 0 1-.672.288m.704 1.424V204h-1.456v-8.768zm5.745 7.424 2.72-7.424h1.552L142.32 204h-1.696l-3.44-8.768h1.568zm13.705-3.376q0 .416-.048.88h-7.008q.08 1.296.88 2.032.816.72 1.968.72.944 0 1.568-.432.64-.448.896-1.184h1.568a3.8 3.8 0 0 1-1.408 2.064q-1.056.784-2.624.784-1.248 0-2.24-.56a4 4 0 0 1-1.536-1.584q-.56-1.04-.56-2.4t.544-2.384a3.8 3.8 0 0 1 1.52-1.568q.992-.56 2.272-.56 1.248 0 2.208.544a3.7 3.7 0 0 1 1.472 1.504q.528.944.528 2.144m-1.504-.304q0-.832-.368-1.424a2.3 2.3 0 0 0-1.008-.912 3 3 0 0 0-1.392-.32q-1.104 0-1.888.704-.768.704-.88 1.952zm11.515 5.168a4.54 4.54 0 0 1-2.24-.56 4.07 4.07 0 0 1-1.568-1.584q-.56-1.04-.56-2.4 0-1.344.576-2.368a4 4 0 0 1 1.6-1.584q1.008-.56 2.256-.56t2.256.56q1.008.544 1.584 1.568.592 1.024.592 2.384t-.608 2.4a4.1 4.1 0 0 1-1.616 1.584q-1.023.56-2.272.56m0-1.28q.785 0 1.472-.368a2.74 2.74 0 0 0 1.104-1.104q.432-.736.432-1.792t-.416-1.792-1.088-1.088a3 3 0 0 0-1.456-.368q-.8 0-1.472.368-.655.352-1.056 1.088-.4.736-.4 1.792 0 1.072.384 1.808.4.737 1.056 1.104.657.352 1.44.352m14.187-7.632V204h-1.456v-1.296q-.417.672-1.168 1.056a3.6 3.6 0 0 1-1.632.368q-1.024 0-1.84-.416a3.2 3.2 0 0 1-1.296-1.28q-.464-.847-.464-2.064v-5.136h1.44v4.944q0 1.296.656 2 .655.688 1.792.688 1.167 0 1.84-.72.672-.72.672-2.096v-4.816zm3.914 1.424a2.8 2.8 0 0 1 1.088-1.168q.72-.416 1.744-.416v1.504h-.384q-2.448 0-2.448 2.656V204h-1.456v-8.768h1.456zm11.883 7.488q-1.008 0-1.808-.336-.8-.352-1.264-.96a2.6 2.6 0 0 1-.512-1.424h1.504q.063.656.608 1.072.56.416 1.456.416.831 0 1.312-.368.48-.368.48-.928 0-.576-.512-.848-.513-.288-1.584-.56a13 13 0 0 1-1.6-.512 3 3 0 0 1-1.056-.784q-.432-.528-.432-1.376 0-.672.4-1.232t1.136-.88q.735-.336 1.68-.336 1.455 0 2.352.736t.96 2.016h-1.456a1.5 1.5 0 0 0-.56-1.104q-.496-.416-1.344-.416-.784 0-1.248.336t-.464.88q0 .432.272.72.287.272.704.448.431.16 1.184.368.943.256 1.536.512.591.24 1.008.736.432.497.448 1.296 0 .72-.4 1.296t-1.136.912q-.72.32-1.664.32m6.007-10.336a.96.96 0 0 1-.704-.288.96.96 0 0 1-.288-.704q0-.416.288-.704a.96.96 0 0 1 .704-.288q.4 0 .672.288a.96.96 0 0 1 .288.704.96.96 0 0 1-.288.704.9.9 0 0 1-.672.288m.704 1.424V204h-1.456v-8.768zm4.257 1.2v5.168q0 .64.272.912.273.256.944.256h1.072V204h-1.312q-1.215 0-1.824-.56-.608-.56-.608-1.84v-5.168h-1.136v-1.2h1.136v-2.208h1.456v2.208h2.288v1.2zm12.053 2.848q0 .416-.048.88h-7.008q.08 1.296.88 2.032.816.72 1.968.72.944 0 1.568-.432.64-.448.896-1.184h1.568a3.8 3.8 0 0 1-1.408 2.064q-1.056.784-2.624.784-1.248 0-2.24-.56a4 4 0 0 1-1.536-1.584q-.56-1.04-.56-2.4t.544-2.384a3.8 3.8 0 0 1 1.52-1.568q.991-.56 2.272-.56 1.248 0 2.208.544t1.472 1.504q.528.944.528 2.144m-1.504-.304q0-.832-.368-1.424a2.33 2.33 0 0 0-1.008-.912 3 3 0 0 0-1.392-.32q-1.105 0-1.888.704-.768.704-.88 1.952z"/><g filter="url(#a)"><rect width="270" height="230" x="300" y="10" fill="#DB4444" rx="4"/><path fill="#fff" d="M475 82c0 22.091-17.909 40-40 40s-40-17.909-40-40 17.909-40 40-40 40 17.909 40 40m-69.093 0c0 16.067 13.025 29.093 29.093 29.093S464.093 98.067 464.093 82 451.068 52.907 435 52.907 405.907 65.933 405.907 82" opacity=".3"/><circle cx="435" cy="82" r="29" fill="#fff"/><path stroke="#000" stroke-linecap="round" stroke-linejoin="round" stroke-width="2" d="M435 99.273c9.54 0 17.273-7.733 17.273-17.273S444.54 64.727 435 64.727 417.728 72.461 417.728 82 425.461 99.273 435 99.273"/><path stroke="#000" stroke-linecap="round" stroke-linejoin="round" stroke-width="2.75" d="M440.091 76.547a3.64 3.64 0 0 0-3.272-1.818h-3.637a3.637 3.637 0 0 0-3.636 3.636A3.635 3.635 0 0 0 433.182 82h3.637a3.637 3.637 0 0 1 2.571 6.206 3.64 3.64 0 0 1-2.571 1.065h-3.637a3.64 3.64 0 0 1-3.272-1.818M435 70.182v3.94m0 15.757v3.94"/><path fill="#fff" d="M413.489 173.318q-2.546 0-4.534-.875-1.978-.886-3.125-2.432-1.137-1.556-1.171-3.591h4.955q.046.853.556 1.5.523.637 1.387.989t1.943.352q1.125 0 1.989-.397.863-.398 1.352-1.103.489-.704.489-1.625 0-.931-.523-1.647-.512-.728-1.477-1.137-.955-.408-2.273-.409h-2.171v-3.613h2.171q1.114 0 1.966-.387.862-.386 1.341-1.068.477-.693.477-1.614 0-.874-.421-1.534a2.77 2.77 0 0 0-1.159-1.045q-.738-.375-1.727-.375a4.5 4.5 0 0 0-1.829.363 3.2 3.2 0 0 0-1.33 1.012 2.66 2.66 0 0 0-.534 1.545h-4.716q.034-2.011 1.148-3.545t3-2.398q1.898-.875 4.284-.875 2.409 0 4.216.875 1.806.875 2.807 2.364 1.01 1.477 1 3.318.01 1.954-1.216 3.261-1.216 1.307-3.171 1.659v.182q2.568.33 3.909 1.784 1.353 1.443 1.341 3.614.012 1.989-1.148 3.534-1.148 1.545-3.17 2.432-2.023.886-4.636.886m22.373 0q-2.545 0-4.534-.875-1.977-.886-3.125-2.432-1.135-1.556-1.17-3.591h4.954q.046.853.557 1.5.523.637 1.387.989.863.352 1.943.352 1.125 0 1.988-.397.864-.398 1.353-1.103.488-.704.488-1.625 0-.931-.522-1.647-.512-.728-1.478-1.137-.955-.408-2.272-.409h-2.171v-3.613h2.171q1.113 0 1.965-.387.864-.386 1.341-1.068.478-.693.478-1.614 0-.874-.421-1.534a2.8 2.8 0 0 0-1.159-1.045q-.738-.375-1.727-.375-1 0-1.83.363a3.2 3.2 0 0 0-1.329 1.012 2.65 2.65 0 0 0-.534 1.545h-4.716q.034-2.011 1.147-3.545 1.114-1.534 3-2.398 1.899-.875 4.285-.875 2.409 0 4.215.875 1.808.875 2.807 2.364 1.012 1.477 1 3.318.012 1.954-1.216 3.261-1.215 1.307-3.17 1.659v.182q2.568.33 3.909 1.784 1.353 1.443 1.341 3.614.012 1.989-1.148 3.534-1.148 1.545-3.17 2.432-2.023.886-4.637.886m18.204-5.341.011-5.807h.705l5.591-6.625h5.556l-7.511 8.773h-1.148zM449.679 173v-23.273h4.841V173zm10.909 0-5.136-7.602 3.227-3.421 7.58 11.023zm-113.044 17.928V202h-1.456v-8.256l-3.68 8.256h-1.024l-3.696-8.272V202h-1.456v-11.072h1.568l4.096 9.152 4.096-9.152zm6.293 11.216a4.54 4.54 0 0 1-2.24-.56 4.07 4.07 0 0 1-1.568-1.584q-.56-1.04-.56-2.4 0-1.344.576-2.368a4 4 0 0 1 1.6-1.584q1.008-.56 2.256-.56t2.256.56q1.008.544 1.584 1.568.592 1.024.592 2.384t-.608 2.4a4.1 4.1 0 0 1-1.616 1.584q-1.023.56-2.272.56m0-1.28q.785 0 1.472-.368a2.74 2.74 0 0 0 1.104-1.104q.432-.736.432-1.792t-.416-1.792-1.088-1.088a3 3 0 0 0-1.456-.368q-.8 0-1.472.368-.656.352-1.056 1.088t-.4 1.792q0 1.072.384 1.808.4.737 1.056 1.104.657.352 1.44.352m7.867-6.016q.432-.752 1.28-1.248.864-.512 2-.512 1.167 0 2.112.56.96.56 1.504 1.584.543 1.008.544 2.352 0 1.328-.544 2.368a4.01 4.01 0 0 1-3.616 2.192q-1.12 0-1.984-.496-.849-.512-1.296-1.264v5.776h-1.456v-12.928h1.456zm5.952 2.736q0-.991-.4-1.728a2.76 2.76 0 0 0-1.088-1.12 2.95 2.95 0 0 0-1.488-.384q-.801 0-1.488.4-.672.384-1.088 1.136-.4.736-.4 1.712 0 .992.4 1.744.416.736 1.088 1.136a3 3 0 0 0 1.488.384q.816 0 1.488-.384a2.87 2.87 0 0 0 1.088-1.136q.4-.752.4-1.76m7.676-4.512q1.6 0 2.592.976.992.96.992 2.784V202h-1.44v-4.96q0-1.312-.656-2-.656-.704-1.792-.704-1.152 0-1.84.72-.672.72-.672 2.096V202h-1.456v-8.768h1.456v1.248a2.9 2.9 0 0 1 1.168-1.04 3.7 3.7 0 0 1 1.648-.368m7.739 1.36v5.168q0 .64.272.912.272.256.943.256h1.073V202h-1.312q-1.216 0-1.824-.56t-.608-1.84v-5.168h-1.136v-1.2h1.136v-2.208h1.456v2.208h2.288v1.2zm8.404-1.36q.991 0 1.792.432a2.92 2.92 0 0 1 1.248 1.264q.464.847.464 2.064V202h-1.44v-4.96q0-1.312-.656-2-.657-.704-1.792-.704-1.153 0-1.84.72-.672.72-.672 2.096V202h-1.456v-11.84h1.456v4.32a2.87 2.87 0 0 1 1.184-1.04 3.9 3.9 0 0 1 1.712-.368m7.338-2.912V202h-1.456v-11.84zm10.034 3.072-5.28 12.896h-1.505l1.729-4.224-3.536-8.672h1.616l2.752 7.104 2.72-7.104zm13.185.88q0 1.392-.96 2.32-.945.912-2.896.912h-2.144V202h-1.456v-11.152h3.6q1.887 0 2.864.912.992.912.992 2.352m-3.856 2.032q1.216 0 1.792-.528t.576-1.504q0-2.064-2.368-2.064h-2.144v4.096zm7.121-1.488a2.8 2.8 0 0 1 1.088-1.168q.72-.416 1.744-.416v1.504h-.384q-2.448 0-2.448 2.656V202h-1.456v-8.768h1.456zm8.337 7.488a4.54 4.54 0 0 1-2.24-.56 4.07 4.07 0 0 1-1.568-1.584q-.56-1.04-.56-2.4 0-1.344.576-2.368a4 4 0 0 1 1.6-1.584q1.008-.56 2.256-.56t2.256.56q1.008.544 1.584 1.568.592 1.024.592 2.384t-.608 2.4a4.1 4.1 0 0 1-1.616 1.584q-1.024.56-2.272.56m0-1.28q.784 0 1.472-.368a2.74 2.74 0 0 0 1.104-1.104q.432-.736.432-1.792t-.416-1.792-1.088-1.088a3 3 0 0 0-1.456-.368q-.8 0-1.472.368-.656.352-1.056 1.088t-.4 1.792q0 1.072.384 1.808.4.737 1.056 1.104.656.352 1.44.352m5.867-3.28q0-1.344.544-2.352a3.94 3.94 0 0 1 1.488-1.584 4.2 4.2 0 0 1 2.144-.56q1.023 0 1.904.48.879.464 1.344 1.232v-4.64h1.472V202h-1.472v-1.648q-.432.785-1.28 1.296-.849.496-1.984.496a4.06 4.06 0 0 1-2.128-.576 4.03 4.03 0 0 1-1.488-1.616q-.544-1.04-.544-2.368m7.424.016q0-.992-.4-1.728a2.76 2.76 0 0 0-1.088-1.12 2.85 2.85 0 0 0-1.488-.4q-.816 0-1.488.384a2.8 2.8 0 0 0-1.072 1.12q-.4.737-.4 1.728 0 1.008.4 1.76.4.736 1.072 1.136.672.384 1.488.384t1.488-.384a2.87 2.87 0 0 0 1.088-1.136q.4-.752.4-1.744m11.708-4.368V202h-1.456v-1.296q-.416.672-1.168 1.056a3.6 3.6 0 0 1-1.632.368q-1.024 0-1.84-.416a3.2 3.2 0 0 1-1.296-1.28q-.464-.847-.464-2.064v-5.136h1.44v4.944q0 1.296.656 2 .656.688 1.792.688 1.168 0 1.84-.72t.672-2.096v-4.816zm1.914 4.352q0-1.344.544-2.352a3.95 3.95 0 0 1 1.488-1.584 4.2 4.2 0 0 1 2.144-.56q1.025 0 1.904.48.88.464 1.344 1.232v-4.64h1.472V202h-1.472v-1.648q-.432.785-1.28 1.296-.847.496-1.984.496a4.06 4.06 0 0 1-2.128-.576 4.05 4.05 0 0 1-1.488-1.616q-.543-1.04-.544-2.368m7.424.016q0-.992-.4-1.728a2.75 2.75 0 0 0-1.088-1.12 2.85 2.85 0 0 0-1.488-.4q-.816 0-1.488.384a2.8 2.8 0 0 0-1.072 1.12q-.4.737-.4 1.728 0 1.008.4 1.76.4.736 1.072 1.136.672.384 1.488.384t1.488-.384a2.86 2.86 0 0 0 1.088-1.136q.4-.752.4-1.744m11.709-4.368V202h-1.456v-1.296q-.416.672-1.168 1.056a3.6 3.6 0 0 1-1.632.368q-1.024 0-1.84-.416a3.2 3.2 0 0 1-1.296-1.28q-.464-.847-.464-2.064v-5.136h1.44v4.944q0 1.296.656 2 .656.688 1.792.688 1.168 0 1.84-.72t.672-2.096v-4.816zm1.914 4.368q0-1.36.544-2.368a3.9 3.9 0 0 1 1.504-1.584q.976-.56 2.224-.56 1.617 0 2.656.784 1.056.784 1.392 2.176h-1.568a2.23 2.23 0 0 0-.88-1.264q-.64-.464-1.6-.464-1.248 0-2.016.864-.768.848-.768 2.416 0 1.584.768 2.448t2.016.864q.96 0 1.6-.448t.88-1.28h1.568q-.351 1.344-1.408 2.16-1.056.8-2.64.8-1.248 0-2.224-.56a3.9 3.9 0 0 1-1.504-1.584q-.543-1.025-.544-2.4m12.039-3.168v5.168q0 .64.272.912.272.256.944.256h1.072V202h-1.312q-1.216 0-1.824-.56t-.608-1.84v-5.168h-1.136v-1.2h1.136v-2.208h1.456v2.208h2.288v1.2zm11.854 7.68q-1.104 0-1.984-.384-.864-.4-1.36-1.088a2.8 2.8 0 0 1-.512-1.616h1.552q.08.784.64 1.328.576.528 1.664.528 1.04 0 1.632-.512.608-.528.608-1.344 0-.64-.352-1.04a2.25 2.25 0 0 0-.88-.608 14 14 0 0 0-1.424-.448q-1.104-.288-1.776-.576a2.95 2.95 0 0 1-1.136-.896q-.464-.624-.464-1.664 0-.912.464-1.616a3.03 3.03 0 0 1 1.296-1.088q.847-.384 1.936-.384 1.567 0 2.56.784 1.008.784 1.136 2.08h-1.6q-.081-.64-.672-1.12-.593-.496-1.568-.496-.912 0-1.488.48-.576.464-.576 1.312 0 .608.336.992.351.384.848.592.512.192 1.424.448 1.104.304 1.776.608.672.288 1.152.912.48.608.48 1.664 0 .816-.432 1.536t-1.28 1.168q-.849.448-2 .448m5.31-4.528q0-1.344.544-2.352a3.95 3.95 0 0 1 1.488-1.584 4.15 4.15 0 0 1 2.128-.56q1.152 0 2 .496.849.497 1.264 1.248v-1.6h1.472V202h-1.472v-1.632q-.432.768-1.296 1.28-.847.496-1.984.496a4 4 0 0 1-2.112-.576 4.05 4.05 0 0 1-1.488-1.616q-.543-1.04-.544-2.368m7.424.016q0-.992-.4-1.728a2.75 2.75 0 0 0-1.088-1.12 2.85 2.85 0 0 0-1.488-.4q-.816 0-1.488.384a2.8 2.8 0 0 0-1.072 1.12q-.4.737-.4 1.728 0 1.008.4 1.76.4.736 1.072 1.136.672.384 1.488.384t1.488-.384a2.86 2.86 0 0 0 1.088-1.136q.4-.752.4-1.744m5.389-7.44V202h-1.456v-11.84zm10.481 7.12q0 .416-.048.88h-7.008q.08 1.296.88 2.032.816.72 1.968.72.945 0 1.568-.432.64-.448.896-1.184h1.568a3.8 3.8 0 0 1-1.408 2.064q-1.055.784-2.624.784-1.247 0-2.24-.56a4 4 0 0 1-1.536-1.584q-.56-1.04-.56-2.4t.544-2.384a3.8 3.8 0 0 1 1.52-1.568q.993-.56 2.272-.56 1.248 0 2.208.544a3.7 3.7 0 0 1 1.472 1.504q.528.944.528 2.144m-1.504-.304q0-.832-.368-1.424a2.3 2.3 0 0 0-1.008-.912 3 3 0 0 0-1.392-.32q-1.104 0-1.888.704-.768.704-.88 1.952z"/></g><rect width="269" height="229" x="600.5" y="10.5" stroke="#000" stroke-opacity=".3" rx="3.5"/><path fill="#2F2E30" d="M775 80c0 22.091-17.909 40-40 40s-40-17.909-40-40 17.909-40 40-40 40 17.909 40 40m-69.093 0c0 16.067 13.025 29.093 29.093 29.093S764.093 96.067 764.093 80c0-16.068-13.025-29.093-29.093-29.093S705.907 63.933 705.907 80" opacity=".3"/><circle cx="735" cy="80" r="29" fill="#000"/><path fill="#fff" d="M726.667 71.667v-3.334A5 5 0 0 1 735 64.607a5 5 0 0 1 5.375-.838 5 5 0 0 1 2.959 4.564v3.334h2.5a2.5 2.5 0 0 1 2.5 2.5v16.675a5.827 5.827 0 0 1-5.825 5.825h-14.175A6.666 6.666 0 0 1 721.667 90V74.167a2.5 2.5 0 0 1 2.5-2.5zm11.058 22.5a5.8 5.8 0 0 1-1.041-3.325V74.167h-12.517V90a4.17 4.17 0 0 0 1.22 2.946 4.18 4.18 0 0 0 2.947 1.22zm-3.558-22.5v-3.334a2.5 2.5 0 1 0-5 0v3.334zm2.5 0h4.167v-3.334a2.5 2.5 0 0 0-4.427-1.593 5 5 0 0 1 .26 1.593zm2.517 19.175a3.323 3.323 0 0 0 5.676 2.35 3.32 3.32 0 0 0 .974-2.35V74.167h-6.65z"/><path fill="#000" d="M688.534 166.909v-3.875l9.716-15.307h3.341v5.364h-1.977l-6.125 9.693v.182h13.806v3.943zM699.705 171v-5.273l.09-1.716v-16.284h4.614V171zm20.649.318q-2.409 0-4.296-.886-1.875-.886-2.977-2.443t-1.148-3.569h4.773q.08 1.353 1.137 2.194 1.056.84 2.511.841 1.159 0 2.045-.512a3.65 3.65 0 0 0 1.398-1.443q.511-.932.511-2.136 0-1.228-.522-2.159a3.7 3.7 0 0 0-1.421-1.455q-.909-.523-2.079-.534a4.9 4.9 0 0 0-1.989.42q-.954.421-1.489 1.148l-4.375-.784 1.103-12.273h14.227v4.023h-10.17l-.603 5.83h.137q.613-.864 1.852-1.432t2.773-.568q2.101 0 3.75.988a7.1 7.1 0 0 1 2.602 2.716q.955 1.716.943 3.955.012 2.352-1.091 4.181-1.09 1.819-3.057 2.864-1.954 1.034-4.545 1.034m15.53-.023q-1.125 0-1.932-.795a2.66 2.66 0 0 1-.795-1.932q0-1.113.795-1.909a2.66 2.66 0 0 1 1.932-.795q1.091 0 1.909.795.818.796.818 1.909 0 .75-.386 1.375-.375.614-.989.989-.614.363-1.352.363m16.249.023q-2.409 0-4.296-.886-1.875-.886-2.977-2.443-1.103-1.557-1.148-3.569h4.773q.08 1.353 1.136 2.194 1.057.84 2.512.841 1.158 0 2.045-.512a3.66 3.66 0 0 0 1.398-1.443q.511-.932.511-2.136 0-1.228-.523-2.159a3.7 3.7 0 0 0-1.42-1.455q-.909-.523-2.08-.534a4.9 4.9 0 0 0-1.988.42q-.955.421-1.489 1.148l-4.375-.784 1.102-12.273h14.228v4.023h-10.171l-.602 5.83h.136q.614-.864 1.853-1.432t2.772-.568q2.103 0 3.75.988a7.1 7.1 0 0 1 2.603 2.716q.954 1.716.943 3.955.011 2.352-1.091 4.181-1.09 1.819-3.057 2.864-1.954 1.034-4.545 1.034m17.836-5.341.012-5.807h.704l5.591-6.625h5.557l-7.511 8.773h-1.148zM765.583 171v-23.273h4.841V171zm10.909 0-5.136-7.602 3.227-3.421 7.58 11.023zm-148.304 27.416q0-1.632.736-2.928a5.35 5.35 0 0 1 2-2.048q1.28-.736 2.832-.736 1.824 0 3.184.88t1.984 2.496h-1.744q-.463-1.008-1.344-1.552-.864-.544-2.08-.544-1.168 0-2.096.544a3.8 3.8 0 0 0-1.456 1.552q-.528.992-.528 2.336 0 1.328.528 2.336a3.8 3.8 0 0 0 1.456 1.536q.928.544 2.096.544 1.216 0 2.08-.528.88-.544 1.344-1.552h1.744q-.624 1.6-1.984 2.48-1.36.864-3.184.864-1.553 0-2.832-.72a5.4 5.4 0 0 1-2-2.032q-.736-1.296-.736-2.928m20.679-3.184V204h-1.456v-1.296q-.415.672-1.168 1.056a3.6 3.6 0 0 1-1.632.368q-1.024 0-1.84-.416a3.2 3.2 0 0 1-1.296-1.28q-.464-.847-.464-2.064v-5.136h1.44v4.944q0 1.296.656 2 .657.688 1.792.688 1.168 0 1.84-.72t.672-2.096v-4.816zm5.563 8.912q-1.008 0-1.808-.336-.8-.352-1.264-.96a2.6 2.6 0 0 1-.512-1.424h1.504q.063.656.608 1.072.56.416 1.456.416.832 0 1.312-.368t.48-.928q0-.576-.512-.848-.513-.288-1.584-.56a13 13 0 0 1-1.6-.512 3 3 0 0 1-1.056-.784q-.432-.528-.432-1.376 0-.672.4-1.232t1.136-.88q.735-.336 1.68-.336 1.455 0 2.352.736.895.736.96 2.016h-1.456a1.5 1.5 0 0 0-.56-1.104q-.497-.416-1.344-.416-.784 0-1.248.336-.465.336-.464.88 0 .432.272.72.288.272.704.448.432.16 1.184.368.943.256 1.536.512.591.24 1.008.736.432.497.448 1.296 0 .72-.4 1.296t-1.136.912q-.72.32-1.664.32m7.031-7.712v5.168q0 .64.272.912.272.256.944.256h1.072V204h-1.312q-1.217 0-1.824-.56-.608-.56-.608-1.84v-5.168h-1.136v-1.2h1.136v-2.208h1.456v2.208h2.288v1.2zm7.876 7.712a4.54 4.54 0 0 1-2.24-.56 4.07 4.07 0 0 1-1.568-1.584q-.56-1.04-.56-2.4 0-1.344.576-2.368a4 4 0 0 1 1.6-1.584q1.008-.56 2.256-.56t2.256.56q1.008.544 1.584 1.568.592 1.024.592 2.384t-.608 2.4a4.1 4.1 0 0 1-1.616 1.584q-1.024.56-2.272.56m0-1.28q.785 0 1.472-.368a2.74 2.74 0 0 0 1.104-1.104q.432-.736.432-1.792t-.416-1.792-1.088-1.088a3 3 0 0 0-1.456-.368q-.8 0-1.472.368-.656.352-1.056 1.088t-.4 1.792q0 1.072.384 1.808.4.737 1.056 1.104.657.352 1.44.352m16.955-7.792q1.023 0 1.824.432.8.416 1.264 1.264.464.847.464 2.064V204h-1.44v-4.96q0-1.312-.656-2-.64-.704-1.744-.704-1.137 0-1.808.736-.672.72-.672 2.096V204h-1.44v-4.96q0-1.312-.656-2-.64-.704-1.744-.704-1.137 0-1.808.736-.672.72-.672 2.096V204h-1.456v-8.768h1.456v1.264a2.9 2.9 0 0 1 1.152-1.056 3.56 3.56 0 0 1 1.616-.368q1.103 0 1.952.496.847.496 1.264 1.456a2.87 2.87 0 0 1 1.216-1.44 3.6 3.6 0 0 1 1.888-.512m13.94 4.208q0 .416-.048.88h-7.008q.08 1.296.88 2.032.816.72 1.968.72.944 0 1.568-.432.64-.448.896-1.184h1.568a3.8 3.8 0 0 1-1.408 2.064q-1.056.784-2.624.784-1.248 0-2.24-.56a4 4 0 0 1-1.536-1.584q-.56-1.04-.56-2.4t.544-2.384a3.8 3.8 0 0 1 1.52-1.568q.992-.56 2.272-.56 1.248 0 2.208.544a3.7 3.7 0 0 1 1.472 1.504q.528.944.528 2.144m-1.504-.304q0-.832-.368-1.424a2.3 2.3 0 0 0-1.008-.912 3 3 0 0 0-1.392-.32q-1.104 0-1.888.704-.768.704-.88 1.952zm4.882-2.32a2.8 2.8 0 0 1 1.088-1.168q.72-.416 1.744-.416v1.504h-.384q-2.448 0-2.448 2.656V204h-1.456v-8.768h1.456zm8.234 2.928q0-1.344.544-2.352a3.95 3.95 0 0 1 1.488-1.584 4.15 4.15 0 0 1 2.128-.56q1.152 0 2 .496.849.497 1.264 1.248v-1.6h1.472V204h-1.472v-1.632q-.432.768-1.296 1.28-.847.496-1.984.496a4 4 0 0 1-2.112-.576 4.05 4.05 0 0 1-1.488-1.616q-.543-1.04-.544-2.368m7.424.016q0-.992-.4-1.728a2.75 2.75 0 0 0-1.088-1.12 2.85 2.85 0 0 0-1.488-.4q-.816 0-1.488.384a2.8 2.8 0 0 0-1.072 1.12q-.4.737-.4 1.728 0 1.008.4 1.76.4.736 1.072 1.136.672.384 1.488.384t1.488-.384a2.86 2.86 0 0 0 1.088-1.136q.4-.752.4-1.744m3.389 0q0-1.36.544-2.368a3.9 3.9 0 0 1 1.504-1.584q.976-.56 2.224-.56 1.615 0 2.656.784 1.056.784 1.392 2.176h-1.568a2.24 2.24 0 0 0-.88-1.264q-.64-.464-1.6-.464-1.248 0-2.016.864-.768.848-.768 2.416 0 1.584.768 2.448t2.016.864q.96 0 1.6-.448t.88-1.28h1.568q-.352 1.344-1.408 2.16-1.056.8-2.64.8-1.248 0-2.224-.56a3.9 3.9 0 0 1-1.504-1.584q-.544-1.025-.544-2.4m12.039-3.168v5.168q0 .64.272.912.272.256.943.256h1.073V204h-1.312q-1.216 0-1.824-.56t-.608-1.84v-5.168h-1.136v-1.2h1.136v-2.208h1.456v2.208h2.288v1.2zm4.804-2.624a.96.96 0 0 1-.704-.288.96.96 0 0 1-.288-.704q0-.416.288-.704a.96.96 0 0 1 .704-.288.9.9 0 0 1 .672.288.96.96 0 0 1 .288.704.96.96 0 0 1-.288.704.9.9 0 0 1-.672.288m.704 1.424V204h-1.456v-8.768zm5.745 7.424 2.72-7.424h1.552l-3.44 8.768h-1.696l-3.44-8.768h1.568zm13.705-3.376q0 .416-.048.88h-7.008q.08 1.296.88 2.032.816.72 1.968.72.944 0 1.568-.432.64-.448.896-1.184h1.568a3.8 3.8 0 0 1-1.408 2.064q-1.056.784-2.624.784-1.248 0-2.24-.56A4 4 0 0 1 751.67 202q-.56-1.04-.56-2.4t.544-2.384a3.8 3.8 0 0 1 1.52-1.568q.992-.56 2.272-.56 1.248 0 2.208.544a3.7 3.7 0 0 1 1.472 1.504q.528.944.528 2.144m-1.504-.304q0-.832-.368-1.424a2.3 2.3 0 0 0-1.008-.912 3 3 0 0 0-1.392-.32q-1.104 0-1.888.704-.768.704-.88 1.952zm8.443-5.168a.96.96 0 0 1-.704-.288.96.96 0 0 1-.288-.704q0-.416.288-.704a.96.96 0 0 1 .704-.288q.4 0 .672.288a.96.96 0 0 1 .288.704.96.96 0 0 1-.288.704.9.9 0 0 1-.672.288m.704 1.424V204h-1.456v-8.768zm6.754-.16q1.6 0 2.592.976.992.96.992 2.784V204h-1.44v-4.96q0-1.312-.656-2-.656-.704-1.792-.704-1.152 0-1.84.72-.672.72-.672 2.096V204h-1.456v-8.768h1.456v1.248a2.9 2.9 0 0 1 1.168-1.04 3.7 3.7 0 0 1 1.648-.368m14.052 9.072a4.54 4.54 0 0 1-2.24-.56 4.07 4.07 0 0 1-1.568-1.584q-.56-1.04-.56-2.4 0-1.344.576-2.368a4 4 0 0 1 1.6-1.584q1.008-.56 2.256-.56t2.256.56q1.008.544 1.584 1.568.592 1.024.592 2.384t-.608 2.4a4.1 4.1 0 0 1-1.616 1.584q-1.024.56-2.272.56m0-1.28q.784 0 1.472-.368a2.74 2.74 0 0 0 1.104-1.104q.432-.736.432-1.792t-.416-1.792-1.088-1.088a3 3 0 0 0-1.456-.368q-.8 0-1.472.368-.656.352-1.056 1.088t-.4 1.792q0 1.072.384 1.808.4.737 1.056 1.104.656.352 1.44.352m14.186-7.632V204h-1.456v-1.296q-.415.672-1.168 1.056a3.6 3.6 0 0 1-1.632.368q-1.024 0-1.84-.416a3.2 3.2 0 0 1-1.296-1.28q-.464-.847-.464-2.064v-5.136h1.44v4.944q0 1.296.656 2 .657.688 1.792.688 1.168 0 1.84-.72t.672-2.096v-4.816zm3.915 1.424a2.8 2.8 0 0 1 1.088-1.168q.72-.416 1.744-.416v1.504h-.384q-2.448 0-2.448 2.656V204h-1.456v-8.768h1.456zm11.882 7.488q-1.008 0-1.808-.336-.8-.352-1.264-.96a2.6 2.6 0 0 1-.512-1.424h1.504q.064.656.608 1.072.56.416 1.456.416.832 0 1.312-.368t.48-.928q0-.576-.512-.848-.511-.288-1.584-.56a13 13 0 0 1-1.6-.512 3 3 0 0 1-1.056-.784q-.432-.528-.432-1.376 0-.672.4-1.232t1.136-.88q.737-.336 1.68-.336 1.457 0 2.352.736t.96 2.016h-1.456a1.5 1.5 0 0 0-.56-1.104q-.496-.416-1.344-.416-.784 0-1.248.336t-.464.88q0 .432.272.72.288.272.704.448.432.16 1.184.368.944.256 1.536.512.592.24 1.008.736.432.497.448 1.296 0 .72-.4 1.296t-1.136.912q-.72.32-1.664.32m6.007-10.336a.96.96 0 0 1-.704-.288.96.96 0 0 1-.288-.704q0-.416.288-.704a.96.96 0 0 1 .704-.288q.4 0 .672.288a.96.96 0 0 1 .288.704.96.96 0 0 1-.288.704.9.9 0 0 1-.672.288m.704 1.424V204h-1.456v-8.768zm4.258 1.2v5.168q0 .64.272.912.272.256.944.256h1.072V204h-1.312q-1.216 0-1.824-.56t-.608-1.84v-5.168h-1.136v-1.2h1.136v-2.208h1.456v2.208h2.288v1.2zm12.052 2.848q0 .416-.048.88h-7.008q.08 1.296.88 2.032.816.72 1.968.72.944 0 1.568-.432.64-.448.896-1.184h1.568a3.8 3.8 0 0 1-1.408 2.064q-1.056.784-2.624.784-1.248 0-2.24-.56a4 4 0 0 1-1.536-1.584q-.56-1.04-.56-2.4t.544-2.384a3.8 3.8 0 0 1 1.52-1.568q.992-.56 2.272-.56 1.248 0 2.208.544a3.7 3.7 0 0 1 1.472 1.504q.528.944.528 2.144m-1.504-.304q0-.832-.368-1.424a2.3 2.3 0 0 0-1.008-.912 3 3 0 0 0-1.392-.32q-1.104 0-1.888.704-.768.704-.88 1.952z"/><rect width="269" height="229" x="900.5" y="10.5" stroke="#000" stroke-opacity=".3" rx="3.5"/><path fill="#2F2E30" d="M1074.5 80c0 22.091-17.91 40-40 40s-40-17.909-40-40 17.91-40 40-40 40 17.909 40 40m-69.09 0c0 16.067 13.02 29.093 29.09 29.093s29.09-13.026 29.09-29.093c0-16.068-13.02-29.093-29.09-29.093S1005.41 63.933 1005.41 80" opacity=".3"/><circle cx="1034.5" cy="80" r="29" fill="#000"/><path fill="#FAFAFA" stroke="#FAFAFA" d="M1034.93 78.146v.5h.5a3.205 3.205 0 0 1 3.02 2.14q.03.079.03.164a1 1 0 0 1-.04.162.6.6 0 0 1-.1.133.47.47 0 0 1-.31.11.4.4 0 0 1-.16-.042.4.4 0 0 1-.22-.243c-.16-.46-.47-.857-.86-1.138-.4-.281-.88-.432-1.36-.432h-.5v4.71h.5a3.21 3.21 0 1 1 0 6.417h-.5v.928h-.86v-.928h-.5a3.2 3.2 0 0 1-3.02-2.14l-.01-.013a.5.5 0 0 1-.03-.167 1 1 0 0 1 .04-.165.6.6 0 0 1 .1-.137l-.33-.368.33.368a.46.46 0 0 1 .32-.11.42.42 0 0 1 .29.147q.06.065.09.148v.014c.33.915 1.2 1.569 2.22 1.569h.5v-4.71h-.5c-.85 0-1.66-.337-2.27-.94a3.22 3.22 0 0 1-.94-2.268c0-.851.34-1.668.94-2.27a3.23 3.23 0 0 1 2.27-.94h.5v-.927h.86zm-.86 1.854v-.5h-.5c-.62 0-1.22.248-1.66.69s-.69 1.04-.69 1.665c0 .624.25 1.223.69 1.665s1.04.69 1.66.69h.5zm.86 9.273v.5h.5c.62 0 1.22-.248 1.66-.69s.69-1.04.69-1.665c0-.624-.25-1.223-.69-1.665a2.35 2.35 0 0 0-1.66-.69h-.5z"/><path fill="#FAFAFA" stroke="#FAFAFA" d="m1027.21 72.578.31.122c4.35 1.68 9.59 1.68 13.94-.002l.31-.12.23.242a27.5 27.5 0 0 1 4.71 6.746v.002c1.28 2.602 1.99 5.245 1.88 7.562-.12 2.261-1.02 4.227-3.07 5.676-2.11 1.49-5.57 2.528-10.98 2.528-5.42 0-8.9-1.02-11.03-2.492-2.06-1.43-2.97-3.37-3.1-5.605zm0 0-.23.248m.23-.248-.23.248m0 0c-1.82 1.96-3.51 4.364-4.73 6.867m4.73-6.867-4.73 6.867m0 0c-1.27 2.62-1.97 5.25-1.84 7.544zm22.09-13.512c.44.218.82.427 1.14.613l-3.13 4.579-.24.338.29.293a28.4 28.4 0 0 1 5.08 7.188c1.31 2.68 2.09 5.47 1.96 7.982-.12 2.49-1.13 4.712-3.42 6.33-2.31 1.632-5.98 2.684-11.48 2.684-5.51 0-9.19-1.033-11.51-2.644-2.31-1.595-3.33-3.79-3.47-6.258-.14-2.49.62-5.27 1.92-7.966 1.31-2.69 3.14-5.26 5.1-7.32l.28-.293-.23-.333-3.11-4.576c.16-.093.33-.19.52-.291v-.001c.2-.103.4-.208.62-.316l.2-.095c2.24-1.071 5.8-2.286 9.68-2.286 3.9 0 7.46 1.234 9.68 2.311zm-3.62 5.878.16-.054.09-.135 2.74-4.008.59-.856-1.04.075c-2.59.186-5.66.794-8.6 1.646-1.99.574-4.22.492-6.33.104-.53-.098-1.05-.215-1.57-.35l-1.29-.334.75 1.099 1.78 2.621.09.135.16.055c3.92 1.397 8.55 1.397 12.47.002Zm-14.64-5.579-1.28.543 1.33.397c.76.225 1.55.421 2.36.57 2.03.375 4.12.44 5.93-.084a50 50 0 0 1 5.99-1.35l.07-.973c-1.74-.525-3.79-.919-5.94-.919-3.29 0-6.33.914-8.46 1.816Z"/><path fill="#000" d="M1005.39 171v-3.545l8.28-7.671q1.065-1.022 1.77-1.841.735-.817 1.11-1.602c.25-.53.37-1.102.37-1.716 0-.682-.15-1.269-.47-1.761-.31-.5-.73-.883-1.27-1.148q-.81-.41-1.83-.409-1.065 0-1.86.432-.795.431-1.23 1.238c-.29.538-.43 1.178-.43 1.921h-4.67c0-1.523.34-2.845 1.03-3.966s1.66-1.989 2.9-2.602c1.24-.614 2.68-.921 4.3-.921q2.49 0 4.35.886c1.24.584 2.21 1.394 2.9 2.432s1.03 2.228 1.03 3.568c0 .879-.17 1.747-.52 2.603q-.51 1.284-1.83 2.852-1.32 1.557-3.72 3.739l-3.4 3.329v.159h9.78V171zm29.93.318c-1.6 0-3.04-.295-4.29-.886s-2.25-1.405-2.98-2.443-1.12-2.228-1.15-3.569h4.77q.09 1.353 1.14 2.194c.71.56 1.54.841 2.51.841.78 0 1.46-.171 2.05-.512.6-.348 1.06-.829 1.4-1.443q.51-.932.51-2.136c0-.819-.18-1.538-.53-2.159a3.66 3.66 0 0 0-1.42-1.455c-.6-.348-1.3-.527-2.08-.534q-1.02 0-1.98.42c-.64.281-1.14.663-1.49 1.148l-4.38-.784 1.1-12.273h14.23v4.023h-10.17l-.6 5.83h.14c.4-.576 1.02-1.053 1.85-1.432.82-.379 1.75-.568 2.77-.568q2.1 0 3.75.988a7.06 7.06 0 0 1 2.6 2.716c.64 1.144.95 2.462.95 3.955 0 1.568-.36 2.962-1.1 4.181-.72 1.213-1.74 2.167-3.05 2.864-1.3.689-2.82 1.034-4.55 1.034m17.84-5.341.01-5.807h.71l5.59-6.625h5.55l-7.51 8.773h-1.15zm-4.39 5.023v-23.273h4.84V171zm10.91 0-5.13-7.602 3.22-3.421 7.58 11.023zm-123.856 30.52h-4.864l-.896 2.48h-1.536l4.032-11.088h1.68L938.256 204h-1.536zm-.416-1.184-2.016-5.632-2.016 5.632zm8.877-5.264q1.6 0 2.592.976.993.96.992 2.784V204h-1.44v-4.96q0-1.312-.656-2-.655-.704-1.792-.704-1.152 0-1.84.72-.672.72-.672 2.096V204h-1.456v-8.768h1.456v1.248a2.9 2.9 0 0 1 1.168-1.04 3.7 3.7 0 0 1 1.648-.368m13.739.16V204h-1.456v-1.296q-.417.672-1.168 1.056a3.6 3.6 0 0 1-1.632.368q-1.024 0-1.84-.416a3.2 3.2 0 0 1-1.296-1.28q-.464-.847-.464-2.064v-5.136h1.44v4.944q0 1.296.656 2 .655.688 1.792.688 1.168 0 1.84-.72t.672-2.096v-4.816zm1.914 4.352q0-1.344.544-2.352a3.95 3.95 0 0 1 1.488-1.584 4.15 4.15 0 0 1 2.128-.56q1.152 0 2 .496.848.497 1.264 1.248v-1.6h1.472V204h-1.472v-1.632q-.432.768-1.296 1.28-.848.496-1.984.496a3.97 3.97 0 0 1-2.112-.576 4.05 4.05 0 0 1-1.488-1.616q-.544-1.04-.544-2.368m7.424.016q0-.992-.4-1.728a2.75 2.75 0 0 0-1.088-1.12 2.85 2.85 0 0 0-1.488-.4q-.816 0-1.488.384a2.8 2.8 0 0 0-1.072 1.12q-.4.737-.4 1.728 0 1.008.4 1.76.4.736 1.072 1.136.672.384 1.488.384t1.488-.384a2.86 2.86 0 0 0 1.088-1.136q.4-.752.4-1.744m5.389-7.44V204h-1.456v-11.84zm10.363 2.928q1.135 0 1.984.496.863.497 1.28 1.248v-1.6h1.472v8.96q0 1.2-.512 2.128a3.63 3.63 0 0 1-1.472 1.472q-.945.528-2.208.528-1.728 0-2.88-.816-1.153-.816-1.36-2.224h1.44q.24.8.992 1.28.752.496 1.808.496 1.2 0 1.952-.752.768-.751.768-2.112v-1.84q-.432.768-1.28 1.28t-1.984.512a4.06 4.06 0 0 1-2.128-.576 4.03 4.03 0 0 1-1.488-1.616q-.544-1.04-.544-2.368 0-1.344.544-2.352a3.94 3.94 0 0 1 1.488-1.584 4.15 4.15 0 0 1 2.128-.56m3.264 4.512q0-.992-.4-1.728a2.76 2.76 0 0 0-1.088-1.12 2.85 2.85 0 0 0-1.488-.4q-.816 0-1.488.384a2.8 2.8 0 0 0-1.072 1.12q-.4.737-.4 1.728 0 1.008.4 1.76.4.736 1.072 1.136.672.384 1.488.384t1.488-.384a2.87 2.87 0 0 0 1.088-1.136q.4-.752.4-1.744m5.388-2.944a2.8 2.8 0 0 1 1.088-1.168q.72-.416 1.744-.416v1.504h-.384q-2.448 0-2.448 2.656V204h-1.456v-8.768h1.456zm8.334 7.488a4.54 4.54 0 0 1-2.237-.56 4.07 4.07 0 0 1-1.568-1.584q-.56-1.04-.56-2.4 0-1.344.576-2.368a4 4 0 0 1 1.6-1.584q1.007-.56 2.259-.56 1.245 0 2.25.56 1.005.544 1.59 1.568c.39.683.59 1.477.59 2.384s-.2 1.707-.61 2.4a4.05 4.05 0 0 1-1.62 1.584 4.65 4.65 0 0 1-2.27.56m0-1.28q.795 0 1.47-.368.69-.367 1.11-1.104c.29-.491.43-1.088.43-1.792q0-1.056-.42-1.792a2.66 2.66 0 0 0-1.08-1.088 3 3 0 0 0-1.46-.368q-.799 0-1.471.368-.656.352-1.056 1.088t-.4 1.792q0 1.072.384 1.808.4.737 1.056 1.104.656.352 1.437.352m9.52 1.28c-.67 0-1.28-.112-1.81-.336-.53-.235-.96-.555-1.26-.96a2.66 2.66 0 0 1-.52-1.424h1.51c.04.437.24.795.61 1.072s.85.416 1.45.416c.56 0 .99-.123 1.31-.368q.48-.368.48-.928a.9.9 0 0 0-.51-.848c-.34-.192-.87-.379-1.58-.56-.65-.171-1.19-.341-1.6-.512a3 3 0 0 1-1.06-.784c-.29-.352-.43-.811-.43-1.376 0-.448.13-.859.4-1.232s.64-.667 1.14-.88q.735-.336 1.68-.336c.97 0 1.75.245 2.35.736q.885.736.96 2.016h-1.46a1.5 1.5 0 0 0-.56-1.104c-.33-.277-.78-.416-1.34-.416-.53 0-.94.112-1.25.336s-.46.517-.46.88q0 .432.27.72c.19.181.42.331.7.448.29.107.68.229 1.19.368.62.171 1.14.341 1.53.512.4.16.73.405 1.01.736q.435.497.45 1.296c0 .48-.14.912-.4 1.296q-.405.576-1.14.912c-.48.213-1.03.32-1.66.32m8.36 0c-.68 0-1.28-.112-1.81-.336-.53-.235-.96-.555-1.27-.96-.3-.416-.48-.891-.51-1.424h1.51q.06.656.6 1.072c.38.277.86.416 1.46.416.56 0 .99-.123 1.31-.368q.48-.368.48-.928a.9.9 0 0 0-.51-.848c-.34-.192-.87-.379-1.58-.56-.65-.171-1.19-.341-1.6-.512a3 3 0 0 1-1.06-.784c-.29-.352-.43-.811-.43-1.376 0-.448.13-.859.4-1.232s.64-.667 1.13-.88q.75-.336 1.68-.336c.98 0 1.76.245 2.36.736q.885.736.96 2.016h-1.46a1.5 1.5 0 0 0-.56-1.104c-.33-.277-.78-.416-1.34-.416-.53 0-.94.112-1.25.336s-.47.517-.47.88c0 .288.1.528.28.72.19.181.42.331.7.448.29.107.68.229 1.18.368.63.171 1.15.341 1.54.512.4.16.73.405 1.01.736q.435.497.45 1.296c0 .48-.14.912-.4 1.296q-.405.576-1.14.912c-.48.213-1.03.32-1.66.32m12.62 0c-.67 0-1.27-.112-1.81-.336q-.795-.352-1.26-.96a2.57 2.57 0 0 1-.51-1.424h1.5c.04.437.25.795.61 1.072.37.277.86.416 1.46.416.55 0 .99-.123 1.31-.368q.48-.368.48-.928a.9.9 0 0 0-.51-.848c-.35-.192-.87-.379-1.59-.56-.65-.171-1.18-.341-1.6-.512-.4-.181-.76-.443-1.05-.784-.29-.352-.44-.811-.44-1.376 0-.448.14-.859.4-1.232q.405-.56 1.14-.88.735-.336 1.68-.336c.97 0 1.75.245 2.35.736q.9.736.96 2.016h-1.45c-.04-.459-.22-.827-.56-1.104s-.78-.416-1.35-.416c-.52 0-.94.112-1.25.336s-.46.517-.46.88q0 .432.27.72c.19.181.43.331.71.448.28.107.68.229 1.18.368.63.171 1.14.341 1.54.512.39.16.73.405 1 .736q.435.497.45 1.296c0 .48-.13.912-.4 1.296s-.64.688-1.13.912c-.48.213-1.04.32-1.67.32m4.71-4.56c0-.896.18-1.68.55-2.352a3.93 3.93 0 0 1 1.49-1.584c.64-.373 1.34-.56 2.12-.56.77 0 1.44.165 2 .496.57.331.99.747 1.27 1.248v-1.6h1.47V204h-1.47v-1.632c-.29.512-.72.939-1.3 1.28-.56.331-1.23.496-1.98.496-.78 0-1.49-.192-2.11-.576a4 4 0 0 1-1.49-1.616c-.37-.693-.55-1.483-.55-2.368m7.43.016c0-.661-.14-1.237-.4-1.728a2.77 2.77 0 0 0-1.09-1.12c-.45-.267-.94-.4-1.49-.4-.54 0-1.04.128-1.49.384-.44.256-.8.629-1.07 1.12s-.4 1.067-.4 1.728c0 .672.13 1.259.4 1.76.27.491.63.869 1.07 1.136.45.256.95.384 1.49.384.55 0 1.04-.128 1.49-.384.46-.267.82-.645 1.09-1.136.26-.501.4-1.083.4-1.744m5.39-7.44V204h-1.46v-11.84zm10.48 7.12c0 .277-.02.571-.05.88h-7.01c.05.864.35 1.541.88 2.032.55.48 1.2.72 1.97.72.63 0 1.15-.144 1.57-.432.42-.299.72-.693.89-1.184h1.57q-.345 1.264-1.41 2.064c-.7.523-1.58.784-2.62.784-.83 0-1.58-.187-2.24-.56a4.05 4.05 0 0 1-1.54-1.584c-.37-.693-.56-1.493-.56-2.4s.18-1.701.55-2.384a3.77 3.77 0 0 1 1.52-1.568c.66-.373 1.42-.56 2.27-.56.83 0 1.57.181 2.21.544q.96.544 1.47 1.504c.35.629.53 1.344.53 2.144m-1.51-.304q0-.832-.36-1.424a2.4 2.4 0 0 0-1.01-.912c-.42-.213-.88-.32-1.39-.32q-1.11 0-1.89.704c-.51.469-.81 1.12-.88 1.952zm8.45-5.168a.96.96 0 0 1-.71-.288.97.97 0 0 1-.29-.704c0-.277.1-.512.29-.704a.96.96 0 0 1 .71-.288c.26 0 .49.096.67.288.19.192.29.427.29.704s-.1.512-.29.704a.9.9 0 0 1-.67.288m.7 1.424V204h-1.46v-8.768zm6.75-.16c1.07 0 1.93.325 2.6.976q.99.96.99 2.784V204h-1.44v-4.96q0-1.312-.66-2c-.44-.469-1.03-.704-1.79-.704-.77 0-1.38.24-1.84.72-.45.48-.67 1.179-.67 2.096V204h-1.46v-8.768h1.46v1.248q.435-.672 1.17-1.04c.5-.245 1.05-.368 1.64-.368m14.06 9.072c-.83 0-1.57-.187-2.24-.56a4 4 0 0 1-1.57-1.584c-.38-.693-.56-1.493-.56-2.4q0-1.344.57-2.368c.4-.693.93-1.221 1.6-1.584.68-.373 1.43-.56 2.26-.56s1.58.187 2.26.56c.67.363 1.2.885 1.58 1.568.39.683.59 1.477.59 2.384s-.2 1.707-.61 2.4a4.1 4.1 0 0 1-1.61 1.584 4.65 4.65 0 0 1-2.27.56m0-1.28q.78 0 1.47-.368c.46-.245.82-.613 1.1-1.104.29-.491.43-1.088.43-1.792s-.13-1.301-.41-1.792-.64-.853-1.09-1.088a3 3 0 0 0-1.46-.368q-.795 0-1.47.368-.66.352-1.05 1.088c-.27.491-.4 1.088-.4 1.792 0 .715.12 1.317.38 1.808.27.491.62.859 1.06 1.104q.645.352 1.44.352m14.18-7.632V204h-1.45v-1.296q-.42.672-1.17 1.056c-.49.245-1.04.368-1.63.368-.69 0-1.3-.139-1.84-.416a3.16 3.16 0 0 1-1.3-1.28c-.31-.565-.46-1.253-.46-2.064v-5.136h1.44v4.944c0 .864.22 1.531.65 2 .44.459 1.04.688 1.79.688.78 0 1.4-.24 1.84-.72.45-.48.68-1.179.68-2.096v-4.816zm3.92 1.424c.25-.501.62-.891 1.08-1.168.48-.277 1.07-.416 1.75-.416v1.504h-.39c-1.63 0-2.44.885-2.44 2.656V204h-1.46v-8.768h1.46zm11.88 7.488c-.67 0-1.28-.112-1.81-.336q-.795-.352-1.26-.96a2.57 2.57 0 0 1-.51-1.424h1.5c.04.437.24.795.61 1.072s.86.416 1.45.416q.84 0 1.32-.368t.48-.928c0-.384-.18-.667-.52-.848-.34-.192-.87-.379-1.58-.56-.65-.171-1.18-.341-1.6-.512a3 3 0 0 1-1.06-.784c-.28-.352-.43-.811-.43-1.376 0-.448.13-.859.4-1.232q.405-.56 1.14-.88.735-.336 1.68-.336c.97 0 1.75.245 2.35.736q.9.736.96 2.016h-1.46a1.5 1.5 0 0 0-.56-1.104c-.33-.277-.78-.416-1.34-.416-.52 0-.94.112-1.25.336s-.46.517-.46.88q0 .432.27.72c.19.181.43.331.7.448.29.107.69.229 1.19.368q.945.256 1.53.512c.4.16.73.405 1.01.736q.435.497.45 1.296c0 .48-.13.912-.4 1.296q-.405.576-1.14.912c-.48.213-1.03.32-1.66.32m6.01-10.336a.96.96 0 0 1-.71-.288.97.97 0 0 1-.29-.704c0-.277.1-.512.29-.704a.96.96 0 0 1 .71-.288c.26 0 .49.096.67.288.19.192.29.427.29.704s-.1.512-.29.704a.9.9 0 0 1-.67.288m.7 1.424V204h-1.46v-8.768zm4.26 1.2v5.168q0 .64.27.912c.18.171.5.256.94.256h1.08V204h-1.32c-.81 0-1.41-.187-1.82-.56s-.61-.987-.61-1.84v-5.168h-1.13v-1.2h1.13v-2.208h1.46v2.208h2.29v1.2zm12.05 2.848c0 .277-.02.571-.05.88H1133c.06.864.35 1.541.88 2.032.55.48 1.2.72 1.97.72.63 0 1.15-.144 1.57-.432q.645-.448.9-1.184h1.56c-.23.843-.7 1.531-1.4 2.064-.71.523-1.58.784-2.63.784-.83 0-1.58-.187-2.24-.56a3.96 3.96 0 0 1-1.53-1.584c-.38-.693-.56-1.493-.56-2.4q0-1.36.54-2.384a3.77 3.77 0 0 1 1.52-1.568c.66-.373 1.42-.56 2.27-.56.83 0 1.57.181 2.21.544q.96.544 1.47 1.504c.35.629.53 1.344.53 2.144m-1.5-.304c0-.555-.13-1.029-.37-1.424a2.33 2.33 0 0 0-1.01-.912c-.42-.213-.88-.32-1.39-.32q-1.11 0-1.89.704c-.51.469-.81 1.12-.88 1.952z"/><defs><filter id="a" width="294" height="254" x="288" y="0" color-interpolation-filters="sRGB" filterUnits="userSpaceOnUse"><feFlood flood-opacity="0" result="BackgroundImageFix"/><feColorMatrix in="SourceAlpha" result="hardAlpha" values="0 0 0 0 0 0 0 0 0 0 0 0 0 0 0 0 0 0 127 0"/><feMorphology in="SourceAlpha" operator="dilate" radius="2" result="effect1_dropShadow_246_4830"/><feOffset dy="2"/><feGaussianBlur stdDeviation="5"/><feComposite in2="hardAlpha" operator="out"/><feColorMatrix values="0 0 0 0 0 0 0 0 0 0 0 0 0 0 0 0 0 0 0.2 0"/><feBlend in2="BackgroundImageFix" result="effect1_dropShadow_246_4830"/><feBlend in="SourceGraphic" in2="effect1_dropShadow_246_4830" result="shape"/></filter></defs></svg>