<svg xmlns="http://www.w3.org/2000/svg" width="943" height="161" fill="none"><path fill="#2F2E30" d="M164.5 40c0 22.091-17.909 40-40 40s-40-17.909-40-40 17.909-40 40-40 40 17.909 40 40m-69.093 0c0 16.068 13.025 29.093 29.093 29.093S153.593 56.067 153.593 40 140.568 10.907 124.5 10.907 95.407 23.933 95.407 40" opacity=".3"/><circle cx="124.5" cy="40" r="29" fill="#000"/><g stroke="#FAFAFA" stroke-linecap="round" stroke-linejoin="round" stroke-width="2" clip-path="url(#a)"><path d="M116.166 51.667a3.334 3.334 0 1 0 0-6.668 3.334 3.334 0 0 0 0 6.668m16.667 0a3.334 3.334 0 1 0 0-6.668 3.334 3.334 0 0 0 0 6.668"/><path d="M112.833 48.334H111.5a2 2 0 0 1-2-2v-4.667m-1.667-13.333h16.333a2 2 0 0 1 2 2v18m-6.666 0h10m6.666 0h1.334a2 2 0 0 0 2-2v-8m0 0h-13.334m13.334 0-4.418-7.363a2 2 0 0 0-1.715-.97h-7.201"/><path d="M112.5 48h-1.333a2 2 0 0 1-2-2v-4.667M107.5 28h16.333a2 2 0 0 1 2 2v18m-6.333 0h9.667m7.333 0h.667a2 2 0 0 0 2-2v-8m0 0h-13.334m13.334 0-4.418-7.362a2 2 0 0 0-1.715-.971h-7.201M109.5 31.818h6.667m-9.849 3.637h6.667M109.5 39.09h6.667"/></g><path fill="#000" d="M13.5 111.04v2.26H7.68v3.58h4.46v2.22H7.68v5.9h-2.8v-13.96zM22.686 125l-3.08-5.44h-1.32V125h-2.8v-13.96h5.24q1.62 0 2.76.58 1.14.56 1.7 1.54.58.96.58 2.16 0 1.38-.8 2.5-.8 1.1-2.38 1.52l3.34 5.66zm-4.4-7.54h2.34q1.14 0 1.7-.54.56-.56.56-1.54 0-.96-.56-1.48-.56-.54-1.7-.54h-2.34zm12.812-4.16v3.5h4.7v2.22h-4.7v3.7h5.3V125h-8.1v-13.98h8.1v2.28zm10.645 0v3.5h4.7v2.22h-4.7v3.7h5.3V125h-8.1v-13.98h8.1v2.28zm21.17 9.04h-5.56l-.92 2.66h-2.94l5.02-13.98h3.26l5.02 13.98h-2.96zm-.76-2.24-2.02-5.84-2.02 5.84zm18.456 4.9h-2.8l-6.34-9.58V125h-2.8v-13.98h2.8l6.34 9.6v-9.6h2.8zm7.647-13.96q2.2 0 3.86.86 1.68.86 2.58 2.46.92 1.58.92 3.68t-.92 3.68q-.9 1.56-2.58 2.42-1.66.86-3.86.86h-4.88v-13.96zm-.1 11.58q2.2 0 3.4-1.2t1.2-3.38-1.2-3.4q-1.2-1.24-3.4-1.24h-1.98v9.22zm22.942-11.58v2.26h-5.82v3.58h4.46v2.22h-4.46v5.9h-2.8v-13.96zm10.545 11.3h-5.56l-.92 2.66h-2.94l5.02-13.98h3.26l5.02 13.98h-2.96zm-.76-2.24-2.02-5.84-2.02 5.84zm11.337 5.04q-1.461 0-2.64-.5-1.16-.5-1.84-1.44t-.7-2.22h3q.06.86.6 1.36.56.5 1.52.5.98 0 1.54-.46.56-.48.56-1.24 0-.62-.38-1.02a2.56 2.56 0 0 0-.96-.62q-.561-.24-1.56-.52-1.36-.4-2.22-.78a4.1 4.1 0 0 1-1.46-1.18q-.6-.8-.6-2.12 0-1.24.62-2.16t1.74-1.4q1.12-.5 2.56-.5 2.16 0 3.5 1.06 1.359 1.04 1.5 2.92h-3.08a1.56 1.56 0 0 0-.62-1.18q-.561-.48-1.5-.48-.82 0-1.32.42-.48.42-.48 1.22 0 .56.36.94.38.36.92.6.56.22 1.56.52 1.359.4 2.22.8a4 4 0 0 1 1.48 1.2q.62.8.62 2.1 0 1.12-.58 2.08t-1.7 1.54q-1.12.56-2.66.56m16.867-14.1v2.26h-3.72V125h-2.8v-11.7h-3.72v-2.26zm11.689 0q2.2 0 3.86.86 1.68.86 2.58 2.46.92 1.58.92 3.68t-.92 3.68q-.9 1.56-2.58 2.42-1.66.86-3.86.86h-4.88v-13.96zm-.1 11.58q2.2 0 3.4-1.2t1.2-3.38-1.2-3.4q-1.2-1.24-3.4-1.24h-1.98v9.22zm12.356-9.32v3.5h4.7v2.22h-4.7v3.7h5.3V125h-8.1v-13.98h8.1v2.28zm10.644 9.48h4.6V125h-7.4v-13.96h2.8zm9.18-11.74V125h-2.8v-13.96zm15.306 0-5.12 13.96h-3.4l-5.12-13.96h3l3.84 11.1 3.82-11.1zm4.479 2.26v3.5h4.7v2.22h-4.7v3.7h5.3V125h-8.1v-13.98h8.1v2.28zm15.044 11.7-3.08-5.44h-1.32V125h-2.8v-13.96h5.24q1.62 0 2.76.58 1.14.56 1.7 1.54.58.96.58 2.16 0 1.38-.8 2.5-.8 1.1-2.38 1.52l3.34 5.66zm-4.4-7.54h2.34q1.14 0 1.7-.54.56-.56.56-1.54 0-.96-.56-1.48-.56-.54-1.7-.54h-2.34zm21.113-6.42-4.72 9.1V125h-2.8v-4.86l-4.74-9.1h3.16l3 6.38 2.98-6.38zM6.994 145.242v1.036H2.752v3.29h3.444v1.036H2.752V155H1.478v-9.758zm2.813 3.332q.336-.658.952-1.022.63-.364 1.526-.364v1.316h-.336q-2.142 0-2.142 2.324V155H8.533v-7.672h1.274zm10.949 2.296q0 .364-.042.77h-6.132q.07 1.134.77 1.778.714.63 1.722.63.825 0 1.372-.378.56-.392.784-1.036h1.372a3.33 3.33 0 0 1-1.232 1.806q-.925.686-2.296.686-1.092 0-1.96-.49a3.5 3.5 0 0 1-1.344-1.386q-.49-.91-.49-2.1t.476-2.086a3.3 3.3 0 0 1 1.33-1.372q.867-.49 1.988-.49 1.092 0 1.932.476t1.288 1.316q.462.826.462 1.876m-1.316-.266q0-.728-.322-1.246a2 2 0 0 0-.882-.798 2.6 2.6 0 0 0-1.218-.28q-.966 0-1.652.616-.672.616-.77 1.708zm9.997.266q0 .364-.042.77h-6.132q.07 1.134.77 1.778.714.63 1.722.63.826 0 1.372-.378.56-.392.784-1.036h1.372a3.34 3.34 0 0 1-1.232 1.806q-.924.686-2.296.686-1.092 0-1.96-.49a3.5 3.5 0 0 1-1.344-1.386q-.49-.91-.49-2.1t.476-2.086a3.3 3.3 0 0 1 1.33-1.372q.869-.49 1.988-.49 1.092 0 1.932.476t1.288 1.316q.462.826.462 1.876m-1.316-.266q0-.728-.322-1.246a2 2 0 0 0-.882-.798 2.6 2.6 0 0 0-1.218-.28q-.965 0-1.652.616-.672.616-.77 1.708zm6.254.532q.001-1.176.476-2.058a3.46 3.46 0 0 1 1.302-1.386 3.65 3.65 0 0 1 1.876-.49q.897 0 1.666.42.771.406 1.176 1.078v-4.06h1.288V155h-1.288v-1.442q-.378.685-1.12 1.134-.741.434-1.736.434a3.55 3.55 0 0 1-1.862-.504 3.53 3.53 0 0 1-1.302-1.414q-.476-.91-.476-2.072m6.496.014q0-.869-.35-1.512a2.4 2.4 0 0 0-.952-.98 2.5 2.5 0 0 0-1.302-.35q-.714 0-1.302.336a2.44 2.44 0 0 0-.938.98q-.35.643-.35 1.512 0 .882.35 1.54.35.644.938.994.588.336 1.302.336t1.302-.336q.603-.35.952-.994.35-.658.35-1.526m10.441-.28q0 .364-.042.77h-6.132q.07 1.134.77 1.778.714.63 1.722.63.826 0 1.372-.378.56-.392.784-1.036h1.372a3.34 3.34 0 0 1-1.232 1.806q-.924.686-2.296.686-1.092 0-1.96-.49a3.5 3.5 0 0 1-1.344-1.386q-.49-.91-.49-2.1t.476-2.086a3.3 3.3 0 0 1 1.33-1.372q.869-.49 1.988-.49 1.092 0 1.932.476t1.288 1.316q.462.826.462 1.876m-1.316-.266q0-.728-.322-1.246a2 2 0 0 0-.882-.798 2.6 2.6 0 0 0-1.218-.28q-.966 0-1.652.616-.672.616-.77 1.708zm4.272-5.964V155h-1.274v-10.36zm2.83 1.442a.84.84 0 0 1-.617-.252.84.84 0 0 1-.252-.616q0-.364.252-.616a.84.84 0 0 1 .616-.252q.351 0 .588.252a.84.84 0 0 1 .252.616.84.84 0 0 1-.252.616.78.78 0 0 1-.588.252m.615 1.246V155H56.44v-7.672zm5.028 6.496 2.38-6.496h1.358L63.469 155h-1.484l-3.01-7.672h1.372zm11.991-2.954q0 .364-.042.77h-6.132q.07 1.134.77 1.778.714.63 1.722.63.826 0 1.372-.378.56-.392.784-1.036h1.372a3.33 3.33 0 0 1-1.232 1.806q-.924.686-2.296.686-1.092 0-1.96-.49a3.5 3.5 0 0 1-1.344-1.386q-.49-.91-.49-2.1t.476-2.086a3.3 3.3 0 0 1 1.33-1.372q.869-.49 1.988-.49 1.092 0 1.932.476t1.288 1.316q.462.826.462 1.876m-1.316-.266q0-.728-.322-1.246a2 2 0 0 0-.882-.798 2.6 2.6 0 0 0-1.218-.28q-.966 0-1.652.616-.671.616-.77 1.708zm4.272-2.03q.336-.658.952-1.022.63-.364 1.526-.364v1.316h-.336q-2.142 0-2.142 2.324V155h-1.274v-7.672h1.274zm10.557-1.246-4.62 11.284h-1.316l1.512-3.696-3.094-7.588h1.414l2.408 6.216 2.38-6.216zm8.135 1.05h-1.61V155h-1.274v-6.622h-.994v-1.05h.994v-.546q0-1.288.658-1.876.672-.602 2.142-.602v1.064q-.84 0-1.19.336-.336.322-.336 1.078v.546h1.61zm4.831 6.748a3.96 3.96 0 0 1-1.96-.49 3.57 3.57 0 0 1-1.372-1.386q-.49-.91-.49-2.1 0-1.176.504-2.072a3.5 3.5 0 0 1 1.4-1.386q.882-.49 1.974-.49t1.974.49a3.44 3.44 0 0 1 1.386 1.372q.518.896.518 2.086t-.532 2.1a3.6 3.6 0 0 1-1.414 1.386 4.1 4.1 0 0 1-1.988.49m0-1.12q.686 0 1.288-.322.602-.323.966-.966.378-.644.378-1.568t-.364-1.568-.952-.952a2.6 2.6 0 0 0-1.274-.322q-.7 0-1.288.322-.574.308-.924.952t-.35 1.568q0 .938.336 1.582.35.643.924.966.575.308 1.26.308m6.883-5.432q.337-.658.952-1.022.63-.364 1.526-.364v1.316h-.336q-2.142 0-2.142 2.324V155h-1.274v-7.672h1.274zm7.205 2.562q0-1.176.476-2.058a3.47 3.47 0 0 1 1.302-1.386 3.6 3.6 0 0 1 1.862-.49q1.008 0 1.75.434.743.434 1.106 1.092v-1.4h1.288V155h-1.288v-1.428q-.378.672-1.134 1.12-.741.434-1.736.434a3.5 3.5 0 0 1-1.848-.504 3.54 3.54 0 0 1-1.302-1.414q-.476-.91-.476-2.072m6.496.014q0-.869-.35-1.512a2.4 2.4 0 0 0-.952-.98 2.5 2.5 0 0 0-1.302-.35q-.714 0-1.302.336a2.44 2.44 0 0 0-.938.98q-.35.643-.35 1.512 0 .882.35 1.54.35.644.938.994.588.336 1.302.336t1.302-.336q.603-.35.952-.994.35-.658.35-1.526m4.715-6.51V155h-1.274v-10.36zm3.446 0V155h-1.274v-10.36zm9.249 10.486a3.97 3.97 0 0 1-1.96-.49 3.57 3.57 0 0 1-1.372-1.386q-.49-.91-.49-2.1 0-1.176.504-2.072a3.5 3.5 0 0 1 1.4-1.386q.882-.49 1.974-.49t1.974.49a3.44 3.44 0 0 1 1.386 1.372q.519.896.518 2.086 0 1.19-.532 2.1a3.6 3.6 0 0 1-1.414 1.386 4.1 4.1 0 0 1-1.988.49m0-1.12q.687 0 1.288-.322.603-.323.966-.966.378-.644.378-1.568t-.364-1.568-.952-.952a2.6 2.6 0 0 0-1.274-.322q-.7 0-1.288.322-.573.308-.924.952-.35.644-.35 1.568 0 .938.336 1.582.351.643.924.966.575.308 1.26.308m6.883-5.432q.337-.658.952-1.022.63-.364 1.526-.364v1.316h-.336q-2.142 0-2.142 2.324V155h-1.274v-7.672h1.274zm3.473 2.562q0-1.176.476-2.058a3.46 3.46 0 0 1 1.302-1.386 3.65 3.65 0 0 1 1.876-.49q.896 0 1.666.42.77.406 1.176 1.078v-4.06h1.288V155h-1.288v-1.442a3.03 3.03 0 0 1-1.12 1.134q-.742.434-1.736.434a3.55 3.55 0 0 1-1.862-.504 3.53 3.53 0 0 1-1.302-1.414q-.476-.91-.476-2.072m6.496.014q0-.869-.35-1.512a2.4 2.4 0 0 0-.952-.98 2.5 2.5 0 0 0-1.302-.35q-.714 0-1.302.336a2.44 2.44 0 0 0-.938.98q-.35.643-.35 1.512 0 .882.35 1.54.35.644.938.994.588.336 1.302.336t1.302-.336q.602-.35.952-.994.35-.658.35-1.526m10.441-.28q0 .364-.042.77h-6.132q.07 1.134.77 1.778.714.63 1.722.63.826 0 1.372-.378.56-.392.784-1.036h1.372a3.33 3.33 0 0 1-1.232 1.806q-.924.686-2.296.686-1.092 0-1.96-.49a3.5 3.5 0 0 1-1.344-1.386q-.49-.91-.49-2.1t.476-2.086a3.3 3.3 0 0 1 1.33-1.372q.868-.49 1.988-.49 1.092 0 1.932.476t1.288 1.316q.462.826.462 1.876m-1.316-.266q0-.728-.322-1.246a2.03 2.03 0 0 0-.882-.798 2.6 2.6 0 0 0-1.218-.28q-.966 0-1.652.616-.672.616-.77 1.708zm4.272-2.03q.336-.658.952-1.022.63-.364 1.526-.364v1.316h-.336q-2.142 0-2.142 2.324V155h-1.274v-7.672h1.274zm6.664 6.552a4.1 4.1 0 0 1-1.582-.294q-.7-.308-1.106-.84a2.3 2.3 0 0 1-.448-1.246h1.316q.057.574.532.938.49.364 1.274.364.728 0 1.148-.322t.42-.812a.79.79 0 0 0-.448-.742q-.447-.252-1.386-.49a11 11 0 0 1-1.4-.448 2.7 2.7 0 0 1-.924-.686q-.378-.462-.378-1.204 0-.588.35-1.078t.994-.77q.645-.294 1.47-.294 1.275 0 2.058.644.785.644.84 1.764h-1.274a1.3 1.3 0 0 0-.49-.966q-.434-.364-1.176-.364-.686 0-1.092.294t-.406.77q0 .378.238.63.252.238.616.392.378.14 1.036.322.827.224 1.344.448.519.21.882.644.378.434.392 1.134 0 .63-.35 1.134t-.994.798q-.63.28-1.456.28m11.677 0a3.96 3.96 0 0 1-1.96-.49 3.56 3.56 0 0 1-1.372-1.386q-.49-.91-.49-2.1 0-1.176.504-2.072a3.5 3.5 0 0 1 1.4-1.386q.882-.49 1.974-.49t1.974.49a3.44 3.44 0 0 1 1.386 1.372q.518.896.518 2.086t-.532 2.1a3.6 3.6 0 0 1-1.414 1.386 4.1 4.1 0 0 1-1.988.49m0-1.12q.686 0 1.288-.322.602-.323.966-.966.378-.644.378-1.568t-.364-1.568-.952-.952a2.6 2.6 0 0 0-1.274-.322q-.7 0-1.288.322-.574.308-.924.952t-.35 1.568q0 .938.336 1.582.35.643.924.966.575.308 1.26.308m8.465-.182 2.38-6.496h1.358l-3.01 7.672h-1.484l-3.01-7.672h1.372zm11.992-2.954q0 .364-.042.77h-6.132q.07 1.134.77 1.778.714.63 1.722.63.826 0 1.372-.378.56-.392.784-1.036h1.372a3.34 3.34 0 0 1-1.232 1.806q-.925.686-2.296.686-1.093 0-1.96-.49a3.5 3.5 0 0 1-1.344-1.386q-.49-.91-.49-2.1t.476-2.086a3.3 3.3 0 0 1 1.33-1.372q.867-.49 1.988-.49 1.092 0 1.932.476t1.288 1.316q.462.826.462 1.876m-1.316-.266q0-.728-.322-1.246a2.03 2.03 0 0 0-.882-.798 2.6 2.6 0 0 0-1.218-.28q-.966 0-1.652.616-.672.616-.77 1.708zm4.271-2.03q.336-.658.952-1.022.63-.364 1.526-.364v1.316h-.336q-2.142 0-2.142 2.324V155h-1.274v-7.672h1.274zm13.982 3.752q0 .672-.336 1.288a2.8 2.8 0 0 1-.994 1.008q-.645.406-1.554.462v1.134h-.756v-1.134q-1.274-.112-2.072-.812-.798-.714-.812-1.806h1.358q.056.588.434 1.022.392.433 1.092.546v-3.5q-.939-.238-1.512-.49a2.46 2.46 0 0 1-.98-.784q-.406-.532-.406-1.428 0-1.134.784-1.876.798-.742 2.114-.826v-1.162h.756v1.162q1.19.098 1.918.77.727.658.84 1.722h-1.358a1.6 1.6 0 0 0-.434-.882q-.364-.406-.966-.532v3.416q.924.238 1.498.49.588.238.98.77.406.532.406 1.442m-5.236-4.564q0 .685.406 1.05.405.364 1.19.602v-3.234q-.729.07-1.162.476-.434.392-.434 1.106m2.352 6.286q.756-.084 1.176-.546a1.56 1.56 0 0 0 .434-1.106q0-.685-.42-1.05-.42-.378-1.19-.602zm4.747-8.008v-1.162h2.632V155h-1.288v-8.96zm4.512 6.706v-.966l4.914-6.804h1.526v6.664h1.4v1.106h-1.4V155h-1.26v-2.254zm5.236-6.44-3.766 5.334h3.766zm3.877 3.528q0-2.408.784-3.752.783-1.358 2.744-1.358 1.946 0 2.73 1.358.783 1.344.784 3.752 0 2.45-.784 3.808t-2.73 1.358q-1.96 0-2.744-1.358t-.784-3.808m5.782 0q0-1.218-.168-2.058-.154-.854-.658-1.372-.49-.518-1.428-.518-.952 0-1.456.518-.49.518-.658 1.372-.154.84-.154 2.058 0 1.26.154 2.114.168.854.658 1.372.504.518 1.456.518.937 0 1.428-.518.504-.518.658-1.372.168-.854.168-2.114"/><path fill="#2F2E30" d="M508 40c0 22.091-17.909 40-40 40s-40-17.909-40-40 17.909-40 40-40 40 17.909 40 40m-69.093 0c0 16.068 13.025 29.093 29.093 29.093S497.093 56.067 497.093 40 484.068 10.907 468 10.907 438.907 23.933 438.907 40" opacity=".3"/><circle cx="468" cy="40" r="29" fill="#000"/><g stroke="#fff" stroke-linecap="round" stroke-linejoin="round" stroke-width="2" clip-path="url(#b)"><path d="M461.334 45a3.334 3.334 0 0 0-6.667 0v3.333a3.333 3.333 0 1 0 6.667 0zm20 0a3.334 3.334 0 0 0-6.667 0v3.333a3.333 3.333 0 1 0 6.667 0z"/><path d="M454.667 45v-5A13.335 13.335 0 0 1 468 26.667 13.33 13.33 0 0 1 481.334 40v5M478 51.667c0 1.326-1.054 2.598-2.929 3.535s-4.419 1.465-7.071 1.465"/></g><path fill="#000" d="M346.44 121.84a78 78 0 0 0 3.06-2.66q1.14-1.08 1.9-2.24t.76-2.28q0-1.02-.48-1.6t-1.48-.58-1.54.68q-.54.66-.56 1.82h-2.72q.08-2.4 1.42-3.64 1.36-1.24 3.44-1.24 2.28 0 3.5 1.22 1.22 1.2 1.22 3.18 0 1.56-.84 2.98t-1.92 2.48q-1.08 1.04-2.82 2.52h5.9v2.32h-9.88v-2.08zm10.484.32v-2.2l6.54-9.36h3.26v9.12h1.76v2.44h-1.76V125h-2.8v-2.84zm7.18-8.56-4.1 6.12h4.1zm13.983-7.54-5.4 22.56h-2.74l5.4-22.56zm11.187 6.48-5.32 12.46h-2.84l5.36-12.14h-6.84v-2.4h9.64zm6.082 5.46q0-2.06.92-3.68a6.65 6.65 0 0 1 2.54-2.54q1.62-.92 3.62-.92 2.34 0 4.1 1.2 1.761 1.2 2.46 3.32h-3.22q-.48-1-1.36-1.5-.86-.5-2-.5-1.22 0-2.18.58-.94.56-1.48 1.6-.52 1.04-.52 2.44 0 1.38.52 2.44a4.06 4.06 0 0 0 1.48 1.62q.96.56 2.18.56 1.14 0 2-.5.88-.52 1.36-1.52h3.22q-.699 2.14-2.46 3.34-1.74 1.18-4.1 1.18-2 0-3.62-.9a6.83 6.83 0 0 1-2.54-2.54q-.92-1.62-.92-3.68m18.792-6.96v8.64q0 1.42.74 2.18.74.74 2.08.74 1.359 0 2.1-.74.74-.76.74-2.18v-8.64h2.82v8.62q0 1.78-.78 3.02a4.83 4.83 0 0 1-2.06 1.84q-1.28.62-2.86.62-1.56 0-2.84-.62a4.75 4.75 0 0 1-2-1.84q-.74-1.24-.74-3.02v-8.62zm16.005 14.1q-1.46 0-2.64-.5-1.16-.5-1.84-1.44t-.7-2.22h3q.06.86.6 1.36.56.5 1.52.5.98 0 1.54-.46.56-.48.56-1.24 0-.62-.38-1.02a2.54 2.54 0 0 0-.96-.62q-.56-.24-1.56-.52-1.36-.4-2.22-.78a4.1 4.1 0 0 1-1.46-1.18q-.6-.8-.6-2.12 0-1.24.62-2.16t1.74-1.4q1.12-.5 2.56-.5 2.16 0 3.5 1.06 1.36 1.04 1.5 2.92h-3.08a1.56 1.56 0 0 0-.62-1.18q-.56-.48-1.5-.48-.82 0-1.32.42-.48.42-.48 1.22 0 .56.36.94.38.36.92.6.56.22 1.56.52 1.36.4 2.22.8a4 4 0 0 1 1.48 1.2q.62.8.62 2.1 0 1.12-.58 2.08t-1.7 1.54q-1.12.56-2.66.56m16.868-14.1v2.26h-3.72V125h-2.8v-11.7h-3.72v-2.26zm8.523 14.1q-1.96 0-3.6-.92a6.9 6.9 0 0 1-2.6-2.54q-.96-1.64-.96-3.7 0-2.04.96-3.66a6.84 6.84 0 0 1 2.6-2.56q1.64-.92 3.6-.92 1.98 0 3.6.92a6.7 6.7 0 0 1 2.58 2.56q.96 1.62.96 3.66 0 2.06-.96 3.7a6.75 6.75 0 0 1-2.58 2.54q-1.641.92-3.6.92m0-2.5q1.26 0 2.22-.56a4 4 0 0 0 1.5-1.64q.54-1.06.54-2.46t-.54-2.44q-.54-1.06-1.5-1.62t-2.22-.56-2.24.56q-.96.56-1.5 1.62-.54 1.04-.54 2.44t.54 2.46 1.5 1.64q.98.56 2.24.56m24.443-11.6V125h-2.8v-9.08l-3.74 9.08h-2.12l-3.76-9.08V125h-2.8v-13.96h3.18l4.44 10.38 4.44-10.38zm5.568 2.26v3.5h4.7v2.22h-4.7v3.7h5.3V125h-8.1v-13.98h8.1v2.28zM500.6 125l-3.08-5.44h-1.32V125h-2.8v-13.96h5.24q1.62 0 2.76.58 1.14.56 1.7 1.54.58.96.58 2.16 0 1.38-.8 2.5-.8 1.1-2.38 1.52l3.34 5.66zm-4.4-7.54h2.34q1.14 0 1.7-.54.56-.56.56-1.54 0-.96-.56-1.48-.56-.54-1.7-.54h-2.34zm19.598 7.68q-1.461 0-2.64-.5-1.16-.5-1.84-1.44t-.7-2.22h3q.06.86.6 1.36.56.5 1.52.5.98 0 1.54-.46.56-.48.56-1.24 0-.62-.38-1.02a2.56 2.56 0 0 0-.96-.62q-.561-.24-1.56-.52-1.36-.4-2.22-.78a4.1 4.1 0 0 1-1.46-1.18q-.6-.8-.6-2.12 0-1.24.62-2.16t1.74-1.4q1.12-.5 2.56-.5 2.16 0 3.5 1.06 1.359 1.04 1.5 2.92h-3.08a1.56 1.56 0 0 0-.62-1.18q-.561-.48-1.5-.48-.82 0-1.32.42-.48.42-.48 1.22 0 .56.36.94.38.36.92.6.56.22 1.56.52 1.359.4 2.22.8a4 4 0 0 1 1.48 1.2q.62.8.62 2.1 0 1.12-.58 2.08t-1.7 1.54q-1.12.56-2.66.56m10.167-11.84v3.5h4.7v2.22h-4.7v3.7h5.3V125h-8.1v-13.98h8.1v2.28zM541.01 125l-3.08-5.44h-1.32V125h-2.8v-13.96h5.24q1.62 0 2.76.58 1.14.56 1.7 1.54.58.96.58 2.16 0 1.38-.8 2.5-.8 1.1-2.38 1.52l3.34 5.66zm-4.4-7.54h2.34q1.14 0 1.7-.54.56-.56.56-1.54 0-.96-.56-1.48-.56-.54-1.7-.54h-2.34zm22.552-6.42-5.12 13.96h-3.4l-5.12-13.96h3l3.84 11.1 3.82-11.1zm4.479 0V125h-2.8v-13.96zm2.086 6.96q0-2.06.92-3.68a6.65 6.65 0 0 1 2.54-2.54q1.62-.92 3.62-.92 2.34 0 4.1 1.2 1.761 1.2 2.46 3.32h-3.22q-.48-1-1.36-1.5-.86-.5-2-.5-1.22 0-2.18.58-.94.56-1.48 1.6-.52 1.04-.52 2.44 0 1.38.52 2.44a4.06 4.06 0 0 0 1.48 1.62q.96.56 2.18.56 1.14 0 2-.5.88-.52 1.36-1.52h3.22q-.699 2.14-2.46 3.34-1.74 1.18-4.1 1.18-2 0-3.62-.9a6.83 6.83 0 0 1-2.54-2.54q-.92-1.62-.92-3.68m18.832-4.7v3.5h4.7v2.22h-4.7v3.7h5.3V125h-8.1v-13.98h8.1v2.28zm-219.465 31.942v1.036h-4.242v3.29h3.444v1.036h-3.444V155h-1.274v-9.758zm2.813 3.332q.336-.658.952-1.022.63-.364 1.526-.364v1.316h-.336q-2.142 0-2.142 2.324V155h-1.274v-7.672h1.274zm4.606-2.492a.84.84 0 0 1-.616-.252.84.84 0 0 1-.252-.616q0-.364.252-.616a.84.84 0 0 1 .616-.252q.351 0 .588.252a.84.84 0 0 1 .252.616.84.84 0 0 1-.252.616.78.78 0 0 1-.588.252m.616 1.246V155h-1.274v-7.672zm9.172 3.542q0 .364-.042.77h-6.132q.07 1.134.77 1.778.714.63 1.722.63.826 0 1.372-.378.56-.392.784-1.036h1.372a3.34 3.34 0 0 1-1.232 1.806q-.924.686-2.296.686-1.093 0-1.96-.49a3.5 3.5 0 0 1-1.344-1.386q-.49-.91-.49-2.1t.476-2.086a3.3 3.3 0 0 1 1.33-1.372q.867-.49 1.988-.49 1.092 0 1.932.476t1.288 1.316q.462.826.462 1.876m-1.316-.266q0-.728-.322-1.246a2.03 2.03 0 0 0-.882-.798 2.6 2.6 0 0 0-1.218-.28q-.966 0-1.652.616-.672.616-.77 1.708zm6.735-3.416q1.401 0 2.268.854.868.84.868 2.436V155h-1.26v-4.34q0-1.148-.574-1.75-.573-.616-1.568-.616-1.008 0-1.61.63-.588.63-.588 1.834V155h-1.274v-7.672h1.274v1.092a2.55 2.55 0 0 1 1.022-.91q.659-.322 1.442-.322m4.741 3.948q0-1.176.476-2.058a3.47 3.47 0 0 1 1.302-1.386 3.65 3.65 0 0 1 1.876-.49q.897 0 1.666.42.771.406 1.176 1.078v-4.06h1.288V155h-1.288v-1.442a3.03 3.03 0 0 1-1.12 1.134q-.741.434-1.736.434a3.55 3.55 0 0 1-1.862-.504 3.54 3.54 0 0 1-1.302-1.414q-.476-.91-.476-2.072m6.496.014q0-.869-.35-1.512a2.4 2.4 0 0 0-.952-.98 2.5 2.5 0 0 0-1.302-.35q-.714 0-1.302.336a2.44 2.44 0 0 0-.938.98q-.35.643-.35 1.512 0 .882.35 1.54.35.644.938.994.588.336 1.302.336t1.302-.336q.603-.35.952-.994.35-.658.35-1.526m4.715-6.51V155h-1.274v-10.36zm8.78 2.688-4.62 11.284h-1.316l1.512-3.696-3.094-7.588h1.414l2.408 6.216 2.38-6.216zm4.649 6.65q1.778-1.428 2.786-2.338a11.4 11.4 0 0 0 1.694-1.918q.7-1.008.7-1.974 0-.91-.448-1.428-.435-.532-1.414-.532-.953 0-1.484.602-.518.588-.56 1.582h-1.232q.055-1.568.952-2.422t2.31-.854q1.442 0 2.282.798.854.798.854 2.198 0 1.163-.7 2.268-.687 1.092-1.568 1.932a41 41 0 0 1-2.254 1.932h4.816v1.064h-6.734zm7.898-1.232v-.966l4.914-6.804h1.526v6.664h1.4v1.106h-1.4V155h-1.26v-2.254zm5.236-6.44-3.766 5.334h3.766zm8.847-4.494-3.836 15.568h-1.26l3.822-15.568zm7.918 4.06L443.108 155h-1.288l3.948-9.002h-5.404v-1.092H447zm4.879 5.278q0-1.19.476-2.072a3.44 3.44 0 0 1 1.316-1.386q.854-.49 1.946-.49 1.415 0 2.324.686.924.686 1.218 1.904h-1.372a1.95 1.95 0 0 0-.77-1.106q-.56-.406-1.4-.406-1.092 0-1.764.756-.672.742-.672 2.114 0 1.386.672 2.142t1.764.756q.84 0 1.4-.392t.77-1.12h1.372q-.308 1.176-1.232 1.89-.924.7-2.31.7-1.091 0-1.946-.49a3.44 3.44 0 0 1-1.316-1.386q-.476-.895-.476-2.1m15.784-3.822V155h-1.274v-1.134q-.363.588-1.022.924a3.14 3.14 0 0 1-1.428.322 3.5 3.5 0 0 1-1.61-.364 2.8 2.8 0 0 1-1.134-1.12q-.405-.743-.406-1.806v-4.494h1.26v4.326q0 1.134.574 1.75.575.602 1.568.602 1.022 0 1.61-.63t.588-1.834v-4.214zm4.867 7.798a4.1 4.1 0 0 1-1.582-.294q-.7-.308-1.106-.84a2.3 2.3 0 0 1-.448-1.246h1.316q.057.574.532.938.49.364 1.274.364.728 0 1.148-.322t.42-.812a.79.79 0 0 0-.448-.742q-.447-.252-1.386-.49a11 11 0 0 1-1.4-.448 2.7 2.7 0 0 1-.924-.686q-.378-.462-.378-1.204 0-.588.35-1.078t.994-.77q.645-.294 1.47-.294 1.275 0 2.058.644.785.644.84 1.764h-1.274a1.3 1.3 0 0 0-.49-.966q-.433-.364-1.176-.364-.686 0-1.092.294t-.406.77q0 .378.238.63.253.238.616.392.379.14 1.036.322.827.224 1.344.448.519.21.882.644.378.434.392 1.134 0 .63-.35 1.134t-.994.798q-.63.28-1.456.28m6.153-6.748v4.522q0 .56.238.798.238.224.826.224h.938V155h-1.148q-1.065 0-1.596-.49t-.532-1.61v-4.522h-.994v-1.05h.994v-1.932h1.274v1.932h2.002v1.05zm6.891 6.748a3.97 3.97 0 0 1-1.96-.49 3.57 3.57 0 0 1-1.372-1.386q-.49-.91-.49-2.1 0-1.176.504-2.072a3.5 3.5 0 0 1 1.4-1.386q.882-.49 1.974-.49t1.974.49a3.44 3.44 0 0 1 1.386 1.372q.518.896.518 2.086t-.532 2.1a3.6 3.6 0 0 1-1.414 1.386 4.1 4.1 0 0 1-1.988.49m0-1.12q.687 0 1.288-.322.603-.323.966-.966.378-.644.378-1.568t-.364-1.568-.952-.952a2.6 2.6 0 0 0-1.274-.322q-.7 0-1.288.322-.573.308-.924.952-.35.644-.35 1.568 0 .938.336 1.582.351.643.924.966.574.308 1.26.308m14.835-6.818q.897 0 1.596.378.7.364 1.106 1.106t.406 1.806V155h-1.26v-4.34q0-1.148-.574-1.75-.56-.616-1.526-.616-.993 0-1.582.644-.588.63-.588 1.834V155h-1.26v-4.34q0-1.148-.574-1.75-.56-.616-1.526-.616-.993 0-1.582.644-.588.63-.588 1.834V155h-1.274v-7.672h1.274v1.106a2.53 2.53 0 0 1 1.008-.924q.645-.322 1.414-.322.966 0 1.708.434.743.434 1.106 1.274.323-.811 1.064-1.26a3.13 3.13 0 0 1 1.652-.448m12.198 3.682q0 .364-.042.77h-6.132q.07 1.134.77 1.778.714.63 1.722.63.826 0 1.372-.378.56-.392.784-1.036h1.372a3.33 3.33 0 0 1-1.232 1.806q-.924.686-2.296.686-1.092 0-1.96-.49a3.5 3.5 0 0 1-1.344-1.386q-.49-.91-.49-2.1t.476-2.086a3.3 3.3 0 0 1 1.33-1.372q.869-.49 1.988-.49 1.092 0 1.932.476t1.288 1.316q.462.826.462 1.876m-1.316-.266q0-.728-.322-1.246a2 2 0 0 0-.882-.798 2.6 2.6 0 0 0-1.218-.28q-.966 0-1.652.616-.671.616-.77 1.708zm4.272-2.03q.336-.658.952-1.022.63-.364 1.526-.364v1.316h-.336q-2.142 0-2.142 2.324V155h-1.274v-7.672h1.274zm10.397 6.552a4.1 4.1 0 0 1-1.582-.294q-.7-.308-1.106-.84a2.27 2.27 0 0 1-.448-1.246h1.316q.056.574.532.938.49.364 1.274.364.728 0 1.148-.322t.42-.812a.79.79 0 0 0-.448-.742q-.448-.252-1.386-.49a11 11 0 0 1-1.4-.448 2.65 2.65 0 0 1-.924-.686q-.378-.462-.378-1.204 0-.588.35-1.078t.994-.77q.644-.294 1.47-.294 1.274 0 2.058.644.785.644.84 1.764h-1.274a1.3 1.3 0 0 0-.49-.966q-.433-.364-1.176-.364-.686 0-1.092.294t-.406.77a.88.88 0 0 0 .238.63q.252.238.616.392.378.14 1.036.322.827.224 1.344.448.518.21.882.644.378.434.392 1.134 0 .63-.35 1.134t-.994.798q-.63.28-1.456.28m11.402-7.798V155h-1.274v-1.134q-.363.588-1.022.924a3.14 3.14 0 0 1-1.428.322 3.5 3.5 0 0 1-1.61-.364 2.8 2.8 0 0 1-1.134-1.12q-.405-.743-.406-1.806v-4.494h1.26v4.326q0 1.134.574 1.75.575.602 1.568.602 1.022 0 1.61-.63t.588-1.834v-4.214zm3.426 1.414q.378-.658 1.12-1.092.756-.448 1.75-.448 1.022 0 1.848.49.84.49 1.316 1.386.476.882.476 2.058 0 1.162-.476 2.072a3.5 3.5 0 0 1-3.164 1.918q-.98 0-1.736-.434-.743-.448-1.134-1.106v5.054h-1.274v-11.312h1.274zm5.208 2.394q0-.869-.35-1.512a2.4 2.4 0 0 0-.952-.98 2.6 2.6 0 0 0-1.302-.336q-.7 0-1.302.35-.589.336-.952.994-.35.644-.35 1.498 0 .868.35 1.526.363.644.952.994.601.336 1.302.336.714 0 1.302-.336.601-.35.952-.994.35-.658.35-1.54m4.252-2.394q.378-.658 1.12-1.092.756-.448 1.75-.448 1.023 0 1.848.49.84.49 1.316 1.386.476.882.476 2.058 0 1.162-.476 2.072a3.5 3.5 0 0 1-1.316 1.414 3.47 3.47 0 0 1-1.848.504q-.98 0-1.736-.434-.741-.448-1.134-1.106v5.054h-1.274v-11.312h1.274zm5.208 2.394q0-.869-.35-1.512a2.4 2.4 0 0 0-.952-.98 2.6 2.6 0 0 0-1.302-.336q-.699 0-1.302.35a2.5 2.5 0 0 0-.952.994q-.35.644-.35 1.498 0 .868.35 1.526.364.644.952.994.603.336 1.302.336.714 0 1.302-.336.603-.35.952-.994.35-.658.35-1.54m6.325 3.99a3.97 3.97 0 0 1-1.96-.49 3.57 3.57 0 0 1-1.372-1.386q-.49-.91-.49-2.1 0-1.176.504-2.072a3.5 3.5 0 0 1 1.4-1.386q.882-.49 1.974-.49t1.974.49a3.44 3.44 0 0 1 1.386 1.372q.518.896.518 2.086t-.532 2.1a3.6 3.6 0 0 1-1.414 1.386 4.1 4.1 0 0 1-1.988.49m0-1.12q.687 0 1.288-.322.603-.323.966-.966.378-.644.378-1.568t-.364-1.568-.952-.952a2.6 2.6 0 0 0-1.274-.322q-.7 0-1.288.322-.573.308-.924.952-.35.644-.35 1.568 0 .938.336 1.582.351.643.924.966.574.308 1.26.308m6.884-5.432q.336-.658.952-1.022.63-.364 1.526-.364v1.316h-.336q-2.142 0-2.142 2.324V155h-1.274v-7.672h1.274zm5.502-.196v4.522q0 .56.238.798.238.224.826.224h.938V155h-1.148q-1.063 0-1.596-.49-.532-.49-.532-1.61v-4.522h-.994v-1.05h.994v-1.932h1.274v1.932h2.002v1.05z"/><path fill="#2F2E30" d="M855 40c0 22.091-17.909 40-40 40s-40-17.909-40-40 17.909-40 40-40 40 17.909 40 40m-69.093 0c0 16.068 13.025 29.093 29.093 29.093S844.093 56.067 844.093 40 831.068 10.907 815 10.907 785.907 23.933 785.907 40" opacity=".3"/><circle cx="815" cy="40" r="29" fill="#000"/><path fill="#FAFAFA" stroke="#FAFAFA" d="M803.099 50.6c-.873-.652-1.673-1.68-2.256-2.841s-.926-2.414-.926-3.492v-12.4c0-2.36 1.755-4.905 3.974-5.732h.001l8.317-3.117c.753-.281 1.753-.43 2.775-.43 1.021 0 2.021.149 2.774.43h.001l8.316 3.117h.001c2.219.827 3.974 3.372 3.974 5.732V44.25c0 1.087-.343 2.34-.926 3.498-.582 1.16-1.383 2.183-2.256 2.834l-7.167 5.35-.006.005c-1.283.99-2.971 1.496-4.695 1.496-1.722 0-3.415-.506-4.735-1.484zm9.643-26.168-8.317 3.116h-.001c-.827.312-1.569.975-2.1 1.743s-.89 1.699-.89 2.592v12.384c0 .894.31 1.922.767 2.834s1.093 1.771 1.8 2.3l7.167 5.35c1.062.794 2.461 1.174 3.834 1.174s2.777-.38 3.846-1.173l.001-.001 7.167-5.35.001-.001c.715-.536 1.35-1.395 1.806-2.306.455-.91.761-1.934.761-2.827v-12.4c0-.887-.361-1.813-.891-2.58-.531-.768-1.27-1.433-2.095-1.753l-.006-.002-8.316-3.117-.009-.003c-.638-.226-1.466-.329-2.266-.327-.799.002-1.625.11-2.259.346Z"/><path fill="#FAFAFA" stroke="#FAFAFA" d="m812.414 41.054.353.353.354-.353 6.283-6.284a.76.76 0 0 1 1.06 0 .76.76 0 0 1 0 1.06l-7.167 7.166a.74.74 0 0 1-.53.22.74.74 0 0 1-.53-.22l-2.683-2.683a.76.76 0 0 1 0-1.06.76.76 0 0 1 1.06 0z"/><path fill="#000" d="M703.6 111.04V125h-2.8v-9.08l-3.74 9.08h-2.12l-3.76-9.08V125h-2.8v-13.96h3.18l4.44 10.38 4.44-10.38zm9.248 14.1q-1.959 0-3.6-.92a6.9 6.9 0 0 1-2.6-2.54q-.96-1.64-.96-3.7 0-2.04.96-3.66a6.85 6.85 0 0 1 2.6-2.56q1.641-.92 3.6-.92 1.98 0 3.6.92a6.7 6.7 0 0 1 2.58 2.56q.96 1.62.96 3.66 0 2.06-.96 3.7a6.73 6.73 0 0 1-2.58 2.54q-1.64.92-3.6.92m0-2.5q1.26 0 2.22-.56a4 4 0 0 0 1.5-1.64q.54-1.06.54-2.46t-.54-2.44q-.54-1.06-1.5-1.62t-2.22-.56-2.24.56q-.96.56-1.5 1.62-.54 1.04-.54 2.44t.54 2.46 1.5 1.64q.98.56 2.24.56m21.163 2.36h-2.8l-6.34-9.58V125h-2.8v-13.98h2.8l6.34 9.6v-9.6h2.8zm5.567-11.7v3.5h4.7v2.22h-4.7v3.7h5.3V125h-8.1v-13.98h8.1v2.28zm18.945-2.26-4.72 9.1V125h-2.8v-4.86l-4.74-9.1h3.16l3 6.38 2.98-6.38zm14.3 6.8q1.18.22 1.94 1.18t.76 2.2q0 1.12-.56 1.98-.54.84-1.58 1.32t-2.46.48h-6.02v-13.96h5.76q1.42 0 2.44.46 1.041.46 1.56 1.28.54.82.54 1.86 0 1.22-.66 2.04-.64.82-1.72 1.16m-5.12-1.04h2.56q1 0 1.54-.44.54-.46.54-1.3t-.54-1.3-1.54-.46h-2.56zm2.82 5.92q1.02 0 1.58-.48.58-.48.58-1.36 0-.9-.6-1.4-.6-.52-1.62-.52h-2.76v3.76zm15.792-.38h-5.56l-.92 2.66h-2.94l5.02-13.98h3.26l5.02 13.98h-2.96zm-.76-2.24-2.02-5.84-2.02 5.84zm5.836-2.1q0-2.06.92-3.68a6.65 6.65 0 0 1 2.54-2.54q1.62-.92 3.62-.92 2.34 0 4.1 1.2 1.761 1.2 2.46 3.32h-3.22q-.48-1-1.36-1.5-.86-.5-2-.5-1.22 0-2.18.58-.94.56-1.48 1.6-.52 1.04-.52 2.44 0 1.38.52 2.44a4.06 4.06 0 0 0 1.48 1.62q.96.56 2.18.56 1.14 0 2-.5.88-.52 1.36-1.52h3.22q-.699 2.14-2.46 3.34-1.74 1.18-4.1 1.18-2 0-3.62-.9a6.83 6.83 0 0 1-2.54-2.54q-.92-1.62-.92-3.68m23.912 7-5.08-6.22V125h-2.8v-13.96h2.8v6.26l5.08-6.26h3.38l-5.76 6.92 5.92 7.04zm19.867-9.76a3.3 3.3 0 0 0-1.32-1.34q-.84-.46-1.96-.46-1.24 0-2.2.56t-1.5 1.6-.54 2.4q0 1.4.54 2.44a3.97 3.97 0 0 0 1.54 1.6q.981.56 2.28.56 1.6 0 2.62-.84 1.02-.86 1.34-2.38h-4.8v-2.14h7.56v2.44a6.55 6.55 0 0 1-1.2 2.7q-.92 1.24-2.38 2-1.44.74-3.24.74-2.019 0-3.66-.9a6.8 6.8 0 0 1-2.56-2.54q-.92-1.62-.92-3.68t.92-3.68a6.6 6.6 0 0 1 2.56-2.54q1.64-.92 3.64-.92 2.36 0 4.1 1.16 1.74 1.14 2.4 3.22zm8.392-4.2v8.64q0 1.42.74 2.18.74.74 2.08.74 1.36 0 2.1-.74.74-.76.74-2.18v-8.64h2.82v8.62q0 1.78-.78 3.02a4.83 4.83 0 0 1-2.06 1.84q-1.28.62-2.86.62-1.56 0-2.84-.62a4.75 4.75 0 0 1-2-1.84q-.74-1.24-.74-3.02v-8.62zm19.745 11.3h-5.56l-.92 2.66h-2.94l5.02-13.98h3.26l5.02 13.98h-2.96zm-.76-2.24-2.02-5.84-2.02 5.84zm13.717 4.9-3.08-5.44h-1.32V125h-2.8v-13.96h5.24q1.62 0 2.76.58 1.14.56 1.7 1.54.58.96.58 2.16 0 1.38-.8 2.5-.8 1.1-2.38 1.52l3.34 5.66zm-4.4-7.54h2.34q1.14 0 1.7-.54.56-.56.56-1.54 0-.96-.56-1.48-.56-.54-1.7-.54h-2.34zm18.572 4.88h-5.56l-.92 2.66h-2.94l5.02-13.98h3.26l5.02 13.98h-2.96zm-.76-2.24-2.02-5.84-2.02 5.84zm18.457 4.9h-2.8l-6.34-9.58V125h-2.8v-13.98h2.8l6.34 9.6v-9.6h2.8zm12.267-13.96v2.26h-3.72V125h-2.8v-11.7h-3.72v-2.26zm4.843 2.26v3.5h4.7v2.22h-4.7v3.7h5.3V125h-8.1v-13.98h8.1v2.28zm10.644 0v3.5h4.7v2.22h-4.7v3.7h5.3V125h-8.1v-13.98h8.1v2.28zm-217.545 31.942L715.514 155h-1.428l-2.268-7.854-2.352 7.854-1.414.014-2.73-9.772h1.358l2.128 8.274 2.352-8.274h1.428l2.24 8.246 2.142-8.246zm8.394 5.628q0 .364-.042.77h-6.132q.07 1.134.77 1.778.714.63 1.722.63.826 0 1.372-.378.56-.392.784-1.036h1.372a3.33 3.33 0 0 1-1.232 1.806q-.924.686-2.296.686-1.092 0-1.96-.49a3.5 3.5 0 0 1-1.344-1.386q-.49-.91-.49-2.1t.476-2.086a3.3 3.3 0 0 1 1.33-1.372q.869-.49 1.988-.49 1.092 0 1.932.476t1.288 1.316q.462.826.462 1.876m-1.316-.266q0-.728-.322-1.246a2 2 0 0 0-.882-.798 2.6 2.6 0 0 0-1.218-.28q-.966 0-1.652.616-.671.616-.77 1.708zm8.004-2.03q.337-.658.952-1.022.63-.364 1.526-.364v1.316h-.336q-2.142 0-2.142 2.324V155h-1.274v-7.672h1.274zm10.949 2.296q0 .364-.042.77h-6.132q.07 1.134.77 1.778.714.63 1.722.63.826 0 1.372-.378.56-.392.784-1.036h1.372a3.33 3.33 0 0 1-1.232 1.806q-.924.686-2.296.686-1.092 0-1.96-.49a3.5 3.5 0 0 1-1.344-1.386q-.49-.91-.49-2.1t.476-2.086a3.3 3.3 0 0 1 1.33-1.372q.868-.49 1.988-.49 1.092 0 1.932.476t1.288 1.316q.462.826.462 1.876m-1.316-.266q0-.728-.322-1.246a2.03 2.03 0 0 0-.882-.798 2.6 2.6 0 0 0-1.218-.28q-.966 0-1.652.616-.672.616-.77 1.708zm9.802-3.276V155h-1.274v-1.134q-.365.588-1.022.924-.645.322-1.428.322a3.5 3.5 0 0 1-1.61-.364 2.8 2.8 0 0 1-1.134-1.12q-.406-.743-.406-1.806v-4.494h1.26v4.326q0 1.134.574 1.75.573.602 1.568.602 1.022 0 1.61-.63t.588-1.834v-4.214zm3.425 1.246q.336-.658.952-1.022.63-.364 1.526-.364v1.316h-.336q-2.142 0-2.142 2.324V155h-1.274v-7.672h1.274zm7.686-1.386q1.401 0 2.268.854.868.84.868 2.436V155h-1.26v-4.34q0-1.148-.574-1.75-.573-.616-1.568-.616-1.008 0-1.61.63-.588.63-.588 1.834V155h-1.274v-7.672h1.274v1.092a2.55 2.55 0 0 1 1.022-.91q.659-.322 1.442-.322m18.176 0q.895 0 1.596.378.7.364 1.106 1.106.405.742.406 1.806V155h-1.26v-4.34q0-1.148-.574-1.75-.56-.616-1.526-.616-.994 0-1.582.644-.588.63-.588 1.834V155h-1.26v-4.34q0-1.148-.574-1.75-.56-.616-1.526-.616-.994 0-1.582.644-.588.63-.588 1.834V155h-1.274v-7.672h1.274v1.106a2.53 2.53 0 0 1 1.008-.924 3.1 3.1 0 0 1 1.414-.322q.966 0 1.708.434.741.434 1.106 1.274a2.5 2.5 0 0 1 1.064-1.26 3.13 3.13 0 0 1 1.652-.448m8.544 7.938a3.96 3.96 0 0 1-1.96-.49 3.56 3.56 0 0 1-1.372-1.386q-.49-.91-.49-2.1 0-1.176.504-2.072a3.5 3.5 0 0 1 1.4-1.386q.882-.49 1.974-.49t1.974.49a3.44 3.44 0 0 1 1.386 1.372q.518.896.518 2.086t-.532 2.1a3.6 3.6 0 0 1-1.414 1.386q-.896.49-1.988.49m0-1.12a2.7 2.7 0 0 0 1.288-.322q.601-.323.966-.966.378-.644.378-1.568t-.364-1.568-.952-.952a2.6 2.6 0 0 0-1.274-.322q-.7 0-1.288.322-.574.308-.924.952t-.35 1.568q0 .938.336 1.582.35.643.924.966.573.308 1.26.308m9.347-6.818q1.4 0 2.268.854.868.84.868 2.436V155h-1.26v-4.34q0-1.148-.574-1.75-.575-.616-1.568-.616-1.008 0-1.61.63-.588.63-.588 1.834V155h-1.274v-7.672h1.274v1.092a2.54 2.54 0 0 1 1.022-.91 3.2 3.2 0 0 1 1.442-.322m12.217 3.682q0 .364-.042.77h-6.132q.07 1.134.77 1.778.714.63 1.722.63.826 0 1.372-.378.56-.392.784-1.036h1.372a3.34 3.34 0 0 1-1.232 1.806q-.924.686-2.296.686-1.092 0-1.96-.49a3.5 3.5 0 0 1-1.344-1.386q-.49-.91-.49-2.1t.476-2.086a3.3 3.3 0 0 1 1.33-1.372q.867-.49 1.988-.49 1.092 0 1.932.476t1.288 1.316q.462.826.462 1.876m-1.316-.266q0-.728-.322-1.246a2.03 2.03 0 0 0-.882-.798 2.6 2.6 0 0 0-1.218-.28q-.966 0-1.652.616-.672.616-.77 1.708zm9.605-3.276-4.62 11.284h-1.316l1.512-3.696-3.094-7.588h1.414l2.408 6.216 2.38-6.216zm15.234 0L833.383 155h-1.316l-1.848-6.09-1.848 6.09h-1.316l-2.408-7.672h1.302l1.764 6.44 1.904-6.44h1.302l1.862 6.454 1.736-6.454zm1.922-1.246a.84.84 0 0 1-.616-.252.84.84 0 0 1-.252-.616q0-.364.252-.616a.84.84 0 0 1 .616-.252q.35 0 .588.252a.84.84 0 0 1 .252.616.84.84 0 0 1-.252.616.78.78 0 0 1-.588.252m.616 1.246V155h-1.274v-7.672zm3.725 1.05v4.522q0 .56.238.798.238.224.826.224h.938V155h-1.148q-1.063 0-1.596-.49-.532-.49-.532-1.61v-4.522h-.994v-1.05h.994v-1.932h1.274v1.932h2.002v1.05zm7.354-1.19a3.25 3.25 0 0 1 1.568.378q.699.364 1.092 1.106.405.742.406 1.806V155h-1.26v-4.34q0-1.148-.574-1.75-.575-.616-1.568-.616-1.008 0-1.61.63-.588.63-.588 1.834V155h-1.274v-10.36h1.274v3.78a2.5 2.5 0 0 1 1.036-.91 3.4 3.4 0 0 1 1.498-.322m5.805-1.106a.84.84 0 0 1-.616-.252.84.84 0 0 1-.252-.616q0-.364.252-.616a.84.84 0 0 1 .616-.252q.35 0 .588.252a.84.84 0 0 1 .252.616.84.84 0 0 1-.252.616.78.78 0 0 1-.588.252m.616 1.246V155h-1.274v-7.672zm5.909-.14q1.401 0 2.268.854.868.84.868 2.436V155h-1.26v-4.34q0-1.148-.574-1.75-.573-.616-1.568-.616-1.008 0-1.61.63-.588.63-.588 1.834V155h-1.274v-7.672h1.274v1.092a2.55 2.55 0 0 1 1.022-.91q.659-.322 1.442-.322m8.712.238q.097-1.288.994-2.016.896-.728 2.324-.728.951 0 1.638.35.699.336 1.05.924.363.588.364 1.33 0 .868-.504 1.498-.49.63-1.288.812v.07q.91.224 1.442.882.531.659.532 1.722 0 .798-.364 1.442-.364.63-1.092.994t-1.75.364q-1.485 0-2.436-.77-.953-.784-1.064-2.212h1.232q.098.84.686 1.372t1.568.532 1.484-.504q.518-.518.518-1.33 0-1.05-.7-1.512t-2.114-.462h-.322v-1.064h.336q1.287-.013 1.946-.42.657-.42.658-1.288 0-.742-.49-1.19-.477-.448-1.372-.448-.869 0-1.4.448-.532.448-.63 1.204zm8.272 2.408q0-2.408.784-3.752.784-1.358 2.744-1.358 1.946 0 2.73 1.358.784 1.344.784 3.752 0 2.45-.784 3.808t-2.73 1.358q-1.96 0-2.744-1.358t-.784-3.808m5.782 0q0-1.218-.168-2.058-.154-.854-.658-1.372-.49-.518-1.428-.518-.952 0-1.456.518-.49.518-.658 1.372-.154.84-.154 2.058 0 1.26.154 2.114.168.854.658 1.372.504.518 1.456.518.938 0 1.428-.518.504-.518.658-1.372.168-.854.168-2.114m6.475 1.302q0-1.176.476-2.058a3.47 3.47 0 0 1 1.302-1.386 3.65 3.65 0 0 1 1.876-.49q.897 0 1.666.42.771.406 1.176 1.078v-4.06h1.288V155h-1.288v-1.442a3.03 3.03 0 0 1-1.12 1.134q-.741.434-1.736.434a3.55 3.55 0 0 1-1.862-.504 3.54 3.54 0 0 1-1.302-1.414q-.476-.91-.476-2.072m6.496.014q0-.869-.35-1.512a2.4 2.4 0 0 0-.952-.98 2.5 2.5 0 0 0-1.302-.35q-.714 0-1.302.336a2.44 2.44 0 0 0-.938.98q-.35.643-.35 1.512 0 .882.35 1.54.35.644.938.994.588.336 1.302.336t1.302-.336q.603-.35.952-.994.35-.658.35-1.526m2.965-.014q0-1.176.476-2.058a3.47 3.47 0 0 1 1.302-1.386 3.6 3.6 0 0 1 1.862-.49q1.008 0 1.75.434.743.434 1.106 1.092v-1.4h1.288V155h-1.288v-1.428q-.378.672-1.134 1.12-.741.434-1.736.434a3.5 3.5 0 0 1-1.848-.504 3.54 3.54 0 0 1-1.302-1.414q-.476-.91-.476-2.072m6.496.014q0-.869-.35-1.512a2.4 2.4 0 0 0-.952-.98 2.5 2.5 0 0 0-1.302-.35q-.714 0-1.302.336a2.44 2.44 0 0 0-.938.98q-.35.643-.35 1.512 0 .882.35 1.54.35.644.938.994.588.336 1.302.336t1.302-.336q.603-.35.952-.994.35-.658.35-1.526m10.049-3.822-4.62 11.284h-1.316l1.512-3.696-3.094-7.588h1.414l2.408 6.216 2.38-6.216zm3.997 7.798q-.882 0-1.582-.294-.7-.308-1.106-.84a2.27 2.27 0 0 1-.448-1.246h1.316q.055.574.532.938.49.364 1.274.364.728 0 1.148-.322t.42-.812a.79.79 0 0 0-.448-.742q-.449-.252-1.386-.49a11 11 0 0 1-1.4-.448 2.65 2.65 0 0 1-.924-.686q-.378-.462-.378-1.204 0-.588.35-1.078t.994-.77q.644-.294 1.47-.294 1.274 0 2.058.644t.84 1.764h-1.274a1.3 1.3 0 0 0-.49-.966q-.435-.364-1.176-.364-.687 0-1.092.294-.406.294-.406.77a.88.88 0 0 0 .238.63q.252.238.616.392.378.14 1.036.322.825.224 1.344.448.518.21.882.644.378.434.392 1.134 0 .63-.35 1.134t-.994.798q-.63.28-1.456.28"/><defs><clipPath id="a"><path fill="#fff" d="M104.5 20h40v40h-40z"/></clipPath><clipPath id="b"><path fill="#fff" d="M448 20h40v40h-40z"/></clipPath></defs></svg>