<svg xmlns="http://www.w3.org/2000/svg" width="225" height="208" fill="none"><g filter="url(#a)"><rect width="224" height="208" fill="#000" fill-opacity=".04" rx="4"/><path stroke="#FAFAFA" stroke-linecap="round" stroke-linejoin="round" stroke-width="1.5" d="M44 45v-2.667c0-1.414-.478-2.77-1.328-3.77S40.67 37 39.467 37h-7.934c-1.202 0-2.355.562-3.205 1.562S27 40.92 27 42.333V45M36.5 32a4.5 4.5 0 1 0 0-9 4.5 4.5 0 0 0 0 9"/><path fill="#FAFAFA" d="M79.028 28.812V38.5h-1.274v-7.224l-3.22 7.224h-.896l-3.234-7.238V38.5H69.13v-9.688h1.372l3.584 8.008 3.584-8.008zm1.684 5.824q0-1.176.476-2.058a3.46 3.46 0 0 1 1.302-1.386q.84-.49 1.862-.49 1.008 0 1.75.434.743.434 1.106 1.092v-1.4h1.288V38.5h-1.288v-1.428q-.378.672-1.134 1.12-.741.434-1.736.434a3.5 3.5 0 0 1-1.848-.504 3.53 3.53 0 0 1-1.302-1.414q-.476-.91-.476-2.072m6.496.014q0-.869-.35-1.512a2.4 2.4 0 0 0-.952-.98 2.5 2.5 0 0 0-1.302-.35q-.714 0-1.302.336-.587.335-.938.98-.35.644-.35 1.512 0 .882.35 1.54.35.644.938.994.588.336 1.302.336t1.302-.336q.603-.35.952-.994.35-.658.35-1.526m7.18-3.962q1.4 0 2.267.854.868.84.868 2.436V38.5h-1.26v-4.34q0-1.148-.574-1.75-.573-.616-1.568-.616-1.007 0-1.61.63-.588.63-.588 1.834V38.5H90.65v-7.672h1.274v1.092a2.54 2.54 0 0 1 1.022-.91q.659-.322 1.442-.322m4.74 3.948q0-1.176.476-2.058a3.46 3.46 0 0 1 1.302-1.386 3.63 3.63 0 0 1 1.862-.49q1.008 0 1.75.434.743.434 1.106 1.092v-1.4h1.288V38.5h-1.288v-1.428q-.378.672-1.134 1.12-.741.434-1.736.434a3.5 3.5 0 0 1-1.848-.504 3.54 3.54 0 0 1-1.302-1.414q-.476-.91-.476-2.072m6.496.014q0-.869-.35-1.512a2.4 2.4 0 0 0-.952-.98 2.5 2.5 0 0 0-1.302-.35q-.714 0-1.302.336-.587.335-.938.98-.35.644-.35 1.512 0 .882.35 1.54.35.644.938.994.588.336 1.302.336t1.302-.336q.603-.35.952-.994.35-.658.35-1.526m6.605-3.948q.995 0 1.736.434.757.434 1.12 1.092v-1.4h1.288v7.84q0 1.05-.448 1.862-.448.825-1.288 1.288-.825.462-1.932.462-1.512 0-2.52-.714t-1.19-1.946h1.26q.21.7.868 1.12.658.434 1.582.434 1.05 0 1.708-.658.672-.658.672-1.848v-1.61q-.378.672-1.12 1.12-.741.448-1.736.448a3.55 3.55 0 0 1-1.862-.504 3.54 3.54 0 0 1-1.302-1.414q-.476-.91-.476-2.072 0-1.176.476-2.058a3.47 3.47 0 0 1 1.302-1.386 3.63 3.63 0 0 1 1.862-.49m2.856 3.948q0-.869-.35-1.512a2.4 2.4 0 0 0-.952-.98 2.5 2.5 0 0 0-1.302-.35q-.714 0-1.302.336-.588.335-.938.98-.35.644-.35 1.512 0 .882.35 1.54.35.644.938.994.588.336 1.302.336t1.302-.336q.603-.35.952-.994.35-.658.35-1.526m10.441-.28q0 .365-.042.77h-6.132q.07 1.134.77 1.778.714.63 1.722.63.826 0 1.372-.378.56-.392.784-1.036h1.372a3.33 3.33 0 0 1-1.232 1.806q-.924.686-2.296.686-1.092 0-1.96-.49a3.5 3.5 0 0 1-1.344-1.386q-.49-.91-.49-2.1t.476-2.086a3.3 3.3 0 0 1 1.33-1.372q.869-.49 1.988-.49 1.092 0 1.932.476t1.288 1.316q.462.826.462 1.876m-1.316-.266q0-.727-.322-1.246a2 2 0 0 0-.882-.798 2.6 2.6 0 0 0-1.218-.28q-.966 0-1.652.616-.671.615-.77 1.708zm16.628-5.292V38.5h-1.274v-7.224l-3.22 7.224h-.896l-3.234-7.238V38.5h-1.274v-9.688h1.372l3.584 8.008 3.584-8.008zm8.769 2.016-4.62 11.284h-1.316l1.512-3.696-3.094-7.588h1.414l2.408 6.216 2.38-6.216zm10.781 5.502h-4.256l-.784 2.17h-1.344l3.528-9.702h1.47l3.514 9.702h-1.344zm-.364-1.036-1.764-4.928-1.764 4.928zm3.554-.644q0-1.19.476-2.072a3.43 3.43 0 0 1 1.316-1.386q.854-.49 1.946-.49 1.413 0 2.324.686.924.686 1.218 1.904h-1.372a1.96 1.96 0 0 0-.77-1.106q-.56-.405-1.4-.406-1.092 0-1.764.756-.672.743-.672 2.114 0 1.386.672 2.142t1.764.756q.84 0 1.4-.392t.77-1.12h1.372q-.308 1.176-1.232 1.89-.924.7-2.31.7-1.092 0-1.946-.49a3.43 3.43 0 0 1-1.316-1.386q-.476-.895-.476-2.1m8.503 0q0-1.19.476-2.072a3.43 3.43 0 0 1 1.316-1.386q.854-.49 1.946-.49 1.415 0 2.324.686.924.686 1.218 1.904h-1.372a1.95 1.95 0 0 0-.77-1.106q-.56-.405-1.4-.406-1.092 0-1.764.756-.672.743-.672 2.114 0 1.386.672 2.142t1.764.756q.84 0 1.4-.392t.77-1.12h1.372q-.308 1.176-1.232 1.89-.924.7-2.31.7-1.092 0-1.946-.49a3.43 3.43 0 0 1-1.316-1.386q-.476-.895-.476-2.1m12.326 3.976a3.97 3.97 0 0 1-1.96-.49 3.57 3.57 0 0 1-1.372-1.386q-.49-.91-.49-2.1 0-1.176.504-2.072a3.5 3.5 0 0 1 1.4-1.386 4 4 0 0 1 1.974-.49q1.092 0 1.974.49a3.44 3.44 0 0 1 1.386 1.372q.519.896.518 2.086 0 1.19-.532 2.1a3.6 3.6 0 0 1-1.414 1.386q-.896.49-1.988.49m0-1.12q.687 0 1.288-.322.603-.322.966-.966.378-.645.378-1.568 0-.924-.364-1.568a2.33 2.33 0 0 0-.952-.952 2.6 2.6 0 0 0-1.274-.322 2.64 2.64 0 0 0-1.288.322q-.573.308-.924.952-.35.645-.35 1.568 0 .938.336 1.582.351.644.924.966.575.308 1.26.308m12.413-6.678V38.5h-1.274v-1.134q-.363.588-1.022.924a3.15 3.15 0 0 1-1.428.322 3.5 3.5 0 0 1-1.61-.364 2.8 2.8 0 0 1-1.134-1.12q-.406-.743-.406-1.806v-4.494h1.26v4.326q0 1.135.574 1.75.575.602 1.568.602 1.022 0 1.61-.63t.588-1.834v-4.214zm5.89-.14q1.4 0 2.268.854.868.84.868 2.436V38.5h-1.26v-4.34q0-1.148-.574-1.75-.575-.616-1.568-.616-1.008 0-1.61.63-.588.63-.588 1.834V38.5h-1.274v-7.672h1.274v1.092a2.54 2.54 0 0 1 1.022-.91 3.2 3.2 0 0 1 1.442-.322m6.771 1.19V36.4q0 .56.238.798.238.224.826.224h.938V38.5h-1.148q-1.065 0-1.596-.49t-.532-1.61v-4.522h-.994v-1.05h.994v-1.932h1.274v1.932h2.002v1.05z"/><path stroke="#FAFAFA" stroke-linejoin="round" stroke-width="1.5" d="M23 69.3v14.2a1 1 0 0 0 1 1h16a1 1 0 0 0 1-1V69.3z"/><path stroke="#FAFAFA" stroke-linecap="round" stroke-linejoin="round" stroke-width="1.5" d="m41 69.3-2.834-3.8H25.835L23 69.3m12.778 3.3c0 2.099-1.691 3.8-3.778 3.8s-3.778-1.701-3.778-3.8"/><path fill="#FAFAFA" d="M71.34 69.812V79.5h-1.275v-7.224l-3.22 7.224h-.896l-3.234-7.238V79.5h-1.274v-9.688h1.372l3.584 8.008 3.584-8.008zm8.768 2.016-4.62 11.284h-1.316l1.512-3.696-3.094-7.588h1.414l2.408 6.216 2.38-6.216zm9.437 7.77q-1.358 0-2.478-.63a4.8 4.8 0 0 1-1.778-1.778q-.644-1.148-.644-2.576t.644-2.562a4.65 4.65 0 0 1 1.778-1.778 4.9 4.9 0 0 1 2.478-.644q1.372 0 2.492.644a4.6 4.6 0 0 1 1.764 1.764q.645 1.134.644 2.576 0 1.442-.644 2.576a4.7 4.7 0 0 1-1.764 1.778q-1.12.63-2.492.63m0-1.106q1.022 0 1.834-.476.825-.476 1.288-1.358.476-.882.476-2.044 0-1.176-.476-2.044a3.3 3.3 0 0 0-1.274-1.358q-.811-.476-1.848-.476t-1.848.476-1.288 1.358q-.462.868-.462 2.044 0 1.162.462 2.044.476.882 1.288 1.358.826.476 1.848.476m7.856-5.418q.336-.659.952-1.022.63-.364 1.526-.364v1.316h-.336q-2.142 0-2.142 2.324V79.5h-1.274v-7.672H97.4zm3.472 2.562q0-1.176.476-2.058a3.47 3.47 0 0 1 1.302-1.386 3.66 3.66 0 0 1 1.876-.49q.897 0 1.666.42.771.405 1.176 1.078v-4.06h1.288V79.5h-1.288v-1.442a3.03 3.03 0 0 1-1.12 1.134q-.741.435-1.736.434a3.55 3.55 0 0 1-1.862-.504 3.54 3.54 0 0 1-1.302-1.414q-.476-.91-.476-2.072m6.496.014q0-.868-.35-1.512a2.4 2.4 0 0 0-.952-.98 2.5 2.5 0 0 0-1.302-.35q-.714 0-1.302.336-.588.335-.938.98-.35.644-.35 1.512 0 .882.35 1.54.35.644.938.994.588.336 1.302.336t1.302-.336q.603-.35.952-.994.35-.658.35-1.526m10.441-.28q0 .365-.042.77h-6.132q.07 1.134.77 1.778.714.63 1.722.63.826 0 1.372-.378.56-.392.784-1.036h1.372a3.33 3.33 0 0 1-1.232 1.806q-.924.686-2.296.686-1.092 0-1.96-.49a3.5 3.5 0 0 1-1.344-1.386q-.49-.91-.49-2.1t.476-2.086a3.3 3.3 0 0 1 1.33-1.372q.869-.49 1.988-.49 1.092 0 1.932.476t1.288 1.316q.462.826.462 1.876m-1.316-.266q0-.727-.322-1.246a2 2 0 0 0-.882-.798 2.6 2.6 0 0 0-1.218-.28q-.966 0-1.652.616-.671.615-.77 1.708zm4.272-2.03q.336-.659.952-1.022.63-.364 1.526-.364v1.316h-.336q-2.142 0-2.142 2.324V79.5h-1.274v-7.672h1.274z"/><g stroke-width="1.5" clip-path="url(#b)"><path stroke="#FAFAFA" stroke-linecap="round" stroke-linejoin="round" d="m28 116 4-4m4-4-4 4m0 0-4-4m4 4 4 4"/><circle cx="32" cy="112" r="11.25" stroke="#fff"/></g><path fill="#FAFAFA" d="M71.368 106.812v9.688h-1.274v-7.224l-3.22 7.224h-.896l-3.234-7.238v7.238H61.47v-9.688h1.372l3.584 8.008 3.584-8.008zm8.768 2.016-4.62 11.284H74.2l1.512-3.696-3.094-7.588h1.414l2.408 6.216 2.38-6.216zm4.537 2.786q0-1.428.644-2.562a4.7 4.7 0 0 1 1.75-1.792 4.9 4.9 0 0 1 2.478-.644q1.596 0 2.786.77t1.736 2.184h-1.526q-.405-.882-1.176-1.358-.756-.476-1.82-.476-1.021 0-1.834.476-.812.476-1.274 1.358-.462.868-.462 2.044 0 1.162.462 2.044a3.34 3.34 0 0 0 1.274 1.344 3.56 3.56 0 0 0 1.834.476q1.064 0 1.82-.462.771-.476 1.176-1.358h1.526q-.546 1.4-1.736 2.17-1.19.756-2.786.756-1.358 0-2.478-.63a4.7 4.7 0 0 1-1.75-1.778q-.644-1.134-.644-2.562m10.815 1.022q0-1.176.476-2.058a3.46 3.46 0 0 1 1.302-1.386q.84-.49 1.862-.49 1.008 0 1.75.434.741.434 1.106 1.092v-1.4h1.288v7.672h-1.288v-1.428q-.378.672-1.134 1.12-.743.434-1.736.434a3.5 3.5 0 0 1-1.848-.504 3.53 3.53 0 0 1-1.302-1.414q-.477-.91-.476-2.072m6.496.014q0-.868-.35-1.512a2.4 2.4 0 0 0-.952-.98 2.5 2.5 0 0 0-1.302-.35q-.714 0-1.302.336a2.44 2.44 0 0 0-.938.98q-.35.644-.35 1.512 0 .882.35 1.54.35.644.938.994.588.336 1.302.336t1.302-.336q.601-.35.952-.994.35-.658.35-1.526m7.179-3.962q1.4 0 2.268.854.868.84.868 2.436v4.522h-1.26v-4.34q0-1.148-.574-1.75-.575-.616-1.568-.616-1.008 0-1.61.63-.588.63-.588 1.834v4.242h-1.274v-7.672h1.274v1.092a2.54 2.54 0 0 1 1.022-.91 3.2 3.2 0 0 1 1.442-.322m4.741 3.962q0-1.19.476-2.072a3.43 3.43 0 0 1 1.316-1.386q.854-.49 1.946-.49 1.413 0 2.324.686.924.686 1.218 1.904h-1.372a1.96 1.96 0 0 0-.77-1.106q-.56-.406-1.4-.406-1.092 0-1.764.756-.672.742-.672 2.114 0 1.386.672 2.142t1.764.756q.84 0 1.4-.392t.77-1.12h1.372q-.309 1.176-1.232 1.89-.924.7-2.31.7-1.092 0-1.946-.49a3.43 3.43 0 0 1-1.316-1.386q-.477-.895-.476-2.1m15.98-.28q0 .364-.042.77h-6.132q.07 1.134.77 1.778.714.63 1.722.63.825 0 1.372-.378.56-.392.784-1.036h1.372a3.34 3.34 0 0 1-1.232 1.806q-.925.686-2.296.686-1.093 0-1.96-.49a3.5 3.5 0 0 1-1.344-1.386q-.49-.91-.49-2.1t.476-2.086a3.3 3.3 0 0 1 1.33-1.372q.867-.49 1.988-.49 1.092 0 1.932.476t1.288 1.316q.462.826.462 1.876m-1.316-.266q0-.728-.322-1.246a2.03 2.03 0 0 0-.882-.798 2.6 2.6 0 0 0-1.218-.28q-.966 0-1.652.616-.672.616-.77 1.708zm4.271-5.964v10.36h-1.274v-10.36zm3.446 0v10.36h-1.274v-10.36zm1.695 6.496q0-1.176.476-2.058a3.46 3.46 0 0 1 1.302-1.386 3.6 3.6 0 0 1 1.862-.49q1.008 0 1.75.434t1.106 1.092v-1.4h1.288v7.672h-1.288v-1.428q-.378.672-1.134 1.12-.742.434-1.736.434a3.5 3.5 0 0 1-1.848-.504 3.53 3.53 0 0 1-1.302-1.414q-.476-.91-.476-2.072m6.496.014q0-.868-.35-1.512a2.4 2.4 0 0 0-.952-.98 2.5 2.5 0 0 0-1.302-.35q-.714 0-1.302.336a2.44 2.44 0 0 0-.938.98q-.35.644-.35 1.512 0 .882.35 1.54.35.644.938.994.588.336 1.302.336t1.302-.336q.602-.35.952-.994.35-.658.35-1.526m4.995-2.772v4.522q0 .56.238.798.238.224.826.224h.938v1.078h-1.148q-1.064 0-1.596-.49t-.532-1.61v-4.522h-.994v-1.05h.994v-1.932h1.274v1.932h2.002v1.05zm4.203-2.296a.84.84 0 0 1-.616-.252.84.84 0 0 1-.252-.616q0-.364.252-.616a.84.84 0 0 1 .616-.252q.351 0 .588.252a.84.84 0 0 1 .252.616.84.84 0 0 1-.252.616.78.78 0 0 1-.588.252m.616 1.246v7.672h-1.274v-7.672zm5.518 7.798a3.96 3.96 0 0 1-1.96-.49 3.56 3.56 0 0 1-1.372-1.386q-.49-.91-.49-2.1 0-1.176.504-2.072a3.5 3.5 0 0 1 1.4-1.386q.882-.49 1.974-.49t1.974.49a3.44 3.44 0 0 1 1.386 1.372q.518.896.518 2.086t-.532 2.1a3.6 3.6 0 0 1-1.414 1.386q-.897.49-1.988.49m0-1.12a2.7 2.7 0 0 0 1.288-.322q.602-.323.966-.966.378-.644.378-1.568t-.364-1.568-.952-.952a2.6 2.6 0 0 0-1.274-.322q-.7 0-1.288.322-.575.308-.924.952t-.35 1.568q0 .938.336 1.582.35.644.924.966.573.308 1.26.308m9.347-6.818q1.4 0 2.268.854.868.84.868 2.436v4.522h-1.26v-4.34q0-1.148-.574-1.75-.574-.616-1.568-.616-1.008 0-1.61.63-.588.63-.588 1.834v4.242h-1.274v-7.672h1.274v1.092a2.55 2.55 0 0 1 1.022-.91 3.2 3.2 0 0 1 1.442-.322m7.933 7.938a4.1 4.1 0 0 1-1.582-.294q-.7-.308-1.106-.84a2.27 2.27 0 0 1-.448-1.246h1.316q.056.574.532.938.49.364 1.274.364.728 0 1.148-.322t.42-.812a.79.79 0 0 0-.448-.742q-.448-.252-1.386-.49a11 11 0 0 1-1.4-.448 2.65 2.65 0 0 1-.924-.686q-.378-.462-.378-1.204 0-.588.35-1.078t.994-.77q.644-.294 1.47-.294 1.274 0 2.058.644.785.644.84 1.764h-1.274a1.3 1.3 0 0 0-.49-.966q-.434-.364-1.176-.364-.685 0-1.092.294-.406.294-.406.77a.88.88 0 0 0 .238.63q.252.238.616.392.378.14 1.036.322.826.224 1.344.448.517.21.882.644.378.434.392 1.134 0 .63-.35 1.134t-.994.798q-.63.28-1.456.28"/><path stroke="#FAFAFA" stroke-width="1.5" d="M39.828 146.936c.624 0 .89.793.392 1.169l-3.33 2.518a2.15 2.15 0 0 0-.757 2.35l1.253 4.053c.188.605-.513 1.093-1.016.708l-3.062-2.346a2.15 2.15 0 0 0-2.616 0l-3.078 2.359c-.503.384-1.202-.102-1.017-.707l1.235-4.035a2.15 2.15 0 0 0-.748-2.337l-3.35-2.566c-.493-.378-.226-1.166.396-1.166h3.997a2.15 2.15 0 0 0 2.055-1.515l1.197-3.873c.189-.611 1.053-.611 1.242 0l1.197 3.873a2.15 2.15 0 0 0 2.055 1.515z"/><path fill="#FAFAFA" d="M71.15 143.812v9.688h-1.274v-7.224l-3.22 7.224h-.896l-3.234-7.238v7.238h-1.274v-9.688h1.372l3.584 8.008 3.584-8.008zm8.768 2.016-4.62 11.284h-1.316l1.512-3.696-3.094-7.588h1.414l2.408 6.216 2.38-6.216zM90.07 153.5l-2.323-3.99h-1.54v3.99H84.93v-9.758h3.15q1.107 0 1.862.378.771.378 1.148 1.022.38.644.379 1.47 0 1.008-.588 1.778-.575.77-1.737 1.022l2.45 4.088zm-3.864-5.012h1.877q1.035 0 1.553-.504.519-.518.518-1.372 0-.869-.518-1.344-.504-.476-1.553-.476h-1.876zm14.244.882q0 .364-.042.77h-6.132q.07 1.134.77 1.778.714.63 1.722.63.826 0 1.372-.378.56-.392.784-1.036h1.372a3.33 3.33 0 0 1-1.232 1.806q-.924.686-2.296.686-1.092 0-1.96-.49a3.5 3.5 0 0 1-1.344-1.386q-.49-.91-.49-2.1t.476-2.086a3.3 3.3 0 0 1 1.33-1.372q.868-.49 1.988-.49 1.092 0 1.932.476t1.288 1.316q.462.826.462 1.876m-1.316-.266q0-.728-.322-1.246a2.02 2.02 0 0 0-.882-.798 2.6 2.6 0 0 0-1.218-.28q-.966 0-1.652.616-.672.616-.77 1.708zm5.854 3.22 2.38-6.496h1.358l-3.01 7.672h-1.484l-3.01-7.672h1.372zm5.649-7.742a.84.84 0 0 1-.616-.252.84.84 0 0 1-.252-.616q0-.364.252-.616a.84.84 0 0 1 .616-.252q.351 0 .588.252a.84.84 0 0 1 .252.616.84.84 0 0 1-.252.616.78.78 0 0 1-.588.252m.616 1.246v7.672h-1.274v-7.672zm9.172 3.542q0 .364-.042.77h-6.132q.07 1.134.77 1.778.714.63 1.722.63.825 0 1.372-.378.56-.392.784-1.036h1.372a3.34 3.34 0 0 1-1.232 1.806q-.925.686-2.296.686-1.093 0-1.96-.49a3.5 3.5 0 0 1-1.344-1.386q-.49-.91-.49-2.1t.476-2.086a3.3 3.3 0 0 1 1.33-1.372q.867-.49 1.988-.49 1.092 0 1.932.476t1.288 1.316q.462.826.462 1.876m-1.316-.266q0-.728-.322-1.246a2.03 2.03 0 0 0-.882-.798 2.6 2.6 0 0 0-1.218-.28q-.966 0-1.652.616-.672.616-.77 1.708zm13.217-3.276-2.394 7.672h-1.316l-1.848-6.09-1.848 6.09h-1.316l-2.408-7.672h1.302l1.764 6.44 1.904-6.44h1.302l1.862 6.454 1.736-6.454zm3.981 7.798q-.882 0-1.582-.294-.7-.308-1.106-.84a2.27 2.27 0 0 1-.448-1.246h1.316q.055.574.532.938.49.364 1.274.364.728 0 1.148-.322t.42-.812a.79.79 0 0 0-.448-.742q-.448-.252-1.386-.49a11 11 0 0 1-1.4-.448 2.65 2.65 0 0 1-.924-.686q-.378-.462-.378-1.204 0-.588.35-1.078t.994-.77q.644-.294 1.47-.294 1.273 0 2.058.644.783.644.84 1.764h-1.274a1.3 1.3 0 0 0-.49-.966q-.435-.364-1.176-.364-.687 0-1.092.294-.406.294-.406.77a.88.88 0 0 0 .238.63q.252.238.616.392.378.14 1.036.322.825.224 1.344.448.517.21.882.644.377.434.392 1.134 0 .63-.35 1.134t-.994.798q-.63.28-1.456.28"/><path stroke="#FAFAFA" stroke-linecap="round" stroke-linejoin="round" stroke-width="1.5" d="M24 186h9.5m-7.5 3-3-3 3-3m5-2v-1a2 2 0 0 1 2-2h5a2 2 0 0 1 2 2v12a2 2 0 0 1-2 2h-5a2 2 0 0 1-2-2v-1"/><path fill="#FAFAFA" d="M62.618 189.464h3.416v1.036h-4.69v-9.758h1.274zm8.115 1.162a3.96 3.96 0 0 1-1.96-.49 3.57 3.57 0 0 1-1.372-1.386q-.49-.91-.49-2.1 0-1.176.504-2.072a3.5 3.5 0 0 1 1.4-1.386q.882-.49 1.974-.49t1.974.49a3.44 3.44 0 0 1 1.386 1.372q.518.896.518 2.086t-.532 2.1a3.6 3.6 0 0 1-1.414 1.386 4.1 4.1 0 0 1-1.988.49m0-1.12q.685 0 1.288-.322a2.4 2.4 0 0 0 .966-.966q.378-.644.378-1.568T73 185.082t-.952-.952a2.6 2.6 0 0 0-1.274-.322q-.7 0-1.288.322-.574.308-.924.952t-.35 1.568q0 .938.336 1.582.349.644.924.966.573.308 1.26.308m8.773-6.804q.993 0 1.736.434.756.434 1.12 1.092v-1.4h1.288v7.84q0 1.05-.448 1.862-.448.826-1.288 1.288-.826.462-1.932.462-1.512 0-2.52-.714a2.8 2.8 0 0 1-1.19-1.946h1.26q.21.7.868 1.12.657.434 1.582.434 1.05 0 1.708-.658.672-.659.672-1.848v-1.61q-.379.672-1.12 1.12-.743.448-1.736.448a3.55 3.55 0 0 1-1.862-.504 3.53 3.53 0 0 1-1.302-1.414q-.477-.91-.476-2.072 0-1.176.476-2.058a3.46 3.46 0 0 1 1.302-1.386q.84-.49 1.862-.49m2.856 3.948q0-.869-.35-1.512a2.4 2.4 0 0 0-.952-.98 2.5 2.5 0 0 0-1.302-.35q-.714 0-1.302.336a2.44 2.44 0 0 0-.938.98q-.35.643-.35 1.512 0 .882.35 1.54.35.644.938.994.588.336 1.302.336t1.302-.336q.601-.35.952-.994.35-.658.35-1.526m6.787 3.976a3.96 3.96 0 0 1-1.96-.49 3.57 3.57 0 0 1-1.372-1.386q-.49-.91-.49-2.1 0-1.176.504-2.072a3.5 3.5 0 0 1 1.4-1.386q.882-.49 1.974-.49t1.974.49a3.44 3.44 0 0 1 1.386 1.372q.518.896.518 2.086t-.532 2.1a3.6 3.6 0 0 1-1.414 1.386 4.1 4.1 0 0 1-1.988.49m0-1.12q.685 0 1.288-.322a2.4 2.4 0 0 0 .966-.966q.378-.644.378-1.568t-.364-1.568-.952-.952a2.6 2.6 0 0 0-1.274-.322q-.7 0-1.288.322-.575.308-.924.952t-.35 1.568q0 .938.336 1.582.349.644.924.966.573.308 1.26.308m12.413-6.678v7.672h-1.274v-1.134q-.365.588-1.022.924-.645.322-1.428.322a3.5 3.5 0 0 1-1.61-.364 2.8 2.8 0 0 1-1.134-1.12q-.406-.743-.406-1.806v-4.494h1.26v4.326q0 1.134.574 1.75.573.602 1.568.602 1.022 0 1.61-.63t.588-1.834v-4.214zm3.705 1.05v4.522q0 .56.238.798.238.224.826.224h.938v1.078h-1.148q-1.065 0-1.596-.49t-.532-1.61v-4.522h-.994v-1.05h.994v-1.932h1.274v1.932h2.002v1.05z"/></g><defs><clipPath id="b"><path fill="#fff" d="M20 100h24v24H20z"/></clipPath><filter id="a" width="524" height="508" x="-150" y="-150" color-interpolation-filters="sRGB" filterUnits="userSpaceOnUse"><feFlood flood-opacity="0" result="BackgroundImageFix"/><feGaussianBlur in="BackgroundImageFix" stdDeviation="75"/><feComposite in2="SourceAlpha" operator="in" result="effect1_backgroundBlur_158_3846"/><feBlend in="SourceGraphic" in2="effect1_backgroundBlur_158_3846" result="shape"/></filter></defs></svg>