<svg xmlns="http://www.w3.org/2000/svg" width="234" height="56" fill="none"><rect width="234" height="56" fill="#DB4444" rx="4"/><path fill="#FAFAFA" d="M58.784 22.88 54.608 34h-2.112l-4.192-11.12h1.952l3.296 9.248 3.312-9.248zm2.453 1.136a1.13 1.13 0 0 1-.832-.336 1.13 1.13 0 0 1-.336-.832q0-.495.336-.832a1.13 1.13 0 0 1 .832-.336q.48 0 .816.336t.336.832q0 .495-.336.832a1.1 1.1 0 0 1-.816.336m.896 1.168V34H60.31v-8.816zm10.475 4.192q0 .496-.064.896h-6.736q.08 1.056.784 1.696t1.728.64q1.473 0 2.08-1.232h1.968a4 4 0 0 1-1.456 2q-1.04.768-2.592.768-1.263 0-2.272-.56a4.2 4.2 0 0 1-1.568-1.6q-.56-1.04-.56-2.4t.544-2.384a3.94 3.94 0 0 1 1.552-1.6q1.008-.56 2.304-.56 1.248 0 2.224.544a3.83 3.83 0 0 1 1.52 1.536q.544.976.544 2.256m-1.904-.576q-.015-1.008-.72-1.616-.704-.608-1.744-.608-.944 0-1.616.608-.672.592-.8 1.616zm15.54-3.616L83.506 34h-1.92l-1.776-6.512L78.035 34h-1.92l-2.752-8.816h1.856l1.84 7.088 1.872-7.088h1.904l1.792 7.056 1.824-7.056zm12.222 6.544h-4.655L93.01 34h-1.904l3.984-11.136h2.112L101.187 34h-1.92zm-.511-1.488-1.808-5.168-1.825 5.168zm6.788-8.08V34h-1.824V22.16zm4.219 0V34h-1.824V22.16zm14.327 4.032q0 .848-.4 1.6t-1.28 1.232q-.88.464-2.256.464h-2.016V34h-1.824V22.88h3.84q1.28 0 2.16.448.896.432 1.328 1.184.447.752.448 1.68M119.353 28q1.04 0 1.552-.464.512-.48.512-1.344 0-1.824-2.064-1.824h-2.016V28zm7.499-1.536a2.8 2.8 0 0 1 1.056-1.04q.672-.384 1.584-.384v1.888h-.464q-1.073 0-1.632.544-.544.544-.544 1.888V34h-1.824v-8.816h1.824zm8.141 7.68q-1.248 0-2.256-.56a4.15 4.15 0 0 1-1.584-1.6q-.576-1.04-.576-2.4 0-1.344.592-2.384a4.1 4.1 0 0 1 1.616-1.6q1.023-.56 2.288-.56 1.263 0 2.288.56a4.1 4.1 0 0 1 1.616 1.6q.592 1.04.592 2.384t-.608 2.384a4.26 4.26 0 0 1-1.664 1.616 4.8 4.8 0 0 1-2.304.56m0-1.584q.703 0 1.312-.336.624-.336 1.008-1.008t.384-1.632-.368-1.616a2.5 2.5 0 0 0-.976-1.008 2.7 2.7 0 0 0-1.312-.336q-.705 0-1.312.336-.593.336-.944 1.008-.352.656-.352 1.616 0 1.424.72 2.208.736.768 1.84.768m5.771-3.008q0-1.328.544-2.352a4.06 4.06 0 0 1 3.632-2.16 4 4 0 0 1 1.696.384q.847.368 1.344.992V22.16h1.84V34h-1.84v-1.328q-.448.64-1.248 1.056-.784.416-1.808.416a4.03 4.03 0 0 1-2.112-.576 4.3 4.3 0 0 1-1.504-1.632q-.544-1.056-.544-2.384m7.216.032q0-.912-.384-1.584a2.6 2.6 0 0 0-.976-1.024 2.6 2.6 0 0 0-1.312-.352q-.704 0-1.312.352a2.6 2.6 0 0 0-.992 1.008q-.368.656-.368 1.568t.368 1.6q.384.688.992 1.056a2.63 2.63 0 0 0 1.312.352q.704 0 1.312-.352t.976-1.024q.384-.688.384-1.6m12.22-4.4V34h-1.824v-1.04q-.432.544-1.136.864-.689.304-1.472.304-1.041 0-1.872-.432a3.2 3.2 0 0 1-1.296-1.28q-.464-.848-.464-2.048v-5.184h1.808v4.912q0 1.184.592 1.824.591.624 1.616.624 1.023 0 1.616-.624.608-.64.608-1.824v-4.912zm1.798 4.4q0-1.36.544-2.384a4 4 0 0 1 1.536-1.6q.977-.56 2.24-.56 1.6 0 2.64.768 1.056.752 1.424 2.16h-1.968a2.1 2.1 0 0 0-.768-1.024q-.528-.368-1.328-.368-1.12 0-1.792.8-.656.784-.656 2.208t.656 2.224q.673.8 1.792.8 1.584 0 2.096-1.392h1.968q-.384 1.343-1.44 2.144-1.055.784-2.624.784-1.263 0-2.24-.56a4.1 4.1 0 0 1-1.536-1.6q-.543-1.04-.544-2.4m12.33-2.912v4.88q0 .495.224.72.24.208.8.208h1.12V34h-1.44q-1.232 0-1.888-.576t-.656-1.872v-4.88h-1.04v-1.488h1.04v-2.192h1.84v2.192h2.144v1.488zm7.025 7.472q-1.04 0-1.872-.368-.816-.384-1.296-1.024a2.6 2.6 0 0 1-.512-1.456h1.888q.048.56.528.944.496.368 1.232.368.768 0 1.184-.288.432-.304.432-.768 0-.495-.48-.736-.464-.24-1.488-.528-.992-.271-1.616-.528a2.9 2.9 0 0 1-1.088-.784q-.448-.528-.448-1.392 0-.705.416-1.28.416-.592 1.184-.928.784-.336 1.792-.336 1.504 0 2.416.768.928.752.992 2.064h-1.824a1.3 1.3 0 0 0-.48-.944q-.432-.352-1.168-.352-.72 0-1.104.272a.84.84 0 0 0-.384.72q0 .352.256.592t.624.384q.368.128 1.088.336.96.256 1.568.528.624.256 1.072.768t.464 1.36q0 .752-.416 1.344t-1.184.928q-.751.336-1.776.336"/></svg>