<svg xmlns="http://www.w3.org/2000/svg" width="1170" height="108" fill="none"><rect width="20" height="40" fill="#DB4444" rx="4"/><path fill="#DB4444" d="M44.704 14.832v1.808h-2.976V26h-2.24v-9.36h-2.976v-1.808zm6.626 2.176q1.008 0 1.792.448.784.432 1.216 1.296.448.848.448 2.048V26h-2.24v-4.896q0-1.056-.528-1.616-.528-.576-1.44-.576-.927 0-1.472.576-.528.56-.528 1.616V26h-2.24V14.16h2.24v4.08a2.86 2.86 0 0 1 1.152-.896 3.7 3.7 0 0 1 1.6-.336m6.723-.928q-.593 0-.992-.368a1.28 1.28 0 0 1-.385-.944q0-.56.384-.928.4-.384.992-.384t.977.384q.4.368.4.928t-.4.944q-.385.368-.977.368m1.104 1.056V26h-2.24v-8.864zm5.605 9.008q-1.088 0-1.952-.384-.864-.4-1.376-1.072a2.73 2.73 0 0 1-.544-1.488h2.256q.063.512.496.848.447.336 1.104.336.64 0 .992-.256.368-.256.368-.656 0-.432-.448-.64-.432-.225-1.392-.48a12 12 0 0 1-1.632-.496 2.9 2.9 0 0 1-1.088-.784q-.448-.528-.448-1.424 0-.736.416-1.344.432-.608 1.216-.96.8-.352 1.872-.352 1.584 0 2.528.8.944.784 1.04 2.128h-2.144a1.13 1.13 0 0 0-.448-.832q-.384-.32-1.04-.32-.609 0-.944.224a.72.72 0 0 0-.32.624q0 .448.448.688.447.224 1.392.464.96.24 1.584.496.624.255 1.072.8.463.528.48 1.408 0 .767-.432 1.376-.417.608-1.216.96-.784.336-1.84.336m21.315-11.312V26h-2.24v-7.264L80.845 26h-1.696l-3.008-7.264V26H73.9V14.832h2.544l3.552 8.304 3.552-8.304zm6.15 11.312q-1.279 0-2.303-.56a4.2 4.2 0 0 1-1.617-1.616q-.575-1.04-.576-2.4 0-1.36.593-2.4a4.17 4.17 0 0 1 1.648-1.6q1.04-.576 2.32-.576t2.32.576a4.06 4.06 0 0 1 1.632 1.6q.608 1.04.608 2.4t-.624 2.4a4.25 4.25 0 0 1-1.664 1.616q-1.04.56-2.336.56m0-1.952q.609 0 1.136-.288.544-.304.865-.896t.32-1.44q0-1.264-.672-1.936a2.15 2.15 0 0 0-1.617-.688q-.96 0-1.615.688-.64.672-.64 1.936t.623 1.952q.64.672 1.6.672m11.18-7.184q1.584 0 2.56 1.008.976.992.976 2.784V26h-2.24v-4.896q0-1.056-.528-1.616-.528-.576-1.44-.576-.929 0-1.472.576-.528.56-.528 1.616V26h-2.24v-8.864h2.24v1.104a3 3 0 0 1 1.136-.896 3.5 3.5 0 0 1 1.536-.336m8.274 1.968v4.288q0 .448.208.656.223.192.736.192h1.04V26h-1.408q-2.832 0-2.832-2.752v-4.272h-1.056v-1.84h1.056v-2.192h2.256v2.192h1.984v1.84zm8.587-1.968q1.008 0 1.792.448.784.432 1.216 1.296.448.848.448 2.048V26h-2.24v-4.896q0-1.056-.528-1.616-.528-.576-1.44-.576-.928 0-1.472.576-.528.56-.528 1.616V26h-2.24V14.16h2.24v4.08a2.86 2.86 0 0 1 1.152-.896 3.7 3.7 0 0 1 1.6-.336"/><path fill="#000" d="M2.582 97V70.818h10.023q2.839 0 4.717.895 1.893.882 2.826 2.416.946 1.534.946 3.477 0 1.599-.614 2.736-.614 1.125-1.649 1.829a7 7 0 0 1-2.314 1.01v.255q1.394.077 2.672.857 1.29.766 2.11 2.173.817 1.405.817 3.4 0 2.033-.984 3.657-.984 1.611-2.966 2.544-1.98.933-4.986.933zm4.743-3.963h5.101q2.583 0 3.72-.984 1.15-.997 1.15-2.557.001-1.164-.574-2.097-.576-.945-1.637-1.483-1.06-.55-2.531-.55H7.325zm0-11.084h4.692q1.227 0 2.212-.447.984-.46 1.547-1.291.575-.844.575-1.995 0-1.522-1.074-2.505-1.06-.985-3.158-.985H7.325zm28.846 15.43q-2.953 0-5.1-1.227-2.136-1.24-3.286-3.503-1.15-2.275-1.15-5.356 0-3.03 1.15-5.318 1.163-2.302 3.247-3.58 2.084-1.29 4.896-1.291 1.816 0 3.426.588a7.7 7.7 0 0 1 2.864 1.79q1.252 1.214 1.969 3.093.716 1.867.716 4.45v1.418H28.808v-3.119h11.659q-.013-1.33-.576-2.365a4.2 4.2 0 0 0-1.572-1.65q-.997-.6-2.327-.6-1.419 0-2.493.69a4.76 4.76 0 0 0-1.674 1.79 5.15 5.15 0 0 0-.601 2.416v2.723q0 1.714.626 2.94.627 1.215 1.752 1.867 1.125.64 2.633.64 1.01 0 1.828-.282a4.1 4.1 0 0 0 1.42-.856q.6-.563.907-1.394l4.321.486a6.74 6.74 0 0 1-1.56 2.991q-1.137 1.266-2.915 1.97-1.777.69-4.065.69m29.607-14.829-4.219.46a3.4 3.4 0 0 0-.626-1.201q-.435-.564-1.177-.908-.741-.345-1.815-.345-1.445 0-2.429.626-.972.627-.959 1.624-.013.855.627 1.393.651.537 2.147.882l3.35.716q2.787.6 4.142 1.905 1.368 1.305 1.38 3.413-.012 1.854-1.086 3.273-1.061 1.406-2.953 2.199t-4.347.793q-3.605 0-5.804-1.509-2.2-1.521-2.62-4.231l4.512-.435q.308 1.329 1.304 2.007.997.678 2.596.678 1.648 0 2.646-.678 1.01-.678 1.01-1.675 0-.844-.652-1.393-.639-.55-1.995-.844l-3.349-.703q-2.826-.588-4.18-1.982-1.355-1.406-1.343-3.554-.012-1.815.985-3.144 1.01-1.343 2.8-2.072 1.802-.741 4.154-.741 3.451 0 5.433 1.47 1.995 1.47 2.468 3.976m15.483-5.19v3.58H69.973v-3.58zM72.76 72.66h4.627v18.435q0 .933.282 1.432.293.485.767.664.472.18 1.048.18.435 0 .793-.065.37-.063.562-.115l.78 3.618q-.37.129-1.061.281-.678.154-1.662.18-1.74.051-3.132-.525a4.87 4.87 0 0 1-2.212-1.815q-.805-1.226-.792-3.068zm38.614 5.357q-.179-1.675-1.508-2.608-1.317-.934-3.426-.934-1.484 0-2.544.448-1.062.447-1.624 1.214a2.95 2.95 0 0 0-.575 1.752q0 .817.371 1.419.382.6 1.035 1.022.652.41 1.445.69.792.282 1.598.474l2.454.614q1.483.344 2.851.933 1.381.588 2.467 1.483a6.6 6.6 0 0 1 1.739 2.16q.639 1.266.639 2.966 0 2.301-1.176 4.053-1.177 1.739-3.4 2.723-2.212.97-5.357.971-3.055 0-5.305-.946-2.238-.945-3.503-2.761-1.253-1.815-1.355-4.423h4.666q.102 1.368.844 2.275.74.908 1.93 1.355 1.201.448 2.685.448 1.546 0 2.71-.46 1.176-.473 1.841-1.305.665-.843.677-1.968-.012-1.023-.601-1.688-.587-.676-1.649-1.125a16 16 0 0 0-2.454-.818l-2.979-.767q-3.234-.83-5.114-2.518-1.866-1.7-1.866-4.513 0-2.315 1.253-4.053 1.266-1.739 3.439-2.697 2.173-.972 4.922-.972 2.786 0 4.883.972 2.11.959 3.311 2.672 1.202 1.7 1.24 3.912zm19.079 19.367q-2.953 0-5.101-1.227-2.135-1.24-3.285-3.503-1.15-2.275-1.151-5.356 0-3.03 1.151-5.318 1.163-2.302 3.247-3.58 2.083-1.29 4.896-1.291 1.817 0 3.426.588a7.7 7.7 0 0 1 2.864 1.79q1.253 1.214 1.969 3.093.716 1.867.716 4.45v1.418H123.09v-3.119h11.659q-.013-1.33-.576-2.365a4.2 4.2 0 0 0-1.572-1.65q-.997-.6-2.327-.6-1.419 0-2.493.69a4.75 4.75 0 0 0-1.674 1.79 5.15 5.15 0 0 0-.601 2.416v2.723q0 1.714.626 2.94.627 1.215 1.752 1.867 1.125.64 2.633.64 1.01 0 1.828-.282a4.05 4.05 0 0 0 1.419-.856q.601-.563.908-1.394l4.321.486a6.74 6.74 0 0 1-1.56 2.991q-1.137 1.266-2.914 1.97-1.777.69-4.066.69m18.715-26.565V97h-4.628V70.818zm10.826 0V97h-4.627V70.818zM166.193 97V77.364h4.628V97zm2.327-22.423a2.7 2.7 0 0 1-1.892-.729q-.793-.742-.793-1.777 0-1.048.793-1.777a2.67 2.67 0 0 1 1.892-.741q1.112 0 1.892.741.792.729.793 1.777 0 1.035-.793 1.777-.78.729-1.892.729m13.128 10.917V97h-4.628V77.364h4.423V80.7h.23a5.6 5.6 0 0 1 2.161-2.62q1.496-.972 3.695-.972 2.032 0 3.541.87 1.521.868 2.352 2.518.844 1.65.831 4.001V97h-4.628V85.213q0-1.969-1.023-3.08-1.01-1.113-2.799-1.113-1.215 0-2.161.537a3.7 3.7 0 0 0-1.47 1.521q-.524.997-.524 2.416m27.289 19.279q-2.493 0-4.282-.678-1.79-.665-2.877-1.79t-1.508-2.493l4.167-1.01q.282.576.818 1.138.537.576 1.445.946.92.384 2.314.384 1.969 0 3.26-.959 1.291-.945 1.291-3.12v-3.72h-.23q-.358.717-1.048 1.47-.678.755-1.803 1.266-1.112.512-2.8.512-2.262 0-4.103-1.061-1.829-1.075-2.915-3.196-1.074-2.136-1.074-5.344 0-3.234 1.074-5.459 1.086-2.236 2.928-3.388 1.84-1.163 4.103-1.163 1.727 0 2.838.588 1.125.575 1.79 1.394.665.804 1.01 1.52h.256v-3.246h4.564V97.32q0 2.518-1.202 4.167t-3.286 2.468q-2.083.818-4.73.818m.039-11.685q1.47 0 2.505-.716 1.036-.716 1.573-2.058t.537-3.222q0-1.854-.537-3.247-.525-1.394-1.56-2.16-1.023-.78-2.518-.78-1.547 0-2.583.805-1.035.805-1.559 2.212-.525 1.394-.525 3.17 0 1.803.525 3.158.537 1.343 1.572 2.097 1.048.741 2.57.741M234.912 97V70.818h9.818q3.017 0 5.062 1.125 2.059 1.125 3.107 3.094 1.06 1.956 1.061 4.449 0 2.518-1.061 4.474t-3.132 3.081q-2.071 1.113-5.101 1.112h-6.507v-3.899h5.868q1.764 0 2.889-.613 1.125-.614 1.662-1.688.55-1.074.55-2.467t-.55-2.455q-.537-1.06-1.675-1.649-1.125-.6-2.902-.6h-4.346V97zm24.403 0V77.364h4.487v3.272h.205q.537-1.7 1.841-2.62 1.317-.934 3.004-.934.383 0 .857.039.486.025.805.09v4.256q-.294-.101-.933-.179a9 9 0 0 0-1.215-.09q-1.265 0-2.275.55a4.03 4.03 0 0 0-1.573 1.496q-.575.96-.575 2.212V97zm23.47.383q-2.876 0-4.985-1.265-2.11-1.266-3.273-3.541-1.15-2.276-1.151-5.318 0-3.043 1.151-5.331 1.162-2.288 3.273-3.554 2.11-1.266 4.985-1.266 2.877 0 4.986 1.266 2.11 1.265 3.26 3.554 1.164 2.288 1.163 5.33t-1.163 5.319q-1.15 2.275-3.26 3.54-2.109 1.267-4.986 1.266m.026-3.707q1.56 0 2.608-.856 1.048-.87 1.56-2.327.524-1.458.524-3.247 0-1.803-.524-3.26-.512-1.47-1.56-2.34t-2.608-.869q-1.598 0-2.659.87-1.048.869-1.573 2.339-.51 1.457-.511 3.26 0 1.79.511 3.247.525 1.457 1.573 2.327 1.061.856 2.659.856m22.038 3.67q-2.313 0-4.142-1.19-1.828-1.188-2.889-3.452-1.06-2.262-1.061-5.497 0-3.272 1.074-5.522 1.086-2.264 2.927-3.414 1.842-1.163 4.104-1.163 1.726 0 2.838.588 1.113.575 1.764 1.394.653.804 1.01 1.52h.192v-9.792h4.641V97h-4.551v-3.094h-.282q-.357.716-1.035 1.522-.678.792-1.79 1.355t-2.8.562m1.292-3.798q1.47 0 2.505-.792 1.036-.806 1.573-2.237t.537-3.337-.537-3.311q-.525-1.406-1.56-2.186-1.023-.78-2.518-.78-1.548 0-2.583.805-1.035.806-1.56 2.225-.524 1.419-.524 3.247 0 1.84.524 3.285.537 1.433 1.573 2.263 1.048.819 2.57.818m28.053-4.806V77.364h4.628V97h-4.488v-3.49h-.204q-.665 1.65-2.186 2.697-1.509 1.05-3.72 1.049-1.93 0-3.414-.857-1.47-.87-2.301-2.518-.831-1.662-.831-4.014V77.364h4.628V89.15q0 1.866 1.023 2.966 1.023 1.099 2.684 1.099 1.023 0 1.982-.499.959-.498 1.572-1.483.627-.996.627-2.492m19.392 8.641q-2.94 0-5.05-1.29-2.097-1.292-3.234-3.567-1.125-2.29-1.125-5.267 0-2.993 1.15-5.28 1.151-2.302 3.247-3.58 2.11-1.29 4.986-1.291 2.391 0 4.232.882 1.854.87 2.953 2.467 1.1 1.585 1.253 3.708h-4.424q-.268-1.42-1.278-2.365-.997-.96-2.672-.96-1.419 0-2.493.768-1.074.754-1.674 2.173-.588 1.42-.588 3.4 0 2.008.588 3.453.587 1.431 1.649 2.211 1.074.767 2.518.767 1.023 0 1.828-.383a3.7 3.7 0 0 0 1.368-1.138q.55-.741.754-1.803h4.424q-.166 2.084-1.227 3.695-1.062 1.597-2.89 2.506-1.827.894-4.295.894m23.457-20.02v3.58h-11.288v-3.58zm-8.501-4.704h4.628v18.435q0 .933.281 1.432.294.485.767.664t1.048.18q.435 0 .793-.065.371-.063.562-.115l.78 3.618q-.37.129-1.061.281-.678.154-1.662.18-1.738.051-3.132-.525a4.9 4.9 0 0 1-2.212-1.815q-.805-1.226-.792-3.068zm29.05 9.895-4.219.46a3.4 3.4 0 0 0-.626-1.201q-.435-.564-1.176-.908t-1.815-.345q-1.445 0-2.429.626-.972.627-.959 1.624-.013.855.626 1.393.653.537 2.148.882l3.349.716q2.787.6 4.142 1.905 1.368 1.305 1.381 3.413-.012 1.854-1.087 3.273-1.06 1.406-2.953 2.199t-4.346.793q-3.606 0-5.804-1.509-2.2-1.521-2.621-4.231l4.513-.435q.306 1.329 1.304 2.007t2.595.678q1.65 0 2.646-.678 1.01-.678 1.01-1.675 0-.844-.652-1.393-.64-.55-1.994-.844l-3.35-.703q-2.825-.588-4.18-1.982-1.355-1.406-1.342-3.554-.013-1.815.984-3.144 1.01-1.343 2.8-2.072 1.802-.741 4.155-.741 3.452 0 5.433 1.47 1.994 1.47 2.467 3.976"/><rect width="159" height="56" x="1011" y="52" fill="#DB4444" rx="4"/><path fill="#FAFAFA" d="M1069.78 74.88 1065.61 86h-2.11l-4.2-11.12h1.96l3.29 9.248 3.31-9.248zm2.46 1.136c-.33 0-.61-.112-.83-.336a1.1 1.1 0 0 1-.34-.832c0-.33.11-.608.34-.832.22-.224.5-.336.83-.336q.48 0 .81.336c.23.224.34.501.34.832s-.11.608-.34.832q-.33.336-.81.336m.89 1.168V86h-1.82v-8.816zm10.48 4.192c0 .33-.02.63-.07.896h-6.73q.075 1.056.78 1.696c.47.427 1.05.64 1.73.64.98 0 1.67-.41 2.08-1.232h1.97a4 4 0 0 1-1.46 2c-.69.512-1.56.768-2.59.768-.84 0-1.6-.187-2.27-.56a4.17 4.17 0 0 1-1.57-1.6c-.37-.693-.56-1.493-.56-2.4q0-1.36.54-2.384c.38-.693.89-1.227 1.56-1.6s1.44-.56 2.3-.56q1.245 0 2.22.544c.65.363 1.16.875 1.52 1.536.37.65.55 1.403.55 2.256m-1.91-.576q-.015-1.007-.72-1.616-.705-.608-1.74-.608-.945 0-1.62.608c-.44.395-.71.933-.8 1.616zm15.54-3.616L1094.51 86h-1.92l-1.78-6.512-1.77 6.512h-1.92l-2.76-8.816h1.86l1.84 7.088 1.87-7.088h1.91l1.79 7.056 1.82-7.056zm12.23 6.544h-4.66l-.8 2.272h-1.9l3.98-11.136h2.11L1112.19 86h-1.92zm-.52-1.488-1.8-5.168-1.83 5.168zm6.79-8.08V86h-1.82V74.16zm4.22 0V86h-1.82V74.16z"/></svg>