<svg xmlns="http://www.w3.org/2000/svg" width="170" height="145" fill="none"><rect width="169" height="144" x=".5" y=".5" stroke="#000" stroke-opacity=".3" rx="3.5"/><path fill="#000" d="M51.688 109.416q0-1.632.736-2.928a5.35 5.35 0 0 1 2-2.048q1.28-.736 2.832-.736 1.824 0 3.184.88t1.984 2.496H60.68q-.464-1.008-1.344-1.552-.865-.544-2.08-.544-1.168 0-2.096.544a3.8 3.8 0 0 0-1.456 1.552q-.528.992-.528 2.336 0 1.328.528 2.336a3.8 3.8 0 0 0 1.456 1.536q.928.544 2.096.544 1.216 0 2.08-.528.88-.544 1.344-1.552h1.744q-.624 1.6-1.984 2.48-1.36.864-3.184.864-1.552 0-2.832-.72a5.4 5.4 0 0 1-2-2.032q-.735-1.296-.736-2.928m12.36 1.168q0-1.344.543-2.352a3.95 3.95 0 0 1 1.488-1.584 4.15 4.15 0 0 1 2.128-.56q1.152 0 2 .496t1.264 1.248v-1.6h1.472V115h-1.472v-1.632q-.432.768-1.296 1.28-.847.496-1.984.496a3.97 3.97 0 0 1-2.112-.576 4.04 4.04 0 0 1-1.488-1.616q-.543-1.04-.544-2.368m7.423.016q0-.992-.4-1.728a2.75 2.75 0 0 0-1.088-1.12 2.85 2.85 0 0 0-1.488-.4q-.816 0-1.488.384a2.8 2.8 0 0 0-1.072 1.12q-.4.736-.4 1.728 0 1.008.4 1.76a2.9 2.9 0 0 0 1.072 1.136q.672.384 1.488.384t1.488-.384a2.86 2.86 0 0 0 1.088-1.136q.4-.752.4-1.744m14.477-4.528q1.024 0 1.824.432.8.416 1.264 1.264.464.847.464 2.064V115h-1.44v-4.96q0-1.312-.656-2-.64-.704-1.744-.704-1.136 0-1.808.736-.672.72-.672 2.096V115h-1.44v-4.96q0-1.312-.656-2-.64-.704-1.744-.704-1.136 0-1.808.736-.672.72-.672 2.096V115h-1.456v-8.768h1.456v1.264a2.9 2.9 0 0 1 1.152-1.056 3.6 3.6 0 0 1 1.616-.368q1.103 0 1.952.496.848.496 1.264 1.456a2.87 2.87 0 0 1 1.216-1.44 3.6 3.6 0 0 1 1.888-.512m13.94 4.208q0 .416-.048.88h-7.008q.08 1.296.88 2.032.816.72 1.968.72.944 0 1.568-.432.64-.448.896-1.184h1.568a3.8 3.8 0 0 1-1.408 2.064q-1.055.784-2.624.784-1.247 0-2.24-.56A4 4 0 0 1 91.904 113q-.56-1.04-.56-2.4t.544-2.384a3.8 3.8 0 0 1 1.52-1.568q.993-.56 2.272-.56 1.248 0 2.208.544t1.472 1.504q.528.944.528 2.144m-1.504-.304q0-.832-.368-1.424a2.3 2.3 0 0 0-1.008-.912 3 3 0 0 0-1.392-.32q-1.104 0-1.888.704-.768.704-.88 1.952zm4.882-2.32a2.8 2.8 0 0 1 1.088-1.168q.72-.416 1.744-.416v1.504h-.384q-2.448 0-2.448 2.656V115h-1.456v-8.768h1.456zm3.969 2.928q0-1.344.544-2.352a3.95 3.95 0 0 1 1.488-1.584 4.15 4.15 0 0 1 2.128-.56q1.152 0 2 .496t1.264 1.248v-1.6h1.472V115h-1.472v-1.632q-.432.768-1.296 1.28-.848.496-1.984.496a3.97 3.97 0 0 1-2.112-.576 4.05 4.05 0 0 1-1.488-1.616q-.544-1.04-.544-2.368m7.424.016q0-.992-.4-1.728a2.75 2.75 0 0 0-1.088-1.12 2.85 2.85 0 0 0-1.488-.4q-.816 0-1.488.384a2.8 2.8 0 0 0-1.072 1.12q-.4.736-.4 1.728 0 1.008.4 1.76.4.736 1.072 1.136.672.384 1.488.384t1.488-.384a2.86 2.86 0 0 0 1.088-1.136q.4-.752.4-1.744"/><g stroke="#000" stroke-linecap="round" stroke-linejoin="round" stroke-width="2" clip-path="url(#a)"><path d="M68.667 41.333H71a4.666 4.666 0 0 0 4.667-4.666A2.333 2.333 0 0 1 78 34.333h14a2.333 2.333 0 0 1 2.333 2.334A4.667 4.667 0 0 0 99 41.333h2.333A4.666 4.666 0 0 1 106 46v21a4.667 4.667 0 0 1-4.667 4.667H68.667A4.667 4.667 0 0 1 64 67V46a4.667 4.667 0 0 1 4.667-4.667"/><path d="M85 62.333a7 7 0 1 0 0-14 7 7 0 0 0 0 14"/></g><defs><clipPath id="a"><path fill="#fff" d="M57 25h56v56H57z"/></clipPath></defs></svg>