<svg xmlns="http://www.w3.org/2000/svg" width="1196" height="98" fill="none"><g filter="url(#a)"><rect width="1170" height="72" x="13" y="12" fill="#fff" rx="4"/><path fill="#000" d="M61.688 46.112q0 1.392-.96 2.32-.945.912-2.896.912h-2.144V54h-1.456V42.848h3.6q1.888 0 2.864.912.992.912.992 2.352m-3.856 2.032q1.216 0 1.792-.528t.576-1.504q0-2.064-2.368-2.064h-2.144v4.096zm7.122-1.488q.383-.751 1.088-1.168.72-.416 1.744-.416v1.504h-.384q-2.448 0-2.448 2.656V54h-1.456v-8.768h1.456zm8.336 7.488a4.53 4.53 0 0 1-2.24-.56A4.07 4.07 0 0 1 69.482 52q-.56-1.04-.56-2.4 0-1.344.576-2.368a4 4 0 0 1 1.6-1.584q1.008-.56 2.256-.56t2.256.56q1.008.544 1.584 1.568.592 1.024.592 2.384t-.608 2.4a4.1 4.1 0 0 1-1.616 1.584q-1.024.56-2.272.56m0-1.28q.785 0 1.472-.368a2.75 2.75 0 0 0 1.104-1.104q.432-.735.432-1.792t-.416-1.792-1.088-1.088a3 3 0 0 0-1.456-.368q-.8 0-1.472.368-.656.352-1.056 1.088t-.4 1.792q0 1.072.384 1.808.4.736 1.056 1.104.657.352 1.44.352m5.867-3.28q0-1.344.544-2.352a3.95 3.95 0 0 1 1.488-1.584 4.2 4.2 0 0 1 2.144-.56q1.023 0 1.904.48.879.465 1.344 1.232v-4.64h1.472V54H86.58v-1.648q-.432.785-1.28 1.296-.849.495-1.984.496a4.06 4.06 0 0 1-2.128-.576 4.04 4.04 0 0 1-1.488-1.616q-.544-1.04-.544-2.368m7.424.016q0-.991-.4-1.728a2.75 2.75 0 0 0-1.088-1.12 2.85 2.85 0 0 0-1.488-.4q-.816 0-1.488.384-.672.385-1.072 1.12t-.4 1.728q0 1.008.4 1.76a2.9 2.9 0 0 0 1.072 1.136q.672.384 1.488.384t1.488-.384a2.86 2.86 0 0 0 1.088-1.136q.4-.752.4-1.744m11.708-4.368V54h-1.456v-1.296q-.415.672-1.168 1.056a3.6 3.6 0 0 1-1.632.368q-1.024 0-1.84-.416a3.2 3.2 0 0 1-1.296-1.28q-.465-.847-.464-2.064v-5.136h1.44v4.944q0 1.295.656 2 .657.688 1.792.688 1.168 0 1.84-.72t.672-2.096v-4.816zm1.915 4.368q0-1.36.544-2.368a3.9 3.9 0 0 1 1.504-1.584q.975-.56 2.224-.56 1.615 0 2.656.784 1.056.784 1.392 2.176h-1.568a2.24 2.24 0 0 0-.88-1.264q-.64-.464-1.6-.464-1.248 0-2.016.864-.768.847-.768 2.416 0 1.584.768 2.448t2.016.864q.96 0 1.6-.448t.88-1.28h1.568q-.352 1.344-1.408 2.16-1.056.8-2.64.8-1.248 0-2.224-.56A3.9 3.9 0 0 1 100.748 52q-.544-1.024-.544-2.4m12.038-3.168V51.6q0 .64.272.912.272.255.944.256h1.072V54h-1.312q-1.215 0-1.824-.56-.608-.56-.608-1.84v-5.168h-1.136v-1.2h1.136v-2.208h1.456v2.208h2.288v1.2zm296.446-.32q0 1.392-.96 2.32-.944.912-2.896.912h-2.144V54h-1.456V42.848h3.6q1.888 0 2.864.912.992.912.992 2.352m-3.856 2.032q1.216 0 1.792-.528t.576-1.504q0-2.064-2.368-2.064h-2.144v4.096zm7.122-1.488q.383-.751 1.088-1.168.72-.416 1.744-.416v1.504h-.384q-2.448 0-2.448 2.656V54h-1.456v-8.768h1.456zm5.264-2.848a.96.96 0 0 1-.704-.288.96.96 0 0 1-.288-.704q0-.416.288-.704a.96.96 0 0 1 .704-.288q.4 0 .672.288a.96.96 0 0 1 .288.704.96.96 0 0 1-.288.704.9.9 0 0 1-.672.288m.704 1.424V54h-1.456v-8.768zm1.938 4.368q0-1.36.544-2.368a3.9 3.9 0 0 1 1.504-1.584q.976-.56 2.224-.56 1.616 0 2.656.784 1.056.784 1.392 2.176h-1.568a2.24 2.24 0 0 0-.88-1.264q-.64-.464-1.6-.464-1.248 0-2.016.864-.768.847-.768 2.416 0 1.584.768 2.448t2.016.864q.96 0 1.6-.448t.88-1.28h1.568q-.352 1.344-1.408 2.16-1.056.8-2.64.8-1.248 0-2.224-.56A3.9 3.9 0 0 1 420.404 52q-.544-1.024-.544-2.4m18.263-.32q0 .415-.048.88h-7.008q.08 1.296.88 2.032.816.72 1.968.72.944 0 1.568-.432.64-.448.896-1.184h1.568a3.8 3.8 0 0 1-1.408 2.064q-1.056.784-2.624.784-1.248 0-2.24-.56A4 4 0 0 1 430.139 52q-.56-1.04-.56-2.4t.544-2.384a3.8 3.8 0 0 1 1.52-1.568q.991-.56 2.272-.56 1.248 0 2.208.544t1.472 1.504q.528.944.528 2.144m-1.504-.304q0-.833-.368-1.424a2.3 2.3 0 0 0-1.008-.912 3 3 0 0 0-1.392-.32q-1.105 0-1.888.704-.769.704-.88 1.952zm296.557 7.136-2.224-2.224a6.3 6.3 0 0 1-1.664.224q-1.553 0-2.832-.72a5.46 5.46 0 0 1-2.032-2.032q-.736-1.312-.736-2.944t.736-2.928a5.3 5.3 0 0 1 2.032-2.032q1.28-.736 2.832-.736 1.568 0 2.848.736a5.24 5.24 0 0 1 2.016 2.016q.736 1.296.736 2.944 0 1.6-.704 2.88a5.25 5.25 0 0 1-1.936 2.016l2.816 2.8zm-8-7.696q0 1.328.528 2.336a3.9 3.9 0 0 0 1.472 1.552q.943.544 2.112.544 1.168 0 2.096-.544a3.76 3.76 0 0 0 1.472-1.552q.544-1.008.544-2.336 0-1.344-.544-2.336a3.8 3.8 0 0 0-1.456-1.552q-.929-.544-2.112-.544t-2.112.544a3.9 3.9 0 0 0-1.472 1.552q-.528.992-.528 2.336m19.441-3.184V54h-1.456v-1.296q-.415.672-1.168 1.056a3.6 3.6 0 0 1-1.632.368q-1.024 0-1.84-.416a3.2 3.2 0 0 1-1.296-1.28q-.464-.847-.464-2.064v-5.136h1.44v4.944q0 1.295.656 2 .657.688 1.792.688 1.168 0 1.84-.72t.672-2.096v-4.816zm1.915 4.352q0-1.344.544-2.352a3.94 3.94 0 0 1 1.488-1.584 4.14 4.14 0 0 1 2.128-.56q1.151 0 2 .496.847.496 1.264 1.248v-1.6h1.472V54h-1.472v-1.632q-.432.768-1.296 1.28-.849.495-1.984.496a3.97 3.97 0 0 1-2.112-.576 4.03 4.03 0 0 1-1.488-1.616q-.544-1.04-.544-2.368m7.424.016q0-.991-.4-1.728a2.76 2.76 0 0 0-1.088-1.12 2.85 2.85 0 0 0-1.488-.4q-.816 0-1.488.384-.672.385-1.072 1.12t-.4 1.728q0 1.008.4 1.76.4.736 1.072 1.136.672.384 1.488.384t1.488-.384a2.87 2.87 0 0 0 1.088-1.136q.4-.752.4-1.744m8.204-4.528q1.6 0 2.592.976.993.96.992 2.784V54h-1.44v-4.96q0-1.312-.656-2-.655-.705-1.792-.704-1.152 0-1.84.72-.672.72-.672 2.096V54h-1.456v-8.768h1.456v1.248a2.9 2.9 0 0 1 1.168-1.04 3.7 3.7 0 0 1 1.648-.368m7.739 1.36V51.6q0 .64.272.912.272.255.944.256h1.072V54h-1.312q-1.216 0-1.824-.56t-.608-1.84v-5.168h-1.136v-1.2h1.136v-2.208h1.456v2.208h2.288v1.2zm4.804-2.624a.96.96 0 0 1-.704-.288.96.96 0 0 1-.288-.704q0-.416.288-.704a.96.96 0 0 1 .704-.288.9.9 0 0 1 .672.288.96.96 0 0 1 .288.704.96.96 0 0 1-.288.704.9.9 0 0 1-.672.288m.704 1.424V54h-1.456v-8.768zm4.257 1.2V51.6q0 .64.272.912.273.255.944.256h1.072V54h-1.312q-1.215 0-1.824-.56-.608-.56-.608-1.84v-5.168h-1.136v-1.2h1.136v-2.208h1.456v2.208h2.288v1.2zm11.604-1.2-5.28 12.896h-1.504l1.728-4.224-3.536-8.672h1.616l2.752 7.104 2.72-7.104zm289.502 8.88c-.74 0-1.4-.128-1.99-.384-.57-.267-1.03-.63-1.36-1.088q-.495-.705-.51-1.616h1.55c.06.523.27.965.64 1.328.39.352.94.528 1.67.528.69 0 1.24-.17 1.63-.512.41-.352.61-.8.61-1.344 0-.427-.12-.773-.35-1.04-.24-.267-.53-.47-.88-.608-.36-.139-.83-.288-1.43-.448-.73-.192-1.33-.384-1.77-.576q-.66-.288-1.14-.896c-.31-.416-.46-.97-.46-1.664 0-.608.15-1.147.46-1.616s.74-.832 1.3-1.088 1.21-.384 1.93-.384c1.05 0 1.9.261 2.56.784q1.005.784 1.14 2.08h-1.6c-.06-.427-.28-.8-.67-1.12-.4-.33-.92-.496-1.57-.496-.61 0-1.11.16-1.49.48-.38.31-.58.747-.58 1.312 0 .405.12.736.34.992.23.256.52.453.85.592.34.128.81.277 1.42.448.74.203 1.33.405 1.78.608.45.192.83.496 1.15.912q.48.608.48 1.664c0 .544-.14 1.056-.43 1.536s-.72.87-1.28 1.168c-.57.299-1.23.448-2 .448m13.63-8.88V54h-1.46v-1.296q-.405.672-1.17 1.056a3.6 3.6 0 0 1-1.63.368c-.68 0-1.29-.139-1.84-.416a3.2 3.2 0 0 1-1.29-1.28c-.31-.565-.47-1.253-.47-2.064v-5.136h1.44v4.944q0 1.295.66 2c.44.459 1.03.688 1.79.688.78 0 1.39-.24 1.84-.72s.67-1.179.67-2.096v-4.816zm3.91 1.632c.3-.523.74-.95 1.31-1.28.58-.33 1.24-.496 1.97-.496q1.185 0 2.13.56a3.93 3.93 0 0 1 1.49 1.584q.54 1.008.54 2.352 0 1.328-.54 2.368a4 4 0 0 1-1.51 1.616c-.62.384-1.33.576-2.11.576-.75 0-1.42-.165-2-.496-.56-.33-.99-.752-1.28-1.264V54h-1.45V42.16h1.45zm5.96 2.72c0-.661-.14-1.237-.4-1.728a2.77 2.77 0 0 0-1.09-1.12 2.97 2.97 0 0 0-1.49-.384c-.53 0-1.03.133-1.49.4-.45.256-.81.635-1.09 1.136-.26.49-.4 1.061-.4 1.712 0 .661.14 1.243.4 1.744.28.49.64.87 1.09 1.136.46.256.96.384 1.49.384.54 0 1.04-.128 1.49-.384.46-.267.82-.645 1.09-1.136.26-.501.4-1.088.4-1.76m5.18-3.152V51.6q0 .64.27.912c.18.17.49.256.94.256h1.07V54h-1.31c-.81 0-1.42-.187-1.82-.56-.41-.373-.61-.987-.61-1.84v-5.168h-1.14v-1.2h1.14v-2.208h1.46v2.208h2.28v1.2zm7.87 7.712c-.82 0-1.57-.187-2.24-.56a4.1 4.1 0 0 1-1.57-1.584c-.37-.693-.56-1.493-.56-2.4 0-.896.2-1.685.58-2.368.39-.693.93-1.221 1.6-1.584.67-.373 1.42-.56 2.26-.56q1.245 0 2.25.56 1.005.544 1.59 1.568c.39.683.59 1.477.59 2.384s-.21 1.707-.61 2.4c-.4.683-.93 1.21-1.62 1.584a4.65 4.65 0 0 1-2.27.56m0-1.28q.78 0 1.47-.368a2.77 2.77 0 0 0 1.11-1.104c.29-.49.43-1.088.43-1.792q0-1.056-.42-1.792c-.27-.49-.64-.853-1.08-1.088a3 3 0 0 0-1.46-.368q-.795 0-1.47.368c-.44.235-.79.597-1.06 1.088-.27.49-.4 1.088-.4 1.792q0 1.072.39 1.808t1.05 1.104q.66.352 1.44.352m8.19-6.432V51.6q0 .64.27.912c.18.17.5.256.94.256h1.08V54h-1.32c-.81 0-1.41-.187-1.82-.56s-.61-.987-.61-1.84v-5.168h-1.13v-1.2h1.13v-2.208h1.46v2.208h2.29v1.2zm3.51 3.152q0-1.344.54-2.352c.36-.683.86-1.21 1.49-1.584a4.15 4.15 0 0 1 2.13-.56c.76 0 1.43.165 2 .496q.84.496 1.26 1.248v-1.6h1.47V54h-1.47v-1.632c-.29.512-.72.939-1.3 1.28q-.84.495-1.98.496a3.97 3.97 0 0 1-3.6-2.192q-.54-1.04-.54-2.368m7.42.016c0-.661-.13-1.237-.4-1.728a2.77 2.77 0 0 0-1.09-1.12c-.45-.267-.94-.4-1.49-.4-.54 0-1.04.128-1.48.384q-.675.385-1.08 1.12c-.26.49-.4 1.067-.4 1.728 0 .672.14 1.259.4 1.76q.405.736 1.08 1.136c.44.256.94.384 1.48.384.55 0 1.04-.128 1.49-.384.46-.267.82-.645 1.09-1.136.27-.501.4-1.083.4-1.744m5.39-7.44V54h-1.46V42.16z"/></g><defs><filter id="a" width="1196" height="98" x="0" y="0" color-interpolation-filters="sRGB" filterUnits="userSpaceOnUse"><feFlood flood-opacity="0" result="BackgroundImageFix"/><feColorMatrix in="SourceAlpha" result="hardAlpha" values="0 0 0 0 0 0 0 0 0 0 0 0 0 0 0 0 0 0 127 0"/><feOffset dy="1"/><feGaussianBlur stdDeviation="6.5"/><feComposite in2="hardAlpha" operator="out"/><feColorMatrix values="0 0 0 0 0 0 0 0 0 0 0 0 0 0 0 0 0 0 0.05 0"/><feBlend in2="BackgroundImageFix" result="effect1_dropShadow_186_4416"/><feBlend in="SourceGraphic" in2="effect1_dropShadow_186_4416" result="shape"/></filter></defs></svg>