<svg xmlns="http://www.w3.org/2000/svg" width="1170" height="324" fill="none"><rect width="299" height="55" x=".5" y=".5" stroke="#000" rx="3.5"/><path fill="#000" d="M24.688 28.416q0-1.632.736-2.928a5.35 5.35 0 0 1 2-2.048q1.28-.735 2.832-.736 1.824 0 3.184.88t1.984 2.496H33.68q-.464-1.009-1.344-1.552-.864-.544-2.08-.544-1.168 0-2.096.544a3.8 3.8 0 0 0-1.456 1.552q-.528.992-.528 2.336 0 1.328.528 2.336a3.8 3.8 0 0 0 1.456 1.536q.928.544 2.096.544 1.215 0 2.08-.528.88-.544 1.344-1.552h1.744q-.624 1.6-1.984 2.48-1.36.864-3.184.864-1.553 0-2.832-.72a5.4 5.4 0 0 1-2-2.032q-.736-1.296-.736-2.928m16.727 5.728a4.53 4.53 0 0 1-2.24-.56A4.07 4.07 0 0 1 37.607 32q-.56-1.04-.56-2.4 0-1.344.576-2.368a4 4 0 0 1 1.6-1.584q1.008-.56 2.256-.56t2.256.56q1.008.544 1.584 1.568.592 1.024.592 2.384t-.608 2.4a4.1 4.1 0 0 1-1.616 1.584q-1.024.56-2.272.56m0-1.28q.785 0 1.472-.368a2.75 2.75 0 0 0 1.104-1.104q.432-.735.432-1.792t-.416-1.792-1.088-1.088a3 3 0 0 0-1.456-.368q-.8 0-1.472.368-.656.352-1.056 1.088-.4.735-.4 1.792 0 1.072.384 1.808.4.736 1.056 1.104.657.352 1.44.352m14.187-7.632V34h-1.456v-1.296q-.417.672-1.168 1.056a3.6 3.6 0 0 1-1.632.368q-1.024 0-1.84-.416a3.2 3.2 0 0 1-1.296-1.28q-.465-.848-.464-2.064v-5.136h1.44v4.944q0 1.296.656 2 .655.688 1.792.688 1.167 0 1.84-.72.672-.72.672-2.096v-4.816zm3.914 1.616q.432-.751 1.28-1.248.864-.512 2-.512 1.169 0 2.112.56.96.56 1.504 1.584.544 1.008.544 2.352 0 1.328-.544 2.368a4 4 0 0 1-1.504 1.616 3.97 3.97 0 0 1-2.112.576q-1.12 0-1.984-.496-.847-.512-1.296-1.264v5.776H58.06V25.232h1.456zm5.952 2.736q0-.992-.4-1.728a2.75 2.75 0 0 0-1.088-1.12 2.95 2.95 0 0 0-1.488-.384 2.9 2.9 0 0 0-1.488.4q-.672.384-1.088 1.136-.4.735-.4 1.712 0 .992.4 1.744.416.736 1.088 1.136.689.384 1.488.384.816 0 1.488-.384a2.86 2.86 0 0 0 1.088-1.136q.4-.752.4-1.76m7.229 4.56a4.53 4.53 0 0 1-2.24-.56A4.07 4.07 0 0 1 68.889 32q-.56-1.04-.56-2.4 0-1.344.576-2.368a4 4 0 0 1 1.6-1.584q1.008-.56 2.256-.56t2.256.56q1.008.544 1.584 1.568.592 1.024.592 2.384t-.608 2.4a4.1 4.1 0 0 1-1.616 1.584q-1.024.56-2.272.56m0-1.28q.783 0 1.472-.368a2.75 2.75 0 0 0 1.104-1.104q.432-.735.432-1.792t-.416-1.792q-.417-.735-1.088-1.088a3 3 0 0 0-1.456-.368q-.8 0-1.472.368-.657.352-1.056 1.088-.4.735-.4 1.792 0 1.072.384 1.808.399.736 1.056 1.104.656.352 1.44.352m10.682-7.792q1.6 0 2.592.976.992.96.992 2.784V34h-1.44v-4.96q0-1.312-.656-2-.656-.704-1.792-.704-1.152 0-1.84.72-.672.72-.672 2.096V34h-1.456v-8.768h1.456v1.248a2.9 2.9 0 0 1 1.168-1.04 3.7 3.7 0 0 1 1.648-.368m9.684 3.344q0-1.632.736-2.928a5.35 5.35 0 0 1 2-2.048q1.28-.735 2.832-.736 1.824 0 3.184.88t1.984 2.496h-1.744q-.463-1.009-1.344-1.552-.865-.544-2.08-.544-1.168 0-2.096.544a3.8 3.8 0 0 0-1.456 1.552q-.528.992-.528 2.336 0 1.328.528 2.336a3.8 3.8 0 0 0 1.456 1.536q.928.544 2.096.544 1.215 0 2.08-.528.88-.544 1.344-1.552h1.744q-.624 1.6-1.984 2.48-1.36.864-3.184.864-1.552 0-2.832-.72a5.4 5.4 0 0 1-2-2.032q-.736-1.296-.736-2.928m16.727 5.728a4.54 4.54 0 0 1-2.24-.56A4.07 4.07 0 0 1 105.982 32q-.56-1.04-.56-2.4 0-1.344.576-2.368a4 4 0 0 1 1.6-1.584q1.008-.56 2.256-.56t2.256.56q1.008.544 1.584 1.568.592 1.024.592 2.384t-.608 2.4a4.1 4.1 0 0 1-1.616 1.584q-1.023.56-2.272.56m0-1.28q.785 0 1.472-.368a2.74 2.74 0 0 0 1.104-1.104q.432-.735.432-1.792t-.416-1.792-1.088-1.088a3 3 0 0 0-1.456-.368q-.8 0-1.472.368-.655.352-1.056 1.088-.4.735-.4 1.792 0 1.072.384 1.808.4.736 1.056 1.104a3 3 0 0 0 1.44.352m5.867-3.28q0-1.344.544-2.352a3.94 3.94 0 0 1 1.488-1.584 4.2 4.2 0 0 1 2.144-.56q1.023 0 1.904.48.879.465 1.344 1.232v-4.64h1.472V34h-1.472v-1.648q-.432.785-1.28 1.296-.849.495-1.984.496a4.06 4.06 0 0 1-2.128-.576 4.03 4.03 0 0 1-1.488-1.616q-.544-1.04-.544-2.368m7.424.016q0-.992-.4-1.728a2.76 2.76 0 0 0-1.088-1.12 2.85 2.85 0 0 0-1.488-.4q-.816 0-1.488.384t-1.072 1.12-.4 1.728q0 1.008.4 1.76.4.736 1.072 1.136.672.384 1.488.384t1.488-.384a2.87 2.87 0 0 0 1.088-1.136q.4-.752.4-1.744m11.932-.32q0 .415-.048.88h-7.008q.08 1.296.88 2.032.816.72 1.968.72.944 0 1.568-.432.64-.448.896-1.184h1.568a3.8 3.8 0 0 1-1.408 2.064q-1.056.784-2.624.784-1.248 0-2.24-.56A4 4 0 0 1 127.029 32q-.56-1.04-.56-2.4t.544-2.384a3.8 3.8 0 0 1 1.52-1.568q.993-.56 2.272-.56 1.248 0 2.208.544t1.472 1.504q.528.945.528 2.144m-1.504-.304q0-.833-.368-1.424a2.3 2.3 0 0 0-1.008-.912 3 3 0 0 0-1.392-.32q-1.104 0-1.888.704-.768.704-.88 1.952z" opacity=".5"/><rect width="211" height="56" x="316" fill="#DB4444" rx="4"/><path fill="#FAFAFA" d="M371.904 31.728h-4.656l-.8 2.272h-1.904l3.984-11.136h2.112L374.624 34h-1.92zm-.512-1.488-1.808-5.168-1.824 5.168zm6.788-3.76q.465-.608 1.264-1.024.8-.416 1.808-.416 1.152 0 2.096.576.96.56 1.504 1.584t.544 2.352-.544 2.384a4.1 4.1 0 0 1-1.504 1.632 3.95 3.95 0 0 1-2.096.576q-1.008 0-1.792-.4a4.1 4.1 0 0 1-1.28-1.024v5.472h-1.824V25.184h1.824zm5.36 3.072q0-.911-.384-1.568a2.44 2.44 0 0 0-.992-1.008 2.57 2.57 0 0 0-1.312-.352q-.687 0-1.312.352a2.7 2.7 0 0 0-.992 1.024q-.368.672-.368 1.584t.368 1.6q.384.672.992 1.024.624.352 1.312.352.705 0 1.312-.352.624-.367.992-1.056.384-.688.384-1.6m5.484-3.072q.464-.608 1.264-1.024t1.808-.416q1.152 0 2.096.576a3.9 3.9 0 0 1 1.504 1.584q.544 1.024.544 2.352t-.544 2.384a4.1 4.1 0 0 1-1.504 1.632 3.95 3.95 0 0 1-2.096.576q-1.008 0-1.792-.4a4.1 4.1 0 0 1-1.28-1.024v5.472H387.2V25.184h1.824zm5.36 3.072q0-.911-.384-1.568a2.44 2.44 0 0 0-.992-1.008 2.6 2.6 0 0 0-1.312-.352 2.63 2.63 0 0 0-1.312.352 2.7 2.7 0 0 0-.992 1.024q-.368.672-.368 1.584t.368 1.6q.384.672.992 1.024a2.63 2.63 0 0 0 1.312.352q.704 0 1.312-.352.624-.367.992-1.056.384-.688.384-1.6m5.484-7.392V34h-1.824V22.16zm10.331 3.024-5.408 12.96h-1.888l1.792-4.288-3.472-8.672h2.032l2.48 6.72 2.576-6.72zm4.924 3.232q0-1.632.752-2.928a5.43 5.43 0 0 1 2.064-2.016 5.76 5.76 0 0 1 2.864-.736q1.776 0 3.152.88 1.392.864 2.016 2.464h-2.192q-.432-.88-1.2-1.312t-1.776-.432q-1.104 0-1.968.496a3.5 3.5 0 0 0-1.36 1.424q-.48.928-.48 2.16t.48 2.16a3.6 3.6 0 0 0 1.36 1.44q.864.495 1.968.496 1.008 0 1.776-.432t1.2-1.312h2.192q-.624 1.6-2.016 2.464-1.376.864-3.152.864-1.568 0-2.864-.72a5.55 5.55 0 0 1-2.064-2.032q-.752-1.296-.752-2.928m16.807 5.728q-1.248 0-2.256-.56a4.15 4.15 0 0 1-1.584-1.6q-.576-1.04-.576-2.4 0-1.344.592-2.384a4.1 4.1 0 0 1 1.616-1.6q1.025-.56 2.288-.56 1.265 0 2.288.56a4.1 4.1 0 0 1 1.616 1.6q.592 1.04.592 2.384t-.608 2.384a4.25 4.25 0 0 1-1.664 1.616 4.8 4.8 0 0 1-2.304.56m0-1.584q.705 0 1.312-.336.624-.336 1.008-1.008t.384-1.632-.368-1.616a2.47 2.47 0 0 0-.976-1.008 2.67 2.67 0 0 0-1.312-.336q-.703 0-1.312.336-.591.336-.944 1.008-.351.656-.352 1.616 0 1.424.72 2.208.736.768 1.84.768m14.363-7.376V34h-1.824v-1.04q-.431.544-1.136.864a3.6 3.6 0 0 1-1.472.304q-1.04 0-1.872-.432a3.2 3.2 0 0 1-1.296-1.28q-.464-.848-.464-2.048v-5.184h1.808v4.912q0 1.184.592 1.824.593.624 1.616.624 1.025 0 1.616-.624.608-.64.608-1.824v-4.912zm4.231 1.296q.464-.608 1.264-1.024t1.808-.416q1.152 0 2.096.576a3.9 3.9 0 0 1 1.504 1.584q.544 1.024.544 2.352t-.544 2.384a4.1 4.1 0 0 1-1.504 1.632 3.95 3.95 0 0 1-2.096.576q-1.008 0-1.792-.4a4.1 4.1 0 0 1-1.28-1.024v5.472H448.7V25.184h1.824zm5.36 3.072q0-.911-.384-1.568a2.44 2.44 0 0 0-.992-1.008 2.6 2.6 0 0 0-1.312-.352 2.63 2.63 0 0 0-1.312.352 2.7 2.7 0 0 0-.992 1.024q-.368.672-.368 1.584t.368 1.6q.384.672.992 1.024a2.63 2.63 0 0 0 1.312.352q.704 0 1.312-.352.624-.367.992-1.056.384-.688.384-1.6m7.484 4.592q-1.248 0-2.256-.56a4.15 4.15 0 0 1-1.584-1.6q-.576-1.04-.576-2.4 0-1.344.592-2.384a4.1 4.1 0 0 1 1.616-1.6q1.023-.56 2.288-.56 1.263 0 2.288.56a4.1 4.1 0 0 1 1.616 1.6q.591 1.04.592 2.384 0 1.343-.608 2.384a4.26 4.26 0 0 1-1.664 1.616 4.8 4.8 0 0 1-2.304.56m0-1.584q.703 0 1.312-.336.624-.336 1.008-1.008t.384-1.632-.368-1.616a2.5 2.5 0 0 0-.976-1.008 2.7 2.7 0 0 0-1.312-.336q-.705 0-1.312.336-.593.336-.944 1.008-.352.656-.352 1.616 0 1.424.72 2.208.736.768 1.84.768m10.827-7.52q1.04 0 1.856.432.833.432 1.296 1.28t.464 2.048V34h-1.808v-4.928q0-1.184-.592-1.808-.592-.64-1.616-.64t-1.632.64q-.592.624-.592 1.808V34h-1.824v-8.816h1.824v1.008a3 3 0 0 1 1.136-.848 3.7 3.7 0 0 1 1.488-.304"/><rect width="468.5" height="322.5" x="700.75" y=".75" stroke="#000" stroke-width="1.5" rx="3.25"/><path fill="#000" d="M724.74 46.02q0-2.04.94-3.66.96-1.62 2.58-2.52a7.2 7.2 0 0 1 3.58-.92q2.22 0 3.94 1.1 1.74 1.08 2.52 3.08h-2.74q-.54-1.1-1.5-1.64t-2.22-.54q-1.38 0-2.46.62t-1.7 1.78q-.6 1.16-.6 2.7t.6 2.7q.62 1.16 1.7 1.8 1.08.62 2.46.62 1.26 0 2.22-.54t1.5-1.64h2.74q-.78 2-2.52 3.08-1.72 1.08-3.94 1.08-1.96 0-3.58-.9a6.93 6.93 0 0 1-2.58-2.54q-.94-1.62-.94-3.66m15.469 1.42q0-1.66.68-2.94.7-1.28 1.88-1.98 1.2-.72 2.64-.72 1.3 0 2.26.52.98.5 1.56 1.26v-1.6h2.3V53h-2.3v-1.64q-.58.78-1.58 1.3t-2.28.52q-1.42 0-2.6-.72-1.18-.74-1.88-2.04-.68-1.32-.68-2.98m9.02.04q0-1.14-.48-1.98-.46-.84-1.22-1.28a3.2 3.2 0 0 0-1.64-.44q-.88 0-1.64.44-.76.42-1.24 1.26-.46.82-.46 1.96t.46 2q.48.86 1.24 1.32.78.44 1.64.44a3.2 3.2 0 0 0 1.64-.44q.76-.44 1.22-1.28.48-.86.48-2m7.574-3.9q.501-.84 1.32-1.3.84-.48 1.98-.48v2.36h-.58q-1.34 0-2.04.68-.68.68-.68 2.36V53h-2.28V41.98h2.28zm8.056.26v6.1q0 .62.28.9.3.26 1 .26h1.4V53h-1.8q-1.54 0-2.36-.72t-.82-2.34v-6.1h-1.3v-1.86h1.3v-2.74h2.3v2.74h2.68v1.86zm18.957-4.74v1.86h-3.7V53h-2.28V40.96h-3.72V39.1zm7.089 14.08q-1.56 0-2.82-.7a5.2 5.2 0 0 1-1.98-2q-.72-1.3-.72-3 0-1.68.74-2.98a5.1 5.1 0 0 1 2.02-2q1.28-.7 2.86-.7t2.86.7a5.1 5.1 0 0 1 2.02 2q.74 1.3.74 2.98t-.76 2.98a5.3 5.3 0 0 1-2.08 2.02q-1.3.7-2.88.7m0-1.98q.88 0 1.64-.42.78-.42 1.26-1.26t.48-2.04-.46-2.02q-.46-.84-1.22-1.26a3.34 3.34 0 0 0-1.64-.42q-.88 0-1.64.42-.74.42-1.18 1.26-.44.82-.44 2.02 0 1.78.9 2.76.92.96 2.3.96m10.634-7.36v6.1q0 .62.28.9.3.26 1 .26h1.4V53h-1.8q-1.54 0-2.36-.72t-.82-2.34v-6.1h-1.3v-1.86h1.3v-2.74h2.3v2.74h2.68v1.86zm4.021 3.6q0-1.66.68-2.94.7-1.28 1.88-1.98 1.2-.72 2.64-.72 1.3 0 2.26.52.981.5 1.56 1.26v-1.6h2.3V53h-2.3v-1.64q-.58.78-1.58 1.3-.999.52-2.28.52-1.42 0-2.6-.72-1.18-.74-1.88-2.04-.68-1.32-.68-2.98m9.02.04q0-1.14-.48-1.98-.46-.84-1.22-1.28a3.2 3.2 0 0 0-1.64-.44 3.2 3.2 0 0 0-1.64.44q-.76.42-1.24 1.26-.46.82-.46 1.96t.46 2q.48.86 1.24 1.32.78.44 1.64.44.88 0 1.64-.44t1.22-1.28q.48-.86.48-2m7.575-9.28V53h-2.28V38.2zm-93.387 63.912q-1.104 0-1.984-.384-.864-.4-1.36-1.088a2.83 2.83 0 0 1-.512-1.616h1.552q.08.784.64 1.328.576.528 1.664.528 1.04 0 1.632-.512.608-.528.608-1.344 0-.64-.352-1.04a2.25 2.25 0 0 0-.88-.608 14 14 0 0 0-1.424-.448q-1.104-.288-1.776-.576a2.95 2.95 0 0 1-1.136-.896q-.464-.623-.464-1.664 0-.912.464-1.616t1.296-1.088q.848-.384 1.936-.384 1.568 0 2.56.784 1.008.784 1.136 2.08h-1.6q-.08-.64-.672-1.12-.592-.495-1.568-.496-.912 0-1.488.48-.576.465-.576 1.312 0 .608.336.992.352.384.848.592.512.192 1.424.448 1.104.304 1.776.608.672.288 1.152.912.48.608.48 1.664 0 .816-.432 1.536t-1.28 1.168-2 .448m13.631-8.88V102h-1.456v-1.296q-.417.672-1.168 1.056a3.6 3.6 0 0 1-1.632.368q-1.024 0-1.84-.416a3.2 3.2 0 0 1-1.296-1.28q-.464-.847-.464-2.064v-5.136h1.44v4.944q0 1.296.656 2 .655.688 1.792.688 1.168 0 1.84-.72t.672-2.096v-4.816zm3.914 1.632q.448-.785 1.312-1.28.864-.496 1.968-.496 1.184 0 2.128.56a3.96 3.96 0 0 1 1.488 1.584q.544 1.008.544 2.352 0 1.328-.544 2.368a4 4 0 0 1-1.504 1.616 3.97 3.97 0 0 1-2.112.576q-1.136 0-2-.496-.848-.496-1.28-1.264V102h-1.456V90.16h1.456zm5.952 2.72q0-.991-.4-1.728a2.75 2.75 0 0 0-1.088-1.12 2.95 2.95 0 0 0-1.488-.384q-.8 0-1.488.4-.672.384-1.088 1.136-.4.735-.4 1.712 0 .992.4 1.744.416.735 1.088 1.136.688.384 1.488.384.816 0 1.488-.384a2.87 2.87 0 0 0 1.088-1.136q.4-.752.4-1.76m5.181-3.152V99.6q0 .64.272.912.272.256.943.256h1.073V102h-1.312q-1.216 0-1.824-.56t-.608-1.84v-5.168h-1.136v-1.2h1.136v-2.208h1.456v2.208h2.288v1.2zm7.876 7.712a4.54 4.54 0 0 1-2.24-.56 4.06 4.06 0 0 1-1.568-1.584q-.56-1.04-.56-2.4 0-1.344.576-2.368a4 4 0 0 1 1.6-1.584q1.008-.56 2.256-.56t2.256.56q1.008.544 1.584 1.568.591 1.024.592 2.384 0 1.36-.608 2.4a4.1 4.1 0 0 1-1.616 1.584q-1.024.56-2.272.56m0-1.28q.783 0 1.472-.368a2.75 2.75 0 0 0 1.104-1.104q.432-.735.432-1.792t-.416-1.792-1.088-1.088a3 3 0 0 0-1.456-.368q-.8 0-1.472.368-.657.352-1.056 1.088-.4.735-.4 1.792 0 1.072.384 1.808.399.736 1.056 1.104.655.352 1.44.352m8.186-6.432V99.6q0 .64.272.912.272.256.944.256h1.072V102h-1.312q-1.216 0-1.824-.56t-.608-1.84v-5.168h-1.136v-1.2h1.136v-2.208h1.456v2.208h2.288v1.2zm3.508 3.152q0-1.344.544-2.352a3.96 3.96 0 0 1 1.488-1.584 4.14 4.14 0 0 1 2.128-.56q1.152 0 2 .496t1.264 1.248v-1.6h1.472V102h-1.472v-1.632q-.432.768-1.296 1.28-.848.496-1.984.496a3.97 3.97 0 0 1-2.112-.576 4.05 4.05 0 0 1-1.488-1.616q-.544-1.04-.544-2.368m7.424.016q0-.992-.4-1.728a2.75 2.75 0 0 0-1.088-1.12 2.85 2.85 0 0 0-1.488-.4q-.816 0-1.488.384-.672.385-1.072 1.12t-.4 1.728q0 1.008.4 1.76.4.735 1.072 1.136.672.384 1.488.384t1.488-.384a2.87 2.87 0 0 0 1.088-1.136q.4-.752.4-1.744m5.389-7.44V102h-1.456V90.16zm2.945 11.936a.96.96 0 0 1-.704-.288.96.96 0 0 1-.288-.704q0-.416.288-.704a.96.96 0 0 1 .704-.288q.4 0 .672.288a.96.96 0 0 1 .288.704.96.96 0 0 1-.288.704.9.9 0 0 1-.672.288m0-6.848a.96.96 0 0 1-.704-.288.96.96 0 0 1-.288-.704q0-.416.288-.704a.96.96 0 0 1 .704-.288q.4 0 .672.288a.96.96 0 0 1 .288.704.96.96 0 0 1-.288.704.9.9 0 0 1-.672.288m317.656 3.696c0 .512-.13 1.003-.38 1.472q-.39.689-1.14 1.152-.735.463-1.77.528v1.296h-.87v-1.296q-1.455-.128-2.37-.928c-.6-.544-.91-1.232-.92-2.064h1.55c.04.448.21.837.49 1.168.3.331.72.539 1.25.624v-4c-.71-.181-1.29-.368-1.73-.56-.43-.192-.81-.49-1.12-.896-.31-.405-.46-.95-.46-1.632q0-1.296.9-2.144c.6-.565 1.41-.88 2.41-.944v-1.328h.87v1.328q1.35.112 2.19.88.825.751.96 1.968h-1.55c-.06-.373-.22-.71-.5-1.008-.28-.31-.65-.512-1.1-.608v3.904q1.05.272 1.71.56c.45.181.82.475 1.12.88.31.405.46.955.46 1.648m-5.98-5.216c0 .523.15.923.46 1.2s.76.507 1.36.688V91.92c-.55.053-1 .235-1.33.544-.33.299-.49.72-.49 1.264m2.69 7.184c.57-.064 1.02-.272 1.34-.624.33-.352.5-.773.5-1.264q0-.784-.48-1.2c-.32-.288-.78-.517-1.36-.688zm5.42-9.152v-1.328h3.01V102h-1.47V91.76zm12.63-.192L1120.74 102h-1.47l4.51-10.288h-6.17v-1.248h7.58zm8.99.128h-5.62v3.648c.25-.341.61-.619 1.09-.832.48-.224 1-.336 1.55-.336q1.335 0 2.16.56c.56.363.95.837 1.19 1.424.24.576.37 1.19.37 1.84 0 .768-.15 1.456-.44 2.064a3.24 3.24 0 0 1-1.32 1.44c-.59.352-1.32.528-2.2.528-1.12 0-2.02-.288-2.72-.864q-1.035-.864-1.26-2.304h1.42c.14.608.44 1.083.88 1.424.45.341 1.02.512 1.7.512.84 0 1.48-.251 1.9-.752.43-.512.64-1.184.64-2.016s-.21-1.472-.64-1.92c-.42-.459-1.05-.688-1.88-.688-.57 0-1.06.139-1.49.416-.42.267-.72.635-.91 1.104h-1.38v-6.528h6.96zm2.67 4.4q0-2.752.9-4.288c.59-1.035 1.64-1.552 3.13-1.552q2.235 0 3.12 1.552.9 1.536.9 4.288 0 2.8-.9 4.352-.885 1.552-3.12 1.552c-1.49 0-2.54-.517-3.13-1.552q-.9-1.552-.9-4.352m6.61 0c0-.928-.06-1.712-.19-2.352q-.18-.975-.75-1.568c-.38-.395-.92-.592-1.64-.592s-1.28.197-1.66.592q-.555.592-.75 1.568-.18.96-.18 2.352 0 1.44.18 2.416.195.975.75 1.568c.38.395.94.592 1.66.592s1.26-.197 1.64-.592q.57-.592.75-1.568c.13-.65.19-1.456.19-2.416m-414.692 62.016q-1.104 0-1.984-.384-.864-.4-1.36-1.088a2.83 2.83 0 0 1-.512-1.616h1.552q.08.784.64 1.328.576.528 1.664.528 1.04 0 1.632-.512.608-.528.608-1.344 0-.64-.352-1.04a2.25 2.25 0 0 0-.88-.608 14 14 0 0 0-1.424-.448q-1.104-.288-1.776-.576a2.96 2.96 0 0 1-1.136-.896q-.464-.624-.464-1.664 0-.912.464-1.616a3.03 3.03 0 0 1 1.296-1.088q.848-.384 1.936-.384 1.568 0 2.56.784 1.008.784 1.136 2.08h-1.6q-.08-.64-.672-1.12-.592-.496-1.568-.496-.912 0-1.488.48-.576.464-.576 1.312 0 .608.336.992.352.384.848.592.512.192 1.424.448 1.104.304 1.776.608.672.288 1.152.912.48.608.48 1.664 0 .816-.432 1.536t-1.28 1.168-2 .448m10.207-9.04q.991 0 1.792.432a2.92 2.92 0 0 1 1.248 1.264q.464.847.464 2.064V158h-1.44v-4.96q0-1.312-.656-2-.657-.704-1.792-.704-1.152 0-1.84.72-.672.72-.672 2.096V158h-1.456v-11.84h1.456v4.32a2.87 2.87 0 0 1 1.184-1.04 3.9 3.9 0 0 1 1.712-.368m6.634-1.264a.96.96 0 0 1-.704-.288.96.96 0 0 1-.288-.704q0-.416.288-.704a.96.96 0 0 1 .704-.288q.4 0 .672.288a.96.96 0 0 1 .288.704.96.96 0 0 1-.288.704.9.9 0 0 1-.672.288m.704 1.424V158h-1.456v-8.768zm3.938 1.616q.432-.752 1.28-1.248.863-.512 2-.512 1.167 0 2.111.56.96.56 1.505 1.584.544 1.008.544 2.352 0 1.328-.544 2.368a4 4 0 0 1-1.505 1.616 3.97 3.97 0 0 1-2.111.576q-1.12 0-1.984-.496-.849-.512-1.296-1.264v5.776h-1.456v-12.928h1.456zm5.952 2.736q0-.991-.4-1.728a2.76 2.76 0 0 0-1.088-1.12 2.95 2.95 0 0 0-1.488-.384q-.801 0-1.488.4-.672.384-1.088 1.136-.4.736-.4 1.712 0 .992.4 1.744.416.736 1.088 1.136a3 3 0 0 0 1.488.384q.816 0 1.488-.384a2.87 2.87 0 0 0 1.088-1.136q.4-.752.4-1.76m4.86-2.736q.432-.752 1.28-1.248.864-.512 2-.512 1.168 0 2.112.56.96.56 1.504 1.584.544 1.008.544 2.352 0 1.328-.544 2.368a4 4 0 0 1-1.504 1.616 3.97 3.97 0 0 1-2.112.576q-1.12 0-1.984-.496-.847-.512-1.296-1.264v5.776h-1.456v-12.928h1.456zm5.952 2.736q0-.991-.4-1.728a2.75 2.75 0 0 0-1.088-1.12 2.95 2.95 0 0 0-1.488-.384q-.8 0-1.488.4-.672.384-1.088 1.136-.4.736-.4 1.712 0 .992.4 1.744.416.736 1.088 1.136.688.384 1.488.384.816 0 1.488-.384a2.86 2.86 0 0 0 1.088-1.136q.4-.752.4-1.76m4.157-5.776a.96.96 0 0 1-.704-.288.96.96 0 0 1-.288-.704q0-.416.288-.704a.96.96 0 0 1 .704-.288.9.9 0 0 1 .672.288.96.96 0 0 1 .288.704.96.96 0 0 1-.288.704.9.9 0 0 1-.672.288m.704 1.424V158h-1.456v-8.768zm6.753-.16q1.6 0 2.592.976.992.96.992 2.784V158h-1.44v-4.96q0-1.312-.656-2-.656-.704-1.792-.704-1.152 0-1.84.72-.672.72-.672 2.096V158h-1.456v-8.768h1.456v1.248a2.9 2.9 0 0 1 1.168-1.04 3.7 3.7 0 0 1 1.648-.368m9.578.016q1.137 0 1.984.496.864.497 1.28 1.248v-1.6h1.472v8.96q0 1.2-.512 2.128a3.6 3.6 0 0 1-1.472 1.472q-.943.528-2.208.528-1.728 0-2.88-.816t-1.36-2.224h1.44q.24.8.992 1.28.753.496 1.808.496 1.2 0 1.952-.752.768-.751.768-2.112v-1.84q-.432.768-1.28 1.28-.847.512-1.984.512a4.06 4.06 0 0 1-2.128-.576 4.05 4.05 0 0 1-1.488-1.616q-.543-1.04-.544-2.368 0-1.344.544-2.352a3.95 3.95 0 0 1 1.488-1.584 4.15 4.15 0 0 1 2.128-.56m3.264 4.512q0-.992-.4-1.728a2.75 2.75 0 0 0-1.088-1.12 2.85 2.85 0 0 0-1.488-.4q-.816 0-1.488.384a2.8 2.8 0 0 0-1.072 1.12q-.4.737-.4 1.728 0 1.008.4 1.76.4.736 1.072 1.136.672.384 1.488.384t1.488-.384a2.86 2.86 0 0 0 1.088-1.136q.4-.752.4-1.744m4.397 4.496a.96.96 0 0 1-.704-.288.96.96 0 0 1-.288-.704q0-.416.288-.704a.96.96 0 0 1 .704-.288q.4 0 .672.288a.96.96 0 0 1 .288.704.96.96 0 0 1-.288.704.9.9 0 0 1-.672.288m0-6.848a.96.96 0 0 1-.704-.288.96.96 0 0 1-.288-.704q0-.416.288-.704a.96.96 0 0 1 .704-.288q.4 0 .672.288a.96.96 0 0 1 .288.704.96.96 0 0 1-.288.704.9.9 0 0 1-.672.288m323.672-4.4v1.184h-4.85v3.76h3.93v1.184h-3.93V158h-1.46v-11.152zm3.21 3.808c.26-.501.62-.891 1.09-1.168q.72-.416 1.74-.416v1.504h-.38c-1.63 0-2.45.885-2.45 2.656V158h-1.46v-8.768h1.46zm12.51 2.624c0 .277-.01.571-.04.88h-7.01c.05.864.34 1.541.88 2.032.54.48 1.2.72 1.97.72.62 0 1.15-.144 1.56-.432q.645-.448.9-1.184h1.57a3.86 3.86 0 0 1-1.41 2.064c-.7.523-1.58.784-2.62.784-.84 0-1.58-.187-2.24-.56a3.9 3.9 0 0 1-1.54-1.584c-.37-.693-.56-1.493-.56-2.4q0-1.36.54-2.384c.37-.683.87-1.205 1.52-1.568q.99-.56 2.28-.56c.83 0 1.56.181 2.2.544s1.13.864 1.48 1.504c.35.629.52 1.344.52 2.144m-1.5-.304c0-.555-.12-1.029-.37-1.424a2.3 2.3 0 0 0-1.01-.912 3 3 0 0 0-1.39-.32q-1.095 0-1.89.704c-.51.469-.8 1.12-.88 1.952zm11.43.304c0 .277-.02.571-.05.88h-7.01c.05.864.35 1.541.88 2.032.54.48 1.2.72 1.97.72.63 0 1.15-.144 1.57-.432.42-.299.72-.693.89-1.184h1.57c-.24.843-.7 1.531-1.41 2.064-.7.523-1.58.784-2.62.784-.83 0-1.58-.187-2.24-.56a4 4 0 0 1-1.54-1.584c-.37-.693-.56-1.493-.56-2.4s.18-1.701.55-2.384a3.7 3.7 0 0 1 1.52-1.568c.66-.373 1.41-.56 2.27-.56.83 0 1.57.181 2.21.544q.96.544 1.47 1.504c.35.629.53 1.344.53 2.144m-1.51-.304c0-.555-.12-1.029-.37-1.424a2.3 2.3 0 0 0-1-.912c-.42-.213-.88-.32-1.4-.32-.73 0-1.36.235-1.88.704s-.81 1.12-.88 1.952zm-411.584 49.872v1.184h-3.04V214H727.6v-9.968h-3.056v-1.184zm5.616 11.296a4.54 4.54 0 0 1-2.24-.56 4.07 4.07 0 0 1-1.568-1.584q-.56-1.04-.56-2.4 0-1.344.576-2.368a4 4 0 0 1 1.6-1.584q1.008-.56 2.256-.56t2.256.56q1.008.544 1.584 1.568.592 1.024.592 2.384t-.608 2.4a4.1 4.1 0 0 1-1.616 1.584q-1.024.56-2.272.56m0-1.28q.785 0 1.472-.368a2.74 2.74 0 0 0 1.104-1.104q.432-.736.432-1.792t-.416-1.792-1.088-1.088a3 3 0 0 0-1.456-.368q-.8 0-1.472.368-.655.352-1.056 1.088-.4.736-.4 1.792 0 1.072.384 1.808.4.737 1.056 1.104.657.352 1.44.352m8.187-6.432v5.168q0 .64.272.912.272.256.944.256h1.072V214h-1.312q-1.216 0-1.824-.56t-.608-1.84v-5.168h-1.136v-1.2h1.136v-2.208h1.456v2.208h2.288v1.2zm3.508 3.152q0-1.344.544-2.352a3.94 3.94 0 0 1 1.488-1.584 4.15 4.15 0 0 1 2.128-.56q1.151 0 2 .496.847.497 1.264 1.248v-1.6h1.472V214h-1.472v-1.632q-.432.768-1.296 1.28-.849.496-1.984.496a3.97 3.97 0 0 1-2.112-.576 4.03 4.03 0 0 1-1.488-1.616q-.544-1.04-.544-2.368m7.424.016q0-.992-.4-1.728a2.76 2.76 0 0 0-1.088-1.12 2.85 2.85 0 0 0-1.488-.4q-.816 0-1.488.384a2.8 2.8 0 0 0-1.072 1.12q-.4.737-.4 1.728 0 1.008.4 1.76.4.736 1.072 1.136.672.384 1.488.384t1.488-.384a2.87 2.87 0 0 0 1.088-1.136q.4-.752.4-1.744m5.388-7.44V214h-1.456v-11.84zm2.946 11.936a.96.96 0 0 1-.704-.288.96.96 0 0 1-.288-.704q0-.416.288-.704a.96.96 0 0 1 .704-.288.9.9 0 0 1 .672.288.96.96 0 0 1 .288.704.96.96 0 0 1-.288.704.9.9 0 0 1-.672.288m0-6.848a.96.96 0 0 1-.704-.288.96.96 0 0 1-.288-.704q0-.416.288-.704a.96.96 0 0 1 .704-.288.9.9 0 0 1 .672.288.96.96 0 0 1 .288.704.96.96 0 0 1-.288.704.9.9 0 0 1-.672.288m345.265 3.696c0 .512-.13 1.003-.38 1.472q-.39.688-1.14 1.152-.735.464-1.77.528v1.296h-.87v-1.296q-1.455-.128-2.37-.928c-.6-.544-.91-1.232-.92-2.064h1.55c.04.448.21.837.49 1.168.3.331.72.539 1.25.624v-4c-.71-.181-1.29-.368-1.73-.56a2.9 2.9 0 0 1-1.12-.896c-.31-.405-.46-.949-.46-1.632q0-1.296.9-2.144c.6-.565 1.41-.88 2.41-.944v-1.328h.87v1.328q1.35.112 2.19.88.825.751.96 1.968h-1.55a1.9 1.9 0 0 0-.5-1.008c-.28-.309-.65-.512-1.1-.608v3.904q1.05.272 1.71.56c.45.181.82.475 1.12.88.31.405.46.955.46 1.648m-5.98-5.216c0 .523.15.923.46 1.2s.76.507 1.36.688v-3.696c-.55.053-1 .235-1.33.544-.33.299-.49.72-.49 1.264m2.69 7.184c.57-.064 1.02-.272 1.34-.624.33-.352.5-.773.5-1.264q0-.784-.48-1.2c-.32-.288-.78-.517-1.36-.688zm5.42-9.152v-1.328h3.01V214h-1.47v-10.24zm12.63-.192L1120.74 214h-1.47l4.51-10.288h-6.17v-1.248h7.58zm8.99.128h-5.62v3.648c.25-.341.61-.619 1.09-.832.48-.224 1-.336 1.55-.336q1.335 0 2.16.56c.56.363.95.837 1.19 1.424.24.576.37 1.189.37 1.84 0 .768-.15 1.456-.44 2.064a3.24 3.24 0 0 1-1.32 1.44c-.59.352-1.32.528-2.2.528-1.12 0-2.02-.288-2.72-.864q-1.035-.864-1.26-2.304h1.42c.14.608.44 1.083.88 1.424.45.341 1.02.512 1.7.512.84 0 1.48-.251 1.9-.752.43-.512.64-1.184.64-2.016s-.21-1.472-.64-1.92c-.42-.459-1.05-.688-1.88-.688-.57 0-1.06.139-1.49.416-.42.267-.72.635-.91 1.104h-1.38v-6.528h6.96zm2.67 4.4q0-2.752.9-4.288c.59-1.035 1.64-1.552 3.13-1.552q2.235 0 3.12 1.552.9 1.536.9 4.288 0 2.8-.9 4.352-.885 1.552-3.12 1.552c-1.49 0-2.54-.517-3.13-1.552q-.9-1.552-.9-4.352m6.61 0c0-.928-.06-1.712-.19-2.352q-.18-.976-.75-1.568c-.38-.395-.92-.592-1.64-.592s-1.28.197-1.66.592q-.555.592-.75 1.568-.18.96-.18 2.352 0 1.44.18 2.416.195.976.75 1.568c.38.395.94.592 1.66.592s1.26-.197 1.64-.592q.57-.592.75-1.568c.13-.651.19-1.456.19-2.416"/><rect width="260" height="56" x="789" y="236" fill="#DB4444" rx="4"/><path fill="#FAFAFA" d="M845.976 262.192q0 .848-.4 1.6t-1.28 1.232q-.88.464-2.256.464h-2.016V270H838.2v-11.12h3.84q1.28 0 2.16.448.896.432 1.328 1.184.448.752.448 1.68M842.04 264q1.04 0 1.552-.464.512-.48.512-1.344 0-1.824-2.064-1.824h-2.016V264zm7.5-1.536a2.8 2.8 0 0 1 1.056-1.04q.672-.384 1.584-.384v1.888h-.464q-1.073 0-1.632.544-.544.544-.544 1.888V270h-1.824v-8.816h1.824zm8.14 7.68q-1.248 0-2.256-.56a4.15 4.15 0 0 1-1.584-1.6q-.576-1.04-.576-2.4 0-1.344.592-2.384a4.1 4.1 0 0 1 1.616-1.6q1.025-.56 2.288-.56 1.265 0 2.288.56a4.1 4.1 0 0 1 1.616 1.6q.592 1.04.592 2.384t-.608 2.384a4.25 4.25 0 0 1-1.664 1.616 4.8 4.8 0 0 1-2.304.56m0-1.584q.705 0 1.312-.336.624-.336 1.008-1.008t.384-1.632-.368-1.616a2.47 2.47 0 0 0-.976-1.008 2.67 2.67 0 0 0-1.312-.336q-.703 0-1.312.336-.591.336-.944 1.008-.351.656-.352 1.616 0 1.424.72 2.208.736.768 1.84.768m5.771-2.976q0-1.36.544-2.384a4 4 0 0 1 1.536-1.6q.977-.56 2.24-.56 1.6 0 2.64.768 1.056.751 1.424 2.16h-1.968a2.1 2.1 0 0 0-.768-1.024q-.528-.368-1.328-.368-1.12 0-1.792.8-.656.784-.656 2.208t.656 2.224q.672.8 1.792.8 1.584 0 2.096-1.392h1.968q-.384 1.344-1.44 2.144-1.055.784-2.624.784-1.263 0-2.24-.56a4.1 4.1 0 0 1-1.536-1.6q-.543-1.04-.544-2.4m18.282-.208q0 .496-.064.896h-6.736q.08 1.056.784 1.696.703.64 1.728.64 1.472 0 2.08-1.232h1.968a4 4 0 0 1-1.456 2q-1.04.768-2.592.768-1.264 0-2.272-.56a4.2 4.2 0 0 1-1.568-1.6q-.56-1.04-.56-2.4t.544-2.384a3.94 3.94 0 0 1 1.552-1.6q1.008-.56 2.304-.56 1.248 0 2.224.544a3.84 3.84 0 0 1 1.52 1.536q.544.977.544 2.256m-1.904-.576q-.016-1.008-.72-1.616t-1.744-.608q-.944 0-1.616.608-.672.592-.8 1.616zm11.779.576q0 .496-.064.896h-6.736q.08 1.056.784 1.696.703.64 1.728.64 1.472 0 2.08-1.232h1.968a4 4 0 0 1-1.456 2q-1.04.768-2.592.768-1.264 0-2.272-.56a4.2 4.2 0 0 1-1.568-1.6q-.56-1.04-.56-2.4t.544-2.384a3.94 3.94 0 0 1 1.552-1.6q1.008-.56 2.304-.56 1.248 0 2.224.544a3.84 3.84 0 0 1 1.52 1.536q.544.977.544 2.256m-1.904-.576q-.016-1.008-.72-1.616t-1.744-.608q-.944 0-1.616.608-.672.592-.8 1.616zm6.899 5.344q-1.04 0-1.872-.368-.816-.384-1.296-1.024a2.6 2.6 0 0 1-.512-1.456h1.888q.048.56.528.944.496.368 1.232.368.768 0 1.184-.288.432-.304.432-.768 0-.496-.48-.736-.463-.24-1.488-.528-.992-.272-1.616-.528a2.9 2.9 0 0 1-1.088-.784q-.448-.528-.448-1.392 0-.704.416-1.28.416-.592 1.184-.928.784-.336 1.792-.336 1.504 0 2.416.768.928.751.992 2.064h-1.824a1.3 1.3 0 0 0-.48-.944q-.432-.352-1.168-.352-.72 0-1.104.272a.84.84 0 0 0-.384.72q0 .352.256.592.257.24.624.384.368.127 1.088.336.96.256 1.568.528.624.257 1.072.768.448.512.464 1.36 0 .751-.416 1.344-.416.592-1.184.928-.751.336-1.776.336m11.631-7.472v4.88q0 .497.224.72.24.208.8.208h1.12V270h-1.44q-1.231 0-1.888-.576t-.656-1.872v-4.88h-1.04v-1.488h1.04v-2.192h1.84v2.192h2.144v1.488zm7.649 7.472q-1.248 0-2.256-.56a4.15 4.15 0 0 1-1.584-1.6q-.576-1.04-.576-2.4 0-1.344.592-2.384a4.1 4.1 0 0 1 1.616-1.6q1.025-.56 2.288-.56 1.265 0 2.288.56a4.1 4.1 0 0 1 1.616 1.6q.592 1.04.592 2.384t-.608 2.384a4.25 4.25 0 0 1-1.664 1.616 4.8 4.8 0 0 1-2.304.56m0-1.584q.705 0 1.312-.336.624-.336 1.008-1.008t.384-1.632-.368-1.616a2.47 2.47 0 0 0-.976-1.008 2.67 2.67 0 0 0-1.312-.336q-.703 0-1.312.336-.591.336-.944 1.008-.351.656-.352 1.616 0 1.424.72 2.208.736.768 1.84.768m9.928-2.976q0-1.36.544-2.384a3.96 3.96 0 0 1 1.536-1.6q.975-.56 2.24-.56 1.599 0 2.64.768 1.055.751 1.424 2.16h-1.968a2.1 2.1 0 0 0-.768-1.024q-.528-.368-1.328-.368-1.12 0-1.792.8-.656.784-.656 2.208t.656 2.224q.672.8 1.792.8 1.584 0 2.096-1.392h1.968q-.384 1.344-1.44 2.144-1.056.784-2.624.784-1.265 0-2.24-.56a4.1 4.1 0 0 1-1.536-1.6q-.544-1.04-.544-2.4m14.762-4.544q1.008 0 1.792.432.8.432 1.248 1.28.464.848.464 2.048v5.2h-1.808v-4.928q0-1.184-.592-1.808-.593-.64-1.616-.64t-1.632.64q-.592.624-.592 1.808V270h-1.824v-11.84h1.824v4.048a3.1 3.1 0 0 1 1.168-.864 4 4 0 0 1 1.568-.304m13.91 4.336q0 .496-.064.896h-6.736q.08 1.056.784 1.696.703.64 1.728.64 1.472 0 2.08-1.232h1.968a4 4 0 0 1-1.456 2q-1.04.768-2.592.768-1.264 0-2.272-.56a4.2 4.2 0 0 1-1.568-1.6q-.56-1.04-.56-2.4t.544-2.384a3.94 3.94 0 0 1 1.552-1.6q1.008-.56 2.304-.56 1.248 0 2.224.544a3.84 3.84 0 0 1 1.52 1.536q.544.977.544 2.256m-1.904-.576q-.016-1.008-.72-1.616t-1.744-.608q-.944 0-1.616.608-.672.592-.8 1.616zm3.091.784q0-1.36.544-2.384a3.96 3.96 0 0 1 1.536-1.6q.976-.56 2.24-.56 1.6 0 2.64.768 1.056.751 1.424 2.16h-1.968a2.1 2.1 0 0 0-.768-1.024q-.528-.368-1.328-.368-1.12 0-1.792.8-.656.784-.656 2.208t.656 2.224q.672.8 1.792.8 1.584 0 2.096-1.392h1.968q-.384 1.344-1.44 2.144-1.056.784-2.624.784-1.264 0-2.24-.56a4.1 4.1 0 0 1-1.536-1.6q-.544-1.04-.544-2.4m13.69.016 4.064 4.4h-2.464l-3.264-3.792V270h-1.824v-11.84h1.824v6.88l3.2-3.856h2.528zm9.195 4.544q-1.248 0-2.256-.56a4.15 4.15 0 0 1-1.584-1.6q-.576-1.04-.576-2.4 0-1.344.592-2.384a4.1 4.1 0 0 1 1.616-1.6q1.025-.56 2.288-.56 1.265 0 2.288.56a4.1 4.1 0 0 1 1.616 1.6q.592 1.04.592 2.384t-.608 2.384a4.25 4.25 0 0 1-1.664 1.616 4.8 4.8 0 0 1-2.304.56m0-1.584q.705 0 1.312-.336.624-.336 1.008-1.008t.384-1.632-.368-1.616a2.47 2.47 0 0 0-.976-1.008 2.67 2.67 0 0 0-1.312-.336q-.703 0-1.312.336-.591.336-.944 1.008-.351.656-.352 1.616 0 1.424.72 2.208.736.768 1.84.768m14.363-7.376V270h-1.824v-1.04a3 3 0 0 1-1.136.864 3.6 3.6 0 0 1-1.472.304q-1.04 0-1.872-.432a3.2 3.2 0 0 1-1.296-1.28q-.464-.848-.464-2.048v-5.184h1.808v4.912q0 1.183.592 1.824.593.624 1.616.624 1.025 0 1.616-.624.608-.64.608-1.824v-4.912zm4.535 1.488v4.88q0 .497.224.72.24.208.8.208h1.12V270h-1.44q-1.232 0-1.888-.576t-.656-1.872v-4.88h-1.04v-1.488h1.04v-2.192h1.84v2.192h2.144v1.488z"/><path stroke="#000" d="M724 123.5h422m-422 56h422" opacity=".4"/></svg>