<svg xmlns="http://www.w3.org/2000/svg" width="1170" height="108" fill="none"><rect width="20" height="40" fill="#DB4444" rx="4"/><path fill="#DB4444" d="M36.56 20.4q0-1.648.736-2.944a5.3 5.3 0 0 1 2.032-2.032q1.296-.736 2.896-.736 1.872 0 3.28.96 1.409.96 1.968 2.656h-2.576q-.384-.8-1.088-1.2-.688-.4-1.6-.4-.975 0-1.744.464a3.13 3.13 0 0 0-1.184 1.28q-.416.832-.416 1.952 0 1.104.416 1.952a3.24 3.24 0 0 0 1.184 1.296q.768.448 1.744.448.912 0 1.6-.4.705-.416 1.088-1.216h2.576q-.56 1.712-1.968 2.672-1.392.944-3.28.944-1.6 0-2.896-.72a5.46 5.46 0 0 1-2.032-2.032q-.736-1.296-.736-2.944m12.25 1.136q0-1.344.527-2.384.544-1.04 1.456-1.6a3.9 3.9 0 0 1 2.064-.56q.993 0 1.728.4.753.4 1.2 1.008v-1.264h2.256V26h-2.256v-1.296q-.432.624-1.2 1.04-.751.4-1.744.4-1.12 0-2.048-.576-.912-.576-1.456-1.616-.528-1.057-.528-2.416m6.975.032q0-.816-.32-1.392a2.2 2.2 0 0 0-.864-.896 2.27 2.27 0 0 0-1.168-.32q-.624 0-1.152.304t-.864.896q-.32.576-.32 1.376t.32 1.408q.336.593.864.912.544.32 1.152.32.624 0 1.168-.304.544-.32.864-.896.32-.592.32-1.408m7.052-2.592v4.288q0 .448.208.656.225.192.736.192h1.04V26h-1.408q-2.832 0-2.832-2.752v-4.272h-1.056v-1.84h1.056v-2.192h2.256v2.192h1.984v1.84zm11.835 2.4q0 .48-.064.864h-6.48q.08.96.672 1.504t1.456.544q1.248 0 1.776-1.072h2.416a4.08 4.08 0 0 1-1.472 2.112q-1.088.816-2.672.816-1.28 0-2.304-.56a4.1 4.1 0 0 1-1.584-1.616q-.56-1.04-.56-2.4 0-1.376.56-2.416a3.9 3.9 0 0 1 1.568-1.6q1.008-.56 2.32-.56 1.264 0 2.256.544 1.008.544 1.552 1.552.56.992.56 2.288m-2.32-.64q-.016-.864-.624-1.376-.608-.528-1.488-.528-.831 0-1.408.512-.56.496-.688 1.392zm7.427-3.744q.993 0 1.744.4.752.384 1.184 1.008v-1.264h2.256v8.928q0 1.232-.496 2.192a3.6 3.6 0 0 1-1.488 1.536q-.992.576-2.4.576-1.887 0-3.104-.88-1.2-.88-1.36-2.4h2.224q.176.608.752.96.593.368 1.424.368.976 0 1.584-.592.608-.575.608-1.76v-1.376q-.432.624-1.2 1.04-.752.416-1.728.416-1.12 0-2.048-.576t-1.472-1.616q-.528-1.057-.528-2.416 0-1.344.528-2.384.544-1.04 1.456-1.6a3.9 3.9 0 0 1 2.064-.56m2.928 4.576q0-.816-.32-1.392a2.2 2.2 0 0 0-.864-.896 2.27 2.27 0 0 0-1.168-.32q-.624 0-1.152.304t-.864.896q-.32.576-.32 1.376t.32 1.408q.336.593.864.912.544.32 1.152.32.624 0 1.168-.304.544-.32.864-.896.32-.592.32-1.408m8.38 4.576q-1.28 0-2.304-.56a4.2 4.2 0 0 1-1.616-1.616q-.576-1.04-.576-2.4t.592-2.4a4.17 4.17 0 0 1 1.648-1.6q1.04-.576 2.32-.576t2.32.576a4.06 4.06 0 0 1 1.632 1.6q.608 1.04.608 2.4t-.624 2.4a4.25 4.25 0 0 1-1.664 1.616q-1.04.56-2.336.56m0-1.952q.608 0 1.136-.288a2.2 2.2 0 0 0 .864-.896q.32-.592.32-1.44 0-1.264-.672-1.936a2.15 2.15 0 0 0-1.616-.688q-.96 0-1.616.688-.64.672-.64 1.936t.624 1.952q.64.672 1.6.672m8.507-5.68q.432-.704 1.12-1.104.704-.4 1.6-.4v2.352h-.592q-1.056 0-1.6.496-.528.496-.528 1.728V26h-2.24v-8.864h2.24zm5.365-2.432q-.593 0-.992-.368a1.28 1.28 0 0 1-.384-.944q0-.56.384-.928.4-.384.992-.384t.976.384q.4.368.4.928t-.4.944q-.384.368-.976.368m1.104 1.056V26h-2.24v-8.864zm10.453 4.24q0 .48-.064.864h-6.48q.08.96.672 1.504t1.456.544q1.248 0 1.776-1.072h2.416a4.08 4.08 0 0 1-1.472 2.112q-1.088.816-2.672.816-1.28 0-2.304-.56a4.1 4.1 0 0 1-1.584-1.616q-.56-1.04-.56-2.4 0-1.376.56-2.416a3.9 3.9 0 0 1 1.568-1.6q1.008-.56 2.32-.56 1.264 0 2.256.544 1.008.544 1.552 1.552.56.992.56 2.288m-2.32-.64q-.016-.864-.624-1.376-.608-.528-1.488-.528-.832 0-1.408.512-.56.496-.688 1.392zm7.347 5.408q-1.088 0-1.952-.384-.864-.4-1.376-1.072a2.73 2.73 0 0 1-.544-1.488h2.256q.064.512.496.848.449.336 1.104.336.64 0 .992-.256.368-.256.368-.656 0-.432-.448-.64-.432-.225-1.392-.48a12 12 0 0 1-1.632-.496 2.9 2.9 0 0 1-1.088-.784q-.448-.528-.448-1.424 0-.736.416-1.344.432-.608 1.216-.96.8-.352 1.872-.352 1.584 0 2.528.8.944.784 1.04 2.128h-2.144a1.12 1.12 0 0 0-.448-.832q-.384-.32-1.04-.32-.608 0-.944.224a.72.72 0 0 0-.32.624q0 .448.448.688.449.224 1.392.464.96.24 1.584.496.624.255 1.072.8.463.528.48 1.408 0 .767-.432 1.376-.416.608-1.216.96-.784.336-1.84.336"/><path fill="#000" d="M2.582 97V70.818h10.023q2.839 0 4.717.895 1.893.882 2.826 2.416.946 1.534.946 3.477 0 1.599-.614 2.736-.614 1.125-1.649 1.829a7 7 0 0 1-2.314 1.01v.255q1.394.077 2.672.857 1.29.766 2.11 2.173.817 1.405.817 3.4 0 2.033-.984 3.657-.984 1.611-2.966 2.544-1.98.933-4.986.933zm4.743-3.963h5.101q2.583 0 3.72-.984 1.15-.997 1.15-2.557.001-1.164-.574-2.097-.576-.945-1.637-1.483-1.06-.55-2.531-.55H7.325zm0-11.084h4.692q1.227 0 2.212-.447.984-.46 1.547-1.291.575-.844.575-1.995 0-1.522-1.074-2.505-1.06-.985-3.158-.985H7.325zM27.478 97V77.364h4.487v3.272h.205q.537-1.7 1.84-2.62 1.318-.934 3.005-.934.384 0 .856.039.486.025.806.09v4.256q-.294-.101-.933-.179a9 9 0 0 0-1.215-.09q-1.266 0-2.275.55a4 4 0 0 0-1.573 1.496q-.575.96-.575 2.212V97zm23.47.383q-2.876 0-4.986-1.265-2.11-1.266-3.272-3.541-1.15-2.276-1.15-5.318 0-3.043 1.15-5.331 1.163-2.288 3.272-3.554t4.986-1.266 4.986 1.266 3.26 3.554q1.163 2.288 1.163 5.33t-1.163 5.319q-1.15 2.275-3.26 3.54-2.109 1.267-4.986 1.266m.026-3.707q1.56 0 2.608-.856 1.048-.87 1.56-2.327.523-1.458.523-3.247 0-1.803-.524-3.26-.51-1.47-1.56-2.34-1.048-.87-2.607-.869-1.599 0-2.66.87-1.047.869-1.572 2.339-.51 1.457-.511 3.26 0 1.79.511 3.247.525 1.457 1.573 2.327 1.06.856 2.659.856M69.215 97l-5.548-19.636h4.717l3.452 13.807h.179l3.528-13.807h4.667l3.528 13.73h.192l3.4-13.73h4.73L86.5 97h-4.82l-3.682-13.27h-.269L74.048 97zm43.036-14.446-4.218.46a3.4 3.4 0 0 0-.627-1.201q-.434-.564-1.176-.908-.741-.345-1.815-.345-1.445 0-2.429.626-.971.627-.959 1.624-.012.855.626 1.393.653.537 2.148.882l3.35.716q2.786.6 4.142 1.905 1.368 1.305 1.38 3.413-.012 1.854-1.086 3.273-1.062 1.406-2.953 2.199-1.893.793-4.347.793-3.605 0-5.804-1.509-2.2-1.521-2.62-4.231l4.512-.435q.307 1.329 1.304 2.007t2.595.678q1.65 0 2.647-.678 1.01-.678 1.009-1.675 0-.844-.652-1.393-.638-.55-1.994-.844l-3.349-.703q-2.826-.588-4.18-1.982-1.356-1.406-1.343-3.554-.013-1.815.984-3.144 1.01-1.343 2.8-2.072 1.803-.741 4.155-.741 3.452 0 5.433 1.47 1.995 1.47 2.467 3.976m14.372 14.83q-2.953 0-5.101-1.228-2.136-1.24-3.286-3.503-1.15-2.275-1.15-5.356 0-3.03 1.15-5.318 1.164-2.302 3.247-3.58 2.085-1.29 4.897-1.291 1.815 0 3.426.588a7.7 7.7 0 0 1 2.863 1.79q1.254 1.214 1.969 3.093.716 1.867.716 4.45v1.418h-16.095v-3.119h11.659q-.012-1.33-.575-2.365a4.2 4.2 0 0 0-1.573-1.65q-.996-.6-2.326-.6-1.419 0-2.493.69a4.76 4.76 0 0 0-1.675 1.79 5.16 5.16 0 0 0-.601 2.416v2.723q0 1.714.627 2.94.626 1.215 1.751 1.867 1.125.64 2.634.64 1.01 0 1.828-.282a4.1 4.1 0 0 0 1.419-.856q.6-.563.907-1.394l4.321.486a6.7 6.7 0 0 1-1.559 2.991q-1.138 1.266-2.915 1.97-1.778.69-4.065.69m24.66-.384V70.818h10.023q2.838 0 4.718.895 1.892.882 2.825 2.416.946 1.534.946 3.477 0 1.599-.614 2.736a5.16 5.16 0 0 1-1.649 1.829 7 7 0 0 1-2.314 1.01v.255q1.394.077 2.672.857 1.291.766 2.109 2.173.819 1.405.819 3.4 0 2.033-.985 3.657-.984 1.611-2.966 2.544t-4.986.933zm4.743-3.963h5.101q2.583 0 3.72-.984 1.15-.997 1.151-2.557a3.9 3.9 0 0 0-.575-2.097q-.575-.945-1.637-1.483-1.06-.55-2.531-.55h-5.229zm0-11.084h4.692q1.228 0 2.212-.447.984-.46 1.547-1.291.575-.844.575-1.995 0-1.522-1.074-2.505-1.06-.985-3.158-.985h-4.794zm23.03 22.411a9.3 9.3 0 0 1-1.752-.154q-.792-.14-1.266-.332l1.074-3.605q1.01.294 1.803.281a2.2 2.2 0 0 0 1.393-.499q.614-.472 1.036-1.585l.396-1.06-7.121-20.046h4.91l4.525 14.83h.205l4.538-14.83h4.922l-7.862 22.014q-.55 1.56-1.458 2.672a5.9 5.9 0 0 1-2.224 1.713q-1.304.6-3.119.601m52.29-24.712h-4.781q-.205-1.176-.754-2.084a5.6 5.6 0 0 0-1.368-1.56 5.7 5.7 0 0 0-1.867-.958 7.3 7.3 0 0 0-2.237-.333q-2.135 0-3.784 1.074-1.65 1.061-2.583 3.12-.933 2.045-.933 4.998 0 3.004.933 5.063.946 2.045 2.583 3.093 1.648 1.036 3.771 1.036 1.176 0 2.199-.307a6 6 0 0 0 1.854-.933 5.5 5.5 0 0 0 1.393-1.509 5.7 5.7 0 0 0 .793-2.045l4.781.025a10.3 10.3 0 0 1-1.163 3.503 10.3 10.3 0 0 1-2.314 2.89q-1.432 1.24-3.35 1.943-1.917.69-4.257.69-3.452 0-6.162-1.598t-4.27-4.615-1.559-7.236q0-4.23 1.572-7.236 1.572-3.017 4.283-4.615 2.71-1.598 6.136-1.598 2.187 0 4.066.614a10.4 10.4 0 0 1 3.349 1.802 9.6 9.6 0 0 1 2.416 2.89q.959 1.7 1.253 3.886m11.229 17.744q-1.866 0-3.362-.665a5.5 5.5 0 0 1-2.352-1.994q-.857-1.317-.857-3.247 0-1.662.614-2.748a4.74 4.74 0 0 1 1.675-1.74 8.5 8.5 0 0 1 2.39-.983 19.5 19.5 0 0 1 2.775-.5q1.725-.177 2.799-.319 1.074-.153 1.56-.46.498-.32.498-.984v-.077q0-1.445-.856-2.237-.857-.793-2.467-.793-1.7 0-2.698.742-.984.741-1.329 1.751l-4.321-.614q.511-1.79 1.687-2.991 1.176-1.215 2.877-1.815 1.7-.614 3.758-.614 1.42 0 2.825.332a8 8 0 0 1 2.57 1.1q1.164.754 1.866 2.058.717 1.305.716 3.26V97h-4.449v-2.697h-.153a5.6 5.6 0 0 1-1.189 1.534q-.755.703-1.905 1.137-1.137.423-2.672.422m1.202-3.4q1.394 0 2.416-.55 1.023-.563 1.573-1.483a3.8 3.8 0 0 0 .562-2.007v-2.314q-.218.18-.741.332-.512.154-1.151.269a35 35 0 0 1-1.265.204l-1.087.154a8 8 0 0 0-1.854.46q-.818.32-1.291.895-.473.562-.473 1.457 0 1.28.933 1.93.933.653 2.378.653m25.065-16.632v3.58h-11.288v-3.58zm-8.501-4.705h4.628v18.435q0 .933.281 1.432.294.485.767.664t1.048.18q.435 0 .793-.065a7 7 0 0 0 .562-.115l.78 3.618q-.37.129-1.061.281-.678.154-1.662.18-1.738.051-3.132-.525a4.9 4.9 0 0 1-2.212-1.815q-.805-1.226-.792-3.068zm22.294 24.724q-2.953 0-5.101-1.227-2.135-1.24-3.286-3.503-1.15-2.275-1.15-5.356 0-3.03 1.15-5.318 1.164-2.302 3.248-3.58 2.083-1.29 4.896-1.291 1.815 0 3.426.588a7.75 7.75 0 0 1 2.864 1.79q1.252 1.214 1.968 3.093.716 1.867.716 4.45v1.418h-16.095v-3.119h11.659q-.012-1.33-.575-2.365a4.2 4.2 0 0 0-1.572-1.65q-.998-.6-2.327-.6-1.419 0-2.493.69a4.76 4.76 0 0 0-1.675 1.79 5.16 5.16 0 0 0-.601 2.416v2.723q0 1.714.627 2.94.626 1.215 1.751 1.867 1.125.64 2.634.64 1.01 0 1.828-.282a4.1 4.1 0 0 0 1.419-.856q.6-.563.908-1.394l4.321.486a6.74 6.74 0 0 1-1.56 2.991q-1.138 1.266-2.915 1.97-1.777.69-4.065.69m22.626 7.39q-2.493 0-4.282-.678-1.79-.665-2.877-1.79t-1.508-2.493l4.167-1.01q.281.576.818 1.138.537.576 1.445.946.92.384 2.314.384 1.968 0 3.26-.959 1.291-.945 1.291-3.12v-3.72h-.23q-.358.717-1.048 1.47-.678.755-1.803 1.266-1.112.512-2.8.512-2.262 0-4.103-1.061-1.829-1.075-2.915-3.196-1.074-2.136-1.074-5.344 0-3.234 1.074-5.459 1.086-2.236 2.927-3.388 1.842-1.163 4.104-1.163 1.727 0 2.838.588 1.125.575 1.79 1.394.665.804 1.01 1.52h.256v-3.246h4.564V97.32q0 2.518-1.202 4.167t-3.286 2.468-4.73.818m.039-11.685q1.47 0 2.505-.716 1.036-.716 1.573-2.058t.537-3.222q0-1.854-.537-3.247-.525-1.394-1.56-2.16-1.023-.78-2.518-.78-1.547 0-2.583.805-1.035.805-1.559 2.212-.525 1.394-.525 3.17 0 1.803.525 3.158.536 1.343 1.572 2.097 1.048.741 2.57.741m23.927 4.296q-2.877 0-4.986-1.266t-3.273-3.541q-1.15-2.276-1.15-5.318 0-3.043 1.15-5.331 1.164-2.288 3.273-3.554t4.986-1.266q2.875 0 4.986 1.266 2.108 1.265 3.26 3.554 1.163 2.288 1.163 5.33t-1.163 5.319q-1.151 2.275-3.26 3.54-2.11 1.267-4.986 1.266m.025-3.708q1.56 0 2.608-.856 1.048-.87 1.56-2.327.524-1.458.524-3.247 0-1.803-.524-3.26-.512-1.47-1.56-2.34t-2.608-.869q-1.597 0-2.659.87-1.049.869-1.572 2.339-.512 1.457-.512 3.26 0 1.79.512 3.247.523 1.457 1.572 2.327 1.062.856 2.659.856M344.004 97V77.364h4.487v3.272h.205q.537-1.7 1.84-2.62 1.317-.934 3.005-.934.383 0 .856.039.486.025.806.09v4.256q-.294-.101-.934-.179a9 9 0 0 0-1.214-.09q-1.265 0-2.276.55a4 4 0 0 0-1.572 1.496q-.576.96-.575 2.212V97zm19.187 7.364q-.945 0-1.751-.154-.793-.14-1.266-.332l1.074-3.605q1.01.294 1.803.281a2.2 2.2 0 0 0 1.393-.499q.613-.472 1.036-1.585l.396-1.06-7.121-20.046h4.909l4.526 14.83h.204l4.539-14.83h4.922l-7.863 22.014q-.55 1.56-1.457 2.672a5.9 5.9 0 0 1-2.224 1.713q-1.304.6-3.12.601"/><circle cx="1093" cy="85" r="23" fill="#F5F5F5"/><path stroke="#000" stroke-linecap="round" stroke-linejoin="round" stroke-width="2" d="m1092 78-7 7 7 7m-7-7h16"/><circle cx="1147" cy="85" r="23" fill="#F5F5F5"/><path stroke="#000" stroke-linecap="round" stroke-linejoin="round" stroke-width="1.5" d="M1138.5 85h16.5m0 0-7-7m7 7-7 7"/></svg>