<svg xmlns="http://www.w3.org/2000/svg" width="480" height="275" fill="none"><path fill="#fff" d="M0 0h480v275H0z"/><g stroke="#000" clip-path="url(#a)"><path stroke-linecap="round" stroke-linejoin="round" stroke-width="2" d="M64.938 115.125H43.061a2.734 2.734 0 0 0-2.734 2.734v38.282a2.734 2.734 0 0 0 2.734 2.734h21.876a2.734 2.734 0 0 0 2.734-2.734v-38.282a2.734 2.734 0 0 0-2.734-2.734"/><path stroke-linecap="round" stroke-linejoin="round" stroke-width="3" d="M51.667 116h5.468"/><path stroke-linecap="round" stroke-linejoin="round" stroke-width="2.5" d="M54 153.005v.025"/><path stroke-width="2" d="M41.167 148.833h25.666"/></g><g stroke="#000" stroke-linecap="round" stroke-width="2" clip-path="url(#b)"><path stroke-linejoin="round" d="M125 123h-14a7 7 0 0 0-7 7v14a7 7 0 0 0 7 7h14a7 7 0 0 0 7-7v-14a7 7 0 0 0-7-7M111 151v7h14v-7M111 123v-7h14v7"/><path d="M114 132v11M118 137v6M122 135v8"/></g><g stroke="#000" stroke-linecap="round" stroke-linejoin="round" stroke-width="2" clip-path="url(#c)"><path d="M165.667 125.333H168a4.666 4.666 0 0 0 4.667-4.666 2.33 2.33 0 0 1 2.333-2.334h14a2.333 2.333 0 0 1 2.333 2.334 4.666 4.666 0 0 0 4.667 4.666h2.333A4.667 4.667 0 0 1 203 130v21a4.667 4.667 0 0 1-4.667 4.667h-32.666A4.667 4.667 0 0 1 161 151v-21a4.667 4.667 0 0 1 4.667-4.667"/><path d="M182 146.333a7 7 0 1 0 0-14 7 7 0 0 0 0 14"/></g><g stroke="#000" stroke-linecap="round" stroke-linejoin="round" stroke-width="2" clip-path="url(#d)"><path d="M298.333 141.333H296a4.67 4.67 0 0 0-4.667 4.667v7a4.67 4.67 0 0 0 4.667 4.667h2.333A4.667 4.667 0 0 0 303 153v-7a4.667 4.667 0 0 0-4.667-4.667M324 141.333h-2.333A4.667 4.667 0 0 0 317 146v7a4.667 4.667 0 0 0 4.667 4.667H324a4.67 4.67 0 0 0 4.667-4.667v-7a4.67 4.67 0 0 0-4.667-4.667"/><path d="M291.333 146v-7c0-4.951 1.967-9.699 5.468-13.199a18.664 18.664 0 0 1 26.398 0A18.66 18.66 0 0 1 328.667 139v7"/></g><g stroke="#000" stroke-linecap="round" stroke-linejoin="round" clip-path="url(#e)"><path stroke-width="2" d="M264.667 125h-37.334a4.666 4.666 0 0 0-4.666 4.667v18.666a4.666 4.666 0 0 0 4.666 4.667h37.334a4.666 4.666 0 0 0 4.666-4.667v-18.666a4.666 4.666 0 0 0-4.666-4.667M232 139h9.333m-4.666-4.667v9.334"/><path stroke-width="3" d="M253 136.667v.024M260 141.333v.024"/></g><g stroke="#000" stroke-linecap="round" stroke-width="2" clip-path="url(#f)"><path stroke-linejoin="round" d="M392.667 120.333h-37.334a2.334 2.334 0 0 0-2.333 2.334V146a2.333 2.333 0 0 0 2.333 2.333h37.334A2.333 2.333 0 0 0 395 146v-23.333a2.334 2.334 0 0 0-2.333-2.334M362.333 157.667h23.334M367 148.333v9.334M381 148.333v9.334"/><path d="M354 143h40"/></g><defs><clipPath id="a"><path fill="#fff" d="M26 109h56v56H26z"/></clipPath><clipPath id="b"><path fill="#fff" d="M90 109h56v56H90z"/></clipPath><clipPath id="c"><path fill="#fff" d="M154 109h56v56h-56z"/></clipPath><clipPath id="d"><path fill="#fff" d="M282 111h56v56h-56z"/></clipPath><clipPath id="e"><path fill="#fff" d="M218 111h56v56h-56z"/></clipPath><clipPath id="f"><path fill="#fff" d="M346 111h56v56h-56z"/></clipPath></defs></svg>