<svg xmlns="http://www.w3.org/2000/svg" width="252" height="36" fill="none"><path fill="#000" d="M2.876 28V1.818h9.589q2.786 0 4.615.92 1.827.908 2.735 2.468.908 1.547.908 3.49 0 1.636-.6 2.761a4.95 4.95 0 0 1-1.612 1.79 7.1 7.1 0 0 1-2.198.972v.255q1.303.064 2.544.844 1.252.767 2.07 2.186.819 1.42.819 3.452 0 2.007-.946 3.605-.933 1.585-2.89 2.518-1.955.921-4.998.921zm3.95-3.388h5.702q2.84 0 4.066-1.1 1.227-1.098 1.227-2.748 0-1.24-.626-2.275-.627-1.035-1.79-1.65-1.151-.613-2.736-.613H6.827zm0-11.467h5.293q1.33 0 2.39-.511a4.2 4.2 0 0 0 1.701-1.432q.64-.933.64-2.2 0-1.623-1.138-2.722-1.138-1.1-3.49-1.1H6.827zM27.565 28V8.364h3.823V28zm1.93-22.666a2.43 2.43 0 0 1-1.712-.665q-.704-.678-.704-1.61 0-.946.704-1.612A2.4 2.4 0 0 1 29.495.77q.997 0 1.7.677.716.665.716 1.611 0 .934-.716 1.611a2.38 2.38 0 0 1-1.7.665m12.298-3.516V28H37.97V1.818zm10.404 0V28h-3.822V1.818zM58.78 28V8.364h3.82V28zm1.93-22.666a2.43 2.43 0 0 1-1.713-.665q-.703-.678-.703-1.61 0-.946.703-1.612A2.4 2.4 0 0 1 60.71.77q.998 0 1.7.677.717.665.716 1.611 0 .934-.715 1.611a2.38 2.38 0 0 1-1.7.665M73.006 16.34V28h-3.822V8.364h3.669v3.196h.243a5.6 5.6 0 0 1 2.122-2.506q1.456-.945 3.669-.946 2.007 0 3.515.844 1.509.83 2.34 2.48.83 1.65.83 4.078V28H81.75V15.97q0-2.134-1.112-3.337-1.112-1.214-3.055-1.214-1.33 0-2.365.575-1.023.575-1.624 1.688-.588 1.1-.588 2.659m27.366 19.432q-2.34 0-4.027-.614-1.674-.614-2.736-1.623-1.06-1.01-1.585-2.212l3.286-1.355q.345.562.92 1.189.588.639 1.585 1.086 1.01.448 2.596.448 2.172 0 3.592-1.061 1.419-1.05 1.419-3.35v-3.86h-.243q-.345.626-.997 1.393-.639.766-1.764 1.33-1.125.562-2.928.562-2.327 0-4.193-1.087-1.854-1.099-2.94-3.234-1.074-2.148-1.074-5.28t1.06-5.37q1.075-2.236 2.941-3.425 1.866-1.202 4.232-1.202 1.828 0 2.953.614 1.125.6 1.751 1.406.64.806.985 1.419h.281V8.364h3.746v20.07q0 2.532-1.177 4.156-1.176 1.623-3.183 2.403-1.993.78-4.5.78m-.038-11.238q1.649 0 2.787-.767 1.15-.779 1.738-2.224.601-1.458.601-3.49 0-1.981-.588-3.49t-1.726-2.352q-1.138-.857-2.812-.857-1.726 0-2.877.895-1.15.883-1.738 2.403-.575 1.522-.575 3.401 0 1.93.588 3.388t1.738 2.275q1.163.819 2.864.819M135.548 28h-8.476V1.818h8.745q3.847 0 6.609 1.573 2.761 1.56 4.231 4.487 1.483 2.914 1.483 6.993 0 4.09-1.495 7.031-1.484 2.94-4.296 4.526Q139.537 28 135.548 28m-4.526-3.452h4.309q2.991 0 4.973-1.125 1.981-1.137 2.966-3.285.984-2.16.984-5.267 0-3.081-.984-5.229-.972-2.148-2.902-3.26t-4.794-1.112h-4.552zm31.627 3.848q-2.902 0-4.999-1.24-2.084-1.253-3.221-3.515-1.125-2.276-1.125-5.331 0-3.017 1.125-5.318 1.137-2.302 3.17-3.593 2.046-1.29 4.781-1.291 1.662 0 3.222.55a7.8 7.8 0 0 1 2.8 1.726q1.239 1.176 1.956 3.055.716 1.866.716 4.538v1.355h-15.61V16.47h11.864q0-1.51-.614-2.672a4.64 4.64 0 0 0-1.726-1.854q-1.099-.677-2.582-.677-1.61 0-2.812.792a5.3 5.3 0 0 0-1.841 2.046 5.9 5.9 0 0 0-.64 2.723v2.237q0 1.968.691 3.35.703 1.38 1.956 2.109 1.253.716 2.927.716a6.1 6.1 0 0 0 1.982-.307 4.3 4.3 0 0 0 1.547-.946q.651-.626.997-1.547l3.618.652a6.56 6.56 0 0 1-1.56 2.8q-1.112 1.188-2.8 1.853-1.674.652-3.822.652m23.272-20.032v3.068h-10.726V8.364zm-7.849-4.705h3.822v18.575q0 1.113.332 1.675.333.55.857.754.537.192 1.163.192.46 0 .806-.064.345-.063.537-.102l.69 3.158q-.333.128-.946.255-.614.14-1.534.154a6.7 6.7 0 0 1-2.813-.537 4.83 4.83 0 0 1-2.109-1.739q-.805-1.176-.805-2.953zm19.232 24.776q-1.867 0-3.375-.69-1.509-.704-2.391-2.033-.869-1.33-.869-3.26 0-1.662.639-2.736a4.7 4.7 0 0 1 1.726-1.7 9 9 0 0 1 2.429-.946 24 24 0 0 1 2.736-.486l2.863-.333q1.1-.14 1.598-.447.5-.307.499-.997v-.09q0-1.674-.946-2.595-.933-.92-2.787-.92-1.93 0-3.043.856-1.1.845-1.521 1.88l-3.592-.819q.639-1.79 1.866-2.889a7.6 7.6 0 0 1 2.851-1.61 11.1 11.1 0 0 1 3.388-.512q1.176 0 2.493.281a7.3 7.3 0 0 1 2.48.997q1.162.729 1.905 2.084.741 1.342.741 3.49V28h-3.733v-2.685h-.153q-.37.742-1.112 1.458-.742.715-1.905 1.189-1.164.473-2.787.473m.831-3.068q1.585 0 2.71-.627 1.137-.627 1.726-1.636.6-1.023.601-2.186v-2.532q-.205.206-.793.384-.575.166-1.317.294-.742.116-1.444.217-.704.09-1.176.154a9.5 9.5 0 0 0-2.033.473q-.908.331-1.457.958-.537.614-.537 1.637 0 1.419 1.048 2.148 1.048.715 2.672.715M213.525 28V8.364h3.823V28zm1.931-22.666a2.43 2.43 0 0 1-1.713-.665q-.703-.678-.703-1.61 0-.946.703-1.612a2.4 2.4 0 0 1 1.713-.677 2.36 2.36 0 0 1 1.7.677q.716.665.716 1.611 0 .934-.716 1.611a2.38 2.38 0 0 1-1.7.665m12.297-3.516V28h-3.823V1.818zm21.297 11.34-3.465.613a4.1 4.1 0 0 0-.69-1.265q-.46-.6-1.253-.985-.793-.383-1.982-.383-1.623 0-2.71.729-1.087.716-1.087 1.853 0 .985.729 1.585.729.602 2.352.985l3.12.716q2.71.625 4.04 1.93 1.329 1.305 1.329 3.388 0 1.764-1.023 3.145-1.01 1.368-2.825 2.147-1.803.78-4.18.78-3.299 0-5.382-1.406-2.085-1.419-2.557-4.027l3.694-.562q.345 1.444 1.419 2.186 1.075.728 2.8.728 1.88 0 3.004-.78 1.125-.792 1.125-1.93 0-.921-.69-1.547-.677-.626-2.084-.946l-3.324-.728q-2.748-.627-4.065-1.995-1.304-1.368-1.304-3.464 0-1.74.972-3.043.97-1.304 2.684-2.033 1.714-.741 3.925-.741 3.184 0 5.011 1.38 1.829 1.37 2.417 3.67"/></svg>