<svg xmlns="http://www.w3.org/2000/svg" width="470" height="814" fill="none"><g opacity=".4"><path fill="#000" d="M7.536 6.848v1.184H2.688v3.76h3.936v1.184H2.688V18H1.232V6.848zm2.51.96a.96.96 0 0 1-.703-.288.96.96 0 0 1-.288-.704q0-.416.287-.704a.96.96 0 0 1 .704-.288q.4 0 .673.288a.96.96 0 0 1 .288.704.96.96 0 0 1-.288.704.9.9 0 0 1-.672.288m.705 1.424V18H9.294V9.232zm3.937 1.424q.384-.751 1.088-1.168.72-.416 1.744-.416v1.504h-.384q-2.448 0-2.448 2.656V18h-1.456V9.232h1.456zm7.617 7.488q-1.008 0-1.808-.336-.8-.352-1.264-.96-.465-.623-.512-1.424h1.504q.063.656.608 1.072.56.416 1.456.416.832 0 1.312-.368t.48-.928q0-.576-.512-.848-.513-.288-1.584-.56-.975-.255-1.6-.512a3 3 0 0 1-1.056-.784q-.432-.528-.432-1.376 0-.672.4-1.232t1.136-.88q.735-.336 1.68-.336 1.455 0 2.352.736t.96 2.016H23.97a1.5 1.5 0 0 0-.56-1.104q-.496-.416-1.344-.416-.784 0-1.248.336t-.464.88q0 .432.272.72.288.271.704.448.431.16 1.184.368.944.255 1.536.512.591.24 1.008.736.432.496.448 1.296 0 .72-.4 1.296t-1.136.912q-.72.32-1.664.32m7.031-7.712V15.6q0 .64.272.912.272.256.944.256h1.072V18h-1.312q-1.216 0-1.824-.56t-.608-1.84v-5.168h-1.136v-1.2h1.136V7.024h1.456v2.208h2.288v1.2zM46.422 18h-1.456L39.11 9.12V18h-1.456V6.832h1.456l5.856 8.864V6.832h1.456zm1.938-4.416q0-1.344.544-2.352a3.95 3.95 0 0 1 1.488-1.584q.96-.56 2.128-.56 1.152 0 2 .496.847.496 1.264 1.248v-1.6h1.472V18h-1.472v-1.632q-.432.768-1.296 1.28-.849.495-1.984.496a3.97 3.97 0 0 1-2.112-.576 4.04 4.04 0 0 1-1.488-1.616q-.544-1.04-.544-2.368m7.424.016q0-.992-.4-1.728a2.75 2.75 0 0 0-1.088-1.12 2.85 2.85 0 0 0-1.488-.4q-.816 0-1.488.384t-1.072 1.12-.4 1.728q0 1.008.4 1.76a2.9 2.9 0 0 0 1.072 1.136q.672.384 1.488.384t1.488-.384a2.86 2.86 0 0 0 1.088-1.136q.4-.752.4-1.744M70.26 9.072q1.025 0 1.824.432a3 3 0 0 1 1.264 1.264q.465.848.464 2.064V18h-1.44v-4.96q0-1.312-.656-2-.64-.705-1.744-.704-1.136 0-1.808.736-.672.72-.672 2.096V18h-1.44v-4.96q0-1.312-.656-2-.64-.705-1.744-.704-1.136 0-1.808.736-.672.72-.672 2.096V18h-1.456V9.232h1.456v1.264a2.9 2.9 0 0 1 1.152-1.056 3.56 3.56 0 0 1 1.616-.368q1.104 0 1.952.496.849.495 1.264 1.456a2.88 2.88 0 0 1 1.216-1.44 3.6 3.6 0 0 1 1.888-.512M84.2 13.28q0 .415-.047.88h-7.008q.08 1.296.88 2.032.816.72 1.968.72.945 0 1.568-.432.64-.448.896-1.184h1.568a3.8 3.8 0 0 1-1.408 2.064q-1.056.784-2.624.784-1.248 0-2.24-.56A4 4 0 0 1 76.217 16q-.56-1.04-.56-2.4t.544-2.384a3.8 3.8 0 0 1 1.52-1.568q.991-.56 2.272-.56 1.248 0 2.208.544a3.7 3.7 0 0 1 1.472 1.504q.528.945.528 2.144m-1.503-.304q0-.833-.368-1.424a2.3 2.3 0 0 0-1.008-.912 3 3 0 0 0-1.392-.32q-1.105 0-1.888.704-.768.704-.88 1.952z"/><path fill="#DB4444" d="m91.083 7.28.576 1.04-2.224.928 2.24.912-.608 1.072-1.936-1.408.256 2.416h-1.2l.24-2.416-1.936 1.424-.624-1.088 2.224-.928-2.224-.896.592-1.072 1.984 1.424-.256-2.432h1.216l-.272 2.432z"/></g><rect width="470" height="50" y="32" fill="#F5F5F5" rx="4"/><path fill="#000" d="M.688 126.416q0-1.632.736-2.928a5.35 5.35 0 0 1 2-2.048q1.28-.736 2.832-.736 1.824 0 3.184.88t1.984 2.496H9.68q-.464-1.008-1.344-1.552-.864-.544-2.08-.544-1.168 0-2.096.544a3.8 3.8 0 0 0-1.456 1.552q-.528.992-.528 2.336 0 1.328.528 2.336a3.8 3.8 0 0 0 1.456 1.536q.928.544 2.096.544 1.216 0 2.08-.528.88-.544 1.344-1.552h1.744q-.624 1.6-1.984 2.48-1.36.864-3.184.864-1.553 0-2.832-.72a5.4 5.4 0 0 1-2-2.032q-.735-1.296-.736-2.928m16.727 5.728a4.54 4.54 0 0 1-2.24-.56A4.07 4.07 0 0 1 13.607 130q-.56-1.04-.56-2.4 0-1.344.576-2.368a4 4 0 0 1 1.6-1.584q1.008-.56 2.256-.56t2.256.56q1.008.544 1.584 1.568.592 1.024.592 2.384t-.608 2.4a4.1 4.1 0 0 1-1.616 1.584 4.66 4.66 0 0 1-2.272.56m0-1.28q.785 0 1.472-.368a2.75 2.75 0 0 0 1.104-1.104q.432-.736.432-1.792t-.416-1.792-1.088-1.088a3 3 0 0 0-1.456-.368q-.8 0-1.472.368-.655.352-1.056 1.088-.4.736-.4 1.792 0 1.072.384 1.808.4.737 1.056 1.104.657.352 1.44.352m16.955-7.792q1.023 0 1.824.432.8.416 1.264 1.264.465.847.464 2.064V132h-1.44v-4.96q0-1.312-.656-2-.64-.704-1.744-.704-1.136 0-1.808.736-.672.72-.672 2.096V132h-1.44v-4.96q0-1.312-.656-2-.64-.704-1.744-.704-1.136 0-1.808.736-.672.72-.672 2.096V132h-1.456v-8.768h1.456v1.264a2.9 2.9 0 0 1 1.152-1.056 3.6 3.6 0 0 1 1.616-.368q1.104 0 1.952.496t1.264 1.456a2.87 2.87 0 0 1 1.216-1.44 3.6 3.6 0 0 1 1.888-.512m7.396 1.776q.432-.752 1.28-1.248.864-.512 2-.512 1.169 0 2.112.56.96.56 1.504 1.584.544 1.008.544 2.352 0 1.328-.544 2.368a4 4 0 0 1-1.504 1.616 3.97 3.97 0 0 1-2.112.576q-1.12 0-1.984-.496-.847-.512-1.296-1.264v5.776H40.31v-12.928h1.456zm5.952 2.736q0-.991-.4-1.728a2.75 2.75 0 0 0-1.088-1.12 2.95 2.95 0 0 0-1.488-.384q-.8 0-1.488.4-.672.384-1.088 1.136-.4.736-.4 1.712 0 .992.4 1.744.416.736 1.088 1.136.689.384 1.488.384.816 0 1.488-.384a2.86 2.86 0 0 0 1.088-1.136q.4-.752.4-1.76m2.86 0q0-1.344.545-2.352a3.95 3.95 0 0 1 1.488-1.584 4.15 4.15 0 0 1 2.128-.56q1.152 0 2 .496.847.496 1.264 1.248v-1.6h1.472V132h-1.472v-1.632q-.432.768-1.296 1.28-.849.496-1.984.496a4 4 0 0 1-2.112-.576 4.04 4.04 0 0 1-1.488-1.616q-.544-1.04-.544-2.368m7.425.016q0-.992-.4-1.728a2.75 2.75 0 0 0-1.088-1.12 2.85 2.85 0 0 0-1.488-.4q-.816 0-1.488.384a2.8 2.8 0 0 0-1.072 1.12q-.4.736-.4 1.728 0 1.008.4 1.76a2.9 2.9 0 0 0 1.072 1.136q.672.384 1.488.384t1.488-.384a2.86 2.86 0 0 0 1.088-1.136q.4-.752.4-1.744m8.204-4.528q1.6 0 2.592.976.992.96.992 2.784V132h-1.44v-4.96q0-1.312-.656-2-.655-.704-1.792-.704-1.152 0-1.84.72-.672.72-.672 2.096V132h-1.456v-8.768h1.456v1.248a2.9 2.9 0 0 1 1.168-1.04 3.7 3.7 0 0 1 1.648-.368m13.515.16-5.28 12.896h-1.504l1.727-4.224-3.536-8.672h1.617l2.752 7.104 2.72-7.104zM94.219 132h-1.456l-5.856-8.88V132H85.45v-11.168h1.456l5.856 8.864v-8.864h1.456zm1.938-4.416q0-1.344.544-2.352a3.95 3.95 0 0 1 1.488-1.584 4.15 4.15 0 0 1 2.128-.56q1.151 0 2 .496.847.496 1.264 1.248v-1.6h1.472V132h-1.472v-1.632q-.432.768-1.296 1.28-.849.496-1.984.496a4 4 0 0 1-2.112-.576 4.04 4.04 0 0 1-1.488-1.616q-.544-1.04-.544-2.368m7.424.016q0-.992-.4-1.728a2.76 2.76 0 0 0-1.088-1.12 2.85 2.85 0 0 0-1.488-.4q-.816 0-1.488.384a2.8 2.8 0 0 0-1.072 1.12q-.4.736-.4 1.728 0 1.008.4 1.76a2.9 2.9 0 0 0 1.072 1.136q.672.384 1.488.384t1.488-.384a2.87 2.87 0 0 0 1.088-1.136q.4-.752.4-1.744m14.476-4.528q1.025 0 1.824.432.8.416 1.264 1.264.465.847.464 2.064V132h-1.44v-4.96q0-1.312-.656-2-.64-.704-1.744-.704-1.136 0-1.808.736-.672.72-.672 2.096V132h-1.44v-4.96q0-1.312-.656-2-.64-.704-1.744-.704-1.136 0-1.808.736-.672.72-.672 2.096V132h-1.456v-8.768h1.456v1.264a2.9 2.9 0 0 1 1.152-1.056 3.6 3.6 0 0 1 1.616-.368q1.104 0 1.952.496.849.496 1.264 1.456a2.88 2.88 0 0 1 1.216-1.44 3.6 3.6 0 0 1 1.888-.512m13.941 4.208q0 .416-.048.88h-7.008q.08 1.296.88 2.032.816.72 1.968.72.944 0 1.568-.432.64-.448.896-1.184h1.568a3.8 3.8 0 0 1-1.408 2.064q-1.056.784-2.624.784-1.248 0-2.24-.56a4 4 0 0 1-1.536-1.584q-.56-1.04-.56-2.4t.544-2.384a3.8 3.8 0 0 1 1.52-1.568q.991-.56 2.272-.56 1.248 0 2.208.544t1.472 1.504q.528.944.528 2.144m-1.504-.304q0-.832-.368-1.424a2.33 2.33 0 0 0-1.008-.912 3 3 0 0 0-1.392-.32q-1.105 0-1.888.704-.769.704-.88 1.952z" opacity=".4"/><rect width="470" height="50" y="146" fill="#F5F5F5" rx="4"/><g opacity=".4"><path fill="#000" d="M4.768 246.112q-1.104 0-1.984-.384-.864-.4-1.36-1.088a2.83 2.83 0 0 1-.512-1.616h1.552q.08.784.64 1.328.576.528 1.664.528 1.04 0 1.632-.512.608-.528.608-1.344 0-.64-.352-1.04a2.25 2.25 0 0 0-.88-.608 14 14 0 0 0-1.424-.448q-1.104-.288-1.776-.576a2.95 2.95 0 0 1-1.136-.896q-.464-.624-.464-1.664 0-.912.464-1.616t1.296-1.088q.847-.384 1.936-.384 1.568 0 2.56.784 1.007.784 1.136 2.08h-1.6q-.08-.64-.672-1.12-.592-.496-1.568-.496-.912 0-1.488.48-.576.464-.576 1.312 0 .608.336.992.352.384.848.592.512.192 1.424.448 1.104.304 1.776.608.672.288 1.152.912.48.608.48 1.664 0 .816-.432 1.536t-1.28 1.168-2 .448m7.63-7.68v5.168q0 .64.273.912.272.256.944.256h1.072V246h-1.312q-1.217 0-1.824-.56-.608-.56-.608-1.84v-5.168H9.807v-1.2h1.136v-2.208h1.456v2.208h2.288v1.2zm5.509.224a2.8 2.8 0 0 1 1.088-1.168q.72-.416 1.744-.416v1.504h-.384q-2.448 0-2.448 2.656V246H16.45v-8.768h1.456zm12.513 2.624q0 .416-.049.88h-7.007q.08 1.296.88 2.032.816.72 1.968.72.943 0 1.567-.432.64-.448.896-1.184h1.569a3.8 3.8 0 0 1-1.408 2.064q-1.057.784-2.624.784-1.249 0-2.24-.56A4 4 0 0 1 22.435 244q-.56-1.04-.56-2.4t.544-2.384a3.8 3.8 0 0 1 1.52-1.568q.993-.56 2.273-.56 1.248 0 2.207.544.96.544 1.473 1.504.528.944.527 2.144m-1.505-.304q0-.832-.367-1.424a2.3 2.3 0 0 0-1.008-.912 3 3 0 0 0-1.392-.32q-1.104 0-1.889.704-.768.704-.88 1.952zm11.426.304q0 .416-.048.88h-7.008q.08 1.296.88 2.032.816.72 1.968.72.944 0 1.568-.432.64-.448.896-1.184h1.568a3.8 3.8 0 0 1-1.408 2.064q-1.056.784-2.624.784-1.247 0-2.24-.56A4 4 0 0 1 32.357 244q-.56-1.04-.56-2.4t.544-2.384a3.8 3.8 0 0 1 1.52-1.568q.993-.56 2.272-.56 1.248 0 2.208.544t1.472 1.504q.528.944.528 2.144m-1.504-.304q0-.832-.368-1.424a2.3 2.3 0 0 0-1.008-.912 3 3 0 0 0-1.392-.32q-1.104 0-1.888.704-.768.704-.88 1.952zm5.202-2.544v5.168q0 .64.272.912.273.256.944.256h1.072V246h-1.312q-1.215 0-1.824-.56-.608-.56-.608-1.84v-5.168h-1.136v-1.2h1.136v-2.208h1.456v2.208h2.288v1.2zm14.91 5.088h-4.864l-.896 2.48h-1.536l4.032-11.088h1.68L61.381 246h-1.536zm-.416-1.184-2.016-5.632-2.016 5.632zm4.061-.752q0-1.344.544-2.352a3.95 3.95 0 0 1 1.488-1.584 4.2 4.2 0 0 1 2.144-.56q1.025 0 1.904.48.88.464 1.344 1.232v-4.64h1.472V246h-1.472v-1.648q-.431.785-1.28 1.296-.847.496-1.984.496a4.06 4.06 0 0 1-2.128-.576 4.04 4.04 0 0 1-1.488-1.616q-.543-1.04-.544-2.368m7.424.016q0-.992-.4-1.728a2.75 2.75 0 0 0-1.088-1.12 2.85 2.85 0 0 0-1.488-.4q-.816 0-1.488.384a2.8 2.8 0 0 0-1.072 1.12q-.4.737-.4 1.728 0 1.008.4 1.76a2.9 2.9 0 0 0 1.072 1.136q.672.384 1.488.384t1.488-.384a2.86 2.86 0 0 0 1.088-1.136q.4-.752.4-1.744m3.389-.016q0-1.344.544-2.352a3.95 3.95 0 0 1 1.488-1.584 4.2 4.2 0 0 1 2.144-.56q1.023 0 1.904.48.879.464 1.344 1.232v-4.64h1.472V246H80.83v-1.648q-.432.785-1.28 1.296-.849.496-1.984.496a4.06 4.06 0 0 1-2.128-.576 4.04 4.04 0 0 1-1.488-1.616q-.544-1.04-.544-2.368m7.424.016q0-.992-.4-1.728a2.75 2.75 0 0 0-1.088-1.12 2.85 2.85 0 0 0-1.488-.4q-.816 0-1.488.384a2.8 2.8 0 0 0-1.072 1.12q-.4.737-.4 1.728 0 1.008.4 1.76a2.9 2.9 0 0 0 1.072 1.136q.672.384 1.488.384t1.488-.384a2.86 2.86 0 0 0 1.088-1.136q.4-.752.4-1.744m5.388-2.944a2.8 2.8 0 0 1 1.088-1.168q.72-.416 1.744-.416v1.504h-.384q-2.448 0-2.448 2.656V246h-1.456v-8.768h1.456zm12.513 2.624q0 .416-.048.88h-7.008q.08 1.296.88 2.032.816.72 1.968.72.945 0 1.568-.432.64-.448.896-1.184h1.568a3.8 3.8 0 0 1-1.408 2.064q-1.056.784-2.624.784-1.248 0-2.24-.56A4 4 0 0 1 90.748 244q-.56-1.04-.56-2.4t.544-2.384a3.8 3.8 0 0 1 1.52-1.568q.992-.56 2.272-.56 1.248 0 2.208.544t1.472 1.504q.528.944.528 2.144m-1.504-.304q0-.832-.368-1.424a2.3 2.3 0 0 0-1.008-.912 3 3 0 0 0-1.392-.32q-1.104 0-1.888.704-.768.704-.88 1.952zm6.53 5.168q-1.008 0-1.808-.336-.8-.352-1.264-.96a2.6 2.6 0 0 1-.512-1.424h1.504q.064.656.608 1.072.56.416 1.456.416.832 0 1.312-.368t.48-.928q0-.576-.512-.848-.511-.288-1.584-.56a13 13 0 0 1-1.6-.512 3 3 0 0 1-1.056-.784q-.432-.528-.432-1.376 0-.672.4-1.232t1.136-.88q.736-.336 1.68-.336 1.456 0 2.352.736t.96 2.016h-1.456a1.5 1.5 0 0 0-.56-1.104q-.496-.416-1.344-.416-.784 0-1.248.336t-.464.88q0 .432.272.72.288.272.704.448.432.16 1.184.368.944.256 1.536.512.592.24 1.008.736.432.497.448 1.296 0 .72-.4 1.296t-1.136.912q-.72.32-1.664.32m8.359 0q-1.008 0-1.808-.336-.8-.352-1.264-.96a2.6 2.6 0 0 1-.512-1.424h1.504q.065.656.608 1.072.56.416 1.456.416.832 0 1.312-.368t.48-.928a.9.9 0 0 0-.512-.848q-.511-.288-1.584-.56a13 13 0 0 1-1.6-.512 3 3 0 0 1-1.056-.784q-.432-.528-.432-1.376 0-.672.4-1.232t1.136-.88q.737-.336 1.68-.336 1.456 0 2.352.736.897.736.96 2.016h-1.456q-.047-.689-.56-1.104-.495-.416-1.344-.416-.783 0-1.248.336t-.464.88q0 .432.272.72.288.272.704.448.432.16 1.184.368.945.256 1.536.512.593.24 1.008.736.433.497.448 1.296 0 .72-.4 1.296t-1.136.912q-.72.32-1.664.32"/><path fill="#DB4444" d="m122.333 235.28.576 1.04-2.224.928 2.24.912-.608 1.072-1.936-1.408.256 2.416h-1.2l.24-2.416-1.936 1.424-.624-1.088 2.224-.928-2.224-.896.592-1.072 1.984 1.424-.256-2.432h1.216l-.272 2.432z"/></g><rect width="470" height="50" y="260" fill="#F5F5F5" rx="4"/><path fill="#000" d="M7.824 357.52H2.96L2.064 360H.528l4.032-11.088h1.68L10.256 360H8.72zm-.416-1.184-2.016-5.632-2.016 5.632zm6.061-3.488q.432-.751 1.28-1.248.864-.512 2-.512 1.168 0 2.112.56.96.56 1.504 1.584.544 1.008.544 2.352 0 1.328-.544 2.368a4 4 0 0 1-1.504 1.616 3.97 3.97 0 0 1-2.112.576q-1.12 0-1.984-.496-.847-.512-1.296-1.264v5.776h-1.456v-12.928h1.456zm5.952 2.736q0-.992-.4-1.728a2.75 2.75 0 0 0-1.088-1.12 2.95 2.95 0 0 0-1.488-.384q-.8 0-1.488.4-.671.384-1.088 1.136-.4.736-.4 1.712 0 .992.4 1.744.417.736 1.088 1.136.688.384 1.488.384.816 0 1.488-.384a2.86 2.86 0 0 0 1.088-1.136q.4-.752.4-1.76m2.86 0q0-1.344.545-2.352a3.95 3.95 0 0 1 1.488-1.584 4.15 4.15 0 0 1 2.128-.56q1.152 0 2 .496.847.497 1.264 1.248v-1.6h1.472V360h-1.472v-1.632q-.432.768-1.296 1.28-.849.496-1.984.496a3.97 3.97 0 0 1-2.112-.576 4.04 4.04 0 0 1-1.488-1.616q-.544-1.04-.544-2.368m7.425.016q0-.992-.4-1.728a2.75 2.75 0 0 0-1.088-1.12 2.85 2.85 0 0 0-1.488-.4q-.816 0-1.488.384a2.8 2.8 0 0 0-1.072 1.12q-.4.736-.4 1.728 0 1.008.4 1.76a2.9 2.9 0 0 0 1.072 1.136q.672.384 1.488.384t1.488-.384a2.86 2.86 0 0 0 1.088-1.136q.4-.752.4-1.744m5.388-2.944a2.8 2.8 0 0 1 1.088-1.168q.72-.416 1.744-.416v1.504h-.384q-2.448 0-2.448 2.656V360h-1.456v-8.768h1.456zm6.289-.224v5.168q0 .64.272.912.272.256.944.256h1.072V360H42.36q-1.216 0-1.824-.56t-.608-1.84v-5.168h-1.136v-1.2h1.136v-2.208h1.456v2.208h2.288v1.2zm14.596-1.36q1.024 0 1.824.432.8.416 1.264 1.264.464.847.464 2.064V360h-1.44v-4.96q0-1.312-.656-2-.64-.704-1.744-.704-1.136 0-1.808.736-.672.72-.672 2.096V360h-1.44v-4.96q0-1.312-.656-2-.64-.704-1.744-.704-1.136 0-1.808.736-.672.72-.672 2.096V360h-1.456v-8.768h1.456v1.264a2.9 2.9 0 0 1 1.152-1.056 3.6 3.6 0 0 1 1.616-.368q1.104 0 1.952.496.849.496 1.264 1.456a2.87 2.87 0 0 1 1.216-1.44 3.6 3.6 0 0 1 1.888-.512m13.94 4.208q0 .416-.047.88h-7.008q.08 1.296.88 2.032.815.72 1.968.72.943 0 1.567-.432.64-.448.897-1.184h1.567a3.8 3.8 0 0 1-1.407 2.064q-1.057.784-2.624.784-1.25 0-2.24-.56A4 4 0 0 1 61.935 358q-.56-1.04-.56-2.4t.544-2.384a3.8 3.8 0 0 1 1.52-1.568q.993-.56 2.273-.56 1.247 0 2.207.544t1.472 1.504q.528.944.528 2.144m-1.504-.304q0-.832-.368-1.424a2.3 2.3 0 0 0-1.007-.912 3 3 0 0 0-1.393-.32q-1.104 0-1.888.704-.767.704-.88 1.952zm7.698-3.904q1.6 0 2.592.976.993.96.992 2.784V360h-1.44v-4.96q0-1.312-.656-2-.655-.704-1.792-.704-1.152 0-1.84.72-.672.72-.672 2.096V360h-1.456v-8.768h1.456v1.248a2.9 2.9 0 0 1 1.168-1.04 3.7 3.7 0 0 1 1.648-.368m7.739 1.36v5.168q0 .64.272.912.272.256.944.256h1.072V360h-1.312q-1.216 0-1.824-.56t-.608-1.84v-5.168H81.26v-1.2h1.136v-2.208h1.456v2.208h2.288v1.2zm5.556 5.552-1.792 4.304h-.976l1.168-4.304zm9.501-5.552h-1.84V360h-1.456v-7.568h-1.136v-1.2h1.136v-.624q0-1.472.752-2.144.768-.688 2.448-.688v1.216q-.96 0-1.36.384-.384.368-.384 1.232v.624h1.84zm3.154-4.272V360h-1.456v-11.84zm6.306 11.984a4.54 4.54 0 0 1-2.24-.56 4.06 4.06 0 0 1-1.568-1.584q-.56-1.04-.56-2.4 0-1.344.576-2.368a4 4 0 0 1 1.6-1.584q1.008-.56 2.256-.56t2.256.56q1.008.544 1.584 1.568.591 1.024.592 2.384 0 1.36-.608 2.4a4.1 4.1 0 0 1-1.616 1.584q-1.024.56-2.272.56m0-1.28q.783 0 1.472-.368a2.75 2.75 0 0 0 1.104-1.104q.432-.736.432-1.792t-.416-1.792q-.417-.736-1.088-1.088a3 3 0 0 0-1.456-.368q-.8 0-1.472.368-.657.352-1.056 1.088-.4.736-.4 1.792 0 1.072.384 1.808.399.736 1.056 1.104.656.352 1.44.352m10.234 1.28a4.54 4.54 0 0 1-2.24-.56 4.07 4.07 0 0 1-1.568-1.584q-.56-1.04-.56-2.4 0-1.344.576-2.368a4 4 0 0 1 1.6-1.584q1.008-.56 2.256-.56t2.256.56q1.008.544 1.584 1.568.592 1.024.592 2.384t-.608 2.4a4.1 4.1 0 0 1-1.616 1.584q-1.024.56-2.272.56m0-1.28q.784 0 1.472-.368a2.74 2.74 0 0 0 1.104-1.104q.432-.736.432-1.792t-.416-1.792-1.088-1.088a3 3 0 0 0-1.456-.368q-.8 0-1.472.368-.655.352-1.056 1.088-.4.736-.4 1.792 0 1.072.384 1.808.4.736 1.056 1.104.655.352 1.44.352m7.866-6.208a2.8 2.8 0 0 1 1.088-1.168q.72-.416 1.744-.416v1.504h-.384q-2.448 0-2.448 2.656V360h-1.456v-8.768h1.456zm6.017 5.328-1.792 4.304h-.976l1.168-4.304zm13.934-2.704q0 .416-.048.88h-7.008q.08 1.296.88 2.032.816.72 1.968.72.944 0 1.568-.432.64-.448.896-1.184h1.568a3.8 3.8 0 0 1-1.408 2.064q-1.056.784-2.624.784-1.248 0-2.24-.56a4 4 0 0 1-1.536-1.584q-.56-1.04-.56-2.4t.544-2.384a3.8 3.8 0 0 1 1.52-1.568q.991-.56 2.272-.56 1.248 0 2.208.544t1.472 1.504q.528.944.528 2.144m-1.504-.304q0-.832-.368-1.424a2.33 2.33 0 0 0-1.008-.912 3 3 0 0 0-1.392-.32q-1.105 0-1.888.704-.769.704-.88 1.952zm5.201-2.544v5.168q0 .64.272.912.273.256.944.256h1.072V360h-1.312q-1.215 0-1.824-.56-.608-.56-.608-1.84v-5.168h-1.136v-1.2h1.136v-2.208h1.456v2.208h2.288v1.2zm3.509 3.168q0-1.36.544-2.368a3.9 3.9 0 0 1 1.504-1.584q.975-.56 2.224-.56 1.615 0 2.656.784 1.056.784 1.392 2.176h-1.568a2.24 2.24 0 0 0-.88-1.264q-.64-.464-1.6-.464-1.248 0-2.016.864-.768.848-.768 2.416 0 1.584.768 2.448t2.016.864q.96 0 1.6-.448t.88-1.28h1.568q-.352 1.344-1.408 2.16-1.056.8-2.64.8-1.249 0-2.224-.56A3.9 3.9 0 0 1 154.17 358q-.544-1.024-.544-2.4m10.726 4.496a.96.96 0 0 1-.704-.288.96.96 0 0 1-.288-.704q0-.416.288-.704a.96.96 0 0 1 .704-.288q.4 0 .672.288a.96.96 0 0 1 .288.704.96.96 0 0 1-.288.704.9.9 0 0 1-.672.288m10.905 2.88q-1.536-1.504-2.4-3.824-.848-2.32-.848-5.008 0-2.752.896-5.136.912-2.4 2.592-3.952h1.52v.144a10.8 10.8 0 0 0-2.704 4.048 13.7 13.7 0 0 0-.896 4.896q0 2.48.848 4.736a11.5 11.5 0 0 0 2.512 3.952v.144zm7.346-2.832a4.54 4.54 0 0 1-2.24-.56 4.07 4.07 0 0 1-1.568-1.584q-.56-1.04-.56-2.4 0-1.344.576-2.368a4 4 0 0 1 1.6-1.584q1.008-.56 2.256-.56t2.256.56q1.008.544 1.584 1.568.592 1.024.592 2.384t-.608 2.4a4.1 4.1 0 0 1-1.616 1.584q-1.024.56-2.272.56m0-1.28q.784 0 1.472-.368a2.74 2.74 0 0 0 1.104-1.104q.432-.736.432-1.792t-.416-1.792-1.088-1.088a3 3 0 0 0-1.456-.368q-.8 0-1.472.368-.655.352-1.056 1.088-.4.736-.4 1.792 0 1.072.384 1.808.4.736 1.056 1.104.656.352 1.44.352m7.866-6.016q.432-.751 1.28-1.248.864-.512 2-.512 1.168 0 2.112.56.96.56 1.504 1.584.544 1.008.544 2.352 0 1.328-.544 2.368a4 4 0 0 1-1.504 1.616 3.97 3.97 0 0 1-2.112.576q-1.12 0-1.984-.496-.848-.512-1.296-1.264v5.776h-1.456v-12.928h1.456zm5.952 2.736q0-.992-.4-1.728a2.75 2.75 0 0 0-1.088-1.12 2.95 2.95 0 0 0-1.488-.384q-.8 0-1.488.4-.672.384-1.088 1.136-.4.736-.4 1.712 0 .992.4 1.744.416.736 1.088 1.136.689.384 1.488.384.816 0 1.488-.384a2.86 2.86 0 0 0 1.088-1.136q.4-.752.4-1.76m5.181-3.152v5.168q0 .64.272.912.272.256.944.256h1.072V360h-1.312q-1.217 0-1.824-.56-.608-.56-.608-1.84v-5.168h-1.136v-1.2h1.136v-2.208h1.456v2.208h2.288v1.2zm4.804-2.624a.96.96 0 0 1-.704-.288.96.96 0 0 1-.288-.704q0-.416.288-.704a.96.96 0 0 1 .704-.288q.4 0 .672.288a.96.96 0 0 1 .288.704.96.96 0 0 1-.288.704.9.9 0 0 1-.672.288m.704 1.424V360h-1.456v-8.768zm6.305 8.912a4.54 4.54 0 0 1-2.24-.56 4.07 4.07 0 0 1-1.568-1.584q-.56-1.04-.56-2.4 0-1.344.576-2.368a4 4 0 0 1 1.6-1.584q1.008-.56 2.256-.56t2.256.56q1.008.544 1.584 1.568.592 1.024.592 2.384t-.608 2.4a4.1 4.1 0 0 1-1.616 1.584q-1.024.56-2.272.56m0-1.28q.785 0 1.472-.368a2.74 2.74 0 0 0 1.104-1.104q.432-.736.432-1.792t-.416-1.792-1.088-1.088a3 3 0 0 0-1.456-.368q-.8 0-1.472.368-.655.352-1.056 1.088-.4.736-.4 1.792 0 1.072.384 1.808.4.736 1.056 1.104.657.352 1.44.352m10.683-7.792q1.599 0 2.592.976.992.96.992 2.784V360h-1.44v-4.96q0-1.312-.656-2-.657-.704-1.792-.704-1.153 0-1.84.72-.672.72-.672 2.096V360h-1.456v-8.768h1.456v1.248a2.9 2.9 0 0 1 1.168-1.04 3.7 3.7 0 0 1 1.648-.368m5.418 4.512q0-1.344.544-2.352a3.95 3.95 0 0 1 1.488-1.584 4.15 4.15 0 0 1 2.128-.56q1.152 0 2 .496.848.497 1.264 1.248v-1.6h1.472V360h-1.472v-1.632q-.432.768-1.296 1.28-.848.496-1.984.496a3.97 3.97 0 0 1-2.112-.576 4.05 4.05 0 0 1-1.488-1.616q-.544-1.04-.544-2.368m7.424.016q0-.992-.4-1.728a2.75 2.75 0 0 0-1.088-1.12 2.85 2.85 0 0 0-1.488-.4q-.816 0-1.488.384a2.8 2.8 0 0 0-1.072 1.12q-.4.736-.4 1.728 0 1.008.4 1.76.4.736 1.072 1.136.672.384 1.488.384t1.488-.384a2.86 2.86 0 0 0 1.088-1.136q.4-.752.4-1.744m5.389-7.44V360h-1.456v-11.84zm2.017 14.816v-.144a11.3 11.3 0 0 0 2.496-3.952 13.1 13.1 0 0 0 .864-4.736q0-2.544-.912-4.896a10.6 10.6 0 0 0-2.688-4.048v-.144h1.52q1.68 1.552 2.576 3.952.912 2.383.912 5.136 0 2.688-.864 5.008-.848 2.32-2.384 3.824z" opacity=".4"/><rect width="470" height="50" y="374" fill="#F5F5F5" rx="4"/><g opacity=".4"><path fill="#000" d="M8.096 462.848v1.184h-3.04V474H3.6v-9.968H.544v-1.184zm5.616 11.296a4.54 4.54 0 0 1-2.24-.56A4.07 4.07 0 0 1 9.904 472q-.56-1.04-.56-2.4 0-1.344.576-2.368a4 4 0 0 1 1.6-1.584q1.008-.56 2.256-.56t2.256.56q1.008.544 1.584 1.568.592 1.024.592 2.384T17.6 472a4.1 4.1 0 0 1-1.616 1.584 4.66 4.66 0 0 1-2.272.56m0-1.28q.785 0 1.472-.368a2.75 2.75 0 0 0 1.104-1.104q.432-.736.432-1.792t-.416-1.792-1.088-1.088a3 3 0 0 0-1.456-.368q-.8 0-1.472.368-.656.352-1.056 1.088t-.4 1.792q0 1.072.384 1.808.4.736 1.056 1.104.657.352 1.44.352m18.09-7.632L29.068 474h-1.504l-2.112-6.96L23.34 474h-1.504l-2.752-8.768h1.488l2.016 7.36 2.176-7.36h1.488l2.128 7.376 1.984-7.376zm5.718-.16q1.599 0 2.592.976.992.96.992 2.784V474h-1.44v-4.96q0-1.312-.656-2-.657-.704-1.792-.704-1.152 0-1.84.72-.672.72-.672 2.096V474h-1.456v-8.768h1.456v1.248a2.9 2.9 0 0 1 1.168-1.04 3.7 3.7 0 0 1 1.648-.368m11.402-6.144-4.384 17.792h-1.44l4.368-17.792zm1.625 9.488q0-1.632.736-2.928a5.35 5.35 0 0 1 2-2.048q1.281-.736 2.832-.736 1.825 0 3.184.88t1.984 2.496H59.54q-.463-1.008-1.344-1.552-.864-.544-2.08-.544-1.167 0-2.096.544a3.8 3.8 0 0 0-1.456 1.552q-.528.992-.528 2.336 0 1.328.528 2.336a3.8 3.8 0 0 0 1.456 1.536q.929.544 2.096.544 1.216 0 2.08-.528.88-.544 1.344-1.552h1.744q-.624 1.6-1.984 2.48-1.36.864-3.184.864-1.551 0-2.832-.72a5.4 5.4 0 0 1-2-2.032q-.736-1.296-.736-2.928m13.656-4.608a.96.96 0 0 1-.704-.288.96.96 0 0 1-.288-.704q0-.416.288-.704a.96.96 0 0 1 .704-.288q.399 0 .672.288a.96.96 0 0 1 .288.704.96.96 0 0 1-.288.704.9.9 0 0 1-.672.288m.704 1.424V474H63.45v-8.768zm4.257 1.2v5.168q0 .64.272.912.272.256.944.256h1.072V474H70.14q-1.215 0-1.824-.56-.608-.56-.608-1.84v-5.168h-1.136v-1.2h1.136v-2.208h1.456v2.208h2.288v1.2zm11.604-1.2-5.28 12.896h-1.504l1.728-4.224-3.536-8.672h1.616l2.752 7.104 2.72-7.104z"/><path fill="#DB4444" d="m87.192 463.28.576 1.04-2.224.928 2.24.912-.608 1.072-1.936-1.408.256 2.416h-1.2l.24-2.416-1.936 1.424-.624-1.088 2.224-.928-2.224-.896.592-1.072 1.984 1.424-.256-2.432h1.216l-.272 2.432z"/></g><rect width="470" height="50" y="488" fill="#F5F5F5" rx="4"/><g opacity=".4"><path fill="#000" d="M8.688 580.112q0 1.392-.96 2.32-.945.912-2.896.912H2.688V588H1.232v-11.152h3.6q1.888 0 2.864.912.992.912.992 2.352m-3.856 2.032q1.215 0 1.792-.528.576-.528.576-1.504 0-2.064-2.368-2.064H2.688v4.096zm10.018-3.072a3.7 3.7 0 0 1 1.792.432q.8.416 1.248 1.264.464.848.464 2.064V588h-1.44v-4.96q0-1.312-.656-2-.657-.704-1.792-.704-1.153 0-1.84.72-.672.72-.672 2.096V588h-1.456v-11.84h1.456v4.32a2.9 2.9 0 0 1 1.184-1.04 3.9 3.9 0 0 1 1.712-.368m9.706 9.072a4.54 4.54 0 0 1-2.24-.56A4.07 4.07 0 0 1 20.748 586q-.56-1.04-.56-2.4 0-1.344.576-2.368a4 4 0 0 1 1.6-1.584q1.008-.56 2.256-.56t2.256.56q1.008.544 1.584 1.568.592 1.024.592 2.384t-.608 2.4a4.1 4.1 0 0 1-1.616 1.584 4.66 4.66 0 0 1-2.272.56m0-1.28q.784 0 1.472-.368a2.74 2.74 0 0 0 1.104-1.104q.432-.736.432-1.792t-.416-1.792-1.088-1.088a3 3 0 0 0-1.456-.368q-.8 0-1.472.368-.656.352-1.056 1.088t-.4 1.792q0 1.072.384 1.808.4.737 1.056 1.104.656.352 1.44.352m10.682-7.792q1.6 0 2.592.976.992.96.992 2.784V588h-1.44v-4.96q0-1.312-.656-2-.655-.704-1.792-.704-1.152 0-1.84.72-.672.72-.672 2.096V588h-1.456v-8.768h1.456v1.248a2.9 2.9 0 0 1 1.168-1.04 3.7 3.7 0 0 1 1.648-.368m13.963 4.208q0 .416-.048.88h-7.008q.08 1.296.88 2.032.816.72 1.968.72.945 0 1.568-.432.64-.448.896-1.184h1.568a3.8 3.8 0 0 1-1.408 2.064q-1.056.784-2.624.784-1.248 0-2.24-.56A4 4 0 0 1 41.217 586q-.56-1.04-.56-2.4t.544-2.384a3.8 3.8 0 0 1 1.52-1.568q.991-.56 2.272-.56 1.248 0 2.208.544t1.472 1.504q.528.944.528 2.144m-1.504-.304q0-.832-.368-1.424a2.3 2.3 0 0 0-1.008-.912 3 3 0 0 0-1.392-.32q-1.104 0-1.888.704-.768.704-.88 1.952zM64.157 588H62.7l-5.856-8.88V588h-1.456v-11.168h1.456l5.856 8.864v-8.864h1.456zm10.257-8.768V588h-1.456v-1.296q-.415.672-1.168 1.056a3.6 3.6 0 0 1-1.632.368q-1.024 0-1.84-.416a3.2 3.2 0 0 1-1.296-1.28q-.465-.848-.464-2.064v-5.136h1.44v4.944q0 1.296.656 2 .657.688 1.792.688 1.168 0 1.84-.72t.672-2.096v-4.816zm13.003-.16q1.023 0 1.824.432.8.416 1.264 1.264t.464 2.064V588h-1.44v-4.96q0-1.312-.656-2-.64-.704-1.744-.704-1.136 0-1.808.736-.672.72-.672 2.096V588h-1.44v-4.96q0-1.312-.656-2-.64-.704-1.744-.704-1.136 0-1.808.736-.672.72-.672 2.096V588h-1.456v-8.768h1.456v1.264a2.9 2.9 0 0 1 1.152-1.056 3.6 3.6 0 0 1 1.616-.368q1.103 0 1.952.496.847.496 1.264 1.456a2.87 2.87 0 0 1 1.216-1.44 3.6 3.6 0 0 1 1.888-.512m7.396 1.792q.448-.784 1.312-1.28t1.968-.496q1.185 0 2.128.56a3.95 3.95 0 0 1 1.488 1.584q.544 1.008.544 2.352 0 1.328-.544 2.368a4.01 4.01 0 0 1-3.616 2.192q-1.136 0-2-.496-.848-.496-1.28-1.264V588h-1.456v-11.84h1.456zm5.952 2.72q0-.991-.4-1.728a2.75 2.75 0 0 0-1.088-1.12 2.95 2.95 0 0 0-1.488-.384q-.8 0-1.488.4-.671.384-1.088 1.136-.4.736-.4 1.712 0 .992.4 1.744.416.736 1.088 1.136.689.384 1.488.384.816 0 1.488-.384a2.87 2.87 0 0 0 1.088-1.136q.4-.752.4-1.76m11.405-.304q0 .416-.048.88h-7.008q.08 1.296.88 2.032.816.72 1.968.72.944 0 1.568-.432.64-.448.896-1.184h1.568a3.8 3.8 0 0 1-1.408 2.064q-1.056.784-2.624.784-1.248 0-2.24-.56a4 4 0 0 1-1.536-1.584q-.56-1.04-.56-2.4t.544-2.384a3.8 3.8 0 0 1 1.52-1.568q.991-.56 2.272-.56 1.248 0 2.208.544t1.472 1.504q.528.944.528 2.144m-1.504-.304q0-.832-.368-1.424a2.33 2.33 0 0 0-1.008-.912 3 3 0 0 0-1.392-.32q-1.105 0-1.888.704-.768.704-.88 1.952zm4.881-2.32a2.8 2.8 0 0 1 1.088-1.168q.72-.416 1.744-.416v1.504h-.384q-2.448 0-2.448 2.656V588h-1.456v-8.768h1.456z"/><path fill="#DB4444" d="m125.02 577.28.576 1.04-2.224.928 2.24.912-.608 1.072-1.936-1.408.256 2.416h-1.2l.24-2.416-1.936 1.424-.624-1.088 2.224-.928-2.224-.896.592-1.072 1.984 1.424-.256-2.432h1.216l-.272 2.432z"/></g><rect width="470" height="50" y="602" fill="#F5F5F5" rx="4"/><g opacity=".4"><path fill="#000" d="M2.688 692.032v3.728h4.064v1.2H2.688v3.84h4.544v1.2h-6v-11.168h6v1.2zm17.291 1.04q1.024 0 1.824.432.8.416 1.264 1.264.465.848.464 2.064V702h-1.44v-4.96q0-1.312-.656-2-.64-.704-1.744-.704-1.136 0-1.808.736-.672.72-.672 2.096V702h-1.44v-4.96q0-1.312-.656-2-.64-.704-1.744-.704-1.136 0-1.808.736-.672.72-.672 2.096V702H9.435v-8.768h1.456v1.264a2.9 2.9 0 0 1 1.152-1.056 3.6 3.6 0 0 1 1.616-.368q1.104 0 1.952.496.849.496 1.264 1.456a2.87 2.87 0 0 1 1.216-1.44 3.6 3.6 0 0 1 1.888-.512m5.397 4.512q0-1.344.543-2.352a3.95 3.95 0 0 1 1.488-1.584 4.15 4.15 0 0 1 2.128-.56q1.152 0 2 .496t1.265 1.248v-1.6h1.472V702H32.8v-1.632q-.432.768-1.296 1.28-.849.496-1.985.496a3.97 3.97 0 0 1-2.111-.576 4.04 4.04 0 0 1-1.489-1.616q-.544-1.04-.544-2.368m7.424.016q0-.991-.4-1.728a2.75 2.75 0 0 0-1.088-1.12 2.85 2.85 0 0 0-1.489-.4q-.816 0-1.488.384a2.8 2.8 0 0 0-1.072 1.12q-.4.737-.4 1.728 0 1.008.4 1.76a2.9 2.9 0 0 0 1.072 1.136q.672.384 1.488.384t1.488-.384a2.86 2.86 0 0 0 1.089-1.136q.4-.752.4-1.744m4.684-5.792a.96.96 0 0 1-.704-.288.96.96 0 0 1-.288-.704q0-.416.288-.704a.96.96 0 0 1 .704-.288q.4 0 .672.288a.96.96 0 0 1 .288.704.96.96 0 0 1-.288.704.9.9 0 0 1-.672.288m.704 1.424V702h-1.456v-8.768zm3.938-3.072V702H40.67v-11.84zm13.339 9.36H50.6l-.896 2.48h-1.536l4.032-11.088h1.68L57.897 702H56.36zm-.416-1.184-2.016-5.632-2.016 5.632zm4.06-.752q0-1.344.545-2.352a3.95 3.95 0 0 1 1.488-1.584 4.2 4.2 0 0 1 2.144-.56q1.023 0 1.904.48.88.464 1.344 1.232v-4.64h1.472V702h-1.472v-1.648q-.432.785-1.28 1.296-.849.496-1.984.496a4.06 4.06 0 0 1-2.128-.576 4.04 4.04 0 0 1-1.488-1.616q-.544-1.04-.544-2.368m7.425.016q0-.991-.4-1.728a2.75 2.75 0 0 0-1.088-1.12 2.85 2.85 0 0 0-1.488-.4q-.816 0-1.488.384a2.8 2.8 0 0 0-1.072 1.12q-.4.737-.4 1.728 0 1.008.4 1.76a2.9 2.9 0 0 0 1.072 1.136q.672.384 1.488.384t1.488-.384a2.86 2.86 0 0 0 1.088-1.136q.4-.752.4-1.744m3.388-.016q0-1.344.544-2.352a3.95 3.95 0 0 1 1.488-1.584 4.2 4.2 0 0 1 2.144-.56q1.025 0 1.904.48.88.464 1.344 1.232v-4.64h1.472V702h-1.472v-1.648q-.431.785-1.28 1.296-.847.496-1.984.496a4.06 4.06 0 0 1-2.128-.576 4.04 4.04 0 0 1-1.488-1.616q-.543-1.04-.544-2.368m7.424.016q0-.991-.4-1.728a2.75 2.75 0 0 0-1.088-1.12 2.85 2.85 0 0 0-1.488-.4q-.816 0-1.488.384a2.8 2.8 0 0 0-1.072 1.12q-.4.737-.4 1.728 0 1.008.4 1.76a2.9 2.9 0 0 0 1.072 1.136q.672.384 1.488.384t1.488-.384a2.86 2.86 0 0 0 1.088-1.136q.4-.752.4-1.744m5.389-2.944a2.8 2.8 0 0 1 1.088-1.168q.72-.416 1.744-.416v1.504h-.384q-2.448 0-2.448 2.656V702h-1.456v-8.768h1.456zm12.513 2.624q0 .416-.048.88h-7.008q.08 1.296.88 2.032.816.72 1.968.72.944 0 1.568-.432.64-.448.896-1.184h1.568a3.8 3.8 0 0 1-1.408 2.064q-1.056.784-2.624.784-1.248 0-2.24-.56A4 4 0 0 1 87.264 700q-.56-1.04-.56-2.4t.544-2.384a3.8 3.8 0 0 1 1.52-1.568q.991-.56 2.272-.56 1.248 0 2.208.544t1.472 1.504q.528.944.528 2.144m-1.504-.304q0-.832-.368-1.424a2.3 2.3 0 0 0-1.008-.912 3 3 0 0 0-1.392-.32q-1.105 0-1.888.704-.769.704-.88 1.952zm6.53 5.168q-1.008 0-1.808-.336-.8-.352-1.264-.96a2.6 2.6 0 0 1-.513-1.424h1.505q.063.656.608 1.072.56.416 1.456.416.832 0 1.312-.368t.48-.928q0-.576-.512-.848-.513-.288-1.584-.56a13 13 0 0 1-1.6-.512 3 3 0 0 1-1.056-.784q-.433-.528-.433-1.376 0-.672.4-1.232t1.136-.88q.736-.336 1.681-.336 1.455 0 2.352.736.895.736.96 2.016h-1.456a1.5 1.5 0 0 0-.56-1.104q-.496-.416-1.344-.416-.785 0-1.249.336-.463.336-.463.88 0 .432.272.72.287.272.704.448.43.16 1.184.368.944.256 1.536.512.591.24 1.008.736.432.497.448 1.296 0 .72-.4 1.296t-1.136.912q-.72.32-1.664.32m8.359 0q-1.008 0-1.808-.336-.8-.352-1.264-.96a2.6 2.6 0 0 1-.512-1.424h1.504q.064.656.608 1.072.56.416 1.456.416.832 0 1.312-.368t.48-.928q0-.576-.512-.848-.511-.288-1.584-.56a13 13 0 0 1-1.6-.512 3 3 0 0 1-1.056-.784q-.432-.528-.432-1.376 0-.672.4-1.232t1.136-.88q.736-.336 1.68-.336 1.456 0 2.352.736t.96 2.016h-1.456a1.5 1.5 0 0 0-.56-1.104q-.496-.416-1.344-.416-.784 0-1.248.336t-.464.88q0 .432.272.72.288.272.704.448.432.16 1.184.368.944.256 1.536.512.592.24 1.008.736.432.497.448 1.296 0 .72-.4 1.296t-1.136.912q-.72.32-1.664.32"/><path fill="#DB4444" d="m118.848 691.28.576 1.04-2.224.928 2.24.912-.608 1.072-1.936-1.408.256 2.416h-1.2l.24-2.416-1.936 1.424-.624-1.088 2.224-.928-2.224-.896.592-1.072 1.984 1.424-.256-2.432h1.216l-.272 2.432z"/></g><rect width="470" height="50" y="716" fill="#F5F5F5" rx="4"/><rect width="24" height="24" y="790" fill="#DB4444" rx="4"/><path stroke="#fff" stroke-linecap="round" stroke-linejoin="round" stroke-width="1.5" d="m5 802 5.25 5L19 797"/><path fill="#000" d="M44.768 808.112q-1.104 0-1.984-.384-.864-.4-1.36-1.088a2.83 2.83 0 0 1-.512-1.616h1.552q.08.784.64 1.328.576.528 1.664.528 1.04 0 1.632-.512.608-.528.608-1.344 0-.64-.352-1.04a2.25 2.25 0 0 0-.88-.608 14 14 0 0 0-1.424-.448q-1.104-.288-1.776-.576a2.95 2.95 0 0 1-1.136-.896q-.465-.624-.464-1.664 0-.912.464-1.616t1.296-1.088q.847-.384 1.936-.384 1.568 0 2.56.784 1.008.784 1.136 2.08h-1.6q-.08-.64-.672-1.12-.592-.496-1.568-.496-.912 0-1.488.48-.576.464-.576 1.312 0 .608.336.992.352.384.848.592.512.192 1.424.448 1.104.304 1.776.608.672.288 1.152.912.48.608.48 1.664 0 .816-.432 1.536t-1.28 1.168-2 .448m5.31-4.528q0-1.344.545-2.352a3.95 3.95 0 0 1 1.488-1.584 4.15 4.15 0 0 1 2.128-.56q1.152 0 2 .496.847.496 1.264 1.248v-1.6h1.472V808h-1.472v-1.632q-.432.768-1.296 1.28-.849.496-1.984.496a4 4 0 0 1-2.112-.576 4.04 4.04 0 0 1-1.488-1.616q-.544-1.04-.544-2.368m7.425.016q0-.991-.4-1.728a2.75 2.75 0 0 0-1.088-1.12 2.85 2.85 0 0 0-1.488-.4q-.816 0-1.488.384a2.8 2.8 0 0 0-1.072 1.12q-.4.737-.4 1.728 0 1.008.4 1.76a2.9 2.9 0 0 0 1.072 1.136q.672.384 1.488.384t1.488-.384a2.86 2.86 0 0 0 1.088-1.136q.4-.752.4-1.744m7.196 3.056 2.72-7.424h1.552L65.531 808h-1.696l-3.44-8.768h1.568zm13.705-3.376q0 .416-.048.88h-7.008q.08 1.296.88 2.032.816.72 1.968.72.945 0 1.568-.432.64-.448.896-1.184h1.568a3.8 3.8 0 0 1-1.408 2.064q-1.056.784-2.624.784-1.248 0-2.24-.56A4 4 0 0 1 70.42 806q-.56-1.04-.56-2.4t.544-2.384a3.8 3.8 0 0 1 1.52-1.568q.991-.56 2.272-.56 1.248 0 2.208.544t1.472 1.504q.528.944.528 2.144m-1.504-.304q0-.832-.368-1.424a2.3 2.3 0 0 0-1.008-.912 3 3 0 0 0-1.392-.32q-1.105 0-1.888.704-.768.704-.88 1.952zm9.467-2.544v5.168q0 .64.272.912.273.256.944.256h1.072V808h-1.312q-1.215 0-1.824-.56-.608-.56-.608-1.84v-5.168h-1.136v-1.2h1.136v-2.208h1.456v2.208h2.288v1.2zm8.404-1.36a3.7 3.7 0 0 1 1.793.432q.8.416 1.248 1.264.463.848.463 2.064V808h-1.44v-4.96q0-1.312-.655-2-.656-.704-1.793-.704-1.15 0-1.84.72-.67.72-.671 2.096V808h-1.457v-11.84h1.457v4.32a2.9 2.9 0 0 1 1.183-1.04 3.9 3.9 0 0 1 1.713-.368m6.635-1.264a.96.96 0 0 1-.704-.288.96.96 0 0 1-.288-.704q0-.416.288-.704a.96.96 0 0 1 .704-.288q.4 0 .672.288a.96.96 0 0 1 .288.704.96.96 0 0 1-.288.704.9.9 0 0 1-.672.288m.704 1.424V808h-1.456v-8.768zm5.585 8.912q-1.008 0-1.808-.336-.8-.352-1.264-.96a2.6 2.6 0 0 1-.512-1.424h1.504q.065.656.608 1.072.56.416 1.456.416.832 0 1.312-.368t.48-.928a.9.9 0 0 0-.512-.848q-.511-.288-1.584-.56a13 13 0 0 1-1.6-.512 3 3 0 0 1-1.056-.784q-.432-.528-.432-1.376 0-.672.4-1.232t1.136-.88q.737-.336 1.68-.336 1.457 0 2.352.736.897.736.96 2.016h-1.456q-.047-.688-.56-1.104-.495-.416-1.344-.416-.783 0-1.248.336t-.464.88q0 .432.272.72.288.272.704.448.432.16 1.184.368.945.256 1.536.512.593.24 1.008.736.433.497.448 1.296 0 .72-.4 1.296t-1.136.912q-.72.32-1.664.32m10.273-10.336a.96.96 0 0 1-.704-.288.96.96 0 0 1-.288-.704q0-.416.288-.704a.96.96 0 0 1 .704-.288q.4 0 .672.288a.96.96 0 0 1 .288.704.96.96 0 0 1-.288.704.9.9 0 0 1-.672.288m.704 1.424V808h-1.456v-8.768zm6.754-.16q1.6 0 2.592.976.992.96.992 2.784V808h-1.44v-4.96q0-1.312-.656-2-.656-.704-1.792-.704-1.152 0-1.84.72-.672.72-.672 2.096V808h-1.456v-8.768h1.456v1.248a2.9 2.9 0 0 1 1.168-1.04 3.7 3.7 0 0 1 1.648-.368m9.53 1.36h-1.84V808h-1.456v-7.568h-1.136v-1.2h1.136v-.624q0-1.472.752-2.144.768-.688 2.448-.688v1.216q-.96 0-1.36.384-.384.368-.384 1.232v.624h1.84zm5.522 7.712a4.54 4.54 0 0 1-2.24-.56A4.07 4.07 0 0 1 136.67 806q-.56-1.04-.56-2.4 0-1.344.576-2.368a4 4 0 0 1 1.6-1.584q1.008-.56 2.256-.56t2.256.56q1.008.544 1.584 1.568.592 1.024.592 2.384t-.608 2.4a4.1 4.1 0 0 1-1.616 1.584q-1.024.56-2.272.56m0-1.28q.784 0 1.472-.368a2.74 2.74 0 0 0 1.104-1.104q.432-.736.432-1.792t-.416-1.792-1.088-1.088a3 3 0 0 0-1.456-.368q-.8 0-1.472.368-.655.352-1.056 1.088-.4.736-.4 1.792 0 1.072.384 1.808.4.737 1.056 1.104.656.352 1.44.352m7.866-6.208a2.8 2.8 0 0 1 1.088-1.168q.72-.416 1.744-.416v1.504h-.384q-2.448 0-2.448 2.656V808h-1.456v-8.768h1.456zm15.057-1.584q1.024 0 1.824.432.8.416 1.264 1.264t.464 2.064V808h-1.44v-4.96q0-1.312-.656-2-.64-.704-1.744-.704-1.136 0-1.808.736-.672.72-.672 2.096V808h-1.44v-4.96q0-1.312-.656-2-.64-.704-1.744-.704-1.136 0-1.808.736-.672.72-.672 2.096V808h-1.456v-8.768h1.456v1.264a2.9 2.9 0 0 1 1.152-1.056 3.6 3.6 0 0 1 1.616-.368q1.104 0 1.952.496t1.264 1.456a2.87 2.87 0 0 1 1.216-1.44 3.6 3.6 0 0 1 1.888-.512m5.396 4.512q0-1.344.544-2.352a3.95 3.95 0 0 1 1.488-1.584 4.15 4.15 0 0 1 2.128-.56q1.152 0 2 .496t1.264 1.248v-1.6h1.472V808h-1.472v-1.632q-.432.768-1.296 1.28-.847.496-1.984.496a4 4 0 0 1-2.112-.576 4.05 4.05 0 0 1-1.488-1.616q-.544-1.04-.544-2.368m7.424.016q0-.991-.4-1.728a2.75 2.75 0 0 0-1.088-1.12 2.85 2.85 0 0 0-1.488-.4q-.816 0-1.488.384a2.8 2.8 0 0 0-1.072 1.12q-.4.737-.4 1.728 0 1.008.4 1.76.4.736 1.072 1.136.672.384 1.488.384t1.488-.384a2.86 2.86 0 0 0 1.088-1.136q.4-.752.4-1.744m5.709-3.168v5.168q0 .64.272.912.272.256.944.256h1.072V808h-1.312q-1.216 0-1.824-.56t-.608-1.84v-5.168h-1.136v-1.2h1.136v-2.208h1.456v2.208h2.288v1.2zm4.804-2.624a.96.96 0 0 1-.704-.288.96.96 0 0 1-.288-.704q0-.416.288-.704a.96.96 0 0 1 .704-.288q.4 0 .672.288a.96.96 0 0 1 .288.704.96.96 0 0 1-.288.704.9.9 0 0 1-.672.288m.704 1.424V808h-1.456v-8.768zm6.306 8.912a4.54 4.54 0 0 1-2.24-.56 4.06 4.06 0 0 1-1.568-1.584q-.56-1.04-.56-2.4 0-1.344.576-2.368a4 4 0 0 1 1.6-1.584q1.008-.56 2.256-.56t2.256.56q1.008.544 1.584 1.568.591 1.024.592 2.384 0 1.36-.608 2.4a4.1 4.1 0 0 1-1.616 1.584q-1.024.56-2.272.56m0-1.28q.783 0 1.472-.368a2.75 2.75 0 0 0 1.104-1.104q.432-.736.432-1.792t-.416-1.792-1.088-1.088a3 3 0 0 0-1.456-.368q-.8 0-1.472.368-.657.352-1.056 1.088-.4.736-.4 1.792 0 1.072.384 1.808.399.737 1.056 1.104.656.352 1.44.352m10.682-7.792q1.6 0 2.592.976.992.96.992 2.784V808h-1.44v-4.96q0-1.312-.656-2-.656-.704-1.792-.704-1.152 0-1.84.72-.672.72-.672 2.096V808h-1.456v-8.768h1.456v1.248a2.9 2.9 0 0 1 1.168-1.04 3.7 3.7 0 0 1 1.648-.368m13.796 1.36h-1.84V808h-1.456v-7.568h-1.136v-1.2h1.136v-.624q0-1.472.752-2.144.768-.688 2.448-.688v1.216q-.96 0-1.36.384-.384.368-.384 1.232v.624h1.84zm5.522 7.712a4.54 4.54 0 0 1-2.24-.56 4.06 4.06 0 0 1-1.568-1.584q-.56-1.04-.56-2.4 0-1.344.576-2.368a4 4 0 0 1 1.6-1.584q1.008-.56 2.256-.56t2.256.56q1.008.544 1.584 1.568.591 1.024.592 2.384 0 1.36-.608 2.4a4.1 4.1 0 0 1-1.616 1.584q-1.024.56-2.272.56m0-1.28q.783 0 1.472-.368a2.75 2.75 0 0 0 1.104-1.104q.432-.736.432-1.792t-.416-1.792-1.088-1.088a3 3 0 0 0-1.456-.368q-.8 0-1.472.368-.657.352-1.056 1.088-.4.736-.4 1.792 0 1.072.384 1.808.399.737 1.056 1.104.656.352 1.44.352m7.866-6.208a2.8 2.8 0 0 1 1.088-1.168q.72-.416 1.744-.416v1.504h-.384q-2.448 0-2.448 2.656V808h-1.456v-8.768h1.456zm12.346-.224h-1.84V808h-1.456v-7.568h-1.136v-1.2h1.136v-.624q0-1.472.752-2.144.768-.688 2.448-.688v1.216q-.96 0-1.36.384-.384.368-.384 1.232v.624h1.84zm1.154 3.152q0-1.344.544-2.352a3.95 3.95 0 0 1 1.488-1.584 4.15 4.15 0 0 1 2.128-.56q1.152 0 2 .496t1.264 1.248v-1.6h1.472V808h-1.472v-1.632q-.432.768-1.296 1.28-.848.496-1.984.496a3.97 3.97 0 0 1-2.112-.576 4.05 4.05 0 0 1-1.488-1.616q-.544-1.04-.544-2.368m7.424.016q0-.991-.4-1.728a2.75 2.75 0 0 0-1.088-1.12 2.85 2.85 0 0 0-1.488-.4q-.816 0-1.488.384a2.8 2.8 0 0 0-1.072 1.12q-.4.737-.4 1.728 0 1.008.4 1.76.4.736 1.072 1.136.672.384 1.488.384t1.488-.384a2.86 2.86 0 0 0 1.088-1.136q.4-.752.4-1.744m7.036 4.544q-1.007 0-1.808-.336-.8-.352-1.264-.96a2.6 2.6 0 0 1-.512-1.424h1.504q.065.656.608 1.072.56.416 1.456.416.832 0 1.312-.368t.48-.928a.9.9 0 0 0-.512-.848q-.512-.288-1.584-.56a13 13 0 0 1-1.6-.512 3 3 0 0 1-1.056-.784q-.432-.528-.432-1.376 0-.672.4-1.232t1.136-.88q.736-.336 1.68-.336 1.457 0 2.352.736.897.736.96 2.016h-1.456q-.047-.688-.56-1.104-.495-.416-1.344-.416-.783 0-1.248.336t-.464.88q0 .432.272.72.288.272.704.448.432.16 1.184.368.945.256 1.536.512.592.24 1.008.736.433.497.448 1.296 0 .72-.4 1.296t-1.136.912q-.72.32-1.664.32m7.032-7.712v5.168q0 .64.272.912.272.256.944.256h1.072V808h-1.312q-1.216 0-1.824-.56t-.608-1.84v-5.168h-1.136v-1.2h1.136v-2.208h1.456v2.208h2.288v1.2zm12.052 2.848q0 .416-.048.88h-7.008q.08 1.296.88 2.032.816.72 1.968.72.944 0 1.568-.432.64-.448.896-1.184h1.568a3.8 3.8 0 0 1-1.408 2.064q-1.056.784-2.624.784-1.248 0-2.24-.56A4 4 0 0 1 270.67 806q-.56-1.04-.56-2.4t.544-2.384a3.8 3.8 0 0 1 1.52-1.568q.992-.56 2.272-.56 1.248 0 2.208.544a3.7 3.7 0 0 1 1.472 1.504q.528.944.528 2.144m-1.504-.304q0-.832-.368-1.424a2.3 2.3 0 0 0-1.008-.912 3 3 0 0 0-1.392-.32q-1.104 0-1.888.704-.768.704-.88 1.952zm4.882-2.32a2.8 2.8 0 0 1 1.088-1.168q.72-.416 1.744-.416v1.504h-.384q-2.448 0-2.448 2.656V808h-1.456v-8.768h1.456zm8.234 2.944q0-1.36.544-2.368a3.9 3.9 0 0 1 1.504-1.584q.976-.56 2.224-.56 1.616 0 2.656.784 1.056.784 1.392 2.176h-1.568a2.24 2.24 0 0 0-.88-1.264q-.64-.464-1.6-.464-1.248 0-2.016.864-.768.848-.768 2.416 0 1.584.768 2.448t2.016.864q.96 0 1.6-.448t.88-1.28h1.568q-.352 1.344-1.408 2.16-1.056.8-2.64.8-1.248 0-2.224-.56A3.9 3.9 0 0 1 290.81 806q-.544-1.024-.544-2.4m14.615-4.528a3.7 3.7 0 0 1 1.792.432 2.92 2.92 0 0 1 1.248 1.264q.464.848.464 2.064V808h-1.44v-4.96q0-1.312-.656-2-.656-.704-1.792-.704-1.152 0-1.84.72-.672.72-.672 2.096V808h-1.456v-11.84h1.456v4.32a2.9 2.9 0 0 1 1.184-1.04 3.9 3.9 0 0 1 1.712-.368m13.882 4.208q0 .416-.048.88h-7.008q.08 1.296.88 2.032.816.72 1.968.72.945 0 1.568-.432.64-.448.896-1.184h1.568a3.8 3.8 0 0 1-1.408 2.064q-1.055.784-2.624.784-1.248 0-2.24-.56a4 4 0 0 1-1.536-1.584q-.56-1.04-.56-2.4t.544-2.384a3.8 3.8 0 0 1 1.52-1.568q.993-.56 2.272-.56 1.248 0 2.208.544a3.7 3.7 0 0 1 1.472 1.504q.528.944.528 2.144m-1.504-.304q0-.832-.368-1.424a2.3 2.3 0 0 0-1.008-.912 3 3 0 0 0-1.392-.32q-1.104 0-1.888.704-.768.704-.88 1.952zm2.882.624q0-1.36.544-2.368a3.9 3.9 0 0 1 1.504-1.584q.976-.56 2.224-.56 1.616 0 2.656.784 1.056.784 1.392 2.176h-1.568a2.24 2.24 0 0 0-.88-1.264q-.64-.464-1.6-.464-1.248 0-2.016.864-.768.848-.768 2.416 0 1.584.768 2.448t2.016.864q.96 0 1.6-.448t.88-1.28h1.568q-.352 1.344-1.408 2.16-1.056.8-2.64.8-1.248 0-2.224-.56a3.9 3.9 0 0 1-1.504-1.584q-.544-1.024-.544-2.4M335.3 808l-3.44-3.872V808h-1.456v-11.84h1.456v6.96l3.376-3.888h2.032l-4.128 4.368 4.144 4.4zm9.418-6.48v1.232h-6.384v-1.232zm6.557 6.624a4.54 4.54 0 0 1-2.24-.56 4.06 4.06 0 0 1-1.568-1.584q-.56-1.04-.56-2.4 0-1.344.576-2.368a4 4 0 0 1 1.6-1.584q1.008-.56 2.256-.56t2.256.56q1.008.544 1.584 1.568.591 1.024.592 2.384 0 1.36-.608 2.4a4.1 4.1 0 0 1-1.616 1.584q-1.024.56-2.272.56m0-1.28q.783 0 1.472-.368a2.75 2.75 0 0 0 1.104-1.104q.432-.736.432-1.792t-.416-1.792-1.088-1.088a3 3 0 0 0-1.456-.368q-.8 0-1.472.368-.657.352-1.056 1.088-.4.736-.4 1.792 0 1.072.384 1.808.399.737 1.056 1.104.656.352 1.44.352m14.186-7.632V808h-1.456v-1.296q-.416.672-1.168 1.056a3.6 3.6 0 0 1-1.632.368q-1.024 0-1.84-.416a3.2 3.2 0 0 1-1.296-1.28q-.464-.848-.464-2.064v-5.136h1.44v4.944q0 1.296.656 2 .656.688 1.792.688 1.168 0 1.84-.72t.672-2.096v-4.816zm4.235 1.2v5.168q0 .64.272.912.272.256.943.256h1.073V808h-1.312q-1.216 0-1.824-.56t-.608-1.84v-5.168h-1.136v-1.2h1.136v-2.208h1.456v2.208h2.288v1.2zm12.589-1.36q1.6 0 2.592.976.993.96.992 2.784V808h-1.44v-4.96q0-1.312-.656-2-.655-.704-1.792-.704-1.152 0-1.84.72-.672.72-.672 2.096V808h-1.456v-8.768h1.456v1.248a2.9 2.9 0 0 1 1.168-1.04 3.7 3.7 0 0 1 1.648-.368m13.963 4.208q0 .416-.048.88h-7.008q.08 1.296.88 2.032.816.72 1.968.72.944 0 1.568-.432.64-.448.896-1.184h1.568a3.8 3.8 0 0 1-1.408 2.064q-1.056.784-2.624.784-1.248 0-2.24-.56a4 4 0 0 1-1.536-1.584q-.56-1.04-.56-2.4t.544-2.384a3.8 3.8 0 0 1 1.52-1.568q.991-.56 2.272-.56 1.248 0 2.208.544t1.472 1.504q.528.944.528 2.144m-1.504-.304q0-.832-.368-1.424a2.33 2.33 0 0 0-1.008-.912 3 3 0 0 0-1.392-.32q-1.105 0-1.888.704-.769.704-.88 1.952zm8.002 5.024-2.08-3.264-2 3.264h-1.52l2.832-4.352-2.832-4.416h1.648l2.08 3.248 1.984-3.248h1.52l-2.816 4.336 2.832 4.432zm4.856-7.568v5.168q0 .64.272.912.272.256.944.256h1.072V808h-1.312q-1.216 0-1.824-.56t-.608-1.84v-5.168h-1.136v-1.2h1.136v-2.208h1.456v2.208h2.288v1.2zm10.094 0v5.168q0 .64.272.912.272.256.943.256h1.073V808h-1.312q-1.216 0-1.824-.56t-.608-1.84v-5.168h-1.136v-1.2h1.136v-2.208h1.456v2.208h2.288v1.2zm4.804-2.624a.96.96 0 0 1-.704-.288.96.96 0 0 1-.288-.704q0-.416.288-.704a.96.96 0 0 1 .704-.288.9.9 0 0 1 .672.288.96.96 0 0 1 .288.704.96.96 0 0 1-.288.704.9.9 0 0 1-.672.288m.704 1.424V808h-1.456v-8.768zm13.025-.16q1.024 0 1.824.432.8.416 1.264 1.264t.464 2.064V808h-1.44v-4.96q0-1.312-.656-2-.64-.704-1.744-.704-1.136 0-1.808.736-.672.72-.672 2.096V808h-1.44v-4.96q0-1.312-.656-2-.64-.704-1.744-.704-1.136 0-1.808.736-.672.72-.672 2.096V808h-1.456v-8.768h1.456v1.264a2.9 2.9 0 0 1 1.152-1.056 3.6 3.6 0 0 1 1.616-.368q1.104 0 1.952.496t1.264 1.456a2.87 2.87 0 0 1 1.216-1.44 3.6 3.6 0 0 1 1.888-.512m13.941 4.208q0 .416-.048.88h-7.008q.08 1.296.88 2.032.816.72 1.968.72.944 0 1.568-.432.64-.448.896-1.184h1.568a3.8 3.8 0 0 1-1.408 2.064q-1.056.784-2.624.784-1.248 0-2.24-.56a4 4 0 0 1-1.536-1.584q-.56-1.04-.56-2.4t.544-2.384a3.8 3.8 0 0 1 1.52-1.568q.991-.56 2.272-.56 1.248 0 2.208.544t1.472 1.504q.528.944.528 2.144m-1.504-.304q0-.832-.368-1.424a2.33 2.33 0 0 0-1.008-.912 3 3 0 0 0-1.392-.32q-1.105 0-1.888.704-.769.704-.88 1.952z"/></svg>