<svg xmlns="http://www.w3.org/2000/svg" width="170" height="145" fill="none"><rect width="169" height="144" x=".5" y=".5" stroke="#000" stroke-opacity=".3" rx="3.5"/><path fill="#000" d="M40.688 109.416q0-1.632.736-2.928a5.35 5.35 0 0 1 2-2.048q1.28-.736 2.832-.736 1.824 0 3.184.88t1.984 2.496H49.68q-.464-1.008-1.344-1.552-.865-.544-2.08-.544-1.168 0-2.096.544a3.8 3.8 0 0 0-1.456 1.552q-.528.992-.528 2.336 0 1.328.528 2.336a3.8 3.8 0 0 0 1.456 1.536q.928.544 2.096.544 1.216 0 2.08-.528.88-.544 1.344-1.552h1.744q-.624 1.6-1.984 2.48-1.36.864-3.184.864-1.552 0-2.832-.72a5.4 5.4 0 0 1-2-2.032q-.736-1.296-.736-2.928m16.727 5.728a4.54 4.54 0 0 1-2.24-.56A4.07 4.07 0 0 1 53.607 113q-.56-1.04-.56-2.4 0-1.344.576-2.368a4 4 0 0 1 1.6-1.584q1.008-.56 2.256-.56t2.256.56q1.008.544 1.584 1.568.592 1.024.592 2.384t-.608 2.4a4.1 4.1 0 0 1-1.616 1.584 4.66 4.66 0 0 1-2.272.56m0-1.28q.785 0 1.472-.368a2.75 2.75 0 0 0 1.104-1.104q.432-.736.432-1.792t-.416-1.792-1.088-1.088a3 3 0 0 0-1.456-.368q-.8 0-1.472.368-.656.352-1.056 1.088t-.4 1.792q0 1.072.384 1.808.4.736 1.056 1.104.657.352 1.44.352m16.955-7.792q1.023 0 1.824.432.8.416 1.264 1.264.464.847.464 2.064V115h-1.44v-4.96q0-1.312-.656-2-.64-.704-1.744-.704-1.136 0-1.808.736-.672.72-.672 2.096V115h-1.44v-4.96q0-1.312-.656-2-.64-.704-1.744-.704-1.136 0-1.808.736-.672.72-.672 2.096V115h-1.456v-8.768h1.456v1.264a2.9 2.9 0 0 1 1.152-1.056 3.6 3.6 0 0 1 1.616-.368q1.103 0 1.952.496.847.496 1.264 1.456a2.87 2.87 0 0 1 1.216-1.44 3.6 3.6 0 0 1 1.888-.512m7.396 1.776q.432-.752 1.28-1.248.864-.512 2-.512 1.168 0 2.112.56.96.56 1.504 1.584.544 1.008.544 2.352 0 1.328-.544 2.368a4 4 0 0 1-1.504 1.616 3.97 3.97 0 0 1-2.112.576q-1.12 0-1.984-.496-.847-.512-1.296-1.264v5.776H80.31v-12.928h1.456zm5.952 2.736q0-.991-.4-1.728a2.75 2.75 0 0 0-1.088-1.12 2.95 2.95 0 0 0-1.488-.384q-.8 0-1.488.4-.672.384-1.088 1.136-.4.736-.4 1.712 0 .992.4 1.744.417.736 1.088 1.136.689.384 1.488.384.816 0 1.488-.384a2.86 2.86 0 0 0 1.088-1.136q.4-.752.4-1.76m11.18-4.352V115h-1.455v-1.296q-.417.672-1.168 1.056a3.6 3.6 0 0 1-1.632.368q-1.024 0-1.84-.416a3.2 3.2 0 0 1-1.296-1.28q-.464-.847-.464-2.064v-5.136h1.44v4.944q0 1.296.656 2 .655.688 1.792.688 1.168 0 1.84-.72t.672-2.096v-4.816zm4.235 1.2v5.168q0 .64.272.912.272.256.944.256h1.072V115h-1.312q-1.217 0-1.824-.56-.608-.56-.608-1.84v-5.168h-1.136v-1.2h1.136v-2.208h1.456v2.208h2.288v1.2zm12.052 2.848q0 .416-.048.88h-7.008q.08 1.296.88 2.032.816.72 1.968.72.944 0 1.568-.432.64-.448.896-1.184h1.568a3.8 3.8 0 0 1-1.408 2.064q-1.056.784-2.624.784-1.248 0-2.24-.56a4 4 0 0 1-1.536-1.584q-.56-1.04-.56-2.4t.544-2.384a3.8 3.8 0 0 1 1.52-1.568q.992-.56 2.272-.56 1.248 0 2.208.544a3.7 3.7 0 0 1 1.472 1.504q.528.944.528 2.144m-1.504-.304q0-.832-.368-1.424a2.3 2.3 0 0 0-1.008-.912 3 3 0 0 0-1.392-.32q-1.104 0-1.888.704-.768.704-.88 1.952zm4.882-2.32a2.8 2.8 0 0 1 1.088-1.168q.72-.416 1.744-.416v1.504h-.384q-2.448 0-2.448 2.656V115h-1.456v-8.768h1.456zm7.617 7.488q-1.008 0-1.808-.336-.8-.352-1.264-.96a2.6 2.6 0 0 1-.512-1.424h1.504q.063.656.608 1.072.56.416 1.456.416.832 0 1.312-.368t.48-.928q0-.576-.512-.848-.513-.288-1.584-.56a13 13 0 0 1-1.6-.512 3 3 0 0 1-1.056-.784q-.432-.528-.432-1.376 0-.672.4-1.232t1.136-.88q.735-.336 1.68-.336 1.455 0 2.352.736.895.736.96 2.016h-1.456a1.5 1.5 0 0 0-.56-1.104q-.496-.416-1.344-.416-.784 0-1.248.336-.465.336-.464.88 0 .432.272.72.287.272.704.448.432.16 1.184.368.944.256 1.536.512.591.24 1.008.736.432.497.448 1.296 0 .72-.4 1.296t-1.136.912q-.72.32-1.664.32"/><g stroke="#000" stroke-linecap="round" stroke-width="2" clip-path="url(#a)"><path stroke-linejoin="round" d="M104.667 34.333H67.333A2.333 2.333 0 0 0 65 36.667V60a2.333 2.333 0 0 0 2.333 2.333h37.334A2.333 2.333 0 0 0 107 60V36.667a2.334 2.334 0 0 0-2.333-2.334M74.333 71.667h23.334M79 62.333v9.334m14-9.334v9.334"/><path d="M66 57h40"/></g><defs><clipPath id="a"><path fill="#fff" d="M58 25h56v56H58z"/></clipPath></defs></svg>