<svg xmlns="http://www.w3.org/2000/svg" width="826" height="483" fill="none"><g filter="url(#a)"><rect width="800" height="457" x="13" y="12" fill="#fff" rx="4"/><rect width="235" height="50" x="44" y="52" fill="#F5F5F5" rx="4"/><g opacity=".5"><path fill="#000" d="m69.04 71.848-3.632 6.944V83h-1.456v-4.208l-3.648-6.944h1.616l2.752 5.648 2.752-5.648zm5.36 11.296a4.53 4.53 0 0 1-2.24-.56A4.07 4.07 0 0 1 70.592 81q-.56-1.04-.56-2.4 0-1.344.576-2.368a4 4 0 0 1 1.6-1.584q1.008-.56 2.256-.56t2.256.56q1.008.544 1.584 1.568.591 1.024.592 2.384 0 1.36-.608 2.4a4.1 4.1 0 0 1-1.616 1.584q-1.024.56-2.272.56m0-1.28q.783 0 1.472-.368a2.75 2.75 0 0 0 1.104-1.104q.432-.735.432-1.792t-.416-1.792q-.417-.735-1.088-1.088a3 3 0 0 0-1.456-.368q-.8 0-1.472.368-.657.352-1.056 1.088-.4.735-.4 1.792 0 1.072.384 1.808.399.736 1.056 1.104.656.352 1.44.352m14.186-7.632V83H87.13v-1.296q-.415.672-1.168 1.056a3.6 3.6 0 0 1-1.632.368q-1.024 0-1.84-.416a3.2 3.2 0 0 1-1.296-1.28q-.464-.848-.464-2.064v-5.136h1.44v4.944q0 1.296.656 2 .657.688 1.792.688 1.168 0 1.84-.72t.672-2.096v-4.816zm3.915 1.424q.383-.751 1.087-1.168.72-.416 1.745-.416v1.504h-.385q-2.447 0-2.447 2.656V83h-1.457v-8.768h1.457zM110.047 83h-1.456l-5.856-8.88V83h-1.456V71.832h1.456l5.856 8.864v-8.864h1.456zm1.938-4.416q0-1.344.544-2.352a3.96 3.96 0 0 1 1.488-1.584 4.14 4.14 0 0 1 2.128-.56q1.152 0 2 .496t1.264 1.248v-1.6h1.472V83h-1.472v-1.632q-.432.768-1.296 1.28-.848.495-1.984.496a3.97 3.97 0 0 1-2.112-.576 4.05 4.05 0 0 1-1.488-1.616q-.544-1.04-.544-2.368m7.424.016q0-.992-.4-1.728a2.75 2.75 0 0 0-1.088-1.12 2.85 2.85 0 0 0-1.488-.4q-.816 0-1.488.384-.672.385-1.072 1.12t-.4 1.728q0 1.008.4 1.76.4.736 1.072 1.136.672.384 1.488.384t1.488-.384a2.86 2.86 0 0 0 1.088-1.136q.4-.752.4-1.744m14.476-4.528q1.024 0 1.824.432.8.416 1.264 1.264.464.847.464 2.064V83h-1.44v-4.96q0-1.312-.656-2-.64-.704-1.744-.704-1.136 0-1.808.736-.672.72-.672 2.096V83h-1.44v-4.96q0-1.312-.656-2-.64-.704-1.744-.704-1.136 0-1.808.736-.672.72-.672 2.096V83h-1.456v-8.768h1.456v1.264a2.9 2.9 0 0 1 1.152-1.056 3.6 3.6 0 0 1 1.616-.368q1.104 0 1.952.496.849.495 1.264 1.456a2.88 2.88 0 0 1 1.216-1.44 3.6 3.6 0 0 1 1.888-.512m13.941 4.208q0 .415-.048.88h-7.008q.08 1.296.88 2.032.816.72 1.968.72.944 0 1.568-.432.64-.448.896-1.184h1.568a3.8 3.8 0 0 1-1.408 2.064q-1.056.784-2.624.784-1.248 0-2.24-.56A4 4 0 0 1 139.842 81q-.56-1.04-.56-2.4t.544-2.384a3.8 3.8 0 0 1 1.52-1.568q.991-.56 2.272-.56 1.248 0 2.208.544t1.472 1.504q.528.944.528 2.144m-1.504-.304q0-.833-.368-1.424a2.3 2.3 0 0 0-1.008-.912 3 3 0 0 0-1.392-.32q-1.105 0-1.888.704-.769.704-.88 1.952z"/><path fill="#DB4444" d="m158.973 72.28.576 1.04-2.224.928 2.24.912-.608 1.072-1.936-1.408.256 2.416h-1.2l.24-2.416-1.936 1.424-.624-1.088 2.224-.928-2.224-.896.592-1.072 1.984 1.424-.256-2.432h1.216l-.272 2.432z"/></g><rect width="235" height="50" x="295" y="52" fill="#F5F5F5" rx="4"/><g opacity=".5"><path fill="#000" d="m320.04 71.848-3.632 6.944V83h-1.456v-4.208l-3.648-6.944h1.616l2.752 5.648 2.752-5.648zm5.36 11.296a4.53 4.53 0 0 1-2.24-.56A4.07 4.07 0 0 1 321.592 81q-.56-1.04-.56-2.4 0-1.344.576-2.368a4 4 0 0 1 1.6-1.584q1.008-.56 2.256-.56t2.256.56q1.008.544 1.584 1.568.591 1.024.592 2.384 0 1.36-.608 2.4a4.13 4.13 0 0 1-1.616 1.584q-1.024.56-2.272.56m0-1.28q.783 0 1.472-.368a2.76 2.76 0 0 0 1.104-1.104q.432-.735.432-1.792t-.416-1.792-1.088-1.088a3 3 0 0 0-1.456-.368q-.8 0-1.472.368-.657.352-1.056 1.088-.4.735-.4 1.792 0 1.072.384 1.808.399.736 1.056 1.104.656.352 1.44.352m14.186-7.632V83h-1.456v-1.296q-.416.672-1.168 1.056a3.6 3.6 0 0 1-1.632.368q-1.024 0-1.84-.416a3.2 3.2 0 0 1-1.296-1.28q-.464-.848-.464-2.064v-5.136h1.44v4.944q0 1.296.656 2 .656.688 1.792.688 1.168 0 1.84-.72t.672-2.096v-4.816zm3.915 1.424q.383-.751 1.088-1.168.72-.416 1.744-.416v1.504h-.384q-2.448 0-2.448 2.656V83h-1.456v-8.768h1.456zm10.234-2.624v3.728h4.064v1.2h-4.064v3.84h4.544V83h-6V71.832h6v1.2zm17.291 1.04q1.024 0 1.824.432.8.416 1.264 1.264.464.847.464 2.064V83h-1.44v-4.96q0-1.312-.656-2-.64-.704-1.744-.704-1.136 0-1.808.736-.672.72-.672 2.096V83h-1.44v-4.96q0-1.312-.656-2-.64-.704-1.744-.704-1.136 0-1.808.736-.672.72-.672 2.096V83h-1.456v-8.768h1.456v1.264a2.9 2.9 0 0 1 1.152-1.056 3.56 3.56 0 0 1 1.616-.368q1.104 0 1.952.496.848.495 1.264 1.456a2.88 2.88 0 0 1 1.216-1.44 3.6 3.6 0 0 1 1.888-.512m5.396 4.512q0-1.344.544-2.352a3.96 3.96 0 0 1 1.488-1.584q.96-.56 2.128-.56 1.152 0 2 .496t1.264 1.248v-1.6h1.472V83h-1.472v-1.632q-.432.768-1.296 1.28-.847.495-1.984.496a4 4 0 0 1-2.112-.576 4.05 4.05 0 0 1-1.488-1.616q-.543-1.04-.544-2.368m7.424.016q0-.992-.4-1.728a2.75 2.75 0 0 0-1.088-1.12 2.85 2.85 0 0 0-1.488-.4q-.816 0-1.488.384-.672.385-1.072 1.12t-.4 1.728q0 1.008.4 1.76.4.736 1.072 1.136.672.384 1.488.384t1.488-.384a2.86 2.86 0 0 0 1.088-1.136q.4-.752.4-1.744m4.685-5.792a.96.96 0 0 1-.704-.288.96.96 0 0 1-.288-.704q0-.416.288-.704a.96.96 0 0 1 .704-.288q.4 0 .672.288a.96.96 0 0 1 .288.704.96.96 0 0 1-.288.704.9.9 0 0 1-.672.288m.704 1.424V83h-1.456v-8.768zm3.937-3.072V83h-1.456V71.16z"/><path fill="#DB4444" d="m404.88 72.28.576 1.04-2.224.928 2.24.912-.608 1.072-1.936-1.408.256 2.416h-1.2l.24-2.416-1.936 1.424-.624-1.088 2.224-.928-2.224-.896.592-1.072 1.984 1.424-.256-2.432h1.216l-.272 2.432z"/></g><rect width="235" height="50" x="546" y="52" fill="#F5F5F5" rx="4"/><g opacity=".5"><path fill="#000" d="m571.04 71.848-3.632 6.944V83h-1.456v-4.208l-3.648-6.944h1.616l2.752 5.648 2.752-5.648zm5.36 11.296a4.53 4.53 0 0 1-2.24-.56A4.07 4.07 0 0 1 572.592 81q-.56-1.04-.56-2.4 0-1.344.576-2.368a4 4 0 0 1 1.6-1.584q1.008-.56 2.256-.56t2.256.56q1.008.544 1.584 1.568.591 1.024.592 2.384 0 1.36-.608 2.4a4.13 4.13 0 0 1-1.616 1.584q-1.024.56-2.272.56m0-1.28q.783 0 1.472-.368a2.76 2.76 0 0 0 1.104-1.104q.432-.735.432-1.792t-.416-1.792-1.088-1.088a3 3 0 0 0-1.456-.368q-.8 0-1.472.368-.657.352-1.056 1.088-.4.735-.4 1.792 0 1.072.384 1.808.399.736 1.056 1.104.656.352 1.44.352m14.186-7.632V83h-1.456v-1.296q-.416.672-1.168 1.056a3.6 3.6 0 0 1-1.632.368q-1.024 0-1.84-.416a3.2 3.2 0 0 1-1.296-1.28q-.464-.848-.464-2.064v-5.136h1.44v4.944q0 1.296.656 2 .656.688 1.792.688 1.168 0 1.84-.72t.672-2.096v-4.816zm3.915 1.424q.383-.751 1.088-1.168.72-.416 1.744-.416v1.504h-.384q-2.448 0-2.448 2.656V83h-1.456v-8.768h1.456zm16.234-.544q0 1.392-.96 2.32-.944.912-2.896.912h-2.144V83h-1.456V71.848h3.6q1.888 0 2.864.912.992.912.992 2.352m-3.856 2.032q1.216 0 1.792-.528t.576-1.504q0-2.064-2.368-2.064h-2.144v4.096zm10.018-3.072q.991 0 1.792.432a2.92 2.92 0 0 1 1.248 1.264q.464.847.464 2.064V83h-1.44v-4.96q0-1.312-.656-2-.657-.704-1.792-.704-1.152 0-1.84.72-.672.72-.672 2.096V83h-1.456V71.16h1.456v4.32a2.9 2.9 0 0 1 1.184-1.04 3.9 3.9 0 0 1 1.712-.368m9.706 9.072a4.54 4.54 0 0 1-2.24-.56A4.07 4.07 0 0 1 622.795 81q-.56-1.04-.56-2.4 0-1.344.576-2.368a4 4 0 0 1 1.6-1.584q1.008-.56 2.256-.56t2.256.56q1.008.544 1.584 1.568.592 1.024.592 2.384t-.608 2.4a4.1 4.1 0 0 1-1.616 1.584q-1.024.56-2.272.56m0-1.28q.784 0 1.472-.368a2.74 2.74 0 0 0 1.104-1.104q.432-.735.432-1.792t-.416-1.792-1.088-1.088a3 3 0 0 0-1.456-.368q-.8 0-1.472.368-.655.352-1.056 1.088-.4.735-.4 1.792 0 1.072.384 1.808.4.736 1.056 1.104.656.352 1.44.352m10.682-7.792q1.6 0 2.592.976.993.96.992 2.784V83h-1.44v-4.96q0-1.312-.656-2-.655-.704-1.792-.704-1.152 0-1.84.72-.672.72-.672 2.096V83h-1.456v-8.768h1.456v1.248a2.9 2.9 0 0 1 1.168-1.04 3.7 3.7 0 0 1 1.648-.368m13.963 4.208q0 .415-.048.88h-7.008q.08 1.296.88 2.032.816.72 1.968.72.944 0 1.568-.432.64-.448.896-1.184h1.568a3.8 3.8 0 0 1-1.408 2.064q-1.056.784-2.624.784-1.248 0-2.24-.56A4 4 0 0 1 643.264 81q-.56-1.04-.56-2.4t.544-2.384a3.8 3.8 0 0 1 1.52-1.568q.991-.56 2.272-.56 1.248 0 2.208.544t1.472 1.504q.528.944.528 2.144m-1.504-.304q0-.833-.368-1.424a2.3 2.3 0 0 0-1.008-.912 3 3 0 0 0-1.392-.32q-1.105 0-1.888.704-.768.704-.88 1.952z"/><path fill="#DB4444" d="m662.395 72.28.576 1.04-2.224.928 2.24.912-.608 1.072-1.936-1.408.256 2.416h-1.2l.24-2.416-1.936 1.424-.624-1.088 2.224-.928-2.224-.896.592-1.072 1.984 1.424-.256-2.432h1.216l-.272 2.432z"/></g><rect width="737" height="207" x="44" y="134" fill="#F5F5F5" rx="4"/><path fill="#000" d="m69.04 153.848-3.632 6.944V165h-1.456v-4.208l-3.648-6.944h1.616l2.752 5.648 2.752-5.648zm5.36 11.296a4.54 4.54 0 0 1-2.24-.56A4.07 4.07 0 0 1 70.592 163q-.56-1.04-.56-2.4 0-1.344.576-2.368a4 4 0 0 1 1.6-1.584q1.008-.56 2.256-.56t2.256.56q1.008.544 1.584 1.568.591 1.024.592 2.384 0 1.36-.608 2.4a4.1 4.1 0 0 1-1.616 1.584 4.66 4.66 0 0 1-2.272.56m0-1.28q.783 0 1.472-.368a2.75 2.75 0 0 0 1.104-1.104q.432-.736.432-1.792t-.416-1.792q-.417-.736-1.088-1.088a3 3 0 0 0-1.456-.368q-.8 0-1.472.368-.657.352-1.056 1.088-.4.736-.4 1.792 0 1.072.384 1.808.399.737 1.056 1.104.656.352 1.44.352m14.186-7.632V165H87.13v-1.296q-.415.672-1.168 1.056a3.6 3.6 0 0 1-1.632.368q-1.024 0-1.84-.416a3.2 3.2 0 0 1-1.296-1.28q-.464-.847-.464-2.064v-5.136h1.44v4.944q0 1.296.656 2 .657.688 1.792.688 1.168 0 1.84-.72t.672-2.096v-4.816zm3.915 1.424a2.8 2.8 0 0 1 1.087-1.168q.72-.416 1.745-.416v1.504h-.385q-2.447 0-2.447 2.656V165h-1.457v-8.768h1.457zm20.09-3.728V165h-1.456v-8.256l-3.68 8.256h-1.024l-3.696-8.272V165h-1.456v-11.072h1.568l4.096 9.152 4.096-9.152zm1.925 6.656q0-1.344.544-2.352a3.95 3.95 0 0 1 1.488-1.584 4.15 4.15 0 0 1 2.128-.56q1.152 0 2 .496.848.497 1.264 1.248v-1.6h1.472V165h-1.472v-1.632q-.432.768-1.296 1.28-.848.496-1.984.496a3.97 3.97 0 0 1-2.112-.576 4.05 4.05 0 0 1-1.488-1.616q-.544-1.04-.544-2.368m7.424.016q0-.992-.4-1.728a2.75 2.75 0 0 0-1.088-1.12 2.85 2.85 0 0 0-1.488-.4q-.816 0-1.488.384a2.8 2.8 0 0 0-1.072 1.12q-.4.737-.4 1.728 0 1.008.4 1.76.4.736 1.072 1.136.672.384 1.488.384t1.488-.384a2.86 2.86 0 0 0 1.088-1.136q.4-.752.4-1.744m7.037 4.544q-1.008 0-1.808-.336-.8-.353-1.264-.96a2.6 2.6 0 0 1-.512-1.424h1.504q.063.656.608 1.072.56.416 1.456.416.832 0 1.312-.368t.48-.928q0-.576-.512-.848-.513-.288-1.584-.56a13 13 0 0 1-1.6-.512 3 3 0 0 1-1.056-.784q-.432-.528-.432-1.376 0-.672.4-1.232t1.136-.88q.735-.336 1.68-.336 1.455 0 2.352.736.896.737.96 2.016h-1.456a1.5 1.5 0 0 0-.56-1.104q-.496-.416-1.344-.416-.784 0-1.248.336t-.464.88q0 .432.272.72.287.272.704.448.431.16 1.184.368.943.256 1.536.512.591.24 1.008.736.432.497.448 1.296 0 .72-.4 1.296t-1.136.912q-.72.32-1.664.32m8.359 0q-1.008 0-1.808-.336-.8-.353-1.264-.96a2.6 2.6 0 0 1-.512-1.424h1.504q.064.656.608 1.072.56.416 1.456.416.832 0 1.312-.368t.48-.928q0-.576-.512-.848-.512-.288-1.584-.56a13 13 0 0 1-1.6-.512 3 3 0 0 1-1.056-.784q-.432-.528-.432-1.376 0-.672.4-1.232t1.136-.88q.736-.336 1.68-.336 1.457 0 2.352.736.895.737.96 2.016H139a1.5 1.5 0 0 0-.56-1.104q-.496-.416-1.344-.416-.784 0-1.248.336t-.464.88q0 .432.272.72.288.272.704.448.432.16 1.184.368.944.256 1.536.512.593.24 1.008.736.432.497.448 1.296 0 .72-.4 1.296t-1.136.912q-.72.32-1.664.32m4.711-4.56q0-1.344.544-2.352a3.95 3.95 0 0 1 1.488-1.584 4.15 4.15 0 0 1 2.128-.56q1.152 0 2 .496.849.497 1.264 1.248v-1.6h1.472V165h-1.472v-1.632q-.432.768-1.296 1.28-.847.496-1.984.496a4 4 0 0 1-2.112-.576 4.05 4.05 0 0 1-1.488-1.616q-.544-1.04-.544-2.368m7.424.016q0-.992-.4-1.728a2.75 2.75 0 0 0-1.088-1.12 2.85 2.85 0 0 0-1.488-.4q-.816 0-1.488.384a2.8 2.8 0 0 0-1.072 1.12q-.4.737-.4 1.728 0 1.008.4 1.76.4.736 1.072 1.136.672.384 1.488.384t1.488-.384a2.86 2.86 0 0 0 1.088-1.136q.4-.752.4-1.744m7.549-4.512q1.136 0 1.984.496.864.497 1.28 1.248v-1.6h1.472v8.96q0 1.2-.512 2.128a3.6 3.6 0 0 1-1.472 1.472q-.944.528-2.208.528-1.728 0-2.88-.816t-1.36-2.224h1.44q.24.8.992 1.28.752.496 1.808.496 1.2 0 1.952-.752.768-.751.768-2.112v-1.84q-.432.768-1.28 1.28t-1.984.512a4.06 4.06 0 0 1-2.128-.576 4.05 4.05 0 0 1-1.488-1.616q-.544-1.04-.544-2.368 0-1.344.544-2.352a3.95 3.95 0 0 1 1.488-1.584 4.15 4.15 0 0 1 2.128-.56m3.264 4.512q0-.992-.4-1.728a2.75 2.75 0 0 0-1.088-1.12 2.85 2.85 0 0 0-1.488-.4q-.816 0-1.488.384a2.8 2.8 0 0 0-1.072 1.12q-.4.737-.4 1.728 0 1.008.4 1.76.4.736 1.072 1.136.672.384 1.488.384t1.488-.384a2.86 2.86 0 0 0 1.088-1.136q.4-.752.4-1.744m11.932-.32q0 .416-.048.88h-7.008q.08 1.296.88 2.032.816.72 1.968.72.944 0 1.568-.432.64-.448.896-1.184h1.568a3.8 3.8 0 0 1-1.408 2.064q-1.055.784-2.624.784-1.248 0-2.24-.56a4 4 0 0 1-1.536-1.584q-.56-1.04-.56-2.4t.544-2.384a3.8 3.8 0 0 1 1.52-1.568q.993-.56 2.272-.56 1.248 0 2.208.544a3.7 3.7 0 0 1 1.472 1.504q.528.944.528 2.144m-1.504-.304q0-.832-.368-1.424a2.3 2.3 0 0 0-1.008-.912 3 3 0 0 0-1.392-.32q-1.104 0-1.888.704-.768.704-.88 1.952z" opacity=".5"/><rect width="215" height="56" x="566" y="373" fill="#DB4444" rx="4"/><path fill="#FAFAFA" d="M618.864 407.112q-1.12 0-2.016-.384-.896-.4-1.408-1.12t-.512-1.68h1.952q.064.72.56 1.184.512.464 1.424.464.944 0 1.472-.448.528-.464.528-1.184 0-.56-.336-.912a2.1 2.1 0 0 0-.816-.544q-.48-.192-1.344-.416a14 14 0 0 1-1.776-.576 3 3 0 0 1-1.152-.928q-.48-.624-.48-1.664 0-.96.48-1.68t1.344-1.104 2-.384q1.615 0 2.64.816 1.04.8 1.152 2.208h-2.016q-.048-.608-.576-1.04t-1.392-.432q-.784 0-1.28.4t-.496 1.152q0 .512.304.848.32.32.8.512t1.312.416q1.104.304 1.792.608.704.304 1.184.944.496.624.496 1.68a3 3 0 0 1-.464 1.6q-.448.752-1.328 1.216-.864.448-2.048.448m14.072-4.736q0 .496-.064.896h-6.736q.08 1.056.784 1.696t1.728.64q1.473 0 2.08-1.232h1.968a4 4 0 0 1-1.456 2q-1.04.768-2.592.768-1.264 0-2.272-.56a4.2 4.2 0 0 1-1.568-1.6q-.56-1.04-.56-2.4t.544-2.384a3.94 3.94 0 0 1 1.552-1.6q1.008-.56 2.304-.56 1.248 0 2.224.544a3.83 3.83 0 0 1 1.52 1.536q.544.976.544 2.256m-1.904-.576q-.015-1.008-.72-1.616-.703-.608-1.744-.608-.944 0-1.616.608-.671.592-.8 1.616zm8.147-3.76q1.04 0 1.856.432.832.432 1.296 1.28t.464 2.048v5.2h-1.808v-4.928q0-1.184-.592-1.808-.591-.64-1.616-.64-1.023 0-1.632.64-.591.624-.592 1.808V407h-1.824v-8.816h1.824v1.008a3.04 3.04 0 0 1 1.136-.848q.705-.304 1.488-.304m5.335 4.512q0-1.327.544-2.352a4.06 4.06 0 0 1 3.632-2.16 4 4 0 0 1 1.696.384q.848.368 1.344.992v-4.256h1.84V407h-1.84v-1.328q-.448.64-1.248 1.056-.784.416-1.808.416a4.03 4.03 0 0 1-2.112-.576 4.3 4.3 0 0 1-1.504-1.632q-.544-1.056-.544-2.384m7.216.032q0-.912-.384-1.584a2.6 2.6 0 0 0-.976-1.024 2.57 2.57 0 0 0-1.312-.352q-.704 0-1.312.352a2.6 2.6 0 0 0-.992 1.008q-.368.656-.368 1.568t.368 1.6q.384.689.992 1.056a2.63 2.63 0 0 0 2.624 0q.608-.352.976-1.024.384-.688.384-1.6m20.104-6.704V407h-1.824v-7.616L666.618 407h-1.264l-3.408-7.616V407h-1.824v-11.12h1.968l3.904 8.72 3.888-8.72zm1.789 6.672q0-1.327.544-2.352a4.07 4.07 0 0 1 3.616-2.16q1.04 0 1.808.416.784.4 1.248 1.008v-1.28h1.84V407h-1.84v-1.312q-.463.624-1.264 1.04t-1.824.416a3.9 3.9 0 0 1-2.08-.576 4.3 4.3 0 0 1-1.504-1.632q-.543-1.056-.544-2.384m7.216.032q0-.912-.384-1.584a2.6 2.6 0 0 0-.976-1.024 2.57 2.57 0 0 0-1.312-.352q-.703 0-1.312.352a2.6 2.6 0 0 0-.992 1.008q-.368.656-.368 1.568t.368 1.6q.384.689.992 1.056a2.63 2.63 0 0 0 2.624 0 2.6 2.6 0 0 0 .976-1.024q.384-.688.384-1.6m7.436 4.56q-1.04 0-1.872-.368-.816-.384-1.296-1.024a2.6 2.6 0 0 1-.512-1.456h1.888q.048.56.528.944.496.368 1.232.368.768 0 1.184-.288.432-.304.432-.768 0-.496-.48-.736-.463-.24-1.488-.528-.992-.272-1.616-.528a2.9 2.9 0 0 1-1.088-.784q-.448-.528-.448-1.392 0-.704.416-1.28.416-.592 1.184-.928.784-.336 1.792-.336 1.504 0 2.416.768.928.751.992 2.064h-1.824a1.3 1.3 0 0 0-.48-.944q-.432-.352-1.168-.352-.72 0-1.104.272a.84.84 0 0 0-.384.72q0 .352.256.592t.624.384q.368.127 1.088.336.96.257 1.568.528.624.257 1.072.768.448.512.464 1.36 0 .751-.416 1.344-.416.592-1.184.928-.751.336-1.776.336m8.547 0q-1.04 0-1.872-.368-.816-.384-1.296-1.024a2.6 2.6 0 0 1-.512-1.456h1.888q.048.56.528.944.496.368 1.232.368.768 0 1.184-.288.432-.304.432-.768 0-.496-.48-.736-.463-.24-1.488-.528-.992-.272-1.616-.528a2.9 2.9 0 0 1-1.088-.784q-.448-.528-.448-1.392 0-.704.416-1.28.416-.592 1.184-.928.784-.336 1.792-.336 1.504 0 2.416.768.928.751.992 2.064h-1.824a1.3 1.3 0 0 0-.48-.944q-.432-.352-1.168-.352-.72 0-1.104.272a.84.84 0 0 0-.384.72q0 .352.256.592.257.24.624.384.368.127 1.088.336.96.257 1.568.528.624.257 1.072.768.448.512.464 1.36 0 .751-.416 1.344-.416.592-1.184.928-.751.336-1.776.336m4.739-4.592q0-1.327.544-2.352a4.05 4.05 0 0 1 1.504-1.584 4.03 4.03 0 0 1 2.112-.576q1.04 0 1.808.416.783.4 1.248 1.008v-1.28h1.84V407h-1.84v-1.312q-.465.624-1.264 1.04-.801.416-1.824.416a3.9 3.9 0 0 1-2.08-.576 4.3 4.3 0 0 1-1.504-1.632q-.544-1.056-.544-2.384m7.216.032q0-.912-.384-1.584a2.6 2.6 0 0 0-.976-1.024 2.6 2.6 0 0 0-1.312-.352q-.705 0-1.312.352-.608.336-.992 1.008-.369.656-.368 1.568 0 .912.368 1.6.384.689.992 1.056a2.63 2.63 0 0 0 2.624 0q.607-.352.976-1.024.384-.688.384-1.6m7.788-4.544q1.023 0 1.808.416.8.4 1.248 1.008v-1.28h1.84v8.96q0 1.216-.512 2.16a3.7 3.7 0 0 1-1.488 1.504q-.96.544-2.304.544-1.793 0-2.976-.848-1.185-.832-1.344-2.272h1.808q.207.689.88 1.104.687.432 1.632.432 1.104 0 1.776-.672.687-.672.688-1.952v-1.472q-.465.624-1.264 1.056-.784.416-1.792.416a4.03 4.03 0 0 1-2.112-.576 4.3 4.3 0 0 1-1.504-1.632q-.544-1.056-.544-2.384t.544-2.352a4.05 4.05 0 0 1 1.504-1.584 4.03 4.03 0 0 1 2.112-.576m3.056 4.544q0-.912-.384-1.584a2.6 2.6 0 0 0-.976-1.024 2.6 2.6 0 0 0-1.312-.352q-.705 0-1.312.352-.608.336-.992 1.008-.369.656-.368 1.568 0 .912.368 1.6.384.689.992 1.056a2.63 2.63 0 0 0 2.624 0q.607-.352.976-1.024.384-.688.384-1.6m12.315-.208q0 .496-.064.896h-6.736q.08 1.056.784 1.696t1.728.64q1.473 0 2.08-1.232h1.968a4 4 0 0 1-1.456 2q-1.04.768-2.592.768-1.263 0-2.272-.56a4.2 4.2 0 0 1-1.568-1.6q-.56-1.04-.56-2.4t.544-2.384a3.94 3.94 0 0 1 1.552-1.6q1.008-.56 2.304-.56 1.249 0 2.224.544a3.83 3.83 0 0 1 1.52 1.536q.544.976.544 2.256m-1.904-.576q-.015-1.008-.72-1.616-.703-.608-1.744-.608-.944 0-1.616.608-.671.592-.8 1.616z"/></g><defs><filter id="a" width="826" height="483" x="0" y="0" color-interpolation-filters="sRGB" filterUnits="userSpaceOnUse"><feFlood flood-opacity="0" result="BackgroundImageFix"/><feColorMatrix in="SourceAlpha" result="hardAlpha" values="0 0 0 0 0 0 0 0 0 0 0 0 0 0 0 0 0 0 127 0"/><feOffset dy="1"/><feGaussianBlur stdDeviation="6.5"/><feComposite in2="hardAlpha" operator="out"/><feColorMatrix values="0 0 0 0 0 0 0 0 0 0 0 0 0 0 0 0 0 0 0.05 0"/><feBlend in2="BackgroundImageFix" result="effect1_dropShadow_210_4481"/><feBlend in="SourceGraphic" in2="effect1_dropShadow_210_4481" result="shape"/></filter></defs></svg>