<svg xmlns="http://www.w3.org/2000/svg" width="366" height="483" fill="none"><g filter="url(#a)"><rect width="340" height="457" x="13" y="12" fill="#fff" rx="4"/><rect width="40" height="40" x="48" y="52" fill="#DB4444" rx="20"/><path stroke="#fff" stroke-linecap="round" stroke-linejoin="round" stroke-width="1.5" d="m66.554 66.24-3.383-3.905c-.39-.45-1.105-.448-1.558.006l-2.782 2.787c-.828.829-1.065 2.06-.586 3.047a29.2 29.2 0 0 0 13.561 13.58c.986.479 2.216.242 3.044-.587l2.808-2.813c.455-.455.456-1.174.002-1.564l-3.92-3.365c-.41-.352-1.047-.306-1.458.106l-1.364 1.366a.46.46 0 0 1-.553.088 14.56 14.56 0 0 1-5.36-5.367.46.46 0 0 1 .088-.554l1.36-1.361c.412-.414.457-1.054.101-1.465z"/><path fill="#000" d="M104.592 72.416q0-1.632.752-2.928a5.43 5.43 0 0 1 2.064-2.016 5.76 5.76 0 0 1 2.864-.736q1.776 0 3.152.88 1.392.864 2.016 2.464h-2.192q-.432-.88-1.2-1.312t-1.776-.432q-1.104 0-1.968.496a3.5 3.5 0 0 0-1.36 1.424q-.48.928-.48 2.16 0 1.231.48 2.16a3.6 3.6 0 0 0 1.36 1.44q.864.495 1.968.496 1.008 0 1.776-.432t1.2-1.312h2.192q-.624 1.6-2.016 2.464-1.376.864-3.152.864-1.568 0-2.864-.72a5.55 5.55 0 0 1-2.064-2.032q-.752-1.296-.752-2.928m12.375 1.136q0-1.328.544-2.352a4.06 4.06 0 0 1 3.616-2.16q1.04 0 1.808.416.784.4 1.248 1.008v-1.28h1.84V78h-1.84v-1.312q-.464.624-1.264 1.04t-1.824.416a3.9 3.9 0 0 1-2.08-.576 4.3 4.3 0 0 1-1.504-1.632q-.544-1.056-.544-2.384m7.216.032q0-.912-.384-1.584a2.6 2.6 0 0 0-.976-1.024 2.6 2.6 0 0 0-1.312-.352q-.704 0-1.312.352a2.6 2.6 0 0 0-.992 1.008q-.368.656-.368 1.568t.368 1.6q.384.688.992 1.056a2.63 2.63 0 0 0 1.312.352q.704 0 1.312-.352t.976-1.024q.384-.688.384-1.6m6.06-7.424V78h-1.824V66.16zm4.219 0V78h-1.824V66.16zm13.735.72v1.488h-2.96V78h-1.824v-9.632h-2.976V66.88zm5.671 11.264q-1.248 0-2.256-.56a4.15 4.15 0 0 1-1.584-1.6q-.576-1.04-.576-2.4 0-1.343.592-2.384a4.1 4.1 0 0 1 1.616-1.6q1.023-.56 2.288-.56 1.263 0 2.288.56a4.1 4.1 0 0 1 1.616 1.6q.592 1.04.592 2.384t-.608 2.384a4.26 4.26 0 0 1-1.664 1.616 4.8 4.8 0 0 1-2.304.56m0-1.584q.703 0 1.312-.336.624-.336 1.008-1.008t.384-1.632-.368-1.616a2.5 2.5 0 0 0-.976-1.008 2.7 2.7 0 0 0-1.312-.336q-.705 0-1.312.336-.593.336-.944 1.008-.352.656-.352 1.616 0 1.424.72 2.208.736.768 1.84.768m12.343-9.68v7.088q0 1.264.656 1.904.672.64 1.856.64 1.2 0 1.856-.64.672-.64.672-1.904V66.88h1.824v7.056q0 1.36-.592 2.304a3.7 3.7 0 0 1-1.584 1.408q-.992.465-2.192.464-1.2 0-2.192-.464a3.6 3.6 0 0 1-1.552-1.408q-.576-.944-.576-2.304V66.88zm12.439 11.264q-1.04 0-1.872-.368-.816-.384-1.296-1.024a2.6 2.6 0 0 1-.512-1.456h1.888q.048.56.528.944.496.368 1.232.368.768 0 1.184-.288.432-.305.432-.768 0-.495-.48-.736-.463-.24-1.488-.528-.992-.271-1.616-.528a2.9 2.9 0 0 1-1.088-.784q-.448-.528-.448-1.392 0-.704.416-1.28.416-.592 1.184-.928.784-.336 1.792-.336 1.504 0 2.416.768.928.752.992 2.064h-1.824a1.3 1.3 0 0 0-.48-.944q-.432-.352-1.168-.352-.72 0-1.104.272a.84.84 0 0 0-.384.72q0 .352.256.592t.624.384q.368.127 1.088.336.96.256 1.568.528.624.256 1.072.768t.464 1.36q0 .752-.416 1.344t-1.184.928q-.751.336-1.776.336M61.342 121.242 58.514 131h-1.428l-2.268-7.854L52.466 131l-1.414.014-2.73-9.772h1.358l2.128 8.274 2.352-8.274h1.428l2.24 8.246 2.142-8.246zm8.394 5.628q0 .364-.042.77h-6.132q.07 1.134.77 1.778.714.63 1.722.63.825 0 1.372-.378.56-.392.784-1.036h1.372a3.33 3.33 0 0 1-1.232 1.806q-.924.686-2.296.686-1.092 0-1.96-.49a3.5 3.5 0 0 1-1.344-1.386q-.49-.91-.49-2.1t.476-2.086a3.3 3.3 0 0 1 1.33-1.372q.869-.49 1.988-.49 1.092 0 1.932.476t1.288 1.316q.462.826.462 1.876m-1.316-.266q0-.728-.322-1.246a2 2 0 0 0-.882-.798 2.6 2.6 0 0 0-1.218-.28q-.966 0-1.652.616-.672.616-.77 1.708zm6.254.532q0-1.176.476-2.058a3.46 3.46 0 0 1 1.302-1.386q.84-.49 1.862-.49 1.008 0 1.75.434.743.434 1.106 1.092v-1.4h1.288V131H81.17v-1.428q-.378.672-1.134 1.12-.741.434-1.736.434a3.5 3.5 0 0 1-1.848-.504 3.53 3.53 0 0 1-1.302-1.414q-.476-.91-.476-2.072m6.496.014q0-.868-.35-1.512a2.4 2.4 0 0 0-.952-.98 2.5 2.5 0 0 0-1.302-.35q-.714 0-1.302.336a2.44 2.44 0 0 0-.938.98q-.35.644-.35 1.512 0 .882.35 1.54.35.644.938.994.588.336 1.302.336t1.302-.336q.603-.35.952-.994.35-.658.35-1.526m4.715-2.576q.336-.658.952-1.022.63-.364 1.526-.364v1.316h-.336q-2.142 0-2.142 2.324V131h-1.274v-7.672h1.274zm10.949 2.296q0 .364-.042.77H90.66q.07 1.134.77 1.778.714.63 1.722.63.825 0 1.372-.378.56-.392.784-1.036h1.372a3.34 3.34 0 0 1-1.232 1.806q-.924.686-2.296.686-1.093 0-1.96-.49a3.5 3.5 0 0 1-1.344-1.386q-.49-.91-.49-2.1t.476-2.086a3.3 3.3 0 0 1 1.33-1.372q.868-.49 1.988-.49 1.092 0 1.932.476t1.288 1.316q.462.826.462 1.876m-1.316-.266q0-.728-.322-1.246a2 2 0 0 0-.882-.798 2.6 2.6 0 0 0-1.218-.28q-.966 0-1.652.616-.672.616-.77 1.708zm6.254.532q0-1.176.476-2.058a3.46 3.46 0 0 1 1.302-1.386 3.6 3.6 0 0 1 1.862-.49q1.008 0 1.75.434t1.106 1.092v-1.4h1.288V131h-1.288v-1.428q-.378.672-1.134 1.12-.742.434-1.736.434a3.5 3.5 0 0 1-1.848-.504 3.53 3.53 0 0 1-1.302-1.414q-.476-.91-.476-2.072m6.496.014q0-.868-.35-1.512a2.4 2.4 0 0 0-.952-.98 2.5 2.5 0 0 0-1.302-.35q-.714 0-1.302.336a2.44 2.44 0 0 0-.938.98q-.35.644-.35 1.512 0 .882.35 1.54.35.644.938.994.588.336 1.302.336t1.302-.336q.602-.35.952-.994.35-.658.35-1.526m6.297 2.674 2.38-6.496h1.358l-3.01 7.672h-1.484l-3.01-7.672h1.372zm4.516-2.688q0-1.176.476-2.058a3.46 3.46 0 0 1 1.302-1.386q.84-.49 1.862-.49 1.008 0 1.75.434.741.434 1.106 1.092v-1.4h1.288V131h-1.288v-1.428q-.378.672-1.134 1.12-.743.434-1.736.434a3.47 3.47 0 0 1-1.848-.504 3.53 3.53 0 0 1-1.302-1.414q-.477-.91-.476-2.072m6.496.014q0-.868-.35-1.512a2.4 2.4 0 0 0-.952-.98 2.5 2.5 0 0 0-1.302-.35q-.714 0-1.302.336a2.44 2.44 0 0 0-.938.98q-.35.644-.35 1.512 0 .882.35 1.54.35.644.938.994.588.336 1.302.336t1.302-.336q.601-.35.952-.994.35-.658.35-1.526m4.098-5.068a.84.84 0 0 1-.616-.252.84.84 0 0 1-.252-.616q0-.364.252-.616a.84.84 0 0 1 .616-.252q.351 0 .588.252a.84.84 0 0 1 .252.616.84.84 0 0 1-.252.616.78.78 0 0 1-.588.252m.616 1.246V131h-1.274v-7.672zm3.446-2.688V131h-1.274v-10.36zm1.695 6.496q0-1.176.476-2.058a3.46 3.46 0 0 1 1.302-1.386 3.6 3.6 0 0 1 1.862-.49q1.008 0 1.75.434t1.106 1.092v-1.4h1.288V131h-1.288v-1.428q-.378.672-1.134 1.12-.742.434-1.736.434a3.5 3.5 0 0 1-1.848-.504 3.53 3.53 0 0 1-1.302-1.414q-.476-.91-.476-2.072m6.496.014q0-.868-.35-1.512a2.4 2.4 0 0 0-.952-.98 2.5 2.5 0 0 0-1.302-.35q-.714 0-1.302.336a2.44 2.44 0 0 0-.938.98q-.35.644-.35 1.512 0 .882.35 1.54.35.644.938.994.588.336 1.302.336t1.302-.336q.602-.35.952-.994.35-.658.35-1.526m4.715-2.394a3 3 0 0 1 1.148-1.12q.756-.434 1.722-.434 1.036 0 1.862.49t1.302 1.386q.476.882.476 2.058 0 1.162-.476 2.072a3.5 3.5 0 0 1-1.316 1.414 3.5 3.5 0 0 1-1.848.504q-.994 0-1.75-.434-.742-.434-1.12-1.106V131h-1.274v-10.36h1.274zm5.208 2.38q0-.868-.35-1.512a2.4 2.4 0 0 0-.952-.98 2.6 2.6 0 0 0-1.302-.336q-.7 0-1.302.35a2.5 2.5 0 0 0-.952.994q-.35.644-.35 1.498 0 .868.35 1.526.364.644.952.994.602.336 1.302.336.714 0 1.302-.336.602-.35.952-.994.35-.658.35-1.54m4.253-6.496V131h-1.274v-10.36zm9.171 6.23q0 .364-.042.77h-6.132q.07 1.134.77 1.778.714.63 1.722.63.826 0 1.372-.378.56-.392.784-1.036h1.372a3.33 3.33 0 0 1-1.232 1.806q-.924.686-2.296.686-1.092 0-1.96-.49a3.5 3.5 0 0 1-1.344-1.386q-.49-.91-.49-2.1t.476-2.086a3.3 3.3 0 0 1 1.33-1.372q.869-.49 1.988-.49 1.092 0 1.932.476t1.288 1.316q.462.826.462 1.876m-1.316-.266q0-.728-.322-1.246a2 2 0 0 0-.882-.798 2.6 2.6 0 0 0-1.218-.28q-.966 0-1.652.616-.672.616-.77 1.708zm6.366 3.374a66 66 0 0 0 2.786-2.338 11.4 11.4 0 0 0 1.694-1.918q.7-1.008.7-1.974 0-.91-.448-1.428-.433-.532-1.414-.532-.951 0-1.484.602-.518.588-.56 1.582h-1.232q.057-1.568.952-2.422.897-.854 2.31-.854 1.442 0 2.282.798.855.798.854 2.198 0 1.163-.7 2.268a10 10 0 0 1-1.568 1.932 41 41 0 0 1-2.254 1.932h4.816v1.064h-6.734zm7.899-1.232v-.966l4.914-6.804h1.526v6.664h1.4v1.106h-1.4V131h-1.26v-2.254zm5.236-6.44-3.766 5.334h3.766zm8.847-4.494-3.836 15.568h-1.26l3.822-15.568zm7.918 4.06L196.333 131h-1.288l3.948-9.002h-5.404v-1.092h6.636zm2.939 7.364-1.568 3.766h-.854l1.022-3.766zm11.211-7.364L210.483 131h-1.288l3.948-9.002h-5.404v-1.092h6.636zm4.879 5.264q0-1.176.476-2.058a3.47 3.47 0 0 1 1.302-1.386 3.65 3.65 0 0 1 1.876-.49q.897 0 1.666.42.771.406 1.176 1.078v-4.06h1.288V131h-1.288v-1.442a3.03 3.03 0 0 1-1.12 1.134q-.741.434-1.736.434a3.55 3.55 0 0 1-1.862-.504 3.54 3.54 0 0 1-1.302-1.414q-.476-.91-.476-2.072m6.496.014q0-.868-.35-1.512a2.4 2.4 0 0 0-.952-.98 2.5 2.5 0 0 0-1.302-.35q-.714 0-1.302.336a2.44 2.44 0 0 0-.938.98q-.35.644-.35 1.512 0 .882.35 1.54.35.644.938.994.588.336 1.302.336t1.302-.336q.603-.35.952-.994.35-.658.35-1.526m2.965-.014q0-1.176.476-2.058a3.47 3.47 0 0 1 1.302-1.386 3.6 3.6 0 0 1 1.862-.49q1.008 0 1.75.434.743.434 1.106 1.092v-1.4h1.288V131h-1.288v-1.428q-.378.672-1.134 1.12-.741.434-1.736.434a3.5 3.5 0 0 1-1.848-.504 3.54 3.54 0 0 1-1.302-1.414q-.476-.91-.476-2.072m6.496.014q0-.868-.35-1.512a2.4 2.4 0 0 0-.952-.98 2.5 2.5 0 0 0-1.302-.35q-.714 0-1.302.336a2.44 2.44 0 0 0-.938.98q-.35.644-.35 1.512 0 .882.35 1.54.35.644.938.994.588.336 1.302.336t1.302-.336q.603-.35.952-.994.35-.658.35-1.526m10.049-3.822-4.62 11.284h-1.316l1.512-3.696-3.094-7.588h1.414l2.408 6.216 2.38-6.216zm3.997 7.798a4.1 4.1 0 0 1-1.582-.294q-.7-.308-1.106-.84a2.27 2.27 0 0 1-.448-1.246h1.316q.056.574.532.938.49.364 1.274.364.728 0 1.148-.322t.42-.812a.79.79 0 0 0-.448-.742q-.448-.252-1.386-.49a11 11 0 0 1-1.4-.448 2.65 2.65 0 0 1-.924-.686q-.378-.462-.378-1.204 0-.588.35-1.078t.994-.77q.643-.294 1.47-.294 1.273 0 2.058.644t.84 1.764h-1.274a1.3 1.3 0 0 0-.49-.966q-.433-.364-1.176-.364-.686 0-1.092.294t-.406.77a.88.88 0 0 0 .238.63q.252.238.616.392.378.14 1.036.322.826.224 1.344.448.518.21.882.644.378.434.392 1.134 0 .63-.35 1.134t-.994.798q-.63.28-1.456.28m7.855-3.99q0-1.176.476-2.058a3.46 3.46 0 0 1 1.302-1.386q.84-.49 1.862-.49 1.008 0 1.75.434.741.434 1.106 1.092v-1.4h1.288V131h-1.288v-1.428q-.378.672-1.134 1.12-.743.434-1.736.434a3.47 3.47 0 0 1-1.848-.504 3.53 3.53 0 0 1-1.302-1.414q-.476-.91-.476-2.072m6.496.014q0-.868-.35-1.512a2.4 2.4 0 0 0-.952-.98 2.5 2.5 0 0 0-1.302-.35q-.714 0-1.302.336a2.44 2.44 0 0 0-.938.98q-.35.644-.35 1.512 0 .882.35 1.54.35.644.938.994.588.336 1.302.336t1.302-.336q.601-.35.952-.994.35-.658.35-1.526m17.393-3.822L278.607 131h-1.316l-1.848-6.09-1.848 6.09h-1.316l-2.408-7.672h1.302l1.764 6.44 1.904-6.44h1.302l1.862 6.454 1.736-6.454zm8.265 3.542q0 .364-.042.77h-6.132q.07 1.134.77 1.778.714.63 1.722.63.825 0 1.372-.378.56-.392.784-1.036h1.372a3.34 3.34 0 0 1-1.232 1.806q-.925.686-2.296.686-1.093 0-1.96-.49a3.5 3.5 0 0 1-1.344-1.386q-.49-.91-.49-2.1t.476-2.086a3.3 3.3 0 0 1 1.33-1.372q.867-.49 1.988-.49 1.092 0 1.932.476t1.288 1.316q.462.826.462 1.876m-1.316-.266q0-.728-.322-1.246a2.03 2.03 0 0 0-.882-.798 2.6 2.6 0 0 0-1.218-.28q-.966 0-1.652.616-.672.616-.77 1.708zm9.997.266q0 .364-.042.77h-6.132q.07 1.134.77 1.778.714.63 1.722.63.826 0 1.372-.378.56-.392.784-1.036h1.372a3.33 3.33 0 0 1-1.232 1.806q-.924.686-2.296.686-1.092 0-1.96-.49a3.5 3.5 0 0 1-1.344-1.386q-.49-.91-.49-2.1t.476-2.086a3.3 3.3 0 0 1 1.33-1.372q.868-.49 1.988-.49 1.092 0 1.932.476t1.288 1.316q.462.826.462 1.876m-1.316-.266q0-.728-.322-1.246a2.03 2.03 0 0 0-.882-.798 2.6 2.6 0 0 0-1.218-.28q-.966 0-1.652.616-.672.616-.77 1.708zm7.282 4.396-3.01-3.388V131h-1.274v-10.36h1.274v6.09l2.954-3.402h1.778l-3.612 3.822 3.626 3.85zm3.327.084a.84.84 0 0 1-.616-.252.84.84 0 0 1-.252-.616q0-.364.252-.616a.84.84 0 0 1 .616-.252q.35 0 .588.252a.84.84 0 0 1 .252.616.84.84 0 0 1-.252.616.78.78 0 0 1-.588.252M55.602 161.098q0 1.218-.84 2.03-.825.798-2.534.798h-1.876V168h-1.274v-9.758h3.15q1.652 0 2.506.798.868.798.868 2.058m-3.374 1.778q1.065 0 1.568-.462t.504-1.316q0-1.806-2.072-1.806h-1.876v3.584zm8.765-2.688q.87 0 1.568.378.7.364 1.092 1.106.406.742.406 1.806V168H62.8v-4.34q.001-1.148-.574-1.75-.573-.616-1.568-.616-1.007 0-1.61.63-.588.63-.588 1.834V168h-1.274v-10.36h1.274v3.78a2.5 2.5 0 0 1 1.036-.91 3.4 3.4 0 0 1 1.498-.322m8.494 7.938a3.96 3.96 0 0 1-1.96-.49 3.57 3.57 0 0 1-1.373-1.386q-.49-.91-.49-2.1 0-1.176.504-2.072a3.5 3.5 0 0 1 1.4-1.386q.882-.49 1.975-.49 1.09 0 1.973.49a3.44 3.44 0 0 1 1.386 1.372q.519.896.519 2.086t-.533 2.1a3.6 3.6 0 0 1-1.413 1.386 4.1 4.1 0 0 1-1.988.49m0-1.12q.685 0 1.288-.322a2.4 2.4 0 0 0 .965-.966q.38-.644.379-1.568 0-.924-.365-1.568-.364-.644-.952-.952a2.6 2.6 0 0 0-1.274-.322q-.7 0-1.288.322-.573.308-.923.952t-.35 1.568q0 .938.335 1.582.351.643.924.966.574.308 1.26.308m9.347-6.818q1.4 0 2.268.854.867.84.868 2.436V168h-1.26v-4.34q0-1.148-.574-1.75-.575-.616-1.568-.616-1.009 0-1.61.63-.588.63-.588 1.834V168h-1.274v-7.672h1.274v1.092a2.54 2.54 0 0 1 1.022-.91q.657-.322 1.442-.322m12.217 3.682q0 .364-.042.77h-6.132q.07 1.134.77 1.778.714.63 1.722.63.825 0 1.372-.378.56-.392.784-1.036h1.372a3.34 3.34 0 0 1-1.232 1.806q-.924.686-2.296.686-1.093 0-1.96-.49a3.5 3.5 0 0 1-1.344-1.386q-.49-.91-.49-2.1t.476-2.086a3.3 3.3 0 0 1 1.33-1.372q.867-.49 1.988-.49 1.092 0 1.932.476t1.288 1.316q.462.826.462 1.876m-1.316-.266q0-.728-.322-1.246a2 2 0 0 0-.882-.798 2.6 2.6 0 0 0-1.218-.28q-.966 0-1.652.616-.672.616-.77 1.708zm3.403 4.48a.84.84 0 0 1-.616-.252.84.84 0 0 1-.252-.616q0-.364.252-.616a.84.84 0 0 1 .616-.252q.351 0 .588.252a.84.84 0 0 1 .252.616.84.84 0 0 1-.252.616.78.78 0 0 1-.588.252m0-5.992a.84.84 0 0 1-.616-.252.84.84 0 0 1-.252-.616q0-.364.252-.616a.84.84 0 0 1 .616-.252q.351 0 .588.252a.84.84 0 0 1 .252.616.84.84 0 0 1-.252.616.78.78 0 0 1-.588.252m13.587 1.33h-2.982v3.024h-1.19v-3.024h-2.968v-1.078h2.968v-3.038h1.19v3.038h2.982zm3.915-.686q-.784-.308-1.204-.896t-.42-1.428a2.5 2.5 0 0 1 .378-1.358q.378-.617 1.12-.966.755-.364 1.82-.364t1.806.364q.756.35 1.134.966.392.602.392 1.358a2.42 2.42 0 0 1-.434 1.428q-.435.602-1.19.896.868.266 1.372.938.518.659.518 1.596 0 .91-.448 1.596-.449.672-1.274 1.05-.813.364-1.876.364-1.065 0-1.876-.364a3 3 0 0 1-1.246-1.05q-.448-.685-.448-1.596 0-.938.504-1.61t1.372-.924m3.794-2.17q0-.854-.56-1.316t-1.54-.462q-.966 0-1.526.462t-.56 1.33q0 .785.574 1.26.588.476 1.512.476.938 0 1.512-.476a1.58 1.58 0 0 0 .588-1.274m-2.1 2.73q-1.037 0-1.694.49-.658.476-.658 1.442 0 .896.63 1.442.643.546 1.722.546 1.077 0 1.708-.546.63-.546.63-1.442 0-.937-.644-1.428-.645-.504-1.694-.504m7.138-.56q-.784-.308-1.204-.896t-.42-1.428a2.5 2.5 0 0 1 .378-1.358q.378-.617 1.12-.966.756-.364 1.82-.364t1.806.364q.756.35 1.134.966.392.602.392 1.358a2.42 2.42 0 0 1-.434 1.428q-.434.602-1.19.896.868.266 1.372.938.518.659.518 1.596 0 .91-.448 1.596-.448.672-1.274 1.05-.812.364-1.876.364t-1.876-.364a3 3 0 0 1-1.246-1.05q-.448-.685-.448-1.596 0-.938.504-1.61t1.372-.924m3.794-2.17q0-.854-.56-1.316t-1.54-.462q-.966 0-1.526.462t-.56 1.33q0 .785.574 1.26.588.476 1.512.476.938 0 1.512-.476a1.58 1.58 0 0 0 .588-1.274m-2.1 2.73q-1.036 0-1.694.49-.658.476-.658 1.442 0 .896.63 1.442.644.546 1.722.546t1.708-.546.63-1.442q0-.937-.644-1.428-.644-.504-1.694-.504m5.29-.462q0-2.408.784-3.752.784-1.358 2.744-1.358 1.946 0 2.73 1.358.784 1.344.784 3.752 0 2.45-.784 3.808t-2.73 1.358q-1.96 0-2.744-1.358t-.784-3.808m5.782 0q0-1.218-.168-2.058-.154-.854-.658-1.372-.49-.518-1.428-.518-.952 0-1.456.518-.49.518-.658 1.372-.154.84-.154 2.058 0 1.26.154 2.114.168.854.658 1.372.504.518 1.456.518.937 0 1.428-.518.504-.518.658-1.372.168-.854.168-2.114m2.673-3.794v-1.162h2.632V168h-1.288v-8.96zm10.462 1.246q-.307-1.554-1.918-1.554-1.245 0-1.862.966-.615.953-.602 3.15.323-.728 1.064-1.134a3.4 3.4 0 0 1 1.68-.42q1.443 0 2.296.896.868.895.868 2.478 0 .952-.378 1.708a2.8 2.8 0 0 1-1.12 1.204q-.741.448-1.806.448-1.441 0-2.254-.644t-1.134-1.778-.322-2.8q0-5.138 3.584-5.138 1.373 0 2.156.742t.924 1.876zm-1.904 2.086q-.601 0-1.134.252a2.03 2.03 0 0 0-.868.742q-.321.49-.322 1.204 0 1.064.616 1.736.617.658 1.764.658.981 0 1.554-.602.588-.616.588-1.652 0-1.092-.56-1.708-.56-.63-1.638-.63m4.813-3.332v-1.162h2.632V168h-1.288v-8.96zm4.484 0v-1.162h2.632V168h-1.288v-8.96zm4.485 0v-1.162h2.632V168h-1.288v-8.96zm4.484 0v-1.162h2.632V168h-1.288v-8.96zm4.667 7.938q1.778-1.428 2.786-2.338a11.4 11.4 0 0 0 1.694-1.918q.7-1.008.7-1.974 0-.91-.448-1.428-.435-.532-1.414-.532-.953 0-1.484.602-.519.588-.56 1.582h-1.232q.055-1.568.952-2.422.895-.854 2.31-.854 1.442 0 2.282.798.854.798.854 2.198 0 1.163-.7 2.268-.686 1.092-1.568 1.932a41 41 0 0 1-2.254 1.932h4.816v1.064h-6.734zm8.052 0a66 66 0 0 0 2.786-2.338 11.4 11.4 0 0 0 1.694-1.918q.7-1.008.7-1.974 0-.91-.448-1.428-.433-.532-1.414-.532-.951 0-1.484.602-.518.588-.56 1.582h-1.232q.057-1.568.952-2.422.897-.854 2.31-.854 1.442 0 2.282.798.855.798.854 2.198 0 1.163-.7 2.268a10 10 0 0 1-1.568 1.932 41 41 0 0 1-2.254 1.932h4.816v1.064h-6.734zm8.053 0q1.778-1.428 2.786-2.338a11.4 11.4 0 0 0 1.694-1.918q.7-1.008.7-1.974 0-.91-.448-1.428-.434-.532-1.414-.532-.952 0-1.484.602-.518.588-.56 1.582h-1.232q.056-1.568.952-2.422t2.31-.854q1.442 0 2.282.798.854.798.854 2.198 0 1.163-.7 2.268a10 10 0 0 1-1.568 1.932 41 41 0 0 1-2.254 1.932h4.816v1.064h-6.734zm8.053 0q1.778-1.428 2.786-2.338a11.4 11.4 0 0 0 1.694-1.918q.7-1.008.7-1.974 0-.91-.448-1.428-.435-.532-1.414-.532-.953 0-1.484.602-.519.588-.56 1.582h-1.232q.055-1.568.952-2.422.895-.854 2.31-.854 1.442 0 2.282.798.854.798.854 2.198 0 1.163-.7 2.268-.686 1.092-1.568 1.932a41 41 0 0 1-2.254 1.932h4.816v1.064h-6.734z"/><path stroke="#000" d="M48 205.5h270" opacity=".5"/><rect width="40" height="40" x="48" y="238" fill="#DB4444" rx="20"/><path stroke="#fff" stroke-linecap="round" stroke-linejoin="round" stroke-width="1.5" d="m58 251 10 7 10-7m-20 14h20v-14H58z"/><path fill="#000" d="M119.68 252.88 116.384 264h-2.064l-2.336-8.416-2.48 8.416-2.048.016-3.152-11.136h1.936l2.304 9.056 2.496-9.056h2.048l2.32 9.008 2.32-9.008zm3.328 3.584a2.8 2.8 0 0 1 1.056-1.04q.672-.384 1.584-.384v1.888h-.464q-1.071 0-1.632.544-.544.544-.544 1.888V264h-1.824v-8.816h1.824zm5.245-2.448a1.13 1.13 0 0 1-.832-.336 1.13 1.13 0 0 1-.336-.832q0-.496.336-.832a1.13 1.13 0 0 1 .832-.336q.48 0 .816.336t.336.832-.336.832a1.1 1.1 0 0 1-.816.336m.896 1.168V264h-1.824v-8.816zm4.523 1.488v4.88q0 .497.224.72.24.208.8.208h1.12V264h-1.44q-1.233 0-1.888-.576-.656-.576-.656-1.872v-4.88h-1.04v-1.488h1.04v-2.192h1.84v2.192h2.144v1.488zm11.905 2.704q0 .496-.064.896h-6.736q.08 1.056.784 1.696.703.64 1.728.64 1.472 0 2.08-1.232h1.968a4 4 0 0 1-1.456 2q-1.04.768-2.592.768-1.264 0-2.272-.56a4.2 4.2 0 0 1-1.568-1.6q-.56-1.04-.56-2.4t.544-2.384a3.94 3.94 0 0 1 1.552-1.6q1.008-.56 2.304-.56 1.248 0 2.224.544a3.84 3.84 0 0 1 1.52 1.536q.544.977.544 2.256m-1.904-.576q-.017-1.008-.72-1.616-.704-.608-1.744-.608-.944 0-1.616.608-.672.592-.8 1.616zm15.039-5.92v1.488h-2.96V264h-1.824v-9.632h-2.976v-1.488zm5.671 11.264q-1.248 0-2.256-.56a4.15 4.15 0 0 1-1.584-1.6q-.576-1.04-.576-2.4 0-1.344.592-2.384a4.1 4.1 0 0 1 1.616-1.6q1.025-.56 2.288-.56 1.265 0 2.288.56a4.1 4.1 0 0 1 1.616 1.6q.592 1.04.592 2.384t-.608 2.384a4.25 4.25 0 0 1-1.664 1.616 4.8 4.8 0 0 1-2.304.56m0-1.584q.705 0 1.312-.336.624-.336 1.008-1.008t.384-1.632-.368-1.616a2.47 2.47 0 0 0-.976-1.008 2.67 2.67 0 0 0-1.312-.336q-.703 0-1.312.336-.591.336-.944 1.008-.351.656-.352 1.616 0 1.424.72 2.208.736.768 1.84.768m12.344-9.68v7.088q0 1.264.656 1.904.671.64 1.856.64 1.2 0 1.856-.64.672-.64.672-1.904v-7.088h1.824v7.056q0 1.36-.592 2.304a3.7 3.7 0 0 1-1.584 1.408 5.1 5.1 0 0 1-2.192.464q-1.2 0-2.192-.464a3.6 3.6 0 0 1-1.552-1.408q-.576-.944-.576-2.304v-7.056zm12.903 11.232q-1.12 0-2.016-.384-.897-.4-1.408-1.12-.513-.72-.512-1.68h1.952q.063.72.56 1.184.512.464 1.424.464.944 0 1.472-.448.528-.464.528-1.184 0-.56-.336-.912a2.1 2.1 0 0 0-.816-.544q-.48-.192-1.344-.416a14 14 0 0 1-1.776-.576 3 3 0 0 1-1.152-.928q-.48-.624-.48-1.664 0-.96.48-1.68t1.344-1.104q.863-.384 2-.384 1.615 0 2.64.816 1.04.8 1.152 2.208h-2.016q-.048-.608-.576-1.04t-1.392-.432q-.785 0-1.28.4-.496.4-.496 1.152 0 .512.304.848.32.32.8.512t1.312.416q1.104.304 1.792.608.704.304 1.184.944.495.624.496 1.68a3 3 0 0 1-.464 1.6q-.449.752-1.328 1.216-.864.448-2.048.448m-135.036 43.13v1.036h-4.242v3.29h3.444v1.036h-3.444V317h-1.274v-9.758zm2.197.84a.84.84 0 0 1-.616-.252.84.84 0 0 1-.252-.616q0-.364.252-.616a.84.84 0 0 1 .616-.252q.35 0 .588.252a.84.84 0 0 1 .252.616.84.84 0 0 1-.252.616.78.78 0 0 1-.588.252m.616 1.246V317h-1.274v-7.672zm3.445-2.688V317h-1.274v-10.36zm3.445 0V317h-1.274v-10.36zm9.25 10.486a3.96 3.96 0 0 1-1.96-.49 3.57 3.57 0 0 1-1.372-1.386q-.49-.91-.49-2.1 0-1.176.504-2.072a3.5 3.5 0 0 1 1.4-1.386q.882-.49 1.974-.49t1.974.49a3.44 3.44 0 0 1 1.386 1.372q.518.896.518 2.086t-.532 2.1a3.6 3.6 0 0 1-1.414 1.386 4.1 4.1 0 0 1-1.988.49m0-1.12q.686 0 1.288-.322t.966-.966q.378-.644.378-1.568t-.364-1.568-.952-.952a2.6 2.6 0 0 0-1.274-.322q-.7 0-1.288.322-.574.308-.924.952t-.35 1.568q0 .938.336 1.582.35.643.924.966.575.308 1.26.308m12.413-6.678V317h-1.274v-1.134q-.364.588-1.022.924-.644.322-1.428.322a3.5 3.5 0 0 1-1.61-.364 2.8 2.8 0 0 1-1.134-1.12q-.406-.743-.406-1.806v-4.494h1.26v4.326q0 1.134.574 1.75.575.602 1.568.602 1.022 0 1.61-.63t.588-1.834v-4.214zm3.705 1.05v4.522q0 .56.238.798.238.224.826.224h.938V317H90.52q-1.064 0-1.596-.49t-.532-1.61v-4.522h-.994v-1.05h.994v-1.932h1.274v1.932h2.002v1.05zm10.624 6.748a3.96 3.96 0 0 1-1.96-.49 3.57 3.57 0 0 1-1.372-1.386q-.49-.91-.49-2.1 0-1.176.504-2.072a3.5 3.5 0 0 1 1.4-1.386q.882-.49 1.974-.49t1.974.49a3.44 3.44 0 0 1 1.386 1.372q.519.896.518 2.086 0 1.19-.532 2.1a3.6 3.6 0 0 1-1.414 1.386 4.1 4.1 0 0 1-1.988.49m0-1.12q.687 0 1.288-.322.603-.322.966-.966.378-.644.378-1.568t-.364-1.568-.952-.952a2.6 2.6 0 0 0-1.274-.322q-.7 0-1.288.322-.573.308-.924.952-.35.644-.35 1.568 0 .938.336 1.582.351.643.924.966.575.308 1.26.308m12.413-6.678V317h-1.274v-1.134q-.363.588-1.022.924a3.14 3.14 0 0 1-1.428.322 3.5 3.5 0 0 1-1.61-.364 2.8 2.8 0 0 1-1.134-1.12q-.405-.743-.406-1.806v-4.494h1.26v4.326q0 1.134.574 1.75.575.602 1.568.602 1.022 0 1.61-.63t.588-1.834v-4.214zm3.425 1.246q.337-.658.952-1.022.63-.364 1.526-.364v1.316h-.336q-2.142 0-2.142 2.324V317h-1.274v-7.672h1.274zm10.803-.196h-1.61V317h-1.274v-6.622h-.994v-1.05h.994v-.546q0-1.288.658-1.876.672-.602 2.142-.602v1.064q-.84 0-1.19.336-.336.322-.336 1.078v.546h1.61zm4.832 6.748a3.96 3.96 0 0 1-1.96-.49 3.56 3.56 0 0 1-1.372-1.386q-.49-.91-.49-2.1 0-1.176.504-2.072a3.5 3.5 0 0 1 1.4-1.386q.882-.49 1.974-.49t1.974.49a3.44 3.44 0 0 1 1.386 1.372q.518.896.518 2.086t-.532 2.1a3.6 3.6 0 0 1-1.414 1.386 4.1 4.1 0 0 1-1.988.49m0-1.12q.686 0 1.288-.322t.966-.966q.378-.644.378-1.568t-.364-1.568-.952-.952a2.6 2.6 0 0 0-1.274-.322q-.7 0-1.288.322-.575.308-.924.952t-.35 1.568q0 .938.336 1.582.35.643.924.966.575.308 1.26.308m6.883-5.432q.336-.658.952-1.022.63-.364 1.526-.364v1.316h-.336q-2.142 0-2.142 2.324V317h-1.274v-7.672h1.274zm13.175-1.386q.895 0 1.596.378.7.364 1.106 1.106t.406 1.806V317h-1.26v-4.34q0-1.148-.574-1.75-.56-.616-1.526-.616-.994 0-1.582.644-.588.63-.588 1.834V317h-1.26v-4.34q0-1.148-.574-1.75-.56-.616-1.526-.616-.994 0-1.582.644-.588.63-.588 1.834V317h-1.274v-7.672h1.274v1.106a2.53 2.53 0 0 1 1.008-.924 3.1 3.1 0 0 1 1.414-.322q.966 0 1.708.434.741.434 1.106 1.274a2.5 2.5 0 0 1 1.064-1.26 3.13 3.13 0 0 1 1.652-.448m8.454 3.948q0-1.176.476-2.058a3.46 3.46 0 0 1 1.302-1.386 3.6 3.6 0 0 1 1.862-.49q1.008 0 1.75.434t1.106 1.092v-1.4h1.288V317h-1.288v-1.428q-.378.672-1.134 1.12-.742.434-1.736.434a3.5 3.5 0 0 1-1.848-.504 3.53 3.53 0 0 1-1.302-1.414q-.476-.91-.476-2.072m6.496.014q0-.869-.35-1.512a2.4 2.4 0 0 0-.952-.98 2.5 2.5 0 0 0-1.302-.35q-.714 0-1.302.336a2.44 2.44 0 0 0-.938.98q-.35.644-.35 1.512 0 .882.35 1.54.35.644.938.994.588.336 1.302.336t1.302-.336q.602-.35.952-.994.35-.658.35-1.526m7.179-3.962q1.4 0 2.268.854.867.84.868 2.436V317h-1.26v-4.34q0-1.148-.574-1.75-.575-.616-1.568-.616-1.008 0-1.61.63-.588.63-.588 1.834V317h-1.274v-7.672h1.274v1.092a2.54 2.54 0 0 1 1.022-.91 3.2 3.2 0 0 1 1.442-.322m4.741 3.948q0-1.176.476-2.058a3.46 3.46 0 0 1 1.302-1.386 3.65 3.65 0 0 1 1.876-.49q.896 0 1.666.42.77.406 1.176 1.078v-4.06h1.288V317h-1.288v-1.442a3.03 3.03 0 0 1-1.12 1.134q-.742.434-1.736.434a3.55 3.55 0 0 1-1.862-.504 3.53 3.53 0 0 1-1.302-1.414q-.476-.91-.476-2.072m6.496.014q0-.869-.35-1.512a2.4 2.4 0 0 0-.952-.98 2.5 2.5 0 0 0-1.302-.35q-.714 0-1.302.336a2.44 2.44 0 0 0-.938.98q-.35.644-.35 1.512 0 .882.35 1.54.35.644.938.994.588.336 1.302.336t1.302-.336q.602-.35.952-.994.35-.658.35-1.526m17.393-3.822L200.185 317h-1.316l-1.848-6.09-1.848 6.09h-1.316l-2.408-7.672h1.302l1.764 6.44 1.904-6.44h1.302l1.862 6.454 1.736-6.454zm8.265 3.542q0 .364-.042.77h-6.132q.07 1.134.77 1.778.714.63 1.722.63.826 0 1.372-.378.56-.392.784-1.036h1.372a3.34 3.34 0 0 1-1.232 1.806q-.925.686-2.296.686-1.093 0-1.96-.49a3.5 3.5 0 0 1-1.344-1.386q-.49-.91-.49-2.1t.476-2.086a3.3 3.3 0 0 1 1.33-1.372q.867-.49 1.988-.49 1.092 0 1.932.476t1.288 1.316q.462.826.462 1.876m-1.316-.266q0-.728-.322-1.246a2.03 2.03 0 0 0-.882-.798 2.6 2.6 0 0 0-1.218-.28q-.966 0-1.652.616-.672.616-.77 1.708zm16.95-3.276L224.084 317h-1.316l-1.848-6.09-1.848 6.09h-1.316l-2.408-7.672h1.302l1.764 6.44 1.904-6.44h1.302l1.862 6.454 1.736-6.454zm1.922-1.246a.84.84 0 0 1-.616-.252.84.84 0 0 1-.252-.616q0-.364.252-.616a.84.84 0 0 1 .616-.252q.35 0 .588.252a.84.84 0 0 1 .252.616.84.84 0 0 1-.252.616.78.78 0 0 1-.588.252m.616 1.246V317h-1.274v-7.672zm3.445-2.688V317h-1.274v-10.36zm3.446 0V317h-1.274v-10.36zm5.427 6.51q0-1.19.476-2.072a3.44 3.44 0 0 1 1.316-1.386q.854-.49 1.946-.49 1.415 0 2.324.686.924.686 1.218 1.904h-1.372a1.95 1.95 0 0 0-.77-1.106q-.56-.406-1.4-.406-1.092 0-1.764.756-.672.742-.672 2.114 0 1.386.672 2.142t1.764.756q.84 0 1.4-.392t.77-1.12h1.372q-.308 1.176-1.232 1.89-.924.7-2.31.7-1.092 0-1.946-.49a3.44 3.44 0 0 1-1.316-1.386q-.476-.895-.476-2.1m12.326 3.976a3.97 3.97 0 0 1-1.96-.49 3.57 3.57 0 0 1-1.372-1.386q-.49-.91-.49-2.1 0-1.176.504-2.072a3.5 3.5 0 0 1 1.4-1.386q.882-.49 1.974-.49t1.974.49a3.44 3.44 0 0 1 1.386 1.372q.518.896.518 2.086t-.532 2.1a3.6 3.6 0 0 1-1.414 1.386 4.1 4.1 0 0 1-1.988.49m0-1.12q.687 0 1.288-.322.603-.322.966-.966.378-.644.378-1.568t-.364-1.568-.952-.952a2.6 2.6 0 0 0-1.274-.322q-.7 0-1.288.322-.573.308-.924.952-.35.644-.35 1.568 0 .938.336 1.582.351.643.924.966.575.308 1.26.308m9.347-6.818q1.401 0 2.268.854.868.84.868 2.436V317h-1.26v-4.34q0-1.148-.574-1.75-.573-.616-1.568-.616-1.008 0-1.61.63-.588.63-.588 1.834V317h-1.274v-7.672h1.274v1.092a2.55 2.55 0 0 1 1.022-.91q.659-.322 1.442-.322m6.771 1.19v4.522q0 .56.238.798.238.224.826.224h.938V317h-1.148q-1.064 0-1.596-.49-.531-.49-.532-1.61v-4.522h-.994v-1.05h.994v-1.932h1.274v1.932h2.002v1.05zm3.07 2.758q0-1.176.476-2.058a3.46 3.46 0 0 1 1.302-1.386 3.6 3.6 0 0 1 1.862-.49q1.008 0 1.75.434t1.106 1.092v-1.4h1.288V317h-1.288v-1.428q-.378.672-1.134 1.12-.742.434-1.736.434a3.5 3.5 0 0 1-1.848-.504 3.53 3.53 0 0 1-1.302-1.414q-.476-.91-.476-2.072m6.496.014q0-.869-.35-1.512a2.4 2.4 0 0 0-.952-.98 2.5 2.5 0 0 0-1.302-.35q-.714 0-1.302.336a2.44 2.44 0 0 0-.938.98q-.35.644-.35 1.512 0 .882.35 1.54.35.644.938.994.588.336 1.302.336t1.302-.336q.602-.35.952-.994.35-.658.35-1.526m2.965 0q0-1.19.476-2.072a3.43 3.43 0 0 1 1.316-1.386q.854-.49 1.946-.49 1.414 0 2.324.686.924.686 1.218 1.904h-1.372a1.96 1.96 0 0 0-.77-1.106q-.56-.406-1.4-.406-1.092 0-1.764.756-.672.742-.672 2.114 0 1.386.672 2.142t1.764.756q.84 0 1.4-.392t.77-1.12h1.372q-.308 1.176-1.232 1.89-.924.7-2.31.7-1.092 0-1.946-.49a3.43 3.43 0 0 1-1.316-1.386q-.476-.895-.476-2.1m10.534-2.772v4.522q0 .56.238.798.238.224.826.224h.938V317h-1.148q-1.063 0-1.596-.49-.532-.49-.532-1.61v-4.522h-.994v-1.05h.994v-1.932h1.274v1.932h2.002v1.05zm-237.157 19.95-4.62 11.284H49.75l1.512-3.696-3.094-7.588h1.414l2.408 6.216 2.38-6.216zm4.627 7.798a3.96 3.96 0 0 1-1.96-.49 3.57 3.57 0 0 1-1.372-1.386q-.49-.91-.49-2.1 0-1.176.504-2.072a3.5 3.5 0 0 1 1.4-1.386q.882-.49 1.974-.49t1.974.49a3.44 3.44 0 0 1 1.386 1.372q.518.896.518 2.086t-.532 2.1a3.6 3.6 0 0 1-1.414 1.386q-.897.49-1.988.49m0-1.12q.685 0 1.288-.322a2.4 2.4 0 0 0 .966-.966q.378-.644.378-1.568t-.364-1.568-.952-.952a2.6 2.6 0 0 0-1.274-.322q-.7 0-1.288.322-.575.308-.924.952t-.35 1.568q0 .938.336 1.582.35.643.924.966.573.308 1.26.308m12.413-6.678V338h-1.274v-1.134q-.365.588-1.022.924-.645.322-1.428.322a3.5 3.5 0 0 1-1.61-.364 2.8 2.8 0 0 1-1.134-1.12q-.405-.743-.406-1.806v-4.494h1.26v4.326q0 1.134.574 1.75.573.602 1.568.602 1.022 0 1.61-.63t.588-1.834v-4.214zm16.103 0L86.435 338H85.12l-1.848-6.09-1.848 6.09h-1.316l-2.408-7.672h1.302l1.764 6.44 1.904-6.44h1.302l1.862 6.454 1.736-6.454zm1.923-1.246a.84.84 0 0 1-.616-.252.84.84 0 0 1-.252-.616q0-.364.252-.616a.84.84 0 0 1 .616-.252q.35 0 .588.252a.84.84 0 0 1 .252.616.84.84 0 0 1-.252.616.78.78 0 0 1-.588.252m.616 1.246V338h-1.274v-7.672zm3.725 1.05v4.522q0 .56.238.798.238.224.826.224h.938V338h-1.148q-1.064 0-1.596-.49t-.532-1.61v-4.522h-.994v-1.05h.994v-1.932h1.274v1.932h2.002v1.05zm7.354-1.19a3.25 3.25 0 0 1 1.568.378q.699.364 1.092 1.106.405.742.406 1.806V338h-1.26v-4.34q0-1.148-.574-1.75-.575-.616-1.568-.616-1.008 0-1.61.63-.589.63-.589 1.834V338h-1.274v-10.36h1.274v3.78a2.5 2.5 0 0 1 1.037-.91 3.4 3.4 0 0 1 1.498-.322m5.805-1.106a.84.84 0 0 1-.616-.252.84.84 0 0 1-.252-.616q0-.364.252-.616a.84.84 0 0 1 .616-.252q.35 0 .588.252a.84.84 0 0 1 .252.616.84.84 0 0 1-.252.616.78.78 0 0 1-.588.252m.616 1.246V338h-1.274v-7.672zm5.909-.14q1.4 0 2.268.854.868.84.868 2.436V338h-1.26v-4.34q0-1.148-.574-1.75-.574-.616-1.568-.616-1.008 0-1.61.63-.588.63-.588 1.834V338h-1.274v-7.672h1.274v1.092a2.55 2.55 0 0 1 1.022-.91 3.2 3.2 0 0 1 1.442-.322m8.585 6.79a66 66 0 0 0 2.786-2.338 11.4 11.4 0 0 0 1.694-1.918q.7-1.008.7-1.974 0-.91-.448-1.428-.433-.532-1.414-.532-.951 0-1.484.602-.518.588-.56 1.582h-1.232q.057-1.568.952-2.422.897-.854 2.31-.854 1.442 0 2.282.798.855.798.854 2.198 0 1.163-.7 2.268a10 10 0 0 1-1.568 1.932 41 41 0 0 1-2.254 1.932h4.816v1.064h-6.734zm7.899-1.232v-.966l4.914-6.804h1.526v6.664h1.4v1.106h-1.4V338h-1.26v-2.254zm5.236-6.44-3.766 5.334h3.766zm11.627.882q.869 0 1.568.378.7.364 1.092 1.106.406.742.406 1.806V338h-1.26v-4.34q0-1.148-.574-1.75-.573-.616-1.568-.616-1.007 0-1.61.63-.588.63-.588 1.834V338h-1.274v-10.36h1.274v3.78a2.53 2.53 0 0 1 1.036-.91 3.4 3.4 0 0 1 1.498-.322m8.493 7.938a3.97 3.97 0 0 1-1.96-.49 3.57 3.57 0 0 1-1.372-1.386q-.49-.91-.49-2.1 0-1.176.504-2.072a3.5 3.5 0 0 1 1.4-1.386q.882-.49 1.974-.49t1.974.49a3.44 3.44 0 0 1 1.386 1.372q.518.896.518 2.086t-.532 2.1a3.6 3.6 0 0 1-1.414 1.386 4.1 4.1 0 0 1-1.988.49m0-1.12q.687 0 1.288-.322.603-.322.966-.966.378-.644.378-1.568t-.364-1.568q-.363-.644-.952-.952a2.6 2.6 0 0 0-1.274-.322q-.7 0-1.288.322-.573.308-.924.952-.35.644-.35 1.568 0 .938.336 1.582.351.643.924.966.575.308 1.26.308m12.413-6.678V338h-1.274v-1.134q-.363.588-1.022.924a3.14 3.14 0 0 1-1.428.322 3.5 3.5 0 0 1-1.61-.364 2.8 2.8 0 0 1-1.134-1.12q-.406-.743-.406-1.806v-4.494h1.26v4.326q0 1.134.574 1.75.575.602 1.568.602 1.022 0 1.61-.63t.588-1.834v-4.214zm3.426 1.246q.336-.658.952-1.022.63-.364 1.526-.364v1.316h-.336q-2.142 0-2.142 2.324V338h-1.274v-7.672h1.274zm6.664 6.552a4.1 4.1 0 0 1-1.582-.294q-.7-.308-1.106-.84a2.3 2.3 0 0 1-.448-1.246h1.316q.057.574.532.938.49.364 1.274.364.728 0 1.148-.322t.42-.812a.79.79 0 0 0-.448-.742q-.447-.252-1.386-.49a11 11 0 0 1-1.4-.448 2.7 2.7 0 0 1-.924-.686q-.378-.462-.378-1.204 0-.588.35-1.078t.994-.77q.645-.294 1.47-.294 1.275 0 2.058.644.784.643.84 1.764h-1.274a1.3 1.3 0 0 0-.49-.966q-.433-.364-1.176-.364-.685 0-1.092.294-.406.294-.406.77 0 .378.238.63.253.238.616.392.379.14 1.036.322.827.224 1.344.448.519.21.882.644.378.433.392 1.134 0 .63-.35 1.134t-.994.798q-.63.28-1.456.28m5.005-.042a.84.84 0 0 1-.616-.252.84.84 0 0 1-.252-.616q0-.364.252-.616a.84.84 0 0 1 .616-.252q.35 0 .588.252a.84.84 0 0 1 .252.616.84.84 0 0 1-.252.616.78.78 0 0 1-.588.252M50.352 366.278v3.262h3.556v1.05h-3.556v3.36h3.976V375h-5.25v-9.772h5.25v1.05zm15.13.91q.896 0 1.596.378.7.364 1.106 1.106t.406 1.806V375h-1.26v-4.34q0-1.148-.574-1.75-.56-.616-1.526-.616-.994 0-1.582.644-.588.63-.588 1.834V375H61.8v-4.34q0-1.148-.574-1.75-.56-.616-1.526-.616-.994 0-1.582.644-.588.63-.588 1.834V375h-1.274v-7.672h1.274v1.106a2.53 2.53 0 0 1 1.008-.924q.644-.322 1.414-.322.966 0 1.708.434.741.434 1.106 1.274a2.52 2.52 0 0 1 1.064-1.26 3.13 3.13 0 0 1 1.652-.448m4.722 3.948q0-1.176.476-2.058a3.46 3.46 0 0 1 1.302-1.386q.84-.49 1.862-.49 1.008 0 1.75.434.741.434 1.106 1.092v-1.4h1.288V375H76.7v-1.428q-.378.672-1.134 1.12-.743.434-1.736.434a3.5 3.5 0 0 1-1.848-.504 3.53 3.53 0 0 1-1.302-1.414q-.477-.91-.476-2.072m6.496.014q0-.869-.35-1.512a2.4 2.4 0 0 0-.952-.98 2.5 2.5 0 0 0-1.302-.35q-.714 0-1.302.336a2.44 2.44 0 0 0-.938.98q-.35.644-.35 1.512 0 .882.35 1.54.35.644.938.994.588.336 1.302.336t1.302-.336q.6-.35.952-.994.35-.658.35-1.526m4.099-5.068a.84.84 0 0 1-.617-.252.84.84 0 0 1-.252-.616q0-.364.252-.616a.84.84 0 0 1 .617-.252q.35 0 .587.252a.84.84 0 0 1 .252.616.84.84 0 0 1-.252.616.78.78 0 0 1-.587.252m.615 1.246V375h-1.273v-7.672zm3.446-2.688V375h-1.274v-10.36zm4.887 10.486q-.882 0-1.582-.294-.7-.308-1.106-.84a2.27 2.27 0 0 1-.448-1.246h1.316q.056.574.532.938.49.364 1.274.364.728 0 1.148-.322t.42-.812a.79.79 0 0 0-.448-.742q-.447-.252-1.386-.49a11 11 0 0 1-1.4-.448 2.7 2.7 0 0 1-.924-.686q-.378-.462-.378-1.204 0-.588.35-1.078t.994-.77q.645-.294 1.47-.294 1.275 0 2.058.644.784.643.84 1.764h-1.274a1.3 1.3 0 0 0-.49-.966q-.434-.364-1.176-.364-.686 0-1.092.294-.405.294-.406.77 0 .378.238.63.252.238.616.392.378.14 1.036.322.826.224 1.344.448.519.21.882.644.378.433.392 1.134 0 .63-.35 1.134t-.994.798q-.63.28-1.456.28m5.005-.042a.84.84 0 0 1-.616-.252.84.84 0 0 1-.252-.616q0-.364.252-.616a.84.84 0 0 1 .616-.252q.35 0 .588.252a.84.84 0 0 1 .252.616.84.84 0 0 1-.252.616.78.78 0 0 1-.588.252m0-5.992a.84.84 0 0 1-.616-.252.84.84 0 0 1-.252-.616q0-.364.252-.616a.84.84 0 0 1 .616-.252q.35 0 .588.252a.84.84 0 0 1 .252.616.84.84 0 0 1-.252.616.78.78 0 0 1-.588.252m5.83 2.058q0-1.19.476-2.072a3.44 3.44 0 0 1 1.316-1.386q.855-.49 1.946-.49 1.415 0 2.324.686.924.686 1.218 1.904h-1.372a1.95 1.95 0 0 0-.77-1.106q-.56-.406-1.4-.406-1.092 0-1.764.756-.672.742-.672 2.114 0 1.386.672 2.142t1.764.756q.84 0 1.4-.392t.77-1.12h1.372q-.308 1.176-1.232 1.89-.924.7-2.31.7-1.091 0-1.946-.49a3.44 3.44 0 0 1-1.316-1.386q-.476-.895-.476-2.1m15.784-3.822V375h-1.274v-1.134q-.363.588-1.022.924a3.14 3.14 0 0 1-1.428.322 3.5 3.5 0 0 1-1.61-.364 2.8 2.8 0 0 1-1.134-1.12q-.405-.743-.406-1.806v-4.494h1.26v4.326q0 1.134.574 1.75.575.602 1.568.602 1.022 0 1.61-.63t.588-1.834v-4.214zm4.867 7.798a4.1 4.1 0 0 1-1.582-.294q-.7-.308-1.106-.84a2.3 2.3 0 0 1-.448-1.246h1.316q.057.574.532.938.49.364 1.274.364.728 0 1.148-.322t.42-.812a.79.79 0 0 0-.448-.742q-.447-.252-1.386-.49a11 11 0 0 1-1.4-.448 2.7 2.7 0 0 1-.924-.686q-.378-.462-.378-1.204 0-.588.35-1.078t.994-.77q.645-.294 1.47-.294 1.275 0 2.058.644.784.643.84 1.764h-1.274a1.3 1.3 0 0 0-.49-.966q-.433-.364-1.176-.364-.685 0-1.092.294-.405.294-.406.77 0 .378.238.63.252.238.616.392.379.14 1.036.322.826.224 1.344.448.519.21.882.644.378.433.392 1.134 0 .63-.35 1.134t-.994.798q-.63.28-1.456.28m6.153-6.748v4.522q0 .56.238.798.238.224.826.224h.938V375h-1.148q-1.064 0-1.596-.49t-.532-1.61v-4.522h-.994v-1.05h.994v-1.932h1.274v1.932h2.002v1.05zm6.892 6.748a3.96 3.96 0 0 1-1.96-.49 3.56 3.56 0 0 1-1.372-1.386q-.49-.91-.49-2.1 0-1.176.504-2.072a3.5 3.5 0 0 1 1.4-1.386q.882-.49 1.974-.49t1.974.49a3.44 3.44 0 0 1 1.386 1.372q.518.896.518 2.086t-.532 2.1a3.6 3.6 0 0 1-1.414 1.386q-.897.49-1.988.49m0-1.12a2.7 2.7 0 0 0 1.288-.322q.602-.322.966-.966.378-.644.378-1.568t-.364-1.568-.952-.952a2.6 2.6 0 0 0-1.274-.322q-.7 0-1.288.322-.575.308-.924.952t-.35 1.568q0 .938.336 1.582.35.643.924.966.573.308 1.26.308m14.835-6.818q.895 0 1.596.378.7.364 1.106 1.106t.406 1.806V375h-1.26v-4.34q0-1.148-.574-1.75-.56-.616-1.526-.616-.994 0-1.582.644-.588.63-.588 1.834V375h-1.26v-4.34q0-1.148-.574-1.75-.56-.616-1.526-.616-.994 0-1.582.644-.588.63-.588 1.834V375h-1.274v-7.672h1.274v1.106a2.53 2.53 0 0 1 1.008-.924 3.1 3.1 0 0 1 1.414-.322q.966 0 1.708.434.741.434 1.106 1.274a2.5 2.5 0 0 1 1.064-1.26 3.13 3.13 0 0 1 1.652-.448m12.197 3.682q0 .364-.042.77h-6.132q.07 1.134.77 1.778.714.63 1.722.63.826 0 1.372-.378.56-.392.784-1.036h1.372a3.33 3.33 0 0 1-1.232 1.806q-.924.686-2.296.686-1.092 0-1.96-.49a3.5 3.5 0 0 1-1.344-1.386q-.49-.91-.49-2.1t.476-2.086a3.3 3.3 0 0 1 1.33-1.372q.869-.49 1.988-.49 1.092 0 1.932.476t1.288 1.316q.462.826.462 1.876m-1.316-.266q0-.728-.322-1.246a2 2 0 0 0-.882-.798 2.6 2.6 0 0 0-1.218-.28q-.966 0-1.652.616-.672.616-.77 1.708zm4.272-2.03q.336-.658.952-1.022.63-.364 1.526-.364v1.316h-.336q-2.142 0-2.142 2.324V375h-1.274v-7.672h1.274zm10.949-2.548q1.553 0 2.702.588a4.2 4.2 0 0 1 1.764 1.652q.615 1.05.616 2.436 0 1.106-.364 2.128-.365 1.008-1.064 1.638-.687.63-1.61.63-.7 0-1.078-.35t-.434-.952q-.434.602-1.106.952-.659.35-1.4.35-1.065 0-1.68-.644-.602-.659-.602-1.764 0-1.05.434-1.96a3.75 3.75 0 0 1 1.232-1.456 3 3 0 0 1 1.778-.56q1.33 0 1.792 1.008l.154-.868h1.106l-.7 4.046a3 3 0 0 0-.042.49q0 .84.742.84.56 0 .966-.532.42-.532.63-1.33.21-.811.21-1.596 0-1.834-1.106-2.842-1.093-1.008-3.094-1.008-1.666 0-3.01.812a5.63 5.63 0 0 0-2.086 2.198q-.756 1.4-.756 3.094-.015 1.848 1.106 2.842 1.119 1.008 3.108 1.008 1.316 0 2.324-.476l.168.868q-1.247.518-2.744.518t-2.646-.574a4.13 4.13 0 0 1-1.764-1.624q-.616-1.05-.616-2.45 0-1.974.91-3.598a6.67 6.67 0 0 1 2.52-2.576q1.624-.938 3.64-.938m-1.596 8.078q.63 0 1.162-.364.531-.378.84-1.008.308-.644.308-1.4 0-.727-.406-1.176-.393-.462-1.12-.462-.672 0-1.19.406a2.57 2.57 0 0 0-.784 1.05q-.28.644-.28 1.344 0 .742.378 1.176t1.092.434m15.773-3.234q0 .364-.042.77h-6.132q.07 1.134.77 1.778.714.63 1.722.63.826 0 1.372-.378.56-.392.784-1.036h1.372a3.33 3.33 0 0 1-1.232 1.806q-.924.686-2.296.686-1.092 0-1.96-.49a3.5 3.5 0 0 1-1.344-1.386q-.49-.91-.49-2.1t.476-2.086a3.3 3.3 0 0 1 1.33-1.372q.869-.49 1.988-.49 1.092 0 1.932.476t1.288 1.316q.462.826.462 1.876m-1.316-.266q0-.728-.322-1.246a2 2 0 0 0-.882-.798 2.6 2.6 0 0 0-1.218-.28q-.966 0-1.652.616-.671.616-.77 1.708zm7.002 4.396-1.82-2.856-1.75 2.856h-1.33l2.478-3.808-2.478-3.864h1.442l1.82 2.842 1.736-2.842h1.33l-2.464 3.794L196.52 375zm2.219-3.85q0-1.19.476-2.072a3.44 3.44 0 0 1 1.316-1.386q.854-.49 1.946-.49 1.415 0 2.324.686.924.686 1.218 1.904h-1.372a1.95 1.95 0 0 0-.77-1.106q-.56-.406-1.4-.406-1.092 0-1.764.756-.672.742-.672 2.114 0 1.386.672 2.142t1.764.756q.84 0 1.4-.392t.77-1.12h1.372q-.308 1.176-1.232 1.89-.924.7-2.31.7-1.092 0-1.946-.49a3.44 3.44 0 0 1-1.316-1.386q-.476-.895-.476-2.1m10.254-6.51V375h-1.274v-10.36zm8.976 2.688V375h-1.274v-1.134q-.365.588-1.022.924-.645.322-1.428.322a3.5 3.5 0 0 1-1.61-.364 2.8 2.8 0 0 1-1.134-1.12q-.406-.743-.406-1.806v-4.494h1.26v4.326q0 1.134.574 1.75.573.602 1.568.602 1.022 0 1.61-.63t.588-1.834v-4.214zm4.867 7.798q-.883 0-1.582-.294-.7-.308-1.106-.84a2.27 2.27 0 0 1-.448-1.246h1.316q.055.574.532.938.49.364 1.274.364.728 0 1.148-.322t.42-.812a.79.79 0 0 0-.448-.742q-.449-.252-1.386-.49a11 11 0 0 1-1.4-.448 2.65 2.65 0 0 1-.924-.686q-.378-.462-.378-1.204 0-.588.35-1.078t.994-.77q.644-.294 1.47-.294 1.273 0 2.058.644.783.643.84 1.764h-1.274a1.3 1.3 0 0 0-.49-.966q-.435-.364-1.176-.364-.687 0-1.092.294-.406.294-.406.77a.88.88 0 0 0 .238.63q.252.238.616.392.378.14 1.036.322.825.224 1.344.448.518.21.882.644.378.433.392 1.134 0 .63-.35 1.134t-.994.798q-.63.28-1.456.28m5.256-9.044a.84.84 0 0 1-.616-.252.84.84 0 0 1-.252-.616q0-.364.252-.616a.84.84 0 0 1 .616-.252q.35 0 .588.252a.84.84 0 0 1 .252.616.84.84 0 0 1-.252.616.78.78 0 0 1-.588.252m.616 1.246V375h-1.274v-7.672zm5.027 6.496 2.38-6.496h1.358l-3.01 7.672h-1.484l-3.01-7.672h1.372zm11.992-2.954q0 .364-.042.77h-6.132q.07 1.134.77 1.778.714.63 1.722.63.826 0 1.372-.378.56-.392.784-1.036h1.372a3.33 3.33 0 0 1-1.232 1.806q-.924.686-2.296.686-1.092 0-1.96-.49a3.5 3.5 0 0 1-1.344-1.386q-.49-.91-.49-2.1t.476-2.086a3.3 3.3 0 0 1 1.33-1.372q.868-.49 1.988-.49 1.092 0 1.932.476t1.288 1.316q.462.826.462 1.876m-1.316-.266q0-.728-.322-1.246a2.03 2.03 0 0 0-.882-.798 2.6 2.6 0 0 0-1.218-.28q-.966 0-1.652.616-.672.616-.77 1.708zm3.404 4.48a.84.84 0 0 1-.616-.252.84.84 0 0 1-.252-.616q0-.364.252-.616a.84.84 0 0 1 .616-.252q.35 0 .588.252a.84.84 0 0 1 .252.616.84.84 0 0 1-.252.616.78.78 0 0 1-.588.252m2.057-3.934q0-1.19.476-2.072a3.43 3.43 0 0 1 1.316-1.386q.854-.49 1.946-.49 1.414 0 2.324.686.924.686 1.218 1.904h-1.372a1.96 1.96 0 0 0-.77-1.106q-.56-.406-1.4-.406-1.092 0-1.764.756-.672.742-.672 2.114 0 1.386.672 2.142t1.764.756q.84 0 1.4-.392t.77-1.12h1.372q-.308 1.176-1.232 1.89-.924.7-2.31.7-1.092 0-1.946-.49a3.43 3.43 0 0 1-1.316-1.386q-.476-.895-.476-2.1m12.326 3.976a3.96 3.96 0 0 1-1.96-.49 3.56 3.56 0 0 1-1.372-1.386q-.49-.91-.49-2.1 0-1.176.504-2.072a3.5 3.5 0 0 1 1.4-1.386q.882-.49 1.974-.49t1.974.49a3.44 3.44 0 0 1 1.386 1.372q.518.896.518 2.086t-.532 2.1a3.6 3.6 0 0 1-1.414 1.386 4.1 4.1 0 0 1-1.988.49m0-1.12q.686 0 1.288-.322.601-.322.966-.966.378-.644.378-1.568t-.364-1.568-.952-.952a2.6 2.6 0 0 0-1.274-.322q-.7 0-1.288.322-.574.308-.924.952t-.35 1.568q0 .938.336 1.582.35.643.924.966.575.308 1.26.308m14.835-6.818q.895 0 1.596.378.7.364 1.106 1.106t.406 1.806V375h-1.26v-4.34q0-1.148-.574-1.75-.56-.616-1.526-.616-.994 0-1.582.644-.588.63-.588 1.834V375h-1.26v-4.34q0-1.148-.574-1.75-.56-.616-1.526-.616-.994 0-1.582.644-.588.63-.588 1.834V375h-1.274v-7.672h1.274v1.106a2.53 2.53 0 0 1 1.008-.924 3.1 3.1 0 0 1 1.414-.322q.966 0 1.708.434t1.106 1.274a2.52 2.52 0 0 1 1.064-1.26 3.13 3.13 0 0 1 1.652-.448m-225.239 36.09v3.262h3.556v1.05h-3.556v3.36h3.976V412h-5.25v-9.772h5.25v1.05zm15.13.91q.896 0 1.596.378.7.364 1.106 1.106t.406 1.806V412h-1.26v-4.34q0-1.148-.574-1.75-.56-.616-1.526-.616-.994 0-1.582.644-.588.63-.588 1.834V412H61.8v-4.34q0-1.148-.574-1.75-.56-.616-1.526-.616-.994 0-1.582.644-.588.63-.588 1.834V412h-1.274v-7.672h1.274v1.106a2.53 2.53 0 0 1 1.008-.924q.644-.322 1.414-.322.966 0 1.708.434.741.434 1.106 1.274a2.52 2.52 0 0 1 1.064-1.26 3.13 3.13 0 0 1 1.652-.448m4.722 3.948q0-1.176.476-2.058a3.46 3.46 0 0 1 1.302-1.386q.84-.49 1.862-.49 1.008 0 1.75.434.741.434 1.106 1.092v-1.4h1.288V412H76.7v-1.428q-.378.672-1.134 1.12-.743.434-1.736.434a3.5 3.5 0 0 1-1.848-.504 3.53 3.53 0 0 1-1.302-1.414q-.477-.91-.476-2.072m6.496.014q0-.869-.35-1.512a2.4 2.4 0 0 0-.952-.98 2.5 2.5 0 0 0-1.302-.35q-.714 0-1.302.336a2.44 2.44 0 0 0-.938.98q-.35.644-.35 1.512 0 .882.35 1.54.35.644.938.994.588.336 1.302.336t1.302-.336q.6-.35.952-.994.35-.658.35-1.526m4.099-5.068a.84.84 0 0 1-.617-.252.84.84 0 0 1-.252-.616q0-.364.252-.616a.84.84 0 0 1 .617-.252q.35 0 .587.252a.84.84 0 0 1 .252.616.84.84 0 0 1-.252.616.78.78 0 0 1-.587.252m.615 1.246V412h-1.273v-7.672zm3.446-2.688V412h-1.274v-10.36zm4.887 10.486q-.882 0-1.582-.294-.7-.308-1.106-.84a2.27 2.27 0 0 1-.448-1.246h1.316q.056.574.532.938.49.364 1.274.364.728 0 1.148-.322t.42-.812a.79.79 0 0 0-.448-.742q-.447-.252-1.386-.49a11 11 0 0 1-1.4-.448 2.7 2.7 0 0 1-.924-.686q-.378-.462-.378-1.204 0-.588.35-1.078t.994-.77q.645-.294 1.47-.294 1.275 0 2.058.644.784.643.84 1.764h-1.274a1.3 1.3 0 0 0-.49-.966q-.434-.364-1.176-.364-.686 0-1.092.294-.405.294-.406.77 0 .378.238.63.252.238.616.392.378.14 1.036.322.826.224 1.344.448.519.21.882.644.378.433.392 1.134 0 .63-.35 1.134t-.994.798q-.63.28-1.456.28m5.005-.042a.84.84 0 0 1-.616-.252.84.84 0 0 1-.252-.616q0-.364.252-.616a.84.84 0 0 1 .616-.252q.35 0 .588.252a.84.84 0 0 1 .252.616.84.84 0 0 1-.252.616.78.78 0 0 1-.588.252m0-5.992a.84.84 0 0 1-.616-.252.84.84 0 0 1-.252-.616q0-.364.252-.616a.84.84 0 0 1 .616-.252q.35 0 .588.252a.84.84 0 0 1 .252.616.84.84 0 0 1-.252.616.78.78 0 0 1-.588.252m9.022 6.034a4.1 4.1 0 0 1-1.582-.294q-.7-.308-1.106-.84a2.3 2.3 0 0 1-.448-1.246h1.316q.057.574.532.938.49.364 1.274.364.729 0 1.148-.322.42-.322.42-.812a.79.79 0 0 0-.448-.742q-.447-.252-1.386-.49a11 11 0 0 1-1.4-.448 2.7 2.7 0 0 1-.924-.686q-.378-.462-.378-1.204 0-.588.35-1.078t.994-.77q.645-.294 1.47-.294 1.275 0 2.058.644.784.643.84 1.764h-1.274a1.3 1.3 0 0 0-.49-.966q-.433-.364-1.176-.364-.685 0-1.092.294-.405.294-.406.77 0 .378.238.63.252.238.616.392.378.14 1.036.322.826.224 1.344.448.519.21.882.644.378.433.392 1.134 0 .63-.35 1.134t-.994.798q-.63.28-1.456.28m11.403-7.798V412h-1.274v-1.134q-.364.588-1.022.924a3.14 3.14 0 0 1-1.428.322 3.5 3.5 0 0 1-1.61-.364 2.8 2.8 0 0 1-1.134-1.12q-.406-.743-.406-1.806v-4.494h1.26v4.326q0 1.134.574 1.75.574.602 1.568.602 1.022 0 1.61-.63t.588-1.834v-4.214zm3.425 1.414q.378-.659 1.12-1.092.756-.448 1.75-.448 1.021 0 1.848.49.84.49 1.316 1.386.476.882.476 2.058 0 1.162-.476 2.072a3.5 3.5 0 0 1-1.316 1.414 3.5 3.5 0 0 1-1.848.504q-.98 0-1.736-.434-.742-.448-1.134-1.106v5.054h-1.274v-11.312h1.274zm5.208 2.394q0-.868-.35-1.512a2.4 2.4 0 0 0-.952-.98 2.6 2.6 0 0 0-1.302-.336q-.7 0-1.302.35a2.5 2.5 0 0 0-.952.994q-.35.644-.35 1.498 0 .868.35 1.526.364.644.952.994.601.336 1.302.336.714 0 1.302-.336.602-.35.952-.994.35-.658.35-1.54m4.253-2.394q.378-.659 1.12-1.092.756-.448 1.75-.448 1.022 0 1.848.49.84.49 1.316 1.386.476.882.476 2.058 0 1.162-.476 2.072a3.5 3.5 0 0 1-1.316 1.414 3.5 3.5 0 0 1-1.848.504q-.98 0-1.736-.434-.743-.448-1.134-1.106v5.054h-1.274v-11.312h1.274zm5.208 2.394q0-.868-.35-1.512a2.4 2.4 0 0 0-.952-.98 2.6 2.6 0 0 0-1.302-.336q-.7 0-1.302.35a2.5 2.5 0 0 0-.952.994q-.35.644-.35 1.498 0 .868.35 1.526.364.644.952.994.601.336 1.302.336.714 0 1.302-.336.602-.35.952-.994.35-.658.35-1.54m6.325 3.99a3.96 3.96 0 0 1-1.96-.49 3.56 3.56 0 0 1-1.372-1.386q-.49-.91-.49-2.1 0-1.176.504-2.072a3.5 3.5 0 0 1 1.4-1.386q.882-.49 1.974-.49t1.974.49a3.44 3.44 0 0 1 1.386 1.372q.518.896.518 2.086t-.532 2.1a3.6 3.6 0 0 1-1.414 1.386 4.1 4.1 0 0 1-1.988.49m0-1.12q.686 0 1.288-.322t.966-.966q.378-.644.378-1.568t-.364-1.568-.952-.952a2.6 2.6 0 0 0-1.274-.322q-.7 0-1.288.322-.575.308-.924.952t-.35 1.568q0 .938.336 1.582.35.643.924.966.575.308 1.26.308m6.883-5.432q.336-.658.952-1.022.63-.364 1.526-.364v1.316h-.336q-2.142 0-2.142 2.324V412h-1.274v-7.672h1.274zm5.503-.196v4.522q0 .56.238.798.237.224.826.224h.938V412h-1.148q-1.065 0-1.596-.49t-.532-1.61v-4.522h-.994v-1.05h.994v-1.932h1.274v1.932h2.002v1.05zm10.545-2.352q1.554 0 2.702.588a4.2 4.2 0 0 1 1.764 1.652q.616 1.05.616 2.436 0 1.106-.364 2.128-.363 1.008-1.064 1.638-.686.63-1.61.63-.7 0-1.078-.35-.377-.35-.434-.952a3.1 3.1 0 0 1-1.106.952q-.657.35-1.4.35-1.064 0-1.68-.644-.602-.659-.602-1.764 0-1.05.434-1.96a3.77 3.77 0 0 1 1.232-1.456 3 3 0 0 1 1.778-.56q1.33 0 1.792 1.008l.154-.868h1.106l-.7 4.046a3 3 0 0 0-.042.49q0 .84.742.84.561 0 .966-.532.42-.532.63-1.33.21-.811.21-1.596 0-1.834-1.106-2.842-1.092-1.008-3.094-1.008-1.666 0-3.01.812a5.64 5.64 0 0 0-2.086 2.198q-.756 1.4-.756 3.094-.013 1.848 1.106 2.842 1.12 1.008 3.108 1.008 1.316 0 2.324-.476l.168.868q-1.245.518-2.744.518-1.497 0-2.646-.574a4.13 4.13 0 0 1-1.764-1.624q-.615-1.05-.616-2.45 0-1.974.91-3.598a6.7 6.7 0 0 1 2.52-2.576q1.624-.938 3.64-.938m-1.596 8.078q.63 0 1.162-.364.532-.378.84-1.008.308-.644.308-1.4 0-.727-.406-1.176-.391-.462-1.12-.462-.671 0-1.19.406a2.6 2.6 0 0 0-.784 1.05q-.28.644-.28 1.344 0 .742.378 1.176t1.092.434m15.774-3.234q0 .364-.042.77h-6.132q.07 1.134.77 1.778.714.63 1.722.63.826 0 1.372-.378.56-.392.784-1.036h1.372a3.33 3.33 0 0 1-1.232 1.806q-.924.686-2.296.686-1.092 0-1.96-.49a3.5 3.5 0 0 1-1.344-1.386q-.49-.91-.49-2.1t.476-2.086a3.3 3.3 0 0 1 1.33-1.372q.868-.49 1.988-.49 1.092 0 1.932.476t1.288 1.316q.462.826.462 1.876m-1.316-.266q0-.728-.322-1.246a2.03 2.03 0 0 0-.882-.798 2.6 2.6 0 0 0-1.218-.28q-.966 0-1.652.616-.672.616-.77 1.708zm7.002 4.396-1.82-2.856-1.75 2.856h-1.33l2.478-3.808-2.478-3.864h1.442l1.82 2.842 1.736-2.842h1.33l-2.464 3.794 2.478 3.878zm2.219-3.85q0-1.19.476-2.072a3.43 3.43 0 0 1 1.316-1.386q.854-.49 1.946-.49 1.413 0 2.324.686.924.686 1.218 1.904h-1.372a1.96 1.96 0 0 0-.77-1.106q-.56-.406-1.4-.406-1.092 0-1.764.756-.672.742-.672 2.114 0 1.386.672 2.142t1.764.756q.84 0 1.4-.392t.77-1.12h1.372q-.309 1.176-1.232 1.89-.924.7-2.31.7-1.092 0-1.946-.49a3.43 3.43 0 0 1-1.316-1.386q-.477-.895-.476-2.1m10.254-6.51V412h-1.274v-10.36zm8.975 2.688V412h-1.274v-1.134q-.364.588-1.022.924a3.14 3.14 0 0 1-1.428.322 3.5 3.5 0 0 1-1.61-.364 2.8 2.8 0 0 1-1.134-1.12q-.406-.743-.406-1.806v-4.494h1.26v4.326q0 1.134.574 1.75.574.602 1.568.602 1.022 0 1.61-.63t.588-1.834v-4.214zm4.867 7.798a4.1 4.1 0 0 1-1.582-.294q-.7-.308-1.106-.84a2.27 2.27 0 0 1-.448-1.246h1.316q.056.574.532.938.49.364 1.274.364.728 0 1.148-.322t.42-.812a.79.79 0 0 0-.448-.742q-.449-.252-1.386-.49a11 11 0 0 1-1.4-.448 2.65 2.65 0 0 1-.924-.686q-.378-.462-.378-1.204 0-.588.35-1.078t.994-.77q.643-.294 1.47-.294 1.274 0 2.058.644.784.643.84 1.764h-1.274a1.3 1.3 0 0 0-.49-.966q-.434-.364-1.176-.364-.685 0-1.092.294-.406.294-.406.77a.88.88 0 0 0 .238.63q.252.238.616.392.378.14 1.036.322.827.224 1.344.448.518.21.882.644.378.433.392 1.134 0 .63-.35 1.134t-.994.798q-.63.28-1.456.28m5.257-9.044a.84.84 0 0 1-.616-.252.84.84 0 0 1-.252-.616q0-.364.252-.616a.84.84 0 0 1 .616-.252q.35 0 .588.252a.84.84 0 0 1 .252.616.84.84 0 0 1-.252.616.78.78 0 0 1-.588.252m.616 1.246V412h-1.274v-7.672zm5.027 6.496 2.38-6.496h1.358l-3.01 7.672h-1.484l-3.01-7.672h1.372zm11.992-2.954q0 .364-.042.77h-6.132q.07 1.134.77 1.778.714.63 1.722.63.826 0 1.372-.378.56-.392.784-1.036h1.372a3.34 3.34 0 0 1-1.232 1.806q-.925.686-2.296.686-1.093 0-1.96-.49a3.5 3.5 0 0 1-1.344-1.386q-.49-.91-.49-2.1t.476-2.086a3.3 3.3 0 0 1 1.33-1.372q.867-.49 1.988-.49 1.092 0 1.932.476t1.288 1.316q.462.826.462 1.876m-1.316-.266q0-.728-.322-1.246a2.03 2.03 0 0 0-.882-.798 2.6 2.6 0 0 0-1.218-.28q-.966 0-1.652.616-.672.616-.77 1.708zm3.403 4.48a.84.84 0 0 1-.616-.252.84.84 0 0 1-.252-.616q0-.364.252-.616a.84.84 0 0 1 .616-.252q.351 0 .588.252a.84.84 0 0 1 .252.616.84.84 0 0 1-.252.616.78.78 0 0 1-.588.252m2.058-3.934q0-1.19.476-2.072a3.43 3.43 0 0 1 1.316-1.386q.854-.49 1.946-.49 1.413 0 2.324.686.924.686 1.218 1.904h-1.372a1.96 1.96 0 0 0-.77-1.106q-.56-.406-1.4-.406-1.092 0-1.764.756-.672.742-.672 2.114 0 1.386.672 2.142t1.764.756q.84 0 1.4-.392t.77-1.12h1.372q-.309 1.176-1.232 1.89-.924.7-2.31.7-1.092 0-1.946-.49a3.43 3.43 0 0 1-1.316-1.386q-.476-.895-.476-2.1m12.326 3.976a3.96 3.96 0 0 1-1.96-.49 3.56 3.56 0 0 1-1.372-1.386q-.49-.91-.49-2.1 0-1.176.504-2.072a3.5 3.5 0 0 1 1.4-1.386q.882-.49 1.974-.49t1.974.49a3.44 3.44 0 0 1 1.386 1.372q.518.896.518 2.086t-.532 2.1a3.6 3.6 0 0 1-1.414 1.386q-.897.49-1.988.49m0-1.12a2.7 2.7 0 0 0 1.288-.322q.602-.322.966-.966.378-.644.378-1.568t-.364-1.568-.952-.952a2.6 2.6 0 0 0-1.274-.322q-.7 0-1.288.322-.575.308-.924.952t-.35 1.568q0 .938.336 1.582.35.643.924.966.573.308 1.26.308m14.835-6.818q.895 0 1.596.378.7.364 1.106 1.106t.406 1.806V412h-1.26v-4.34q0-1.148-.574-1.75-.56-.616-1.526-.616-.994 0-1.582.644-.588.63-.588 1.834V412h-1.26v-4.34q0-1.148-.574-1.75-.56-.616-1.526-.616-.994 0-1.582.644-.588.63-.588 1.834V412h-1.274v-7.672h1.274v1.106a2.53 2.53 0 0 1 1.008-.924 3.1 3.1 0 0 1 1.414-.322q.966 0 1.708.434.741.434 1.106 1.274a2.5 2.5 0 0 1 1.064-1.26 3.13 3.13 0 0 1 1.652-.448"/></g><defs><filter id="a" width="366" height="483" x="0" y="0" color-interpolation-filters="sRGB" filterUnits="userSpaceOnUse"><feFlood flood-opacity="0" result="BackgroundImageFix"/><feColorMatrix in="SourceAlpha" result="hardAlpha" values="0 0 0 0 0 0 0 0 0 0 0 0 0 0 0 0 0 0 127 0"/><feOffset dy="1"/><feGaussianBlur stdDeviation="6.5"/><feComposite in2="hardAlpha" operator="out"/><feColorMatrix values="0 0 0 0 0 0 0 0 0 0 0 0 0 0 0 0 0 0 0.05 0"/><feBlend in2="BackgroundImageFix" result="effect1_dropShadow_210_4484"/><feBlend in="SourceGraphic" in2="effect1_dropShadow_210_4484" result="shape"/></filter></defs></svg>