<svg xmlns="http://www.w3.org/2000/svg" width="527" height="56" fill="none"><rect width="299" height="55" x=".5" y=".5" stroke="#000" rx="3.5"/><path fill="#000" d="M24.688 28.416q0-1.632.736-2.928a5.35 5.35 0 0 1 2-2.048q1.28-.735 2.832-.736 1.824 0 3.184.88t1.984 2.496H33.68q-.464-1.009-1.344-1.552-.864-.544-2.08-.544-1.168 0-2.096.544a3.8 3.8 0 0 0-1.456 1.552q-.528.992-.528 2.336 0 1.328.528 2.336a3.8 3.8 0 0 0 1.456 1.536q.928.544 2.096.544 1.215 0 2.08-.528.88-.544 1.344-1.552h1.744q-.624 1.6-1.984 2.48-1.36.864-3.184.864-1.553 0-2.832-.72a5.4 5.4 0 0 1-2-2.032q-.736-1.296-.736-2.928m16.727 5.728a4.53 4.53 0 0 1-2.24-.56A4.07 4.07 0 0 1 37.607 32q-.56-1.04-.56-2.4 0-1.344.576-2.368a4 4 0 0 1 1.6-1.584q1.008-.56 2.256-.56t2.256.56q1.008.544 1.584 1.568.592 1.024.592 2.384t-.608 2.4a4.1 4.1 0 0 1-1.616 1.584q-1.024.56-2.272.56m0-1.28q.785 0 1.472-.368a2.75 2.75 0 0 0 1.104-1.104q.432-.735.432-1.792t-.416-1.792-1.088-1.088a3 3 0 0 0-1.456-.368q-.8 0-1.472.368-.656.352-1.056 1.088-.4.735-.4 1.792 0 1.072.384 1.808.4.736 1.056 1.104.657.352 1.44.352m14.187-7.632V34h-1.456v-1.296q-.417.672-1.168 1.056a3.6 3.6 0 0 1-1.632.368q-1.024 0-1.84-.416a3.2 3.2 0 0 1-1.296-1.28q-.465-.848-.464-2.064v-5.136h1.44v4.944q0 1.296.656 2 .655.688 1.792.688 1.167 0 1.84-.72.672-.72.672-2.096v-4.816zm3.914 1.616q.432-.751 1.28-1.248.864-.512 2-.512 1.169 0 2.112.56.96.56 1.504 1.584.544 1.008.544 2.352 0 1.328-.544 2.368a4 4 0 0 1-1.504 1.616 3.97 3.97 0 0 1-2.112.576q-1.12 0-1.984-.496-.847-.512-1.296-1.264v5.776H58.06V25.232h1.456zm5.952 2.736q0-.992-.4-1.728a2.75 2.75 0 0 0-1.088-1.12 2.95 2.95 0 0 0-1.488-.384 2.9 2.9 0 0 0-1.488.4q-.672.384-1.088 1.136-.4.735-.4 1.712 0 .992.4 1.744.416.736 1.088 1.136.689.384 1.488.384.816 0 1.488-.384a2.86 2.86 0 0 0 1.088-1.136q.4-.752.4-1.76m7.229 4.56a4.53 4.53 0 0 1-2.24-.56A4.07 4.07 0 0 1 68.889 32q-.56-1.04-.56-2.4 0-1.344.576-2.368a4 4 0 0 1 1.6-1.584q1.008-.56 2.256-.56t2.256.56q1.008.544 1.584 1.568.592 1.024.592 2.384t-.608 2.4a4.1 4.1 0 0 1-1.616 1.584q-1.024.56-2.272.56m0-1.28q.783 0 1.472-.368a2.75 2.75 0 0 0 1.104-1.104q.432-.735.432-1.792t-.416-1.792q-.417-.735-1.088-1.088a3 3 0 0 0-1.456-.368q-.8 0-1.472.368-.657.352-1.056 1.088-.4.735-.4 1.792 0 1.072.384 1.808.399.736 1.056 1.104.656.352 1.44.352m10.682-7.792q1.6 0 2.592.976.992.96.992 2.784V34h-1.44v-4.96q0-1.312-.656-2-.656-.704-1.792-.704-1.152 0-1.84.72-.672.72-.672 2.096V34h-1.456v-8.768h1.456v1.248a2.9 2.9 0 0 1 1.168-1.04 3.7 3.7 0 0 1 1.648-.368m9.684 3.344q0-1.632.736-2.928a5.35 5.35 0 0 1 2-2.048q1.28-.735 2.832-.736 1.824 0 3.184.88t1.984 2.496h-1.744q-.463-1.009-1.344-1.552-.865-.544-2.08-.544-1.168 0-2.096.544a3.8 3.8 0 0 0-1.456 1.552q-.528.992-.528 2.336 0 1.328.528 2.336a3.8 3.8 0 0 0 1.456 1.536q.928.544 2.096.544 1.215 0 2.08-.528.88-.544 1.344-1.552h1.744q-.624 1.6-1.984 2.48-1.36.864-3.184.864-1.552 0-2.832-.72a5.4 5.4 0 0 1-2-2.032q-.736-1.296-.736-2.928m16.727 5.728a4.54 4.54 0 0 1-2.24-.56A4.07 4.07 0 0 1 105.982 32q-.56-1.04-.56-2.4 0-1.344.576-2.368a4 4 0 0 1 1.6-1.584q1.008-.56 2.256-.56t2.256.56q1.008.544 1.584 1.568.592 1.024.592 2.384t-.608 2.4a4.1 4.1 0 0 1-1.616 1.584q-1.023.56-2.272.56m0-1.28q.785 0 1.472-.368a2.74 2.74 0 0 0 1.104-1.104q.432-.735.432-1.792t-.416-1.792-1.088-1.088a3 3 0 0 0-1.456-.368q-.8 0-1.472.368-.655.352-1.056 1.088-.4.735-.4 1.792 0 1.072.384 1.808.4.736 1.056 1.104a3 3 0 0 0 1.44.352m5.867-3.28q0-1.344.544-2.352a3.94 3.94 0 0 1 1.488-1.584 4.2 4.2 0 0 1 2.144-.56q1.023 0 1.904.48.879.465 1.344 1.232v-4.64h1.472V34h-1.472v-1.648q-.432.785-1.28 1.296-.849.495-1.984.496a4.06 4.06 0 0 1-2.128-.576 4.03 4.03 0 0 1-1.488-1.616q-.544-1.04-.544-2.368m7.424.016q0-.992-.4-1.728a2.76 2.76 0 0 0-1.088-1.12 2.85 2.85 0 0 0-1.488-.4q-.816 0-1.488.384t-1.072 1.12-.4 1.728q0 1.008.4 1.76.4.736 1.072 1.136.672.384 1.488.384t1.488-.384a2.87 2.87 0 0 0 1.088-1.136q.4-.752.4-1.744m11.932-.32q0 .415-.048.88h-7.008q.08 1.296.88 2.032.816.72 1.968.72.944 0 1.568-.432.64-.448.896-1.184h1.568a3.8 3.8 0 0 1-1.408 2.064q-1.056.784-2.624.784-1.248 0-2.24-.56A4 4 0 0 1 127.029 32q-.56-1.04-.56-2.4t.544-2.384a3.8 3.8 0 0 1 1.52-1.568q.993-.56 2.272-.56 1.248 0 2.208.544t1.472 1.504q.528.945.528 2.144m-1.504-.304q0-.833-.368-1.424a2.3 2.3 0 0 0-1.008-.912 3 3 0 0 0-1.392-.32q-1.104 0-1.888.704-.768.704-.88 1.952z" opacity=".5"/><rect width="211" height="56" x="316" fill="#DB4444" rx="4"/><path fill="#FAFAFA" d="M371.904 31.728h-4.656l-.8 2.272h-1.904l3.984-11.136h2.112L374.624 34h-1.92zm-.512-1.488-1.808-5.168-1.824 5.168zm6.788-3.76q.465-.608 1.264-1.024.8-.416 1.808-.416 1.152 0 2.096.576.96.56 1.504 1.584t.544 2.352-.544 2.384a4.1 4.1 0 0 1-1.504 1.632 3.95 3.95 0 0 1-2.096.576q-1.008 0-1.792-.4a4.1 4.1 0 0 1-1.28-1.024v5.472h-1.824V25.184h1.824zm5.36 3.072q0-.911-.384-1.568a2.44 2.44 0 0 0-.992-1.008 2.57 2.57 0 0 0-1.312-.352q-.687 0-1.312.352a2.7 2.7 0 0 0-.992 1.024q-.368.672-.368 1.584t.368 1.6q.384.672.992 1.024.624.352 1.312.352.705 0 1.312-.352.624-.367.992-1.056.384-.688.384-1.6m5.484-3.072q.464-.608 1.264-1.024t1.808-.416q1.152 0 2.096.576a3.9 3.9 0 0 1 1.504 1.584q.544 1.024.544 2.352t-.544 2.384a4.1 4.1 0 0 1-1.504 1.632 3.95 3.95 0 0 1-2.096.576q-1.008 0-1.792-.4a4.1 4.1 0 0 1-1.28-1.024v5.472H387.2V25.184h1.824zm5.36 3.072q0-.911-.384-1.568a2.44 2.44 0 0 0-.992-1.008 2.6 2.6 0 0 0-1.312-.352 2.63 2.63 0 0 0-1.312.352 2.7 2.7 0 0 0-.992 1.024q-.368.672-.368 1.584t.368 1.6q.384.672.992 1.024a2.63 2.63 0 0 0 1.312.352q.704 0 1.312-.352.624-.367.992-1.056.384-.688.384-1.6m5.484-7.392V34h-1.824V22.16zm10.331 3.024-5.408 12.96h-1.888l1.792-4.288-3.472-8.672h2.032l2.48 6.72 2.576-6.72zm4.924 3.232q0-1.632.752-2.928a5.43 5.43 0 0 1 2.064-2.016 5.76 5.76 0 0 1 2.864-.736q1.776 0 3.152.88 1.392.864 2.016 2.464h-2.192q-.432-.88-1.2-1.312t-1.776-.432q-1.104 0-1.968.496a3.5 3.5 0 0 0-1.36 1.424q-.48.928-.48 2.16t.48 2.16a3.6 3.6 0 0 0 1.36 1.44q.864.495 1.968.496 1.008 0 1.776-.432t1.2-1.312h2.192q-.624 1.6-2.016 2.464-1.376.864-3.152.864-1.568 0-2.864-.72a5.55 5.55 0 0 1-2.064-2.032q-.752-1.296-.752-2.928m16.807 5.728q-1.248 0-2.256-.56a4.15 4.15 0 0 1-1.584-1.6q-.576-1.04-.576-2.4 0-1.344.592-2.384a4.1 4.1 0 0 1 1.616-1.6q1.025-.56 2.288-.56 1.265 0 2.288.56a4.1 4.1 0 0 1 1.616 1.6q.592 1.04.592 2.384t-.608 2.384a4.25 4.25 0 0 1-1.664 1.616 4.8 4.8 0 0 1-2.304.56m0-1.584q.705 0 1.312-.336.624-.336 1.008-1.008t.384-1.632-.368-1.616a2.47 2.47 0 0 0-.976-1.008 2.67 2.67 0 0 0-1.312-.336q-.703 0-1.312.336-.591.336-.944 1.008-.351.656-.352 1.616 0 1.424.72 2.208.736.768 1.84.768m14.363-7.376V34h-1.824v-1.04q-.431.544-1.136.864a3.6 3.6 0 0 1-1.472.304q-1.04 0-1.872-.432a3.2 3.2 0 0 1-1.296-1.28q-.464-.848-.464-2.048v-5.184h1.808v4.912q0 1.184.592 1.824.593.624 1.616.624 1.025 0 1.616-.624.608-.64.608-1.824v-4.912zm4.231 1.296q.464-.608 1.264-1.024t1.808-.416q1.152 0 2.096.576a3.9 3.9 0 0 1 1.504 1.584q.544 1.024.544 2.352t-.544 2.384a4.1 4.1 0 0 1-1.504 1.632 3.95 3.95 0 0 1-2.096.576q-1.008 0-1.792-.4a4.1 4.1 0 0 1-1.28-1.024v5.472H448.7V25.184h1.824zm5.36 3.072q0-.911-.384-1.568a2.44 2.44 0 0 0-.992-1.008 2.6 2.6 0 0 0-1.312-.352 2.63 2.63 0 0 0-1.312.352 2.7 2.7 0 0 0-.992 1.024q-.368.672-.368 1.584t.368 1.6q.384.672.992 1.024a2.63 2.63 0 0 0 1.312.352q.704 0 1.312-.352.624-.367.992-1.056.384-.688.384-1.6m7.484 4.592q-1.248 0-2.256-.56a4.15 4.15 0 0 1-1.584-1.6q-.576-1.04-.576-2.4 0-1.344.592-2.384a4.1 4.1 0 0 1 1.616-1.6q1.023-.56 2.288-.56 1.263 0 2.288.56a4.1 4.1 0 0 1 1.616 1.6q.591 1.04.592 2.384 0 1.343-.608 2.384a4.26 4.26 0 0 1-1.664 1.616 4.8 4.8 0 0 1-2.304.56m0-1.584q.703 0 1.312-.336.624-.336 1.008-1.008t.384-1.632-.368-1.616a2.5 2.5 0 0 0-.976-1.008 2.7 2.7 0 0 0-1.312-.336q-.705 0-1.312.336-.593.336-.944 1.008-.352.656-.352 1.616 0 1.424.72 2.208.736.768 1.84.768m10.827-7.52q1.04 0 1.856.432.833.432 1.296 1.28t.464 2.048V34h-1.808v-4.928q0-1.184-.592-1.808-.592-.64-1.616-.64t-1.632.64q-.592.624-.592 1.808V34h-1.824v-8.816h1.824v1.008a3 3 0 0 1 1.136-.848 3.7 3.7 0 0 1 1.488-.304"/></svg>