<svg xmlns="http://www.w3.org/2000/svg" width="829" height="179" fill="none"><path fill="#000" d="M6.016 82.375v-9.766L40.586 18h7.695v14.375h-4.883l-24.726 39.14v.626h47.383v10.234zM43.946 98V79.406l.077-4.453V18H55.47v80zm66.874 1.328q-9.259-.04-15.82-4.883-6.564-4.844-10.04-14.101t-3.476-22.305q0-13.007 3.476-22.226 3.516-9.22 10.078-14.063 6.602-4.844 15.782-4.844t15.742 4.883q6.562 4.845 10.039 14.063 3.515 9.18 3.515 22.187 0 13.086-3.476 22.344-3.477 9.219-10.039 14.101-6.563 4.844-15.781 4.844m0-10.43q8.124 0 12.695-7.93 4.61-7.929 4.609-22.929 0-9.96-2.109-16.836-2.07-6.914-5.977-10.469-3.867-3.594-9.218-3.593-8.087 0-12.696 7.968-4.61 7.97-4.648 22.93 0 10 2.07 16.914 2.109 6.876 5.977 10.43 3.867 3.515 9.297 3.515m44.774-6.523v-9.766L190.164 18h7.696v14.375h-4.883l-24.727 39.14v.626h47.383v10.234zM193.524 98V79.406l.078-4.453V18h11.445v80zm137.098-80v80h-11.094l-40.664-58.672h-.742V98h-12.07V18h11.171l40.704 58.75h.742V18zm45.243 81.21q-8.438 0-14.726-3.866-6.29-3.867-9.766-10.82t-3.477-16.25q0-9.336 3.477-16.329 3.477-6.99 9.766-10.86 6.288-3.866 14.726-3.866t14.727 3.867q6.29 3.867 9.765 10.86 3.477 6.991 3.477 16.327 0 9.297-3.477 16.25-3.476 6.954-9.765 10.82-6.29 3.868-14.727 3.868m.039-9.804q5.469 0 9.063-2.89 3.593-2.892 5.312-7.696 1.758-4.804 1.758-10.586 0-5.742-1.758-10.546-1.719-4.844-5.312-7.774t-9.063-2.93q-5.508 0-9.14 2.93-3.594 2.93-5.352 7.773-1.719 4.806-1.719 10.547 0 5.782 1.719 10.586 1.758 4.805 5.352 7.696 3.633 2.89 9.14 2.89M448.179 38v9.375h-32.774V38zm-23.984-14.375h11.679v56.758q0 3.398 1.016 5.117 1.015 1.68 2.617 2.305 1.641.585 3.555.586 1.406 0 2.461-.196 1.055-.195 1.64-.312l2.11 9.648q-1.016.39-2.891.781-1.875.43-4.687.47-4.61.077-8.594-1.641-3.984-1.719-6.446-5.313-2.46-3.594-2.46-9.023zM497.748 98V18h49.609v10.39h-37.539v24.376h33.984v10.351h-33.984V98zm87.684 1.21q-8.437 0-14.726-3.866t-9.766-10.82-3.476-16.25q0-9.336 3.476-16.329 3.477-6.99 9.766-10.86 6.289-3.866 14.726-3.866t14.727 3.867 9.766 10.86q3.476 6.991 3.476 16.327 0 9.297-3.476 16.25-3.477 6.954-9.766 10.82-6.29 3.868-14.727 3.868m.039-9.804q5.469 0 9.063-2.89 3.594-2.892 5.312-7.696 1.758-4.804 1.758-10.586 0-5.742-1.758-10.546-1.718-4.844-5.312-7.774t-9.063-2.93q-5.507 0-9.14 2.93-3.594 2.93-5.352 7.773-1.718 4.806-1.718 10.547 0 5.782 1.718 10.586 1.758 4.805 5.352 7.696 3.633 2.89 9.14 2.89m82.275-16.289V38h11.719v60H667.98V87.61h-.625q-2.07 4.804-6.64 8.007-4.531 3.165-11.289 3.164-5.781 0-10.235-2.539-4.413-2.578-6.953-7.617-2.5-5.04-2.5-12.46V38h11.68v36.758q0 6.133 3.398 9.765t8.829 3.633q3.281 0 6.523-1.64 3.28-1.641 5.43-4.961 2.187-3.32 2.148-8.438m42.392-10.742V98h-11.68V38h11.211v9.766h.742q2.071-4.766 6.485-7.657 4.452-2.89 11.211-2.89 6.132 0 10.742 2.578 4.61 2.54 7.148 7.578 2.54 5.04 2.539 12.46V98h-11.679V61.242q0-6.523-3.399-10.195-3.398-3.711-9.336-3.711-4.062 0-7.226 1.758-3.125 1.758-4.961 5.156-1.797 3.36-1.797 8.125m79.823 36.797q-7.265 0-12.968-3.711-5.664-3.75-8.907-10.664-3.203-6.953-3.203-16.68t3.242-16.64q3.282-6.914 8.985-10.586t12.929-3.672q5.586 0 8.985 1.875 3.437 1.836 5.312 4.297 1.914 2.46 2.969 4.336h.703V18h11.68v80h-11.406v-9.336h-.977q-1.055 1.914-3.047 4.375-1.953 2.46-5.39 4.297-3.438 1.836-8.907 1.836m2.578-9.961q5.04 0 8.516-2.656 3.516-2.696 5.313-7.461 1.836-4.766 1.835-11.094 0-6.25-1.796-10.937-1.797-4.688-5.274-7.305-3.476-2.617-8.594-2.617-5.273 0-8.789 2.734t-5.312 7.46Q776.68 62.064 776.68 68q0 6.015 1.797 10.82t5.312 7.618q3.555 2.773 8.75 2.773M211.04 161.848l-3.632 6.944V173h-1.456v-4.208l-3.648-6.944h1.616l2.752 5.648 2.752-5.648zm5.36 11.296a4.54 4.54 0 0 1-2.24-.56 4.06 4.06 0 0 1-1.568-1.584q-.56-1.04-.56-2.4 0-1.344.576-2.368a4 4 0 0 1 1.6-1.584q1.008-.56 2.256-.56t2.256.56q1.008.544 1.584 1.568.592 1.024.592 2.384t-.608 2.4a4.1 4.1 0 0 1-1.616 1.584q-1.024.56-2.272.56m0-1.28q.783 0 1.472-.368a2.75 2.75 0 0 0 1.104-1.104q.432-.736.432-1.792t-.416-1.792-1.088-1.088a3 3 0 0 0-1.456-.368q-.8 0-1.472.368-.657.352-1.056 1.088-.4.736-.4 1.792 0 1.072.384 1.808.399.737 1.056 1.104.656.352 1.44.352m14.186-7.632V173h-1.456v-1.296q-.416.672-1.168 1.056a3.6 3.6 0 0 1-1.632.368q-1.024 0-1.84-.416a3.2 3.2 0 0 1-1.296-1.28q-.464-.847-.464-2.064v-5.136h1.44v4.944q0 1.296.656 2 .656.688 1.792.688 1.168 0 1.84-.72t.672-2.096v-4.816zm3.915 1.424a2.8 2.8 0 0 1 1.088-1.168q.72-.416 1.744-.416v1.504h-.384q-2.448 0-2.448 2.656V173h-1.456v-8.768h1.456zm12.042 6 2.72-7.424h1.552l-3.44 8.768h-1.696l-3.44-8.768h1.568zm6.457-8.848a.96.96 0 0 1-.704-.288.96.96 0 0 1-.288-.704q0-.416.288-.704a.96.96 0 0 1 .704-.288.9.9 0 0 1 .672.288.96.96 0 0 1 .288.704.96.96 0 0 1-.288.704.9.9 0 0 1-.672.288m.704 1.424V173h-1.456v-8.768zm5.585 8.912q-1.008 0-1.808-.336-.8-.352-1.264-.96a2.6 2.6 0 0 1-.512-1.424h1.504q.064.656.608 1.072.56.416 1.456.416.832 0 1.312-.368t.48-.928q0-.576-.512-.848-.512-.288-1.584-.56a13 13 0 0 1-1.6-.512 3 3 0 0 1-1.056-.784q-.432-.528-.432-1.376 0-.672.4-1.232t1.136-.88q.737-.336 1.68-.336 1.457 0 2.352.736.895.737.96 2.016h-1.456a1.5 1.5 0 0 0-.56-1.104q-.497-.416-1.344-.416-.784 0-1.248.336t-.464.88q0 .432.272.72.288.272.704.448.432.16 1.184.368.944.256 1.536.512.592.24 1.008.736.432.497.448 1.296 0 .72-.4 1.296t-1.136.912q-.72.32-1.664.32m6.008-10.336a.96.96 0 0 1-.704-.288.96.96 0 0 1-.288-.704q0-.416.288-.704a.96.96 0 0 1 .704-.288.9.9 0 0 1 .672.288.96.96 0 0 1 .288.704.96.96 0 0 1-.288.704.9.9 0 0 1-.672.288m.704 1.424V173h-1.456v-8.768zm4.257 1.2v5.168q0 .64.272.912.272.256.944.256h1.072V173h-1.312q-1.216 0-1.824-.56t-.608-1.84v-5.168h-1.136v-1.2h1.136v-2.208h1.456v2.208h2.288v1.2zm12.052 2.848q0 .416-.048.88h-7.008q.08 1.296.88 2.032.816.72 1.968.72.944 0 1.568-.432.64-.448.896-1.184h1.568a3.8 3.8 0 0 1-1.408 2.064q-1.056.784-2.624.784-1.248 0-2.24-.56a4 4 0 0 1-1.536-1.584q-.56-1.04-.56-2.4t.544-2.384a3.8 3.8 0 0 1 1.52-1.568q.992-.56 2.272-.56 1.248 0 2.208.544a3.7 3.7 0 0 1 1.472 1.504q.528.944.528 2.144m-1.504-.304q0-.832-.368-1.424a2.3 2.3 0 0 0-1.008-.912 3 3 0 0 0-1.392-.32q-1.104 0-1.888.704-.768.704-.88 1.952zm2.882.608q0-1.344.544-2.352a3.95 3.95 0 0 1 1.488-1.584 4.2 4.2 0 0 1 2.144-.56q1.024 0 1.904.48.88.464 1.344 1.232v-4.64h1.472V173h-1.472v-1.648q-.432.785-1.28 1.296-.848.496-1.984.496a4.06 4.06 0 0 1-2.128-.576 4.05 4.05 0 0 1-1.488-1.616q-.544-1.04-.544-2.368m7.424.016q0-.992-.4-1.728a2.75 2.75 0 0 0-1.088-1.12 2.85 2.85 0 0 0-1.488-.4q-.816 0-1.488.384a2.8 2.8 0 0 0-1.072 1.12q-.4.737-.4 1.728 0 1.008.4 1.76.4.736 1.072 1.136.672.384 1.488.384t1.488-.384a2.86 2.86 0 0 0 1.088-1.136q.4-.752.4-1.744m9.654-2.752q.432-.752 1.28-1.248.864-.512 2-.512 1.168 0 2.112.56.96.56 1.504 1.584.544 1.008.544 2.352 0 1.328-.544 2.368a4 4 0 0 1-1.504 1.616 3.97 3.97 0 0 1-2.112.576q-1.12 0-1.984-.496-.848-.512-1.296-1.264v5.776h-1.456v-12.928h1.456zm5.952 2.736q0-.991-.4-1.728a2.75 2.75 0 0 0-1.088-1.12 2.95 2.95 0 0 0-1.488-.384q-.8 0-1.488.4-.672.384-1.088 1.136-.4.736-.4 1.712 0 .992.4 1.744.416.736 1.088 1.136.688.384 1.488.384.816 0 1.488-.384a2.86 2.86 0 0 0 1.088-1.136q.4-.752.4-1.76m2.861 0q0-1.344.544-2.352a3.94 3.94 0 0 1 1.488-1.584 4.15 4.15 0 0 1 2.128-.56q1.151 0 2 .496.847.497 1.264 1.248v-1.6h1.472V173h-1.472v-1.632q-.432.768-1.296 1.28-.849.496-1.984.496a3.97 3.97 0 0 1-2.112-.576 4.03 4.03 0 0 1-1.488-1.616q-.544-1.04-.544-2.368m7.424.016q0-.992-.4-1.728a2.76 2.76 0 0 0-1.088-1.12 2.85 2.85 0 0 0-1.488-.4q-.816 0-1.488.384a2.8 2.8 0 0 0-1.072 1.12q-.4.737-.4 1.728 0 1.008.4 1.76.4.736 1.072 1.136.672.384 1.488.384t1.488-.384a2.87 2.87 0 0 0 1.088-1.136q.4-.752.4-1.744m7.548-4.512q1.136 0 1.984.496.864.497 1.28 1.248v-1.6h1.472v8.96q0 1.2-.512 2.128a3.6 3.6 0 0 1-1.472 1.472q-.943.528-2.208.528-1.728 0-2.88-.816t-1.36-2.224h1.44q.24.8.992 1.28.752.496 1.808.496 1.2 0 1.952-.752.768-.751.768-2.112v-1.84q-.432.768-1.28 1.28t-1.984.512a4.06 4.06 0 0 1-2.128-.576 4.05 4.05 0 0 1-1.488-1.616q-.544-1.04-.544-2.368 0-1.344.544-2.352a3.95 3.95 0 0 1 1.488-1.584 4.15 4.15 0 0 1 2.128-.56m3.264 4.512q0-.992-.4-1.728a2.75 2.75 0 0 0-1.088-1.12 2.85 2.85 0 0 0-1.488-.4q-.816 0-1.488.384a2.8 2.8 0 0 0-1.072 1.12q-.4.737-.4 1.728 0 1.008.4 1.76.4.736 1.072 1.136.672.384 1.488.384t1.488-.384a2.86 2.86 0 0 0 1.088-1.136q.4-.752.4-1.744m11.933-.32q0 .416-.048.88h-7.008q.08 1.296.88 2.032.816.72 1.968.72.944 0 1.568-.432.64-.448.896-1.184h1.568a3.8 3.8 0 0 1-1.408 2.064q-1.056.784-2.624.784-1.248 0-2.24-.56a4 4 0 0 1-1.536-1.584q-.56-1.04-.56-2.4t.544-2.384a3.8 3.8 0 0 1 1.52-1.568q.991-.56 2.272-.56 1.248 0 2.208.544t1.472 1.504q.528.944.528 2.144m-1.504-.304q0-.832-.368-1.424a2.33 2.33 0 0 0-1.008-.912 3 3 0 0 0-1.392-.32q-1.105 0-1.888.704-.768.704-.88 1.952zm11.963-3.904q1.6 0 2.592.976.992.96.992 2.784V173h-1.44v-4.96q0-1.312-.656-2-.656-.704-1.792-.704-1.152 0-1.84.72-.672.72-.672 2.096V173h-1.456v-8.768h1.456v1.248a2.9 2.9 0 0 1 1.168-1.04 3.7 3.7 0 0 1 1.648-.368m9.787 9.072a4.54 4.54 0 0 1-2.24-.56 4.06 4.06 0 0 1-1.568-1.584q-.56-1.04-.56-2.4 0-1.344.576-2.368a4 4 0 0 1 1.6-1.584q1.008-.56 2.256-.56t2.256.56q1.008.544 1.584 1.568.591 1.024.592 2.384 0 1.36-.608 2.4a4.1 4.1 0 0 1-1.616 1.584q-1.024.56-2.272.56m0-1.28q.783 0 1.472-.368a2.75 2.75 0 0 0 1.104-1.104q.432-.736.432-1.792t-.416-1.792-1.088-1.088a3 3 0 0 0-1.456-.368q-.8 0-1.472.368-.657.352-1.056 1.088-.4.736-.4 1.792 0 1.072.384 1.808.399.737 1.056 1.104.655.352 1.44.352m8.186-6.432v5.168q0 .64.272.912.272.256.944.256h1.072V173h-1.312q-1.216 0-1.824-.56t-.608-1.84v-5.168h-1.136v-1.2h1.136v-2.208h1.456v2.208h2.288v1.2zm11.886 0h-1.84V173h-1.456v-7.568h-1.136v-1.2h1.136v-.624q0-1.472.752-2.144.768-.688 2.448-.688v1.216q-.96 0-1.36.384-.384.368-.384 1.232v.624h1.84zm5.521 7.712a4.54 4.54 0 0 1-2.24-.56 4.07 4.07 0 0 1-1.568-1.584q-.56-1.04-.56-2.4 0-1.344.576-2.368a4 4 0 0 1 1.6-1.584q1.008-.56 2.256-.56t2.256.56q1.008.544 1.584 1.568.592 1.024.592 2.384t-.608 2.4a4.1 4.1 0 0 1-1.616 1.584q-1.023.56-2.272.56m0-1.28q.785 0 1.472-.368a2.74 2.74 0 0 0 1.104-1.104q.432-.736.432-1.792t-.416-1.792-1.088-1.088a3 3 0 0 0-1.456-.368q-.8 0-1.472.368-.656.352-1.056 1.088t-.4 1.792q0 1.072.384 1.808.4.737 1.056 1.104.657.352 1.44.352m14.187-7.632V173h-1.456v-1.296q-.417.672-1.168 1.056a3.6 3.6 0 0 1-1.632.368q-1.024 0-1.84-.416a3.2 3.2 0 0 1-1.296-1.28q-.465-.847-.464-2.064v-5.136h1.44v4.944q0 1.296.656 2 .655.688 1.792.688 1.168 0 1.84-.72t.672-2.096v-4.816zm6.73-.16q1.6 0 2.592.976.992.96.992 2.784V173h-1.44v-4.96q0-1.312-.656-2-.656-.704-1.792-.704-1.152 0-1.84.72-.672.72-.672 2.096V173h-1.456v-8.768h1.456v1.248a2.9 2.9 0 0 1 1.168-1.04 3.7 3.7 0 0 1 1.648-.368m5.418 4.512q0-1.344.544-2.352a3.95 3.95 0 0 1 1.488-1.584 4.2 4.2 0 0 1 2.144-.56q1.025 0 1.904.48.88.464 1.344 1.232v-4.64h1.472V173h-1.472v-1.648q-.432.785-1.28 1.296-.847.496-1.984.496a4.06 4.06 0 0 1-2.128-.576 4.05 4.05 0 0 1-1.488-1.616q-.543-1.04-.544-2.368m7.424.016q0-.992-.4-1.728a2.75 2.75 0 0 0-1.088-1.12 2.85 2.85 0 0 0-1.488-.4q-.816 0-1.488.384a2.8 2.8 0 0 0-1.072 1.12q-.4.737-.4 1.728 0 1.008.4 1.76.4.736 1.072 1.136.672.384 1.488.384t1.488-.384a2.86 2.86 0 0 0 1.088-1.136q.4-.752.4-1.744m4.397 4.496a.96.96 0 0 1-.704-.288.96.96 0 0 1-.288-.704q0-.416.288-.704a.96.96 0 0 1 .704-.288q.4 0 .672.288a.96.96 0 0 1 .288.704.96.96 0 0 1-.288.704.9.9 0 0 1-.672.288m14.969-11.248-3.632 6.944V173h-1.456v-4.208l-3.648-6.944h1.616l2.752 5.648 2.752-5.648zm5.36 11.296a4.54 4.54 0 0 1-2.24-.56 4.06 4.06 0 0 1-1.568-1.584q-.56-1.04-.56-2.4 0-1.344.576-2.368a4 4 0 0 1 1.6-1.584q1.008-.56 2.256-.56t2.256.56q1.008.544 1.584 1.568.591 1.024.592 2.384 0 1.36-.608 2.4a4.1 4.1 0 0 1-1.616 1.584q-1.024.56-2.272.56m0-1.28q.783 0 1.472-.368a2.75 2.75 0 0 0 1.104-1.104q.432-.736.432-1.792t-.416-1.792-1.088-1.088a3 3 0 0 0-1.456-.368q-.8 0-1.472.368-.657.352-1.056 1.088-.4.736-.4 1.792 0 1.072.384 1.808.399.737 1.056 1.104.656.352 1.44.352m14.186-7.632V173h-1.456v-1.296q-.416.672-1.168 1.056a3.6 3.6 0 0 1-1.632.368q-1.024 0-1.84-.416a3.2 3.2 0 0 1-1.296-1.28q-.464-.847-.464-2.064v-5.136h1.44v4.944q0 1.296.656 2 .656.688 1.792.688 1.168 0 1.84-.72t.672-2.096v-4.816zm17.268-.16q1.024 0 1.824.432.8.416 1.264 1.264.464.847.464 2.064V173h-1.44v-4.96q0-1.312-.656-2-.64-.704-1.744-.704-1.136 0-1.808.736-.672.72-.672 2.096V173h-1.44v-4.96q0-1.312-.656-2-.64-.704-1.744-.704-1.136 0-1.808.736-.672.72-.672 2.096V173h-1.456v-8.768h1.456v1.264a2.9 2.9 0 0 1 1.152-1.056 3.6 3.6 0 0 1 1.616-.368q1.104 0 1.952.496t1.264 1.456a2.87 2.87 0 0 1 1.216-1.44 3.6 3.6 0 0 1 1.888-.512m5.396 4.512q0-1.344.544-2.352a3.95 3.95 0 0 1 1.488-1.584 4.15 4.15 0 0 1 2.128-.56q1.152 0 2 .496.849.497 1.264 1.248v-1.6h1.472V173h-1.472v-1.632q-.432.768-1.296 1.28-.847.496-1.984.496a4 4 0 0 1-2.112-.576 4.05 4.05 0 0 1-1.488-1.616q-.543-1.04-.544-2.368m7.424.016q0-.992-.4-1.728a2.75 2.75 0 0 0-1.088-1.12 2.85 2.85 0 0 0-1.488-.4q-.816 0-1.488.384a2.8 2.8 0 0 0-1.072 1.12q-.4.737-.4 1.728 0 1.008.4 1.76.4.736 1.072 1.136.672.384 1.488.384t1.488-.384a2.86 2.86 0 0 0 1.088-1.136q.4-.752.4-1.744m11.485-4.368-5.28 12.896h-1.504l1.728-4.224-3.536-8.672h1.616l2.752 7.104 2.72-7.104zm9.345-.144q1.136 0 1.984.496.864.497 1.28 1.248v-1.6h1.472v8.96q0 1.2-.512 2.128a3.6 3.6 0 0 1-1.472 1.472q-.944.528-2.208.528-1.728 0-2.88-.816t-1.36-2.224h1.44q.24.8.992 1.28.752.496 1.808.496 1.2 0 1.952-.752.768-.751.768-2.112v-1.84q-.432.768-1.28 1.28t-1.984.512a4.06 4.06 0 0 1-2.128-.576 4.05 4.05 0 0 1-1.488-1.616q-.544-1.04-.544-2.368 0-1.344.544-2.352a3.95 3.95 0 0 1 1.488-1.584 4.15 4.15 0 0 1 2.128-.56m3.264 4.512q0-.992-.4-1.728a2.75 2.75 0 0 0-1.088-1.12 2.85 2.85 0 0 0-1.488-.4q-.816 0-1.488.384a2.8 2.8 0 0 0-1.072 1.12q-.4.737-.4 1.728 0 1.008.4 1.76.4.736 1.072 1.136.672.384 1.488.384t1.488-.384a2.86 2.86 0 0 0 1.088-1.136q.4-.752.4-1.744m7.757 4.544a4.54 4.54 0 0 1-2.24-.56 4.06 4.06 0 0 1-1.568-1.584q-.56-1.04-.56-2.4 0-1.344.576-2.368a4 4 0 0 1 1.6-1.584q1.008-.56 2.256-.56t2.256.56q1.008.544 1.584 1.568.591 1.024.592 2.384 0 1.36-.608 2.4a4.1 4.1 0 0 1-1.616 1.584q-1.024.56-2.272.56m0-1.28q.783 0 1.472-.368a2.75 2.75 0 0 0 1.104-1.104q.432-.736.432-1.792t-.416-1.792-1.088-1.088a3 3 0 0 0-1.456-.368q-.8 0-1.472.368-.657.352-1.056 1.088-.4.736-.4 1.792 0 1.072.384 1.808.399.737 1.056 1.104.655.352 1.44.352m15.028-7.792q.991 0 1.792.432a2.92 2.92 0 0 1 1.248 1.264q.464.847.464 2.064V173h-1.44v-4.96q0-1.312-.656-2-.657-.704-1.792-.704-1.152 0-1.84.72-.672.72-.672 2.096V173h-1.456v-11.84h1.456v4.32a2.87 2.87 0 0 1 1.184-1.04 3.9 3.9 0 0 1 1.712-.368m9.706 9.072a4.54 4.54 0 0 1-2.24-.56 4.07 4.07 0 0 1-1.568-1.584q-.56-1.04-.56-2.4 0-1.344.576-2.368a4 4 0 0 1 1.6-1.584q1.008-.56 2.256-.56t2.256.56q1.008.544 1.584 1.568.592 1.024.592 2.384t-.608 2.4a4.1 4.1 0 0 1-1.616 1.584q-1.024.56-2.272.56m0-1.28q.784 0 1.472-.368a2.74 2.74 0 0 0 1.104-1.104q.432-.736.432-1.792t-.416-1.792-1.088-1.088a3 3 0 0 0-1.456-.368q-.8 0-1.472.368-.655.352-1.056 1.088-.4.736-.4 1.792 0 1.072.384 1.808.4.737 1.056 1.104.656.352 1.44.352m16.954-7.792q1.025 0 1.824.432.8.416 1.264 1.264.465.847.464 2.064V173h-1.44v-4.96q0-1.312-.656-2-.64-.704-1.744-.704-1.136 0-1.808.736-.672.72-.672 2.096V173h-1.44v-4.96q0-1.312-.656-2-.64-.704-1.744-.704-1.136 0-1.808.736-.672.72-.672 2.096V173h-1.456v-8.768h1.456v1.264a2.9 2.9 0 0 1 1.152-1.056 3.6 3.6 0 0 1 1.616-.368q1.104 0 1.952.496.849.496 1.264 1.456a2.88 2.88 0 0 1 1.216-1.44 3.6 3.6 0 0 1 1.888-.512m13.941 4.208q0 .416-.048.88h-7.008q.08 1.296.88 2.032.816.72 1.968.72.944 0 1.568-.432.64-.448.896-1.184h1.568a3.8 3.8 0 0 1-1.408 2.064q-1.056.784-2.624.784-1.248 0-2.24-.56a4 4 0 0 1-1.536-1.584q-.56-1.04-.56-2.4t.544-2.384a3.8 3.8 0 0 1 1.52-1.568q.991-.56 2.272-.56 1.248 0 2.208.544t1.472 1.504q.528.944.528 2.144m-1.504-.304q0-.832-.368-1.424a2.33 2.33 0 0 0-1.008-.912 3 3 0 0 0-1.392-.32q-1.105 0-1.888.704-.769.704-.88 1.952zm9.147-2.128q.432-.752 1.28-1.248.864-.512 2-.512 1.168 0 2.112.56.96.56 1.504 1.584.544 1.008.544 2.352 0 1.328-.544 2.368a4 4 0 0 1-1.504 1.616 3.97 3.97 0 0 1-2.112.576q-1.12 0-1.984-.496-.847-.512-1.296-1.264v5.776h-1.456v-12.928h1.456zm5.952 2.736q0-.991-.4-1.728a2.75 2.75 0 0 0-1.088-1.12 2.95 2.95 0 0 0-1.488-.384q-.8 0-1.488.4-.671.384-1.088 1.136-.4.736-.4 1.712 0 .992.4 1.744.417.736 1.088 1.136.688.384 1.488.384.816 0 1.488-.384a2.86 2.86 0 0 0 1.088-1.136q.4-.752.4-1.76m2.861 0q0-1.344.544-2.352a3.94 3.94 0 0 1 1.488-1.584 4.15 4.15 0 0 1 2.128-.56q1.151 0 2 .496.847.497 1.264 1.248v-1.6h1.472V173h-1.472v-1.632q-.432.768-1.296 1.28-.849.496-1.984.496a3.97 3.97 0 0 1-2.112-.576 4.03 4.03 0 0 1-1.488-1.616q-.544-1.04-.544-2.368m7.424.016q0-.992-.4-1.728a2.76 2.76 0 0 0-1.088-1.12 2.85 2.85 0 0 0-1.488-.4q-.816 0-1.488.384a2.8 2.8 0 0 0-1.072 1.12q-.4.737-.4 1.728 0 1.008.4 1.76.4.736 1.072 1.136.672.384 1.488.384t1.488-.384a2.87 2.87 0 0 0 1.088-1.136q.4-.752.4-1.744m7.548-4.512q1.137 0 1.984.496.864.497 1.28 1.248v-1.6h1.472v8.96q0 1.2-.512 2.128a3.6 3.6 0 0 1-1.472 1.472q-.943.528-2.208.528-1.728 0-2.88-.816t-1.36-2.224h1.44q.24.8.992 1.28.753.496 1.808.496 1.2 0 1.952-.752.768-.751.768-2.112v-1.84q-.432.768-1.28 1.28-.847.512-1.984.512a4.06 4.06 0 0 1-2.128-.576 4.05 4.05 0 0 1-1.488-1.616q-.543-1.04-.544-2.368 0-1.344.544-2.352a3.95 3.95 0 0 1 1.488-1.584 4.15 4.15 0 0 1 2.128-.56m3.264 4.512q0-.992-.4-1.728a2.75 2.75 0 0 0-1.088-1.12 2.85 2.85 0 0 0-1.488-.4q-.816 0-1.488.384a2.8 2.8 0 0 0-1.072 1.12q-.4.737-.4 1.728 0 1.008.4 1.76.4.736 1.072 1.136.672.384 1.488.384t1.488-.384a2.86 2.86 0 0 0 1.088-1.136q.4-.752.4-1.744m11.933-.32q0 .416-.048.88h-7.008q.08 1.296.88 2.032.816.72 1.968.72.944 0 1.568-.432.64-.448.896-1.184h1.568a3.8 3.8 0 0 1-1.408 2.064q-1.056.784-2.624.784-1.248 0-2.24-.56a4 4 0 0 1-1.536-1.584q-.56-1.04-.56-2.4t.544-2.384a3.8 3.8 0 0 1 1.52-1.568q.991-.56 2.272-.56 1.248 0 2.208.544t1.472 1.504q.528.944.528 2.144m-1.504-.304q0-.832-.368-1.424a2.33 2.33 0 0 0-1.008-.912 3 3 0 0 0-1.392-.32q-1.105 0-1.888.704-.769.704-.88 1.952zm3.89 5.12a.96.96 0 0 1-.704-.288.96.96 0 0 1-.288-.704q0-.416.288-.704a.96.96 0 0 1 .704-.288.9.9 0 0 1 .672.288.96.96 0 0 1 .288.704.96.96 0 0 1-.288.704.9.9 0 0 1-.672.288"/></svg>