<svg xmlns="http://www.w3.org/2000/svg" width="254" height="56" fill="none"><rect width="254" height="56" fill="#DB4444" rx="4"/><path fill="#FAFAFA" d="M55.152 28.288q.896.16 1.52.944.624.785.624 1.776 0 .848-.448 1.536-.433.672-1.264 1.072-.832.384-1.936.384H49.2V22.88h4.24q1.136 0 1.952.384t1.232 1.04q.416.64.416 1.44 0 .96-.512 1.6t-1.376.944m-4.128-.736h2.256q.895 0 1.392-.4.512-.416.512-1.184 0-.751-.512-1.168-.496-.432-1.392-.432h-2.256zm2.464 4.96q.928 0 1.456-.448.528-.449.528-1.248 0-.816-.56-1.296t-1.488-.48h-2.4v3.472zm5.182-2.96q0-1.328.544-2.352a4.06 4.06 0 0 1 3.616-2.16q1.04 0 1.808.416.784.4 1.248 1.008v-1.28h1.84V34h-1.84v-1.312q-.464.624-1.264 1.04t-1.824.416q-1.135 0-2.08-.576a4.3 4.3 0 0 1-1.504-1.632q-.543-1.056-.544-2.384m7.216.032q0-.912-.384-1.584a2.6 2.6 0 0 0-.976-1.024 2.6 2.6 0 0 0-1.312-.352q-.705 0-1.312.352-.608.336-.992 1.008-.368.656-.368 1.568t.368 1.6q.384.688.992 1.056.624.352 1.312.352.705 0 1.312-.352t.976-1.024q.384-.688.384-1.6m3.628 0q0-1.36.544-2.384a3.97 3.97 0 0 1 1.536-1.6q.975-.56 2.24-.56 1.6 0 2.64.768 1.055.752 1.424 2.16H75.93a2.1 2.1 0 0 0-.768-1.024q-.528-.368-1.328-.368-1.12 0-1.792.8-.656.784-.656 2.208t.656 2.224q.672.8 1.792.8 1.584 0 2.096-1.392h1.968q-.384 1.343-1.44 2.144-1.056.784-2.624.784-1.265 0-2.24-.56a4.1 4.1 0 0 1-1.536-1.6q-.544-1.04-.544-2.4m13.69.016 4.064 4.4h-2.464l-3.264-3.792V34h-1.824V22.16h1.824v6.88l3.2-3.856h2.528zm11.655-2.928v4.88q0 .495.224.72.24.208.8.208h1.12V34h-1.44q-1.231 0-1.888-.576t-.656-1.872v-4.88h-1.04v-1.488h1.04v-2.192h1.84v2.192h2.144v1.488zm7.649 7.472q-1.248 0-2.256-.56a4.15 4.15 0 0 1-1.584-1.6q-.576-1.04-.576-2.4 0-1.344.592-2.384a4.1 4.1 0 0 1 1.616-1.6q1.025-.56 2.288-.56 1.265 0 2.288.56a4.1 4.1 0 0 1 1.616 1.6q.592 1.04.592 2.384t-.608 2.384a4.25 4.25 0 0 1-1.664 1.616 4.8 4.8 0 0 1-2.304.56m0-1.584q.705 0 1.312-.336.624-.336 1.008-1.008t.384-1.632-.368-1.616a2.47 2.47 0 0 0-.976-1.008 2.67 2.67 0 0 0-1.312-.336q-.703 0-1.312.336-.591.336-.944 1.008-.352.656-.352 1.616 0 1.424.72 2.208.736.768 1.84.768m15.096-7.52q1.008 0 1.792.432.8.432 1.248 1.28.464.848.464 2.048V34H119.3v-4.928q0-1.184-.592-1.808-.593-.64-1.616-.64-1.025 0-1.632.64-.592.624-.592 1.808V34h-1.824V22.16h1.824v4.048a3.06 3.06 0 0 1 1.168-.864 4 4 0 0 1 1.568-.304m9.654 9.104q-1.248 0-2.256-.56a4.15 4.15 0 0 1-1.584-1.6q-.576-1.04-.576-2.4 0-1.344.592-2.384a4.1 4.1 0 0 1 1.616-1.6q1.025-.56 2.288-.56 1.265 0 2.288.56a4.1 4.1 0 0 1 1.616 1.6q.592 1.04.592 2.384t-.608 2.384a4.25 4.25 0 0 1-1.664 1.616 4.8 4.8 0 0 1-2.304.56m0-1.584q.705 0 1.312-.336.624-.336 1.008-1.008t.384-1.632-.368-1.616a2.47 2.47 0 0 0-.976-1.008 2.67 2.67 0 0 0-1.312-.336q-.703 0-1.312.336-.591.336-.944 1.008-.352.656-.352 1.616 0 1.424.72 2.208.736.768 1.84.768m17.052-7.52q1.04 0 1.856.432.831.432 1.296 1.28.48.848.48 2.048V34h-1.808v-4.928q0-1.184-.592-1.808-.593-.64-1.616-.64t-1.632.64q-.592.624-.592 1.808V34h-1.808v-4.928q0-1.184-.592-1.808-.593-.64-1.616-.64-1.025 0-1.632.64-.592.624-.592 1.808V34h-1.824v-8.816h1.824v1.008a3 3 0 0 1 1.136-.848 3.6 3.6 0 0 1 1.472-.304q1.056 0 1.888.448t1.28 1.296q.399-.8 1.248-1.264a3.64 3.64 0 0 1 1.824-.48m14.033 4.336q0 .496-.064.896h-6.736q.08 1.056.784 1.696.703.64 1.728.64 1.471 0 2.08-1.232h1.967a4 4 0 0 1-1.455 2q-1.041.768-2.592.768-1.264 0-2.272-.56a4.2 4.2 0 0 1-1.568-1.6q-.56-1.04-.56-2.4t.544-2.384a3.93 3.93 0 0 1 1.552-1.6q1.008-.56 2.304-.56 1.248 0 2.224.544.975.544 1.52 1.536.543.976.544 2.256m-1.904-.576q-.016-1.008-.72-1.616-.705-.608-1.744-.608-.945 0-1.616.608-.672.592-.8 1.616zm9.679-2.32q.463-.608 1.264-1.024t1.808-.416q1.151 0 2.096.576a3.9 3.9 0 0 1 1.504 1.584q.543 1.024.544 2.352 0 1.328-.544 2.384a4.1 4.1 0 0 1-1.504 1.632 3.95 3.95 0 0 1-2.096.576q-1.009 0-1.792-.4a4.1 4.1 0 0 1-1.28-1.024v5.472h-1.824V25.184h1.824zm5.36 3.072q0-.911-.384-1.568a2.45 2.45 0 0 0-.992-1.008 2.6 2.6 0 0 0-1.312-.352 2.63 2.63 0 0 0-1.312.352 2.7 2.7 0 0 0-.992 1.024q-.369.672-.368 1.584 0 .912.368 1.6.384.672.992 1.024a2.63 2.63 0 0 0 1.312.352q.703 0 1.312-.352.624-.367.992-1.056.384-.688.384-1.6m3.052 0q0-1.328.544-2.352a4.06 4.06 0 0 1 3.616-2.16q1.04 0 1.808.416.783.4 1.248 1.008v-1.28h1.84V34h-1.84v-1.312q-.465.624-1.264 1.04-.801.416-1.824.416a3.9 3.9 0 0 1-2.08-.576 4.27 4.27 0 0 1-1.504-1.632q-.544-1.056-.544-2.384m7.216.032q0-.912-.384-1.584a2.6 2.6 0 0 0-.976-1.024 2.6 2.6 0 0 0-1.312-.352q-.705 0-1.312.352-.608.336-.992 1.008-.369.656-.368 1.568 0 .912.368 1.6.383.688.992 1.056a2.63 2.63 0 0 0 1.312.352q.703 0 1.312-.352.607-.352.976-1.024.384-.688.384-1.6m7.787-4.544q1.025 0 1.808.416.801.4 1.248 1.008v-1.28h1.84v8.96q0 1.215-.512 2.16a3.67 3.67 0 0 1-1.488 1.504q-.96.544-2.304.544-1.791 0-2.976-.848-1.183-.832-1.344-2.272h1.808q.208.689.88 1.104.688.432 1.632.432 1.104 0 1.776-.672.688-.672.688-1.952v-1.472q-.463.624-1.264 1.056-.784.416-1.792.416a4.03 4.03 0 0 1-2.112-.576 4.3 4.3 0 0 1-1.504-1.632q-.544-1.056-.544-2.384t.544-2.352a4.07 4.07 0 0 1 3.616-2.16m3.056 4.544q0-.912-.384-1.584a2.6 2.6 0 0 0-.976-1.024 2.57 2.57 0 0 0-1.312-.352q-.703 0-1.312.352a2.6 2.6 0 0 0-.992 1.008q-.368.656-.368 1.568t.368 1.6q.384.688.992 1.056.624.352 1.312.352.705 0 1.312-.352.609-.352.976-1.024.384-.688.384-1.6m12.316-.208q0 .496-.064.896h-6.736q.08 1.056.784 1.696t1.728.64q1.472 0 2.08-1.232h1.968a4 4 0 0 1-1.456 2q-1.04.768-2.592.768-1.264 0-2.272-.56a4.2 4.2 0 0 1-1.568-1.6q-.56-1.04-.56-2.4t.544-2.384a3.94 3.94 0 0 1 1.552-1.6q1.008-.56 2.304-.56 1.248 0 2.224.544a3.83 3.83 0 0 1 1.52 1.536q.544.976.544 2.256m-1.904-.576q-.016-1.008-.72-1.616t-1.744-.608q-.944 0-1.616.608-.672.592-.8 1.616z"/></svg>