<svg xmlns="http://www.w3.org/2000/svg" width="303" height="50" fill="none"><path fill="#000" d="M3.624 4.66q1.332 0 2.328.516A3.56 3.56 0 0 1 7.5 6.64q.552.948.552 2.22T7.5 11.068a3.6 3.6 0 0 1-1.548 1.44Q4.956 13 3.624 13H.9V4.66zm0 7.224q1.464 0 2.244-.792t.78-2.232q0-1.452-.78-2.268t-2.244-.816H2.268v6.108zm5.328-2.22q0-.996.408-1.764a3.05 3.05 0 0 1 2.712-1.62q.78 0 1.356.312.588.3.936.756v-.96h1.38V13h-1.38v-.984a2.7 2.7 0 0 1-.948.78q-.6.312-1.368.312a2.94 2.94 0 0 1-1.56-.432 3.2 3.2 0 0 1-1.128-1.224q-.408-.792-.408-1.788m5.412.024q0-.684-.288-1.188a1.94 1.94 0 0 0-.732-.768 1.93 1.93 0 0 0-.984-.264q-.528 0-.984.264-.456.252-.744.756-.276.492-.276 1.176t.276 1.2q.288.516.744.792a1.97 1.97 0 0 0 1.968 0q.456-.264.732-.768.288-.516.288-1.2m9.129-3.3-4.056 9.72H18.02l1.344-3.216-2.604-6.504h1.524l1.86 5.04 1.932-5.04zm3.432 6.72q-.78 0-1.404-.276a2.54 2.54 0 0 1-.972-.768 1.94 1.94 0 0 1-.384-1.092h1.416a1 1 0 0 0 .396.708q.372.276.924.276.576 0 .888-.216.324-.228.324-.576 0-.372-.36-.552-.348-.18-1.116-.396a11 11 0 0 1-1.212-.396 2.2 2.2 0 0 1-.816-.588q-.336-.396-.336-1.044 0-.528.312-.96.312-.444.888-.696.588-.252 1.344-.252 1.128 0 1.812.576.696.564.744 1.548h-1.368a.97.97 0 0 0-.36-.708q-.324-.264-.876-.264-.54 0-.828.204a.63.63 0 0 0-.288.54q0 .264.192.444t.468.288q.276.096.816.252.72.192 1.176.396.468.192.804.576t.348 1.02q0 .564-.312 1.008t-.888.696q-.564.252-1.332.252M11.011 49.511q-2.931-.01-5.045-1.443-2.102-1.431-3.239-4.148-1.124-2.715-1.113-6.534 0-3.806 1.125-6.488 1.136-2.682 3.238-4.08 2.114-1.41 5.034-1.409t5.023 1.41q2.114 1.408 3.25 4.09 1.137 2.67 1.125 6.477 0 3.83-1.136 6.546-1.125 2.715-3.227 4.148-2.103 1.431-5.035 1.431m0-4.08q2 0 3.194-2.01 1.193-2.012 1.181-6.035 0-2.648-.545-4.409-.534-1.76-1.523-2.647a3.32 3.32 0 0 0-2.307-.887q-1.988 0-3.181 1.989-1.194 1.988-1.205 5.954 0 2.681.534 4.478.546 1.784 1.534 2.682.99.886 2.318.886M33.8 49.319q-2.545 0-4.534-.875-1.977-.885-3.125-2.432-1.137-1.557-1.17-3.59h4.954q.045.852.557 1.5.522.636 1.386.988t1.943.352q1.125 0 1.989-.397.864-.398 1.352-1.103t.489-1.625q0-.93-.523-1.647-.51-.727-1.477-1.137-.955-.408-2.273-.409h-2.17V35.33h2.17q1.114 0 1.966-.387.864-.386 1.34-1.068.479-.693.478-1.614 0-.874-.42-1.534a2.78 2.78 0 0 0-1.16-1.045q-.738-.375-1.727-.375-.999 0-1.83.364a3.2 3.2 0 0 0-1.329 1.01 2.66 2.66 0 0 0-.534 1.546h-4.716q.035-2.01 1.148-3.545 1.113-1.534 3-2.398 1.897-.875 4.284-.875 2.409 0 4.216.875 1.806.874 2.807 2.364 1.01 1.477 1 3.318.01 1.954-1.216 3.261-1.215 1.308-3.17 1.66v.181q2.568.33 3.908 1.784 1.353 1.443 1.341 3.614.011 1.989-1.147 3.534-1.148 1.544-3.17 2.432-2.025.886-4.637.886M91.56 4.66V13h-1.368V9.352h-3.924V13H84.9V4.66h1.368v3.576h3.924V4.66zm4.669 8.448q-.936 0-1.692-.42a3.1 3.1 0 0 1-1.188-1.2q-.432-.78-.432-1.8 0-1.008.444-1.788t1.212-1.2a3.5 3.5 0 0 1 1.716-.42q.948 0 1.716.42t1.212 1.2.444 1.788-.456 1.788-1.248 1.212q-.78.42-1.728.42m0-1.188q.528 0 .984-.252.468-.252.756-.756t.288-1.224-.276-1.212a1.86 1.86 0 0 0-.732-.756 2 2 0 0 0-.984-.252q-.528 0-.984.252-.444.252-.708.756-.264.492-.264 1.212 0 1.068.54 1.656.552.576 1.38.576M107 6.388V13h-1.368v-.78q-.324.408-.852.648a2.7 2.7 0 0 1-1.104.228q-.78 0-1.404-.324a2.4 2.4 0 0 1-.972-.96q-.348-.636-.348-1.536V6.388h1.356v3.684q0 .888.444 1.368.444.468 1.212.468t1.212-.468q.456-.48.456-1.368V6.388zm3.173.96q.3-.504.792-.78.504-.288 1.188-.288v1.416h-.348q-.804 0-1.224.408-.408.408-.408 1.416V13h-1.368V6.388h1.368zm5.638 5.76q-.78 0-1.404-.276a2.54 2.54 0 0 1-.972-.768 1.94 1.94 0 0 1-.384-1.092h1.416a1 1 0 0 0 .396.708q.372.276.924.276.576 0 .888-.216.324-.228.324-.576 0-.372-.36-.552-.348-.18-1.116-.396a11 11 0 0 1-1.212-.396 2.2 2.2 0 0 1-.816-.588q-.336-.396-.336-1.044 0-.528.312-.96.312-.444.888-.696.588-.252 1.344-.252 1.128 0 1.812.576.696.564.744 1.548h-1.368a.97.97 0 0 0-.36-.708q-.324-.264-.876-.264-.54 0-.828.204a.63.63 0 0 0-.288.54q0 .264.192.444t.468.288q.276.096.816.252.72.192 1.176.396.468.192.804.576t.348 1.02q0 .564-.312 1.008t-.888.696q-.564.252-1.332.252M85.886 49v-3.545l8.285-7.67a31 31 0 0 0 1.772-1.842q.728-.818 1.103-1.602.375-.795.374-1.716 0-1.023-.466-1.761-.465-.75-1.272-1.148-.807-.41-1.83-.41-1.068 0-1.863.433-.796.43-1.228 1.238-.43.807-.431 1.92h-4.67q0-2.283 1.033-3.965 1.035-1.682 2.898-2.602t4.295-.92q2.5-.001 4.353.886 1.863.874 2.897 2.431t1.034 3.568q0 1.32-.522 2.603-.511 1.284-1.83 2.852-1.318 1.557-3.716 3.739l-3.398 3.33v.158h9.773V49zm30.039.318q-2.545 0-4.534-.875-1.977-.885-3.125-2.432-1.137-1.557-1.171-3.59h4.955q.045.852.557 1.5.522.636 1.386.988t1.943.352q1.125 0 1.989-.397.863-.398 1.352-1.103a2.8 2.8 0 0 0 .489-1.625q0-.93-.523-1.647-.511-.727-1.477-1.137-.955-.408-2.273-.409h-2.17V35.33h2.17q1.114 0 1.966-.387.864-.386 1.341-1.068.477-.693.477-1.614 0-.874-.42-1.534a2.8 2.8 0 0 0-1.159-1.045q-.74-.375-1.728-.375-1 0-1.829.364a3.2 3.2 0 0 0-1.33 1.01q-.5.66-.534 1.546h-4.716q.035-2.01 1.148-3.545 1.113-1.534 3-2.398 1.898-.875 4.284-.875 2.409 0 4.216.875 1.807.874 2.807 2.364 1.01 1.477 1 3.318.01 1.954-1.216 3.261-1.217 1.308-3.171 1.66v.181q2.57.33 3.91 1.784 1.352 1.443 1.34 3.614.011 1.989-1.147 3.534-1.147 1.544-3.171 2.432-2.023.886-4.636.886M173.684 4.66V13h-1.368V7.288L169.772 13h-.948l-2.556-5.712V13H164.9V4.66h1.476l2.928 6.54 2.916-6.54zm2.494.852a.85.85 0 0 1-.624-.252.85.85 0 0 1-.252-.624q0-.372.252-.624a.85.85 0 0 1 .624-.252q.36 0 .612.252a.85.85 0 0 1 .252.624.85.85 0 0 1-.252.624.83.83 0 0 1-.612.252m.672.876V13h-1.368V6.388zm5.132-.108q.78 0 1.392.324.624.324.972.96t.348 1.536V13h-1.356V9.304q0-.888-.444-1.356-.444-.48-1.212-.48t-1.224.48q-.444.468-.444 1.356V13h-1.368V6.388h1.368v.756q.336-.408.852-.636a2.8 2.8 0 0 1 1.116-.228m10.445.108V13h-1.368v-.78q-.324.408-.852.648a2.7 2.7 0 0 1-1.104.228q-.78 0-1.404-.324a2.4 2.4 0 0 1-.972-.96q-.348-.636-.348-1.536V6.388h1.356v3.684q0 .888.444 1.368.444.468 1.212.468t1.212-.468q.456-.48.456-1.368V6.388zm3.401 1.116v3.66q0 .372.168.54.18.156.6.156h.84V13h-1.08q-.924 0-1.416-.432t-.492-1.404v-3.66h-.78V6.388h.78V4.744h1.38v1.644h1.608v1.116zm8.929 2.028q0 .372-.048.672h-5.052q.06.792.588 1.272t1.296.48q1.104 0 1.56-.924h1.476a3 3 0 0 1-1.092 1.5q-.78.576-1.944.576-.948 0-1.704-.42a3.14 3.14 0 0 1-1.176-1.2q-.42-.78-.42-1.8t.408-1.788q.42-.78 1.164-1.2.756-.42 1.728-.42.936 0 1.668.408t1.14 1.152q.408.732.408 1.692m-1.428-.432q-.012-.756-.54-1.212t-1.308-.456q-.708 0-1.212.456-.504.444-.6 1.212zm5.174 4.008q-.78 0-1.404-.276a2.54 2.54 0 0 1-.972-.768 1.94 1.94 0 0 1-.384-1.092h1.416a1 1 0 0 0 .396.708q.372.276.924.276.576 0 .888-.216.324-.228.324-.576 0-.372-.36-.552-.348-.18-1.116-.396a11 11 0 0 1-1.212-.396 2.2 2.2 0 0 1-.816-.588q-.336-.396-.336-1.044 0-.528.312-.96.312-.444.888-.696.588-.252 1.344-.252 1.128 0 1.812.576.696.564.744 1.548h-1.368a.97.97 0 0 0-.36-.708q-.324-.264-.876-.264-.54 0-.828.204a.63.63 0 0 0-.288.54q0 .264.192.444t.468.288q.276.096.816.252.72.192 1.176.396.468.192.804.576t.348 1.02q0 .564-.312 1.008t-.888.696q-.564.252-1.332.252M176.011 25.727V49h-4.92V30.398h-.136l-5.33 3.34v-4.363l5.761-3.648zm15.232-.318q1.796 0 3.455.602a7.96 7.96 0 0 1 2.977 1.92q1.318 1.32 2.079 3.5.773 2.172.785 5.33 0 2.967-.671 5.296-.659 2.318-1.898 3.943t-2.988 2.477q-1.75.84-3.909.841-2.33 0-4.114-.898-1.784-.91-2.875-2.465a7.7 7.7 0 0 1-1.307-3.523h4.852q.285 1.272 1.194 1.977.909.693 2.25.693 2.272 0 3.454-1.977 1.182-1.989 1.193-5.443h-.159a5.6 5.6 0 0 1-1.409 1.761 6.6 6.6 0 0 1-2.034 1.125 7.3 7.3 0 0 1-2.42.398q-2.058 0-3.671-.966a6.9 6.9 0 0 1-2.545-2.66q-.932-1.692-.932-3.863-.012-2.34 1.079-4.17 1.092-1.83 3.046-2.864 1.965-1.046 4.568-1.034m.034 3.864q-1.148 0-2.045.545a4 4 0 0 0-1.409 1.466q-.512.921-.5 2.057 0 1.147.5 2.068.512.909 1.386 1.455.886.534 2.023.534a3.9 3.9 0 0 0 2.841-1.194q.544-.568.852-1.306a4.1 4.1 0 0 0 .307-1.569 4.2 4.2 0 0 0-.523-2.022 4 4 0 0 0-1.409-1.477 3.76 3.76 0 0 0-2.023-.557M254.648 13.084q-.84 0-1.512-.288-.672-.3-1.056-.84a2.1 2.1 0 0 1-.384-1.26h1.464q.048.54.42.888.384.348 1.068.348.708 0 1.104-.336a1.13 1.13 0 0 0 .396-.888q0-.42-.252-.684a1.6 1.6 0 0 0-.612-.408q-.36-.144-1.008-.312a10.5 10.5 0 0 1-1.332-.432 2.25 2.25 0 0 1-.864-.696q-.36-.468-.36-1.248 0-.72.36-1.26a2.3 2.3 0 0 1 1.008-.828q.648-.288 1.5-.288 1.212 0 1.98.612.78.6.864 1.656h-1.512q-.036-.456-.432-.78t-1.044-.324q-.588 0-.96.3t-.372.864q0 .384.228.636.24.24.6.384t.984.312q.828.228 1.344.456.528.228.888.708.372.468.372 1.26 0 .636-.348 1.2-.336.564-.996.912-.648.336-1.536.336m10.554-3.552q0 .372-.048.672h-5.052q.06.792.588 1.272t1.296.48q1.104 0 1.56-.924h1.476a3 3 0 0 1-1.092 1.5q-.78.576-1.944.576-.948 0-1.704-.42a3.14 3.14 0 0 1-1.176-1.2q-.42-.78-.42-1.8t.408-1.788q.42-.78 1.164-1.2.756-.42 1.728-.42.936 0 1.668.408t1.14 1.152q.408.732.408 1.692m-1.428-.432q-.012-.756-.54-1.212t-1.308-.456q-.708 0-1.212.456-.504.444-.6 1.212zm2.318.588q0-1.02.408-1.788.42-.78 1.152-1.2t1.68-.42q1.2 0 1.98.576.792.564 1.068 1.62h-1.476a1.56 1.56 0 0 0-.576-.768q-.396-.276-.996-.276-.84 0-1.344.6-.492.588-.492 1.656t.492 1.668q.504.6 1.344.6 1.188 0 1.572-1.044h1.476q-.288 1.008-1.08 1.608-.792.588-1.968.588-.948 0-1.68-.42a3.1 3.1 0 0 1-1.152-1.2q-.408-.78-.408-1.8m10.52 3.42q-.936 0-1.692-.42a3.1 3.1 0 0 1-1.188-1.2q-.432-.78-.432-1.8 0-1.008.444-1.788t1.212-1.2a3.5 3.5 0 0 1 1.716-.42q.948 0 1.716.42t1.212 1.2.444 1.788-.456 1.788-1.248 1.212q-.78.42-1.728.42m0-1.188q.528 0 .984-.252.468-.252.756-.756t.288-1.224-.276-1.212a1.86 1.86 0 0 0-.732-.756 2 2 0 0 0-.984-.252q-.528 0-.984.252-.444.252-.708.756-.264.492-.264 1.212 0 1.068.54 1.656.552.576 1.38.576m8.12-5.64q.78 0 1.392.324.624.324.972.96t.348 1.536V13h-1.356V9.304q0-.888-.444-1.356-.444-.48-1.212-.48t-1.224.48q-.444.468-.444 1.356V13h-1.368V6.388h1.368v.756q.336-.408.852-.636a2.8 2.8 0 0 1 1.116-.228m4.001 3.384q0-.996.408-1.764a3.05 3.05 0 0 1 2.724-1.62q.648 0 1.272.288.636.276 1.008.744V4.12h1.38V13h-1.38v-.996a2.55 2.55 0 0 1-.936.792q-.588.312-1.356.312a3 3 0 0 1-1.584-.432 3.2 3.2 0 0 1-1.128-1.224q-.408-.792-.408-1.788m5.412.024q0-.684-.288-1.188a1.94 1.94 0 0 0-.732-.768 1.93 1.93 0 0 0-.984-.264q-.528 0-.984.264-.456.252-.744.756-.276.492-.276 1.176t.276 1.2q.288.516.744.792a1.97 1.97 0 0 0 1.968 0q.456-.264.732-.768.288-.516.288-1.2m5.577 3.42q-.78 0-1.404-.276a2.54 2.54 0 0 1-.972-.768 1.94 1.94 0 0 1-.384-1.092h1.416a1 1 0 0 0 .396.708q.372.276.924.276.576 0 .888-.216.324-.228.324-.576 0-.372-.36-.552-.348-.18-1.116-.396a11 11 0 0 1-1.212-.396 2.2 2.2 0 0 1-.816-.588q-.336-.396-.336-1.044 0-.528.312-.96.312-.444.888-.696.588-.252 1.344-.252 1.128 0 1.812.576.696.564.744 1.548h-1.368a.97.97 0 0 0-.36-.708q-.324-.264-.876-.264-.54 0-.828.204a.63.63 0 0 0-.288.54q0 .264.192.444t.468.288q.276.096.816.252.72.192 1.176.396.468.192.804.576t.348 1.02q0 .564-.312 1.008t-.888.696q-.564.252-1.332.252M261.386 49.318q-2.41 0-4.295-.886-1.875-.887-2.977-2.443-1.103-1.558-1.148-3.568h4.773q.079 1.351 1.136 2.193 1.058.84 2.511.84 1.16 0 2.046-.51a3.67 3.67 0 0 0 1.398-1.444q.51-.931.511-2.136 0-1.228-.523-2.16a3.7 3.7 0 0 0-1.42-1.454q-.91-.523-2.08-.534-1.023 0-1.988.42-.955.42-1.489 1.148L253.466 38l1.102-12.273h14.227v4.023h-10.17l-.602 5.83h.136q.614-.864 1.852-1.432 1.239-.57 2.773-.569 2.103 0 3.75.99a7.1 7.1 0 0 1 2.602 2.715q.955 1.716.944 3.955.01 2.352-1.091 4.182-1.092 1.818-3.057 2.863-1.954 1.035-4.546 1.034m22.337 0a10.5 10.5 0 0 1-3.466-.602q-1.659-.591-2.977-1.92-1.319-1.33-2.091-3.523-.76-2.193-.761-5.387.011-2.931.67-5.238.671-2.318 1.909-3.932 1.25-1.614 2.989-2.455 1.738-.852 3.898-.852 2.33 0 4.113.91 1.785.897 2.864 2.442a7.4 7.4 0 0 1 1.318 3.466h-4.852q-.284-1.215-1.193-1.909-.909-.693-2.25-.693-2.274 0-3.455 1.977-1.17 1.977-1.193 5.375h.159a5.4 5.4 0 0 1 1.409-1.761 6.4 6.4 0 0 1 2.034-1.125 7.3 7.3 0 0 1 2.421-.398q2.068 0 3.681.977a6.93 6.93 0 0 1 2.546 2.66q.932 1.692.932 3.875 0 2.363-1.103 4.204-1.09 1.841-3.056 2.886-1.955 1.034-4.546 1.023m-.023-3.863q1.137 0 2.035-.546a3.9 3.9 0 0 0 1.409-1.477q.511-.931.511-2.091t-.511-2.08a3.85 3.85 0 0 0-1.387-1.466q-.887-.545-2.022-.545-.853 0-1.58.318a4 4 0 0 0-1.261.887 4.3 4.3 0 0 0-.841 1.318 4.1 4.1 0 0 0-.307 1.58q0 1.125.511 2.056a4.1 4.1 0 0 0 1.409 1.489q.898.555 2.034.556"/><circle cx="65" cy="28" r="2" fill="#E07575"/><circle cx="65" cy="40" r="2" fill="#E07575"/><circle cx="145" cy="28" r="2" fill="#E07575"/><circle cx="145" cy="40" r="2" fill="#E07575"/><circle cx="232" cy="28" r="2" fill="#E07575"/><circle cx="232" cy="40" r="2" fill="#E07575"/></svg>