<svg xmlns="http://www.w3.org/2000/svg" width="1170" height="103" fill="none"><rect width="20" height="40" fill="#DB4444" rx="4"/><path fill="#DB4444" d="M44.704 14.832v1.808h-2.976V26h-2.24v-9.36h-2.976v-1.808zm5.57 11.312q-1.28 0-2.304-.56a4.2 4.2 0 0 1-1.616-1.616q-.576-1.04-.576-2.4t.592-2.4a4.17 4.17 0 0 1 1.648-1.6q1.04-.576 2.32-.576t2.32.576a4.06 4.06 0 0 1 1.632 1.6q.608 1.04.608 2.4t-.624 2.4a4.25 4.25 0 0 1-1.664 1.616q-1.04.56-2.336.56m0-1.952q.608 0 1.136-.288a2.2 2.2 0 0 0 .864-.896q.32-.592.32-1.44 0-1.264-.672-1.936a2.15 2.15 0 0 0-1.616-.688q-.96 0-1.616.688-.64.672-.64 1.936t.624 1.952q.64.672 1.6.672m5.691-2.656q0-1.344.528-2.384.545-1.04 1.472-1.6a3.9 3.9 0 0 1 2.064-.56 3.7 3.7 0 0 1 1.648.384q.785.368 1.249.992V14.16h2.272V26h-2.272v-1.312q-.416.656-1.169 1.056-.75.4-1.743.4-1.12 0-2.049-.576-.927-.576-1.472-1.616-.528-1.057-.528-2.416m6.976.032q0-.816-.32-1.392a2.2 2.2 0 0 0-.864-.896 2.27 2.27 0 0 0-1.167-.32q-.624 0-1.153.304-.528.304-.863.896-.32.576-.32 1.376t.32 1.408q.336.593.864.912.543.32 1.151.32.624 0 1.169-.304.543-.32.863-.896.32-.592.32-1.408m3.868-.032q0-1.344.528-2.384.544-1.04 1.456-1.6a3.9 3.9 0 0 1 2.064-.56q.993 0 1.728.4.753.4 1.2 1.008v-1.264h2.256V26h-2.256v-1.296q-.432.624-1.2 1.04-.751.4-1.744.4-1.12 0-2.048-.576-.912-.576-1.456-1.616-.528-1.057-.528-2.416m6.976.032q0-.816-.32-1.392a2.2 2.2 0 0 0-.864-.896 2.27 2.27 0 0 0-1.168-.32q-.624 0-1.152.304t-.864.896q-.32.576-.32 1.376t.32 1.408q.336.593.864.912.544.32 1.152.32.624 0 1.168-.304.544-.32.864-.896.32-.592.32-1.408m12.924-4.432-5.488 13.056h-2.384l1.92-4.416-3.552-8.64h2.512l2.288 6.192 2.32-6.192zm1.656-2.304h2.352l-1.728 4.032h-1.537zm7.35 11.312q-1.088 0-1.952-.384-.864-.4-1.376-1.072a2.73 2.73 0 0 1-.544-1.488h2.256q.063.512.496.848.447.336 1.104.336.64 0 .992-.256.368-.256.368-.656 0-.432-.448-.64-.432-.225-1.392-.48a12 12 0 0 1-1.632-.496 2.9 2.9 0 0 1-1.088-.784q-.448-.528-.448-1.424 0-.736.416-1.344.432-.608 1.216-.96.8-.352 1.872-.352 1.583 0 2.528.8.944.784 1.04 2.128h-2.144a1.13 1.13 0 0 0-.448-.832q-.384-.32-1.04-.32-.609 0-.944.224a.72.72 0 0 0-.32.624q0 .448.448.688.447.224 1.392.464.96.24 1.584.496.624.255 1.072.8.465.528.48 1.408 0 .767-.432 1.376-.417.608-1.216.96-.784.336-1.84.336"/><path fill="#000" d="M2.582 101V74.818h16.773v3.976H7.325v7.108h10.88v3.976H7.324V101zM29.54 74.818V101h-4.627V74.818zm11.85 26.578q-1.866 0-3.362-.664a5.5 5.5 0 0 1-2.353-1.995q-.855-1.317-.856-3.247 0-1.662.614-2.748a4.75 4.75 0 0 1 1.674-1.74 8.5 8.5 0 0 1 2.39-.983q1.343-.345 2.775-.5 1.725-.177 2.8-.319 1.074-.153 1.56-.46.498-.32.498-.984v-.077q0-1.445-.857-2.237-.856-.793-2.467-.793-1.7 0-2.697.742-.985.741-1.33 1.751l-4.32-.614q.51-1.79 1.687-2.991 1.175-1.215 2.876-1.815 1.7-.614 3.758-.614 1.419 0 2.826.332a8 8 0 0 1 2.57 1.1q1.163.754 1.866 2.058.716 1.305.716 3.26V101h-4.45v-2.697h-.153a5.7 5.7 0 0 1-1.188 1.534q-.755.703-1.905 1.137-1.139.422-2.672.422m1.202-3.4q1.393 0 2.416-.55 1.023-.563 1.572-1.483a3.8 3.8 0 0 0 .563-2.007v-2.314q-.217.18-.742.332-.51.154-1.15.269t-1.266.204l-1.087.154a8 8 0 0 0-1.853.46q-.819.32-1.291.895-.474.562-.474 1.457 0 1.28.934 1.93.933.653 2.378.653m30.78-11.442-4.22.46a3.4 3.4 0 0 0-.626-1.201q-.435-.564-1.176-.908-.742-.345-1.816-.345-1.444 0-2.429.626-.971.627-.958 1.624-.013.855.626 1.393.652.537 2.148.882l3.35.716q2.786.6 4.141 1.905 1.368 1.305 1.38 3.413-.012 1.854-1.086 3.273-1.061 1.406-2.953 2.199t-4.346.793q-3.606 0-5.804-1.509-2.2-1.521-2.621-4.231l4.513-.435q.306 1.329 1.304 2.007.997.678 2.595.678 1.65 0 2.646-.678 1.01-.678 1.01-1.675 0-.844-.652-1.393-.638-.55-1.994-.844l-3.35-.703q-2.825-.588-4.18-1.982-1.355-1.406-1.342-3.554-.013-1.815.984-3.144 1.01-1.343 2.8-2.072 1.802-.741 4.154-.741 3.453 0 5.434 1.47 1.995 1.47 2.467 3.976m10.305 2.94V101h-4.628V74.818h4.526V84.7h.23q.69-1.662 2.135-2.62 1.457-.972 3.707-.972 2.046 0 3.567.856 1.521.858 2.352 2.506.844 1.65.844 4.027V101H91.78V89.213q0-1.982-1.023-3.08-1.01-1.113-2.838-1.113-1.227 0-2.199.537-.959.524-1.508 1.521-.537.997-.537 2.416m43.693-7.478q-.179-1.675-1.508-2.608-1.317-.934-3.427-.934-1.482 0-2.544.448-1.06.447-1.623 1.214a2.96 2.96 0 0 0-.576 1.752q0 .817.371 1.419.384.6 1.036 1.022.651.41 1.444.69.793.282 1.598.474l2.455.614q1.483.344 2.851.933 1.38.588 2.467 1.483a6.6 6.6 0 0 1 1.739 2.16q.639 1.266.639 2.966 0 2.301-1.176 4.053-1.176 1.739-3.401 2.723-2.212.97-5.356.971-3.056 0-5.306-.946-2.237-.945-3.503-2.761-1.252-1.815-1.355-4.423h4.667q.102 1.368.843 2.275.742.908 1.931 1.355 1.202.448 2.684.448 1.547 0 2.711-.46 1.176-.473 1.84-1.305.666-.843.678-1.968-.013-1.023-.601-1.688-.588-.676-1.649-1.125a16 16 0 0 0-2.455-.818l-2.978-.767q-3.234-.83-5.114-2.518-1.866-1.7-1.866-4.513 0-2.315 1.253-4.053 1.265-1.739 3.438-2.697 2.174-.972 4.922-.972 2.787 0 4.884.972 2.11.959 3.311 2.672 1.201 1.7 1.24 3.912zm16.036 19.38q-1.866 0-3.362-.664a5.5 5.5 0 0 1-2.352-1.995q-.857-1.317-.857-3.247 0-1.662.614-2.748a4.74 4.74 0 0 1 1.675-1.74 8.5 8.5 0 0 1 2.39-.983q1.343-.345 2.774-.5 1.726-.177 2.8-.319 1.074-.153 1.56-.46.498-.32.498-.984v-.077q0-1.445-.856-2.237-.857-.793-2.468-.793-1.7 0-2.697.742-.984.741-1.33 1.751l-4.321-.614q.512-1.79 1.688-2.991 1.176-1.215 2.876-1.815 1.701-.614 3.759-.614 1.42 0 2.825.332a8 8 0 0 1 2.57 1.1q1.163.754 1.866 2.058.716 1.305.716 3.26V101h-4.449v-2.697h-.153a5.7 5.7 0 0 1-1.189 1.534q-.754.703-1.905 1.137-1.137.422-2.672.422m1.202-3.4q1.393 0 2.416-.55 1.023-.563 1.573-1.483a3.8 3.8 0 0 0 .562-2.007v-2.314q-.218.18-.741.332-.512.154-1.151.269a35 35 0 0 1-1.266.204l-1.086.154a8 8 0 0 0-1.854.46q-.818.32-1.291.895-.473.562-.473 1.457 0 1.28.933 1.93.933.653 2.378.653m19.887-23.178V101h-4.627V74.818zm14.892 26.566q-2.953 0-5.1-1.228-2.136-1.24-3.286-3.503-1.15-2.275-1.15-5.356 0-3.03 1.15-5.318 1.164-2.302 3.247-3.58 2.084-1.29 4.897-1.291 1.815 0 3.426.588a7.7 7.7 0 0 1 2.863 1.79q1.254 1.214 1.969 3.093.716 1.867.716 4.45v1.418h-16.095v-3.119h11.659q-.013-1.33-.575-2.365a4.2 4.2 0 0 0-1.573-1.65q-.997-.6-2.326-.6-1.42 0-2.493.69a4.75 4.75 0 0 0-1.675 1.79 5.16 5.16 0 0 0-.601 2.416v2.723q0 1.714.626 2.94.627 1.215 1.752 1.867 1.125.64 2.633.64 1.01 0 1.829-.282a4.1 4.1 0 0 0 1.419-.856q.6-.563.907-1.394l4.321.486a6.7 6.7 0 0 1-1.559 2.991q-1.139 1.266-2.915 1.969-1.777.69-4.066.691m29.607-14.83-4.219.46a3.4 3.4 0 0 0-.626-1.201q-.435-.564-1.176-.908-.742-.345-1.816-.345-1.444 0-2.429.626-.971.627-.958 1.624-.013.855.626 1.393.653.537 2.148.882l3.349.716q2.787.6 4.142 1.905 1.368 1.305 1.381 3.413-.013 1.854-1.087 3.273-1.061 1.406-2.953 2.199t-4.346.793q-3.606 0-5.804-1.509-2.2-1.521-2.621-4.231l4.513-.435q.306 1.329 1.304 2.007.996.678 2.595.678 1.648 0 2.646-.678 1.01-.678 1.01-1.675 0-.844-.652-1.393-.64-.55-1.994-.844l-3.35-.703q-2.825-.588-4.18-1.982-1.356-1.406-1.342-3.554-.013-1.815.984-3.144 1.01-1.343 2.8-2.072 1.802-.741 4.154-.741 3.453 0 5.434 1.47 1.994 1.47 2.467 3.976M301.624 57.66q1.332 0 2.328.516a3.56 3.56 0 0 1 1.548 1.464q.552.948.552 2.22t-.552 2.208a3.6 3.6 0 0 1-1.548 1.44q-.996.492-2.328.492H298.9v-8.34zm0 7.224q1.464 0 2.244-.792t.78-2.232q0-1.452-.78-2.268t-2.244-.816h-1.356v6.108zm5.328-2.22q0-.996.408-1.764a3.05 3.05 0 0 1 2.712-1.62q.78 0 1.356.312.588.3.936.756v-.96h1.38V66h-1.38v-.984a2.7 2.7 0 0 1-.948.78q-.6.312-1.368.312a2.94 2.94 0 0 1-1.56-.432 3.2 3.2 0 0 1-1.128-1.224q-.408-.792-.408-1.788m5.412.024q0-.684-.288-1.188a1.94 1.94 0 0 0-.732-.768 1.93 1.93 0 0 0-.984-.264q-.528 0-.984.264-.456.252-.744.756-.276.492-.276 1.176t.276 1.2q.288.516.744.792a1.97 1.97 0 0 0 1.968 0q.456-.264.732-.768.288-.516.288-1.2m9.129-3.3-4.056 9.72h-1.416l1.344-3.216-2.604-6.504h1.524l1.86 5.04 1.932-5.04zm3.432 6.72q-.78 0-1.404-.276a2.54 2.54 0 0 1-.972-.768 1.94 1.94 0 0 1-.384-1.092h1.416a1 1 0 0 0 .396.708q.372.276.924.276.576 0 .888-.216.324-.228.324-.576 0-.372-.36-.552-.348-.18-1.116-.396a11 11 0 0 1-1.212-.396 2.2 2.2 0 0 1-.816-.588q-.336-.396-.336-1.044 0-.528.312-.96.312-.444.888-.696.588-.252 1.344-.252 1.128 0 1.812.576.696.564.744 1.548h-1.368a.97.97 0 0 0-.36-.708q-.324-.264-.876-.264-.54 0-.828.204a.63.63 0 0 0-.288.54q0 .264.192.444t.468.288q.276.096.816.252.72.192 1.176.396.468.192.804.576t.348 1.02q0 .564-.312 1.008t-.888.696q-.564.252-1.332.252M309.011 102.511q-2.931-.01-5.045-1.443-2.102-1.431-3.239-4.147-1.125-2.717-1.113-6.535 0-3.806 1.125-6.488 1.136-2.682 3.238-4.08 2.113-1.41 5.034-1.409t5.023 1.41q2.114 1.408 3.25 4.09 1.137 2.67 1.125 6.477 0 3.83-1.136 6.546-1.125 2.715-3.228 4.148-2.102 1.431-5.034 1.431m0-4.08q2 0 3.194-2.01 1.193-2.012 1.181-6.035 0-2.647-.545-4.409-.534-1.76-1.523-2.648a3.32 3.32 0 0 0-2.307-.886q-1.988 0-3.181 1.989t-1.205 5.954q0 2.682.534 4.478.546 1.784 1.534 2.682.989.886 2.318.886m22.789 3.887q-2.545 0-4.534-.875-1.977-.886-3.125-2.432-1.137-1.556-1.171-3.59h4.955q.045.852.557 1.5.522.636 1.386.988t1.943.352q1.125 0 1.989-.397.864-.398 1.352-1.103a2.8 2.8 0 0 0 .489-1.625q0-.93-.523-1.647-.511-.728-1.477-1.137-.955-.41-2.273-.409h-2.17V88.33h2.17q1.113 0 1.966-.386.864-.386 1.341-1.068.477-.693.477-1.614 0-.874-.42-1.534a2.8 2.8 0 0 0-1.159-1.045q-.74-.375-1.728-.375-1 0-1.829.364a3.2 3.2 0 0 0-1.33 1.01q-.5.66-.534 1.546h-4.716q.035-2.011 1.148-3.545t3-2.398q1.897-.875 4.284-.875 2.409 0 4.216.875 1.807.874 2.807 2.364 1.01 1.477 1 3.318.01 1.954-1.216 3.261-1.216 1.306-3.171 1.66v.181q2.57.33 3.91 1.784 1.352 1.443 1.34 3.614.011 1.989-1.147 3.534-1.147 1.545-3.171 2.432-2.022.886-4.636.886M389.56 57.66V66h-1.368v-3.648h-3.924V66H382.9v-8.34h1.368v3.576h3.924V57.66zm4.669 8.448q-.936 0-1.692-.42a3.1 3.1 0 0 1-1.188-1.2q-.432-.78-.432-1.8 0-1.008.444-1.788t1.212-1.2a3.5 3.5 0 0 1 1.716-.42q.948 0 1.716.42t1.212 1.2.444 1.788-.456 1.788-1.248 1.212q-.78.42-1.728.42m0-1.188q.528 0 .984-.252.468-.252.756-.756t.288-1.224-.276-1.212a1.86 1.86 0 0 0-.732-.756 2 2 0 0 0-.984-.252q-.528 0-.984.252-.444.252-.708.756-.264.492-.264 1.212 0 1.068.54 1.656.552.576 1.38.576m10.772-5.532V66h-1.368v-.78q-.324.408-.852.648a2.7 2.7 0 0 1-1.104.228q-.78 0-1.404-.324a2.4 2.4 0 0 1-.972-.96q-.348-.636-.348-1.536v-3.888h1.356v3.684q0 .888.444 1.368.444.468 1.212.468t1.212-.468q.456-.48.456-1.368v-3.684zm3.173.96q.3-.504.792-.78.504-.288 1.188-.288v1.416h-.348q-.804 0-1.224.408-.408.408-.408 1.416V66h-1.368v-6.612h1.368zm5.638 5.76q-.78 0-1.404-.276a2.54 2.54 0 0 1-.972-.768 1.94 1.94 0 0 1-.384-1.092h1.416a1 1 0 0 0 .396.708q.372.276.924.276.576 0 .888-.216.324-.228.324-.576 0-.372-.36-.552-.348-.18-1.116-.396a11 11 0 0 1-1.212-.396 2.2 2.2 0 0 1-.816-.588q-.336-.396-.336-1.044 0-.528.312-.96.312-.444.888-.696.588-.252 1.344-.252 1.128 0 1.812.576.696.564.744 1.548h-1.368a.97.97 0 0 0-.36-.708q-.324-.264-.876-.264-.54 0-.828.204a.63.63 0 0 0-.288.54q0 .264.192.444t.468.288q.276.096.816.252.72.192 1.176.396.468.192.804.576t.348 1.02q0 .564-.312 1.008t-.888.696q-.564.252-1.332.252M383.886 102v-3.546l8.284-7.67a31 31 0 0 0 1.773-1.84q.727-.819 1.102-1.603.375-.795.375-1.716 0-1.023-.465-1.761a3.06 3.06 0 0 0-1.273-1.148q-.807-.41-1.83-.41-1.068 0-1.863.433-.796.43-1.228 1.238-.431.807-.431 1.92h-4.671q0-2.283 1.034-3.965t2.898-2.603q1.863-.92 4.295-.92 2.5 0 4.353.886 1.863.876 2.897 2.432t1.034 3.569q0 1.317-.522 2.602-.512 1.283-1.83 2.852-1.318 1.557-3.716 3.739l-3.397 3.33v.158h9.772V102zm30.039.318q-2.545 0-4.534-.875-1.977-.886-3.125-2.432-1.137-1.556-1.171-3.59h4.955q.045.852.557 1.5.522.636 1.386.988t1.943.352q1.125 0 1.989-.397.864-.398 1.352-1.103a2.8 2.8 0 0 0 .489-1.625q0-.93-.523-1.647-.511-.728-1.477-1.137-.955-.41-2.273-.409h-2.17V88.33h2.17q1.113 0 1.966-.386.864-.386 1.341-1.068.477-.693.477-1.614 0-.874-.42-1.534a2.8 2.8 0 0 0-1.159-1.045q-.74-.375-1.728-.375-1 0-1.829.364a3.2 3.2 0 0 0-1.33 1.01q-.5.66-.534 1.546h-4.716q.035-2.011 1.148-3.545t3-2.398q1.897-.875 4.284-.875 2.409 0 4.216.875 1.807.874 2.807 2.364 1.01 1.477 1 3.318.01 1.954-1.216 3.261-1.216 1.306-3.171 1.66v.181q2.57.33 3.91 1.784 1.352 1.443 1.34 3.614.012 1.989-1.147 3.534-1.147 1.545-3.171 2.432-2.022.886-4.636.886M471.684 57.66V66h-1.368v-5.712L467.772 66h-.948l-2.556-5.712V66H462.9v-8.34h1.476l2.928 6.54 2.916-6.54zm2.494.852a.85.85 0 0 1-.624-.252.85.85 0 0 1-.252-.624q0-.372.252-.624a.85.85 0 0 1 .624-.252q.36 0 .612.252a.85.85 0 0 1 .252.624.85.85 0 0 1-.252.624.83.83 0 0 1-.612.252m.672.876V66h-1.368v-6.612zm5.132-.108q.78 0 1.392.324.624.324.972.96t.348 1.536V66h-1.356v-3.696q0-.888-.444-1.356-.444-.48-1.212-.48t-1.224.48q-.444.468-.444 1.356V66h-1.368v-6.612h1.368v.756q.336-.408.852-.636a2.8 2.8 0 0 1 1.116-.228m10.445.108V66h-1.368v-.78q-.324.408-.852.648a2.7 2.7 0 0 1-1.104.228q-.78 0-1.404-.324a2.4 2.4 0 0 1-.972-.96q-.348-.636-.348-1.536v-3.888h1.356v3.684q0 .888.444 1.368.444.468 1.212.468t1.212-.468q.456-.48.456-1.368v-3.684zm3.401 1.116v3.66q0 .372.168.54.18.156.6.156h.84V66h-1.08q-.924 0-1.416-.432t-.492-1.404v-3.66h-.78v-1.116h.78v-1.644h1.38v1.644h1.608v1.116zm8.929 2.028q0 .372-.048.672h-5.052q.06.792.588 1.272t1.296.48q1.104 0 1.56-.924h1.476a3 3 0 0 1-1.092 1.5q-.78.576-1.944.576-.948 0-1.704-.42a3.14 3.14 0 0 1-1.176-1.2q-.42-.78-.42-1.8t.408-1.788q.42-.78 1.164-1.2.756-.42 1.728-.42.936 0 1.668.408t1.14 1.152q.408.732.408 1.692m-1.428-.432q-.012-.756-.54-1.212t-1.308-.456q-.708 0-1.212.456-.504.444-.6 1.212zm5.174 4.008q-.78 0-1.404-.276a2.54 2.54 0 0 1-.972-.768 1.94 1.94 0 0 1-.384-1.092h1.416a1 1 0 0 0 .396.708q.372.276.924.276.576 0 .888-.216.324-.228.324-.576 0-.372-.36-.552-.348-.18-1.116-.396a11 11 0 0 1-1.212-.396 2.2 2.2 0 0 1-.816-.588q-.336-.396-.336-1.044 0-.528.312-.96.312-.444.888-.696.588-.252 1.344-.252 1.128 0 1.812.576.696.564.744 1.548h-1.368a.97.97 0 0 0-.36-.708q-.324-.264-.876-.264-.54 0-.828.204a.63.63 0 0 0-.288.54q0 .264.192.444t.468.288q.276.096.816.252.72.192 1.176.396.468.192.804.576t.348 1.02q0 .564-.312 1.008t-.888.696q-.564.252-1.332.252M474.011 78.727V102h-4.92V83.398h-.136l-5.33 3.34v-4.363l5.761-3.648zm15.232-.318q1.796 0 3.455.602a7.96 7.96 0 0 1 2.977 1.92q1.319 1.32 2.079 3.5.774 2.171.785 5.33 0 2.967-.671 5.296-.659 2.318-1.898 3.943t-2.988 2.477q-1.75.841-3.909.841-2.33 0-4.114-.898-1.784-.909-2.875-2.466a7.7 7.7 0 0 1-1.307-3.522h4.852q.285 1.272 1.194 1.977.909.693 2.25.693 2.272 0 3.454-1.977 1.182-1.989 1.193-5.443h-.159a5.6 5.6 0 0 1-1.409 1.761 6.6 6.6 0 0 1-2.034 1.125 7.3 7.3 0 0 1-2.42.398q-2.058 0-3.671-.966a6.9 6.9 0 0 1-2.545-2.66q-.933-1.692-.932-3.863-.012-2.34 1.079-4.17 1.092-1.83 3.046-2.864 1.965-1.045 4.568-1.034m.034 3.864q-1.148 0-2.045.545a4 4 0 0 0-1.409 1.466q-.512.921-.5 2.057 0 1.148.5 2.068.511.909 1.386 1.455.886.534 2.023.534a3.9 3.9 0 0 0 2.841-1.194q.544-.567.852-1.306a4.1 4.1 0 0 0 .307-1.569 4.2 4.2 0 0 0-.523-2.022 4 4 0 0 0-1.409-1.478 3.76 3.76 0 0 0-2.023-.556M552.648 66.084q-.84 0-1.512-.288-.672-.3-1.056-.84a2.1 2.1 0 0 1-.384-1.26h1.464q.048.54.42.888.384.348 1.068.348.708 0 1.104-.336a1.13 1.13 0 0 0 .396-.888q0-.42-.252-.684a1.6 1.6 0 0 0-.612-.408q-.36-.144-1.008-.312a10.5 10.5 0 0 1-1.332-.432 2.25 2.25 0 0 1-.864-.696q-.36-.468-.36-1.248 0-.72.36-1.26a2.3 2.3 0 0 1 1.008-.828q.648-.288 1.5-.288 1.212 0 1.98.612.78.6.864 1.656h-1.512q-.036-.456-.432-.78t-1.044-.324q-.588 0-.96.3t-.372.864q0 .384.228.636.24.24.6.384t.984.312q.828.228 1.344.456.528.228.888.708.372.468.372 1.26 0 .636-.348 1.2-.336.564-.996.912-.648.336-1.536.336m10.554-3.552q0 .372-.048.672h-5.052q.06.792.588 1.272t1.296.48q1.104 0 1.56-.924h1.476a3 3 0 0 1-1.092 1.5q-.78.576-1.944.576-.948 0-1.704-.42a3.14 3.14 0 0 1-1.176-1.2q-.42-.78-.42-1.8t.408-1.788q.42-.78 1.164-1.2.756-.42 1.728-.42.936 0 1.668.408t1.14 1.152q.408.732.408 1.692m-1.428-.432q-.012-.756-.54-1.212t-1.308-.456q-.708 0-1.212.456-.504.444-.6 1.212zm2.318.588q0-1.02.408-1.788.42-.78 1.152-1.2t1.68-.42q1.2 0 1.98.576.792.564 1.068 1.62h-1.476a1.56 1.56 0 0 0-.576-.768q-.396-.276-.996-.276-.84 0-1.344.6-.492.588-.492 1.656t.492 1.668q.504.6 1.344.6 1.188 0 1.572-1.044h1.476q-.288 1.008-1.08 1.608-.792.588-1.968.588-.948 0-1.68-.42a3.1 3.1 0 0 1-1.152-1.2q-.408-.78-.408-1.8m10.52 3.42q-.936 0-1.692-.42a3.1 3.1 0 0 1-1.188-1.2q-.432-.78-.432-1.8 0-1.008.444-1.788t1.212-1.2a3.5 3.5 0 0 1 1.716-.42q.948 0 1.716.42t1.212 1.2.444 1.788-.456 1.788-1.248 1.212q-.78.42-1.728.42m0-1.188q.528 0 .984-.252.468-.252.756-.756t.288-1.224-.276-1.212a1.86 1.86 0 0 0-.732-.756 2 2 0 0 0-.984-.252q-.528 0-.984.252-.444.252-.708.756-.264.492-.264 1.212 0 1.068.54 1.656.552.576 1.38.576m8.12-5.64q.78 0 1.392.324.624.324.972.96t.348 1.536V66h-1.356v-3.696q0-.888-.444-1.356-.444-.48-1.212-.48t-1.224.48q-.444.468-.444 1.356V66h-1.368v-6.612h1.368v.756q.336-.408.852-.636a2.8 2.8 0 0 1 1.116-.228m4.001 3.384q0-.996.408-1.764a3.05 3.05 0 0 1 2.724-1.62q.648 0 1.272.288.636.276 1.008.744V57.12h1.38V66h-1.38v-.996a2.55 2.55 0 0 1-.936.792q-.588.312-1.356.312a3 3 0 0 1-1.584-.432 3.2 3.2 0 0 1-1.128-1.224q-.408-.792-.408-1.788m5.412.024q0-.684-.288-1.188a1.94 1.94 0 0 0-.732-.768 1.93 1.93 0 0 0-.984-.264q-.528 0-.984.264-.456.252-.744.756-.276.492-.276 1.176t.276 1.2q.288.516.744.792a1.97 1.97 0 0 0 1.968 0q.456-.264.732-.768.288-.516.288-1.2m5.577 3.42q-.78 0-1.404-.276a2.54 2.54 0 0 1-.972-.768 1.94 1.94 0 0 1-.384-1.092h1.416a1 1 0 0 0 .396.708q.372.276.924.276.576 0 .888-.216.324-.228.324-.576 0-.372-.36-.552-.348-.18-1.116-.396a11 11 0 0 1-1.212-.396 2.2 2.2 0 0 1-.816-.588q-.336-.396-.336-1.044 0-.528.312-.96.312-.444.888-.696.588-.252 1.344-.252 1.128 0 1.812.576.696.564.744 1.548h-1.368a.97.97 0 0 0-.36-.708q-.324-.264-.876-.264-.54 0-.828.204a.63.63 0 0 0-.288.54q0 .264.192.444t.468.288q.276.096.816.252.72.192 1.176.396.468.192.804.576t.348 1.02q0 .564-.312 1.008t-.888.696q-.564.252-1.332.252M559.386 102.318q-2.41 0-4.295-.886-1.875-.886-2.977-2.443-1.103-1.557-1.148-3.568h4.773q.079 1.352 1.136 2.193 1.058.84 2.511.84 1.16 0 2.046-.51a3.67 3.67 0 0 0 1.398-1.444q.51-.931.511-2.136 0-1.228-.523-2.16a3.7 3.7 0 0 0-1.42-1.454q-.91-.523-2.08-.534-1.023 0-1.988.42-.955.42-1.489 1.148L551.466 91l1.102-12.273h14.227v4.023h-10.17l-.602 5.83h.136q.614-.864 1.852-1.432 1.239-.57 2.773-.569 2.103 0 3.75.99a7.1 7.1 0 0 1 2.602 2.715q.955 1.716.944 3.955.01 2.352-1.091 4.182-1.092 1.818-3.057 2.863-1.954 1.034-4.546 1.034m22.337 0a10.5 10.5 0 0 1-3.466-.602q-1.659-.591-2.977-1.92-1.319-1.33-2.091-3.523-.76-2.193-.761-5.387.011-2.931.67-5.238.671-2.318 1.909-3.932 1.25-1.614 2.989-2.455 1.738-.852 3.898-.852 2.33 0 4.113.91 1.784.897 2.864 2.442a7.4 7.4 0 0 1 1.318 3.466h-4.852q-.284-1.216-1.193-1.909t-2.25-.693q-2.274 0-3.455 1.977-1.17 1.978-1.193 5.375h.159a5.4 5.4 0 0 1 1.409-1.761 6.4 6.4 0 0 1 2.034-1.125 7.3 7.3 0 0 1 2.421-.398q2.068 0 3.681.978a6.93 6.93 0 0 1 2.546 2.658q.932 1.694.932 3.876 0 2.363-1.103 4.204-1.09 1.84-3.056 2.886-1.955 1.035-4.546 1.023m-.023-3.864q1.137 0 2.035-.545a3.9 3.9 0 0 0 1.409-1.477q.511-.931.511-2.091t-.511-2.08a3.85 3.85 0 0 0-1.387-1.465q-.886-.546-2.022-.546-.853 0-1.58.318a4 4 0 0 0-1.261.886 4.3 4.3 0 0 0-.841 1.319 4.1 4.1 0 0 0-.307 1.58q0 1.125.511 2.056a4.1 4.1 0 0 0 1.409 1.489q.899.556 2.034.556"/><circle cx="363" cy="81" r="2" fill="#E07575"/><circle cx="363" cy="93" r="2" fill="#E07575"/><circle cx="443" cy="81" r="2" fill="#E07575"/><circle cx="443" cy="93" r="2" fill="#E07575"/><circle cx="530" cy="81" r="2" fill="#E07575"/><circle cx="530" cy="93" r="2" fill="#E07575"/><circle cx="1093" cy="80" r="23" fill="#F5F5F5"/><path stroke="#000" stroke-linecap="round" stroke-linejoin="round" stroke-width="2" d="m1092 73-7 7 7 7m-7-7h16"/><circle cx="1147" cy="80" r="23" fill="#F5F5F5"/><path stroke="#000" stroke-linecap="round" stroke-linejoin="round" stroke-width="1.5" d="M1138.5 80h16.5m0 0-7-7m7 7-7 7"/></svg>