<svg xmlns="http://www.w3.org/2000/svg" width="170" height="145" fill="none"><rect width="169" height="144" x=".5" y=".5" stroke="#000" stroke-opacity=".3" rx="3.5"/><path fill="#000" d="M62.68 107.08a3.4 3.4 0 0 0-1.344-1.504q-.88-.544-2.048-.544t-2.112.544q-.929.528-1.472 1.536-.528.992-.528 2.304 0 1.313.528 2.304a3.93 3.93 0 0 0 1.472 1.536q.944.528 2.112.528 1.632 0 2.688-.976 1.056-.977 1.232-2.64H58.76v-1.184h6v1.12a5.6 5.6 0 0 1-.864 2.528 5.44 5.44 0 0 1-1.936 1.808q-1.2.656-2.672.656-1.552 0-2.832-.72a5.47 5.47 0 0 1-2.032-2.032q-.735-1.296-.736-2.928 0-1.632.736-2.928a5.3 5.3 0 0 1 2.032-2.032q1.28-.736 2.832-.736 1.776 0 3.136.88 1.376.88 2 2.48zm3.461 3.504q0-1.344.544-2.352a3.95 3.95 0 0 1 1.488-1.584 4.15 4.15 0 0 1 2.128-.56q1.152 0 2 .496t1.264 1.248v-1.6h1.472V115h-1.472v-1.632q-.432.768-1.296 1.28-.848.496-1.984.496a4 4 0 0 1-2.112-.576 4.04 4.04 0 0 1-1.488-1.616q-.543-1.04-.544-2.368m7.424.016q0-.992-.4-1.728a2.75 2.75 0 0 0-1.088-1.12 2.85 2.85 0 0 0-1.488-.4q-.816 0-1.488.384a2.8 2.8 0 0 0-1.072 1.12q-.4.736-.4 1.728 0 1.008.4 1.76a2.9 2.9 0 0 0 1.072 1.136q.672.384 1.488.384t1.488-.384a2.86 2.86 0 0 0 1.088-1.136q.4-.752.4-1.744m14.477-4.528q1.023 0 1.824.432.8.416 1.264 1.264.464.847.464 2.064V115h-1.44v-4.96q0-1.312-.656-2-.64-.704-1.744-.704-1.136 0-1.808.736-.672.72-.672 2.096V115h-1.44v-4.96q0-1.312-.656-2-.64-.704-1.744-.704-1.136 0-1.808.736-.672.72-.672 2.096V115h-1.456v-8.768h1.456v1.264a2.9 2.9 0 0 1 1.152-1.056 3.6 3.6 0 0 1 1.616-.368q1.103 0 1.952.496.847.496 1.264 1.456a2.87 2.87 0 0 1 1.216-1.44 3.6 3.6 0 0 1 1.888-.512m6.692-1.264a.96.96 0 0 1-.704-.288.96.96 0 0 1-.288-.704q0-.416.288-.704a.96.96 0 0 1 .704-.288q.4 0 .672.288a.96.96 0 0 1 .288.704.96.96 0 0 1-.288.704.9.9 0 0 1-.672.288m.704 1.424V115h-1.456v-8.768zm6.754-.16q1.599 0 2.592.976.992.96.992 2.784V115h-1.44v-4.96q0-1.312-.656-2-.657-.704-1.792-.704-1.153 0-1.84.72-.672.72-.672 2.096V115h-1.457v-8.768h1.457v1.248a2.9 2.9 0 0 1 1.168-1.04 3.7 3.7 0 0 1 1.648-.368m9.578.016q1.136 0 1.984.496.864.496 1.28 1.248v-1.6h1.472v8.96q0 1.2-.512 2.128a3.6 3.6 0 0 1-1.472 1.472q-.944.528-2.208.528-1.728 0-2.88-.816t-1.36-2.224h1.44q.24.8.992 1.28.752.496 1.808.496 1.2 0 1.952-.752.768-.751.768-2.112v-1.84q-.432.768-1.28 1.28t-1.984.512a4.06 4.06 0 0 1-2.128-.576 4.05 4.05 0 0 1-1.488-1.616q-.544-1.04-.544-2.368 0-1.344.544-2.352a3.95 3.95 0 0 1 1.488-1.584 4.15 4.15 0 0 1 2.128-.56m3.264 4.512q0-.992-.4-1.728a2.75 2.75 0 0 0-1.088-1.12 2.85 2.85 0 0 0-1.488-.4q-.816 0-1.488.384a2.8 2.8 0 0 0-1.072 1.12q-.4.736-.4 1.728 0 1.008.4 1.76.4.736 1.072 1.136.672.384 1.488.384t1.488-.384a2.86 2.86 0 0 0 1.088-1.136q.4-.752.4-1.744"/><g stroke="#000" stroke-linecap="round" stroke-linejoin="round" clip-path="url(#a)"><path stroke-width="2" d="M103.667 39H66.333a4.667 4.667 0 0 0-4.666 4.667v18.666A4.667 4.667 0 0 0 66.333 67h37.334a4.666 4.666 0 0 0 4.666-4.667V43.667A4.666 4.666 0 0 0 103.667 39M71 53h9.333m-4.666-4.667v9.334"/><path stroke-width="3" d="M92 50.667v.024m7 4.642v.024"/></g><defs><clipPath id="a"><path fill="#fff" d="M57 25h56v56H57z"/></clipPath></defs></svg>