<svg xmlns="http://www.w3.org/2000/svg" width="371" height="56" fill="none"><rect width="370" height="55" x=".5" y=".5" stroke="#000" stroke-opacity=".4" rx="3.5"/><g clip-path="url(#a)"><path fill="#4285F4" d="M109.766 28.276c0-.815-.066-1.635-.207-2.438H98.24v4.621h6.482a5.55 5.55 0 0 1-2.399 3.647v2.998h3.867c2.271-2.09 3.576-5.177 3.576-8.828"/><path fill="#34A853" d="M98.24 40c3.236 0 5.966-1.062 7.954-2.896l-3.867-2.998c-1.075.731-2.464 1.146-4.083 1.146-3.13 0-5.785-2.112-6.737-4.952h-3.99v3.091a12 12 0 0 0 10.723 6.61"/><path fill="#FBBC04" d="M91.503 30.3a7.2 7.2 0 0 1 0-4.594v-3.091h-3.987a12.01 12.01 0 0 0 0 10.776z"/><path fill="#EA4335" d="M98.24 20.75a6.52 6.52 0 0 1 4.603 1.799l3.426-3.426A11.53 11.53 0 0 0 98.24 16a12 12 0 0 0-10.724 6.614l3.986 3.09c.949-2.843 3.607-4.955 6.738-4.955"/></g><path fill="#FAFAFA" d="M130.768 34.112q-1.104 0-1.984-.384-.864-.4-1.36-1.088a2.83 2.83 0 0 1-.512-1.616h1.552q.08.784.64 1.328.576.528 1.664.528 1.04 0 1.632-.512.608-.528.608-1.344 0-.64-.352-1.04a2.25 2.25 0 0 0-.88-.608 14 14 0 0 0-1.424-.448q-1.104-.288-1.776-.576a2.95 2.95 0 0 1-1.136-.896q-.464-.623-.464-1.664 0-.912.464-1.616.463-.704 1.296-1.088.848-.384 1.936-.384 1.568 0 2.56.784 1.008.784 1.136 2.08h-1.6q-.08-.64-.672-1.12-.592-.495-1.568-.496-.912 0-1.488.48-.576.465-.576 1.312 0 .608.336.992.352.384.848.592.512.192 1.424.448 1.104.304 1.776.608.672.288 1.152.912.48.608.48 1.664 0 .816-.432 1.536t-1.28 1.168-2 .448m6.607-10.304a.96.96 0 0 1-.704-.288.96.96 0 0 1-.288-.704q0-.416.288-.704a.96.96 0 0 1 .704-.288.9.9 0 0 1 .672.288.96.96 0 0 1 .288.704.96.96 0 0 1-.288.704.9.9 0 0 1-.672.288m.704 1.424V34h-1.456v-8.768zm6.097-.144q1.136 0 1.984.496.864.496 1.28 1.248v-1.6h1.472v8.96q0 1.2-.512 2.128a3.6 3.6 0 0 1-1.472 1.472q-.944.528-2.208.528-1.728 0-2.88-.816t-1.36-2.224h1.44q.24.8.992 1.28.752.495 1.808.496 1.2 0 1.952-.752.768-.751.768-2.112v-1.84q-.432.768-1.28 1.28t-1.984.512a4.06 4.06 0 0 1-2.128-.576 4.05 4.05 0 0 1-1.488-1.616q-.544-1.04-.544-2.368 0-1.344.544-2.352a3.96 3.96 0 0 1 1.488-1.584 4.14 4.14 0 0 1 2.128-.56m3.264 4.512q0-.992-.4-1.728a2.75 2.75 0 0 0-1.088-1.12 2.85 2.85 0 0 0-1.488-.4q-.816 0-1.488.384t-1.072 1.12-.4 1.728q0 1.008.4 1.76.4.736 1.072 1.136.672.384 1.488.384t1.488-.384a2.86 2.86 0 0 0 1.088-1.136q.4-.752.4-1.744m8.205-4.528q1.599 0 2.592.976.992.96.992 2.784V34h-1.44v-4.96q0-1.312-.656-2-.657-.704-1.792-.704-1.153 0-1.84.72-.672.72-.672 2.096V34h-1.456v-8.768h1.456v1.248a2.9 2.9 0 0 1 1.168-1.04 3.7 3.7 0 0 1 1.648-.368m18.004.16V34h-1.456v-1.296q-.417.672-1.168 1.056a3.6 3.6 0 0 1-1.632.368q-1.024 0-1.84-.416a3.2 3.2 0 0 1-1.296-1.28q-.464-.848-.464-2.064v-5.136h1.44v4.944q0 1.296.656 2 .655.688 1.792.688 1.167 0 1.84-.72.672-.72.672-2.096v-4.816zm3.914 1.616q.432-.751 1.28-1.248.864-.512 2-.512a4.06 4.06 0 0 1 2.112.56 3.9 3.9 0 0 1 1.504 1.584q.544 1.008.544 2.352 0 1.328-.544 2.368a4 4 0 0 1-1.504 1.616 3.97 3.97 0 0 1-2.112.576q-1.12 0-1.984-.496-.847-.512-1.296-1.264v5.776h-1.456V25.232h1.456zm5.952 2.736q0-.992-.4-1.728a2.75 2.75 0 0 0-1.088-1.12 2.95 2.95 0 0 0-1.488-.384q-.8 0-1.488.4-.672.384-1.088 1.136-.4.735-.4 1.712 0 .992.4 1.744.416.736 1.088 1.136.689.384 1.488.384.816 0 1.488-.384a2.86 2.86 0 0 0 1.088-1.136q.4-.752.4-1.76m19.35-4.352L200.129 34h-1.504l-2.112-6.96-2.112 6.96h-1.504l-2.752-8.768h1.488l2.016 7.36 2.176-7.36h1.488l2.128 7.376 1.984-7.376zm2.197-1.424a.96.96 0 0 1-.704-.288.96.96 0 0 1-.288-.704q0-.416.288-.704a.96.96 0 0 1 .704-.288q.4 0 .672.288a.96.96 0 0 1 .288.704.96.96 0 0 1-.288.704.9.9 0 0 1-.672.288m.704 1.424V34h-1.456v-8.768zm4.258 1.2V31.6q0 .64.272.912.272.255.944.256h1.072V34H211q-1.216 0-1.824-.56t-.608-1.84v-5.168h-1.136v-1.2h1.136v-2.208h1.456v2.208h2.288v1.2zm8.404-1.36q.991 0 1.792.432a2.92 2.92 0 0 1 1.248 1.264q.464.848.464 2.064V34h-1.44v-4.96q0-1.312-.656-2-.657-.704-1.792-.704-1.153 0-1.84.72-.672.72-.672 2.096V34h-1.456V22.16h1.456v4.32a2.9 2.9 0 0 1 1.184-1.04 3.9 3.9 0 0 1 1.712-.368m18.596 1.008a3.43 3.43 0 0 0-1.344-1.504q-.88-.544-2.048-.544t-2.112.544q-.929.528-1.472 1.536-.528.992-.528 2.304 0 1.313.528 2.304a3.9 3.9 0 0 0 1.472 1.536q.944.528 2.112.528 1.632 0 2.688-.976 1.055-.975 1.232-2.64h-4.448v-1.184h6v1.12a5.6 5.6 0 0 1-.864 2.528 5.44 5.44 0 0 1-1.936 1.808q-1.2.656-2.672.656-1.553 0-2.832-.72a5.46 5.46 0 0 1-2.032-2.032q-.736-1.296-.736-2.928t.736-2.928a5.3 5.3 0 0 1 2.032-2.032q1.28-.736 2.832-.736 1.776 0 3.136.88 1.376.88 2 2.48zm7.829 8.064a4.54 4.54 0 0 1-2.24-.56A4.07 4.07 0 0 1 241.045 32q-.56-1.04-.56-2.4 0-1.344.576-2.368a4 4 0 0 1 1.6-1.584q1.008-.56 2.256-.56t2.256.56q1.008.544 1.584 1.568.592 1.024.592 2.384t-.608 2.4a4.1 4.1 0 0 1-1.616 1.584q-1.024.56-2.272.56m0-1.28q.784 0 1.472-.368a2.74 2.74 0 0 0 1.104-1.104q.432-.735.432-1.792t-.416-1.792-1.088-1.088a3 3 0 0 0-1.456-.368q-.8 0-1.472.368-.655.352-1.056 1.088-.4.735-.4 1.792 0 1.072.384 1.808.4.736 1.056 1.104.656.352 1.44.352m10.234 1.28a4.54 4.54 0 0 1-2.24-.56A4.07 4.07 0 0 1 251.279 32q-.56-1.04-.56-2.4 0-1.344.576-2.368a4 4 0 0 1 1.6-1.584q1.008-.56 2.256-.56t2.256.56q1.008.544 1.584 1.568.592 1.024.592 2.384t-.608 2.4a4.1 4.1 0 0 1-1.616 1.584q-1.023.56-2.272.56m0-1.28q.785 0 1.472-.368a2.74 2.74 0 0 0 1.104-1.104q.432-.735.432-1.792t-.416-1.792-1.088-1.088a3 3 0 0 0-1.456-.368q-.8 0-1.472.368-.655.352-1.056 1.088-.4.735-.4 1.792 0 1.072.384 1.808.4.736 1.056 1.104a3 3 0 0 0 1.44.352m10.027-7.776q1.135 0 1.984.496.864.496 1.28 1.248v-1.6h1.472v8.96q0 1.2-.512 2.128a3.63 3.63 0 0 1-1.472 1.472q-.945.528-2.208.528-1.728 0-2.88-.816t-1.36-2.224h1.44q.24.8.992 1.28.752.495 1.808.496 1.2 0 1.952-.752.768-.751.768-2.112v-1.84q-.432.768-1.28 1.28t-1.984.512a4.06 4.06 0 0 1-2.128-.576 4.03 4.03 0 0 1-1.488-1.616q-.544-1.04-.544-2.368 0-1.344.544-2.352a3.94 3.94 0 0 1 1.488-1.584 4.14 4.14 0 0 1 2.128-.56m3.264 4.512q0-.992-.4-1.728a2.76 2.76 0 0 0-1.088-1.12 2.85 2.85 0 0 0-1.488-.4q-.816 0-1.488.384t-1.072 1.12-.4 1.728q0 1.008.4 1.76.4.736 1.072 1.136.672.384 1.488.384t1.488-.384a2.87 2.87 0 0 0 1.088-1.136q.4-.752.4-1.744m5.388-7.44V34h-1.456V22.16zm10.482 7.12q0 .415-.048.88h-7.008q.08 1.296.88 2.032.816.72 1.968.72.944 0 1.568-.432.64-.448.896-1.184h1.568a3.8 3.8 0 0 1-1.408 2.064q-1.056.784-2.624.784-1.248 0-2.24-.56A4 4 0 0 1 276.264 32q-.56-1.04-.56-2.4t.544-2.384a3.8 3.8 0 0 1 1.52-1.568q.991-.56 2.272-.56 1.248 0 2.208.544t1.472 1.504q.528.945.528 2.144m-1.504-.304q0-.833-.368-1.424a2.3 2.3 0 0 0-1.008-.912 3 3 0 0 0-1.392-.32q-1.105 0-1.888.704-.768.704-.88 1.952z"/><defs><clipPath id="a"><path fill="#fff" d="M86 16h24v24H86z"/></clipPath></defs></svg>