<svg xmlns="http://www.w3.org/2000/svg" width="170" height="145" fill="none"><rect width="169" height="144" x=".5" y=".5" stroke="#000" stroke-opacity=".3" rx="3.5"/><path fill="#000" d="M43.824 103.848V115h-1.456v-5.056h-5.68V115h-1.456v-11.152h1.456v4.896h5.68v-4.896zm10.486 6.432q0 .416-.048.88h-7.008q.08 1.296.88 2.032.816.72 1.968.72.945 0 1.568-.432.64-.448.896-1.184h1.568a3.8 3.8 0 0 1-1.408 2.064q-1.056.784-2.624.784-1.248 0-2.24-.56A4 4 0 0 1 46.326 113q-.56-1.04-.56-2.4t.544-2.384a3.8 3.8 0 0 1 1.52-1.568q.993-.56 2.272-.56 1.248 0 2.208.544t1.472 1.504q.528.944.528 2.144m-1.504-.304q0-.832-.368-1.424a2.3 2.3 0 0 0-1.008-.912 3 3 0 0 0-1.392-.32q-1.104 0-1.888.704-.768.704-.88 1.952zm2.882.608q0-1.344.544-2.352a3.95 3.95 0 0 1 1.488-1.584 4.15 4.15 0 0 1 2.128-.56q1.152 0 2 .496t1.264 1.248v-1.6h1.472V115h-1.472v-1.632q-.432.768-1.296 1.28-.848.496-1.984.496a3.97 3.97 0 0 1-2.112-.576 4.04 4.04 0 0 1-1.488-1.616q-.544-1.04-.544-2.368m7.424.016q0-.992-.4-1.728a2.75 2.75 0 0 0-1.088-1.12 2.85 2.85 0 0 0-1.488-.4q-.816 0-1.488.384a2.8 2.8 0 0 0-1.072 1.12q-.4.736-.4 1.728 0 1.008.4 1.76a2.9 2.9 0 0 0 1.072 1.136q.672.384 1.488.384t1.488-.384a2.86 2.86 0 0 0 1.088-1.136q.4-.752.4-1.744m3.389-.016q0-1.344.543-2.352a3.95 3.95 0 0 1 1.489-1.584 4.2 4.2 0 0 1 2.144-.56q1.024 0 1.903.48.88.464 1.344 1.232v-4.64h1.472V115h-1.472v-1.648q-.431.784-1.28 1.296-.847.496-1.984.496a4.06 4.06 0 0 1-2.127-.576 4.04 4.04 0 0 1-1.489-1.616q-.543-1.04-.543-2.368m7.423.016q0-.992-.4-1.728a2.75 2.75 0 0 0-1.088-1.12 2.85 2.85 0 0 0-1.488-.4q-.816 0-1.487.384a2.8 2.8 0 0 0-1.073 1.12q-.4.736-.4 1.728 0 1.008.4 1.76a2.9 2.9 0 0 0 1.072 1.136q.673.384 1.489.384t1.487-.384a2.86 2.86 0 0 0 1.088-1.136q.4-.752.4-1.744m11.389-3.488q0 1.392-.96 2.32-.945.912-2.896.912h-2.144V115h-1.456v-11.152h3.6q1.888 0 2.864.912.992.912.992 2.352m-3.856 2.032q1.215 0 1.792-.528.576-.528.576-1.504 0-2.064-2.368-2.064h-2.144v4.096zm10.018-3.072a3.7 3.7 0 0 1 1.792.432q.8.416 1.248 1.264.464.847.464 2.064V115h-1.44v-4.96q0-1.312-.656-2-.657-.704-1.792-.704-1.153 0-1.84.72-.672.72-.672 2.096V115h-1.456v-11.84h1.456v4.32a2.9 2.9 0 0 1 1.184-1.04 3.9 3.9 0 0 1 1.712-.368m9.706 9.072a4.54 4.54 0 0 1-2.24-.56A4.07 4.07 0 0 1 97.373 113q-.56-1.04-.56-2.4 0-1.344.576-2.368a4 4 0 0 1 1.6-1.584q1.008-.56 2.256-.56t2.256.56q1.008.544 1.584 1.568.592 1.024.592 2.384t-.608 2.4a4.1 4.1 0 0 1-1.616 1.584q-1.024.56-2.272.56m0-1.28q.784 0 1.472-.368a2.74 2.74 0 0 0 1.104-1.104q.432-.736.432-1.792t-.416-1.792-1.088-1.088a3 3 0 0 0-1.456-.368q-.8 0-1.472.368-.656.352-1.056 1.088t-.4 1.792q0 1.072.384 1.808.4.736 1.056 1.104.656.352 1.44.352m10.682-7.792q1.6 0 2.592.976.993.96.992 2.784V115h-1.44v-4.96q0-1.312-.656-2-.655-.704-1.792-.704-1.152 0-1.84.72-.672.72-.672 2.096V115h-1.456v-8.768h1.456v1.248a2.9 2.9 0 0 1 1.168-1.04 3.7 3.7 0 0 1 1.648-.368m13.963 4.208q0 .416-.048.88h-7.008q.08 1.296.88 2.032.816.72 1.968.72.944 0 1.568-.432.64-.448.896-1.184h1.568a3.8 3.8 0 0 1-1.408 2.064q-1.056.784-2.624.784-1.248 0-2.24-.56a4 4 0 0 1-1.536-1.584q-.56-1.04-.56-2.4t.544-2.384a3.8 3.8 0 0 1 1.52-1.568q.991-.56 2.272-.56 1.248 0 2.208.544t1.472 1.504q.528.944.528 2.144m-1.504-.304q0-.832-.368-1.424a2.33 2.33 0 0 0-1.008-.912 3 3 0 0 0-1.392-.32q-1.105 0-1.888.704-.769.704-.88 1.952zm6.53 5.168q-1.008 0-1.808-.336-.8-.352-1.264-.96a2.6 2.6 0 0 1-.512-1.424h1.504q.063.656.608 1.072.56.416 1.456.416.832 0 1.312-.368t.48-.928q0-.576-.512-.848-.513-.288-1.584-.56a13 13 0 0 1-1.6-.512 3 3 0 0 1-1.056-.784q-.432-.528-.432-1.376 0-.672.4-1.232t1.136-.88q.735-.336 1.68-.336 1.455 0 2.352.736t.96 2.016h-1.456a1.5 1.5 0 0 0-.56-1.104q-.496-.416-1.344-.416-.785 0-1.248.336-.464.336-.464.88 0 .432.272.72.287.272.704.448.431.16 1.184.368.943.256 1.536.512.591.24 1.008.736.432.497.448 1.296 0 .72-.4 1.296t-1.136.912q-.72.32-1.664.32"/><g stroke="#000" stroke-linecap="round" stroke-linejoin="round" stroke-width="2" clip-path="url(#a)"><path d="M73.333 55.333H71A4.667 4.667 0 0 0 66.333 60v7A4.667 4.667 0 0 0 71 71.667h2.333A4.667 4.667 0 0 0 78 67v-7a4.667 4.667 0 0 0-4.667-4.667m25.667 0h-2.333A4.667 4.667 0 0 0 92 60v7a4.667 4.667 0 0 0 4.667 4.667H99A4.667 4.667 0 0 0 103.667 67v-7A4.667 4.667 0 0 0 99 55.333"/><path d="M66.333 60v-7a18.666 18.666 0 1 1 37.334 0v7"/></g><defs><clipPath id="a"><path fill="#fff" d="M57 25h56v56H57z"/></clipPath></defs></svg>