<svg xmlns="http://www.w3.org/2000/svg" width="217" height="344" fill="none"><path fill="#000" d="M15.56 6.848 12.328 18h-1.631L8.105 9.024 5.416 18l-1.616.016L.68 6.848h1.552l2.433 9.456 2.688-9.456h1.632l2.56 9.424 2.448-9.424zm5.418 11.296a4.53 4.53 0 0 1-2.24-.56A4.07 4.07 0 0 1 17.17 16q-.56-1.04-.56-2.4 0-1.344.576-2.368a4 4 0 0 1 1.6-1.584q1.008-.56 2.256-.56t2.256.56q1.008.544 1.584 1.568.591 1.024.592 2.384 0 1.36-.608 2.4a4.1 4.1 0 0 1-1.616 1.584q-1.024.56-2.272.56m0-1.28q.783 0 1.472-.368a2.75 2.75 0 0 0 1.104-1.104q.432-.736.432-1.792t-.416-1.792q-.416-.735-1.088-1.088a3 3 0 0 0-1.456-.368q-.8 0-1.472.368-.656.352-1.056 1.088t-.4 1.792q0 1.072.384 1.808.4.736 1.056 1.104.656.352 1.44.352m16.954-7.792q1.024 0 1.824.432a3 3 0 0 1 1.264 1.264q.465.848.464 2.064V18h-1.44v-4.96q0-1.312-.656-2-.64-.705-1.744-.704-1.136 0-1.808.736-.672.72-.672 2.096V18h-1.44v-4.96q0-1.312-.656-2-.64-.705-1.744-.704-1.136 0-1.808.736-.672.72-.672 2.096V18h-1.456V9.232h1.456v1.264a2.9 2.9 0 0 1 1.152-1.056 3.56 3.56 0 0 1 1.616-.368q1.104 0 1.952.496.849.495 1.264 1.456a2.88 2.88 0 0 1 1.216-1.44 3.6 3.6 0 0 1 1.888-.512m5.397 4.512q0-1.344.544-2.352a3.95 3.95 0 0 1 1.488-1.584q.96-.56 2.128-.56 1.152 0 2 .496.847.496 1.264 1.248v-1.6h1.472V18h-1.472v-1.632q-.432.768-1.296 1.28-.849.495-1.984.496a4 4 0 0 1-2.112-.576 4.04 4.04 0 0 1-1.488-1.616q-.544-1.04-.544-2.368m7.424.016q0-.992-.4-1.728a2.75 2.75 0 0 0-1.088-1.12 2.85 2.85 0 0 0-1.488-.4q-.816 0-1.488.384t-1.072 1.12-.4 1.728q0 1.008.4 1.76a2.9 2.9 0 0 0 1.072 1.136q.672.384 1.488.384t1.488-.384a2.86 2.86 0 0 0 1.088-1.136q.4-.752.4-1.744m8.204-4.528q1.6 0 2.592.976.992.96.992 2.784V18h-1.44v-4.96q0-1.312-.656-2-.656-.705-1.792-.704-1.152 0-1.84.72-.672.72-.672 2.096V18h-1.456V9.232h1.456v1.248a2.9 2.9 0 0 1 1.168-1.04 3.7 3.7 0 0 1 1.648-.368m6.187-2.224h1.615l-1.535 3.632h-1.025zm6.38 11.296q-1.008 0-1.808-.336-.8-.352-1.264-.96-.464-.623-.513-1.424h1.505q.063.656.608 1.072.56.416 1.455.416.832 0 1.313-.368.48-.368.48-.928 0-.576-.513-.848-.51-.288-1.584-.56-.975-.255-1.6-.512a3 3 0 0 1-1.055-.784q-.433-.528-.433-1.376 0-.672.4-1.232t1.136-.88q.737-.336 1.68-.336 1.457 0 2.352.736.897.736.96 2.016h-1.456a1.5 1.5 0 0 0-.56-1.104q-.495-.416-1.343-.416-.785 0-1.249.336-.463.336-.463.88 0 .432.272.72.287.271.704.448.431.16 1.183.368.945.255 1.537.512.591.24 1.007.736.433.496.448 1.296 0 .72-.4 1.296t-1.135.912q-.72.32-1.665.32M87.349 6.848v1.184H82.5v3.76h3.936v1.184H82.5V18h-1.456V6.848zm1.214 6.736q0-1.344.544-2.352a3.95 3.95 0 0 1 1.488-1.584q.96-.56 2.128-.56 1.152 0 2 .496t1.264 1.248v-1.6h1.472V18h-1.472v-1.632q-.432.768-1.296 1.28-.848.495-1.984.496a3.97 3.97 0 0 1-2.112-.576 4.04 4.04 0 0 1-1.488-1.616q-.544-1.04-.544-2.368m7.424.016q0-.992-.4-1.728a2.75 2.75 0 0 0-1.088-1.12 2.85 2.85 0 0 0-1.488-.4q-.816 0-1.488.384t-1.072 1.12-.4 1.728q0 1.008.4 1.76a2.9 2.9 0 0 0 1.072 1.136q.672.384 1.488.384t1.488-.384a2.86 2.86 0 0 0 1.088-1.136q.4-.752.4-1.744m7.037 4.544q-1.008 0-1.808-.336-.8-.352-1.264-.96-.464-.623-.513-1.424h1.505q.063.656.608 1.072.56.416 1.456.416.832 0 1.312-.368t.48-.928q0-.576-.512-.848-.513-.288-1.584-.56a13 13 0 0 1-1.6-.512 3 3 0 0 1-1.056-.784q-.433-.528-.433-1.376 0-.672.401-1.232.4-.56 1.136-.88.735-.336 1.68-.336 1.455 0 2.352.736.895.736.96 2.016h-1.456a1.5 1.5 0 0 0-.56-1.104q-.496-.416-1.344-.416-.784 0-1.248.336-.465.336-.464.88 0 .432.272.72.287.271.704.448.431.16 1.184.368.944.255 1.536.512.591.24 1.008.736.432.496.448 1.296 0 .72-.4 1.296t-1.136.912q-.72.32-1.664.32m9.607-9.072a3.7 3.7 0 0 1 1.792.432 2.92 2.92 0 0 1 1.248 1.264q.464.848.464 2.064V18h-1.44v-4.96q0-1.312-.656-2-.656-.705-1.792-.704-1.152 0-1.84.72-.672.72-.672 2.096V18h-1.456V6.16h1.456v4.32a2.9 2.9 0 0 1 1.184-1.04 3.9 3.9 0 0 1 1.712-.368m6.634-1.264a.96.96 0 0 1-.704-.288.96.96 0 0 1-.288-.704q0-.416.288-.704a.96.96 0 0 1 .704-.288q.4 0 .672.288a.96.96 0 0 1 .288.704.96.96 0 0 1-.288.704.89.89 0 0 1-.672.288m.704 1.424V18h-1.456V9.232zm6.306 8.912a4.53 4.53 0 0 1-2.24-.56A4.07 4.07 0 0 1 122.467 16q-.56-1.04-.56-2.4 0-1.344.576-2.368a4 4 0 0 1 1.6-1.584q1.008-.56 2.256-.56t2.256.56q1.008.544 1.584 1.568.592 1.024.592 2.384t-.608 2.4a4.13 4.13 0 0 1-1.616 1.584q-1.024.56-2.272.56m0-1.28q.783 0 1.472-.368a2.76 2.76 0 0 0 1.104-1.104q.432-.736.432-1.792t-.416-1.792q-.416-.735-1.088-1.088a3 3 0 0 0-1.456-.368q-.8 0-1.472.368-.657.352-1.056 1.088-.4.736-.4 1.792 0 1.072.384 1.808.399.736 1.056 1.104.656.352 1.44.352m10.682-7.792q1.6 0 2.592.976.992.96.992 2.784V18h-1.44v-4.96q0-1.312-.656-2-.656-.705-1.792-.704-1.152 0-1.84.72-.672.72-.672 2.096V18h-1.456V9.232h1.456v1.248a2.9 2.9 0 0 1 1.168-1.04 3.7 3.7 0 0 1 1.648-.368M205.95 11.636 201 6.686l1.414-1.414 6.364 6.364L202.414 18 201 16.586zM12.575 46.928V58H11.12v-8.256L7.44 58H6.415L2.72 49.728V58H1.263V46.928h1.568l4.096 9.152 4.096-9.152zm10.47 6.352q0 .415-.049.88H15.99q.08 1.296.88 2.032.816.72 1.968.72.943 0 1.567-.432.64-.448.896-1.184h1.569a3.8 3.8 0 0 1-1.408 2.064q-1.057.784-2.624.784-1.249 0-2.24-.56A4 4 0 0 1 15.06 56q-.56-1.04-.56-2.4t.544-2.384a3.8 3.8 0 0 1 1.52-1.568q.993-.56 2.273-.56 1.248 0 2.207.544a3.7 3.7 0 0 1 1.473 1.504q.528.944.527 2.144m-1.505-.304q0-.833-.367-1.424a2.3 2.3 0 0 0-1.008-.912 3 3 0 0 0-1.392-.32q-1.104 0-1.889.704-.768.704-.88 1.952zm7.698-3.904q1.6 0 2.592.976.993.96.992 2.784V58h-1.44v-4.96q0-1.312-.656-2-.655-.705-1.792-.704-1.152 0-1.84.72-.672.72-.672 2.096V58h-1.456v-8.768h1.456v1.248a2.9 2.9 0 0 1 1.168-1.04 3.7 3.7 0 0 1 1.648-.368m6.187-2.224h1.616l-1.536 3.632H34.48zm6.38 11.296q-1.008 0-1.808-.336-.8-.352-1.264-.96-.465-.624-.512-1.424h1.504q.063.656.608 1.072.56.416 1.456.416.831 0 1.312-.368.48-.368.48-.928 0-.576-.512-.848-.513-.288-1.584-.56-.976-.255-1.6-.512a3 3 0 0 1-1.056-.784q-.432-.528-.432-1.376 0-.672.4-1.232t1.136-.88q.735-.336 1.68-.336 1.455 0 2.352.736.895.736.96 2.016h-1.456a1.5 1.5 0 0 0-.56-1.104q-.496-.416-1.344-.416-.785 0-1.248.336-.465.336-.464.88 0 .432.272.72.288.271.704.448.431.16 1.184.368.944.255 1.536.512.591.24 1.008.736.432.496.448 1.296 0 .72-.4 1.296t-1.136.912q-.72.32-1.664.32M57.63 46.848v1.184h-4.848v3.76h3.936v1.184h-3.936V58h-1.456V46.848zm1.214 6.736q0-1.344.544-2.352a3.95 3.95 0 0 1 1.488-1.584q.96-.56 2.128-.56 1.152 0 2 .496t1.264 1.248v-1.6h1.472V58h-1.472v-1.632q-.432.768-1.296 1.28-.847.495-1.984.496a3.97 3.97 0 0 1-2.112-.576 4.04 4.04 0 0 1-1.488-1.616q-.543-1.04-.544-2.368m7.424.016q0-.991-.4-1.728a2.75 2.75 0 0 0-1.088-1.12 2.85 2.85 0 0 0-1.488-.4q-.816 0-1.488.384-.672.385-1.072 1.12t-.4 1.728q0 1.008.4 1.76a2.9 2.9 0 0 0 1.072 1.136q.672.384 1.488.384t1.488-.384a2.86 2.86 0 0 0 1.088-1.136q.4-.752.4-1.744m7.037 4.544q-1.008 0-1.808-.336-.8-.352-1.264-.96-.465-.624-.512-1.424h1.504q.063.656.608 1.072.56.416 1.456.416.832 0 1.312-.368t.48-.928q0-.576-.512-.848-.513-.288-1.584-.56-.976-.255-1.6-.512a3 3 0 0 1-1.056-.784q-.432-.528-.432-1.376 0-.672.4-1.232t1.136-.88q.735-.336 1.68-.336 1.455 0 2.352.736.895.736.96 2.016h-1.456a1.5 1.5 0 0 0-.56-1.104q-.496-.416-1.344-.416-.784 0-1.248.336-.465.336-.464.88 0 .432.272.72.287.271.704.448.431.16 1.184.368.944.255 1.536.512.591.24 1.008.736.432.496.448 1.296 0 .72-.4 1.296t-1.136.912q-.72.32-1.664.32m9.607-9.072a3.7 3.7 0 0 1 1.792.432q.801.416 1.248 1.264.464.847.464 2.064V58h-1.44v-4.96q0-1.312-.656-2-.655-.705-1.792-.704-1.152 0-1.84.72-.672.72-.672 2.096V58H78.56V46.16h1.456v4.32a2.9 2.9 0 0 1 1.184-1.04 3.9 3.9 0 0 1 1.712-.368m6.634-1.264a.96.96 0 0 1-.704-.288.96.96 0 0 1-.287-.704q0-.416.287-.704a.96.96 0 0 1 .704-.288q.4 0 .672.288a.96.96 0 0 1 .288.704.96.96 0 0 1-.287.704.89.89 0 0 1-.672.288m.704 1.424V58h-1.456v-8.768zm6.306 8.912a4.53 4.53 0 0 1-2.24-.56A4.07 4.07 0 0 1 92.748 56q-.56-1.04-.56-2.4 0-1.344.576-2.368a4 4 0 0 1 1.6-1.584q1.008-.56 2.256-.56t2.256.56q1.008.544 1.584 1.568.592 1.024.592 2.384t-.608 2.4a4.1 4.1 0 0 1-1.616 1.584q-1.024.56-2.272.56m0-1.28q.784 0 1.472-.368a2.75 2.75 0 0 0 1.104-1.104q.432-.735.432-1.792t-.416-1.792-1.088-1.088a3 3 0 0 0-1.456-.368q-.8 0-1.472.368-.656.352-1.056 1.088t-.4 1.792q0 1.072.384 1.808.4.736 1.056 1.104.656.352 1.44.352m10.682-7.792q1.6 0 2.592.976.993.96.992 2.784V58h-1.44v-4.96q0-1.312-.656-2-.655-.705-1.792-.704-1.152 0-1.84.72-.672.72-.672 2.096V58h-1.456v-8.768h1.456v1.248a2.9 2.9 0 0 1 1.168-1.04 3.7 3.7 0 0 1 1.648-.368M205.95 51.636l-4.95-4.95 1.414-1.414 6.364 6.364L202.414 58 201 56.586zM3.157 88.032v3.728H7.22v1.2H3.157v3.84H7.7V98h-6V86.832h6v1.2zm8.203-1.872V98H9.904V86.16zm10.481 7.12q0 .415-.048.88h-7.008q.08 1.296.88 2.032.816.72 1.968.72.944 0 1.568-.432.64-.448.896-1.184h1.568a3.8 3.8 0 0 1-1.408 2.064q-1.055.784-2.624.784-1.248 0-2.24-.56A4 4 0 0 1 13.857 96q-.56-1.04-.56-2.4t.544-2.384a3.8 3.8 0 0 1 1.52-1.568q.993-.56 2.272-.56 1.248 0 2.208.544a3.7 3.7 0 0 1 1.472 1.504q.528.944.528 2.144m-1.504-.304q0-.833-.368-1.424a2.3 2.3 0 0 0-1.008-.912 3 3 0 0 0-1.392-.32q-1.104 0-1.888.704-.768.704-.88 1.952zm2.882.624q0-1.36.544-2.368a3.9 3.9 0 0 1 1.504-1.584q.975-.56 2.224-.56 1.617 0 2.656.784 1.056.784 1.392 2.176h-1.568a2.24 2.24 0 0 0-.88-1.264q-.64-.464-1.6-.464-1.248 0-2.016.864-.768.847-.768 2.416 0 1.584.768 2.448t2.016.864q.96 0 1.6-.448t.88-1.28h1.568q-.352 1.344-1.408 2.16-1.056.8-2.64.8-1.248 0-2.224-.56A3.9 3.9 0 0 1 23.763 96q-.544-1.025-.544-2.4m12.039-3.168V95.6q0 .64.272.912.272.255.944.256h1.072V98h-1.312q-1.216 0-1.824-.56t-.608-1.84v-5.168h-1.136v-1.2h1.136v-2.208h1.456v2.208h2.288v1.2zm5.508.224q.384-.751 1.088-1.168.72-.416 1.744-.416v1.504h-.384q-2.448 0-2.448 2.656V98H39.31v-8.768h1.456zm8.337 7.488a4.53 4.53 0 0 1-2.24-.56A4.07 4.07 0 0 1 45.295 96q-.56-1.04-.56-2.4 0-1.344.576-2.368a4 4 0 0 1 1.6-1.584q1.008-.56 2.256-.56t2.256.56q1.008.544 1.584 1.568.592 1.024.592 2.384T52.99 96a4.1 4.1 0 0 1-1.616 1.584q-1.024.56-2.272.56m0-1.28q.784 0 1.472-.368a2.75 2.75 0 0 0 1.104-1.104q.432-.735.432-1.792t-.416-1.792-1.088-1.088a3 3 0 0 0-1.456-.368q-.8 0-1.472.368-.656.352-1.056 1.088-.4.735-.4 1.792 0 1.072.384 1.808.4.736 1.056 1.104.655.352 1.44.352m10.682-7.792q1.6 0 2.592.976.992.96.992 2.784V98h-1.44v-4.96q0-1.312-.656-2-.655-.704-1.792-.704-1.152 0-1.84.72-.672.72-.672 2.096V98h-1.456v-8.768h1.456v1.248a2.9 2.9 0 0 1 1.168-1.04 3.7 3.7 0 0 1 1.648-.368m6.715-1.264a.96.96 0 0 1-.704-.288.96.96 0 0 1-.288-.704q0-.416.288-.704a.96.96 0 0 1 .704-.288q.399 0 .672.288a.96.96 0 0 1 .288.704.96.96 0 0 1-.288.704.89.89 0 0 1-.672.288m.704 1.424V98h-1.456v-8.768zM69.14 93.6q0-1.36.544-2.368a3.9 3.9 0 0 1 1.504-1.584q.976-.56 2.224-.56 1.617 0 2.656.784 1.056.784 1.392 2.176h-1.568a2.24 2.24 0 0 0-.88-1.264q-.64-.464-1.6-.464-1.248 0-2.016.864-.768.847-.768 2.416 0 1.584.768 2.448t2.016.864q.96 0 1.6-.448t.88-1.28h1.568q-.351 1.344-1.408 2.16-1.056.8-2.64.8-1.248 0-2.224-.56A3.9 3.9 0 0 1 69.685 96q-.543-1.025-.544-2.4m13.367 4.544q-1.008 0-1.808-.336-.8-.352-1.264-.96-.465-.623-.512-1.424h1.504q.064.656.608 1.072.56.416 1.456.416.832 0 1.312-.368t.48-.928q0-.576-.512-.848-.513-.288-1.584-.56-.975-.255-1.6-.512a3 3 0 0 1-1.056-.784q-.432-.528-.432-1.376 0-.672.4-1.232t1.136-.88q.735-.336 1.68-.336 1.455 0 2.352.736.895.736.96 2.016h-1.456a1.5 1.5 0 0 0-.56-1.104q-.496-.416-1.344-.416-.784 0-1.248.336-.465.336-.464.88 0 .432.272.72.287.271.704.448.432.16 1.184.368.944.255 1.536.512.592.24 1.008.736.432.496.448 1.296 0 .72-.4 1.296t-1.136.912q-.72.32-1.664.32M10.238 126.848V138H8.782v-5.056h-5.68V138H1.646v-11.152h1.456v4.896h5.68v-4.896zm6.31 11.296a4.54 4.54 0 0 1-2.24-.56A4.07 4.07 0 0 1 12.74 136q-.56-1.04-.56-2.4 0-1.344.576-2.368a4 4 0 0 1 1.6-1.584q1.008-.56 2.256-.56t2.256.56q1.008.544 1.584 1.568.592 1.024.592 2.384t-.608 2.4a4.1 4.1 0 0 1-1.616 1.584 4.66 4.66 0 0 1-2.272.56m0-1.28q.785 0 1.472-.368a2.74 2.74 0 0 0 1.104-1.104q.432-.736.432-1.792t-.416-1.792-1.088-1.088a3 3 0 0 0-1.456-.368q-.8 0-1.472.368-.656.352-1.056 1.088t-.4 1.792q0 1.072.384 1.808.4.737 1.056 1.104.657.352 1.44.352m16.955-7.792q1.023 0 1.824.432.8.416 1.264 1.264.464.847.464 2.064V138h-1.44v-4.96q-.001-1.312-.656-2-.64-.704-1.744-.704-1.137 0-1.808.736-.672.72-.672 2.096V138h-1.44v-4.96q-.001-1.312-.656-2-.64-.704-1.744-.704-1.136 0-1.808.736-.672.72-.672 2.096V138h-1.456v-8.768h1.456v1.264a2.9 2.9 0 0 1 1.152-1.056 3.6 3.6 0 0 1 1.616-.368q1.104 0 1.952.496t1.264 1.456a2.87 2.87 0 0 1 1.216-1.44 3.6 3.6 0 0 1 1.888-.512m13.94 4.208q0 .416-.048.88h-7.008q.08 1.296.88 2.032.816.72 1.968.72.945 0 1.568-.432.64-.448.896-1.184h1.568a3.8 3.8 0 0 1-1.408 2.064q-1.056.784-2.624.784-1.248 0-2.24-.56A4 4 0 0 1 39.459 136q-.56-1.04-.56-2.4t.544-2.384a3.8 3.8 0 0 1 1.52-1.568q.992-.56 2.272-.56 1.248 0 2.208.544t1.472 1.504q.528.944.528 2.144m-1.504-.304q0-.832-.368-1.424a2.3 2.3 0 0 0-1.008-.912 3 3 0 0 0-1.392-.32q-1.104 0-1.888.704-.768.704-.88 1.952zM62.19 138l-1.456-1.472q-.816.848-1.744 1.264-.927.4-2.096.4-1.151 0-2.048-.416a3.25 3.25 0 0 1-1.376-1.184q-.48-.768-.48-1.792.001-1.168.656-2.048.672-.896 1.968-1.408-.51-.608-.736-1.12a2.8 2.8 0 0 1-.224-1.12q0-.704.352-1.264a2.45 2.45 0 0 1 1.04-.896q.672-.32 1.552-.32.865 0 1.504.336.64.336.96.944.321.592.288 1.328h-1.456q.016-.656-.368-1.024-.383-.384-.992-.384-.64 0-1.04.368-.384.352-.384.912 0 .48.256.928.272.448.896 1.104l3.328 3.344.288-.448 1.088-1.824h1.568l-1.312 2.272q-.27.48-.64 1.008L64.094 138zm-5.296-1.056a3.5 3.5 0 0 0 1.552-.336q.704-.336 1.328-1.04l-3.28-3.296q-2.048.784-2.048 2.48 0 .944.672 1.568.69.624 1.776.624m14.286-.128h3.904V138h-5.36v-11.152h1.456zm6.202-9.008a.96.96 0 0 1-.704-.288.96.96 0 0 1-.288-.704q0-.416.288-.704a.96.96 0 0 1 .704-.288q.4 0 .672.288a.96.96 0 0 1 .288.704.96.96 0 0 1-.288.704.89.89 0 0 1-.672.288m.704 1.424V138H76.63v-8.768zm6.05 1.2h-1.84V138H80.84v-7.568h-1.136v-1.2h1.136v-.624q0-1.472.752-2.144.768-.688 2.448-.688v1.216q-.96 0-1.36.384-.384.368-.384 1.232v.624h1.84zm9.698 2.848q0 .416-.048.88h-7.008q.08 1.296.88 2.032.816.72 1.968.72.944 0 1.568-.432.64-.448.896-1.184h1.568a3.8 3.8 0 0 1-1.408 2.064q-1.057.784-2.624.784-1.249 0-2.24-.56A4 4 0 0 1 85.85 136q-.56-1.04-.56-2.4-.001-1.36.544-2.384a3.8 3.8 0 0 1 1.52-1.568q.99-.56 2.272-.56 1.248 0 2.208.544t1.472 1.504q.528.944.528 2.144m-1.504-.304q0-.832-.368-1.424a2.3 2.3 0 0 0-1.008-.912 3 3 0 0 0-1.392-.32q-1.105 0-1.888.704-.769.704-.88 1.952zm6.53 5.168q-1.009 0-1.809-.336-.8-.353-1.264-.96a2.6 2.6 0 0 1-.512-1.424h1.504q.065.656.608 1.072.562.416 1.456.416.832 0 1.312-.368t.48-.928a.9.9 0 0 0-.512-.848q-.51-.288-1.584-.56a13 13 0 0 1-1.6-.512 3 3 0 0 1-1.056-.784q-.432-.528-.432-1.376 0-.672.4-1.232t1.136-.88q.737-.336 1.68-.336 1.457 0 2.352.736.897.737.96 2.016h-1.456q-.047-.689-.56-1.104-.495-.416-1.344-.416-.783 0-1.248.336t-.464.88q0 .432.272.72.288.272.704.448.432.16 1.184.368.945.256 1.536.512.592.24 1.008.736.433.497.448 1.296 0 .72-.4 1.296t-1.136.912q-.72.32-1.664.32m7.031-7.712v5.168q0 .64.272.912.272.256.944.256h1.072V138h-1.312q-1.216 0-1.824-.56t-.608-1.84v-5.168h-1.136v-1.2h1.136v-2.208h1.456v2.208h2.288v1.2zm11.604-1.2-5.28 12.896h-1.504l1.728-4.224-3.536-8.672h1.616l2.752 7.104 2.72-7.104zm2.92-3.072V138h-1.456v-11.84zm10.481 7.12q0 .416-.048.88h-7.008q.08 1.296.88 2.032.816.72 1.968.72.944 0 1.568-.432.64-.448.896-1.184h1.568a3.8 3.8 0 0 1-1.408 2.064q-1.056.784-2.624.784-1.248 0-2.24-.56a4 4 0 0 1-1.536-1.584q-.56-1.04-.56-2.4t.544-2.384a3.8 3.8 0 0 1 1.52-1.568q.992-.56 2.272-.56 1.248 0 2.208.544a3.7 3.7 0 0 1 1.472 1.504q.528.944.528 2.144m-1.504-.304q0-.832-.368-1.424a2.3 2.3 0 0 0-1.008-.912 3 3 0 0 0-1.392-.32q-1.104 0-1.888.704-.768.704-.88 1.952zM12.911 166.928V178h-1.456v-8.256L7.775 178H6.751l-3.696-8.272V178H1.6v-11.072h1.568l4.096 9.152 4.096-9.152zm10.47 6.352q0 .416-.049.88h-7.008q.08 1.296.88 2.032.816.72 1.968.72.945 0 1.568-.432.64-.448.896-1.184h1.568a3.8 3.8 0 0 1-1.408 2.064q-1.056.784-2.624.784-1.247 0-2.24-.56A4 4 0 0 1 15.396 176q-.56-1.04-.56-2.4t.544-2.384a3.8 3.8 0 0 1 1.52-1.568q.993-.56 2.272-.56 1.248 0 2.208.544t1.472 1.504q.528.944.528 2.144m-1.505-.304q0-.832-.368-1.424a2.3 2.3 0 0 0-1.008-.912 3 3 0 0 0-1.392-.32q-1.104 0-1.888.704-.768.704-.88 1.952zm2.882.608q0-1.344.544-2.352a3.95 3.95 0 0 1 1.488-1.584 4.2 4.2 0 0 1 2.144-.56q1.025 0 1.904.48.88.464 1.344 1.232v-4.64h1.472V178h-1.472v-1.648q-.431.785-1.28 1.296-.847.496-1.984.496a4.06 4.06 0 0 1-2.128-.576 4.04 4.04 0 0 1-1.488-1.616q-.543-1.04-.544-2.368m7.424.016q0-.992-.4-1.728a2.75 2.75 0 0 0-1.088-1.12 2.85 2.85 0 0 0-1.488-.4q-.816 0-1.488.384a2.8 2.8 0 0 0-1.072 1.12q-.4.737-.4 1.728 0 1.008.4 1.76a2.9 2.9 0 0 0 1.072 1.136q.672.384 1.488.384t1.488-.384a2.86 2.86 0 0 0 1.088-1.136q.4-.752.4-1.744m4.685-5.792a.96.96 0 0 1-.704-.288.96.96 0 0 1-.288-.704q0-.416.288-.704a.96.96 0 0 1 .704-.288q.4 0 .672.288a.96.96 0 0 1 .288.704.96.96 0 0 1-.288.704.89.89 0 0 1-.672.288m.704 1.424V178h-1.456v-8.768zm1.937 4.368q0-1.36.544-2.368a3.9 3.9 0 0 1 1.504-1.584q.976-.56 2.224-.56 1.617 0 2.656.784 1.056.784 1.392 2.176H46.26a2.24 2.24 0 0 0-.88-1.264q-.64-.464-1.6-.464-1.248 0-2.016.864-.768.848-.768 2.416 0 1.584.768 2.448t2.016.864q.96 0 1.6-.448t.88-1.28h1.568q-.352 1.344-1.408 2.16-1.056.8-2.64.8-1.248 0-2.224-.56A3.9 3.9 0 0 1 40.052 176q-.544-1.025-.544-2.4m11.015-5.792a.96.96 0 0 1-.704-.288.96.96 0 0 1-.288-.704q0-.416.288-.704a.96.96 0 0 1 .704-.288q.4 0 .672.288a.96.96 0 0 1 .288.704.96.96 0 0 1-.288.704.89.89 0 0 1-.672.288m.704 1.424V178h-1.456v-8.768zm6.754-.16q1.599 0 2.592.976.991.96.992 2.784V178h-1.44v-4.96q-.001-1.312-.656-2-.657-.704-1.792-.704-1.153 0-1.84.72-.672.72-.672 2.096V178h-1.456v-8.768h1.456v1.248a2.9 2.9 0 0 1 1.168-1.04 3.7 3.7 0 0 1 1.648-.368m13.962 4.208q0 .416-.048.88h-7.008q.08 1.296.88 2.032.816.72 1.968.72.945 0 1.568-.432.64-.448.896-1.184h1.568a3.8 3.8 0 0 1-1.408 2.064q-1.056.784-2.624.784-1.248 0-2.24-.56A4 4 0 0 1 63.959 176q-.56-1.04-.56-2.4t.544-2.384a3.8 3.8 0 0 1 1.52-1.568q.992-.56 2.272-.56 1.248 0 2.208.544t1.472 1.504q.528.944.528 2.144m-1.504-.304q0-.832-.368-1.424a2.3 2.3 0 0 0-1.008-.912 3 3 0 0 0-1.392-.32q-1.104 0-1.888.704-.768.704-.88 1.952zM4.846 218.112q-1.104 0-1.984-.384-.864-.4-1.36-1.088a2.82 2.82 0 0 1-.512-1.616h1.552q.08.784.64 1.328.576.528 1.664.528 1.04 0 1.632-.512.608-.528.608-1.344 0-.64-.352-1.04a2.25 2.25 0 0 0-.88-.608 14 14 0 0 0-1.424-.448q-1.104-.288-1.776-.576a2.95 2.95 0 0 1-1.136-.896q-.464-.624-.464-1.664 0-.912.464-1.616t1.296-1.088q.847-.384 1.936-.384 1.568 0 2.56.784 1.008.784 1.136 2.08h-1.6q-.08-.64-.672-1.12-.592-.496-1.568-.496-.912 0-1.488.48-.576.464-.576 1.312 0 .608.336.992.352.384.848.592.512.192 1.424.448 1.104.304 1.776.608.672.288 1.152.912.48.608.48 1.664 0 .816-.432 1.536t-1.28 1.168-2 .448m7.31-7.264q.433-.752 1.28-1.248.865-.512 2-.512 1.169 0 2.113.56.96.56 1.504 1.584.543 1.008.544 2.352 0 1.328-.544 2.368a4 4 0 0 1-1.504 1.616 3.97 3.97 0 0 1-2.112.576q-1.12 0-1.984-.496-.849-.512-1.296-1.264v5.776H10.7v-12.928h1.456zm5.953 2.736q0-.991-.4-1.728a2.75 2.75 0 0 0-1.088-1.12 2.95 2.95 0 0 0-1.488-.384q-.801 0-1.488.4-.671.384-1.088 1.136-.4.736-.4 1.712 0 .992.4 1.744.416.736 1.088 1.136.687.384 1.488.384.816 0 1.488-.384a2.86 2.86 0 0 0 1.088-1.136q.4-.752.4-1.76m7.228 4.56a4.54 4.54 0 0 1-2.24-.56A4.07 4.07 0 0 1 21.53 216q-.56-1.04-.56-2.4 0-1.344.576-2.368a4 4 0 0 1 1.6-1.584q1.008-.56 2.256-.56t2.256.56q1.008.544 1.584 1.568.592 1.024.592 2.384t-.608 2.4a4.1 4.1 0 0 1-1.616 1.584 4.66 4.66 0 0 1-2.272.56m0-1.28q.785 0 1.472-.368a2.75 2.75 0 0 0 1.104-1.104q.432-.736.432-1.792t-.416-1.792-1.088-1.088a3 3 0 0 0-1.456-.368q-.8 0-1.472.368-.656.352-1.056 1.088t-.4 1.792q0 1.072.384 1.808.4.737 1.056 1.104.657.352 1.44.352m7.867-6.208a2.8 2.8 0 0 1 1.088-1.168q.72-.416 1.744-.416v1.504h-.384q-2.448 0-2.448 2.656V218h-1.456v-8.768h1.456zm6.288-.224v5.168q0 .64.272.912.273.256.944.256h1.072V218h-1.312q-1.215 0-1.824-.56-.608-.56-.608-1.84v-5.168H36.9v-1.2h1.136v-2.208h1.456v2.208h2.288v1.2zm7.157 7.712q-1.008 0-1.809-.336-.8-.352-1.264-.96a2.6 2.6 0 0 1-.511-1.424h1.504q.063.656.607 1.072.562.416 1.456.416.832 0 1.313-.368.48-.368.48-.928a.9.9 0 0 0-.512-.848q-.513-.288-1.584-.56a13 13 0 0 1-1.6-.512 3 3 0 0 1-1.056-.784q-.432-.528-.433-1.376 0-.672.4-1.232t1.136-.88q.737-.336 1.68-.336 1.456 0 2.352.736.897.736.96 2.016h-1.456a1.5 1.5 0 0 0-.56-1.104q-.495-.416-1.344-.416-.783 0-1.248.336-.463.336-.463.88 0 .432.271.72.288.272.704.448.433.16 1.185.368.943.256 1.535.512.593.24 1.008.736.432.497.449 1.296 0 .72-.4 1.296t-1.136.912q-.72.32-1.665.32m18.08-.144-1.456-1.472q-.816.848-1.744 1.264-.927.4-2.096.4-1.151 0-2.047-.416a3.25 3.25 0 0 1-1.376-1.184q-.48-.768-.48-1.792 0-1.168.655-2.048.672-.896 1.968-1.408-.51-.608-.736-1.12a2.8 2.8 0 0 1-.224-1.12q0-.704.352-1.264a2.45 2.45 0 0 1 1.04-.896q.672-.32 1.553-.32.864 0 1.504.336.639.336.96.944.32.592.288 1.328h-1.456q.015-.656-.368-1.024-.385-.384-.992-.384-.64 0-1.04.368-.384.352-.384.912 0 .48.256.928.271.448.895 1.104l3.328 3.344.288-.448 1.088-1.824h1.569l-1.312 2.272q-.273.48-.64 1.008L66.633 218zm-5.295-1.056a3.5 3.5 0 0 0 1.552-.336q.704-.336 1.328-1.04l-3.28-3.296q-2.049.784-2.048 2.48 0 .944.672 1.568.687.624 1.776.624m17.885 1.168q-1.551 0-2.832-.72a5.47 5.47 0 0 1-2.032-2.032q-.736-1.312-.736-2.944t.736-2.928a5.3 5.3 0 0 1 2.032-2.032q1.281-.736 2.832-.736 1.569 0 2.848.736a5.23 5.23 0 0 1 2.016 2.016q.736 1.296.736 2.944t-.736 2.944a5.35 5.35 0 0 1-2.016 2.032q-1.28.72-2.848.72m0-1.264q1.169 0 2.096-.544.945-.544 1.472-1.552.544-1.008.544-2.336 0-1.344-.544-2.336a3.8 3.8 0 0 0-1.456-1.552q-.927-.544-2.112-.544-1.184 0-2.112.544t-1.472 1.552q-.528.992-.528 2.336 0 1.328.528 2.336a3.9 3.9 0 0 0 1.472 1.552q.945.544 2.112.544m15.298-7.616V218h-1.456v-1.296q-.415.672-1.168 1.056a3.6 3.6 0 0 1-1.632.368q-1.024 0-1.84-.416a3.2 3.2 0 0 1-1.296-1.28q-.464-.847-.464-2.064v-5.136h1.44v4.944q0 1.296.656 2 .657.688 1.792.688 1.168 0 1.84-.72t.672-2.096v-4.816zm4.235 1.2v5.168q0 .64.272.912.272.256.944.256h1.072V218h-1.312q-1.216 0-1.824-.56t-.608-1.84v-5.168H94.26v-1.2h1.136v-2.208h1.456v2.208h2.288v1.2zm3.508 3.152q0-1.344.544-2.352a3.95 3.95 0 0 1 1.488-1.584 4.2 4.2 0 0 1 2.144-.56q1.024 0 1.904.48.88.464 1.344 1.232v-4.64h1.472V218h-1.472v-1.648q-.432.785-1.28 1.296-.848.496-1.984.496a4.06 4.06 0 0 1-2.128-.576 4.05 4.05 0 0 1-1.488-1.616q-.544-1.04-.544-2.368m7.424.016q0-.992-.4-1.728a2.75 2.75 0 0 0-1.088-1.12 2.85 2.85 0 0 0-1.488-.4q-.816 0-1.488.384a2.8 2.8 0 0 0-1.072 1.12q-.4.737-.4 1.728 0 1.008.4 1.76.4.736 1.072 1.136.672.384 1.488.384t1.488-.384a2.86 2.86 0 0 0 1.088-1.136q.4-.752.4-1.744m7.756 4.544a4.54 4.54 0 0 1-2.24-.56 4.07 4.07 0 0 1-1.568-1.584q-.56-1.04-.56-2.4 0-1.344.576-2.368a4 4 0 0 1 1.6-1.584q1.008-.56 2.256-.56t2.256.56q1.008.544 1.584 1.568.592 1.024.592 2.384t-.608 2.4a4.1 4.1 0 0 1-1.616 1.584q-1.023.56-2.272.56m0-1.28q.785 0 1.472-.368a2.74 2.74 0 0 0 1.104-1.104q.432-.736.432-1.792t-.416-1.792-1.088-1.088a3 3 0 0 0-1.456-.368q-.8 0-1.472.368-.655.352-1.056 1.088-.4.736-.4 1.792 0 1.072.384 1.808.4.737 1.056 1.104.657.352 1.44.352m10.235 1.28a4.54 4.54 0 0 1-2.24-.56 4.06 4.06 0 0 1-1.568-1.584q-.56-1.04-.56-2.4 0-1.344.576-2.368a4 4 0 0 1 1.6-1.584q1.008-.56 2.256-.56t2.256.56q1.008.544 1.584 1.568.592 1.024.592 2.384t-.608 2.4a4.1 4.1 0 0 1-1.616 1.584q-1.024.56-2.272.56m0-1.28q.783 0 1.472-.368a2.75 2.75 0 0 0 1.104-1.104q.432-.736.432-1.792t-.416-1.792-1.088-1.088a3 3 0 0 0-1.456-.368q-.8 0-1.472.368-.657.352-1.056 1.088-.4.736-.4 1.792 0 1.072.384 1.808.399.737 1.056 1.104.656.352 1.44.352m7.866-6.208a2.8 2.8 0 0 1 1.088-1.168q.72-.416 1.744-.416v1.504h-.384q-2.448 0-2.448 2.656V218h-1.456v-8.768h1.456zM6.847 252.256q.609.096 1.104.496.513.4.8.992.304.592.304 1.264a2.83 2.83 0 0 1-.432 1.536q-.432.672-1.264 1.072-.816.384-1.936.384h-4.16v-11.152h4q1.137 0 1.936.384.801.368 1.2 1.008.4.64.4 1.44 0 .992-.544 1.648-.528.64-1.408.928m-4.128-.592h2.448q1.024 0 1.584-.48t.56-1.328-.56-1.328-1.616-.48H2.72zm2.576 5.136q1.088 0 1.696-.512.609-.512.608-1.424 0-.928-.64-1.456-.64-.544-1.712-.544H2.72v3.936zm5.237-3.216q0-1.344.544-2.352a3.95 3.95 0 0 1 1.488-1.584 4.15 4.15 0 0 1 2.128-.56q1.152 0 2 .496.847.497 1.264 1.248v-1.6h1.472V258h-1.472v-1.632q-.432.768-1.296 1.28-.849.496-1.984.496a3.97 3.97 0 0 1-2.112-.576 4.04 4.04 0 0 1-1.488-1.616q-.544-1.04-.544-2.368m7.424.016q0-.992-.4-1.728a2.75 2.75 0 0 0-1.088-1.12 2.85 2.85 0 0 0-1.488-.4q-.816 0-1.488.384a2.8 2.8 0 0 0-1.072 1.12q-.4.737-.4 1.728 0 1.008.4 1.76a2.9 2.9 0 0 0 1.072 1.136q.672.384 1.488.384t1.488-.384a2.86 2.86 0 0 0 1.088-1.136q.4-.752.4-1.744m5.388-2.736q.448-.784 1.312-1.28t1.968-.496q1.185 0 2.128.56.945.56 1.488 1.584.544 1.008.544 2.352 0 1.328-.544 2.368a4 4 0 0 1-1.504 1.616 3.97 3.97 0 0 1-2.112.576q-1.136 0-2-.496-.848-.496-1.28-1.264V258h-1.456v-11.84h1.456zm5.952 2.72q0-.991-.4-1.728a2.75 2.75 0 0 0-1.088-1.12 2.95 2.95 0 0 0-1.488-.384q-.8 0-1.488.4-.671.384-1.088 1.136-.4.736-.4 1.712 0 .992.4 1.744.416.736 1.088 1.136.688.384 1.488.384.816 0 1.488-.384a2.86 2.86 0 0 0 1.088-1.136q.4-.752.4-1.76m10.957-4.352-5.28 12.896h-1.504l1.728-4.224-3.536-8.672h1.616l2.752 7.104 2.72-7.104zm1.687-2.384h1.616l-1.536 3.632h-1.024zm6.38 11.296q-1.008 0-1.808-.336-.8-.352-1.264-.96a2.6 2.6 0 0 1-.512-1.424h1.504q.065.656.608 1.072.56.416 1.456.416.832 0 1.312-.368t.48-.928a.9.9 0 0 0-.512-.848q-.511-.288-1.584-.56a13 13 0 0 1-1.6-.512 3 3 0 0 1-1.056-.784q-.432-.528-.432-1.376 0-.672.4-1.232t1.136-.88q.736-.336 1.68-.336 1.456 0 2.352.736.897.736.96 2.016h-1.456a1.5 1.5 0 0 0-.56-1.104q-.495-.416-1.344-.416-.783 0-1.248.336t-.464.88q0 .432.272.72.288.272.704.448.432.16 1.184.368.945.256 1.536.512.592.24 1.008.736.433.497.448 1.296 0 .72-.4 1.296t-1.136.912q-.72.32-1.664.32M66.401 258l-1.456-1.472q-.816.848-1.744 1.264-.927.4-2.096.4-1.151 0-2.048-.416a3.25 3.25 0 0 1-1.376-1.184q-.48-.768-.48-1.792 0-1.168.656-2.048.672-.896 1.968-1.408-.511-.608-.736-1.12a2.8 2.8 0 0 1-.224-1.12q0-.704.352-1.264a2.45 2.45 0 0 1 1.04-.896q.673-.32 1.552-.32.864 0 1.504.336t.96.944q.321.592.288 1.328h-1.456q.016-.656-.368-1.024-.384-.384-.992-.384-.64 0-1.04.368-.384.352-.384.912 0 .48.256.928.272.448.896 1.104l3.328 3.344.288-.448 1.088-1.824h1.568l-1.312 2.272q-.271.48-.64 1.008L68.305 258zm-5.296-1.056a3.5 3.5 0 0 0 1.552-.336q.705-.336 1.328-1.04l-3.28-3.296q-2.048.784-2.048 2.48 0 .944.672 1.568.689.624 1.776.624M80.8 246.848v1.184h-3.04V258h-1.456v-9.968h-3.056v-1.184zm5.616 11.296a4.54 4.54 0 0 1-2.24-.56A4.07 4.07 0 0 1 82.607 256q-.56-1.04-.56-2.4 0-1.344.576-2.368a4 4 0 0 1 1.6-1.584q1.008-.56 2.256-.56t2.256.56q1.008.544 1.584 1.568.592 1.024.592 2.384t-.608 2.4a4.1 4.1 0 0 1-1.616 1.584 4.66 4.66 0 0 1-2.272.56m0-1.28q.785 0 1.472-.368a2.75 2.75 0 0 0 1.104-1.104q.432-.736.432-1.792t-.416-1.792-1.088-1.088a3 3 0 0 0-1.456-.368q-.8 0-1.472.368-.656.352-1.056 1.088t-.4 1.792q0 1.072.384 1.808.4.737 1.056 1.104.657.352 1.44.352m13.963-7.632-5.28 12.896h-1.504l1.728-4.224-3.536-8.672h1.616l2.752 7.104 2.72-7.104zm4.567 8.912q-1.008 0-1.808-.336-.8-.352-1.264-.96a2.6 2.6 0 0 1-.512-1.424h1.504q.065.656.608 1.072.56.416 1.456.416.832 0 1.312-.368t.48-.928a.9.9 0 0 0-.512-.848q-.511-.288-1.584-.56a13 13 0 0 1-1.6-.512 3.04 3.04 0 0 1-1.056-.784q-.432-.528-.432-1.376 0-.672.4-1.232t1.136-.88q.737-.336 1.68-.336 1.457 0 2.352.736.897.736.96 2.016h-1.456q-.047-.689-.56-1.104-.495-.416-1.344-.416-.783 0-1.248.336t-.464.88q0 .432.272.72.288.272.704.448.432.16 1.184.368.945.256 1.536.512.593.24 1.008.736.433.497.448 1.296 0 .72-.4 1.296t-1.136.912q-.72.32-1.664.32M10.07 290.08a3.4 3.4 0 0 0-1.343-1.504q-.88-.544-2.048-.544t-2.112.544q-.929.528-1.472 1.536-.528.992-.528 2.304 0 1.313.528 2.304a3.93 3.93 0 0 0 1.472 1.536q.943.528 2.112.528 1.632 0 2.688-.976t1.232-2.64H6.15v-1.184h6v1.12a5.6 5.6 0 0 1-.864 2.528 5.43 5.43 0 0 1-1.936 1.808q-1.2.656-2.672.656-1.553 0-2.832-.72a5.47 5.47 0 0 1-2.032-2.032q-.736-1.296-.736-2.928t.736-2.928a5.3 5.3 0 0 1 2.032-2.032q1.28-.736 2.832-.736 1.776 0 3.136.88 1.376.88 2 2.48zm5.462.576a2.8 2.8 0 0 1 1.088-1.168q.72-.416 1.744-.416v1.504h-.384q-2.448 0-2.448 2.656V298h-1.456v-8.768h1.456zm8.337 7.488a4.54 4.54 0 0 1-2.24-.56A4.07 4.07 0 0 1 20.06 296q-.56-1.04-.56-2.4 0-1.344.576-2.368a4 4 0 0 1 1.6-1.584q1.01-.56 2.257-.56t2.256.56q1.007.544 1.584 1.568.591 1.024.591 2.384t-.608 2.4a4.1 4.1 0 0 1-1.616 1.584 4.66 4.66 0 0 1-2.271.56m0-1.28q.784 0 1.471-.368a2.74 2.74 0 0 0 1.105-1.104q.431-.736.431-1.792t-.416-1.792-1.088-1.088a3 3 0 0 0-1.456-.368q-.8 0-1.471.368-.657.352-1.056 1.088-.4.736-.4 1.792 0 1.072.383 1.808.401.736 1.056 1.104.657.352 1.44.352m5.866-3.264q0-1.36.544-2.368a3.9 3.9 0 0 1 1.504-1.584q.976-.56 2.224-.56 1.615 0 2.656.784 1.056.784 1.392 2.176h-1.568a2.24 2.24 0 0 0-.88-1.264q-.64-.464-1.6-.464-1.248 0-2.016.864-.768.848-.768 2.416 0 1.584.768 2.448t2.016.864q.96 0 1.6-.448t.88-1.28h1.568q-.352 1.344-1.408 2.16-1.056.8-2.64.8-1.248 0-2.224-.56A3.9 3.9 0 0 1 30.279 296q-.544-1.024-.544-2.4m18.263-.32q0 .416-.048.88h-7.008q.08 1.296.88 2.032.816.72 1.968.72.944 0 1.568-.432.64-.448.896-1.184h1.568a3.8 3.8 0 0 1-1.408 2.064q-1.056.784-2.624.784-1.248 0-2.24-.56A4 4 0 0 1 40.014 296q-.56-1.04-.56-2.4t.544-2.384a3.8 3.8 0 0 1 1.52-1.568q.991-.56 2.272-.56 1.248 0 2.208.544t1.472 1.504q.528.944.528 2.144m-1.504-.304q0-.832-.368-1.424a2.3 2.3 0 0 0-1.008-.912 3 3 0 0 0-1.392-.32q-1.105 0-1.888.704-.768.704-.88 1.952zm4.882-2.32a2.8 2.8 0 0 1 1.088-1.168q.719-.416 1.744-.416v1.504h-.384q-2.449 0-2.448 2.656V298H49.92v-8.768h1.456zm5.264-2.848a.96.96 0 0 1-.704-.288.96.96 0 0 1-.288-.704q0-.416.288-.704a.96.96 0 0 1 .704-.288q.4 0 .672.288a.96.96 0 0 1 .288.704.96.96 0 0 1-.288.704.89.89 0 0 1-.672.288m.704 1.424V298h-1.456v-8.768zm10.482 4.048q0 .416-.048.88H60.77q.08 1.296.88 2.032.816.72 1.968.72.945 0 1.568-.432.64-.448.896-1.184h1.568a3.8 3.8 0 0 1-1.408 2.064q-1.056.784-2.624.784-1.248 0-2.24-.56A4 4 0 0 1 59.842 296q-.56-1.04-.56-2.4t.544-2.384a3.8 3.8 0 0 1 1.52-1.568q.991-.56 2.272-.56 1.248 0 2.208.544t1.472 1.504q.528.944.528 2.144m-1.504-.304q0-.832-.368-1.424a2.3 2.3 0 0 0-1.008-.912 3 3 0 0 0-1.392-.32q-1.104 0-1.888.704-.768.704-.88 1.952zm6.53 5.168q-1.008 0-1.808-.336-.8-.352-1.264-.96a2.6 2.6 0 0 1-.512-1.424h1.504q.063.656.608 1.072.56.416 1.456.416.832 0 1.312-.368t.48-.928a.9.9 0 0 0-.512-.848q-.513-.288-1.584-.56a13 13 0 0 1-1.6-.512 3 3 0 0 1-1.056-.784q-.432-.528-.432-1.376 0-.672.4-1.232t1.136-.88q.735-.336 1.68-.336 1.455 0 2.352.736.895.736.96 2.016h-1.456a1.5 1.5 0 0 0-.56-1.104q-.496-.416-1.344-.416-.784 0-1.248.336-.465.336-.464.88 0 .432.272.72.288.272.704.448.431.16 1.184.368.944.256 1.536.512.591.24 1.008.736.432.497.448 1.296 0 .72-.4 1.296t-1.136.912q-.72.32-1.664.32m18.08-.144-1.455-1.472q-.816.848-1.744 1.264-.929.4-2.096.4-1.152 0-2.048-.416a3.25 3.25 0 0 1-1.376-1.184q-.48-.768-.48-1.792 0-1.168.656-2.048.672-.896 1.968-1.408-.513-.608-.736-1.12a2.8 2.8 0 0 1-.224-1.12q0-.704.352-1.264a2.45 2.45 0 0 1 1.04-.896q.672-.32 1.552-.32.864 0 1.504.336.639.336.96.944.32.592.288 1.328h-1.456q.016-.656-.368-1.024-.384-.384-.992-.384-.64 0-1.04.368-.384.352-.384.912 0 .48.256.928.272.449.896 1.104l3.328 3.344.288-.448 1.088-1.824h1.568l-1.312 2.272q-.273.48-.64 1.008L92.837 298zm-5.295-1.056a3.5 3.5 0 0 0 1.552-.336q.704-.336 1.328-1.04l-3.28-3.296q-2.049.784-2.048 2.48 0 .944.672 1.568.687.624 1.776.624m20.285-6.832q0 1.392-.96 2.32-.943.912-2.896.912h-2.144V298h-1.456v-11.152h3.6q1.889 0 2.864.912.993.912.992 2.352m-3.856 2.032q1.216 0 1.792-.528t.576-1.504q0-2.064-2.368-2.064h-2.144v4.096zm13.666 1.136q0 .416-.048.88h-7.008q.08 1.296.88 2.032.816.72 1.968.72.944 0 1.568-.432.64-.448.896-1.184h1.568a3.8 3.8 0 0 1-1.408 2.064q-1.056.784-2.624.784-1.248 0-2.24-.56a4 4 0 0 1-1.536-1.584q-.56-1.04-.56-2.4t.544-2.384a3.8 3.8 0 0 1 1.52-1.568q.992-.56 2.272-.56 1.248 0 2.208.544a3.7 3.7 0 0 1 1.472 1.504q.528.944.528 2.144m-1.504-.304q0-.832-.368-1.424a2.3 2.3 0 0 0-1.008-.912 3 3 0 0 0-1.392-.32q-1.104 0-1.888.704-.768.704-.88 1.952zm5.202-2.544v5.168q0 .64.272.912.272.256.944.256h1.072V298h-1.312q-1.217 0-1.824-.56-.608-.56-.608-1.84v-5.168h-1.136v-1.2h1.136v-2.208h1.456v2.208h2.288v1.2zm7.156 7.712q-1.008 0-1.808-.336-.8-.352-1.264-.96a2.6 2.6 0 0 1-.512-1.424h1.504q.064.656.608 1.072.56.416 1.456.416.832 0 1.312-.368t.48-.928q0-.576-.512-.848-.511-.288-1.584-.56a13 13 0 0 1-1.6-.512 3.04 3.04 0 0 1-1.056-.784q-.432-.528-.432-1.376 0-.672.4-1.232t1.136-.88q.737-.336 1.68-.336 1.457 0 2.352.736t.96 2.016h-1.456a1.5 1.5 0 0 0-.56-1.104q-.496-.416-1.344-.416-.784 0-1.248.336t-.464.88q0 .432.272.72.288.272.704.448.432.16 1.184.368.944.256 1.536.512.593.24 1.008.736.432.497.448 1.296 0 .72-.4 1.296t-1.136.912q-.72.32-1.664.32M9.926 326.848V338H8.47v-5.056H2.79V338H1.334v-11.152H2.79v4.896h5.68v-4.896zm10.486 6.432q0 .416-.048.88h-7.008q.08 1.296.88 2.032.816.72 1.968.72.944 0 1.568-.432.64-.448.896-1.184h1.568a3.8 3.8 0 0 1-1.408 2.064q-1.056.784-2.624.784-1.248 0-2.24-.56A4 4 0 0 1 12.428 336q-.56-1.04-.56-2.4t.544-2.384a3.8 3.8 0 0 1 1.52-1.568q.991-.56 2.272-.56 1.248 0 2.208.544t1.472 1.504q.528.944.528 2.144m-1.504-.304q0-.832-.368-1.424a2.3 2.3 0 0 0-1.008-.912 3 3 0 0 0-1.392-.32q-1.105 0-1.888.704-.769.704-.88 1.952zm2.882.608q-.001-1.344.544-2.352a3.95 3.95 0 0 1 1.488-1.584 4.15 4.15 0 0 1 2.128-.56q1.151 0 2 .496.847.497 1.264 1.248v-1.6h1.472V338h-1.472v-1.632q-.432.768-1.296 1.28-.849.496-1.984.496a3.97 3.97 0 0 1-2.112-.576 4.04 4.04 0 0 1-1.488-1.616q-.544-1.04-.544-2.368m7.424.016q0-.992-.4-1.728a2.75 2.75 0 0 0-1.088-1.12 2.85 2.85 0 0 0-1.488-.4q-.816 0-1.488.384a2.8 2.8 0 0 0-1.072 1.12q-.4.736-.4 1.728 0 1.008.4 1.76a2.9 2.9 0 0 0 1.072 1.136q.672.384 1.488.384t1.488-.384a2.86 2.86 0 0 0 1.088-1.136q.4-.752.4-1.744m5.388-7.44V338h-1.456v-11.84zm4.258 4.272v5.168q0 .64.272.912.271.256.944.256h1.072V338h-1.312q-1.217 0-1.824-.56-.609-.56-.608-1.84v-5.168h-1.136v-1.2h1.136v-2.208h1.456v2.208h2.288v1.2zm8.404-1.36a3.7 3.7 0 0 1 1.792.432q.8.416 1.248 1.264.464.848.464 2.064V338h-1.44v-4.96q0-1.312-.656-2-.657-.704-1.792-.704-1.152 0-1.84.72-.672.72-.672 2.096V338h-1.456v-11.84h1.456v4.32a2.9 2.9 0 0 1 1.184-1.04 3.9 3.9 0 0 1 1.712-.368M65.972 338l-1.456-1.472q-.816.848-1.744 1.264-.929.4-2.096.4-1.152 0-2.048-.416a3.25 3.25 0 0 1-1.376-1.184q-.48-.768-.48-1.792 0-1.168.656-2.048.672-.896 1.968-1.408-.513-.608-.736-1.12a2.8 2.8 0 0 1-.224-1.12q0-.704.352-1.264a2.45 2.45 0 0 1 1.04-.896q.672-.32 1.552-.32.864 0 1.504.336.639.336.96.944.32.592.288 1.328h-1.456q.015-.656-.368-1.024-.384-.384-.992-.384-.64 0-1.04.368-.384.352-.384.912 0 .48.256.928.272.449.896 1.104l3.328 3.344.288-.448 1.088-1.824h1.568l-1.312 2.272q-.273.48-.64 1.008L67.876 338zm-5.296-1.056a3.5 3.5 0 0 0 1.552-.336q.704-.336 1.328-1.04l-3.28-3.296q-2.048.784-2.048 2.48 0 .944.672 1.568.687.624 1.776.624m18.413-4.688q.609.096 1.104.496.513.4.8.992.304.592.304 1.264a2.83 2.83 0 0 1-.432 1.536q-.432.672-1.264 1.072-.816.384-1.936.384h-4.16v-11.152h4q1.137 0 1.936.384.801.368 1.2 1.008.4.64.4 1.44.001.992-.544 1.648-.527.64-1.408.928m-4.128-.592h2.448q1.025 0 1.584-.48t.56-1.328q0-.848-.56-1.328t-1.616-.48h-2.416zm2.576 5.136q1.089 0 1.696-.512.608-.512.608-1.424 0-.928-.64-1.456-.64-.544-1.712-.544h-2.528v3.936zm13.78-3.52q0 .416-.047.88h-7.008q.08 1.296.88 2.032.816.72 1.968.72.945 0 1.568-.432.64-.448.896-1.184h1.568a3.8 3.8 0 0 1-1.408 2.064q-1.056.784-2.624.784-1.248 0-2.24-.56A4 4 0 0 1 83.334 336q-.56-1.04-.56-2.4t.544-2.384a3.8 3.8 0 0 1 1.52-1.568q.992-.56 2.272-.56 1.248 0 2.208.544t1.472 1.504q.528.944.528 2.144m-1.503-.304q0-.832-.368-1.424a2.3 2.3 0 0 0-1.008-.912 3 3 0 0 0-1.392-.32q-1.104 0-1.888.704-.768.704-.88 1.952zm2.882.608q0-1.344.544-2.352a3.95 3.95 0 0 1 1.488-1.584 4.15 4.15 0 0 1 2.128-.56q1.152 0 2 .496.848.497 1.264 1.248v-1.6h1.472V338h-1.472v-1.632q-.432.768-1.296 1.28-.849.496-1.984.496a3.97 3.97 0 0 1-2.112-.576 4.04 4.04 0 0 1-1.488-1.616q-.544-1.04-.544-2.368m7.424.016q0-.992-.4-1.728a2.75 2.75 0 0 0-1.088-1.12 2.85 2.85 0 0 0-1.488-.4q-.816 0-1.488.384a2.8 2.8 0 0 0-1.072 1.12q-.4.736-.4 1.728 0 1.008.4 1.76a2.9 2.9 0 0 0 1.072 1.136q.672.384 1.488.384t1.488-.384a2.86 2.86 0 0 0 1.088-1.136q.4-.752.4-1.744m11.708-4.368V338h-1.456v-1.296q-.415.672-1.168 1.056a3.6 3.6 0 0 1-1.632.368q-1.024 0-1.84-.416a3.2 3.2 0 0 1-1.296-1.28q-.464-.847-.464-2.064v-5.136h1.44v4.944q0 1.296.656 2 .657.688 1.792.688 1.168 0 1.84-.72t.672-2.096v-4.816zm4.235 1.2v5.168q0 .64.272.912.272.256.944.256h1.072V338h-1.312q-1.217 0-1.824-.56-.608-.56-.608-1.84v-5.168h-1.136v-1.2h1.136v-2.208h1.456v2.208h2.288v1.2zm11.604-1.2-5.28 12.896h-1.504l1.728-4.224-3.536-8.672h1.616l2.752 7.104 2.72-7.104z"/></svg>