<svg xmlns="http://www.w3.org/2000/svg" width="1170" height="56" fill="none"><rect width="20" height="40" y="8" fill="#DB4444" rx="4"/><path fill="#000" d="M44.863 21.06v10.3q0 1.72-1.06 2.76-1.06 1.02-2.8 1.02-1.761 0-2.82-1.04-1.06-1.06-1.06-2.88h1.82q.02 1.02.52 1.66.52.64 1.54.64t1.52-.6q.5-.62.5-1.56v-10.3zm13.305 2.98V35h-1.82v-1.62q-.52.84-1.46 1.32a4.5 4.5 0 0 1-2.04.46q-1.28 0-2.3-.52a4 4 0 0 1-1.62-1.6q-.58-1.06-.58-2.58v-6.42h1.8v6.18q0 1.62.82 2.5.82.86 2.24.86 1.46 0 2.3-.9t.84-2.62v-6.02zm6.953 11.14q-1.26 0-2.26-.42-1-.44-1.58-1.2a3.24 3.24 0 0 1-.64-1.78h1.88q.08.82.76 1.34.7.52 1.82.52 1.04 0 1.64-.46t.6-1.16q0-.72-.64-1.06-.639-.36-1.98-.7-1.22-.32-2-.64a3.8 3.8 0 0 1-1.32-.98q-.54-.66-.54-1.72 0-.84.5-1.54t1.42-1.1q.92-.42 2.1-.42 1.82 0 2.94.92t1.2 2.52h-1.82q-.06-.86-.7-1.38-.62-.52-1.68-.52-.98 0-1.56.42t-.58 1.1q0 .54.34.9.36.34.88.56.54.2 1.48.46 1.18.32 1.92.64.74.3 1.26.92.54.62.56 1.62 0 .9-.5 1.62t-1.42 1.14q-.9.4-2.08.4m8.79-9.64V32q0 .8.34 1.14.34.32 1.18.32h1.34V35h-1.64q-1.521 0-2.28-.7-.76-.7-.76-2.3v-6.46h-1.42v-1.5h1.42v-2.76h1.82v2.76h2.86v1.5zm18.277-4.48v1.48h-6.06v4.7h4.92v1.48h-4.92V35h-1.82V21.06zm6.978 14.12q-1.54 0-2.8-.7a5.1 5.1 0 0 1-1.96-1.98q-.7-1.3-.7-3 0-1.68.72-2.96.74-1.3 2-1.98 1.26-.7 2.82-.7t2.82.7q1.26.68 1.98 1.96.74 1.28.74 2.98t-.76 3a5.16 5.16 0 0 1-2.02 1.98q-1.28.7-2.84.7m0-1.6q.98 0 1.84-.46t1.38-1.38q.54-.92.54-2.24t-.52-2.24-1.36-1.36a3.73 3.73 0 0 0-1.82-.46q-1 0-1.84.46-.82.44-1.32 1.36t-.5 2.24q0 1.34.48 2.26.5.92 1.32 1.38.819.44 1.8.44m9.833-7.76a3.5 3.5 0 0 1 1.36-1.46q.9-.52 2.18-.52v1.88h-.48q-3.06 0-3.06 3.32V35h-1.82V24.04h1.82zm20.733-4.76-4.54 8.68V35h-1.82v-5.26l-4.56-8.68h2.02l3.44 7.06 3.44-7.06zm6.699 14.12q-1.54 0-2.8-.7a5.1 5.1 0 0 1-1.96-1.98q-.7-1.3-.7-3 0-1.68.72-2.96.74-1.3 2-1.98 1.26-.7 2.82-.7t2.82.7q1.26.68 1.98 1.96.74 1.28.74 2.98t-.76 3a5.14 5.14 0 0 1-2.02 1.98q-1.28.7-2.84.7m0-1.6a3.84 3.84 0 0 0 1.84-.46q.861-.46 1.38-1.38.54-.92.54-2.24t-.52-2.24-1.36-1.36a3.7 3.7 0 0 0-1.82-.46 3.8 3.8 0 0 0-1.84.46q-.819.44-1.32 1.36-.5.92-.5 2.24 0 1.34.48 2.26.501.92 1.32 1.38.82.44 1.8.44m17.733-9.54V35h-1.82v-1.62q-.52.84-1.46 1.32a4.5 4.5 0 0 1-2.04.46q-1.28 0-2.3-.52a4 4 0 0 1-1.62-1.6q-.58-1.06-.58-2.58v-6.42h1.8v6.18q0 1.62.82 2.5.82.86 2.24.86 1.46 0 2.3-.9t.84-2.62v-6.02z"/><rect width="149" height="55" x="1020.5" y=".5" stroke="#000" stroke-opacity=".5" rx="3.5"/><path fill="#000" d="M1072.86 34.112q-1.11 0-2.01-.384-.9-.4-1.41-1.12t-.51-1.68h1.95c.04.48.23.875.56 1.184.34.31.82.464 1.42.464.63 0 1.12-.15 1.48-.448.35-.31.52-.704.52-1.184q0-.56-.33-.912a2.2 2.2 0 0 0-.82-.544 12 12 0 0 0-1.34-.416c-.73-.192-1.32-.384-1.78-.576a3 3 0 0 1-1.15-.928q-.48-.623-.48-1.664 0-.96.48-1.68c.32-.48.77-.848 1.34-1.104.58-.256 1.25-.384 2-.384q1.62 0 2.64.816c.7.533 1.08 1.27 1.16 2.208h-2.02c-.03-.405-.22-.752-.58-1.04-.35-.288-.81-.432-1.39-.432-.52 0-.95.133-1.28.4s-.49.65-.49 1.152q0 .512.3.848c.21.213.48.384.8.512s.76.267 1.31.416c.74.203 1.34.405 1.79.608.47.203.87.517 1.19.944.33.416.49.976.49 1.68 0 .565-.15 1.099-.46 1.6-.3.501-.74.907-1.33 1.216-.57.299-1.26.448-2.05.448m14.08-4.736c0 .33-.03.63-.07.896h-6.73q.075 1.056.78 1.696c.47.427 1.05.64 1.73.64.98 0 1.67-.41 2.08-1.232h1.97a4.05 4.05 0 0 1-1.46 2c-.69.512-1.56.768-2.59.768-.84 0-1.6-.187-2.27-.56a4.1 4.1 0 0 1-1.57-1.6c-.38-.693-.56-1.493-.56-2.4q0-1.36.54-2.384c.38-.693.89-1.227 1.55-1.6.68-.373 1.44-.56 2.31-.56q1.245 0 2.22.544c.65.363 1.16.875 1.52 1.536.36.65.55 1.403.55 2.256m-1.91-.576q-.015-1.008-.72-1.616t-1.74-.608q-.945 0-1.62.608c-.45.395-.71.933-.8 1.616zm11.78.576q0 .496-.06.896h-6.74c.05.704.32 1.27.79 1.696.46.427 1.04.64 1.72.64.98 0 1.68-.41 2.08-1.232h1.97a4.03 4.03 0 0 1-1.45 2c-.7.512-1.56.768-2.6.768-.84 0-1.6-.187-2.27-.56a4.24 4.24 0 0 1-1.57-1.6c-.37-.693-.56-1.493-.56-2.4s.18-1.701.55-2.384c.37-.693.89-1.227 1.55-1.6.67-.373 1.44-.56 2.3-.56.84 0 1.58.181 2.23.544s1.15.875 1.52 1.536q.54.976.54 2.256m-1.9-.576q-.015-1.008-.72-1.616c-.47-.405-1.05-.608-1.75-.608-.63 0-1.16.203-1.61.608-.45.395-.72.933-.8 1.616zm14.56 2.928h-4.66l-.8 2.272h-1.9l3.98-11.136h2.11L1112.19 34h-1.92zm-.52-1.488-1.8-5.168-1.83 5.168zm6.79-8.08V34h-1.82V22.16zm4.22 0V34h-1.82V22.16z"/></svg>