<svg xmlns="http://www.w3.org/2000/svg" width="896" height="656" fill="none"><g filter="url(#a)"><rect width="870" height="630" x="13" y="12" fill="#fff" rx="4"/><path fill="#DB4444" d="M96.78 60.94v4.08h4.8v1.86h-4.8v4.26h5.4V73H94.5V59.08h7.68v1.86zm7.448 6.5q0-1.66.68-2.94.7-1.28 1.88-1.98 1.2-.72 2.66-.72 1.08 0 2.12.48 1.06.46 1.68 1.24V58.2h2.3V73h-2.3v-1.66q-.56.8-1.56 1.32-.98.52-2.26.52-1.44 0-2.64-.72-1.18-.74-1.88-2.04-.68-1.32-.68-2.98m9.02.04q0-1.14-.48-1.98-.46-.84-1.22-1.28a3.2 3.2 0 0 0-1.64-.44 3.2 3.2 0 0 0-1.64.44q-.76.42-1.24 1.26-.46.82-.46 1.96t.46 2q.48.86 1.24 1.32.78.44 1.64.44.88 0 1.64-.44t1.22-1.28q.48-.86.48-2m6.455-6.96q-.62 0-1.04-.42t-.42-1.04.42-1.04 1.04-.42q.6 0 1.02.42t.42 1.04-.42 1.04-1.02.42m1.12 1.46V73h-2.28V61.98zm5.653 1.86v6.1q0 .62.28.9.3.26 1 .26h1.4V73h-1.8q-1.54 0-2.36-.72t-.82-2.34v-6.1h-1.3v-1.86h1.3v-2.74h2.3v2.74h2.68v1.86zm20.277-4.74-4.6 8.86V73h-2.28v-5.04l-4.62-8.86h2.54l3.22 6.82 3.22-6.82zm6.59 14.08q-1.56 0-2.82-.7a5.2 5.2 0 0 1-1.98-2q-.72-1.3-.72-3 0-1.68.74-2.98a5.1 5.1 0 0 1 2.02-2q1.28-.7 2.86-.7t2.86.7a5.1 5.1 0 0 1 2.02 2q.74 1.3.74 2.98t-.76 2.98a5.3 5.3 0 0 1-2.08 2.02q-1.3.7-2.88.7m0-1.98a3.34 3.34 0 0 0 1.64-.42q.78-.42 1.26-1.26t.48-2.04-.46-2.02q-.46-.84-1.22-1.26a3.34 3.34 0 0 0-1.64-.42q-.88 0-1.64.42-.74.42-1.18 1.26-.44.82-.44 2.02 0 1.78.9 2.76.92.96 2.3.96m17.953-9.22V73h-2.28v-1.3q-.54.68-1.42 1.08a4.5 4.5 0 0 1-1.84.38q-1.299 0-2.34-.54a4 4 0 0 1-1.62-1.6q-.58-1.06-.58-2.56v-6.48h2.26v6.14q0 1.48.74 2.28.74.78 2.02.78t2.02-.78q.76-.8.76-2.28v-6.14zm5.289 1.6q.5-.84 1.32-1.3.84-.48 1.98-.48v2.36h-.58q-1.341 0-2.04.68-.68.68-.68 2.36V73h-2.28V61.98h2.28zm20.311-.34a4.2 4.2 0 0 1-.5 2q-.5.94-1.6 1.54-1.101.58-2.82.58h-2.52V73h-2.28V59.1h4.8q1.599 0 2.7.56 1.12.54 1.66 1.48.56.94.56 2.1m-4.92 2.26q1.3 0 1.94-.58.64-.6.64-1.68 0-2.28-2.58-2.28h-2.52v4.54zm9.374-1.92q.501-.84 1.32-1.3.84-.48 1.98-.48v2.36h-.58q-1.34 0-2.04.68-.68.68-.68 2.36V73h-2.28V61.98h2.28zm10.176 9.6q-1.56 0-2.82-.7a5.2 5.2 0 0 1-1.98-2q-.72-1.3-.72-3 0-1.68.74-2.98a5.1 5.1 0 0 1 2.02-2q1.28-.7 2.86-.7t2.86.7a5.1 5.1 0 0 1 2.02 2q.74 1.3.74 2.98t-.76 2.98a5.3 5.3 0 0 1-2.08 2.02q-1.3.7-2.88.7m0-1.98q.88 0 1.64-.42.78-.42 1.26-1.26t.48-2.04-.46-2.02q-.46-.84-1.22-1.26a3.34 3.34 0 0 0-1.64-.42q-.88 0-1.64.42-.74.42-1.18 1.26-.44.82-.44 2.02 0 1.78.9 2.76.92.96 2.3.96m12.594-7.36h-2.04V73h-2.3v-9.16h-1.3v-1.86h1.3v-.78q0-1.9 1-2.76 1.02-.88 3.18-.88v1.9q-1.04 0-1.46.4-.42.38-.42 1.34v.78h2.04zm3.181-3.32q-.62 0-1.04-.42t-.42-1.04.42-1.04 1.04-.42q.6 0 1.02.42t.42 1.04-.42 1.04-1.02.42m1.12 1.46V73h-2.28V61.98zm5.273-3.78V73h-2.28V58.2zm13.094 9.02q0 .62-.08 1.12h-8.42q.1 1.32.98 2.12.879.8 2.16.8 1.84 0 2.6-1.54h2.459a5 5 0 0 1-1.819 2.5q-1.3.96-3.24.96-1.58 0-2.84-.7a5.23 5.23 0 0 1-1.96-2q-.7-1.3-.7-3t.68-2.98a4.9 4.9 0 0 1 1.94-2q1.26-.7 2.88-.7 1.56 0 2.78.68a4.8 4.8 0 0 1 1.9 1.92q.68 1.22.68 2.82m-2.38-.72q-.021-1.26-.9-2.02-.88-.76-2.18-.76-1.18 0-2.02.76-.84.74-1 2.02z"/><path fill="#000" d="M100.536 102.848v1.184h-4.848v3.76h3.936v1.184h-3.936V114h-1.456v-11.152zm2.511.96a.96.96 0 0 1-.704-.288.96.96 0 0 1-.288-.704q0-.416.288-.704a.96.96 0 0 1 .704-.288.9.9 0 0 1 .672.288.96.96 0 0 1 .288.704.96.96 0 0 1-.288.704.9.9 0 0 1-.672.288m.704 1.424V114h-1.456v-8.768zm3.937 1.424a2.8 2.8 0 0 1 1.088-1.168q.72-.416 1.744-.416v1.504h-.384q-2.448 0-2.448 2.656V114h-1.456v-8.768h1.456zm7.617 7.488q-1.008 0-1.808-.336-.8-.352-1.264-.96a2.6 2.6 0 0 1-.512-1.424h1.504q.063.656.608 1.072.56.416 1.456.416.832 0 1.312-.368t.48-.928q0-.576-.512-.848-.513-.288-1.584-.56a13 13 0 0 1-1.6-.512 3 3 0 0 1-1.056-.784q-.432-.528-.432-1.376 0-.672.4-1.232t1.136-.88q.735-.336 1.68-.336 1.455 0 2.352.736.895.736.96 2.016h-1.456a1.5 1.5 0 0 0-.56-1.104q-.496-.416-1.344-.416-.784 0-1.248.336-.465.336-.464.88 0 .432.272.72.287.272.704.448.432.16 1.184.368.944.256 1.536.512.591.24 1.008.736.432.497.448 1.296 0 .72-.4 1.296t-1.136.912q-.72.32-1.664.32m7.031-7.712v5.168q0 .64.272.912.272.256.944.256h1.072V114h-1.312q-1.217 0-1.824-.56-.608-.56-.608-1.84v-5.168h-1.136v-1.2h1.136v-2.208h1.456v2.208h2.288v1.2zM139.422 114h-1.456l-5.856-8.88V114h-1.456v-11.168h1.456l5.856 8.864v-8.864h1.456zm1.938-4.416q0-1.344.544-2.352a3.95 3.95 0 0 1 1.488-1.584 4.15 4.15 0 0 1 2.128-.56q1.152 0 2 .496t1.264 1.248v-1.6h1.472V114h-1.472v-1.632q-.432.768-1.296 1.28-.848.496-1.984.496a3.97 3.97 0 0 1-2.112-.576 4.05 4.05 0 0 1-1.488-1.616q-.544-1.04-.544-2.368m7.424.016q0-.992-.4-1.728a2.75 2.75 0 0 0-1.088-1.12 2.85 2.85 0 0 0-1.488-.4q-.816 0-1.488.384a2.8 2.8 0 0 0-1.072 1.12q-.4.736-.4 1.728 0 1.008.4 1.76.4.736 1.072 1.136.672.384 1.488.384t1.488-.384a2.86 2.86 0 0 0 1.088-1.136q.4-.752.4-1.744m14.476-4.528q1.024 0 1.824.432.8.416 1.264 1.264.464.847.464 2.064V114h-1.44v-4.96q0-1.312-.656-2-.64-.704-1.744-.704-1.136 0-1.808.736-.672.72-.672 2.096V114h-1.44v-4.96q0-1.312-.656-2-.64-.704-1.744-.704-1.136 0-1.808.736-.672.72-.672 2.096V114h-1.456v-8.768h1.456v1.264a2.9 2.9 0 0 1 1.152-1.056 3.6 3.6 0 0 1 1.616-.368q1.104 0 1.952.496.849.496 1.264 1.456a2.88 2.88 0 0 1 1.216-1.44 3.6 3.6 0 0 1 1.888-.512m13.941 4.208q0 .416-.048.88h-7.008q.08 1.296.88 2.032.816.72 1.968.72.944 0 1.568-.432.64-.448.896-1.184h1.568a3.8 3.8 0 0 1-1.408 2.064q-1.056.784-2.624.784-1.248 0-2.24-.56a4 4 0 0 1-1.536-1.584q-.56-1.04-.56-2.4t.544-2.384a3.8 3.8 0 0 1 1.52-1.568q.991-.56 2.272-.56 1.248 0 2.208.544t1.472 1.504q.528.944.528 2.144m-1.504-.304q0-.832-.368-1.424a2.33 2.33 0 0 0-1.008-.912 3 3 0 0 0-1.392-.32q-1.105 0-1.888.704-.769.704-.88 1.952z"/><rect width="330" height="50" x="93" y="128" fill="#F5F5F5" rx="4"/><path fill="#000" d="M121.544 147.928V159h-1.456v-8.256l-3.68 8.256h-1.024l-3.696-8.272V159h-1.456v-11.072h1.568l4.096 9.152 4.096-9.152zm1.925 6.656q0-1.344.544-2.352a3.95 3.95 0 0 1 1.488-1.584 4.2 4.2 0 0 1 2.144-.56q1.025 0 1.904.48.88.464 1.344 1.232v-4.64h1.472V159h-1.472v-1.648q-.431.785-1.28 1.296-.847.496-1.984.496a4.06 4.06 0 0 1-2.128-.576 4.05 4.05 0 0 1-1.488-1.616q-.543-1.04-.544-2.368m7.424.016q0-.992-.4-1.728a2.75 2.75 0 0 0-1.088-1.12 2.85 2.85 0 0 0-1.488-.4q-.816 0-1.488.384a2.8 2.8 0 0 0-1.072 1.12q-.4.737-.4 1.728 0 1.008.4 1.76.4.736 1.072 1.136.672.384 1.488.384t1.488-.384a2.86 2.86 0 0 0 1.088-1.136q.4-.752.4-1.744" opacity=".5"/><path fill="#000" d="M475.688 112.816h3.904V114h-5.36v-11.152h1.456zm4.906-3.232q0-1.344.544-2.352a3.95 3.95 0 0 1 1.488-1.584 4.15 4.15 0 0 1 2.128-.56q1.152 0 2 .496t1.264 1.248v-1.6h1.472V114h-1.472v-1.632q-.432.768-1.296 1.28-.847.496-1.984.496a4 4 0 0 1-2.112-.576 4.05 4.05 0 0 1-1.488-1.616q-.543-1.04-.544-2.368m7.424.016q0-.992-.4-1.728a2.75 2.75 0 0 0-1.088-1.12 2.85 2.85 0 0 0-1.488-.4q-.816 0-1.488.384a2.8 2.8 0 0 0-1.072 1.12q-.4.736-.4 1.728 0 1.008.4 1.76.4.736 1.072 1.136.672.384 1.488.384t1.488-.384a2.86 2.86 0 0 0 1.088-1.136q.4-.752.4-1.744m7.037 4.544q-1.008 0-1.808-.336-.8-.352-1.264-.96a2.6 2.6 0 0 1-.512-1.424h1.504q.063.656.608 1.072.56.416 1.456.416.832 0 1.312-.368t.48-.928q0-.576-.512-.848-.513-.288-1.584-.56a13 13 0 0 1-1.6-.512 3 3 0 0 1-1.056-.784q-.432-.528-.432-1.376 0-.672.4-1.232t1.136-.88q.735-.336 1.68-.336 1.455 0 2.352.736.895.736.96 2.016h-1.456a1.5 1.5 0 0 0-.56-1.104q-.497-.416-1.344-.416-.785 0-1.248.336-.465.336-.464.88 0 .432.272.72.288.272.704.448.432.16 1.184.368.944.256 1.536.512.591.24 1.008.736.432.497.448 1.296 0 .72-.4 1.296t-1.136.912q-.72.32-1.664.32m7.031-7.712v5.168q0 .64.272.912.272.256.944.256h1.072V114h-1.312q-1.216 0-1.824-.56t-.608-1.84v-5.168h-1.136v-1.2h1.136v-2.208h1.456v2.208h2.288v1.2zM519.172 114h-1.456l-5.856-8.88V114h-1.456v-11.168h1.456l5.856 8.864v-8.864h1.456zm1.938-4.416q0-1.344.544-2.352a3.95 3.95 0 0 1 1.488-1.584 4.15 4.15 0 0 1 2.128-.56q1.152 0 2 .496t1.264 1.248v-1.6h1.472V114h-1.472v-1.632q-.432.768-1.296 1.28-.848.496-1.984.496a3.97 3.97 0 0 1-2.112-.576 4.05 4.05 0 0 1-1.488-1.616q-.544-1.04-.544-2.368m7.424.016q0-.992-.4-1.728a2.75 2.75 0 0 0-1.088-1.12 2.85 2.85 0 0 0-1.488-.4q-.816 0-1.488.384a2.8 2.8 0 0 0-1.072 1.12q-.4.736-.4 1.728 0 1.008.4 1.76.4.736 1.072 1.136.672.384 1.488.384t1.488-.384a2.86 2.86 0 0 0 1.088-1.136q.4-.752.4-1.744m14.476-4.528q1.025 0 1.824.432.8.416 1.264 1.264.465.847.464 2.064V114h-1.44v-4.96q0-1.312-.656-2-.64-.704-1.744-.704-1.136 0-1.808.736-.672.72-.672 2.096V114h-1.44v-4.96q0-1.312-.656-2-.64-.704-1.744-.704-1.136 0-1.808.736-.672.72-.672 2.096V114h-1.456v-8.768h1.456v1.264a2.9 2.9 0 0 1 1.152-1.056 3.6 3.6 0 0 1 1.616-.368q1.104 0 1.952.496.849.496 1.264 1.456a2.88 2.88 0 0 1 1.216-1.44 3.6 3.6 0 0 1 1.888-.512m13.941 4.208q0 .416-.048.88h-7.008q.08 1.296.88 2.032.816.72 1.968.72.944 0 1.568-.432.64-.448.896-1.184h1.568a3.8 3.8 0 0 1-1.408 2.064q-1.056.784-2.624.784-1.248 0-2.24-.56a4 4 0 0 1-1.536-1.584q-.56-1.04-.56-2.4t.544-2.384a3.8 3.8 0 0 1 1.52-1.568q.991-.56 2.272-.56 1.248 0 2.208.544t1.472 1.504q.528.944.528 2.144m-1.504-.304q0-.832-.368-1.424a2.33 2.33 0 0 0-1.008-.912 3 3 0 0 0-1.392-.32q-1.105 0-1.888.704-.769.704-.88 1.952z"/><rect width="330" height="50" x="473" y="128" fill="#F5F5F5" rx="4"/><path fill="#000" d="m496.104 159-2.656-4.56h-1.76V159h-1.456v-11.152h3.6q1.264 0 2.128.432.88.432 1.312 1.168t.432 1.68q0 1.152-.672 2.032-.656.88-1.984 1.168l2.8 4.672zm-4.416-5.728h2.144q1.183 0 1.776-.576.592-.592.592-1.568 0-.992-.592-1.536-.576-.544-1.776-.544h-2.144zm9.03-4.464a.96.96 0 0 1-.704-.288.96.96 0 0 1-.288-.704q0-.416.288-.704a.96.96 0 0 1 .704-.288q.4 0 .672.288a.96.96 0 0 1 .288.704.96.96 0 0 1-.288.704.9.9 0 0 1-.672.288m.704 1.424V159h-1.456v-8.768zm13.026-.16q1.025 0 1.824.432.8.416 1.264 1.264.464.847.464 2.064V159h-1.44v-4.96q0-1.312-.656-2-.64-.704-1.744-.704-1.136 0-1.808.736-.672.72-.672 2.096V159h-1.44v-4.96q0-1.312-.656-2-.64-.704-1.744-.704-1.136 0-1.808.736-.672.72-.672 2.096V159h-1.456v-8.768h1.456v1.264a2.9 2.9 0 0 1 1.152-1.056 3.6 3.6 0 0 1 1.616-.368q1.104 0 1.952.496t1.264 1.456a2.87 2.87 0 0 1 1.216-1.44 3.6 3.6 0 0 1 1.888-.512m13.94 4.208q0 .416-.048.88h-7.008q.08 1.296.88 2.032.816.72 1.968.72.945 0 1.568-.432.64-.448.896-1.184h1.568a3.8 3.8 0 0 1-1.408 2.064q-1.055.784-2.624.784-1.247 0-2.24-.56a4 4 0 0 1-1.536-1.584q-.56-1.04-.56-2.4t.544-2.384a3.8 3.8 0 0 1 1.52-1.568q.993-.56 2.272-.56 1.248 0 2.208.544a3.7 3.7 0 0 1 1.472 1.504q.528.944.528 2.144m-1.504-.304q0-.832-.368-1.424a2.3 2.3 0 0 0-1.008-.912 3 3 0 0 0-1.392-.32q-1.104 0-1.888.704-.768.704-.88 1.952zm4.882-6.816V159h-1.456v-11.84z" opacity=".5"/><path fill="#000" d="M95.688 210.032v3.728h4.064v1.2h-4.064v3.84h4.544v1.2h-6v-11.168h6v1.2zm17.291 1.04q1.025 0 1.824.432.8.416 1.264 1.264.464.847.464 2.064V220h-1.44v-4.96q0-1.312-.656-2-.64-.704-1.744-.704-1.136 0-1.808.736-.672.72-.672 2.096V220h-1.44v-4.96q0-1.312-.656-2-.64-.704-1.744-.704-1.136 0-1.808.736-.672.72-.672 2.096V220h-1.456v-8.768h1.456v1.264a2.9 2.9 0 0 1 1.152-1.056 3.6 3.6 0 0 1 1.616-.368q1.104 0 1.952.496t1.264 1.456a2.87 2.87 0 0 1 1.216-1.44 3.6 3.6 0 0 1 1.888-.512m5.397 4.512q0-1.344.544-2.352a3.94 3.94 0 0 1 1.488-1.584 4.15 4.15 0 0 1 2.128-.56q1.151 0 2 .496.847.497 1.264 1.248v-1.6h1.472V220H125.8v-1.632q-.432.768-1.296 1.28-.849.496-1.984.496a3.97 3.97 0 0 1-2.112-.576 4.03 4.03 0 0 1-1.488-1.616q-.544-1.04-.544-2.368m7.424.016q0-.992-.4-1.728a2.76 2.76 0 0 0-1.088-1.12 2.85 2.85 0 0 0-1.488-.4q-.816 0-1.488.384a2.8 2.8 0 0 0-1.072 1.12q-.4.737-.4 1.728 0 1.008.4 1.76.4.736 1.072 1.136.672.384 1.488.384t1.488-.384a2.87 2.87 0 0 0 1.088-1.136q.4-.752.4-1.744m4.684-5.792a.96.96 0 0 1-.704-.288.96.96 0 0 1-.288-.704q0-.416.288-.704a.96.96 0 0 1 .704-.288q.4 0 .672.288a.96.96 0 0 1 .288.704.96.96 0 0 1-.288.704.9.9 0 0 1-.672.288m.704 1.424V220h-1.456v-8.768zm3.938-3.072V220h-1.456v-11.84z"/><rect width="330" height="50" x="93" y="234" fill="#F5F5F5" rx="4"/><path fill="#000" d="M111.688 257.656a2.8 2.8 0 0 1 1.088-1.168q.72-.416 1.744-.416v1.504h-.384q-2.448 0-2.448 2.656V265h-1.456v-8.768h1.456zm5.265-2.848a.96.96 0 0 1-.704-.288.96.96 0 0 1-.288-.704q0-.416.288-.704a.96.96 0 0 1 .704-.288.9.9 0 0 1 .672.288.96.96 0 0 1 .288.704.96.96 0 0 1-.288.704.9.9 0 0 1-.672.288m.704 1.424V265h-1.456v-8.768zm13.025-.16q1.024 0 1.824.432.8.416 1.264 1.264t.464 2.064V265h-1.44v-4.96q0-1.312-.656-2-.64-.704-1.744-.704-1.136 0-1.808.736-.672.72-.672 2.096V265h-1.44v-4.96q0-1.312-.656-2-.64-.704-1.744-.704-1.136 0-1.808.736-.672.72-.672 2.096V265h-1.456v-8.768h1.456v1.264a2.9 2.9 0 0 1 1.152-1.056 3.6 3.6 0 0 1 1.616-.368q1.104 0 1.952.496.849.496 1.264 1.456a2.88 2.88 0 0 1 1.216-1.44 3.6 3.6 0 0 1 1.888-.512m13.941 4.208q0 .416-.048.88h-7.008q.08 1.296.88 2.032.816.72 1.968.72.944 0 1.568-.432.64-.448.896-1.184h1.568a3.8 3.8 0 0 1-1.408 2.064q-1.056.784-2.624.784-1.248 0-2.24-.56a4 4 0 0 1-1.536-1.584q-.56-1.04-.56-2.4t.544-2.384a3.8 3.8 0 0 1 1.52-1.568q.991-.56 2.272-.56 1.248 0 2.208.544t1.472 1.504q.528.944.528 2.144m-1.504-.304q0-.832-.368-1.424a2.33 2.33 0 0 0-1.008-.912 3 3 0 0 0-1.392-.32q-1.105 0-1.888.704-.769.704-.88 1.952zm4.882-6.816V265h-1.456v-11.84zm1.857 1.6v-1.328h3.008V265h-1.472v-10.24zm5.125 0v-1.328h3.008V265h-1.472v-10.24zm5.125 0v-1.328h3.008V265h-1.472v-10.24zm5.125 0v-1.328h3.008V265h-1.472v-10.24zm13.749-.016q1.776 0 3.088.672t2.016 1.888q.704 1.2.704 2.784 0 1.264-.416 2.432-.416 1.152-1.216 1.872-.784.72-1.84.72-.8 0-1.232-.4t-.496-1.088a3.6 3.6 0 0 1-1.264 1.088q-.752.4-1.6.4-1.216 0-1.92-.736-.688-.751-.688-2.016 0-1.2.496-2.24a4.3 4.3 0 0 1 1.408-1.664 3.4 3.4 0 0 1 2.032-.64q1.52 0 2.048 1.152l.176-.992h1.264l-.8 4.624a3.6 3.6 0 0 0-.048.56q0 .96.848.96.64 0 1.104-.608.48-.608.72-1.52a7.3 7.3 0 0 0 .24-1.824q0-2.096-1.264-3.248-1.248-1.152-3.536-1.152-1.904 0-3.44.928a6.44 6.44 0 0 0-2.384 2.512q-.864 1.6-.864 3.536-.016 2.112 1.264 3.248 1.28 1.152 3.552 1.152 1.504 0 2.656-.544l.192.992q-1.424.592-3.136.592-1.711 0-3.024-.656a4.7 4.7 0 0 1-2.016-1.856q-.704-1.2-.704-2.8 0-2.256 1.04-4.112a7.64 7.64 0 0 1 2.88-2.944q1.856-1.072 4.16-1.072m-1.824 9.232q.72 0 1.328-.416.607-.432.96-1.152a3.66 3.66 0 0 0 .352-1.6q0-.832-.464-1.344-.448-.528-1.28-.528-.768 0-1.36.464a2.95 2.95 0 0 0-.896 1.2 3.8 3.8 0 0 0-.32 1.536q0 .848.432 1.344t1.248.496m13.643-7.888q1.136 0 1.984.496.864.497 1.28 1.248v-1.6h1.472v8.96q0 1.2-.512 2.128a3.6 3.6 0 0 1-1.472 1.472q-.944.528-2.208.528-1.728 0-2.88-.816t-1.36-2.224h1.44q.24.8.992 1.28.752.496 1.808.496 1.2 0 1.952-.752.768-.751.768-2.112v-1.84q-.432.768-1.28 1.28t-1.984.512a4.06 4.06 0 0 1-2.128-.576 4.05 4.05 0 0 1-1.488-1.616q-.544-1.04-.544-2.368 0-1.344.544-2.352a3.95 3.95 0 0 1 1.488-1.584 4.15 4.15 0 0 1 2.128-.56m3.264 4.512q0-.992-.4-1.728a2.75 2.75 0 0 0-1.088-1.12 2.85 2.85 0 0 0-1.488-.4q-.816 0-1.488.384a2.8 2.8 0 0 0-1.072 1.12q-.4.736-.4 1.728 0 1.008.4 1.76.4.736 1.072 1.136.672.384 1.488.384t1.488-.384a2.86 2.86 0 0 0 1.088-1.136q.4-.752.4-1.744m14.477-4.528q1.023 0 1.824.432.8.416 1.264 1.264t.464 2.064V265h-1.44v-4.96q0-1.312-.656-2-.64-.704-1.744-.704-1.137 0-1.808.736-.672.72-.672 2.096V265h-1.44v-4.96q0-1.312-.656-2-.64-.704-1.744-.704-1.136 0-1.808.736-.672.72-.672 2.096V265h-1.456v-8.768h1.456v1.264a2.9 2.9 0 0 1 1.152-1.056 3.56 3.56 0 0 1 1.616-.368q1.104 0 1.952.496t1.264 1.456a2.87 2.87 0 0 1 1.216-1.44 3.6 3.6 0 0 1 1.888-.512m5.396 4.512q0-1.344.544-2.352a3.95 3.95 0 0 1 1.488-1.584 4.15 4.15 0 0 1 2.128-.56q1.152 0 2 .496.848.497 1.264 1.248v-1.6h1.472V265h-1.472v-1.632q-.432.768-1.296 1.28-.848.496-1.984.496a3.97 3.97 0 0 1-2.112-.576 4.05 4.05 0 0 1-1.488-1.616q-.544-1.04-.544-2.368m7.424.016q0-.992-.4-1.728a2.75 2.75 0 0 0-1.088-1.12 2.85 2.85 0 0 0-1.488-.4q-.816 0-1.488.384a2.8 2.8 0 0 0-1.072 1.12q-.4.736-.4 1.728 0 1.008.4 1.76.4.736 1.072 1.136.672.384 1.488.384t1.488-.384a2.86 2.86 0 0 0 1.088-1.136q.4-.752.4-1.744m4.685-5.792a.96.96 0 0 1-.704-.288.96.96 0 0 1-.288-.704q0-.416.288-.704a.96.96 0 0 1 .704-.288.9.9 0 0 1 .672.288.96.96 0 0 1 .288.704.96.96 0 0 1-.288.704.9.9 0 0 1-.672.288m.704 1.424V265h-1.456v-8.768zm3.937-3.072V265h-1.456v-11.84zm2.946 11.936a.96.96 0 0 1-.704-.288.96.96 0 0 1-.288-.704q0-.416.288-.704a.96.96 0 0 1 .704-.288.9.9 0 0 1 .672.288.96.96 0 0 1 .288.704.96.96 0 0 1-.288.704.9.9 0 0 1-.672.288m2.351-4.496q0-1.36.544-2.368a3.9 3.9 0 0 1 1.504-1.584q.976-.56 2.224-.56 1.616 0 2.656.784 1.056.784 1.392 2.176h-1.568a2.24 2.24 0 0 0-.88-1.264q-.64-.464-1.6-.464-1.248 0-2.016.864-.768.848-.768 2.416 0 1.584.768 2.448t2.016.864q.96 0 1.6-.448t.88-1.28h1.568q-.352 1.344-1.408 2.16-1.056.8-2.64.8-1.248 0-2.224-.56a3.9 3.9 0 0 1-1.504-1.584q-.544-1.024-.544-2.4m14.087 4.544a4.54 4.54 0 0 1-2.24-.56 4.06 4.06 0 0 1-1.568-1.584q-.56-1.04-.56-2.4 0-1.344.576-2.368a4 4 0 0 1 1.6-1.584q1.008-.56 2.256-.56t2.256.56q1.008.544 1.584 1.568.592 1.024.592 2.384t-.608 2.4a4.1 4.1 0 0 1-1.616 1.584q-1.024.56-2.272.56m0-1.28q.783 0 1.472-.368a2.75 2.75 0 0 0 1.104-1.104q.432-.736.432-1.792t-.416-1.792-1.088-1.088a3 3 0 0 0-1.456-.368q-.8 0-1.472.368-.657.352-1.056 1.088-.4.736-.4 1.792 0 1.072.384 1.808.399.736 1.056 1.104.656.352 1.44.352m16.954-7.792q1.024 0 1.824.432.8.416 1.264 1.264t.464 2.064V265h-1.44v-4.96q0-1.312-.656-2-.64-.704-1.744-.704-1.136 0-1.808.736-.672.72-.672 2.096V265h-1.44v-4.96q0-1.312-.656-2-.64-.704-1.744-.704-1.136 0-1.808.736-.672.72-.672 2.096V265h-1.456v-8.768h1.456v1.264a2.9 2.9 0 0 1 1.152-1.056 3.6 3.6 0 0 1 1.616-.368q1.104 0 1.952.496t1.264 1.456a2.87 2.87 0 0 1 1.216-1.44 3.6 3.6 0 0 1 1.888-.512" opacity=".5"/><path fill="#000" d="M480.824 217.52h-4.864l-.896 2.48h-1.536l4.032-11.088h1.68L483.256 220h-1.536zm-.416-1.184-2.016-5.632-2.016 5.632zm4.061-.752q0-1.344.544-2.352a3.95 3.95 0 0 1 1.488-1.584 4.2 4.2 0 0 1 2.144-.56q1.025 0 1.904.48.88.464 1.344 1.232v-4.64h1.472V220h-1.472v-1.648q-.432.785-1.28 1.296-.847.496-1.984.496a4.06 4.06 0 0 1-2.128-.576 4.05 4.05 0 0 1-1.488-1.616q-.543-1.04-.544-2.368m7.424.016q0-.992-.4-1.728a2.75 2.75 0 0 0-1.088-1.12 2.85 2.85 0 0 0-1.488-.4q-.816 0-1.488.384a2.8 2.8 0 0 0-1.072 1.12q-.4.737-.4 1.728 0 1.008.4 1.76.4.736 1.072 1.136.672.384 1.488.384t1.488-.384a2.86 2.86 0 0 0 1.088-1.136q.4-.752.4-1.744m3.389-.016q0-1.344.544-2.352a3.94 3.94 0 0 1 1.488-1.584 4.2 4.2 0 0 1 2.144-.56q1.023 0 1.904.48.879.464 1.344 1.232v-4.64h1.472V220h-1.472v-1.648q-.432.785-1.28 1.296-.849.496-1.984.496a4.06 4.06 0 0 1-2.128-.576 4.03 4.03 0 0 1-1.488-1.616q-.544-1.04-.544-2.368m7.424.016q0-.992-.4-1.728a2.76 2.76 0 0 0-1.088-1.12 2.85 2.85 0 0 0-1.488-.4q-.816 0-1.488.384a2.8 2.8 0 0 0-1.072 1.12q-.4.737-.4 1.728 0 1.008.4 1.76.4.736 1.072 1.136.672.384 1.488.384t1.488-.384a2.87 2.87 0 0 0 1.088-1.136q.4-.752.4-1.744m5.388-2.944a2.8 2.8 0 0 1 1.088-1.168q.72-.416 1.744-.416v1.504h-.384q-2.448 0-2.448 2.656V220h-1.456v-8.768h1.456zm12.513 2.624q0 .416-.048.88h-7.008q.08 1.296.88 2.032.816.72 1.968.72.944 0 1.568-.432.64-.448.896-1.184h1.568a3.8 3.8 0 0 1-1.408 2.064q-1.056.784-2.624.784-1.248 0-2.24-.56a4 4 0 0 1-1.536-1.584q-.56-1.04-.56-2.4t.544-2.384a3.8 3.8 0 0 1 1.52-1.568q.992-.56 2.272-.56 1.248 0 2.208.544a3.7 3.7 0 0 1 1.472 1.504q.528.944.528 2.144m-1.504-.304q0-.832-.368-1.424a2.3 2.3 0 0 0-1.008-.912 3 3 0 0 0-1.392-.32q-1.104 0-1.888.704-.768.704-.88 1.952zm6.53 5.168q-1.008 0-1.808-.336-.8-.352-1.264-.96a2.6 2.6 0 0 1-.512-1.424h1.504q.064.656.608 1.072.56.416 1.456.416.832 0 1.312-.368t.48-.928q0-.576-.512-.848-.511-.288-1.584-.56a13 13 0 0 1-1.6-.512 3 3 0 0 1-1.056-.784q-.432-.528-.432-1.376 0-.672.4-1.232t1.136-.88q.737-.336 1.68-.336 1.457 0 2.352.736t.96 2.016h-1.456a1.5 1.5 0 0 0-.56-1.104q-.497-.416-1.344-.416-.784 0-1.248.336t-.464.88q0 .432.272.72.288.272.704.448.432.16 1.184.368.943.256 1.536.512.592.24 1.008.736.432.497.448 1.296 0 .72-.4 1.296t-1.136.912q-.72.32-1.664.32m8.359 0q-1.007 0-1.808-.336-.8-.352-1.264-.96a2.6 2.6 0 0 1-.512-1.424h1.504q.065.656.608 1.072.56.416 1.456.416.832 0 1.312-.368t.48-.928a.9.9 0 0 0-.512-.848q-.511-.288-1.584-.56a13 13 0 0 1-1.6-.512 3 3 0 0 1-1.056-.784q-.432-.528-.432-1.376 0-.672.4-1.232t1.136-.88q.737-.336 1.68-.336 1.457 0 2.352.736.897.736.96 2.016h-1.456q-.048-.689-.56-1.104-.495-.416-1.344-.416-.783 0-1.248.336t-.464.88q0 .432.272.72.288.272.704.448.432.16 1.184.368.945.256 1.536.512.592.24 1.008.736.433.497.448 1.296 0 .72-.4 1.296t-1.136.912q-.72.32-1.664.32"/><rect width="330" height="50" x="473" y="234" fill="#F5F5F5" rx="4"/><path fill="#000" d="m496.28 265-4.592-5.088V265h-1.456v-11.152h1.456v5.168l4.608-5.168h1.84l-5.056 5.584 5.104 5.568zm4.282-10.192a.96.96 0 0 1-.704-.288.96.96 0 0 1-.288-.704q0-.416.288-.704a.96.96 0 0 1 .704-.288q.4 0 .672.288a.96.96 0 0 1 .288.704.96.96 0 0 1-.288.704.9.9 0 0 1-.672.288m.704 1.424V265h-1.456v-8.768zm6.754-.16q1.599 0 2.592.976.992.96.992 2.784V265h-1.44v-4.96q0-1.312-.656-2-.657-.704-1.792-.704-1.153 0-1.84.72-.672.72-.672 2.096V265h-1.456v-8.768h1.456v1.248a2.9 2.9 0 0 1 1.168-1.04 3.7 3.7 0 0 1 1.648-.368m9.578.016q1.136 0 1.984.496.864.497 1.28 1.248v-1.6h1.472v8.96q0 1.2-.512 2.128a3.6 3.6 0 0 1-1.472 1.472q-.943.528-2.208.528-1.728 0-2.88-.816t-1.36-2.224h1.44q.24.8.992 1.28.752.496 1.808.496 1.2 0 1.952-.752.768-.751.768-2.112v-1.84q-.432.768-1.28 1.28t-1.984.512a4.06 4.06 0 0 1-2.128-.576 4.05 4.05 0 0 1-1.488-1.616q-.544-1.04-.544-2.368 0-1.344.544-2.352a3.95 3.95 0 0 1 1.488-1.584 4.15 4.15 0 0 1 2.128-.56m3.264 4.512q0-.992-.4-1.728a2.75 2.75 0 0 0-1.088-1.12 2.85 2.85 0 0 0-1.488-.4q-.816 0-1.488.384a2.8 2.8 0 0 0-1.072 1.12q-.4.736-.4 1.728 0 1.008.4 1.76.4.736 1.072 1.136.672.384 1.488.384t1.488-.384a2.86 2.86 0 0 0 1.088-1.136q.4-.752.4-1.744m7.037 4.544q-1.008 0-1.808-.336-.8-.352-1.264-.96a2.6 2.6 0 0 1-.512-1.424h1.504q.063.656.608 1.072.56.416 1.456.416.832 0 1.312-.368t.48-.928q0-.576-.512-.848-.513-.288-1.584-.56a13 13 0 0 1-1.6-.512 3 3 0 0 1-1.056-.784q-.432-.528-.432-1.376 0-.672.4-1.232t1.136-.88q.735-.336 1.68-.336 1.455 0 2.352.736.895.736.96 2.016h-1.456a1.5 1.5 0 0 0-.56-1.104q-.497-.416-1.344-.416-.784 0-1.248.336-.465.336-.464.88 0 .432.272.72.288.272.704.448.432.16 1.184.368.943.256 1.536.512.591.24 1.008.736.432.497.448 1.296 0 .72-.4 1.296t-1.136.912q-.72.32-1.664.32m7.031-7.712v5.168q0 .64.272.912.272.256.944.256h1.072V265h-1.312q-1.216 0-1.824-.56t-.608-1.84v-5.168h-1.136v-1.2h1.136v-2.208h1.456v2.208h2.288v1.2zm7.876 7.712a4.54 4.54 0 0 1-2.24-.56 4.07 4.07 0 0 1-1.568-1.584q-.56-1.04-.56-2.4 0-1.344.576-2.368a4 4 0 0 1 1.6-1.584q1.008-.56 2.256-.56t2.256.56q1.008.544 1.584 1.568.592 1.024.592 2.384t-.608 2.4a4.1 4.1 0 0 1-1.616 1.584q-1.024.56-2.272.56m0-1.28q.784 0 1.472-.368a2.74 2.74 0 0 0 1.104-1.104q.432-.736.432-1.792t-.416-1.792-1.088-1.088a3 3 0 0 0-1.456-.368q-.8 0-1.472.368-.655.352-1.056 1.088-.4.736-.4 1.792 0 1.072.384 1.808.4.736 1.056 1.104.656.352 1.44.352m10.682-7.792q1.6 0 2.592.976.992.96.992 2.784V265h-1.44v-4.96q0-1.312-.656-2-.655-.704-1.792-.704-1.152 0-1.84.72-.672.72-.672 2.096V265h-1.456v-8.768h1.456v1.248a2.9 2.9 0 0 1 1.168-1.04 3.7 3.7 0 0 1 1.648-.368m7.467 6.912-1.792 4.304h-.976l1.168-4.304zm13.069-8.288h-5.616v3.648q.368-.512 1.088-.832.72-.336 1.552-.336 1.329 0 2.16.56.833.544 1.184 1.424.369.864.368 1.84 0 1.152-.432 2.064a3.26 3.26 0 0 1-1.328 1.44q-.88.528-2.192.528-1.68 0-2.72-.864t-1.264-2.304h1.424q.208.912.88 1.424.673.512 1.696.512 1.265 0 1.904-.752.64-.768.64-2.016t-.64-1.92q-.64-.688-1.888-.688-.848 0-1.488.416-.624.4-.912 1.104h-1.376v-6.528h6.96zm2.495 9.136q2.032-1.632 3.184-2.672a13 13 0 0 0 1.936-2.192q.8-1.152.8-2.256 0-1.04-.512-1.632-.496-.608-1.616-.608-1.088 0-1.696.688-.592.672-.64 1.808h-1.408q.064-1.792 1.088-2.768t2.64-.976q1.648 0 2.608.912.976.912.976 2.512 0 1.327-.8 2.592a11.4 11.4 0 0 1-1.792 2.208 47 47 0 0 1-2.576 2.208h5.504v1.216h-7.696zm9.347-7.488q.113-1.471 1.136-2.304 1.024-.832 2.656-.832 1.089 0 1.872.4.801.384 1.2 1.056.417.672.416 1.52 0 .992-.576 1.712-.56.72-1.472.928v.08q1.04.256 1.648 1.008.608.751.608 1.968 0 .912-.416 1.648-.416.72-1.248 1.136-.831.416-2 .416-1.695 0-2.784-.88-1.087-.896-1.216-2.528h1.408q.112.96.784 1.568.673.608 1.792.608 1.12 0 1.696-.576.592-.592.592-1.52 0-1.2-.8-1.728t-2.416-.528h-.368v-1.216h.384q1.473-.017 2.224-.48.753-.48.752-1.472 0-.848-.56-1.36-.543-.512-1.568-.512-.991 0-1.6.512-.607.512-.72 1.376zm15.902-.16q-.352-1.776-2.192-1.776-1.424 0-2.128 1.104-.704 1.088-.688 3.6.368-.833 1.216-1.296a3.9 3.9 0 0 1 1.92-.48q1.648 0 2.624 1.024.992 1.024.992 2.832 0 1.088-.432 1.952a3.2 3.2 0 0 1-1.28 1.376q-.848.512-2.064.512-1.648 0-2.576-.736t-1.296-2.032-.368-3.2q0-5.872 4.096-5.872 1.568 0 2.464.848t1.056 2.144zm-2.176 2.384q-.688 0-1.296.288a2.3 2.3 0 0 0-.992.848q-.368.56-.368 1.376 0 1.216.704 1.984.704.752 2.016.752 1.12 0 1.776-.688.672-.704.672-1.888 0-1.248-.64-1.952-.64-.72-1.872-.72m7.628 4.416-1.792 4.304h-.976l1.168-4.304zm7.358-9.136v7.056q0 1.488.72 2.208.736.72 2.032.72 1.28 0 2-.72.736-.72.736-2.208v-7.056h1.456v7.04q0 1.392-.56 2.352a3.5 3.5 0 0 1-1.52 1.408q-.944.464-2.128.464t-2.144-.464a3.54 3.54 0 0 1-1.504-1.408q-.544-.96-.544-2.352v-7.04zm13.645 2.224q1.599 0 2.592.976.992.96.992 2.784V265h-1.44v-4.96q0-1.312-.656-2-.657-.704-1.792-.704-1.152 0-1.84.72-.672.72-.672 2.096V265h-1.456v-8.768h1.456v1.248a2.9 2.9 0 0 1 1.168-1.04 3.7 3.7 0 0 1 1.648-.368m6.714-1.264a.96.96 0 0 1-.704-.288.96.96 0 0 1-.288-.704q0-.416.288-.704a.96.96 0 0 1 .704-.288q.4 0 .672.288a.96.96 0 0 1 .288.704.96.96 0 0 1-.288.704.9.9 0 0 1-.672.288m.704 1.424V265h-1.456v-8.768zm4.258 1.2v5.168q0 .64.272.912.272.256.944.256h1.072V265h-1.312q-1.216 0-1.824-.56t-.608-1.84v-5.168h-1.136v-1.2h1.136v-2.208h1.456v2.208h2.288v1.2zm12.052 2.848q0 .416-.048.88h-7.008q.08 1.296.88 2.032.816.72 1.968.72.944 0 1.568-.432.64-.448.896-1.184h1.568a3.8 3.8 0 0 1-1.408 2.064q-1.056.784-2.624.784-1.248 0-2.24-.56a4 4 0 0 1-1.536-1.584q-.56-1.04-.56-2.4t.544-2.384a3.8 3.8 0 0 1 1.52-1.568q.991-.56 2.272-.56 1.248 0 2.208.544t1.472 1.504q.528.944.528 2.144m-1.504-.304q0-.832-.368-1.424a2.33 2.33 0 0 0-1.008-.912 3 3 0 0 0-1.392-.32q-1.105 0-1.888.704-.769.704-.88 1.952zm2.882.608q0-1.344.544-2.352a3.94 3.94 0 0 1 1.488-1.584 4.2 4.2 0 0 1 2.144-.56q1.023 0 1.904.48.879.464 1.344 1.232v-4.64h1.472V265h-1.472v-1.648q-.432.784-1.28 1.296-.849.496-1.984.496a4.06 4.06 0 0 1-2.128-.576 4.03 4.03 0 0 1-1.488-1.616q-.544-1.04-.544-2.368m7.424.016q0-.992-.4-1.728a2.76 2.76 0 0 0-1.088-1.12 2.85 2.85 0 0 0-1.488-.4q-.816 0-1.488.384a2.8 2.8 0 0 0-1.072 1.12q-.4.736-.4 1.728 0 1.008.4 1.76.4.736 1.072 1.136.672.384 1.488.384t1.488-.384a2.87 2.87 0 0 0 1.088-1.136q.4-.752.4-1.744m11.734 4.512q-1.105 0-1.984-.384-.865-.4-1.36-1.088a2.8 2.8 0 0 1-.512-1.616h1.552q.08.784.64 1.328.576.528 1.664.528 1.04 0 1.632-.512.608-.528.608-1.344 0-.64-.352-1.04a2.25 2.25 0 0 0-.88-.608 14 14 0 0 0-1.424-.448q-1.104-.288-1.776-.576a2.95 2.95 0 0 1-1.136-.896q-.465-.624-.464-1.664 0-.912.464-1.616a3.03 3.03 0 0 1 1.296-1.088q.847-.384 1.936-.384 1.567 0 2.56.784 1.007.784 1.136 2.08h-1.6q-.081-.64-.672-1.12-.593-.496-1.568-.496-.912 0-1.488.48-.576.464-.576 1.312 0 .608.336.992.351.384.848.592.512.192 1.424.448 1.104.304 1.776.608.672.288 1.152.912.48.608.48 1.664 0 .816-.432 1.536t-1.28 1.168-2 .448m7.63-7.68v5.168q0 .64.272.912.273.256.944.256h1.072V265h-1.312q-1.215 0-1.824-.56-.608-.56-.608-1.84v-5.168h-1.136v-1.2h1.136v-2.208h1.456v2.208h2.288v1.2zm3.509 3.152q0-1.344.544-2.352a3.94 3.94 0 0 1 1.488-1.584 4.15 4.15 0 0 1 2.128-.56q1.151 0 2 .496.847.497 1.264 1.248v-1.6h1.472V265h-1.472v-1.632q-.432.768-1.296 1.28-.849.496-1.984.496a3.97 3.97 0 0 1-2.112-.576 4.03 4.03 0 0 1-1.488-1.616q-.544-1.04-.544-2.368m7.424.016q0-.992-.4-1.728a2.76 2.76 0 0 0-1.088-1.12 2.85 2.85 0 0 0-1.488-.4q-.816 0-1.488.384a2.8 2.8 0 0 0-1.072 1.12q-.4.736-.4 1.728 0 1.008.4 1.76.4.736 1.072 1.136.672.384 1.488.384t1.488-.384a2.87 2.87 0 0 0 1.088-1.136q.4-.752.4-1.744m5.708-3.168v5.168q0 .64.272.912.272.256.944.256h1.072V265h-1.312q-1.216 0-1.824-.56t-.608-1.84v-5.168h-1.136v-1.2h1.136v-2.208h1.456v2.208h2.288v1.2zm12.052 2.848q0 .416-.048.88h-7.008q.08 1.296.88 2.032.816.72 1.968.72.944 0 1.568-.432.64-.448.896-1.184h1.568a3.8 3.8 0 0 1-1.408 2.064q-1.056.784-2.624.784-1.248 0-2.24-.56a4 4 0 0 1-1.536-1.584q-.56-1.04-.56-2.4t.544-2.384a3.8 3.8 0 0 1 1.52-1.568q.992-.56 2.272-.56 1.248 0 2.208.544a3.7 3.7 0 0 1 1.472 1.504q.528.944.528 2.144m-1.504-.304q0-.832-.368-1.424a2.3 2.3 0 0 0-1.008-.912 3 3 0 0 0-1.392-.32q-1.104 0-1.888.704-.768.704-.88 1.952z" opacity=".5"/><path fill="#000" d="M101.688 318.112q0 1.392-.96 2.32-.944.912-2.896.912h-2.144V326h-1.456v-11.152h3.6q1.888 0 2.864.912.992.912.992 2.352m-3.856 2.032q1.215 0 1.792-.528.576-.528.576-1.504 0-2.064-2.368-2.064h-2.144v4.096zm5.122 1.44q0-1.344.544-2.352a3.94 3.94 0 0 1 1.488-1.584 4.15 4.15 0 0 1 2.128-.56q1.151 0 2 .496.847.497 1.264 1.248v-1.6h1.472V326h-1.472v-1.632q-.432.768-1.296 1.28-.849.496-1.984.496a3.97 3.97 0 0 1-2.112-.576 4.03 4.03 0 0 1-1.488-1.616q-.544-1.04-.544-2.368m7.424.016q0-.992-.4-1.728a2.76 2.76 0 0 0-1.088-1.12 2.85 2.85 0 0 0-1.488-.4q-.816 0-1.488.384a2.8 2.8 0 0 0-1.072 1.12q-.4.736-.4 1.728 0 1.008.4 1.76.4.736 1.072 1.136.672.384 1.488.384t1.488-.384a2.87 2.87 0 0 0 1.088-1.136q.4-.752.4-1.744m7.036 4.544q-1.008 0-1.808-.336-.8-.352-1.264-.96a2.6 2.6 0 0 1-.512-1.424h1.504q.064.656.608 1.072.56.416 1.456.416.832 0 1.312-.368t.48-.928q0-.576-.512-.848-.511-.288-1.584-.56a13 13 0 0 1-1.6-.512 3 3 0 0 1-1.056-.784q-.432-.528-.432-1.376 0-.672.4-1.232t1.136-.88q.736-.336 1.68-.336 1.457 0 2.352.736t.96 2.016h-1.456a1.5 1.5 0 0 0-.56-1.104q-.497-.416-1.344-.416-.784 0-1.248.336t-.464.88q0 .432.272.72.288.272.704.448.432.16 1.184.368.944.256 1.536.512.592.24 1.008.736.432.497.448 1.296 0 .72-.4 1.296t-1.136.912q-.72.32-1.664.32m8.36 0q-1.008 0-1.808-.336-.8-.352-1.264-.96a2.6 2.6 0 0 1-.512-1.424h1.504q.063.656.608 1.072.56.416 1.456.416.832 0 1.312-.368t.48-.928q0-.576-.512-.848-.513-.288-1.584-.56a13 13 0 0 1-1.6-.512 3 3 0 0 1-1.056-.784q-.432-.528-.432-1.376 0-.672.4-1.232t1.136-.88q.735-.336 1.68-.336 1.455 0 2.352.736.895.736.96 2.016h-1.456a1.5 1.5 0 0 0-.56-1.104q-.496-.416-1.344-.416-.784 0-1.248.336-.465.336-.464.88 0 .432.272.72.287.272.704.448.431.16 1.184.368.944.256 1.536.512.591.24 1.008.736.432.497.448 1.296 0 .72-.4 1.296t-1.136.912q-.72.32-1.664.32m16.935-8.912L139.973 326h-1.504l-2.112-6.96-2.112 6.96h-1.504l-2.752-8.768h1.488l2.016 7.36 2.176-7.36h1.488l2.128 7.376 1.984-7.376zm5.269 8.912a4.54 4.54 0 0 1-2.24-.56A4.07 4.07 0 0 1 144.17 324q-.56-1.04-.56-2.4 0-1.344.576-2.368a4 4 0 0 1 1.6-1.584q1.008-.56 2.256-.56t2.256.56q1.008.544 1.584 1.568.592 1.024.592 2.384t-.608 2.4a4.1 4.1 0 0 1-1.616 1.584q-1.024.56-2.272.56m0-1.28q.784 0 1.472-.368a2.74 2.74 0 0 0 1.104-1.104q.432-.736.432-1.792t-.416-1.792-1.088-1.088a3 3 0 0 0-1.456-.368q-.8 0-1.472.368-.655.352-1.056 1.088-.4.736-.4 1.792 0 1.072.384 1.808.4.736 1.056 1.104.656.352 1.44.352m7.866-6.208a2.8 2.8 0 0 1 1.088-1.168q.72-.416 1.744-.416v1.504h-.384q-2.448 0-2.448 2.656V326h-1.456v-8.768h1.456zm3.969 2.928q0-1.344.544-2.352a3.95 3.95 0 0 1 1.488-1.584 4.2 4.2 0 0 1 2.144-.56q1.024 0 1.904.48.88.464 1.344 1.232v-4.64h1.472V326h-1.472v-1.648q-.432.784-1.28 1.296-.848.496-1.984.496a4.06 4.06 0 0 1-2.128-.576 4.05 4.05 0 0 1-1.488-1.616q-.544-1.04-.544-2.368m7.424.016q0-.992-.4-1.728a2.75 2.75 0 0 0-1.088-1.12 2.85 2.85 0 0 0-1.488-.4q-.816 0-1.488.384a2.8 2.8 0 0 0-1.072 1.12q-.4.736-.4 1.728 0 1.008.4 1.76.4.736 1.072 1.136.672.384 1.488.384t1.488-.384a2.86 2.86 0 0 0 1.088-1.136q.4-.752.4-1.744m7.654-1.184q0-1.632.736-2.928a5.35 5.35 0 0 1 2-2.048q1.28-.736 2.832-.736 1.824 0 3.184.88t1.984 2.496h-1.744q-.464-1.008-1.344-1.552-.864-.544-2.08-.544-1.168 0-2.096.544a3.8 3.8 0 0 0-1.456 1.552q-.528.992-.528 2.336 0 1.328.528 2.336a3.8 3.8 0 0 0 1.456 1.536q.928.544 2.096.544 1.216 0 2.08-.528.88-.544 1.344-1.552h1.744q-.624 1.6-1.984 2.48-1.36.864-3.184.864-1.553 0-2.832-.72a5.4 5.4 0 0 1-2-2.032q-.736-1.296-.736-2.928m17.256-3.344q.991 0 1.792.432a2.92 2.92 0 0 1 1.248 1.264q.464.848.464 2.064V326h-1.44v-4.96q0-1.312-.656-2-.657-.704-1.792-.704-1.153 0-1.84.72-.672.72-.672 2.096V326h-1.456v-11.84h1.456v4.32a2.87 2.87 0 0 1 1.184-1.04 3.9 3.9 0 0 1 1.712-.368m5.338 4.512q0-1.344.544-2.352a3.95 3.95 0 0 1 1.488-1.584 4.15 4.15 0 0 1 2.128-.56q1.152 0 2 .496.848.497 1.264 1.248v-1.6h1.472V326h-1.472v-1.632q-.432.768-1.296 1.28-.848.496-1.984.496a3.97 3.97 0 0 1-2.112-.576 4.05 4.05 0 0 1-1.488-1.616q-.544-1.04-.544-2.368m7.424.016q0-.992-.4-1.728a2.75 2.75 0 0 0-1.088-1.12 2.85 2.85 0 0 0-1.488-.4q-.816 0-1.488.384a2.8 2.8 0 0 0-1.072 1.12q-.4.736-.4 1.728 0 1.008.4 1.76.4.736 1.072 1.136.672.384 1.488.384t1.488-.384a2.86 2.86 0 0 0 1.088-1.136q.4-.752.4-1.744m8.204-4.528q1.6 0 2.592.976.993.96.992 2.784V326h-1.44v-4.96q0-1.312-.656-2-.655-.704-1.792-.704-1.152 0-1.84.72-.672.72-.672 2.096V326h-1.456v-8.768h1.456v1.248a2.9 2.9 0 0 1 1.168-1.04 3.7 3.7 0 0 1 1.648-.368m9.579.016q1.135 0 1.984.496.863.497 1.28 1.248v-1.6h1.472v8.96q0 1.2-.512 2.128a3.63 3.63 0 0 1-1.472 1.472q-.945.528-2.208.528-1.728 0-2.88-.816-1.153-.816-1.36-2.224h1.44q.24.8.992 1.28.752.496 1.808.496 1.2 0 1.952-.752.768-.751.768-2.112v-1.84q-.432.768-1.28 1.28t-1.984.512a4.06 4.06 0 0 1-2.128-.576 4.03 4.03 0 0 1-1.488-1.616q-.544-1.04-.544-2.368 0-1.344.544-2.352a3.94 3.94 0 0 1 1.488-1.584 4.15 4.15 0 0 1 2.128-.56m3.264 4.512q0-.992-.4-1.728a2.76 2.76 0 0 0-1.088-1.12 2.85 2.85 0 0 0-1.488-.4q-.816 0-1.488.384a2.8 2.8 0 0 0-1.072 1.12q-.4.736-.4 1.728 0 1.008.4 1.76.4.736 1.072 1.136.672.384 1.488.384t1.488-.384a2.87 2.87 0 0 0 1.088-1.136q.4-.752.4-1.744m11.932-.32q0 .416-.048.88h-7.008q.08 1.296.88 2.032.816.72 1.968.72.945 0 1.568-.432.64-.448.896-1.184h1.568a3.8 3.8 0 0 1-1.408 2.064q-1.056.784-2.624.784-1.247 0-2.24-.56a4 4 0 0 1-1.536-1.584q-.56-1.04-.56-2.4t.544-2.384a3.8 3.8 0 0 1 1.52-1.568q.993-.56 2.272-.56 1.248 0 2.208.544a3.7 3.7 0 0 1 1.472 1.504q.528.944.528 2.144m-1.504-.304q0-.832-.368-1.424a2.3 2.3 0 0 0-1.008-.912 3 3 0 0 0-1.392-.32q-1.104 0-1.888.704-.768.704-.88 1.952zm6.53 5.168q-1.008 0-1.808-.336-.8-.352-1.264-.96a2.6 2.6 0 0 1-.512-1.424h1.504q.064.656.608 1.072.56.416 1.456.416.832 0 1.312-.368t.48-.928q0-.576-.512-.848-.512-.288-1.584-.56a13 13 0 0 1-1.6-.512 3 3 0 0 1-1.056-.784q-.432-.528-.432-1.376 0-.672.4-1.232t1.136-.88q.737-.336 1.68-.336 1.457 0 2.352.736.896.736.96 2.016h-1.456a1.5 1.5 0 0 0-.56-1.104q-.496-.416-1.344-.416-.785 0-1.248.336-.464.336-.464.88 0 .432.272.72.288.272.704.448.432.16 1.184.368.943.256 1.536.512.593.24 1.008.736.432.497.448 1.296 0 .72-.4 1.296t-1.136.912q-.72.32-1.664.32"/><rect width="710" height="50" x="93" y="340" fill="#F5F5F5" rx="4"/><path fill="#000" d="M109.688 365.416q0-1.632.736-2.928a5.35 5.35 0 0 1 2-2.048q1.28-.736 2.832-.736 1.824 0 3.184.88t1.984 2.496h-1.744q-.463-1.008-1.344-1.552-.864-.544-2.08-.544-1.168 0-2.096.544a3.8 3.8 0 0 0-1.456 1.552q-.528.992-.528 2.336 0 1.328.528 2.336a3.8 3.8 0 0 0 1.456 1.536q.928.544 2.096.544 1.216 0 2.08-.528.88-.544 1.344-1.552h1.744q-.624 1.6-1.984 2.48-1.36.864-3.184.864-1.552 0-2.832-.72a5.4 5.4 0 0 1-2-2.032q-.736-1.296-.736-2.928m20.679-3.184V371h-1.456v-1.296q-.415.672-1.168 1.056a3.6 3.6 0 0 1-1.632.368q-1.023 0-1.84-.416a3.2 3.2 0 0 1-1.296-1.28q-.464-.847-.464-2.064v-5.136h1.44v4.944q0 1.296.656 2 .657.688 1.792.688 1.168 0 1.84-.72t.672-2.096v-4.816zm3.915 1.424a2.8 2.8 0 0 1 1.088-1.168q.72-.416 1.744-.416v1.504h-.384q-2.448 0-2.448 2.656V371h-1.456v-8.768h1.456zm5.969 0a2.8 2.8 0 0 1 1.088-1.168q.72-.416 1.744-.416v1.504h-.384q-2.448 0-2.448 2.656V371h-1.456v-8.768h1.456zm12.512 2.624q0 .416-.048.88h-7.008q.08 1.296.88 2.032.816.72 1.968.72.944 0 1.568-.432.64-.448.896-1.184h1.568a3.8 3.8 0 0 1-1.408 2.064q-1.056.784-2.624.784-1.248 0-2.24-.56a4 4 0 0 1-1.536-1.584q-.56-1.04-.56-2.4t.544-2.384a3.8 3.8 0 0 1 1.52-1.568q.993-.56 2.272-.56 1.248 0 2.208.544a3.7 3.7 0 0 1 1.472 1.504q.528.944.528 2.144m-1.504-.304q0-.832-.368-1.424a2.3 2.3 0 0 0-1.008-.912 3 3 0 0 0-1.392-.32q-1.104 0-1.888.704-.768.704-.88 1.952zm7.698-3.904q1.6 0 2.592.976.992.96.992 2.784V371h-1.44v-4.96q0-1.312-.656-2-.656-.704-1.792-.704-1.152 0-1.84.72-.672.72-.672 2.096V371h-1.456v-8.768h1.456v1.248a2.9 2.9 0 0 1 1.168-1.04 3.7 3.7 0 0 1 1.648-.368m7.739 1.36v5.168q0 .64.272.912.272.256.943.256h1.073V371h-1.312q-1.217 0-1.824-.56-.608-.56-.608-1.84v-5.168h-1.136v-1.2h1.136v-2.208h1.456v2.208h2.288v1.2zm15.773-.32q0 1.392-.96 2.32-.943.912-2.896.912h-2.144V371h-1.456v-11.152h3.6q1.889 0 2.864.912.992.912.992 2.352m-3.856 2.032q1.216 0 1.792-.528t.576-1.504q0-2.064-2.368-2.064h-2.144v4.096zm5.122 1.44q0-1.344.544-2.352a3.95 3.95 0 0 1 1.488-1.584 4.15 4.15 0 0 1 2.128-.56q1.152 0 2 .496.848.497 1.264 1.248v-1.6h1.472V371h-1.472v-1.632q-.432.768-1.296 1.28-.848.496-1.984.496a3.97 3.97 0 0 1-2.112-.576 4.05 4.05 0 0 1-1.488-1.616q-.544-1.04-.544-2.368m7.424.016q0-.992-.4-1.728a2.75 2.75 0 0 0-1.088-1.12 2.85 2.85 0 0 0-1.488-.4q-.816 0-1.488.384a2.8 2.8 0 0 0-1.072 1.12q-.4.736-.4 1.728 0 1.008.4 1.76.4.736 1.072 1.136.672.384 1.488.384t1.488-.384a2.86 2.86 0 0 0 1.088-1.136q.4-.752.4-1.744m7.036 4.544q-1.008 0-1.808-.336-.8-.352-1.264-.96a2.6 2.6 0 0 1-.512-1.424h1.504q.065.656.608 1.072.56.416 1.456.416.832 0 1.312-.368t.48-.928a.9.9 0 0 0-.512-.848q-.512-.288-1.584-.56a13 13 0 0 1-1.6-.512 3 3 0 0 1-1.056-.784q-.432-.528-.432-1.376 0-.672.4-1.232t1.136-.88q.736-.336 1.68-.336 1.457 0 2.352.736.897.736.96 2.016h-1.456q-.048-.688-.56-1.104-.495-.416-1.344-.416-.783 0-1.248.336t-.464.88q0 .432.272.72.288.272.704.448.432.16 1.184.368.945.256 1.536.512.593.24 1.008.736.433.496.448 1.296 0 .72-.4 1.296t-1.136.912q-.72.32-1.664.32m8.36 0q-1.008 0-1.808-.336-.8-.352-1.264-.96a2.6 2.6 0 0 1-.512-1.424h1.504q.063.656.608 1.072.56.416 1.456.416.832 0 1.312-.368t.48-.928q0-.576-.512-.848-.513-.288-1.584-.56a13 13 0 0 1-1.6-.512 3 3 0 0 1-1.056-.784q-.432-.528-.432-1.376 0-.672.4-1.232t1.136-.88q.735-.336 1.68-.336 1.455 0 2.352.736.895.736.96 2.016h-1.456a1.5 1.5 0 0 0-.56-1.104q-.496-.416-1.344-.416-.784 0-1.248.336-.465.336-.464.88 0 .432.272.72.288.272.704.448.432.16 1.184.368.943.256 1.536.512.591.24 1.008.736.432.496.448 1.296 0 .72-.4 1.296t-1.136.912q-.72.32-1.664.32m16.935-8.912L220.754 371h-1.504l-2.112-6.96-2.112 6.96h-1.504l-2.752-8.768h1.488l2.016 7.36 2.176-7.36h1.488l2.128 7.376 1.984-7.376zm5.269 8.912a4.54 4.54 0 0 1-2.24-.56 4.07 4.07 0 0 1-1.568-1.584q-.56-1.04-.56-2.4 0-1.344.576-2.368a4 4 0 0 1 1.6-1.584q1.008-.56 2.256-.56t2.256.56q1.008.544 1.584 1.568.592 1.024.592 2.384t-.608 2.4a4.1 4.1 0 0 1-1.616 1.584q-1.024.56-2.272.56m0-1.28q.784 0 1.472-.368a2.74 2.74 0 0 0 1.104-1.104q.432-.736.432-1.792t-.416-1.792-1.088-1.088a3 3 0 0 0-1.456-.368q-.8 0-1.472.368-.656.352-1.056 1.088t-.4 1.792q0 1.072.384 1.808.4.736 1.056 1.104.656.352 1.44.352m5.867-3.28q0-1.344.544-2.352a3.94 3.94 0 0 1 1.488-1.584 4.2 4.2 0 0 1 2.144-.56q1.023 0 1.904.48.879.464 1.344 1.232v-4.64h1.472V371h-1.472v-1.648q-.432.784-1.28 1.296-.849.496-1.984.496a4.06 4.06 0 0 1-2.128-.576 4.03 4.03 0 0 1-1.488-1.616q-.544-1.04-.544-2.368m7.424.016q0-.992-.4-1.728a2.76 2.76 0 0 0-1.088-1.12 2.85 2.85 0 0 0-1.488-.4q-.816 0-1.488.384a2.8 2.8 0 0 0-1.072 1.12q-.4.736-.4 1.728 0 1.008.4 1.76.4.736 1.072 1.136.672.384 1.488.384t1.488-.384a2.87 2.87 0 0 0 1.088-1.136q.4-.752.4-1.744" opacity=".5"/><rect width="710" height="50" x="93" y="406" fill="#F5F5F5" rx="4"/><path fill="#000" d="M119 437h-1.456l-5.856-8.88V437h-1.456v-11.168h1.456l5.856 8.864v-8.864H119zm10.482-4.72q0 .416-.048.88h-7.008q.08 1.296.88 2.032.816.72 1.968.72.944 0 1.568-.432.64-.448.896-1.184h1.568a3.8 3.8 0 0 1-1.408 2.064q-1.056.784-2.624.784-1.248 0-2.24-.56a4 4 0 0 1-1.536-1.584q-.56-1.04-.56-2.4t.544-2.384a3.8 3.8 0 0 1 1.52-1.568q.992-.56 2.272-.56 1.248 0 2.208.544a3.7 3.7 0 0 1 1.472 1.504q.528.944.528 2.144m-1.504-.304q0-.832-.368-1.424a2.3 2.3 0 0 0-1.008-.912 3 3 0 0 0-1.392-.32q-1.104 0-1.888.704-.768.704-.88 1.952zm15.106-3.744L140.348 437h-1.504l-2.112-6.96-2.112 6.96h-1.504l-2.752-8.768h1.488l2.016 7.36 2.176-7.36h1.488l2.128 7.376 1.984-7.376zm13.167.88q0 1.392-.96 2.32-.945.912-2.896.912h-2.144V437h-1.456v-11.152h3.6q1.887 0 2.864.912.992.912.992 2.352m-3.856 2.032q1.215 0 1.792-.528.576-.528.576-1.504 0-2.064-2.368-2.064h-2.144v4.096zm5.121 1.44q0-1.344.544-2.352a3.95 3.95 0 0 1 1.488-1.584 4.15 4.15 0 0 1 2.128-.56q1.152 0 2 .496.848.497 1.264 1.248v-1.6h1.472V437h-1.472v-1.632q-.432.768-1.296 1.28-.848.496-1.984.496a3.97 3.97 0 0 1-2.112-.576 4.05 4.05 0 0 1-1.488-1.616q-.544-1.04-.544-2.368m7.424.016q0-.992-.4-1.728a2.75 2.75 0 0 0-1.088-1.12 2.85 2.85 0 0 0-1.488-.4q-.816 0-1.488.384a2.8 2.8 0 0 0-1.072 1.12q-.4.736-.4 1.728 0 1.008.4 1.76.4.736 1.072 1.136.672.384 1.488.384t1.488-.384a2.86 2.86 0 0 0 1.088-1.136q.4-.752.4-1.744m7.037 4.544q-1.008 0-1.808-.336-.8-.352-1.264-.96a2.6 2.6 0 0 1-.512-1.424h1.504q.063.656.608 1.072.56.416 1.456.416.832 0 1.312-.368t.48-.928q0-.576-.512-.848-.513-.288-1.584-.56a13 13 0 0 1-1.6-.512 3 3 0 0 1-1.056-.784q-.432-.528-.432-1.376 0-.672.4-1.232t1.136-.88q.735-.336 1.68-.336 1.455 0 2.352.736t.96 2.016h-1.456a1.5 1.5 0 0 0-.56-1.104q-.496-.416-1.344-.416-.784 0-1.248.336t-.464.88q0 .432.272.72.287.272.704.448.431.16 1.184.368.943.256 1.536.512.591.24 1.008.736.432.496.448 1.296 0 .72-.4 1.296t-1.136.912q-.72.32-1.664.32m8.359 0q-1.008 0-1.808-.336-.8-.352-1.264-.96a2.6 2.6 0 0 1-.512-1.424h1.504q.064.656.608 1.072.56.416 1.456.416.832 0 1.312-.368t.48-.928q0-.576-.512-.848-.512-.288-1.584-.56a13 13 0 0 1-1.6-.512 3 3 0 0 1-1.056-.784q-.432-.528-.432-1.376 0-.672.4-1.232t1.136-.88q.736-.336 1.68-.336 1.457 0 2.352.736t.96 2.016H182a1.5 1.5 0 0 0-.56-1.104q-.497-.416-1.344-.416-.784 0-1.248.336t-.464.88q0 .432.272.72.288.272.704.448.432.16 1.184.368.944.256 1.536.512.593.24 1.008.736.432.496.448 1.296 0 .72-.4 1.296t-1.136.912q-.72.32-1.664.32m16.935-8.912L194.535 437h-1.504l-2.112-6.96-2.112 6.96h-1.504l-2.752-8.768h1.488l2.016 7.36 2.176-7.36h1.488l2.128 7.376 1.984-7.376zm5.269 8.912a4.54 4.54 0 0 1-2.24-.56 4.07 4.07 0 0 1-1.568-1.584q-.56-1.04-.56-2.4 0-1.344.576-2.368a4 4 0 0 1 1.6-1.584q1.008-.56 2.256-.56t2.256.56q1.008.544 1.584 1.568.592 1.024.592 2.384t-.608 2.4a4.1 4.1 0 0 1-1.616 1.584q-1.024.56-2.272.56m0-1.28q.785 0 1.472-.368a2.74 2.74 0 0 0 1.104-1.104q.432-.736.432-1.792t-.416-1.792-1.088-1.088a3 3 0 0 0-1.456-.368q-.8 0-1.472.368-.655.352-1.056 1.088-.4.736-.4 1.792 0 1.072.384 1.808.4.736 1.056 1.104.657.352 1.44.352m5.867-3.28q0-1.344.544-2.352a3.94 3.94 0 0 1 1.488-1.584 4.2 4.2 0 0 1 2.144-.56q1.023 0 1.904.48.879.464 1.344 1.232v-4.64h1.472V437h-1.472v-1.648q-.432.784-1.28 1.296-.849.496-1.984.496a4.06 4.06 0 0 1-2.128-.576 4.03 4.03 0 0 1-1.488-1.616q-.544-1.04-.544-2.368m7.424.016q0-.992-.4-1.728a2.76 2.76 0 0 0-1.088-1.12 2.85 2.85 0 0 0-1.488-.4q-.816 0-1.488.384a2.8 2.8 0 0 0-1.072 1.12q-.4.736-.4 1.728 0 1.008.4 1.76.4.736 1.072 1.136.672.384 1.488.384t1.488-.384a2.87 2.87 0 0 0 1.088-1.136q.4-.752.4-1.744" opacity=".5"/><rect width="710" height="50" x="93" y="472" fill="#F5F5F5" rx="4"/><path fill="#000" d="M109.688 497.416q0-1.632.736-2.928a5.35 5.35 0 0 1 2-2.048q1.28-.736 2.832-.736 1.824 0 3.184.88t1.984 2.496h-1.744q-.463-1.008-1.344-1.552-.864-.544-2.08-.544-1.168 0-2.096.544a3.8 3.8 0 0 0-1.456 1.552q-.528.992-.528 2.336 0 1.328.528 2.336a3.8 3.8 0 0 0 1.456 1.536q.928.544 2.096.544 1.216 0 2.08-.528.88-.544 1.344-1.552h1.744q-.624 1.6-1.984 2.48-1.36.864-3.184.864-1.552 0-2.832-.72a5.4 5.4 0 0 1-2-2.032q-.736-1.296-.736-2.928m16.727 5.728a4.54 4.54 0 0 1-2.24-.56 4.07 4.07 0 0 1-1.568-1.584q-.56-1.04-.56-2.4 0-1.344.576-2.368a4 4 0 0 1 1.6-1.584q1.008-.56 2.256-.56t2.256.56q1.008.544 1.584 1.568.592 1.024.592 2.384t-.608 2.4a4.1 4.1 0 0 1-1.616 1.584q-1.023.56-2.272.56m0-1.28q.785 0 1.472-.368a2.74 2.74 0 0 0 1.104-1.104q.432-.736.432-1.792t-.416-1.792-1.088-1.088a3 3 0 0 0-1.456-.368q-.8 0-1.472.368-.655.352-1.056 1.088-.4.736-.4 1.792 0 1.072.384 1.808.4.736 1.056 1.104.657.352 1.44.352m10.683-7.792q1.599 0 2.592.976.992.96.992 2.784V503h-1.44v-4.96q0-1.312-.656-2-.657-.704-1.792-.704-1.153 0-1.84.72-.672.72-.672 2.096V503h-1.456v-8.768h1.456v1.248a2.9 2.9 0 0 1 1.168-1.04 3.7 3.7 0 0 1 1.648-.368m9.53 1.36h-1.84V503h-1.456v-7.568h-1.136v-1.2h1.136v-.624q0-1.472.752-2.144.768-.688 2.448-.688v1.216q-.96 0-1.36.384-.384.368-.384 1.232v.624h1.84zm2.45-2.624a.96.96 0 0 1-.704-.288.96.96 0 0 1-.288-.704q0-.416.288-.704a.96.96 0 0 1 .704-.288.9.9 0 0 1 .672.288.96.96 0 0 1 .288.704.96.96 0 0 1-.288.704.9.9 0 0 1-.672.288m.704 1.424V503h-1.456v-8.768zm3.937 1.424a2.8 2.8 0 0 1 1.088-1.168q.72-.416 1.744-.416v1.504h-.384q-2.448 0-2.448 2.656V503h-1.456v-8.768h1.456zm15.057-1.584q1.024 0 1.824.432.8.416 1.264 1.264.464.847.464 2.064V503h-1.44v-4.96q0-1.312-.656-2-.64-.704-1.744-.704-1.136 0-1.808.736-.672.72-.672 2.096V503h-1.44v-4.96q0-1.312-.656-2-.64-.704-1.744-.704-1.136 0-1.808.736-.672.72-.672 2.096V503h-1.456v-8.768h1.456v1.264a2.9 2.9 0 0 1 1.152-1.056 3.6 3.6 0 0 1 1.616-.368q1.104 0 1.952.496t1.264 1.456a2.87 2.87 0 0 1 1.216-1.44 3.6 3.6 0 0 1 1.888-.512M187.75 503h-1.456l-5.856-8.88V503h-1.456v-11.168h1.456l5.856 8.864v-8.864h1.456zm10.482-4.72q0 .416-.048.88h-7.008q.08 1.296.88 2.032.816.72 1.968.72.944 0 1.568-.432.64-.448.896-1.184h1.568a3.8 3.8 0 0 1-1.408 2.064q-1.056.784-2.624.784-1.248 0-2.24-.56a4 4 0 0 1-1.536-1.584q-.56-1.04-.56-2.4t.544-2.384a3.8 3.8 0 0 1 1.52-1.568q.992-.56 2.272-.56 1.248 0 2.208.544a3.7 3.7 0 0 1 1.472 1.504q.528.944.528 2.144m-1.504-.304q0-.832-.368-1.424a2.3 2.3 0 0 0-1.008-.912 3 3 0 0 0-1.392-.32q-1.104 0-1.888.704-.768.704-.88 1.952zm15.106-3.744L209.098 503h-1.504l-2.112-6.96-2.112 6.96h-1.504l-2.752-8.768h1.488l2.016 7.36 2.176-7.36h1.488l2.128 7.376 1.984-7.376zm13.167.88q0 1.392-.96 2.32-.945.912-2.896.912h-2.144V503h-1.456v-11.152h3.6q1.887 0 2.864.912.992.912.992 2.352m-3.856 2.032q1.215 0 1.792-.528.576-.528.576-1.504 0-2.064-2.368-2.064h-2.144v4.096zm5.121 1.44q0-1.344.544-2.352a3.95 3.95 0 0 1 1.488-1.584 4.15 4.15 0 0 1 2.128-.56q1.152 0 2 .496.848.497 1.264 1.248v-1.6h1.472V503h-1.472v-1.632q-.432.768-1.296 1.28-.848.496-1.984.496a3.97 3.97 0 0 1-2.112-.576 4.05 4.05 0 0 1-1.488-1.616q-.544-1.04-.544-2.368m7.424.016q0-.992-.4-1.728a2.75 2.75 0 0 0-1.088-1.12 2.85 2.85 0 0 0-1.488-.4q-.816 0-1.488.384a2.8 2.8 0 0 0-1.072 1.12q-.4.736-.4 1.728 0 1.008.4 1.76.4.736 1.072 1.136.672.384 1.488.384t1.488-.384a2.86 2.86 0 0 0 1.088-1.136q.4-.752.4-1.744m7.037 4.544q-1.008 0-1.808-.336-.8-.352-1.264-.96a2.6 2.6 0 0 1-.512-1.424h1.504q.063.656.608 1.072.56.416 1.456.416.832 0 1.312-.368t.48-.928q0-.576-.512-.848-.513-.288-1.584-.56a13 13 0 0 1-1.6-.512 3 3 0 0 1-1.056-.784q-.432-.528-.432-1.376 0-.672.4-1.232t1.136-.88q.735-.336 1.68-.336 1.455 0 2.352.736t.96 2.016h-1.456a1.5 1.5 0 0 0-.56-1.104q-.496-.416-1.344-.416-.784 0-1.248.336t-.464.88q0 .432.272.72.287.272.704.448.431.16 1.184.368.943.256 1.536.512.591.24 1.008.736.432.496.448 1.296 0 .72-.4 1.296t-1.136.912q-.72.32-1.664.32m8.359 0q-1.008 0-1.808-.336-.8-.352-1.264-.96a2.6 2.6 0 0 1-.512-1.424h1.504q.064.656.608 1.072.56.416 1.456.416.832 0 1.312-.368t.48-.928q0-.576-.512-.848-.512-.288-1.584-.56a13 13 0 0 1-1.6-.512 3 3 0 0 1-1.056-.784q-.432-.528-.432-1.376 0-.672.4-1.232t1.136-.88q.736-.336 1.68-.336 1.457 0 2.352.736t.96 2.016h-1.456a1.5 1.5 0 0 0-.56-1.104q-.497-.416-1.344-.416-.784 0-1.248.336t-.464.88q0 .432.272.72.288.272.704.448.432.16 1.184.368.944.256 1.536.512.593.24 1.008.736.432.496.448 1.296 0 .72-.4 1.296t-1.136.912q-.72.32-1.664.32m16.935-8.912L263.285 503h-1.504l-2.112-6.96-2.112 6.96h-1.504l-2.752-8.768h1.488l2.016 7.36 2.176-7.36h1.488l2.128 7.376 1.984-7.376zm5.269 8.912a4.54 4.54 0 0 1-2.24-.56 4.07 4.07 0 0 1-1.568-1.584q-.56-1.04-.56-2.4 0-1.344.576-2.368a4 4 0 0 1 1.6-1.584q1.008-.56 2.256-.56t2.256.56q1.008.544 1.584 1.568.592 1.024.592 2.384t-.608 2.4a4.1 4.1 0 0 1-1.616 1.584q-1.024.56-2.272.56m0-1.28q.785 0 1.472-.368a2.74 2.74 0 0 0 1.104-1.104q.432-.736.432-1.792t-.416-1.792-1.088-1.088a3 3 0 0 0-1.456-.368q-.8 0-1.472.368-.655.352-1.056 1.088-.4.736-.4 1.792 0 1.072.384 1.808.4.736 1.056 1.104.657.352 1.44.352m5.867-3.28q0-1.344.544-2.352a3.94 3.94 0 0 1 1.488-1.584 4.2 4.2 0 0 1 2.144-.56q1.023 0 1.904.48.879.464 1.344 1.232v-4.64h1.472V503h-1.472v-1.648q-.432.784-1.28 1.296-.849.496-1.984.496a4.06 4.06 0 0 1-2.128-.576 4.03 4.03 0 0 1-1.488-1.616q-.544-1.04-.544-2.368m7.424.016q0-.992-.4-1.728a2.76 2.76 0 0 0-1.088-1.12 2.85 2.85 0 0 0-1.488-.4q-.816 0-1.488.384a2.8 2.8 0 0 0-1.072 1.12q-.4.736-.4 1.728 0 1.008.4 1.76.4.736 1.072 1.136.672.384 1.488.384t1.488-.384a2.87 2.87 0 0 0 1.088-1.136q.4-.752.4-1.744" opacity=".5"/><path fill="#000" d="M500.688 574.416q0-1.632.736-2.928a5.35 5.35 0 0 1 2-2.048q1.28-.736 2.832-.736 1.824 0 3.184.88t1.984 2.496h-1.744q-.464-1.008-1.344-1.552-.864-.544-2.08-.544-1.168 0-2.096.544a3.8 3.8 0 0 0-1.456 1.552q-.528.992-.528 2.336 0 1.328.528 2.336a3.8 3.8 0 0 0 1.456 1.536q.928.544 2.096.544 1.216 0 2.08-.528.88-.544 1.344-1.552h1.744q-.624 1.6-1.984 2.48-1.36.864-3.184.864-1.553 0-2.832-.72a5.4 5.4 0 0 1-2-2.032q-.736-1.296-.736-2.928m12.359 1.168q0-1.344.544-2.352a3.95 3.95 0 0 1 1.488-1.584 4.15 4.15 0 0 1 2.128-.56q1.152 0 2 .496t1.264 1.248v-1.6h1.472V580h-1.472v-1.632q-.432.768-1.296 1.28-.847.496-1.984.496a4 4 0 0 1-2.112-.576 4.05 4.05 0 0 1-1.488-1.616q-.543-1.04-.544-2.368m7.424.016q0-.991-.4-1.728a2.75 2.75 0 0 0-1.088-1.12 2.85 2.85 0 0 0-1.488-.4q-.816 0-1.488.384a2.8 2.8 0 0 0-1.072 1.12q-.4.736-.4 1.728 0 1.008.4 1.76.4.736 1.072 1.136.672.384 1.488.384t1.488-.384a2.86 2.86 0 0 0 1.088-1.136q.4-.752.4-1.744m8.205-4.528q1.6 0 2.592.976.992.96.992 2.784V580h-1.44v-4.96q0-1.312-.656-2-.656-.704-1.792-.704-1.152 0-1.84.72-.672.72-.672 2.096V580h-1.456v-8.768h1.456v1.248a2.9 2.9 0 0 1 1.168-1.04 3.7 3.7 0 0 1 1.648-.368m5.418 4.528q0-1.36.544-2.368a3.9 3.9 0 0 1 1.504-1.584q.976-.56 2.224-.56 1.617 0 2.656.784 1.056.784 1.392 2.176h-1.568a2.23 2.23 0 0 0-.88-1.264q-.64-.464-1.6-.464-1.248 0-2.016.864-.768.848-.768 2.416 0 1.584.768 2.448t2.016.864q.96 0 1.6-.448t.88-1.28h1.568q-.351 1.344-1.408 2.16-1.056.8-2.64.8-1.248 0-2.224-.56a3.9 3.9 0 0 1-1.504-1.584q-.543-1.024-.544-2.4m18.263-.32q0 .416-.048.88h-7.008q.08 1.296.88 2.032.816.72 1.968.72.944 0 1.568-.432.64-.448.896-1.184h1.568a3.8 3.8 0 0 1-1.408 2.064q-1.056.784-2.624.784-1.248 0-2.24-.56a4 4 0 0 1-1.536-1.584q-.56-1.04-.56-2.4t.544-2.384a3.8 3.8 0 0 1 1.52-1.568q.992-.56 2.272-.56 1.248 0 2.208.544a3.7 3.7 0 0 1 1.472 1.504q.528.944.528 2.144m-1.504-.304q0-.832-.368-1.424a2.3 2.3 0 0 0-1.008-.912 3 3 0 0 0-1.392-.32q-1.104 0-1.888.704-.768.704-.88 1.952zm4.882-6.816V580h-1.456v-11.84z"/><rect width="214" height="56" x="589" y="546" fill="#DB4444" rx="4"/><path fill="#FAFAFA" d="M641.864 580.112q-1.12 0-2.016-.384-.896-.4-1.408-1.12t-.512-1.68h1.952q.064.72.56 1.184.512.464 1.424.464.944 0 1.472-.448.528-.464.528-1.184 0-.56-.336-.912a2.1 2.1 0 0 0-.816-.544q-.48-.192-1.344-.416a14 14 0 0 1-1.776-.576 3 3 0 0 1-1.152-.928q-.48-.624-.48-1.664 0-.96.48-1.68t1.344-1.104 2-.384q1.615 0 2.64.816 1.04.8 1.152 2.208h-2.016q-.048-.608-.576-1.04t-1.392-.432q-.784 0-1.28.4t-.496 1.152q0 .512.304.848.32.32.8.512t1.312.416q1.104.304 1.792.608.704.304 1.184.944.496.624.496 1.68a3 3 0 0 1-.464 1.6q-.448.752-1.328 1.216-.864.448-2.048.448m5.384-4.56q0-1.327.544-2.352a4.07 4.07 0 0 1 3.616-2.16q1.04 0 1.808.416.784.4 1.248 1.008v-1.28h1.84V580h-1.84v-1.312q-.463.624-1.264 1.04t-1.824.416a3.9 3.9 0 0 1-2.08-.576 4.3 4.3 0 0 1-1.504-1.632q-.543-1.056-.544-2.384m7.216.032q0-.912-.384-1.584a2.6 2.6 0 0 0-.976-1.024 2.57 2.57 0 0 0-1.312-.352q-.703 0-1.312.352a2.6 2.6 0 0 0-.992 1.008q-.368.656-.368 1.568t.368 1.6q.384.688.992 1.056a2.63 2.63 0 0 0 2.624 0 2.6 2.6 0 0 0 .976-1.024q.384-.688.384-1.6m7.644 2.784 2.496-7.184h1.936L663.18 580h-2.176l-3.344-8.816h1.952zm13.891-2.992q0 .496-.064.896h-6.736q.08 1.056.784 1.696t1.728.64q1.471 0 2.08-1.232h1.968a4 4 0 0 1-1.456 2q-1.041.768-2.592.768-1.264 0-2.272-.56a4.2 4.2 0 0 1-1.568-1.6q-.56-1.04-.56-2.4t.544-2.384a3.93 3.93 0 0 1 1.552-1.6q1.008-.56 2.304-.56 1.248 0 2.224.544a3.84 3.84 0 0 1 1.52 1.536q.543.976.544 2.256m-1.904-.576q-.016-1.008-.72-1.616-.705-.608-1.744-.608-.945 0-1.616.608-.672.592-.8 1.616zm7.247-.384q0-1.632.752-2.928a5.43 5.43 0 0 1 2.064-2.016 5.75 5.75 0 0 1 2.864-.736q1.776 0 3.152.88 1.392.864 2.016 2.464h-2.192q-.432-.88-1.2-1.312t-1.776-.432q-1.104 0-1.968.496a3.5 3.5 0 0 0-1.36 1.424q-.48.929-.48 2.16t.48 2.16a3.6 3.6 0 0 0 1.36 1.44q.864.496 1.968.496 1.008 0 1.776-.432t1.2-1.312h2.192q-.624 1.6-2.016 2.464-1.376.864-3.152.864-1.568 0-2.864-.72a5.55 5.55 0 0 1-2.064-2.032q-.752-1.296-.752-2.928m17.543-3.376q1.008 0 1.792.432.8.432 1.248 1.28.464.848.464 2.048v5.2h-1.808v-4.928q0-1.184-.592-1.808-.592-.64-1.616-.64t-1.632.64q-.592.624-.592 1.808V580h-1.824v-11.84h1.824v4.048a3.1 3.1 0 0 1 1.168-.864 4 4 0 0 1 1.568-.304m5.223 4.512q0-1.327.544-2.352a4.05 4.05 0 0 1 1.504-1.584 4.03 4.03 0 0 1 2.112-.576q1.04 0 1.808.416.783.4 1.248 1.008v-1.28h1.84V580h-1.84v-1.312q-.465.624-1.264 1.04-.801.416-1.824.416a3.9 3.9 0 0 1-2.08-.576 4.3 4.3 0 0 1-1.504-1.632q-.544-1.056-.544-2.384m7.216.032q0-.912-.384-1.584a2.6 2.6 0 0 0-.976-1.024 2.6 2.6 0 0 0-1.312-.352q-.705 0-1.312.352-.609.336-.992 1.008-.369.656-.368 1.568 0 .912.368 1.6.383.688.992 1.056a2.63 2.63 0 0 0 2.624 0q.607-.352.976-1.024.384-.688.384-1.6m8.683-4.544q1.04 0 1.856.432.832.432 1.296 1.28t.464 2.048v5.2h-1.808v-4.928q0-1.184-.592-1.808-.591-.64-1.616-.64-1.023 0-1.632.64-.591.624-.592 1.808V580h-1.824v-8.816h1.824v1.008a3.04 3.04 0 0 1 1.136-.848q.705-.304 1.488-.304m9.495 0q1.024 0 1.808.416.8.4 1.248 1.008v-1.28h1.84v8.96q0 1.216-.512 2.16a3.67 3.67 0 0 1-1.488 1.504q-.96.544-2.304.544-1.793 0-2.976-.848-1.183-.832-1.344-2.272h1.808q.208.688.88 1.104.688.432 1.632.432 1.104 0 1.776-.672.688-.672.688-1.952v-1.472q-.464.624-1.264 1.056-.784.416-1.792.416a4.03 4.03 0 0 1-2.112-.576 4.3 4.3 0 0 1-1.504-1.632q-.544-1.056-.544-2.384t.544-2.352a4.06 4.06 0 0 1 3.616-2.16m3.056 4.544q0-.912-.384-1.584a2.6 2.6 0 0 0-.976-1.024 2.57 2.57 0 0 0-1.312-.352q-.704 0-1.312.352a2.6 2.6 0 0 0-.992 1.008q-.368.656-.368 1.568t.368 1.6q.384.688.992 1.056a2.63 2.63 0 0 0 2.624 0q.608-.352.976-1.024.384-.688.384-1.6m12.316-.208q0 .496-.064.896h-6.736q.08 1.056.784 1.696t1.728.64q1.471 0 2.08-1.232h1.968a4 4 0 0 1-1.456 2q-1.041.768-2.592.768-1.264 0-2.272-.56a4.2 4.2 0 0 1-1.568-1.6q-.56-1.04-.56-2.4t.544-2.384a3.93 3.93 0 0 1 1.552-1.6q1.008-.56 2.304-.56 1.248 0 2.224.544a3.84 3.84 0 0 1 1.52 1.536q.544.976.544 2.256m-1.904-.576q-.016-1.008-.72-1.616-.705-.608-1.744-.608-.944 0-1.616.608-.672.592-.8 1.616zm6.899 5.344q-1.041 0-1.872-.368-.816-.384-1.296-1.024a2.6 2.6 0 0 1-.512-1.456h1.888q.048.56.528.944.495.368 1.232.368.767 0 1.184-.288.432-.304.432-.768 0-.496-.48-.736-.465-.24-1.488-.528-.993-.272-1.616-.528a2.9 2.9 0 0 1-1.088-.784q-.448-.528-.448-1.392 0-.704.416-1.28.416-.592 1.184-.928.784-.336 1.792-.336 1.504 0 2.416.768.927.752.992 2.064h-1.824a1.3 1.3 0 0 0-.48-.944q-.433-.352-1.168-.352-.72 0-1.104.272a.84.84 0 0 0-.384.72q0 .352.256.592.255.24.624.384.368.128 1.088.336.96.257 1.568.528.624.257 1.072.768.447.512.464 1.36 0 .751-.416 1.344-.417.592-1.184.928-.753.336-1.776.336"/></g><defs><filter id="a" width="896" height="656" x="0" y="0" color-interpolation-filters="sRGB" filterUnits="userSpaceOnUse"><feFlood flood-opacity="0" result="BackgroundImageFix"/><feColorMatrix in="SourceAlpha" result="hardAlpha" values="0 0 0 0 0 0 0 0 0 0 0 0 0 0 0 0 0 0 127 0"/><feOffset dy="1"/><feGaussianBlur stdDeviation="6.5"/><feComposite in2="hardAlpha" operator="out"/><feColorMatrix values="0 0 0 0 0 0 0 0 0 0 0 0 0 0 0 0 0 0 0.05 0"/><feBlend in2="BackgroundImageFix" result="effect1_dropShadow_205_4730"/><feBlend in="SourceGraphic" in2="effect1_dropShadow_205_4730" result="shape"/></filter></defs></svg>