<svg xmlns="http://www.w3.org/2000/svg" width="48" height="24" fill="none"><path fill="#000" d="M7.879 15.52H3.015L2.119 18H.583L4.615 6.912h1.68L10.31 18H8.775zm-.416-1.184L5.447 8.704 3.43 14.336zm6.06-3.472q.45-.785 1.313-1.28.864-.495 1.968-.496 1.185 0 2.128.56a3.95 3.95 0 0 1 1.488 1.584q.544 1.008.544 2.352 0 1.328-.544 2.368a4 4 0 0 1-1.504 1.616 3.97 3.97 0 0 1-2.112.576q-1.136 0-2-.496-.848-.495-1.28-1.264V18h-1.456V6.16h1.456zm5.953 2.72q0-.992-.4-1.728a2.75 2.75 0 0 0-1.088-1.12 2.95 2.95 0 0 0-1.488-.384 2.9 2.9 0 0 0-1.488.4q-.672.384-1.088 1.136-.4.735-.4 1.712 0 .992.4 1.744.416.736 1.088 1.136.688.384 1.488.384.816 0 1.488-.384a2.86 2.86 0 0 0 1.088-1.136q.4-.752.4-1.76m7.228 4.56a4.53 4.53 0 0 1-2.24-.56A4.07 4.07 0 0 1 22.896 16q-.56-1.04-.56-2.4 0-1.344.576-2.368a4 4 0 0 1 1.6-1.584q1.008-.56 2.256-.56t2.256.56q1.008.544 1.584 1.568.592 1.024.592 2.384t-.608 2.4a4.1 4.1 0 0 1-1.616 1.584q-1.023.56-2.272.56m0-1.28q.785 0 1.472-.368a2.75 2.75 0 0 0 1.104-1.104q.432-.736.432-1.792t-.416-1.792q-.416-.735-1.088-1.088a3 3 0 0 0-1.456-.368q-.8 0-1.472.368-.656.352-1.056 1.088t-.4 1.792q0 1.072.384 1.808.401.736 1.056 1.104.657.352 1.44.352m14.187-7.632V18h-1.456v-1.296q-.417.672-1.168 1.056a3.6 3.6 0 0 1-1.632.368q-1.024 0-1.84-.416a3.2 3.2 0 0 1-1.296-1.28q-.465-.848-.464-2.064V9.232h1.44v4.944q0 1.295.656 2 .656.688 1.792.688 1.168 0 1.84-.72t.672-2.096V9.232zm4.234 1.2V15.6q0 .64.272.912.272.256.944.256h1.072V18h-1.312q-1.216 0-1.824-.56t-.608-1.84v-5.168h-1.136v-1.2h1.136V7.024h1.456v2.208h2.288v1.2z"/></svg>