<svg xmlns="http://www.w3.org/2000/svg" width="1188" height="38" fill="none"><path fill="#000" d="M1.517 28V10.546h11.761v3.042h-8.07v4.16h7.465v3.042H5.207v4.167h8.105V28zm18.381-13.09 2.404 4.576 2.463-4.577h3.724l-3.792 6.545L28.59 28h-3.707l-2.582-4.526L19.762 28h-3.75l3.886-6.546-3.75-6.545zm16.913 13.346q-2.01 0-3.46-.853a5.76 5.76 0 0 1-2.216-2.386q-.767-1.525-.767-3.511 0-2.011.776-3.529a5.76 5.76 0 0 1 2.224-2.378q1.44-.86 3.426-.86 1.713 0 3 .622t2.037 1.747q.75 1.124.827 2.642h-3.426q-.145-.98-.767-1.577-.614-.605-1.61-.605-.845 0-1.475.46-.622.453-.972 1.321-.35.87-.35 2.105 0 1.254.342 2.131.35.878.98 1.338t1.474.46q.622 0 1.117-.255.502-.255.826-.742a2.84 2.84 0 0 0 .435-1.184h3.426q-.086 1.5-.818 2.642-.724 1.133-2.003 1.772-1.278.64-3.026.64m12.522-17.71V28h-3.63V10.546zm12.024 11.88V14.91h3.63V28h-3.485v-2.378h-.137a3.87 3.87 0 0 1-1.474 1.85q-1.023.698-2.497.698-1.313 0-2.31-.596-.998-.597-1.56-1.696-.555-1.1-.562-2.634V14.91h3.63v7.688q.009 1.158.623 1.832.614.673 1.644.673.657 0 1.228-.298.57-.308.92-.903.358-.597.35-1.475m18.146-3.784-3.323.205a1.7 1.7 0 0 0-.367-.768 1.95 1.95 0 0 0-.741-.553q-.452-.213-1.083-.213-.844 0-1.423.358-.58.348-.58.937 0 .47.375.793.376.323 1.287.52l2.37.477q1.908.391 2.846 1.261t.938 2.284q0 1.287-.759 2.259-.75.97-2.062 1.517-1.304.537-3.009.537-2.599 0-4.142-1.083-1.534-1.09-1.798-2.966l3.57-.187q.163.792.785 1.21.622.41 1.594.41.954 0 1.534-.367.588-.375.596-.963-.008-.495-.417-.81-.409-.323-1.262-.494l-2.267-.452q-1.917-.384-2.855-1.33-.93-.945-.929-2.411 0-1.262.682-2.174.69-.912 1.935-1.406 1.252-.495 2.932-.494 2.48 0 3.903 1.048 1.431 1.048 1.67 2.855M82.808 28V14.91h3.63V28zm1.824-14.778q-.81 0-1.39-.537-.57-.546-.57-1.304 0-.75.57-1.287.58-.546 1.39-.546t1.38.546q.58.537.58 1.287 0 .758-.58 1.304-.57.537-1.38.537m17.64 1.687L97.695 28h-4.091l-4.577-13.09h3.835l2.72 9.366h.136l2.71-9.367zm8.122 13.347q-2.02 0-3.478-.819a5.6 5.6 0 0 1-2.233-2.335q-.784-1.517-.784-3.588 0-2.02.784-3.545a5.8 5.8 0 0 1 2.208-2.378q1.431-.852 3.358-.852 1.294 0 2.412.417 1.125.41 1.96 1.236.844.826 1.312 2.08.47 1.244.469 2.914v.998h-11.054v-2.25h7.636q0-.784-.34-1.39a2.45 2.45 0 0 0-.946-.946q-.597-.35-1.39-.35-.826 0-1.466.384-.63.375-.988 1.015-.358.63-.367 1.406v2.139q0 .972.358 1.679.367.708 1.031 1.09.665.385 1.577.384.606 0 1.108-.17t.861-.511q.358-.342.545-.836l3.358.222a4.6 4.6 0 0 1-1.048 2.114q-.784.894-2.028 1.397-1.236.495-2.855.495m177.571-14.408V25h-1.456v-5.056h-5.68V25h-1.456V13.848h1.456v4.896h5.68v-4.896zm6.31 11.296a4.53 4.53 0 0 1-2.24-.56A4.07 4.07 0 0 1 290.467 23q-.56-1.04-.56-2.4 0-1.344.576-2.368a4 4 0 0 1 1.6-1.584q1.008-.56 2.256-.56t2.256.56q1.008.544 1.584 1.568.591 1.024.592 2.384 0 1.36-.608 2.4a4.13 4.13 0 0 1-1.616 1.584q-1.024.56-2.272.56m0-1.28q.783 0 1.472-.368a2.76 2.76 0 0 0 1.104-1.104q.432-.735.432-1.792t-.416-1.792-1.088-1.088a3 3 0 0 0-1.456-.368q-.8 0-1.472.368-.657.352-1.056 1.088-.4.735-.4 1.792 0 1.072.384 1.808.399.736 1.056 1.104.656.352 1.44.352m16.954-7.792q1.024 0 1.824.432.8.416 1.264 1.264t.464 2.064V25h-1.44v-4.96q0-1.312-.656-2-.64-.704-1.744-.704-1.136 0-1.808.736-.672.72-.672 2.096V25h-1.44v-4.96q0-1.312-.656-2-.64-.704-1.744-.704-1.136 0-1.808.736-.672.72-.672 2.096V25h-1.456v-8.768h1.456v1.264a2.9 2.9 0 0 1 1.152-1.056 3.56 3.56 0 0 1 1.616-.368q1.104 0 1.952.496.848.495 1.264 1.456a2.88 2.88 0 0 1 1.216-1.44 3.6 3.6 0 0 1 1.888-.512m13.941 4.208q0 .415-.048.88h-7.008q.08 1.296.88 2.032.816.72 1.968.72.944 0 1.568-.432.64-.448.896-1.184h1.568a3.8 3.8 0 0 1-1.408 2.064q-1.056.784-2.624.784-1.248 0-2.24-.56A4 4 0 0 1 317.186 23q-.56-1.04-.56-2.4t.544-2.384a3.8 3.8 0 0 1 1.52-1.568q.991-.56 2.272-.56 1.248 0 2.208.544t1.472 1.504q.528.944.528 2.144m-1.504-.304q0-.833-.368-1.424a2.3 2.3 0 0 0-1.008-.912 3 3 0 0 0-1.392-.32q-1.105 0-1.888.704-.769.704-.88 1.952z"/><path stroke="#000" d="M278 30.5h48" opacity=".5"/><path fill="#000" d="M375.18 19.416q0-1.632.736-2.928a5.36 5.36 0 0 1 2-2.048q1.281-.736 2.832-.736 1.825 0 3.184.88t1.984 2.496h-1.744q-.464-1.009-1.344-1.552-.864-.544-2.08-.544-1.167 0-2.096.544a3.8 3.8 0 0 0-1.456 1.552q-.528.992-.528 2.336 0 1.328.528 2.336a3.8 3.8 0 0 0 1.456 1.536q.929.544 2.096.544 1.216 0 2.08-.528.88-.544 1.344-1.552h1.744q-.624 1.6-1.984 2.48-1.36.864-3.184.864-1.551 0-2.832-.72a5.4 5.4 0 0 1-2-2.032q-.736-1.296-.736-2.928m16.728 5.728a4.53 4.53 0 0 1-2.24-.56A4.07 4.07 0 0 1 388.1 23q-.56-1.04-.56-2.4 0-1.344.576-2.368a4 4 0 0 1 1.6-1.584q1.008-.56 2.256-.56t2.256.56q1.008.544 1.584 1.568.591 1.024.592 2.384 0 1.36-.608 2.4a4.13 4.13 0 0 1-1.616 1.584q-1.024.56-2.272.56m0-1.28q.783 0 1.472-.368a2.76 2.76 0 0 0 1.104-1.104q.432-.735.432-1.792t-.416-1.792-1.088-1.088a3 3 0 0 0-1.456-.368q-.8 0-1.472.368-.657.352-1.056 1.088-.4.735-.4 1.792 0 1.072.384 1.808.399.736 1.056 1.104.656.352 1.44.352m10.682-7.792q1.6 0 2.592.976.992.96.992 2.784V25h-1.44v-4.96q0-1.312-.656-2-.656-.704-1.792-.704-1.152 0-1.84.72-.672.72-.672 2.096V25h-1.456v-8.768h1.456v1.248a2.9 2.9 0 0 1 1.168-1.04 3.7 3.7 0 0 1 1.648-.368m7.738 1.36V22.6q0 .64.272.912.272.256.944.256h1.072V25h-1.312q-1.215 0-1.824-.56-.608-.56-.608-1.84v-5.168h-1.136v-1.2h1.136v-2.208h1.456v2.208h2.288v1.2zm3.508 3.152q0-1.344.544-2.352a3.96 3.96 0 0 1 1.488-1.584q.96-.56 2.128-.56 1.152 0 2 .496t1.264 1.248v-1.6h1.472V25h-1.472v-1.632q-.432.768-1.296 1.28-.847.495-1.984.496a4 4 0 0 1-2.112-.576 4.05 4.05 0 0 1-1.488-1.616q-.543-1.04-.544-2.368m7.424.016q0-.992-.4-1.728a2.75 2.75 0 0 0-1.088-1.12 2.85 2.85 0 0 0-1.488-.4q-.816 0-1.488.384t-1.072 1.12-.4 1.728q0 1.008.4 1.76.4.736 1.072 1.136.672.384 1.488.384t1.488-.384a2.86 2.86 0 0 0 1.088-1.136q.4-.752.4-1.744m3.389 0q0-1.36.544-2.368a3.9 3.9 0 0 1 1.504-1.584q.976-.56 2.224-.56 1.616 0 2.656.784 1.056.784 1.392 2.176h-1.568a2.24 2.24 0 0 0-.88-1.264q-.64-.465-1.6-.464-1.248 0-2.016.864-.768.847-.768 2.416 0 1.584.768 2.448t2.016.864q.96 0 1.6-.448t.88-1.28h1.568q-.352 1.344-1.408 2.16-1.056.8-2.64.8-1.248 0-2.224-.56A3.9 3.9 0 0 1 425.193 23q-.544-1.025-.544-2.4m12.039-3.168V22.6q0 .64.272.912.272.256.944.256h1.072V25h-1.312q-1.216 0-1.824-.56t-.608-1.84v-5.168h-1.136v-1.2h1.136v-2.208h1.456v2.208h2.288v1.2zm59.191 5.088h-4.864l-.896 2.48h-1.536l4.032-11.088h1.68L498.311 25h-1.536zm-.416-1.184-2.016-5.632-2.016 5.632zm6.061-3.472q.448-.785 1.312-1.28t1.968-.496q1.184 0 2.128.56a3.96 3.96 0 0 1 1.488 1.584q.544 1.008.544 2.352 0 1.328-.544 2.368a4 4 0 0 1-1.504 1.616 3.97 3.97 0 0 1-2.112.576q-1.136 0-2-.496-.848-.495-1.28-1.264V25h-1.456V13.16h1.456zm5.952 2.72q0-.992-.4-1.728a2.75 2.75 0 0 0-1.088-1.12 2.95 2.95 0 0 0-1.488-.384q-.8 0-1.488.4-.672.384-1.088 1.136-.4.735-.4 1.712 0 .992.4 1.744.416.736 1.088 1.136.688.384 1.488.384.816 0 1.488-.384a2.86 2.86 0 0 0 1.088-1.136q.4-.752.4-1.76m7.228 4.56a4.54 4.54 0 0 1-2.24-.56A4.07 4.07 0 0 1 510.896 23q-.56-1.04-.56-2.4 0-1.344.576-2.368a4 4 0 0 1 1.6-1.584q1.008-.56 2.256-.56t2.256.56q1.008.544 1.584 1.568.592 1.024.592 2.384t-.608 2.4a4.1 4.1 0 0 1-1.616 1.584q-1.024.56-2.272.56m0-1.28q.785 0 1.472-.368a2.74 2.74 0 0 0 1.104-1.104q.432-.735.432-1.792t-.416-1.792-1.088-1.088a3 3 0 0 0-1.456-.368q-.8 0-1.472.368-.655.352-1.056 1.088-.4.735-.4 1.792 0 1.072.384 1.808.4.736 1.056 1.104a3 3 0 0 0 1.44.352m14.187-7.632V25h-1.456v-1.296q-.417.672-1.168 1.056a3.6 3.6 0 0 1-1.632.368q-1.024 0-1.84-.416a3.2 3.2 0 0 1-1.296-1.28q-.464-.848-.464-2.064v-5.136h1.44v4.944q0 1.296.656 2 .655.688 1.792.688 1.168 0 1.84-.72t.672-2.096v-4.816zm4.234 1.2V22.6q0 .64.272.912.273.256.944.256h1.072V25h-1.312q-1.215 0-1.824-.56-.608-.56-.608-1.84v-5.168h-1.136v-1.2h1.136v-2.208h1.456v2.208h2.288v1.2zm56.018 7.68q-1.104 0-1.984-.384-.864-.4-1.36-1.088a2.83 2.83 0 0 1-.512-1.616h1.552q.08.784.64 1.328.576.528 1.664.528 1.04 0 1.632-.512.608-.528.608-1.344 0-.64-.352-1.04a2.25 2.25 0 0 0-.88-.608 14 14 0 0 0-1.424-.448q-1.104-.288-1.776-.576a2.95 2.95 0 0 1-1.136-.896q-.464-.623-.464-1.664 0-.912.464-1.616.463-.705 1.296-1.088.848-.384 1.936-.384 1.568 0 2.56.784 1.008.784 1.136 2.08h-1.6q-.08-.64-.672-1.12-.592-.495-1.568-.496-.912 0-1.488.48-.576.465-.576 1.312 0 .608.336.992.352.384.848.592.512.192 1.424.448 1.104.304 1.776.608.672.288 1.152.912.48.608.48 1.664 0 .816-.432 1.536t-1.28 1.168-2 .448m6.607-10.304a.96.96 0 0 1-.704-.288.96.96 0 0 1-.288-.704q0-.416.288-.704a.96.96 0 0 1 .704-.288.9.9 0 0 1 .672.288.96.96 0 0 1 .288.704.96.96 0 0 1-.288.704.9.9 0 0 1-.672.288m.704 1.424V25h-1.456v-8.768zm6.097-.144q1.136 0 1.984.496.864.496 1.28 1.248v-1.6h1.472v8.96q0 1.2-.512 2.128a3.6 3.6 0 0 1-1.472 1.472q-.943.528-2.208.528-1.728 0-2.88-.816t-1.36-2.224h1.44q.24.8.992 1.28.752.495 1.808.496 1.2 0 1.952-.752.768-.752.768-2.112v-1.84q-.432.768-1.28 1.28t-1.984.512a4.06 4.06 0 0 1-2.128-.576 4.05 4.05 0 0 1-1.488-1.616q-.544-1.04-.544-2.368 0-1.344.544-2.352a3.96 3.96 0 0 1 1.488-1.584 4.14 4.14 0 0 1 2.128-.56m3.264 4.512q0-.992-.4-1.728a2.75 2.75 0 0 0-1.088-1.12 2.85 2.85 0 0 0-1.488-.4q-.816 0-1.488.384t-1.072 1.12-.4 1.728q0 1.008.4 1.76.4.736 1.072 1.136.672.384 1.488.384t1.488-.384a2.86 2.86 0 0 0 1.088-1.136q.4-.752.4-1.744m8.205-4.528q1.599 0 2.592.976.992.96.992 2.784V25h-1.44v-4.96q0-1.312-.656-2-.657-.704-1.792-.704-1.152 0-1.84.72-.672.72-.672 2.096V25h-1.456v-8.768h1.456v1.248a2.9 2.9 0 0 1 1.168-1.04 3.7 3.7 0 0 1 1.648-.368m11.652-2.224v7.056q0 1.488.72 2.208.736.72 2.032.72 1.28 0 2-.72.736-.72.736-2.208v-7.056h1.456v7.04q0 1.392-.56 2.352a3.5 3.5 0 0 1-1.52 1.408q-.945.465-2.128.464-1.184 0-2.144-.464a3.53 3.53 0 0 1-1.504-1.408q-.544-.96-.544-2.352v-7.04zm10.829 4q.432-.751 1.28-1.248.863-.512 2-.512 1.167 0 2.111.56.96.56 1.505 1.584.543 1.008.544 2.352 0 1.328-.544 2.368a4 4 0 0 1-1.505 1.616 3.97 3.97 0 0 1-2.111.576q-1.12 0-1.984-.496-.849-.512-1.296-1.264v5.776h-1.456V16.232h1.456zm5.952 2.736q0-.992-.4-1.728a2.76 2.76 0 0 0-1.088-1.12 2.95 2.95 0 0 0-1.488-.384q-.801 0-1.488.4-.672.384-1.088 1.136-.4.735-.4 1.712 0 .992.4 1.744.416.736 1.088 1.136a3 3 0 0 0 1.488.384q.816 0 1.488-.384a2.87 2.87 0 0 0 1.088-1.136q.4-.752.4-1.76"/><rect width="243" height="38" x="793" fill="#F5F5F5" rx="4"/><path fill="#000" d="M824.436 14.636 822.012 23h-1.224l-1.944-6.732L816.828 23l-1.212.012-2.34-8.376h1.164l1.824 7.092 2.016-7.092h1.224l1.92 7.068 1.836-7.068zm4.459 1.668q.744 0 1.344.324.6.312.936.948.348.636.348 1.548V23h-1.08v-3.72q0-.984-.492-1.5-.492-.528-1.344-.528-.864 0-1.38.54-.504.54-.504 1.572V23h-1.092v-8.88h1.092v3.24a2.16 2.16 0 0 1 .888-.78 2.9 2.9 0 0 1 1.284-.276m4.004 3.384q0-1.008.408-1.764a2.96 2.96 0 0 1 1.116-1.188 3.1 3.1 0 0 1 1.596-.42q.864 0 1.5.372t.948.936v-1.2h1.104V23h-1.104v-1.224q-.324.576-.972.96-.636.372-1.488.372a3 3 0 0 1-1.584-.432 3.03 3.03 0 0 1-1.116-1.212q-.408-.78-.408-1.776m5.568.012q0-.744-.3-1.296a2.07 2.07 0 0 0-.816-.84 2.14 2.14 0 0 0-1.116-.3q-.612 0-1.116.288a2.1 2.1 0 0 0-.804.84q-.3.552-.3 1.296 0 .756.3 1.32.3.552.804.852a2.2 2.2 0 0 0 1.116.288q.612 0 1.116-.288.516-.3.816-.852.3-.564.3-1.308m4.281-2.376V21.2q0 .48.204.684.204.192.708.192h.804V23h-.984q-.912 0-1.368-.42t-.456-1.38v-3.876h-.852v-.9h.852v-1.656h1.092v1.656h1.716v.9zm5.831 2.364q0-1.008.408-1.764a2.96 2.96 0 0 1 1.116-1.188 3.1 3.1 0 0 1 1.596-.42q.864 0 1.5.372t.948.936v-1.2h1.104V23h-1.104v-1.224q-.324.576-.972.96-.636.372-1.488.372a3 3 0 0 1-1.584-.432 3.03 3.03 0 0 1-1.116-1.212q-.408-.78-.408-1.776m5.568.012q0-.744-.3-1.296a2.07 2.07 0 0 0-.816-.84 2.14 2.14 0 0 0-1.116-.3q-.612 0-1.116.288a2.1 2.1 0 0 0-.804.84q-.3.552-.3 1.296 0 .756.3 1.32.3.552.804.852a2.2 2.2 0 0 0 1.116.288q.612 0 1.116-.288.516-.3.816-.852.3-.564.3-1.308m4.041-2.208q.288-.564.816-.876.54-.312 1.308-.312v1.128h-.288q-1.836 0-1.836 1.992V23h-1.092v-6.576h1.092zm9.384 1.968q0 .312-.036.66h-5.256q.06.972.66 1.524.612.54 1.476.54.708 0 1.176-.324.48-.336.672-.888h1.176a2.86 2.86 0 0 1-1.056 1.548q-.792.588-1.968.588-.936 0-1.68-.42a3 3 0 0 1-1.152-1.188q-.42-.78-.42-1.8t.408-1.788a2.84 2.84 0 0 1 1.14-1.176q.744-.42 1.704-.42.936 0 1.656.408t1.104 1.128q.396.708.396 1.608m-1.128-.228q0-.624-.276-1.068a1.74 1.74 0 0 0-.756-.684q-.468-.24-1.044-.24-.828 0-1.416.528-.576.528-.66 1.464zm11.433-2.808-3.96 9.672h-1.128l1.296-3.168-2.652-6.504h1.212l2.064 5.328 2.04-5.328zm3.966 6.684a3.4 3.4 0 0 1-1.68-.42 3.05 3.05 0 0 1-1.176-1.188q-.42-.78-.42-1.8 0-1.008.432-1.776.444-.78 1.2-1.188a3.4 3.4 0 0 1 1.692-.42q.936 0 1.692.42.756.408 1.188 1.176.444.768.444 1.788t-.456 1.8a3.1 3.1 0 0 1-1.212 1.188q-.768.42-1.704.42m0-.96q.588 0 1.104-.276t.828-.828q.324-.552.324-1.344t-.312-1.344a2 2 0 0 0-.816-.816 2.24 2.24 0 0 0-1.092-.276q-.6 0-1.104.276a1.95 1.95 0 0 0-.792.816q-.3.552-.3 1.344 0 .804.288 1.356.3.552.792.828.492.264 1.08.264m10.64-5.724V23h-1.092v-.972q-.312.504-.876.792a2.7 2.7 0 0 1-1.224.276q-.768 0-1.38-.312a2.4 2.4 0 0 1-.972-.96q-.348-.636-.348-1.548v-3.852h1.08v3.708q0 .972.492 1.5.492.516 1.344.516.876 0 1.38-.54t.504-1.572v-3.612zm6.135-2.304V23h-1.092v-8.88zm4.729 8.988a3.4 3.4 0 0 1-1.68-.42 3.05 3.05 0 0 1-1.176-1.188q-.42-.78-.42-1.8 0-1.008.432-1.776.444-.78 1.2-1.188a3.4 3.4 0 0 1 1.692-.42q.936 0 1.692.42.756.408 1.188 1.176.444.768.444 1.788t-.456 1.8a3.1 3.1 0 0 1-1.212 1.188q-.768.42-1.704.42m0-.96q.588 0 1.104-.276t.828-.828q.324-.552.324-1.344t-.312-1.344a2 2 0 0 0-.816-.816 2.24 2.24 0 0 0-1.092-.276q-.6 0-1.104.276a1.95 1.95 0 0 0-.792.816q-.3.552-.3 1.344 0 .804.288 1.356.3.552.792.828.492.264 1.08.264m7.675.96a3.4 3.4 0 0 1-1.68-.42 3.05 3.05 0 0 1-1.176-1.188q-.42-.78-.42-1.8 0-1.008.432-1.776.444-.78 1.2-1.188a3.4 3.4 0 0 1 1.692-.42q.936 0 1.692.42.756.408 1.188 1.176.444.768.444 1.788t-.456 1.8a3.1 3.1 0 0 1-1.212 1.188q-.768.42-1.704.42m0-.96q.588 0 1.104-.276t.828-.828q.324-.552.324-1.344t-.312-1.344a2 2 0 0 0-.816-.816 2.24 2.24 0 0 0-1.092-.276q-.6 0-1.104.276a1.95 1.95 0 0 0-.792.816q-.3.552-.3 1.344 0 .804.288 1.356.3.552.792.828.492.264 1.08.264m8.48.852-2.58-2.904V23h-1.092v-8.88h1.092v5.22l2.532-2.916h1.524l-3.096 3.276 3.108 3.3zm3.068-7.644a.72.72 0 0 1-.528-.216.72.72 0 0 1-.216-.528q0-.312.216-.528a.72.72 0 0 1 .528-.216q.3 0 .504.216.216.216.216.528a.72.72 0 0 1-.216.528.67.67 0 0 1-.504.216m.528 1.068V23h-1.092v-6.576zm5.065-.12q1.2 0 1.944.732.744.72.744 2.088V23h-1.08v-3.72q0-.984-.492-1.5-.492-.528-1.344-.528-.864 0-1.38.54-.504.54-.504 1.572V23h-1.092v-6.576h1.092v.936q.324-.504.876-.78a2.8 2.8 0 0 1 1.236-.276m7.184.012q.852 0 1.488.372.648.372.96.936v-1.2h1.104v6.72q0 .9-.384 1.596-.384.708-1.104 1.104-.708.396-1.656.396-1.296 0-2.16-.612a2.4 2.4 0 0 1-1.02-1.668h1.08q.18.6.744.96.564.372 1.356.372.9 0 1.464-.564.576-.564.576-1.584v-1.38a2.6 2.6 0 0 1-.96.96q-.636.384-1.488.384a3.04 3.04 0 0 1-1.596-.432 3.03 3.03 0 0 1-1.116-1.212q-.408-.78-.408-1.776 0-1.008.408-1.764a2.96 2.96 0 0 1 1.116-1.188 3.1 3.1 0 0 1 1.596-.42m2.448 3.384q0-.744-.3-1.296a2.07 2.07 0 0 0-.816-.84 2.14 2.14 0 0 0-1.116-.3q-.612 0-1.116.288a2.1 2.1 0 0 0-.804.84q-.3.552-.3 1.296 0 .756.3 1.32.3.552.804.852a2.2 2.2 0 0 0 1.116.288q.612 0 1.116-.288.516-.3.816-.852.3-.564.3-1.308m8.825-2.376h-1.38V23h-1.092v-5.676h-.852v-.9h.852v-.468q0-1.104.564-1.608.576-.516 1.836-.516v.912q-.72 0-1.02.288-.288.276-.288.924v.468h1.38zm4.141 5.784a3.4 3.4 0 0 1-1.68-.42 3.05 3.05 0 0 1-1.176-1.188q-.42-.78-.42-1.8 0-1.008.432-1.776.444-.78 1.2-1.188a3.4 3.4 0 0 1 1.692-.42q.936 0 1.692.42.756.408 1.188 1.176.444.768.444 1.788t-.456 1.8a3.1 3.1 0 0 1-1.212 1.188q-.768.42-1.704.42m0-.96q.588 0 1.104-.276t.828-.828q.324-.552.324-1.344t-.312-1.344a2 2 0 0 0-.816-.816 2.24 2.24 0 0 0-1.092-.276q-.6 0-1.104.276a1.95 1.95 0 0 0-.792.816q-.3.552-.3 1.344 0 .804.288 1.356.3.552.792.828.492.264 1.08.264m5.9-4.656q.288-.564.816-.876.54-.312 1.308-.312v1.128h-.288q-1.836 0-1.836 1.992V23h-1.092v-6.576h1.092zm5.52-2.964q1.188 0 1.92.672t.732 1.8q0 1.26-.78 1.872-.78.6-2.112.6l-.036 1.14h-.948l-.048-1.896h.348q1.188 0 1.86-.36t.672-1.356q0-.72-.432-1.14t-1.164-.42q-.744 0-1.176.408-.42.396-.42 1.092h-1.032q0-.72.324-1.26.324-.552.912-.852.6-.3 1.38-.3m-.756 8.544a.72.72 0 0 1-.528-.216.72.72 0 0 1-.216-.528q0-.312.216-.528a.72.72 0 0 1 .528-.216q.3 0 .504.216.216.216.216.528a.72.72 0 0 1-.216.528.67.67 0 0 1-.504.216" opacity=".5"/><path stroke="#000" stroke-linecap="round" stroke-width="1.5" d="m1020 27-3.78-3.784m2.1-5.058a7.17 7.17 0 0 1-2.1 5.061 7.15 7.15 0 0 1-5.06 2.097c-1.9 0-3.72-.754-5.06-2.097a7.13 7.13 0 0 1-2.1-5.061 7.13 7.13 0 0 1 2.1-5.062 7.15 7.15 0 0 1 5.06-2.096c1.9 0 3.72.754 5.06 2.097a7.17 7.17 0 0 1 2.1 5.06z"/><path stroke="#000" stroke-linecap="round" stroke-linejoin="round" stroke-width="1.5" d="M1071 10c-2.76 0-5 2.216-5 4.95 0 2.207.88 7.445 9.49 12.74a.976.976 0 0 0 1.02 0c8.61-5.295 9.49-10.533 9.49-12.74 0-2.734-2.24-4.95-5-4.95s-5 3-5 3-2.24-3-5-3m46.25 21.25c.41 0 .75-.336.75-.75s-.34-.75-.75-.75-.75.336-.75.75.34.75.75.75m10.5 0c.41 0 .75-.336.75-.75s-.34-.75-.75-.75-.75.336-.75.75.34.75.75.75m-16.5-16.5h3l2.25 12.75h12"/><path stroke="#000" stroke-linecap="round" stroke-linejoin="round" stroke-width="1.5" d="M1116.5 23.5h11.69q.135-.001.24-.085a.38.38 0 0 0 .13-.216l1.35-6.75a.5.5 0 0 0 0-.165.4.4 0 0 0-.21-.248.4.4 0 0 0-.16-.036H1115"/><circle cx="1131" cy="13" r="8" fill="#DB4444"/><path fill="#FAFAFA" d="M1128.66 16.124a57 57 0 0 0 2.39-2.004 10 10 0 0 0 1.45-1.644q.6-.864.6-1.692c0-.52-.13-.928-.38-1.224-.25-.304-.66-.456-1.22-.456-.54 0-.96.172-1.27.516q-.435.504-.48 1.356h-1.05q.045-1.344.81-2.076t1.98-.732c.83 0 1.48.228 1.96.684.49.456.73 1.084.73 1.884q0 .996-.6 1.944a8.6 8.6 0 0 1-1.34 1.656c-.51.472-1.15 1.024-1.94 1.656h4.13v.912h-5.77z"/><path stroke="#000" stroke-linecap="round" stroke-linejoin="round" stroke-width="1.5" d="M1180 30v-2.667c0-1.414-.48-2.77-1.33-3.77s-2-1.563-3.2-1.563h-7.94c-1.2 0-2.35.562-3.2 1.562s-1.33 2.357-1.33 3.771V30m9.5-13c2.49 0 4.5-2.015 4.5-4.5s-2.01-4.5-4.5-4.5-4.5 2.015-4.5 4.5 2.01 4.5 4.5 4.5"/></svg>