<svg xmlns="http://www.w3.org/2000/svg" width="66" height="24" fill="none"><path fill="#000" d="M1.18 12.416q0-1.632.736-2.928a5.35 5.35 0 0 1 2-2.048q1.281-.735 2.832-.736 1.824 0 3.184.88t1.984 2.496h-1.744q-.464-1.008-1.344-1.552-.864-.544-2.08-.544-1.167 0-2.096.544a3.8 3.8 0 0 0-1.456 1.552q-.528.992-.528 2.336 0 1.328.528 2.336a3.8 3.8 0 0 0 1.456 1.536q.929.544 2.096.544 1.216 0 2.08-.528.88-.544 1.344-1.552h1.744q-.624 1.6-1.984 2.48-1.36.864-3.184.864-1.551 0-2.832-.72a5.4 5.4 0 0 1-2-2.032q-.735-1.296-.736-2.928m16.728 5.728a4.53 4.53 0 0 1-2.24-.56A4.07 4.07 0 0 1 14.1 16q-.56-1.04-.56-2.4 0-1.344.576-2.368a4 4 0 0 1 1.6-1.584q1.008-.56 2.256-.56t2.256.56q1.008.544 1.584 1.568.591 1.024.592 2.384 0 1.36-.608 2.4a4.1 4.1 0 0 1-1.616 1.584q-1.024.56-2.272.56m0-1.28q.783 0 1.472-.368a2.75 2.75 0 0 0 1.104-1.104q.432-.736.432-1.792-.001-1.056-.416-1.792-.416-.735-1.088-1.088a3 3 0 0 0-1.456-.368q-.8 0-1.472.368-.657.352-1.056 1.088-.4.736-.4 1.792 0 1.072.384 1.808.399.736 1.056 1.104.656.352 1.44.352M28.59 9.072q1.6 0 2.592.976.992.96.992 2.784V18h-1.44v-4.96q0-1.312-.656-2-.656-.705-1.792-.704-1.152 0-1.84.72-.672.72-.672 2.096V18h-1.456V9.232h1.456v1.248a2.9 2.9 0 0 1 1.168-1.04 3.7 3.7 0 0 1 1.648-.368m7.738 1.36V15.6q0 .64.272.912.273.256.944.256h1.072V18h-1.312q-1.215 0-1.824-.56-.608-.56-.608-1.84v-5.168h-1.136v-1.2h1.136V7.024h1.456v2.208h2.288v1.2zm3.508 3.152q0-1.344.544-2.352a3.95 3.95 0 0 1 1.488-1.584q.96-.56 2.128-.56 1.152 0 2 .496t1.264 1.248v-1.6h1.472V18H47.26v-1.632q-.432.768-1.296 1.28-.847.495-1.984.496a4 4 0 0 1-2.112-.576 4.04 4.04 0 0 1-1.488-1.616q-.543-1.04-.544-2.368m7.424.016q0-.992-.4-1.728a2.75 2.75 0 0 0-1.088-1.12 2.85 2.85 0 0 0-1.488-.4q-.816 0-1.488.384t-1.072 1.12-.4 1.728q0 1.008.4 1.76a2.9 2.9 0 0 0 1.072 1.136q.672.384 1.488.384t1.488-.384a2.86 2.86 0 0 0 1.088-1.136q.4-.752.4-1.744m3.389 0q0-1.36.544-2.368a3.9 3.9 0 0 1 1.504-1.584q.975-.56 2.224-.56 1.616 0 2.656.784 1.056.784 1.392 2.176H57.4a2.24 2.24 0 0 0-.88-1.264q-.64-.465-1.6-.464-1.248 0-2.016.864-.768.847-.768 2.416 0 1.584.768 2.448t2.016.864q.96 0 1.6-.448t.88-1.28h1.568q-.352 1.344-1.408 2.16-1.056.8-2.64.8-1.248 0-2.224-.56A3.9 3.9 0 0 1 51.193 16q-.544-1.024-.544-2.4m12.039-3.168V15.6q0 .64.272.912.272.256.944.256h1.072V18h-1.312q-1.216 0-1.824-.56t-.608-1.84v-5.168h-1.136v-1.2h1.136V7.024h1.456v2.208h2.288v1.2z"/></svg>