<svg xmlns="http://www.w3.org/2000/svg" width="118" height="24" fill="none"><path fill="#000" d="M1.517 21V3.545h11.761v3.043h-8.07v4.16h7.465v3.042H5.207v4.167h8.105V21zM19.898 7.91l2.404 4.576 2.463-4.577h3.724l-3.792 6.546L28.59 21h-3.707l-2.582-4.526L19.762 21h-3.75l3.886-6.546-3.75-6.545zm16.913 13.346q-2.01 0-3.46-.853a5.76 5.76 0 0 1-2.216-2.386q-.767-1.525-.767-3.511 0-2.011.776-3.529A5.76 5.76 0 0 1 33.368 8.6q1.44-.86 3.426-.86 1.713 0 3 .622t2.037 1.747q.75 1.124.827 2.642h-3.426q-.145-.98-.767-1.577-.614-.605-1.61-.605-.845 0-1.475.46-.622.452-.972 1.321-.35.87-.35 2.105 0 1.254.342 2.131.35.877.98 1.338.63.46 1.474.46.622 0 1.117-.255.502-.256.826-.742a2.84 2.84 0 0 0 .435-1.184h3.426q-.086 1.5-.818 2.642-.724 1.133-2.003 1.772-1.278.64-3.026.64m12.522-17.71V21h-3.63V3.545zm12.024 11.88V7.91h3.63V21h-3.485v-2.378h-.137a3.87 3.87 0 0 1-1.474 1.85q-1.023.698-2.497.698-1.313 0-2.31-.596-.998-.597-1.56-1.696-.555-1.1-.562-2.634V7.91h3.63v7.688q.009 1.158.623 1.832.614.673 1.644.673.657 0 1.228-.298.57-.308.92-.903.358-.597.35-1.475m18.146-3.784-3.323.205a1.7 1.7 0 0 0-.367-.768 1.95 1.95 0 0 0-.741-.553q-.452-.214-1.083-.213-.844 0-1.423.357-.58.35-.58.938 0 .47.375.793.376.324 1.287.52l2.37.477q1.908.391 2.846 1.261t.938 2.284q0 1.287-.759 2.259-.75.97-2.062 1.517-1.304.537-3.009.537-2.599 0-4.142-1.083-1.534-1.09-1.798-2.966l3.57-.187q.163.792.785 1.21.622.41 1.594.41.954 0 1.534-.367.588-.375.596-.963-.008-.495-.417-.81-.409-.324-1.262-.494l-2.267-.452q-1.917-.384-2.855-1.33-.93-.945-.929-2.411 0-1.262.682-2.174.69-.912 1.935-1.406 1.252-.495 2.932-.494 2.48 0 3.903 1.048 1.431 1.048 1.67 2.855M82.808 21V7.91h3.63V21zm1.824-14.778q-.81 0-1.39-.537-.57-.546-.57-1.304 0-.75.57-1.287.58-.546 1.39-.546t1.38.546q.58.537.58 1.287 0 .758-.58 1.304-.57.537-1.38.537m17.64 1.687L97.695 21h-4.091L89.027 7.91h3.835l2.72 9.366h.136l2.71-9.367zm8.122 13.347q-2.02 0-3.478-.819a5.6 5.6 0 0 1-2.233-2.335q-.784-1.517-.784-3.588 0-2.02.784-3.545a5.8 5.8 0 0 1 2.208-2.378q1.431-.852 3.358-.852 1.294 0 2.412.417 1.125.41 1.96 1.236.844.826 1.312 2.08.47 1.244.469 2.914v.998h-11.054v-2.25h7.636q0-.784-.34-1.39a2.45 2.45 0 0 0-.946-.946q-.597-.35-1.39-.35-.826 0-1.466.384-.63.375-.988 1.015-.358.63-.367 1.406v2.139q0 .971.358 1.679.367.708 1.031 1.09.665.385 1.577.384.606 0 1.108-.17t.861-.511q.358-.342.545-.836l3.358.222a4.6 4.6 0 0 1-1.048 2.114q-.784.894-2.028 1.397-1.236.495-2.855.495"/></svg>