<svg xmlns="http://www.w3.org/2000/svg" width="48" height="24" fill="none"><path fill="#000" d="M9.965 6.848V18H8.509v-5.056h-5.68V18H1.373V6.848h1.456v4.896h5.68V6.848zm6.31 11.296a4.53 4.53 0 0 1-2.24-.56A4.07 4.07 0 0 1 12.467 16q-.56-1.04-.56-2.4 0-1.344.576-2.368a4 4 0 0 1 1.6-1.584q1.008-.56 2.256-.56t2.256.56q1.008.544 1.584 1.568.591 1.024.592 2.384 0 1.36-.608 2.4a4.1 4.1 0 0 1-1.616 1.584q-1.024.56-2.272.56m0-1.28q.783 0 1.472-.368a2.75 2.75 0 0 0 1.104-1.104q.432-.736.432-1.792t-.416-1.792q-.416-.735-1.088-1.088a3 3 0 0 0-1.456-.368q-.8 0-1.472.368-.657.352-1.056 1.088-.4.736-.4 1.792 0 1.072.384 1.808.399.736 1.056 1.104.655.352 1.44.352m16.954-7.792q1.024 0 1.824.432.8.416 1.264 1.264t.464 2.064V18h-1.44v-4.96q0-1.312-.656-2-.64-.705-1.744-.704-1.136 0-1.808.736-.672.72-.672 2.096V18h-1.44v-4.96q0-1.312-.656-2-.64-.705-1.744-.704-1.136 0-1.808.736-.672.72-.672 2.096V18h-1.456V9.232h1.456v1.264a2.9 2.9 0 0 1 1.152-1.056 3.56 3.56 0 0 1 1.616-.368q1.104 0 1.952.496.849.495 1.264 1.456a2.88 2.88 0 0 1 1.216-1.44 3.6 3.6 0 0 1 1.888-.512m13.94 4.208q0 .415-.047.88h-7.008q.08 1.296.88 2.032.816.72 1.968.72.943 0 1.567-.432.64-.448.896-1.184h1.569a3.8 3.8 0 0 1-1.408 2.064q-1.057.784-2.624.784-1.25 0-2.24-.56A4 4 0 0 1 39.185 16q-.56-1.04-.56-2.4t.544-2.384a3.8 3.8 0 0 1 1.52-1.568q.993-.56 2.273-.56 1.247 0 2.207.544a3.7 3.7 0 0 1 1.473 1.504q.527.945.527 2.144m-1.503-.304q0-.833-.368-1.424a2.3 2.3 0 0 0-1.009-.912 3 3 0 0 0-1.392-.32q-1.104 0-1.887.704-.768.704-.88 1.952z"/></svg>