<svg xmlns="http://www.w3.org/2000/svg" width="243" height="38" fill="none"><rect width="243" height="38" fill="#F5F5F5" rx="4"/><path fill="#000" d="M31.436 14.636 29.012 23h-1.224l-1.944-6.732L23.828 23l-1.212.012-2.34-8.376h1.164l1.824 7.092 2.016-7.092h1.224l1.92 7.068 1.836-7.068zm4.459 1.668q.744 0 1.344.324.6.312.936.948.348.636.348 1.548V23h-1.08v-3.72q0-.984-.492-1.5-.492-.528-1.344-.528-.864 0-1.38.54-.504.54-.504 1.572V23h-1.092v-8.88h1.092v3.24a2.16 2.16 0 0 1 .888-.78 2.9 2.9 0 0 1 1.284-.276m4.004 3.384q0-1.008.408-1.764a2.96 2.96 0 0 1 1.116-1.188 3.1 3.1 0 0 1 1.596-.42q.864 0 1.5.372t.948.936v-1.2h1.104V23h-1.104v-1.224q-.324.576-.972.96-.636.372-1.488.372a3 3 0 0 1-1.584-.432 3.03 3.03 0 0 1-1.116-1.212q-.408-.78-.408-1.776m5.568.012q0-.744-.3-1.296a2.07 2.07 0 0 0-.816-.84 2.14 2.14 0 0 0-1.116-.3q-.612 0-1.116.288a2.1 2.1 0 0 0-.804.84q-.3.552-.3 1.296 0 .756.3 1.32.3.552.804.852a2.2 2.2 0 0 0 1.116.288q.612 0 1.116-.288.516-.3.816-.852.3-.564.3-1.308m4.281-2.376V21.2q0 .48.204.684.204.192.708.192h.804V23h-.984q-.912 0-1.368-.42t-.456-1.38v-3.876h-.852v-.9h.852v-1.656h1.092v1.656h1.716v.9zm5.83 2.364q0-1.008.408-1.764a2.96 2.96 0 0 1 1.117-1.188 3.1 3.1 0 0 1 1.596-.42q.864 0 1.5.372t.948.936v-1.2h1.104V23h-1.104v-1.224q-.324.576-.972.96-.636.372-1.488.372a3 3 0 0 1-1.584-.432 3.03 3.03 0 0 1-1.117-1.212q-.407-.78-.407-1.776m5.569.012q0-.744-.3-1.296a2.07 2.07 0 0 0-.816-.84 2.14 2.14 0 0 0-1.117-.3q-.611 0-1.116.288a2.1 2.1 0 0 0-.803.84q-.3.552-.3 1.296 0 .756.3 1.32.3.552.803.852a2.2 2.2 0 0 0 1.116.288q.612 0 1.117-.288.515-.3.816-.852.3-.564.3-1.308m4.04-2.208q.29-.564.817-.876.54-.312 1.308-.312v1.128h-.288q-1.836 0-1.836 1.992V23h-1.092v-6.576h1.092zm9.385 1.968q0 .312-.036.66H69.28q.06.972.66 1.524.612.54 1.476.54.708 0 1.176-.324.48-.336.672-.888h1.176a2.86 2.86 0 0 1-1.056 1.548q-.792.588-1.968.588-.936 0-1.68-.42a3 3 0 0 1-1.152-1.188q-.42-.78-.42-1.8t.408-1.788a2.84 2.84 0 0 1 1.14-1.176q.744-.42 1.704-.42.936 0 1.656.408t1.104 1.128q.396.708.396 1.608m-1.128-.228q0-.624-.276-1.068a1.74 1.74 0 0 0-.756-.684q-.468-.24-1.044-.24-.828 0-1.416.528-.576.528-.66 1.464zm11.433-2.808-3.96 9.672H79.79l1.296-3.168-2.652-6.504h1.212l2.064 5.328 2.04-5.328zm3.966 6.684a3.4 3.4 0 0 1-1.68-.42 3.05 3.05 0 0 1-1.176-1.188q-.42-.78-.42-1.8 0-1.008.432-1.776.444-.78 1.2-1.188a3.4 3.4 0 0 1 1.692-.42q.936 0 1.692.42.756.408 1.188 1.176.444.768.444 1.788t-.456 1.8a3.1 3.1 0 0 1-1.212 1.188q-.768.42-1.704.42m0-.96q.588 0 1.104-.276t.828-.828q.324-.552.324-1.344t-.312-1.344a2 2 0 0 0-.816-.816 2.24 2.24 0 0 0-1.092-.276q-.6 0-1.104.276a1.95 1.95 0 0 0-.792.816q-.3.552-.3 1.344 0 .804.288 1.356.3.552.792.828.492.264 1.08.264m10.64-5.724V23H98.39v-.972q-.312.504-.876.792a2.7 2.7 0 0 1-1.224.276q-.768 0-1.38-.312a2.4 2.4 0 0 1-.972-.96q-.348-.636-.348-1.548v-3.852h1.08v3.708q0 .972.492 1.5.492.516 1.344.516.876 0 1.38-.54t.504-1.572v-3.612zm6.135-2.304V23h-1.092v-8.88zm4.729 8.988a3.4 3.4 0 0 1-1.68-.42 3.05 3.05 0 0 1-1.176-1.188q-.42-.78-.42-1.8 0-1.008.432-1.776.444-.78 1.2-1.188a3.4 3.4 0 0 1 1.692-.42q.936 0 1.692.42.756.408 1.188 1.176.444.768.444 1.788t-.456 1.8a3.1 3.1 0 0 1-1.212 1.188q-.768.42-1.704.42m0-.96q.588 0 1.104-.276t.828-.828q.324-.552.324-1.344t-.312-1.344a2 2 0 0 0-.816-.816 2.24 2.24 0 0 0-1.092-.276q-.6 0-1.104.276a1.95 1.95 0 0 0-.792.816q-.3.552-.3 1.344 0 .804.288 1.356.3.552.792.828.492.264 1.08.264m7.675.96a3.4 3.4 0 0 1-1.68-.42 3.05 3.05 0 0 1-1.176-1.188q-.42-.78-.42-1.8 0-1.008.432-1.776.444-.78 1.2-1.188a3.4 3.4 0 0 1 1.692-.42q.936 0 1.692.42.756.408 1.188 1.176.444.768.444 1.788t-.456 1.8a3.1 3.1 0 0 1-1.212 1.188q-.768.42-1.704.42m0-.96q.588 0 1.104-.276t.828-.828q.324-.552.324-1.344t-.312-1.344a2 2 0 0 0-.816-.816 2.24 2.24 0 0 0-1.092-.276q-.6 0-1.104.276a1.95 1.95 0 0 0-.792.816q-.3.552-.3 1.344 0 .804.288 1.356.3.552.792.828.492.264 1.08.264m8.48.852-2.58-2.904V23h-1.092v-8.88h1.092v5.22l2.532-2.916h1.524l-3.096 3.276 3.108 3.3zm3.068-7.644a.72.72 0 0 1-.528-.216.72.72 0 0 1-.216-.528q0-.312.216-.528a.72.72 0 0 1 .528-.216q.3 0 .504.216.216.216.216.528a.72.72 0 0 1-.216.528.67.67 0 0 1-.504.216m.528 1.068V23h-1.092v-6.576zm5.065-.12q1.2 0 1.944.732.744.72.744 2.088V23h-1.08v-3.72q0-.984-.492-1.5-.492-.528-1.344-.528-.864 0-1.38.54-.504.54-.504 1.572V23h-1.092v-6.576h1.092v.936q.324-.504.876-.78a2.8 2.8 0 0 1 1.236-.276m7.184.012q.852 0 1.488.372.648.372.96.936v-1.2h1.104v6.72q0 .9-.384 1.596-.384.708-1.104 1.104-.708.396-1.656.396-1.296 0-2.16-.612a2.4 2.4 0 0 1-1.02-1.668h1.08q.18.6.744.96.564.372 1.356.372.9 0 1.464-.564.576-.564.576-1.584v-1.38a2.6 2.6 0 0 1-.96.96q-.636.384-1.488.384a3.04 3.04 0 0 1-1.596-.432 3.03 3.03 0 0 1-1.116-1.212q-.408-.78-.408-1.776 0-1.008.408-1.764a2.96 2.96 0 0 1 1.116-1.188 3.1 3.1 0 0 1 1.596-.42m2.448 3.384q0-.744-.3-1.296a2.07 2.07 0 0 0-.816-.84 2.14 2.14 0 0 0-1.116-.3q-.612 0-1.116.288a2.1 2.1 0 0 0-.804.84q-.3.552-.3 1.296 0 .756.3 1.32.3.552.804.852a2.2 2.2 0 0 0 1.116.288q.612 0 1.116-.288.516-.3.816-.852.3-.564.3-1.308m8.825-2.376h-1.38V23h-1.092v-5.676h-.852v-.9h.852v-.468q0-1.104.564-1.608.576-.516 1.836-.516v.912q-.72 0-1.02.288-.288.276-.288.924v.468h1.38zm4.141 5.784a3.4 3.4 0 0 1-1.68-.42 3.05 3.05 0 0 1-1.176-1.188q-.42-.78-.42-1.8 0-1.008.432-1.776.444-.78 1.2-1.188a3.4 3.4 0 0 1 1.692-.42q.936 0 1.692.42.756.408 1.188 1.176.444.768.444 1.788t-.456 1.8a3.1 3.1 0 0 1-1.212 1.188q-.768.42-1.704.42m0-.96q.588 0 1.104-.276t.828-.828q.324-.552.324-1.344t-.312-1.344a2 2 0 0 0-.816-.816 2.24 2.24 0 0 0-1.092-.276q-.6 0-1.104.276a1.95 1.95 0 0 0-.792.816q-.3.552-.3 1.344 0 .804.288 1.356.3.552.792.828.492.264 1.08.264m5.9-4.656q.288-.564.816-.876.54-.312 1.308-.312v1.128h-.288q-1.836 0-1.836 1.992V23h-1.092v-6.576h1.092zm5.52-2.964q1.188 0 1.92.672t.732 1.8q0 1.26-.78 1.872-.78.6-2.112.6l-.036 1.14h-.948l-.048-1.896h.348q1.188 0 1.86-.36t.672-1.356q0-.72-.432-1.14t-1.164-.42q-.744 0-1.176.408-.42.396-.42 1.092h-1.032q0-.72.324-1.26.324-.552.912-.852.6-.3 1.38-.3m-.756 8.544a.72.72 0 0 1-.528-.216.72.72 0 0 1-.216-.528q0-.312.216-.528a.72.72 0 0 1 .528-.216q.3 0 .504.216.216.216.216.528a.72.72 0 0 1-.216.528.67.67 0 0 1-.504.216" opacity=".5"/><path stroke="#000" stroke-linecap="round" stroke-width="1.5" d="m227 27-3.778-3.784m2.094-5.058a7.156 7.156 0 0 1-7.158 7.158A7.16 7.16 0 0 1 211 18.158a7.159 7.159 0 1 1 14.316 0z"/></svg>