<svg xmlns="http://www.w3.org/2000/svg" width="61" height="24" fill="none"><path fill="#000" d="M5.143 18.112q-1.104 0-1.984-.384-.865-.4-1.36-1.088a2.83 2.83 0 0 1-.512-1.616h1.552q.08.784.64 1.328.576.528 1.664.528 1.04 0 1.632-.512.608-.528.608-1.344 0-.64-.352-1.04a2.25 2.25 0 0 0-.88-.608 14 14 0 0 0-1.424-.448q-1.104-.288-1.776-.576a2.95 2.95 0 0 1-1.136-.896q-.465-.623-.464-1.664 0-.912.464-1.616a3.03 3.03 0 0 1 1.296-1.088q.847-.384 1.936-.384 1.568 0 2.56.784 1.007.784 1.136 2.08h-1.6q-.08-.64-.672-1.12-.592-.495-1.568-.496-.912 0-1.488.48-.576.465-.576 1.312 0 .608.336.992.352.384.848.592.512.192 1.424.448 1.104.304 1.776.608.672.288 1.152.912.48.608.48 1.664 0 .816-.432 1.536t-1.28 1.168-2 .448M11.75 7.808a.96.96 0 0 1-.704-.288.96.96 0 0 1-.288-.704q0-.416.288-.704a.96.96 0 0 1 .704-.288q.399 0 .672.288a.96.96 0 0 1 .288.704.96.96 0 0 1-.288.704.89.89 0 0 1-.672.288m.704 1.424V18h-1.456V9.232zm6.097-.144q1.137 0 1.984.496.864.496 1.28 1.248v-1.6h1.472v8.96q0 1.2-.512 2.128a3.62 3.62 0 0 1-1.472 1.472q-.944.528-2.208.528-1.728 0-2.88-.816t-1.36-2.224h1.44q.24.8.992 1.28.752.495 1.808.496 1.2 0 1.952-.752.768-.752.768-2.112v-1.84q-.432.768-1.28 1.28t-1.984.512a4.06 4.06 0 0 1-2.128-.576 4.04 4.04 0 0 1-1.488-1.616q-.544-1.04-.544-2.368 0-1.344.544-2.352a3.95 3.95 0 0 1 1.488-1.584q.96-.56 2.128-.56m3.264 4.512q0-.992-.4-1.728a2.75 2.75 0 0 0-1.088-1.12 2.85 2.85 0 0 0-1.488-.4q-.816 0-1.488.384t-1.072 1.12-.4 1.728q0 1.008.4 1.76a2.9 2.9 0 0 0 1.072 1.136q.672.384 1.488.384t1.488-.384a2.86 2.86 0 0 0 1.088-1.136q.4-.752.4-1.744m8.205-4.528q1.599 0 2.592.976.992.96.992 2.784V18h-1.44v-4.96q0-1.312-.656-2-.657-.705-1.792-.704-1.152 0-1.84.72-.672.72-.672 2.096V18h-1.456V9.232h1.456v1.248a2.9 2.9 0 0 1 1.168-1.04 3.7 3.7 0 0 1 1.648-.368m11.652-2.224v7.056q0 1.488.72 2.208.736.72 2.032.72 1.28 0 2-.72.735-.72.736-2.208V6.848h1.456v7.04q0 1.392-.56 2.352a3.5 3.5 0 0 1-1.52 1.408q-.945.465-2.128.464-1.184 0-2.144-.464a3.54 3.54 0 0 1-1.504-1.408q-.544-.96-.544-2.352v-7.04zm10.829 4q.431-.751 1.28-1.248.863-.512 2-.512a4.06 4.06 0 0 1 2.111.56q.96.56 1.505 1.584.544 1.008.544 2.352 0 1.328-.544 2.368a4 4 0 0 1-1.505 1.616 3.97 3.97 0 0 1-2.111.576q-1.12 0-1.984-.496-.849-.512-1.296-1.264v5.776h-1.456V9.232H52.5zm5.952 2.736q0-.992-.4-1.728a2.75 2.75 0 0 0-1.088-1.12 2.95 2.95 0 0 0-1.489-.384 2.9 2.9 0 0 0-1.487.4q-.672.384-1.088 1.136-.4.735-.4 1.712 0 .992.4 1.744.416.736 1.087 1.136.689.384 1.489.384.816 0 1.488-.384a2.86 2.86 0 0 0 1.087-1.136q.4-.752.4-1.76"/></svg>