<svg xmlns="http://www.w3.org/2000/svg" width="1170" height="108" fill="none"><rect width="20" height="40" fill="#DB4444" rx="4"/><path fill="#DB4444" d="M42.288 26.112a5.8 5.8 0 0 1-2.88-.736 5.5 5.5 0 0 1-2.08-2.032q-.768-1.312-.768-2.96 0-1.632.768-2.928a5.5 5.5 0 0 1 2.08-2.048 5.8 5.8 0 0 1 2.88-.736q1.584 0 2.88.736a5.36 5.36 0 0 1 2.064 2.048Q48 18.752 48 20.384q0 1.648-.768 2.96a5.4 5.4 0 0 1-2.064 2.032 5.8 5.8 0 0 1-2.88.736m0-2q1.008 0 1.776-.448a3.2 3.2 0 0 0 1.2-1.312q.432-.848.432-1.968t-.432-1.952a3.07 3.07 0 0 0-1.2-1.296q-.768-.448-1.776-.448t-1.792.448q-.768.448-1.2 1.296-.432.832-.432 1.952t.432 1.968a3.2 3.2 0 0 0 1.2 1.312q.784.448 1.792.448m15.747-6.976V26h-2.256v-1.12a3 3 0 0 1-1.137.912q-.687.32-1.504.32-1.04 0-1.84-.432a3.2 3.2 0 0 1-1.264-1.296q-.447-.864-.447-2.048v-5.2h2.24v4.88q0 1.056.528 1.632.528.56 1.44.56.927 0 1.456-.56.528-.576.528-1.632v-4.88zm4.45 1.376q.432-.704 1.12-1.104.703-.4 1.6-.4v2.352h-.592q-1.056 0-1.6.496-.528.496-.528 1.728V26h-2.24v-8.864h2.24zm16.185-.224q0 .896-.432 1.68-.417.784-1.328 1.264-.896.48-2.272.48h-1.872V26h-2.24V14.832h4.112q1.296 0 2.208.448.912.449 1.36 1.232.465.785.464 1.776m-4.128 1.616q.927 0 1.376-.416.447-.432.448-1.2 0-1.632-1.824-1.632h-1.776v3.248zm7.958-1.392a3.2 3.2 0 0 1 1.12-1.104q.705-.4 1.6-.4v2.352h-.592q-1.056 0-1.6.496-.528.496-.528 1.728V26h-2.24v-8.864h2.24zm8.165 7.632q-1.28 0-2.304-.56a4.2 4.2 0 0 1-1.616-1.616q-.576-1.04-.576-2.4t.592-2.4a4.17 4.17 0 0 1 1.648-1.6q1.04-.576 2.32-.576t2.32.576a4.06 4.06 0 0 1 1.632 1.6q.608 1.04.608 2.4t-.624 2.4a4.25 4.25 0 0 1-1.664 1.616q-1.04.56-2.336.56m0-1.952q.608 0 1.136-.288.544-.304.864-.896t.32-1.44q0-1.264-.672-1.936a2.15 2.15 0 0 0-1.616-.688q-.96 0-1.616.688-.64.672-.64 1.936t.624 1.952q.64.672 1.6.672m5.691-2.656q0-1.344.528-2.384.544-1.04 1.472-1.6a3.9 3.9 0 0 1 2.064-.56q.864 0 1.648.384.784.368 1.248.992V14.16h2.272V26h-2.272v-1.312q-.416.656-1.168 1.056t-1.744.4q-1.12 0-2.048-.576t-1.472-1.616q-.528-1.057-.528-2.416m6.976.032q0-.816-.32-1.392a2.2 2.2 0 0 0-.864-.896 2.27 2.27 0 0 0-1.168-.32q-.624 0-1.152.304t-.864.896q-.32.576-.32 1.376t.32 1.408q.336.593.864.912.544.32 1.152.32.624 0 1.168-.304.544-.32.864-.896.32-.592.32-1.408m12.812-4.432V26h-2.256v-1.12a3 3 0 0 1-1.136.912q-.688.32-1.504.32-1.04 0-1.84-.432a3.2 3.2 0 0 1-1.264-1.296q-.448-.864-.448-2.048v-5.2h2.24v4.88q0 1.056.528 1.632.528.56 1.44.56.928 0 1.456-.56.528-.576.528-1.632v-4.88zm1.634 4.432q0-1.375.56-2.4a3.94 3.94 0 0 1 1.552-1.6q.992-.576 2.272-.576 1.648 0 2.72.832 1.088.816 1.456 2.304h-2.416a1.7 1.7 0 0 0-.656-.896q-.448-.336-1.12-.336-.96 0-1.52.704-.56.688-.56 1.968 0 1.264.56 1.968.56.688 1.52.688 1.36 0 1.776-1.216h2.416q-.368 1.44-1.456 2.288t-2.72.848q-1.28 0-2.272-.56a4.07 4.07 0 0 1-1.552-1.6q-.56-1.04-.56-2.416m12.809-2.592v4.288q0 .448.208.656.224.192.736.192h1.04V26h-1.408q-2.832 0-2.832-2.752v-4.272h-1.056v-1.84h1.056v-2.192h2.256v2.192h1.984v1.84zm6.987 7.168q-1.088 0-1.952-.384-.864-.4-1.376-1.072a2.73 2.73 0 0 1-.544-1.488h2.256q.064.512.496.848.449.336 1.104.336.64 0 .992-.256.368-.256.368-.656 0-.432-.448-.64-.432-.225-1.392-.48a12 12 0 0 1-1.632-.496 2.9 2.9 0 0 1-1.088-.784q-.448-.528-.448-1.424 0-.736.416-1.344.432-.608 1.216-.96.8-.352 1.872-.352 1.584 0 2.528.8.944.784 1.04 2.128h-2.144a1.12 1.12 0 0 0-.448-.832q-.384-.32-1.04-.32-.608 0-.944.224a.72.72 0 0 0-.32.624q0 .448.448.688.449.224 1.392.464.96.24 1.584.496.624.255 1.072.8.464.528.48 1.408 0 .767-.432 1.376-.416.608-1.216.96-.784.336-1.84.336"/><path fill="#000" d="M2.582 97V70.818h17.029v3.976H7.325v7.108H18.73v3.976H7.325v7.146h12.388V97zM29.47 77.364l3.963 7.248 4.027-7.248h4.896l-5.919 9.818L42.458 97h-4.871l-4.155-7.07L29.316 97h-4.91l5.984-9.818-5.83-9.818zm17.906 27v-27h4.551v3.247h.269a8.5 8.5 0 0 1 1.01-1.522q.651-.818 1.764-1.393 1.111-.588 2.838-.588 2.276 0 4.103 1.163 1.842 1.15 2.915 3.414 1.087 2.25 1.087 5.522 0 3.235-1.061 5.498t-2.89 3.451q-1.827 1.19-4.141 1.19-1.688 0-2.8-.563t-1.79-1.355a8.8 8.8 0 0 1-1.035-1.522h-.192v10.458zm4.538-17.182q0 1.905.537 3.337.55 1.431 1.573 2.237 1.035.792 2.505.792 1.535 0 2.57-.818 1.035-.83 1.56-2.263.537-1.445.537-3.285 0-1.828-.525-3.247-.524-1.42-1.56-2.225-1.034-.805-2.582-.805-1.483 0-2.518.78-1.036.78-1.572 2.186-.525 1.405-.525 3.31m24.03-16.364V97h-4.628V70.818zm14.764 26.566q-2.876 0-4.986-1.266t-3.272-3.541q-1.15-2.276-1.151-5.318 0-3.043 1.15-5.331 1.164-2.288 3.273-3.554t4.986-1.266 4.986 1.266q2.11 1.265 3.26 3.554 1.163 2.288 1.163 5.33t-1.163 5.319q-1.15 2.275-3.26 3.54-2.109 1.267-4.986 1.266m.026-3.708q1.56 0 2.608-.856 1.048-.87 1.56-2.327.523-1.458.523-3.247 0-1.803-.524-3.26-.51-1.47-1.56-2.34-1.048-.87-2.607-.869-1.599 0-2.66.87-1.047.869-1.572 2.339-.51 1.457-.511 3.26 0 1.79.511 3.247.525 1.457 1.573 2.327 1.06.856 2.659.856M105.484 97V77.364h4.487v3.272h.205q.537-1.7 1.841-2.62 1.317-.934 3.004-.934.383 0 .857.039.485.025.805.09v4.256q-.294-.101-.933-.179a9 9 0 0 0-1.215-.09q-1.266 0-2.275.55a4.03 4.03 0 0 0-1.573 1.496q-.575.96-.575 2.212V97zm23.598.383q-2.953 0-5.101-1.227-2.135-1.24-3.285-3.503-1.15-2.275-1.151-5.356 0-3.03 1.151-5.318 1.163-2.302 3.247-3.58 2.084-1.29 4.896-1.291 1.815 0 3.426.588a7.7 7.7 0 0 1 2.864 1.79q1.252 1.214 1.969 3.093.716 1.867.716 4.45v1.418h-16.096v-3.119h11.66q-.014-1.33-.576-2.365a4.2 4.2 0 0 0-1.572-1.65q-.997-.6-2.327-.6-1.419 0-2.493.69a4.75 4.75 0 0 0-1.674 1.79 5.1 5.1 0 0 0-.601 2.416v2.723q0 1.714.626 2.94.627 1.215 1.752 1.867 1.125.64 2.633.64 1.01 0 1.828-.282a4.05 4.05 0 0 0 1.419-.856q.601-.563.908-1.394l4.321.486a6.74 6.74 0 0 1-1.56 2.991q-1.137 1.266-2.915 1.97-1.776.69-4.065.69m48.056-13.474q0 4.231-1.585 7.249-1.573 3.004-4.296 4.602-2.71 1.598-6.149 1.598t-6.162-1.598q-2.71-1.61-4.295-4.615-1.573-3.017-1.573-7.236 0-4.23 1.573-7.236 1.585-3.017 4.295-4.615 2.722-1.598 6.162-1.598t6.149 1.598q2.723 1.599 4.296 4.615 1.584 3.004 1.585 7.236m-4.769 0q0-2.978-.933-5.024-.92-2.058-2.557-3.107-1.637-1.06-3.771-1.06t-3.771 1.06q-1.637 1.05-2.57 3.107-.92 2.046-.92 5.024t.92 5.037q.933 2.046 2.57 3.107 1.637 1.048 3.771 1.048t3.771-1.048q1.637-1.061 2.557-3.107.933-2.058.933-5.037m23.004 4.832V77.365h4.628V97h-4.487v-3.49h-.205q-.665 1.65-2.186 2.697-1.509 1.05-3.72 1.049-1.93 0-3.414-.857-1.47-.87-2.301-2.518-.831-1.662-.831-4.014V77.364h4.628V89.15q0 1.866 1.023 2.966 1.023 1.099 2.685 1.099 1.022 0 1.981-.499.958-.498 1.573-1.483.626-.996.626-2.492M206.2 97V77.364h4.487v3.272h.204q.537-1.7 1.841-2.62 1.317-.934 3.005-.934.383 0 .856.039.486.025.806.09v4.256q-.294-.101-.934-.179a9 9 0 0 0-1.214-.09q-1.266 0-2.276.55a4 4 0 0 0-1.572 1.496q-.575.96-.575 2.212V97zm26.287 0V70.818h9.819q3.016 0 5.062 1.125 2.058 1.125 3.107 3.094 1.06 1.956 1.061 4.449 0 2.518-1.061 4.474-1.062 1.956-3.133 3.081-2.07 1.113-5.1 1.112h-6.507v-3.899h5.867q1.765 0 2.89-.613 1.125-.614 1.662-1.688.549-1.074.549-2.467t-.549-2.455q-.538-1.06-1.675-1.649-1.125-.6-2.902-.6h-4.347V97zm24.404 0V77.364h4.487v3.272h.205q.537-1.7 1.84-2.62 1.317-.934 3.005-.934.383 0 .856.039.486.025.806.09v4.256q-.294-.101-.934-.179a9 9 0 0 0-1.214-.09q-1.265 0-2.276.55a4 4 0 0 0-1.572 1.496q-.576.96-.575 2.212V97zm23.47.383q-2.877 0-4.986-1.265-2.109-1.266-3.273-3.541-1.15-2.276-1.15-5.318 0-3.043 1.15-5.331 1.164-2.288 3.273-3.554t4.986-1.266 4.986 1.266 3.26 3.554q1.163 2.288 1.163 5.33t-1.163 5.319q-1.15 2.275-3.26 3.54-2.109 1.267-4.986 1.266m.026-3.707q1.559 0 2.608-.856 1.047-.87 1.559-2.327.524-1.458.524-3.247 0-1.803-.524-3.26-.512-1.47-1.559-2.34-1.049-.87-2.608-.869-1.599 0-2.66.87-1.048.869-1.572 2.339-.511 1.457-.511 3.26 0 1.79.511 3.247.524 1.457 1.572 2.327 1.062.856 2.66.856m22.038 3.67q-2.314 0-4.142-1.19-1.829-1.188-2.889-3.452-1.062-2.262-1.061-5.497 0-3.272 1.073-5.522 1.088-2.264 2.928-3.414 1.84-1.163 4.104-1.163 1.725 0 2.838.588 1.111.575 1.764 1.394a8.5 8.5 0 0 1 1.01 1.52h.192v-9.792h4.64V97h-4.551v-3.094h-.281q-.358.716-1.036 1.522-.677.792-1.789 1.355-1.113.562-2.8.562m1.291-3.798q1.47 0 2.506-.792 1.035-.806 1.572-2.237t.537-3.337-.537-3.311q-.524-1.406-1.559-2.186-1.023-.78-2.519-.78-1.547 0-2.582.805-1.036.806-1.56 2.225t-.524 3.247q0 1.84.524 3.285.537 1.433 1.573 2.263 1.047.819 2.569.818m28.053-4.806V77.364h4.628V97h-4.487v-3.49h-.205q-.664 1.65-2.186 2.697-1.507 1.05-3.72 1.049-1.93 0-3.413-.857-1.47-.87-2.301-2.518-.831-1.662-.831-4.014V77.364h4.628V89.15q0 1.866 1.022 2.966 1.023 1.099 2.685 1.099 1.022 0 1.982-.499.959-.498 1.572-1.483.626-.996.626-2.492m19.392 8.641q-2.94 0-5.049-1.29-2.097-1.292-3.235-3.567-1.125-2.29-1.125-5.267 0-2.993 1.151-5.28 1.15-2.302 3.247-3.58 2.109-1.29 4.986-1.291 2.39 0 4.231.882 1.854.87 2.954 2.467 1.1 1.585 1.252 3.708h-4.423q-.269-1.42-1.278-2.365-.998-.96-2.672-.96-1.419 0-2.493.768-1.074.754-1.675 2.173-.588 1.42-.588 3.4 0 2.008.588 3.453.588 1.431 1.649 2.211 1.074.767 2.519.767 1.023 0 1.828-.383a3.7 3.7 0 0 0 1.368-1.138q.55-.741.754-1.803h4.423q-.165 2.084-1.227 3.695-1.06 1.597-2.889 2.506-1.829.894-4.296.894m23.458-20.02v3.58h-11.288v-3.58zm-8.502-4.704h4.628v18.435q0 .933.282 1.432.294.485.767.664.472.18 1.048.18.435 0 .793-.065a7 7 0 0 0 .562-.115l.78 3.618q-.37.129-1.061.281-.678.154-1.662.18-1.738.051-3.132-.525a4.9 4.9 0 0 1-2.212-1.815q-.805-1.226-.793-3.068zm29.051 9.895-4.219.46a3.4 3.4 0 0 0-.626-1.201q-.435-.564-1.176-.908-.742-.345-1.816-.345-1.444 0-2.429.626-.97.627-.959 1.624-.012.855.627 1.393.652.537 2.148.882l3.349.716q2.787.6 4.142 1.905 1.368 1.305 1.381 3.413-.013 1.854-1.087 3.273-1.061 1.406-2.953 2.199t-4.347.793q-3.605 0-5.804-1.509-2.198-1.521-2.62-4.231l4.512-.435q.308 1.329 1.304 2.007.997.678 2.596.678 1.648 0 2.646-.678 1.01-.678 1.01-1.675 0-.844-.652-1.393-.64-.55-1.994-.844l-3.35-.703q-2.825-.588-4.18-1.982-1.356-1.406-1.343-3.554-.012-1.815.985-3.144 1.01-1.343 2.8-2.072 1.802-.741 4.154-.741 3.452 0 5.434 1.47 1.994 1.47 2.467 3.976"/><circle cx="1093" cy="85" r="23" fill="#F5F5F5"/><path stroke="#000" stroke-linecap="round" stroke-linejoin="round" stroke-width="2" d="m1092 78-7 7 7 7m-7-7h16"/><circle cx="1147" cy="85" r="23" fill="#F5F5F5"/><path stroke="#000" stroke-linecap="round" stroke-linejoin="round" stroke-width="1.5" d="M1138.5 85h16.5m0 0-7-7m7 7-7 7"/></svg>