<svg xmlns="http://www.w3.org/2000/svg" width="170" height="145" fill="none"><rect width="169" height="144" x=".5" y=".5" stroke="#000" stroke-opacity=".3" rx="3.5"/><path fill="#000" d="M63.688 107.112q0 1.392-.96 2.32-.945.912-2.896.912h-2.144V115h-1.456v-11.152h3.6q1.888 0 2.864.912.992.912.992 2.352m-3.856 2.032q1.216 0 1.792-.528t.576-1.504q0-2.064-2.368-2.064h-2.144v4.096zm10.018-3.072a3.7 3.7 0 0 1 1.792.432q.8.416 1.248 1.264.464.847.464 2.064V115h-1.44v-4.96q0-1.312-.656-2-.657-.704-1.792-.704-1.153 0-1.84.72-.672.72-.672 2.096V115h-1.456v-11.84h1.456v4.32a2.9 2.9 0 0 1 1.184-1.04 3.9 3.9 0 0 1 1.712-.368m9.706 9.072a4.54 4.54 0 0 1-2.24-.56A4.07 4.07 0 0 1 75.748 113q-.56-1.04-.56-2.4 0-1.344.576-2.368a4 4 0 0 1 1.6-1.584q1.008-.56 2.256-.56t2.256.56q1.008.544 1.584 1.568.592 1.024.592 2.384t-.608 2.4a4.1 4.1 0 0 1-1.616 1.584 4.66 4.66 0 0 1-2.272.56m0-1.28q.784 0 1.472-.368a2.74 2.74 0 0 0 1.104-1.104q.432-.736.432-1.792t-.416-1.792-1.088-1.088a3 3 0 0 0-1.456-.368q-.8 0-1.472.368-.656.352-1.056 1.088t-.4 1.792q0 1.072.384 1.808.4.736 1.056 1.104.656.352 1.44.352m10.682-7.792q1.6 0 2.592.976.993.96.992 2.784V115h-1.44v-4.96q0-1.312-.656-2-.655-.704-1.792-.704-1.152 0-1.84.72-.672.72-.672 2.096V115h-1.456v-8.768h1.456v1.248a2.9 2.9 0 0 1 1.168-1.04 3.7 3.7 0 0 1 1.648-.368m13.963 4.208q0 .416-.048.88h-7.008q.08 1.296.88 2.032.816.72 1.968.72.944 0 1.568-.432.64-.448.896-1.184h1.568a3.8 3.8 0 0 1-1.408 2.064q-1.056.784-2.624.784-1.248 0-2.24-.56A4 4 0 0 1 96.217 113q-.56-1.04-.56-2.4t.544-2.384a3.8 3.8 0 0 1 1.52-1.568q.991-.56 2.272-.56 1.248 0 2.208.544t1.472 1.504q.528.944.528 2.144m-1.504-.304q0-.832-.368-1.424a2.33 2.33 0 0 0-1.008-.912 3 3 0 0 0-1.392-.32q-1.105 0-1.888.704-.768.704-.88 1.952zm6.53 5.168q-1.008 0-1.808-.336-.8-.352-1.264-.96a2.6 2.6 0 0 1-.512-1.424h1.504q.063.656.608 1.072.56.416 1.456.416.832 0 1.312-.368t.48-.928q0-.576-.512-.848-.513-.288-1.584-.56a13 13 0 0 1-1.6-.512 3 3 0 0 1-1.056-.784q-.432-.528-.432-1.376 0-.672.4-1.232t1.136-.88q.735-.336 1.68-.336 1.455 0 2.352.736t.96 2.016h-1.456a1.5 1.5 0 0 0-.56-1.104q-.497-.416-1.344-.416-.784 0-1.248.336t-.464.88q0 .432.272.72.287.272.704.448.431.16 1.184.368.944.256 1.536.512.591.24 1.008.736.432.497.448 1.296 0 .72-.4 1.296t-1.136.912q-.72.32-1.664.32"/><g stroke="#000" clip-path="url(#a)"><path stroke-linecap="round" stroke-linejoin="round" stroke-width="2" d="M95.938 31.125H74.062a2.734 2.734 0 0 0-2.734 2.734v38.282a2.734 2.734 0 0 0 2.734 2.734h21.876a2.734 2.734 0 0 0 2.734-2.734V33.859a2.734 2.734 0 0 0-2.734-2.734"/><path stroke-linecap="round" stroke-linejoin="round" stroke-width="3" d="M82.667 32h5.468"/><path stroke-linecap="round" stroke-linejoin="round" stroke-width="2.5" d="M85 69.005v.026"/><path stroke-width="2" d="M72.167 64.833h25.666"/></g><defs><clipPath id="a"><path fill="#fff" d="M57 25h56v56H57z"/></clipPath></defs></svg>