<svg xmlns="http://www.w3.org/2000/svg" width="260" height="56" fill="none"><rect width="260" height="56" fill="#DB4444" rx="4"/><path fill="#FAFAFA" d="M56.976 26.192q0 .848-.4 1.6t-1.28 1.232q-.88.464-2.256.464h-2.016V34H49.2V22.88h3.84q1.28 0 2.16.448.896.432 1.328 1.184a3.2 3.2 0 0 1 .448 1.68M53.04 28q1.04 0 1.552-.464.512-.48.512-1.344 0-1.824-2.064-1.824h-2.016V28zm7.5-1.536a2.8 2.8 0 0 1 1.056-1.04q.672-.384 1.584-.384v1.888h-.464q-1.072 0-1.632.544-.544.544-.544 1.888V34h-1.824v-8.816h1.824zm8.14 7.68q-1.248 0-2.256-.56a4.15 4.15 0 0 1-1.584-1.6q-.576-1.04-.576-2.4 0-1.344.592-2.384a4.1 4.1 0 0 1 1.616-1.6q1.025-.56 2.288-.56 1.265 0 2.288.56a4.1 4.1 0 0 1 1.616 1.6q.592 1.04.592 2.384t-.608 2.384a4.25 4.25 0 0 1-1.664 1.616 4.8 4.8 0 0 1-2.304.56m0-1.584q.705 0 1.312-.336.624-.336 1.008-1.008t.384-1.632-.368-1.616a2.47 2.47 0 0 0-.976-1.008 2.67 2.67 0 0 0-1.312-.336q-.704 0-1.312.336-.592.336-.944 1.008-.351.656-.352 1.616 0 1.424.72 2.208.736.768 1.84.768m5.771-2.976q0-1.36.544-2.384a3.97 3.97 0 0 1 1.536-1.6q.977-.56 2.24-.56 1.6 0 2.64.768 1.056.752 1.424 2.16h-1.968a2.1 2.1 0 0 0-.768-1.024q-.528-.368-1.328-.368-1.12 0-1.792.8-.656.784-.656 2.208t.656 2.224q.673.8 1.792.8 1.584 0 2.096-1.392h1.968q-.384 1.343-1.44 2.144-1.055.784-2.624.784-1.263 0-2.24-.56a4.1 4.1 0 0 1-1.536-1.6q-.543-1.04-.544-2.4m18.282-.208q0 .496-.064.896h-6.736q.08 1.056.784 1.696t1.728.64q1.473 0 2.08-1.232h1.968a4 4 0 0 1-1.456 2q-1.04.768-2.592.768-1.263 0-2.272-.56a4.2 4.2 0 0 1-1.568-1.6q-.56-1.04-.56-2.4t.544-2.384a3.94 3.94 0 0 1 1.552-1.6q1.008-.56 2.304-.56 1.248 0 2.224.544a3.83 3.83 0 0 1 1.52 1.536q.544.976.544 2.256M90.83 28.8q-.015-1.008-.72-1.616-.704-.608-1.744-.608-.944 0-1.616.608-.672.592-.8 1.616zm11.779.576q0 .496-.064.896h-6.736q.08 1.056.784 1.696t1.728.64q1.473 0 2.08-1.232h1.968a4 4 0 0 1-1.456 2q-1.04.768-2.592.768-1.263 0-2.272-.56a4.2 4.2 0 0 1-1.568-1.6q-.56-1.04-.56-2.4t.544-2.384a3.94 3.94 0 0 1 1.552-1.6q1.008-.56 2.304-.56 1.248 0 2.224.544a3.83 3.83 0 0 1 1.52 1.536q.544.976.544 2.256m-1.904-.576q-.016-1.008-.72-1.616t-1.744-.608q-.944 0-1.616.608-.672.592-.8 1.616zm6.899 5.344q-1.04 0-1.872-.368-.816-.384-1.296-1.024a2.6 2.6 0 0 1-.512-1.456h1.888q.048.56.528.944.496.368 1.232.368.768 0 1.184-.288.432-.304.432-.768 0-.495-.48-.736-.464-.24-1.488-.528-.992-.271-1.616-.528a2.9 2.9 0 0 1-1.088-.784q-.448-.528-.448-1.392 0-.705.416-1.28.416-.592 1.184-.928.784-.336 1.792-.336 1.504 0 2.416.768.928.752.992 2.064h-1.824a1.3 1.3 0 0 0-.48-.944q-.432-.352-1.168-.352-.72 0-1.104.272a.84.84 0 0 0-.384.72q0 .352.256.592.257.24.624.384.368.128 1.088.336.96.256 1.568.528.624.256 1.072.768t.464 1.36q0 .752-.416 1.344t-1.184.928q-.752.336-1.776.336m11.631-7.472v4.88q0 .495.224.72.24.208.8.208h1.12V34h-1.44q-1.231 0-1.888-.576t-.656-1.872v-4.88h-1.04v-1.488h1.04v-2.192h1.84v2.192h2.144v1.488zm7.649 7.472q-1.248 0-2.256-.56a4.15 4.15 0 0 1-1.584-1.6q-.576-1.04-.576-2.4 0-1.344.592-2.384a4.1 4.1 0 0 1 1.616-1.6q1.025-.56 2.288-.56 1.265 0 2.288.56a4.1 4.1 0 0 1 1.616 1.6q.592 1.04.592 2.384t-.608 2.384a4.25 4.25 0 0 1-1.664 1.616 4.8 4.8 0 0 1-2.304.56m0-1.584q.705 0 1.312-.336.624-.336 1.008-1.008t.384-1.632-.368-1.616a2.47 2.47 0 0 0-.976-1.008 2.67 2.67 0 0 0-1.312-.336q-.703 0-1.312.336-.591.336-.944 1.008-.352.656-.352 1.616 0 1.424.72 2.208.736.768 1.84.768m9.928-2.976q0-1.36.544-2.384a3.96 3.96 0 0 1 1.536-1.6q.975-.56 2.24-.56 1.599 0 2.64.768 1.056.752 1.424 2.16h-1.968a2.1 2.1 0 0 0-.768-1.024q-.528-.368-1.328-.368-1.12 0-1.792.8-.656.784-.656 2.208t.656 2.224q.672.8 1.792.8 1.584 0 2.096-1.392h1.968q-.384 1.343-1.44 2.144-1.056.784-2.624.784-1.265 0-2.24-.56a4.1 4.1 0 0 1-1.536-1.6q-.544-1.04-.544-2.4m14.762-4.544q1.008 0 1.792.432.8.432 1.248 1.28.464.848.464 2.048V34h-1.808v-4.928q0-1.184-.592-1.808-.593-.64-1.616-.64-1.025 0-1.632.64-.592.624-.592 1.808V34h-1.824V22.16h1.824v4.048a3.06 3.06 0 0 1 1.168-.864 4 4 0 0 1 1.568-.304m13.91 4.336q0 .496-.064.896h-6.736q.08 1.056.784 1.696.703.64 1.728.64 1.472 0 2.08-1.232h1.968a4 4 0 0 1-1.456 2q-1.04.768-2.592.768-1.264 0-2.272-.56a4.2 4.2 0 0 1-1.568-1.6q-.56-1.04-.56-2.4t.544-2.384a3.94 3.94 0 0 1 1.552-1.6q1.008-.56 2.304-.56 1.248 0 2.224.544a3.83 3.83 0 0 1 1.52 1.536q.544.976.544 2.256m-1.904-.576q-.017-1.008-.72-1.616-.704-.608-1.744-.608-.944 0-1.616.608-.672.592-.8 1.616zm3.091.784q0-1.36.544-2.384a3.96 3.96 0 0 1 1.536-1.6q.976-.56 2.24-.56 1.6 0 2.64.768 1.056.752 1.424 2.16h-1.968a2.1 2.1 0 0 0-.768-1.024q-.528-.368-1.328-.368-1.12 0-1.792.8-.656.784-.656 2.208t.656 2.224q.672.8 1.792.8 1.584 0 2.096-1.392h1.968q-.384 1.343-1.44 2.144-1.056.784-2.624.784-1.264 0-2.24-.56a4.1 4.1 0 0 1-1.536-1.6q-.544-1.04-.544-2.4m13.69.016 4.064 4.4h-2.464l-3.264-3.792V34h-1.824V22.16h1.824v6.88l3.2-3.856h2.528zm9.195 4.544q-1.248 0-2.256-.56a4.15 4.15 0 0 1-1.584-1.6q-.576-1.04-.576-2.4 0-1.344.592-2.384a4.1 4.1 0 0 1 1.616-1.6q1.025-.56 2.288-.56 1.265 0 2.288.56a4.1 4.1 0 0 1 1.616 1.6q.592 1.04.592 2.384t-.608 2.384a4.25 4.25 0 0 1-1.664 1.616 4.8 4.8 0 0 1-2.304.56m0-1.584q.705 0 1.312-.336.624-.336 1.008-1.008t.384-1.632-.368-1.616a2.47 2.47 0 0 0-.976-1.008 2.67 2.67 0 0 0-1.312-.336q-.703 0-1.312.336-.591.336-.944 1.008-.352.656-.352 1.616 0 1.424.72 2.208.736.768 1.84.768m14.363-7.376V34h-1.824v-1.04q-.432.544-1.136.864a3.6 3.6 0 0 1-1.472.304q-1.04 0-1.872-.432a3.2 3.2 0 0 1-1.296-1.28q-.464-.848-.464-2.048v-5.184h1.808v4.912q0 1.184.592 1.824.593.624 1.616.624 1.025 0 1.616-.624.608-.64.608-1.824v-4.912zm4.535 1.488v4.88q0 .495.224.72.24.208.8.208h1.12V34h-1.44q-1.232 0-1.888-.576t-.656-1.872v-4.88h-1.04v-1.488h1.04v-2.192h1.84v2.192h2.144v1.488z"/></svg>