<svg xmlns="http://www.w3.org/2000/svg" width="399" height="180" fill="none"><rect width="398" height="179" x=".5" y=".5" stroke="#000" stroke-opacity=".5" rx="3.5"/><path stroke="#000" d="M0 89.5h399" opacity=".5"/><g stroke="#000" stroke-linecap="round" stroke-linejoin="round" stroke-width="2" clip-path="url(#a)"><path d="M27.667 60.667a3.333 3.333 0 1 0 0-6.667 3.333 3.333 0 0 0 0 6.667m16.666 0a3.333 3.333 0 1 0 0-6.667 3.333 3.333 0 0 0 0 6.667"/><path d="M24.334 57.334h-1.333a2 2 0 0 1-2-2v-4.667m-1.667-13.333h16.333a2 2 0 0 1 2 2v18m-6.666 0h10m6.666 0h1.334a2 2 0 0 0 2-2v-8m0 0H37.667m13.334 0-4.418-7.363a2 2 0 0 0-1.715-.97h-7.2"/><path d="M24 57h-1.333a2 2 0 0 1-2-2v-4.667M19 37h16.333a2 2 0 0 1 2 2v18M31 57h9.667M48 57h.667a2 2 0 0 0 2-2v-8m0 0H37.333m13.334 0-4.418-7.362a2 2 0 0 0-1.715-.971h-7.2M21 40.818h6.667m-9.849 3.637h6.667M21 48.09h6.667"/></g><path fill="#000" d="M79.744 30.88v1.488h-4.72v3.28h3.68v1.488h-3.68V42H73.2V30.88zm3.514 3.584a2.8 2.8 0 0 1 1.056-1.04q.672-.384 1.584-.384v1.888h-.464q-1.071 0-1.632.544-.543.544-.544 1.888V42h-1.824v-8.816h1.824zm12.397 2.912q0 .496-.064.896h-6.736q.08 1.057.784 1.696.704.64 1.728.64 1.472 0 2.08-1.232h1.968a4 4 0 0 1-1.456 2q-1.04.768-2.592.768-1.264 0-2.272-.56a4.2 4.2 0 0 1-1.568-1.6q-.56-1.04-.56-2.4t.544-2.384a3.94 3.94 0 0 1 1.552-1.6q1.008-.56 2.304-.56 1.248 0 2.224.544a3.83 3.83 0 0 1 1.52 1.536q.544.976.544 2.256m-1.904-.576q-.015-1.008-.72-1.616-.704-.608-1.744-.608-.945 0-1.616.608-.672.592-.8 1.616zm11.779.576q0 .496-.064.896H98.73q.08 1.057.784 1.696.704.64 1.728.64 1.472 0 2.08-1.232h1.968a4 4 0 0 1-1.456 2q-1.04.768-2.592.768-1.264 0-2.272-.56a4.2 4.2 0 0 1-1.568-1.6q-.56-1.04-.56-2.4t.544-2.384a3.94 3.94 0 0 1 1.552-1.6q1.008-.56 2.304-.56 1.248 0 2.224.544a3.83 3.83 0 0 1 1.52 1.536q.544.976.544 2.256m-1.904-.576q-.017-1.008-.72-1.616-.704-.608-1.744-.608-.944 0-1.616.608-.672.592-.8 1.616zm11.487-5.92q1.776 0 3.104.688a4.74 4.74 0 0 1 2.064 1.952q.736 1.265.736 2.96t-.736 2.944q-.72 1.248-2.064 1.92-1.328.656-3.104.656h-3.632V30.88zm0 9.632q1.953 0 2.992-1.056 1.04-1.056 1.04-2.976 0-1.936-1.04-3.024t-2.992-1.088h-1.808v8.144zm15.792-3.136q0 .496-.064.896h-6.736q.08 1.057.784 1.696.704.64 1.728.64 1.472 0 2.08-1.232h1.968a4 4 0 0 1-1.456 2q-1.04.768-2.592.768-1.264 0-2.272-.56a4.2 4.2 0 0 1-1.568-1.6q-.56-1.04-.56-2.4t.544-2.384a3.94 3.94 0 0 1 1.552-1.6q1.008-.56 2.304-.56 1.248 0 2.224.544a3.83 3.83 0 0 1 1.52 1.536q.544.976.544 2.256m-1.904-.576q-.016-1.008-.72-1.616t-1.744-.608q-.944 0-1.616.608-.672.592-.8 1.616zm5.523-6.64V42H132.7V30.16zm3.323 1.856a1.13 1.13 0 0 1-.832-.336 1.13 1.13 0 0 1-.336-.832q0-.495.336-.832a1.13 1.13 0 0 1 .832-.336q.48 0 .816.336t.336.832q0 .495-.336.832a1.1 1.1 0 0 1-.816.336m.896 1.168V42h-1.824v-8.816zm5.803 7.184 2.496-7.184h1.935L145.618 42h-2.176l-3.344-8.816h1.951zm13.89-2.992q0 .496-.064.896h-6.736q.08 1.057.784 1.696.705.64 1.728.64 1.473 0 2.08-1.232h1.968a4 4 0 0 1-1.456 2q-1.04.768-2.592.768-1.263 0-2.272-.56a4.2 4.2 0 0 1-1.568-1.6q-.56-1.04-.56-2.4t.544-2.384a3.94 3.94 0 0 1 1.552-1.6q1.008-.56 2.304-.56 1.249 0 2.224.544a3.83 3.83 0 0 1 1.52 1.536q.544.976.544 2.256m-1.904-.576q-.015-1.008-.72-1.616-.703-.608-1.744-.608-.944 0-1.616.608-.672.592-.8 1.616zm5.523-2.336a2.8 2.8 0 0 1 1.056-1.04q.672-.384 1.584-.384v1.888h-.464q-1.071 0-1.632.544-.543.544-.544 1.888V42h-1.824v-8.816h1.824zm12.253-1.28-5.408 12.96h-1.888l1.792-4.288-3.472-8.672h2.032l2.48 6.72 2.576-6.72zm-100.04 28.58v2.448h2.88v1.116h-2.88v2.556h3.24V69H72.9v-8.352h4.608v1.116zm8.261.516q.78 0 1.392.324.624.324.972.96t.348 1.536V69h-1.356v-3.696q0-.888-.444-1.356-.444-.48-1.212-.48t-1.224.48q-.444.468-.444 1.356V69h-1.368v-6.612h1.368v.756q.336-.408.852-.636a2.8 2.8 0 0 1 1.116-.228m6.053 1.224v3.66q0 .372.168.54.18.156.6.156h.84V69h-1.08q-.924 0-1.416-.432t-.492-1.404v-3.66h-.78v-1.116h.78v-1.644h1.38v1.644h1.608v1.116zm8.929 2.028q0 .372-.048.672H92.41q.06.792.588 1.272t1.296.48q1.104 0 1.56-.924h1.476a3 3 0 0 1-1.092 1.5q-.78.576-1.944.576-.948 0-1.704-.42a3.14 3.14 0 0 1-1.176-1.2q-.42-.78-.42-1.8t.408-1.788q.42-.78 1.164-1.2.756-.42 1.728-.42.936 0 1.668.408t1.14 1.152q.408.732.408 1.692m-1.428-.432q-.012-.756-.54-1.212t-1.308-.456q-.708 0-1.212.456-.504.444-.6 1.212zm4.142-1.752q.3-.504.792-.78.504-.288 1.188-.288v1.416h-.348q-.804 0-1.224.408-.408.408-.408 1.416V69h-1.368v-6.612h1.368zm12.307-.96-4.056 9.72h-1.416l1.344-3.216-2.604-6.504h1.524l1.86 5.04 1.932-5.04zm3.9 6.72q-.936 0-1.692-.42a3.1 3.1 0 0 1-1.188-1.2q-.432-.78-.432-1.8 0-1.008.444-1.788t1.212-1.2a3.5 3.5 0 0 1 1.716-.42q.948 0 1.716.42t1.212 1.2.444 1.788-.456 1.788-1.248 1.212q-.78.42-1.728.42m0-1.188q.528 0 .984-.252.468-.252.756-.756t.288-1.224-.276-1.212a1.86 1.86 0 0 0-.732-.756 2 2 0 0 0-.984-.252q-.528 0-.984.252-.444.252-.708.756-.264.492-.264 1.212 0 1.068.54 1.656.552.576 1.38.576m10.772-5.532V69h-1.368v-.78q-.324.408-.852.648a2.7 2.7 0 0 1-1.104.228q-.78 0-1.404-.324a2.4 2.4 0 0 1-.972-.96q-.348-.636-.348-1.536v-3.888h1.356v3.684q0 .888.444 1.368.444.468 1.212.468t1.212-.468q.456-.48.456-1.368v-3.684zm3.173.96q.3-.504.792-.78.504-.288 1.188-.288v1.416h-.348q-.804 0-1.224.408-.408.408-.408 1.416V69h-1.368v-6.612h1.368zm7.723.012a2.8 2.8 0 0 1 .948-.768q.6-.312 1.356-.312.864 0 1.572.432.72.42 1.128 1.188t.408 1.764-.408 1.788q-.408.78-1.128 1.224a2.96 2.96 0 0 1-1.572.432q-.756 0-1.344-.3a3.1 3.1 0 0 1-.96-.768v4.104h-1.368v-9.756h1.368zm4.02 2.304q0-.684-.288-1.176a1.83 1.83 0 0 0-.744-.756 1.97 1.97 0 0 0-1.968 0 2 2 0 0 0-.744.768q-.276.504-.276 1.188t.276 1.2q.288.504.744.768a1.97 1.97 0 0 0 1.968 0q.468-.276.744-.792.288-.516.288-1.2m5.613 3.444q-.936 0-1.692-.42a3.1 3.1 0 0 1-1.188-1.2q-.432-.78-.432-1.8 0-1.008.444-1.788t1.212-1.2a3.5 3.5 0 0 1 1.716-.42q.948 0 1.716.42t1.212 1.2.444 1.788-.456 1.788-1.248 1.212q-.78.42-1.728.42m0-1.188q.528 0 .984-.252.468-.252.756-.756t.288-1.224-.276-1.212a1.86 1.86 0 0 0-.732-.756 2 2 0 0 0-.984-.252q-.528 0-.984.252-.444.252-.708.756-.264.492-.264 1.212 0 1.068.54 1.656.552.576 1.38.576m7.184 1.188q-.78 0-1.404-.276a2.54 2.54 0 0 1-.972-.768 1.94 1.94 0 0 1-.384-1.092h1.416a1 1 0 0 0 .396.708q.372.276.924.276.576 0 .888-.216.324-.228.324-.576 0-.372-.36-.552-.348-.18-1.116-.396a11 11 0 0 1-1.212-.396 2.2 2.2 0 0 1-.816-.588q-.336-.396-.336-1.044 0-.528.312-.96.312-.444.888-.696.588-.252 1.344-.252 1.128 0 1.812.576.696.564.744 1.548h-1.368a.97.97 0 0 0-.36-.708q-.324-.264-.876-.264-.54 0-.828.204a.63.63 0 0 0-.288.54q0 .264.192.444t.468.288q.276.096.816.252.72.192 1.176.396.468.192.804.576t.348 1.02q0 .564-.312 1.008t-.888.696q-.564.252-1.332.252m5.606-5.604v3.66q0 .372.168.54.18.156.6.156h.84V69h-1.08q-.924 0-1.416-.432t-.492-1.404v-3.66h-.78v-1.116h.78v-1.644h1.38v1.644h1.608v1.116zm2.413 2.16q0-.996.408-1.764a3.05 3.05 0 0 1 2.712-1.62q.78 0 1.356.312.588.3.936.756v-.96h1.38V69h-1.38v-.984a2.7 2.7 0 0 1-.948.78q-.6.312-1.368.312a2.94 2.94 0 0 1-1.56-.432 3.2 3.2 0 0 1-1.128-1.224q-.408-.792-.408-1.788m5.412.024q0-.684-.288-1.188a1.94 1.94 0 0 0-.732-.768 1.93 1.93 0 0 0-.984-.264q-.528 0-.984.264-.456.252-.744.756-.276.492-.276 1.176t.276 1.2q.288.516.744.792a1.97 1.97 0 0 0 1.968 0q.456-.264.732-.768.288-.516.288-1.2m4.545-5.568V69h-1.368v-8.88zm4.457 5.568q0-1.02.408-1.788.42-.78 1.152-1.2t1.68-.42q1.2 0 1.98.576.792.564 1.068 1.62h-1.476a1.56 1.56 0 0 0-.576-.768q-.396-.276-.996-.276-.84 0-1.344.6-.492.588-.492 1.656t.492 1.668q.504.6 1.344.6 1.188 0 1.572-1.044h1.476q-.288 1.008-1.08 1.608-.792.588-1.968.588-.948 0-1.68-.42a3.1 3.1 0 0 1-1.152-1.2q-.408-.78-.408-1.8m10.52 3.42q-.936 0-1.692-.42a3.1 3.1 0 0 1-1.188-1.2q-.432-.78-.432-1.8 0-1.008.444-1.788t1.212-1.2a3.5 3.5 0 0 1 1.716-.42q.948 0 1.716.42t1.212 1.2.444 1.788-.456 1.788-1.248 1.212q-.78.42-1.728.42m0-1.188q.528 0 .984-.252.468-.252.756-.756t.288-1.224-.276-1.212a1.86 1.86 0 0 0-.732-.756 2 2 0 0 0-.984-.252q-.528 0-.984.252-.444.252-.708.756-.264.492-.264 1.212 0 1.068.54 1.656.552.576 1.38.576m4.328-2.256q0-.996.408-1.764a3.05 3.05 0 0 1 2.724-1.62q.648 0 1.272.288.636.276 1.008.744V60.12h1.38V69h-1.38v-.996a2.55 2.55 0 0 1-.936.792q-.588.312-1.356.312a3 3 0 0 1-1.584-.432 3.2 3.2 0 0 1-1.128-1.224q-.408-.792-.408-1.788m5.412.024q0-.684-.288-1.188a1.94 1.94 0 0 0-.732-.768 1.93 1.93 0 0 0-.984-.264q-.528 0-.984.264-.456.252-.744.756-.276.492-.276 1.176t.276 1.2q.288.516.744.792a1.97 1.97 0 0 0 1.968 0q.456-.264.732-.768.288-.516.288-1.2m9.237-.156q0 .372-.048.672h-5.052q.06.792.588 1.272t1.296.48q1.104 0 1.56-.924h1.476a3 3 0 0 1-1.092 1.5q-.78.576-1.944.576-.948 0-1.704-.42a3.14 3.14 0 0 1-1.176-1.2q-.42-.78-.42-1.8t.408-1.788q.42-.78 1.164-1.2.756-.42 1.728-.42.936 0 1.668.408t1.14 1.152q.408.732.408 1.692m-1.428-.432q-.012-.756-.54-1.212t-1.308-.456q-.708 0-1.212.456-.504.444-.6 1.212zm8.663-1.596h-1.224V69h-1.38v-5.496h-.78v-1.116h.78v-.468q0-1.14.6-1.656.612-.528 1.908-.528v1.14q-.624 0-.876.24-.252.228-.252.804v.468h1.224zm4.081 5.604q-.936 0-1.692-.42a3.1 3.1 0 0 1-1.188-1.2q-.432-.78-.432-1.8 0-1.008.444-1.788t1.212-1.2a3.5 3.5 0 0 1 1.716-.42q.948 0 1.716.42t1.212 1.2.444 1.788-.456 1.788-1.248 1.212q-.78.42-1.728.42m0-1.188q.528 0 .984-.252.468-.252.756-.756t.288-1.224-.276-1.212a1.86 1.86 0 0 0-.732-.756 2 2 0 0 0-.984-.252q-.528 0-.984.252-.444.252-.708.756-.264.492-.264 1.212 0 1.068.54 1.656.552.576 1.38.576m6.152-4.572q.3-.504.792-.78.504-.288 1.188-.288v1.416h-.348q-.804 0-1.224.408-.408.408-.408 1.416V69h-1.368v-6.612h1.368zm9.079-2.688q1.332 0 2.328.516a3.56 3.56 0 0 1 1.548 1.464q.552.948.552 2.22t-.552 2.208a3.6 3.6 0 0 1-1.548 1.44q-.996.492-2.328.492h-2.724v-8.34zm0 7.224q1.464 0 2.244-.792t.78-2.232q0-1.452-.78-2.268t-2.244-.816h-1.356v6.108zm11.843-2.352q0 .372-.048.672h-5.052q.06.792.588 1.272t1.296.48q1.104 0 1.56-.924h1.476a3 3 0 0 1-1.092 1.5q-.78.576-1.944.576-.948 0-1.704-.42a3.14 3.14 0 0 1-1.176-1.2q-.42-.78-.42-1.8t.408-1.788q.42-.78 1.164-1.2.756-.42 1.728-.42.936 0 1.668.408t1.14 1.152q.408.732.408 1.692m-1.428-.432q-.012-.756-.54-1.212t-1.308-.456q-.708 0-1.212.456-.504.444-.6 1.212zm4.143-4.98V69h-1.368v-8.88zm2.492 1.392a.85.85 0 0 1-.624-.252.85.85 0 0 1-.252-.624q0-.372.252-.624a.85.85 0 0 1 .624-.252q.36 0 .612.252a.85.85 0 0 1 .252.624.85.85 0 0 1-.252.624.83.83 0 0 1-.612.252m.672.876V69h-1.368v-6.612zm4.352 5.388 1.872-5.388h1.452L256.272 69h-1.632l-2.508-6.612h1.464zm10.418-2.244q0 .372-.048.672h-5.052q.06.792.588 1.272t1.296.48q1.104 0 1.56-.924h1.476a3 3 0 0 1-1.092 1.5q-.78.576-1.944.576-.948 0-1.704-.42a3.14 3.14 0 0 1-1.176-1.2q-.42-.78-.42-1.8t.408-1.788q.42-.78 1.164-1.2.756-.42 1.728-.42.936 0 1.668.408t1.14 1.152q.408.732.408 1.692m-1.428-.432q-.012-.756-.54-1.212t-1.308-.456q-.708 0-1.212.456-.504.444-.6 1.212zm4.142-1.752q.3-.504.792-.78.504-.288 1.188-.288v1.416h-.348q-.804 0-1.224.408-.408.408-.408 1.416V69h-1.368v-6.612h1.368zm9.19-.96-4.056 9.72h-1.416l1.344-3.216-2.604-6.504h1.524l1.86 5.04 1.932-5.04zm9.177 4.908h-3.492l-.6 1.704h-1.428l2.988-8.352h1.584L289.007 69h-1.44zm-.384-1.116-1.356-3.876-1.368 3.876zm6.279 1.596 1.872-5.388h1.452L293.666 69h-1.632l-2.508-6.612h1.464zm3.902-2.112q0-.996.408-1.764a3.05 3.05 0 0 1 2.712-1.62q.78 0 1.356.312.588.3.936.756v-.96h1.38V69h-1.38v-.984a2.7 2.7 0 0 1-.948.78q-.6.312-1.368.312a2.94 2.94 0 0 1-1.56-.432 3.2 3.2 0 0 1-1.128-1.224q-.408-.792-.408-1.788m5.412.024q0-.684-.288-1.188a1.94 1.94 0 0 0-.732-.768 1.93 1.93 0 0 0-.984-.264q-.528 0-.984.264-.456.252-.744.756-.276.492-.276 1.176t.276 1.2q.288.516.744.792a1.97 1.97 0 0 0 1.968 0q.456-.264.732-.768.288-.516.288-1.2m3.873-4.176a.85.85 0 0 1-.624-.252.85.85 0 0 1-.252-.624q0-.372.252-.624a.85.85 0 0 1 .624-.252q.36 0 .612.252a.85.85 0 0 1 .252.624.85.85 0 0 1-.252.624.83.83 0 0 1-.612.252m.672.876V69h-1.368v-6.612zm3.164-2.268V69h-1.368v-8.88zm1.34 5.544q0-.996.408-1.764a3.05 3.05 0 0 1 2.712-1.62q.78 0 1.356.312.588.3.936.756v-.96h1.38V69h-1.38v-.984a2.7 2.7 0 0 1-.948.78q-.6.312-1.368.312a2.94 2.94 0 0 1-1.56-.432 3.2 3.2 0 0 1-1.128-1.224q-.408-.792-.408-1.788m5.412.024q0-.684-.288-1.188a1.94 1.94 0 0 0-.732-.768 1.93 1.93 0 0 0-.984-.264q-.528 0-.984.264-.456.252-.744.756-.276.492-.276 1.176t.276 1.2q.288.516.744.792a1.97 1.97 0 0 0 1.968 0q.456-.264.732-.768.288-.516.288-1.2m4.545-2.316q.348-.48.948-.78.612-.312 1.356-.312.876 0 1.584.42t1.116 1.2q.408.768.408 1.764t-.408 1.788q-.408.78-1.128 1.224a2.96 2.96 0 0 1-1.572.432q-.768 0-1.368-.3a2.6 2.6 0 0 1-.936-.768V69h-1.368v-8.88h1.368zm4.02 2.292q0-.684-.288-1.176a1.83 1.83 0 0 0-.744-.756 1.97 1.97 0 0 0-1.968 0 2 2 0 0 0-.744.768q-.276.504-.276 1.188t.276 1.2q.288.504.744.768a1.97 1.97 0 0 0 1.968 0q.468-.276.744-.792.288-.516.288-1.2m3.441-4.152a.85.85 0 0 1-.624-.252.85.85 0 0 1-.252-.624q0-.372.252-.624a.85.85 0 0 1 .624-.252q.36 0 .612.252a.85.85 0 0 1 .252.624.85.85 0 0 1-.252.624.83.83 0 0 1-.612.252m.672.876V69h-1.368v-6.612zm3.164-2.268V69h-1.368v-8.88zm2.492 1.392a.85.85 0 0 1-.624-.252.85.85 0 0 1-.252-.624q0-.372.252-.624a.85.85 0 0 1 .624-.252q.36 0 .612.252a.85.85 0 0 1 .252.624.85.85 0 0 1-.252.624.83.83 0 0 1-.612.252m.672.876V69h-1.368v-6.612zm3.392 1.116v3.66q0 .372.168.54.18.156.6.156h.84V69h-1.08q-.924 0-1.416-.432t-.492-1.404v-3.66h-.78v-1.116h.78v-1.644h1.38v1.644h1.608v1.116zm8.821-1.116-4.056 9.72h-1.416l1.344-3.216-2.604-6.504h1.524l1.86 5.04 1.932-5.04z"/><path fill="#000" d="M72 70.2h275.988v.6H72z"/><g stroke="#000" stroke-linecap="round" stroke-linejoin="round" stroke-width="2" clip-path="url(#b)"><path d="M49.333 129.333A13.5 13.5 0 0 0 23.499 126m-.833-6.667V126h6.667m-6.667 6.667A13.5 13.5 0 0 0 48.499 136m.834 6.667V136h-6.667"/></g><path fill="#000" d="m78.976 124-2.56-4.448h-1.392V124H73.2v-11.12h3.84q1.28 0 2.16.448.896.448 1.328 1.2.448.751.448 1.68 0 1.088-.64 1.984-.624.88-1.936 1.2L81.152 124zm-3.952-5.904h2.016q1.024 0 1.536-.512.528-.512.528-1.376t-.512-1.344q-.512-.496-1.552-.496h-2.016zm16.365 1.28q0 .496-.064.896H84.59q.08 1.056.784 1.696t1.728.64q1.473 0 2.08-1.232h1.968a4 4 0 0 1-1.456 2q-1.04.768-2.592.768-1.264 0-2.272-.56a4.2 4.2 0 0 1-1.568-1.6q-.56-1.04-.56-2.4t.544-2.384a3.94 3.94 0 0 1 1.552-1.6q1.008-.56 2.304-.56 1.248 0 2.224.544t1.52 1.536q.544.976.544 2.256m-1.904-.576q-.015-1.008-.72-1.616-.703-.608-1.744-.608-.944 0-1.616.608-.671.592-.8 1.616zm5.827-2.128v4.88q0 .496.224.72.24.208.8.208h1.12V124h-1.44q-1.231 0-1.888-.576t-.656-1.872v-4.88h-1.04v-1.488h1.04v-2.192h1.84v2.192h2.144v1.488zm11.81-1.488V124h-1.824v-1.04a3 3 0 0 1-1.136.864 3.6 3.6 0 0 1-1.472.304q-1.041 0-1.872-.432a3.2 3.2 0 0 1-1.296-1.28q-.465-.848-.465-2.048v-5.184h1.809v4.912q0 1.184.592 1.824.591.624 1.616.624 1.023 0 1.616-.624.608-.64.608-1.824v-4.912zm4.23 1.28a2.8 2.8 0 0 1 1.056-1.04q.672-.384 1.584-.384v1.888h-.464q-1.073 0-1.632.544-.544.544-.544 1.888V124h-1.824v-8.816h1.824zm8.765-1.424q1.04 0 1.856.432a3.07 3.07 0 0 1 1.296 1.28q.464.848.464 2.048v5.2h-1.808v-4.928q0-1.184-.592-1.808-.593-.64-1.616-.64-1.025 0-1.632.64-.592.624-.592 1.808V124h-1.824v-8.816h1.824v1.008a3 3 0 0 1 1.136-.848 3.7 3.7 0 0 1 1.488-.304m13.731-2.16q1.775 0 3.104.688a4.75 4.75 0 0 1 2.064 1.952q.736 1.264.736 2.96t-.736 2.944q-.72 1.248-2.064 1.92-1.328.656-3.104.656h-3.632v-11.12zm0 9.632q1.951 0 2.992-1.056t1.04-2.976q0-1.937-1.04-3.024-1.04-1.088-2.992-1.088h-1.808v8.144zm15.791-3.136q0 .496-.064.896h-6.736q.08 1.056.784 1.696t1.728.64q1.473 0 2.08-1.232h1.968a4 4 0 0 1-1.456 2q-1.04.768-2.592.768-1.264 0-2.272-.56a4.2 4.2 0 0 1-1.568-1.6q-.56-1.04-.56-2.4t.544-2.384a3.94 3.94 0 0 1 1.552-1.6q1.008-.56 2.304-.56 1.249 0 2.224.544a3.83 3.83 0 0 1 1.52 1.536q.544.976.544 2.256m-1.904-.576q-.015-1.008-.72-1.616-.703-.608-1.744-.608-.944 0-1.616.608-.672.592-.8 1.616zm5.523-6.64V124h-1.824v-11.84zm3.323 1.856a1.13 1.13 0 0 1-.832-.336 1.13 1.13 0 0 1-.336-.832q0-.496.336-.832a1.13 1.13 0 0 1 .832-.336q.48 0 .816.336t.336.832-.336.832a1.1 1.1 0 0 1-.816.336m.896 1.168V124h-1.824v-8.816zm5.803 7.184 2.496-7.184h1.936l-3.36 8.816h-2.176l-3.344-8.816h1.952zm13.891-2.992q0 .496-.064.896h-6.736q.08 1.056.784 1.696.703.64 1.728.64 1.471 0 2.08-1.232h1.968a4 4 0 0 1-1.456 2q-1.041.768-2.592.768-1.264 0-2.272-.56a4.2 4.2 0 0 1-1.568-1.6q-.56-1.04-.56-2.4t.544-2.384a3.93 3.93 0 0 1 1.552-1.6q1.008-.56 2.304-.56 1.248 0 2.224.544a3.84 3.84 0 0 1 1.52 1.536q.543.976.544 2.256m-1.904-.576q-.017-1.008-.72-1.616-.705-.608-1.744-.608-.945 0-1.616.608-.672.592-.8 1.616zm5.523-2.336a2.8 2.8 0 0 1 1.056-1.04q.672-.384 1.584-.384v1.888h-.464q-1.072 0-1.632.544-.544.544-.544 1.888V124h-1.824v-8.816h1.824zm12.252-1.28-5.408 12.96h-1.888l1.792-4.288-3.472-8.672h2.032l2.48 6.72 2.576-6.72zM77.808 142.66v1.116h-3.54v2.46h2.76v1.116h-2.76V151H72.9v-8.34zm2.636 2.688q.3-.504.792-.78.504-.288 1.188-.288v1.416h-.348q-.804 0-1.224.408-.408.408-.408 1.416V151h-1.368v-6.612h1.368zm9.297 2.184q0 .372-.048.672h-5.052q.06.792.588 1.272t1.296.48q1.104 0 1.56-.924h1.476a3 3 0 0 1-1.092 1.5q-.78.576-1.944.576-.948 0-1.704-.42a3.14 3.14 0 0 1-1.176-1.2q-.42-.78-.42-1.8t.408-1.788q.42-.78 1.164-1.2.756-.42 1.728-.42.936 0 1.668.408t1.14 1.152q.408.732.408 1.692m-1.428-.432q-.012-.756-.54-1.212t-1.308-.456q-.708 0-1.212.456-.504.444-.6 1.212zm8.834.432q0 .372-.047.672h-5.052q.06.792.587 1.272.528.48 1.296.48 1.106 0 1.56-.924h1.477a3 3 0 0 1-1.093 1.5q-.78.576-1.944.576-.948 0-1.703-.42a3.14 3.14 0 0 1-1.176-1.2q-.42-.78-.42-1.8t.407-1.788q.42-.78 1.165-1.2.756-.42 1.728-.42.935 0 1.668.408t1.14 1.152q.407.732.407 1.692m-1.428-.432q-.01-.756-.54-1.212-.528-.456-1.308-.456-.706 0-1.212.456-.503.444-.6 1.212zm5.688-2.688q.072-1.116.852-1.74.792-.624 2.016-.624.84 0 1.452.3t.924.816.312 1.164q0 .744-.396 1.272t-.948.708v.048q.708.216 1.104.792.396.564.396 1.452 0 .708-.324 1.26t-.96.876q-.636.312-1.524.312-1.296 0-2.136-.66-.828-.672-.888-1.92h1.32q.048.636.492 1.044.444.396 1.2.396.732 0 1.128-.396.396-.408.396-1.044 0-.84-.54-1.188-.528-.36-1.632-.36h-.312v-1.128h.324q.972-.012 1.476-.324.516-.312.516-.984 0-.576-.372-.912-.372-.348-1.056-.348-.672 0-1.044.348a1.36 1.36 0 0 0-.444.84zm7.149 2.1q0-2.076.696-3.24.708-1.176 2.424-1.176t2.412 1.176q.708 1.164.708 3.24 0 2.1-.708 3.288-.696 1.176-2.412 1.176t-2.424-1.176q-.696-1.188-.696-3.288m4.896 0q0-.972-.132-1.644-.12-.672-.504-1.092-.384-.432-1.14-.432t-1.14.432q-.384.42-.516 1.092-.12.672-.12 1.644 0 1.008.12 1.692t.504 1.104q.396.42 1.152.42t1.14-.42q.396-.42.516-1.104t.12-1.692m8.813-3.852q1.332 0 2.328.516a3.56 3.56 0 0 1 1.548 1.464q.552.948.552 2.22t-.552 2.208a3.6 3.6 0 0 1-1.548 1.44q-.996.492-2.328.492h-2.724v-8.34zm0 7.224q1.464 0 2.244-.792t.78-2.232q0-1.452-.78-2.268t-2.244-.816h-1.356v6.108zm5.327-2.22q0-.996.408-1.764a3.05 3.05 0 0 1 2.712-1.62q.78 0 1.356.312.588.3.936.756v-.96h1.38V151h-1.38v-.984a2.7 2.7 0 0 1-.948.78q-.6.312-1.368.312a2.94 2.94 0 0 1-1.56-.432 3.2 3.2 0 0 1-1.128-1.224q-.408-.792-.408-1.788m5.412.024q0-.684-.288-1.188a1.94 1.94 0 0 0-.732-.768 1.93 1.93 0 0 0-.984-.264q-.528 0-.984.264-.456.252-.744.756-.276.492-.276 1.176t.276 1.2q.288.516.744.792a1.97 1.97 0 0 0 1.968 0q.456-.264.732-.768.288-.516.288-1.2m9.129-3.3-4.056 9.72h-1.416l1.344-3.216-2.604-6.504h1.524l1.86 5.04 1.932-5.04zm3.433 6.72q-.78 0-1.404-.276a2.54 2.54 0 0 1-.972-.768 1.94 1.94 0 0 1-.384-1.092h1.416a1 1 0 0 0 .396.708q.372.276.924.276.576 0 .888-.216.324-.228.324-.576 0-.372-.36-.552-.348-.18-1.116-.396a11 11 0 0 1-1.212-.396 2.2 2.2 0 0 1-.816-.588q-.336-.396-.336-1.044 0-.528.312-.96.312-.444.888-.696.588-.252 1.344-.252 1.128 0 1.812.576.696.564.744 1.548h-1.368a.97.97 0 0 0-.36-.708q-.324-.264-.876-.264-.54 0-.828.204a.63.63 0 0 0-.288.54q0 .264.192.444t.468.288q.276.096.816.252.72.192 1.176.396.468.192.804.576t.348 1.02q0 .564-.312 1.008t-.888.696q-.564.252-1.332.252m9.851-8.448q1.332 0 2.328.516a3.56 3.56 0 0 1 1.548 1.464q.552.948.552 2.22t-.552 2.208a3.6 3.6 0 0 1-1.548 1.44q-.996.492-2.328.492h-2.724v-8.34zm0 7.224q1.464 0 2.244-.792t.78-2.232q0-1.452-.78-2.268t-2.244-.816h-1.356v6.108zm11.844-2.352q0 .372-.048.672h-5.052q.06.792.588 1.272t1.296.48q1.104 0 1.56-.924h1.476a3 3 0 0 1-1.092 1.5q-.78.576-1.944.576-.948 0-1.704-.42a3.14 3.14 0 0 1-1.176-1.2q-.42-.78-.42-1.8t.408-1.788q.42-.78 1.164-1.2.756-.42 1.728-.42.936 0 1.668.408t1.14 1.152q.408.732.408 1.692m-1.428-.432q-.012-.756-.54-1.212t-1.308-.456q-.708 0-1.212.456-.504.444-.6 1.212zm4.142-4.98V151h-1.368v-8.88zm2.492 1.392a.85.85 0 0 1-.624-.252.85.85 0 0 1-.252-.624q0-.372.252-.624a.85.85 0 0 1 .624-.252q.36 0 .612.252a.85.85 0 0 1 .252.624.85.85 0 0 1-.252.624.83.83 0 0 1-.612.252m.672.876V151h-1.368v-6.612zm4.352 5.388 1.872-5.388h1.452l-2.52 6.612h-1.632l-2.508-6.612h1.464zm10.418-2.244q0 .372-.048.672h-5.052q.06.792.588 1.272t1.296.48q1.104 0 1.56-.924h1.476a3 3 0 0 1-1.092 1.5q-.78.576-1.944.576-.948 0-1.704-.42a3.14 3.14 0 0 1-1.176-1.2q-.42-.78-.42-1.8t.408-1.788q.42-.78 1.164-1.2.756-.42 1.728-.42.936 0 1.668.408t1.14 1.152q.408.732.408 1.692m-1.428-.432q-.012-.756-.54-1.212t-1.308-.456q-.708 0-1.212.456-.504.444-.6 1.212zm4.142-1.752q.3-.504.792-.78.504-.288 1.188-.288v1.416h-.348q-.804 0-1.224.408-.408.408-.408 1.416V151h-1.368v-6.612h1.368zm9.19-.96-4.056 9.72h-1.416l1.344-3.216-2.604-6.504h1.524l1.86 5.04 1.932-5.04zm8.482 6.612-1.92-3.336h-1.044V151h-1.368v-8.34h2.88q.96 0 1.62.336.672.336.996.9.336.564.336 1.26 0 .816-.48 1.488-.468.66-1.452.9l2.064 3.456zm-2.964-4.428h1.512q.768 0 1.152-.384.396-.384.396-1.032t-.384-1.008q-.384-.372-1.164-.372h-1.512zm12.274.96q0 .372-.048.672h-5.052q.06.792.588 1.272t1.296.48q1.104 0 1.56-.924h1.476a3 3 0 0 1-1.092 1.5q-.78.576-1.944.576-.948 0-1.704-.42a3.14 3.14 0 0 1-1.176-1.2q-.42-.78-.42-1.8t.408-1.788q.42-.78 1.164-1.2.756-.42 1.728-.42.936 0 1.668.408t1.14 1.152q.408.732.408 1.692m-1.428-.432q-.012-.756-.54-1.212t-1.308-.456q-.708 0-1.212.456-.504.444-.6 1.212zm4.37-1.596v3.66q0 .372.168.54.18.156.6.156h.84V151h-1.08q-.924 0-1.416-.432t-.492-1.404v-3.66h-.78v-1.116h.78v-1.644h1.38v1.644h1.608v1.116zm8.857-1.116V151h-1.368v-.78q-.324.408-.852.648a2.7 2.7 0 0 1-1.104.228q-.78 0-1.404-.324a2.4 2.4 0 0 1-.972-.96q-.348-.636-.348-1.536v-3.888h1.356v3.684q0 .888.444 1.368.444.468 1.212.468t1.212-.468q.456-.48.456-1.368v-3.684zm3.173.96q.3-.504.792-.78.504-.288 1.188-.288v1.416h-.348q-.804 0-1.224.408-.408.408-.408 1.416V151h-1.368v-6.612h1.368zm6.573-1.068q.78 0 1.392.324.624.324.972.96t.348 1.536v3.9h-1.356v-3.696q0-.888-.444-1.356-.444-.48-1.212-.48t-1.224.48q-.444.468-.444 1.356V151h-1.368v-6.612h1.368v.756q.336-.408.852-.636a2.8 2.8 0 0 1 1.116-.228m6.857 6.828q-.78 0-1.404-.276a2.54 2.54 0 0 1-.972-.768 1.94 1.94 0 0 1-.384-1.092h1.416a1 1 0 0 0 .396.708q.372.276.924.276.576 0 .888-.216.324-.228.324-.576 0-.372-.36-.552-.348-.18-1.116-.396a11 11 0 0 1-1.212-.396 2.2 2.2 0 0 1-.816-.588q-.336-.396-.336-1.044 0-.528.312-.96.312-.444.888-.696.588-.252 1.344-.252 1.128 0 1.812.576.696.564.744 1.548h-1.368a.97.97 0 0 0-.36-.708q-.324-.264-.876-.264-.54 0-.828.204a.63.63 0 0 0-.288.54q0 .264.192.444t.468.288q.276.096.816.252.72.192 1.176.396.468.192.804.576t.348 1.02q0 .564-.312 1.008t-.888.696q-.564.252-1.332.252m4.562-.024a.85.85 0 0 1-.624-.252.85.85 0 0 1-.252-.624q0-.372.252-.624a.85.85 0 0 1 .624-.252q.36 0 .612.252a.85.85 0 0 1 .252.624.85.85 0 0 1-.252.624.83.83 0 0 1-.612.252m8.184-8.424q1.332 0 2.328.516a3.56 3.56 0 0 1 1.548 1.464q.552.948.552 2.22t-.552 2.208a3.6 3.6 0 0 1-1.548 1.44q-.996.492-2.328.492h-2.724v-8.34zm0 7.224q1.464 0 2.244-.792t.78-2.232q0-1.452-.78-2.268t-2.244-.816h-1.356v6.108zm11.844-2.352q0 .372-.048.672h-5.052q.06.792.588 1.272t1.296.48q1.104 0 1.56-.924h1.476a3 3 0 0 1-1.092 1.5q-.78.576-1.944.576-.948 0-1.704-.42a3.14 3.14 0 0 1-1.176-1.2q-.42-.78-.42-1.8t.408-1.788q.42-.78 1.164-1.2.756-.42 1.728-.42.936 0 1.668.408t1.14 1.152q.408.732.408 1.692m-1.428-.432q-.012-.756-.54-1.212t-1.308-.456q-.708 0-1.212.456-.504.444-.6 1.212zm4.37-1.596v3.66q0 .372.168.54.18.156.6.156h.84V151h-1.08q-.924 0-1.416-.432t-.492-1.404v-3.66h-.78v-1.116h.78v-1.644h1.38v1.644h1.608v1.116zm2.413 2.16q0-.996.408-1.764a3.05 3.05 0 0 1 2.712-1.62q.78 0 1.356.312.588.3.936.756v-.96h1.38V151h-1.38v-.984a2.7 2.7 0 0 1-.948.78q-.6.312-1.368.312a2.94 2.94 0 0 1-1.56-.432 3.2 3.2 0 0 1-1.128-1.224q-.408-.792-.408-1.788m5.412.024q0-.684-.288-1.188a1.94 1.94 0 0 0-.732-.768 1.93 1.93 0 0 0-.984-.264q-.528 0-.984.264-.456.252-.744.756-.276.492-.276 1.176t.276 1.2q.288.516.744.792a1.97 1.97 0 0 0 1.968 0q.456-.264.732-.768.288-.516.288-1.2m3.873-4.176a.85.85 0 0 1-.624-.252.85.85 0 0 1-.252-.624q0-.372.252-.624a.85.85 0 0 1 .624-.252q.36 0 .612.252a.85.85 0 0 1 .252.624.85.85 0 0 1-.252.624.83.83 0 0 1-.612.252m.672.876V151h-1.368v-6.612zm3.164-2.268V151h-1.368v-8.88zm4.196 8.988q-.78 0-1.404-.276a2.54 2.54 0 0 1-.972-.768 1.94 1.94 0 0 1-.384-1.092h1.416a1 1 0 0 0 .396.708q.372.276.924.276.576 0 .888-.216.324-.228.324-.576 0-.372-.36-.552-.348-.18-1.116-.396a11 11 0 0 1-1.212-.396 2.2 2.2 0 0 1-.816-.588q-.336-.396-.336-1.044 0-.528.312-.96.312-.444.888-.696.588-.252 1.344-.252 1.128 0 1.812.576.696.564.744 1.548h-1.368a.97.97 0 0 0-.36-.708q-.324-.264-.876-.264-.54 0-.828.204a.63.63 0 0 0-.288.54q0 .264.192.444t.468.288q.276.096.816.252.72.192 1.176.396.468.192.804.576t.348 1.02q0 .564-.312 1.008t-.888.696q-.564.252-1.332.252m-38.14 1.092h41.248v.6h-41.248z"/><defs><clipPath id="a"><path fill="#fff" d="M16 29h40v40H16z"/></clipPath><clipPath id="b"><path fill="#fff" d="M16 111h40v40H16z"/></clipPath></defs></svg>