<svg xmlns="http://www.w3.org/2000/svg" width="140" height="40" fill="none"><rect width="20" height="40" fill="#DB4444" rx="4"/><path fill="#DB4444" d="M42.864 26 40.4 21.648h-1.056V26h-2.24V14.832h4.192q1.296 0 2.208.464.912.449 1.36 1.232.464.768.464 1.728a3.36 3.36 0 0 1-.64 2q-.64.88-1.904 1.216L45.456 26zm-3.52-6.032h1.872q.912 0 1.36-.432.448-.449.448-1.232 0-.768-.448-1.184-.448-.432-1.36-.432h-1.872zm16.25 1.408q0 .48-.064.864h-6.48q.08.96.672 1.504t1.456.544q1.248 0 1.776-1.072h2.416a4.08 4.08 0 0 1-1.472 2.112q-1.088.816-2.672.816-1.28 0-2.304-.56a4.1 4.1 0 0 1-1.584-1.616q-.56-1.04-.56-2.4 0-1.376.56-2.416a3.9 3.9 0 0 1 1.568-1.6q1.008-.56 2.32-.56 1.264 0 2.256.544 1.008.544 1.552 1.552.56.992.56 2.288m-2.32-.64q-.016-.864-.624-1.376-.608-.528-1.488-.528-.832 0-1.408.512-.56.496-.688 1.392zm6.195-6.576V26h-2.24V14.16zm1.637 7.376q0-1.344.528-2.384.544-1.04 1.456-1.6a3.9 3.9 0 0 1 2.064-.56q.992 0 1.728.4.752.4 1.2 1.008v-1.264h2.256V26h-2.256v-1.296q-.432.624-1.2 1.04-.752.4-1.744.4-1.12 0-2.048-.576-.912-.576-1.456-1.616-.528-1.057-.528-2.416m6.976.032q0-.816-.32-1.392a2.2 2.2 0 0 0-.864-.896 2.27 2.27 0 0 0-1.168-.32q-.624 0-1.152.304t-.864.896q-.32.576-.32 1.376t.32 1.408q.336.593.864.912.544.32 1.152.32.624 0 1.168-.304.544-.32.864-.896.32-.592.32-1.408m7.052-2.592v4.288q0 .448.208.656.225.192.736.192h1.04V26H75.71q-2.832 0-2.832-2.752v-4.272h-1.056v-1.84h1.056v-2.192h2.256v2.192h1.984v1.84zm11.835 2.4q0 .48-.064.864h-6.48q.08.96.672 1.504t1.456.544q1.248 0 1.776-1.072h2.416a4.08 4.08 0 0 1-1.472 2.112q-1.088.816-2.672.816-1.28 0-2.304-.56a4.1 4.1 0 0 1-1.584-1.616q-.56-1.04-.56-2.4 0-1.376.56-2.416a3.9 3.9 0 0 1 1.568-1.6q1.008-.56 2.32-.56 1.264 0 2.256.544 1.008.544 1.552 1.552.56.992.56 2.288m-2.32-.64q-.016-.864-.624-1.376-.608-.528-1.488-.528-.832 0-1.408.512-.56.496-.688 1.392zm3.379.8q0-1.344.528-2.384.544-1.04 1.472-1.6a3.9 3.9 0 0 1 2.064-.56 3.7 3.7 0 0 1 1.648.384q.784.368 1.248.992V14.16h2.272V26h-2.272v-1.312q-.416.656-1.168 1.056t-1.744.4q-1.12 0-2.048-.576-.929-.576-1.472-1.616-.528-1.057-.528-2.416m6.976.032q0-.816-.32-1.392a2.2 2.2 0 0 0-.864-.896 2.27 2.27 0 0 0-1.168-.32q-.624 0-1.152.304t-.864.896q-.32.576-.32 1.376t.32 1.408q.336.593.864.912.544.32 1.152.32.624 0 1.168-.304.544-.32.864-.896.32-.592.32-1.408m10.496-6.736V26h-2.24V14.832zm4.821 4.144v4.288q0 .448.208.656.225.192.736.192h1.04V26h-1.408q-2.832 0-2.832-2.752v-4.272h-1.056v-1.84h1.056v-2.192h2.256v2.192h1.984v1.84zm11.836 2.4q0 .48-.064.864h-6.48q.08.96.672 1.504t1.456.544q1.248 0 1.776-1.072h2.416a4.08 4.08 0 0 1-1.472 2.112q-1.089.816-2.672.816-1.281 0-2.304-.56a4.1 4.1 0 0 1-1.584-1.616q-.561-1.04-.561-2.4 0-1.376.561-2.416a3.9 3.9 0 0 1 1.568-1.6q1.008-.56 2.32-.56 1.263 0 2.256.544 1.008.544 1.552 1.552.56.992.56 2.288m-2.32-.64q-.016-.864-.624-1.376-.609-.528-1.488-.528-.832 0-1.408.512-.56.496-.688 1.392zm14.963-3.728q1.631 0 2.624 1.008 1.008.992 1.008 2.784V26h-2.24v-4.896q0-1.04-.528-1.584-.528-.56-1.44-.56-.913 0-1.456.56-.528.544-.528 1.584V26H130v-4.896q0-1.04-.528-1.584-.528-.56-1.44-.56-.929 0-1.472.56-.528.544-.528 1.584V26h-2.24v-8.864h2.24v1.072a3 3 0 0 1 1.104-.88 3.5 3.5 0 0 1 1.504-.32q1.04 0 1.856.448.816.432 1.264 1.248a3.2 3.2 0 0 1 1.248-1.232 3.6 3.6 0 0 1 1.792-.464"/></svg>