<svg xmlns="http://www.w3.org/2000/svg" width="170" height="145" fill="none"><rect width="169" height="144" x=".5" y=".5" stroke="#000" stroke-opacity=".3" rx="3.5"/><path fill="#000" d="M38.768 115.112q-1.104 0-1.984-.384-.864-.4-1.36-1.088a2.83 2.83 0 0 1-.512-1.616h1.552q.08.784.64 1.328.576.528 1.664.528 1.04 0 1.632-.512.608-.528.608-1.344 0-.64-.352-1.04a2.25 2.25 0 0 0-.88-.608 14 14 0 0 0-1.424-.448q-1.104-.288-1.776-.576a2.95 2.95 0 0 1-1.136-.896q-.465-.624-.464-1.664 0-.912.464-1.616t1.296-1.088q.847-.384 1.936-.384 1.568 0 2.56.784 1.007.784 1.136 2.08h-1.6q-.08-.64-.672-1.12-.592-.496-1.568-.496-.912 0-1.488.48-.576.464-.576 1.312 0 .608.336.992.352.384.848.592.512.192 1.424.448 1.104.304 1.776.608.672.288 1.152.912.48.608.48 1.664 0 .816-.432 1.536t-1.28 1.168-2 .448m16.399-9.04q1.023 0 1.824.432.8.416 1.264 1.264.464.847.464 2.064V115h-1.44v-4.96q0-1.312-.656-2-.64-.704-1.744-.704-1.137 0-1.808.736-.672.72-.672 2.096V115h-1.44v-4.96q0-1.312-.656-2-.64-.704-1.744-.704-1.136 0-1.808.736-.672.72-.672 2.096V115h-1.456v-8.768h1.456v1.264a2.9 2.9 0 0 1 1.152-1.056 3.6 3.6 0 0 1 1.616-.368q1.104 0 1.952.496t1.264 1.456a2.87 2.87 0 0 1 1.216-1.44 3.6 3.6 0 0 1 1.888-.512m5.396 4.512q0-1.344.544-2.352a3.95 3.95 0 0 1 1.488-1.584 4.15 4.15 0 0 1 2.128-.56q1.152 0 2 .496t1.264 1.248v-1.6h1.472V115h-1.472v-1.632q-.432.768-1.296 1.28-.848.496-1.984.496a3.97 3.97 0 0 1-2.112-.576 4.04 4.04 0 0 1-1.488-1.616q-.544-1.04-.544-2.368m7.424.016q0-.992-.4-1.728a2.75 2.75 0 0 0-1.088-1.12 2.85 2.85 0 0 0-1.488-.4q-.816 0-1.488.384a2.8 2.8 0 0 0-1.072 1.12q-.4.736-.4 1.728 0 1.008.4 1.76a2.9 2.9 0 0 0 1.072 1.136q.672.384 1.488.384t1.488-.384a2.86 2.86 0 0 0 1.088-1.136q.4-.752.4-1.744m5.389-2.944a2.8 2.8 0 0 1 1.087-1.168q.72-.416 1.745-.416v1.504h-.385q-2.447 0-2.447 2.656V115h-1.457v-8.768h1.457zm6.288-.224v5.168q0 .64.272.912.272.256.944.256h1.072V115H80.64q-1.215 0-1.824-.56-.608-.56-.608-1.84v-5.168h-1.136v-1.2h1.136v-2.208h1.456v2.208h2.288v1.2zm18.068-3.584L94.5 115h-1.632l-2.592-8.976L87.588 115l-1.616.016-3.12-11.168h1.552l2.432 9.456 2.688-9.456h1.632l2.56 9.424 2.448-9.424zm1.05 6.736q0-1.344.544-2.352a3.94 3.94 0 0 1 1.488-1.584 4.15 4.15 0 0 1 2.128-.56q1.151 0 2 .496.847.496 1.264 1.248v-1.6h1.472V115h-1.472v-1.632q-.432.768-1.296 1.28-.849.496-1.984.496a3.97 3.97 0 0 1-2.112-.576 4.04 4.04 0 0 1-1.488-1.616q-.544-1.04-.544-2.368m7.424.016q0-.992-.4-1.728a2.76 2.76 0 0 0-1.088-1.12 2.85 2.85 0 0 0-1.488-.4q-.816 0-1.488.384a2.8 2.8 0 0 0-1.072 1.12q-.4.736-.4 1.728 0 1.008.4 1.76.4.736 1.072 1.136.672.384 1.488.384t1.488-.384a2.87 2.87 0 0 0 1.088-1.136q.4-.752.4-1.744m5.708-3.168v5.168q0 .64.272.912.273.256.944.256h1.072V115h-1.312q-1.215 0-1.824-.56-.608-.56-.608-1.84v-5.168h-1.136v-1.2h1.136v-2.208h1.456v2.208h2.288v1.2zm3.508 3.168q0-1.36.544-2.368a3.9 3.9 0 0 1 1.504-1.584q.976-.56 2.224-.56 1.617 0 2.656.784 1.056.784 1.392 2.176h-1.568a2.23 2.23 0 0 0-.88-1.264q-.64-.464-1.6-.464-1.248 0-2.016.864-.768.848-.768 2.416 0 1.584.768 2.448t2.016.864q.96 0 1.6-.448t.88-1.28h1.568q-.352 1.344-1.408 2.16-1.056.8-2.64.8-1.248 0-2.224-.56a3.9 3.9 0 0 1-1.504-1.584q-.544-1.025-.544-2.4m14.615-4.528a3.7 3.7 0 0 1 1.792.432 2.92 2.92 0 0 1 1.248 1.264q.464.847.464 2.064V115h-1.44v-4.96q0-1.312-.656-2-.656-.704-1.792-.704-1.152 0-1.84.72-.672.72-.672 2.096V115h-1.456v-11.84h1.456v4.32a2.9 2.9 0 0 1 1.184-1.04 3.9 3.9 0 0 1 1.712-.368"/><g stroke="#000" stroke-linecap="round" stroke-width="2" clip-path="url(#a)"><path stroke-linejoin="round" d="M92 39H78a7 7 0 0 0-7 7v14a7 7 0 0 0 7 7h14a7 7 0 0 0 7-7V46a7 7 0 0 0-7-7M78 67v7h14v-7M78 39v-7h14v7"/><path d="M81 48v11m4-6v6m4-8v8"/></g><defs><clipPath id="a"><path fill="#fff" d="M57 25h56v56H57z"/></clipPath></defs></svg>