<svg xmlns="http://www.w3.org/2000/svg" width="100" height="20" fill="none"><path fill="#FFAD33" d="M16.673 10.172c1.07-.81.498-2.517-.845-2.517H13.4a1.4 1.4 0 0 1-1.337-.986l-.724-2.343c-.407-1.315-2.269-1.315-2.676 0L7.938 6.67a1.4 1.4 0 0 1-1.337.986H4.13c-1.339 0-1.914 1.698-.852 2.511l2.117 1.622a1.4 1.4 0 0 1 .487 1.521l-.769 2.512c-.399 1.302 1.109 2.35 2.19 1.521l1.846-1.414a1.4 1.4 0 0 1 1.702 0l1.83 1.401c1.083.83 2.592-.221 2.189-1.524l-.78-2.522a1.4 1.4 0 0 1 .493-1.53zm20 0c1.07-.81.498-2.517-.845-2.517H33.4a1.4 1.4 0 0 1-1.337-.986l-.724-2.343c-.407-1.315-2.269-1.315-2.675 0l-.725 2.343a1.4 1.4 0 0 1-1.337.986H24.13c-1.339 0-1.914 1.698-.852 2.511l2.117 1.622a1.4 1.4 0 0 1 .487 1.521l-.769 2.512c-.399 1.302 1.109 2.35 2.19 1.521l1.846-1.414a1.4 1.4 0 0 1 1.702 0l1.83 1.401c1.083.83 2.592-.221 2.189-1.524l-.78-2.522a1.4 1.4 0 0 1 .493-1.53zm20 0c1.07-.81.498-2.517-.845-2.517H53.4a1.4 1.4 0 0 1-1.337-.986l-.724-2.343c-.407-1.315-2.269-1.315-2.675 0l-.725 2.343a1.4 1.4 0 0 1-1.337.986H44.13c-1.339 0-1.914 1.698-.852 2.511l2.117 1.622a1.4 1.4 0 0 1 .487 1.521l-.769 2.512c-.399 1.302 1.109 2.35 2.19 1.521l1.846-1.414a1.4 1.4 0 0 1 1.702 0l1.83 1.401c1.083.83 2.592-.221 2.189-1.524l-.78-2.522a1.4 1.4 0 0 1 .493-1.53zm20 0c1.07-.81.498-2.517-.845-2.517H73.4a1.4 1.4 0 0 1-1.337-.986l-.724-2.343c-.407-1.315-2.269-1.315-2.675 0l-.725 2.343a1.4 1.4 0 0 1-1.337.986H64.13c-1.339 0-1.914 1.698-.852 2.511l2.117 1.622a1.4 1.4 0 0 1 .487 1.521l-.769 2.512c-.399 1.302 1.109 2.35 2.19 1.521l1.846-1.414a1.4 1.4 0 0 1 1.702 0l1.83 1.401c1.083.83 2.591-.221 2.189-1.524l-.78-2.522a1.4 1.4 0 0 1 .493-1.53z"/><path fill="#000" d="M96.673 10.172c1.07-.81.498-2.517-.845-2.517H93.4a1.4 1.4 0 0 1-1.337-.986l-.724-2.343c-.407-1.315-2.269-1.315-2.675 0l-.725 2.343a1.4 1.4 0 0 1-1.337.986H84.13c-1.339 0-1.914 1.698-.852 2.511l2.117 1.622a1.4 1.4 0 0 1 .487 1.521l-.769 2.512c-.399 1.302 1.109 2.35 2.19 1.521l1.846-1.414a1.4 1.4 0 0 1 1.702 0l1.83 1.401c1.083.83 2.591-.221 2.189-1.524l-.78-2.522a1.4 1.4 0 0 1 .493-1.53z" opacity=".25"/></svg>