<svg xmlns="http://www.w3.org/2000/svg" width="1440" height="48" fill="none"><path fill="#000" d="M0 0h1440v48H0z"/><path fill="#FAFAFA" d="M449.172 30.098q-.966 0-1.736-.336-.756-.35-1.19-.952a2.47 2.47 0 0 1-.448-1.414h1.358q.07.686.56 1.162.504.462 1.456.462.91 0 1.428-.448.532-.462.532-1.176 0-.56-.308-.91a2 2 0 0 0-.77-.532 12 12 0 0 0-1.246-.392q-.966-.252-1.554-.504a2.6 2.6 0 0 1-.994-.784q-.406-.547-.406-1.456 0-.798.406-1.414t1.134-.952q.742-.336 1.694-.336 1.372 0 2.24.686.882.686.994 1.82h-1.4q-.07-.56-.588-.98-.518-.434-1.372-.434-.798 0-1.302.42-.504.405-.504 1.148 0 .532.294.868.308.336.742.518.448.168 1.246.392.966.266 1.554.532a2.5 2.5 0 0 1 1.008.798q.42.532.42 1.456 0 .714-.378 1.344t-1.12 1.022-1.75.392m11.927-7.77V30h-1.274v-1.134q-.365.588-1.022.924-.645.322-1.428.322a3.5 3.5 0 0 1-1.61-.364 2.8 2.8 0 0 1-1.134-1.12q-.406-.743-.406-1.806v-4.494h1.26v4.326q0 1.135.574 1.75.573.602 1.568.602 1.022 0 1.61-.63t.588-1.834v-4.214zm11.377-.14q.896 0 1.596.378.7.364 1.106 1.106t.406 1.806V30h-1.26v-4.34q0-1.148-.574-1.75-.56-.615-1.526-.616-.994 0-1.582.644-.588.63-.588 1.834V30h-1.26v-4.34q0-1.148-.574-1.75-.56-.615-1.526-.616-.994 0-1.582.644-.588.63-.588 1.834V30h-1.274v-7.672h1.274v1.106a2.53 2.53 0 0 1 1.008-.924 3.1 3.1 0 0 1 1.414-.322q.966 0 1.708.434t1.106 1.274a2.52 2.52 0 0 1 1.064-1.26 3.13 3.13 0 0 1 1.652-.448m14.424 0q.896 0 1.596.378.7.364 1.106 1.106.405.743.406 1.806V30h-1.26v-4.34q0-1.148-.574-1.75-.56-.615-1.526-.616-.994 0-1.582.644-.588.63-.588 1.834V30h-1.26v-4.34q0-1.148-.574-1.75-.56-.615-1.526-.616-.994 0-1.582.644-.588.63-.588 1.834V30h-1.274v-7.672h1.274v1.106a2.53 2.53 0 0 1 1.008-.924q.643-.322 1.414-.322.966 0 1.708.434.741.434 1.106 1.274a2.5 2.5 0 0 1 1.064-1.26 3.13 3.13 0 0 1 1.652-.448m12.198 3.682q0 .365-.042.77h-6.132q.07 1.134.77 1.778.714.63 1.722.63.826 0 1.372-.378.56-.392.784-1.036h1.372a3.34 3.34 0 0 1-1.232 1.806q-.924.686-2.296.686-1.093 0-1.96-.49a3.5 3.5 0 0 1-1.344-1.386q-.49-.91-.49-2.1t.476-2.086a3.3 3.3 0 0 1 1.33-1.372q.867-.49 1.988-.49 1.092 0 1.932.476t1.288 1.316q.462.825.462 1.876m-1.316-.266q0-.727-.322-1.246a2.03 2.03 0 0 0-.882-.798 2.6 2.6 0 0 0-1.218-.28q-.966 0-1.652.616-.672.616-.77 1.708zm4.271-2.03q.336-.659.952-1.022.63-.364 1.526-.364v1.316h-.336q-2.142 0-2.142 2.324V30h-1.274v-7.672h1.274zm10.775 6.524q-.966 0-1.736-.336-.755-.35-1.19-.952a2.5 2.5 0 0 1-.448-1.414h1.358q.07.686.56 1.162.504.462 1.456.462.91 0 1.428-.448.532-.462.532-1.176 0-.56-.308-.91a2 2 0 0 0-.77-.532 12 12 0 0 0-1.246-.392q-.966-.252-1.554-.504a2.6 2.6 0 0 1-.994-.784q-.405-.547-.406-1.456 0-.798.406-1.414t1.134-.952q.743-.336 1.694-.336 1.373 0 2.24.686.882.686.994 1.82h-1.4q-.069-.56-.588-.98-.517-.434-1.372-.434-.798 0-1.302.42-.504.405-.504 1.148 0 .532.294.868.309.336.742.518.448.168 1.246.392.966.266 1.554.532a2.5 2.5 0 0 1 1.008.798q.42.532.42 1.456 0 .714-.378 1.344t-1.12 1.022-1.75.392m4.647-3.962q0-1.176.476-2.058a3.45 3.45 0 0 1 1.302-1.386 3.63 3.63 0 0 1 1.862-.49q1.008 0 1.75.434t1.106 1.092v-1.4h1.288V30h-1.288v-1.428q-.378.672-1.134 1.12-.742.434-1.736.434a3.5 3.5 0 0 1-1.848-.504 3.53 3.53 0 0 1-1.302-1.414q-.476-.91-.476-2.072m6.496.014q0-.869-.35-1.512a2.4 2.4 0 0 0-.952-.98 2.5 2.5 0 0 0-1.302-.35q-.714 0-1.302.336t-.938.98-.35 1.512q0 .882.35 1.54.35.644.938.994.588.336 1.302.336t1.302-.336q.602-.35.952-.994.35-.658.35-1.526m4.715-6.51V30h-1.274V19.64zm9.171 6.23q0 .365-.042.77h-6.132q.07 1.134.77 1.778.714.63 1.722.63.826 0 1.372-.378.56-.392.784-1.036h1.372a3.33 3.33 0 0 1-1.232 1.806q-.924.686-2.296.686-1.092 0-1.96-.49a3.5 3.5 0 0 1-1.344-1.386q-.49-.91-.49-2.1t.476-2.086a3.3 3.3 0 0 1 1.33-1.372q.869-.49 1.988-.49 1.092 0 1.932.476t1.288 1.316q.462.825.462 1.876m-1.316-.266q0-.727-.322-1.246a2 2 0 0 0-.882-.798 2.6 2.6 0 0 0-1.218-.28q-.966 0-1.652.616-.671.616-.77 1.708zm12.246-5.362v1.036h-4.242v3.29h3.444v1.036h-3.444V30h-1.274v-9.758zm4.885 9.884a3.97 3.97 0 0 1-1.96-.49 3.56 3.56 0 0 1-1.372-1.386q-.49-.91-.49-2.1 0-1.176.504-2.072a3.5 3.5 0 0 1 1.4-1.386 4 4 0 0 1 1.974-.49q1.092 0 1.974.49a3.44 3.44 0 0 1 1.386 1.372q.518.896.518 2.086t-.532 2.1a3.6 3.6 0 0 1-1.414 1.386q-.896.49-1.988.49m0-1.12a2.7 2.7 0 0 0 1.288-.322 2.4 2.4 0 0 0 .966-.966q.378-.644.378-1.568t-.364-1.568q-.364-.645-.952-.952a2.6 2.6 0 0 0-1.274-.322q-.7 0-1.288.322-.575.308-.924.952-.35.645-.35 1.568 0 .938.336 1.582.35.644.924.966.574.308 1.26.308m6.883-5.432q.336-.659.952-1.022.63-.364 1.526-.364v1.316h-.336q-2.142 0-2.142 2.324V30h-1.274v-7.672h1.274zm13.449 4.256h-4.256l-.784 2.17h-1.344l3.528-9.702h1.47L576.132 30h-1.344zm-.364-1.036-1.764-4.928-1.764 4.928zm5.304-7.154V30h-1.274V19.64zm3.445 0V30h-1.274V19.64zm8.998 10.458q-.966 0-1.736-.336-.756-.35-1.19-.952a2.47 2.47 0 0 1-.448-1.414h1.358q.07.686.56 1.162.504.462 1.456.462.91 0 1.428-.448.532-.462.532-1.176 0-.56-.308-.91a2 2 0 0 0-.77-.532 12 12 0 0 0-1.246-.392q-.966-.252-1.554-.504a2.6 2.6 0 0 1-.994-.784q-.406-.547-.406-1.456 0-.798.406-1.414t1.134-.952q.742-.336 1.694-.336 1.372 0 2.24.686.882.686.994 1.82h-1.4q-.07-.56-.588-.98-.518-.434-1.372-.434-.798 0-1.302.42-.504.405-.504 1.148 0 .532.294.868.308.336.742.518.448.168 1.246.392.966.266 1.554.532a2.5 2.5 0 0 1 1.008.798q.42.532.42 1.456 0 .714-.378 1.344t-1.12 1.022-1.75.392m15.343-7.77L604.336 30h-1.316l-1.848-6.09-1.848 6.09h-1.316l-2.408-7.672h1.302l1.764 6.44 1.904-6.44h1.302l1.862 6.454 1.736-6.454zm1.922-1.246a.84.84 0 0 1-.616-.252.84.84 0 0 1-.252-.616q0-.364.252-.616a.84.84 0 0 1 .616-.252q.35 0 .588.252a.84.84 0 0 1 .252.616.84.84 0 0 1-.252.616.78.78 0 0 1-.588.252m.616 1.246V30h-1.274v-7.672zm11.397-.14q.897 0 1.596.378.7.364 1.106 1.106t.406 1.806V30h-1.26v-4.34q0-1.148-.574-1.75-.56-.615-1.526-.616-.994 0-1.582.644-.588.63-.588 1.834V30h-1.26v-4.34q0-1.148-.574-1.75-.56-.615-1.526-.616-.994 0-1.582.644-.588.63-.588 1.834V30h-1.274v-7.672h1.274v1.106a2.53 2.53 0 0 1 1.008-.924 3.1 3.1 0 0 1 1.414-.322q.966 0 1.708.434.743.434 1.106 1.274.323-.811 1.064-1.26a3.14 3.14 0 0 1 1.652-.448m12.025 7.91q-.966 0-1.736-.336-.756-.35-1.19-.952a2.47 2.47 0 0 1-.448-1.414h1.358q.07.686.56 1.162.504.462 1.456.462.909 0 1.428-.448.532-.462.532-1.176 0-.56-.308-.91a2 2 0 0 0-.77-.532 12 12 0 0 0-1.246-.392q-.966-.252-1.554-.504a2.6 2.6 0 0 1-.994-.784q-.406-.547-.406-1.456 0-.798.406-1.414.405-.616 1.134-.952.741-.336 1.694-.336 1.371 0 2.24.686.882.686.994 1.82h-1.4q-.07-.56-.588-.98-.519-.434-1.372-.434-.798 0-1.302.42-.504.405-.504 1.148 0 .532.294.868.307.336.742.518.447.168 1.246.392.966.266 1.554.532a2.5 2.5 0 0 1 1.008.798q.42.532.42 1.456 0 .714-.378 1.344t-1.12 1.022-1.75.392m11.926-7.77V30h-1.274v-1.134q-.363.588-1.022.924a3.15 3.15 0 0 1-1.428.322 3.5 3.5 0 0 1-1.61-.364 2.8 2.8 0 0 1-1.134-1.12q-.406-.743-.406-1.806v-4.494h1.26v4.326q0 1.135.574 1.75.575.602 1.568.602 1.023 0 1.61-.63t.588-1.834v-4.214zm2.809-1.246a.84.84 0 0 1-.616-.252.84.84 0 0 1-.252-.616q0-.364.252-.616a.84.84 0 0 1 .616-.252q.351 0 .588.252a.84.84 0 0 1 .252.616.84.84 0 0 1-.252.616.78.78 0 0 1-.588.252m.616 1.246V30h-1.274v-7.672zm3.726 1.05V27.9q0 .56.238.798.237.224.826.224h.938V30h-1.148q-1.065 0-1.596-.49t-.532-1.61v-4.522h-.994v-1.05h.994v-1.932h1.274v1.932h2.002v1.05zm6.261 6.748a4.1 4.1 0 0 1-1.582-.294q-.7-.308-1.106-.84-.405-.547-.448-1.246h1.316q.057.574.532.938.49.364 1.274.364.729 0 1.148-.322.42-.322.42-.812a.79.79 0 0 0-.448-.742q-.447-.252-1.386-.49a11 11 0 0 1-1.4-.448 2.7 2.7 0 0 1-.924-.686q-.378-.462-.378-1.204 0-.588.35-1.078t.994-.77q.645-.294 1.47-.294 1.275 0 2.058.644.785.644.84 1.764h-1.274a1.3 1.3 0 0 0-.49-.966q-.433-.364-1.176-.364-.686 0-1.092.294t-.406.77q0 .378.238.63.253.239.616.392.378.14 1.036.322.827.225 1.344.448.519.21.882.644.378.434.392 1.134 0 .63-.35 1.134t-.994.798q-.63.28-1.456.28m14.099-2.296h-4.256l-.784 2.17h-1.344l3.528-9.702h1.47L674.255 30h-1.344zm-.364-1.036-1.764-4.928-1.764 4.928zm7.768-4.606q1.4 0 2.268.854.868.84.868 2.436V30h-1.26v-4.34q0-1.148-.574-1.75-.574-.615-1.568-.616-1.008 0-1.61.63-.588.63-.588 1.834V30h-1.274v-7.672h1.274v1.092a2.54 2.54 0 0 1 1.022-.91 3.2 3.2 0 0 1 1.442-.322m4.741 3.948q0-1.176.476-2.058a3.45 3.45 0 0 1 1.302-1.386 3.65 3.65 0 0 1 1.876-.49q.896 0 1.666.42.77.406 1.176 1.078v-4.06h1.288V30h-1.288v-1.442a3.03 3.03 0 0 1-1.12 1.134q-.742.434-1.736.434a3.55 3.55 0 0 1-1.862-.504 3.53 3.53 0 0 1-1.302-1.414q-.476-.91-.476-2.072m6.496.014q0-.869-.35-1.512a2.4 2.4 0 0 0-.952-.98 2.5 2.5 0 0 0-1.302-.35q-.714 0-1.302.336t-.938.98-.35 1.512q0 .882.35 1.54.35.644.938.994.588.336 1.302.336t1.302-.336q.602-.35.952-.994.35-.658.35-1.526m12.689-5.908v1.036h-4.242v3.29h3.444v1.036h-3.444V30h-1.274v-9.758zm2.813 3.332q.336-.659.952-1.022.63-.364 1.526-.364v1.316h-.336q-2.142 0-2.142 2.324V30h-1.274v-7.672h1.274zm10.949 2.296q0 .365-.042.77h-6.132q.07 1.134.77 1.778.714.63 1.722.63.825 0 1.372-.378.56-.392.784-1.036h1.372a3.34 3.34 0 0 1-1.232 1.806q-.924.686-2.296.686-1.092 0-1.96-.49a3.5 3.5 0 0 1-1.344-1.386q-.49-.91-.49-2.1t.476-2.086a3.3 3.3 0 0 1 1.33-1.372q.867-.49 1.988-.49 1.092 0 1.932.476t1.288 1.316q.462.825.462 1.876m-1.316-.266q0-.727-.322-1.246a2.03 2.03 0 0 0-.882-.798 2.6 2.6 0 0 0-1.218-.28q-.966 0-1.652.616-.672.616-.77 1.708zm9.997.266q0 .365-.042.77h-6.132q.07 1.134.77 1.778.714.63 1.722.63.826 0 1.372-.378.56-.392.784-1.036h1.372a3.33 3.33 0 0 1-1.232 1.806q-.924.686-2.296.686-1.092 0-1.96-.49a3.5 3.5 0 0 1-1.344-1.386q-.49-.91-.49-2.1t.476-2.086a3.3 3.3 0 0 1 1.33-1.372q.869-.49 1.988-.49 1.092 0 1.932.476t1.288 1.316q.462.825.462 1.876m-1.316-.266q0-.727-.322-1.246a2 2 0 0 0-.882-.798 2.6 2.6 0 0 0-1.218-.28q-.965 0-1.652.616-.671.616-.77 1.708zm8.004-4.326v3.262h3.556v1.05h-3.556v3.36h3.976V30h-5.25v-9.772h5.25v1.05zM742.496 30l-1.82-2.856-1.75 2.856h-1.33l2.478-3.808-2.478-3.864h1.442l1.82 2.842 1.736-2.842h1.33l-2.464 3.794L743.938 30zm3.969-6.258q.378-.659 1.12-1.092.757-.448 1.75-.448a3.55 3.55 0 0 1 1.848.49q.84.49 1.316 1.386.476.882.476 2.058 0 1.162-.476 2.072a3.5 3.5 0 0 1-1.316 1.414 3.47 3.47 0 0 1-1.848.504q-.98 0-1.736-.434-.741-.448-1.134-1.106v5.054h-1.274V22.328h1.274zm5.208 2.394q0-.868-.35-1.512a2.4 2.4 0 0 0-.952-.98 2.6 2.6 0 0 0-1.302-.336q-.699 0-1.302.35a2.5 2.5 0 0 0-.952.994q-.35.645-.35 1.498 0 .868.35 1.526.364.644.952.994.603.336 1.302.336.714 0 1.302-.336.603-.35.952-.994.35-.658.35-1.54m4.253-2.562q.337-.659.952-1.022.63-.364 1.526-.364v1.316h-.336q-2.142 0-2.142 2.324V30h-1.274v-7.672h1.274zm10.949 2.296q0 .365-.042.77h-6.132q.07 1.134.77 1.778.714.63 1.722.63.826 0 1.372-.378.56-.392.784-1.036h1.372a3.33 3.33 0 0 1-1.232 1.806q-.924.686-2.296.686-1.092 0-1.96-.49a3.5 3.5 0 0 1-1.344-1.386q-.49-.91-.49-2.1t.476-2.086a3.3 3.3 0 0 1 1.33-1.372q.868-.49 1.988-.49 1.092 0 1.932.476t1.288 1.316q.462.825.462 1.876m-1.316-.266q0-.727-.322-1.246a2.03 2.03 0 0 0-.882-.798 2.6 2.6 0 0 0-1.218-.28q-.966 0-1.652.616-.672.616-.77 1.708zm5.714 4.522q-.883 0-1.582-.294-.7-.308-1.106-.84a2.27 2.27 0 0 1-.448-1.246h1.316q.055.574.532.938.49.364 1.274.364.728 0 1.148-.322t.42-.812a.79.79 0 0 0-.448-.742q-.448-.252-1.386-.49-.855-.225-1.4-.448a2.65 2.65 0 0 1-.924-.686q-.378-.462-.378-1.204 0-.588.35-1.078t.994-.77q.643-.294 1.47-.294 1.274 0 2.058.644t.84 1.764h-1.274a1.3 1.3 0 0 0-.49-.966q-.435-.364-1.176-.364-.687 0-1.092.294-.406.294-.406.77a.88.88 0 0 0 .238.63q.252.239.616.392.378.14 1.036.322.825.225 1.344.448.517.21.882.644.377.434.392 1.134 0 .63-.35 1.134t-.994.798q-.63.28-1.456.28m7.314 0a4.1 4.1 0 0 1-1.582-.294q-.7-.308-1.106-.84a2.27 2.27 0 0 1-.448-1.246h1.316q.056.574.532.938.49.364 1.274.364.728 0 1.148-.322t.42-.812a.79.79 0 0 0-.448-.742q-.448-.252-1.386-.49a11 11 0 0 1-1.4-.448 2.65 2.65 0 0 1-.924-.686q-.378-.462-.378-1.204 0-.588.35-1.078t.994-.77q.644-.294 1.47-.294 1.274 0 2.058.644.785.644.84 1.764h-1.274a1.3 1.3 0 0 0-.49-.966q-.433-.364-1.176-.364-.686 0-1.092.294t-.406.77a.88.88 0 0 0 .238.63q.252.239.616.392.378.14 1.036.322.827.225 1.344.448.518.21.882.644.378.434.392 1.134 0 .63-.35 1.134t-.994.798q-.63.28-1.456.28m11.369-9.884q1.596 0 2.758.602a4.1 4.1 0 0 1 1.792 1.694q.63 1.105.63 2.604t-.63 2.604q-.616 1.092-1.792 1.68-1.162.574-2.758.574h-3.038v-9.758zm0 8.708q1.89 0 2.884-.994.994-1.008.994-2.814 0-1.82-1.008-2.842-.994-1.022-2.87-1.022h-1.764v7.672zm13.86-3.08q0 .365-.042.77h-6.132q.07 1.134.77 1.778.714.63 1.722.63.826 0 1.372-.378.56-.392.784-1.036h1.372a3.33 3.33 0 0 1-1.232 1.806q-.924.686-2.296.686-1.092 0-1.96-.49a3.5 3.5 0 0 1-1.344-1.386q-.49-.91-.49-2.1t.476-2.086a3.3 3.3 0 0 1 1.33-1.372q.869-.49 1.988-.49 1.092 0 1.932.476t1.288 1.316q.462.825.462 1.876m-1.316-.266q0-.727-.322-1.246a2 2 0 0 0-.882-.798 2.6 2.6 0 0 0-1.218-.28q-.966 0-1.652.616-.671.616-.77 1.708zm4.272-5.964V30h-1.274V19.64zm2.829 1.442a.84.84 0 0 1-.616-.252.84.84 0 0 1-.252-.616q0-.364.252-.616a.84.84 0 0 1 .616-.252q.351 0 .588.252a.84.84 0 0 1 .252.616.84.84 0 0 1-.252.616.78.78 0 0 1-.588.252m.616 1.246V30h-1.274v-7.672zm5.028 6.496 2.38-6.496h1.358L815.973 30h-1.484l-3.01-7.672h1.372zm11.991-2.954q0 .365-.042.77h-6.132q.07 1.134.77 1.778.714.63 1.722.63.826 0 1.372-.378.56-.392.784-1.036h1.372a3.33 3.33 0 0 1-1.232 1.806q-.924.686-2.296.686-1.092 0-1.96-.49a3.5 3.5 0 0 1-1.344-1.386q-.49-.91-.49-2.1t.476-2.086a3.3 3.3 0 0 1 1.33-1.372q.869-.49 1.988-.49 1.092 0 1.932.476t1.288 1.316q.462.825.462 1.876m-1.316-.266q0-.727-.322-1.246a2 2 0 0 0-.882-.798 2.6 2.6 0 0 0-1.218-.28q-.966 0-1.652.616-.671.616-.77 1.708zm4.272-2.03q.336-.659.952-1.022.63-.364 1.526-.364v1.316h-.336q-2.142 0-2.142 2.324V30h-1.274v-7.672h1.274zm10.557-1.246-4.62 11.284h-1.317l1.513-3.696-3.094-7.588h1.414l2.408 6.216 2.38-6.216zm10.333 2.002v1.078h-5.586V24.33zm10.547 5.768q-1.357 0-2.478-.63a4.8 4.8 0 0 1-1.778-1.778q-.644-1.148-.644-2.576t.644-2.562a4.65 4.65 0 0 1 1.778-1.778 4.9 4.9 0 0 1 2.478-.644q1.372 0 2.492.644a4.57 4.57 0 0 1 1.764 1.764q.644 1.134.644 2.576t-.644 2.576a4.67 4.67 0 0 1-1.764 1.778q-1.12.63-2.492.63m0-1.106q1.022 0 1.834-.476.826-.476 1.288-1.358.476-.883.476-2.044 0-1.176-.476-2.044a3.3 3.3 0 0 0-1.274-1.358q-.811-.476-1.848-.476t-1.848.476-1.288 1.358q-.462.868-.462 2.044 0 1.162.462 2.044.476.881 1.288 1.358a3.64 3.64 0 0 0 1.848.476m12.098-8.75v1.036h-4.242v3.29h3.444v1.036h-3.444V30h-1.274v-9.758zm7.055 0v1.036h-4.242v3.29h3.444v1.036h-3.444V30h-1.274v-9.758zm11.515.742h-4.914v3.192q.322-.448.952-.728a3.2 3.2 0 0 1 1.358-.294q1.161 0 1.89.49.727.476 1.036 1.246.322.755.322 1.61 0 1.008-.378 1.806a2.86 2.86 0 0 1-1.162 1.26q-.77.462-1.918.462-1.47 0-2.38-.756t-1.106-2.016h1.246q.182.798.77 1.246.587.448 1.484.448 1.105 0 1.666-.658.56-.672.56-1.764t-.56-1.68q-.56-.602-1.652-.602-.742 0-1.302.364-.546.35-.798.966h-1.204v-5.712h6.09zm2.337 3.85q0-2.408.784-3.752.783-1.358 2.744-1.358 1.946 0 2.73 1.358.784 1.344.784 3.752 0 2.45-.784 3.808T898.162 30q-1.96 0-2.744-1.358t-.784-3.808m5.782 0q0-1.218-.168-2.058-.154-.855-.658-1.372-.49-.518-1.428-.518-.952 0-1.456.518-.49.518-.658 1.372-.154.84-.154 2.058 0 1.26.154 2.114.168.855.658 1.372.504.518 1.456.518.938 0 1.428-.518.504-.518.658-1.372.168-.855.168-2.114m2.729-2.674q0-.953.574-1.512.573-.574 1.47-.574.895 0 1.47.574.573.56.574 1.512 0 .966-.574 1.54-.575.56-1.47.56-.897 0-1.47-.56-.574-.574-.574-1.54m8.176-1.932L905.651 30h-1.26l5.67-9.772zm-6.132.63q-.477 0-.756.336-.266.323-.266.966 0 .645.266.98.279.336.756.336.476 0 .756-.336.28-.35.28-.98 0-.644-.28-.966-.28-.336-.756-.336m3.318 7.21q0-.966.574-1.526.573-.574 1.47-.574.895 0 1.456.574.573.56.574 1.526 0 .952-.574 1.526-.56.574-1.456.574-.897 0-1.47-.56-.574-.574-.574-1.54m2.03-1.302q-.477 0-.756.336-.28.322-.28.966 0 .63.28.966.279.322.756.322.476 0 .756-.322.28-.336.28-.966 0-.644-.28-.966-.28-.336-.756-.336m5.373-6.524-.154 7h-1.064l-.154-7zm-.63 9.842a.84.84 0 0 1-.616-.252.84.84 0 0 1-.252-.616q0-.364.252-.616a.84.84 0 0 1 .616-.252q.35 0 .588.252a.84.84 0 0 1 .252.616.84.84 0 0 1-.252.616.78.78 0 0 1-.588.252m16.441-.986q-1.022 0-1.848-.35a3.03 3.03 0 0 1-1.288-1.008q-.476-.659-.49-1.554h2.1q.042.602.42.952.392.35 1.064.35.686 0 1.078-.322.392-.336.392-.868a1 1 0 0 0-.266-.714 1.8 1.8 0 0 0-.672-.434 9 9 0 0 0-1.092-.364 13 13 0 0 1-1.554-.546 2.9 2.9 0 0 1-1.022-.826q-.42-.56-.42-1.484 0-.868.434-1.512.434-.645 1.218-.98.784-.35 1.792-.35 1.512 0 2.45.742.953.728 1.05 2.044h-2.156a1.09 1.09 0 0 0-.434-.826q-.391-.336-1.05-.336-.575 0-.924.294-.336.294-.336.854 0 .391.252.658.266.252.644.42.391.154 1.092.364.953.28 1.554.56t1.036.84.434 1.47q0 .784-.406 1.456t-1.19 1.078q-.784.392-1.862.392m9.525-7.966q.882 0 1.568.392.686.378 1.064 1.134.392.742.392 1.792V29h-1.96v-4.284q0-.924-.462-1.414-.462-.504-1.26-.504-.812 0-1.288.504-.462.49-.462 1.414V29h-1.96V18.64h1.96v3.57a2.5 2.5 0 0 1 1.008-.784q.63-.294 1.4-.294m8.332 7.994q-1.12 0-2.016-.49a3.7 3.7 0 0 1-1.414-1.414q-.504-.91-.504-2.1t.518-2.1a3.65 3.65 0 0 1 1.442-1.4 4.1 4.1 0 0 1 2.03-.504q1.12 0 2.03.504a3.55 3.55 0 0 1 1.428 1.4q.532.91.532 2.1t-.546 2.1a3.7 3.7 0 0 1-1.456 1.414q-.91.49-2.044.49m0-1.708q.532 0 .994-.252a1.9 1.9 0 0 0 .756-.784q.28-.518.28-1.26 0-1.106-.588-1.694a1.88 1.88 0 0 0-1.414-.602q-.84 0-1.414.602-.56.588-.56 1.694t.546 1.708q.56.588 1.4.588m7.444-5.054a2.9 2.9 0 0 1 1.036-.882 3.15 3.15 0 0 1 1.526-.364 3.36 3.36 0 0 1 3.066 1.89q.476.896.476 2.086t-.476 2.114a3.47 3.47 0 0 1-1.274 1.414 3.3 3.3 0 0 1-1.792.504q-.855 0-1.512-.35a3.2 3.2 0 0 1-1.05-.882v4.802h-1.96V21.244h1.96zm4.102 2.73q0-.7-.294-1.204a1.99 1.99 0 0 0-1.764-1.05q-.533 0-1.008.28a2.04 2.04 0 0 0-.756.784q-.28.518-.28 1.218t.28 1.218q.294.518.756.798.476.266 1.008.266.546 0 1.008-.28.475-.28.756-.798.294-.518.294-1.232M972.908 29h-1.96l-4.438-6.706V29h-1.96v-9.786h1.96l4.438 6.72v-6.72h1.96zm5.381.126q-1.12 0-2.016-.49a3.7 3.7 0 0 1-1.414-1.414q-.504-.91-.504-2.1t.518-2.1a3.65 3.65 0 0 1 1.442-1.4 4.1 4.1 0 0 1 2.03-.504q1.12 0 2.03.504a3.55 3.55 0 0 1 1.428 1.4q.532.91.532 2.1t-.546 2.1a3.7 3.7 0 0 1-1.456 1.414q-.91.49-2.044.49m0-1.708q.532 0 .994-.252a1.9 1.9 0 0 0 .756-.784q.28-.518.28-1.26 0-1.106-.588-1.694a1.88 1.88 0 0 0-1.414-.602q-.84 0-1.414.602-.56.588-.56 1.694t.546 1.708q.56.588 1.4.588m16.236-6.174L992.257 29h-2.114l-1.414-5.418L987.315 29h-2.128l-2.282-7.756h1.988l1.372 5.908 1.484-5.908h2.072l1.456 5.894 1.372-5.894z"/><path fill="#FAFAFA" d="M927.381 30.4h67.242v.7h-67.242zm300.969-10.622v3.262h3.56v1.05h-3.56v3.36h3.98v1.05h-5.25v-9.772h5.25v1.05zm9.64.91c.94 0 1.69.285 2.27.854q.87.84.87 2.436V28.5h-1.26v-4.34q0-1.148-.57-1.75c-.39-.41-.91-.616-1.57-.616-.67 0-1.21.21-1.61.63-.39.42-.59 1.031-.59 1.834V28.5h-1.27v-7.672h1.27v1.092q.375-.588 1.02-.91a3.24 3.24 0 0 1 1.44-.322m8.38.014q1.005 0 1.74.434c.5.29.88.653 1.12 1.092v-1.4h1.29v7.84q0 1.05-.45 1.862-.45.826-1.29 1.288c-.55.308-1.19.462-1.93.462q-1.515 0-2.52-.714a2.8 2.8 0 0 1-1.19-1.946h1.26q.21.7.87 1.12c.44.29.96.434 1.58.434q1.05 0 1.71-.658c.45-.439.67-1.055.67-1.848v-1.61c-.25.448-.62.821-1.12 1.12q-.735.448-1.74.448-1.02 0-1.86-.504a3.55 3.55 0 0 1-1.3-1.414q-.48-.91-.48-2.072 0-1.176.48-2.058c.32-.597.75-1.06 1.3-1.386q.84-.49 1.86-.49m2.86 3.948c0-.579-.12-1.083-.35-1.512s-.55-.756-.95-.98c-.39-.233-.83-.35-1.3-.35-.48 0-.91.112-1.31.336q-.585.336-.93.98c-.24.43-.35.933-.35 1.512 0 .588.11 1.101.35 1.54q.345.644.93.994c.4.224.83.336 1.31.336.47 0 .91-.112 1.3-.336.4-.233.72-.565.95-.994.23-.439.35-.947.35-1.526m4.72-6.51V28.5h-1.28V18.14zm2.83 1.442a.84.84 0 0 1-.62-.252.83.83 0 0 1-.25-.616c0-.243.08-.448.25-.616a.84.84 0 0 1 .62-.252c.23 0 .42.084.58.252.17.168.26.373.26.616s-.09.448-.26.616a.77.77 0 0 1-.58.252m.61 1.246V28.5h-1.27v-7.672zm4.89 7.798c-.59 0-1.12-.098-1.58-.294q-.705-.308-1.11-.84-.405-.547-.45-1.246h1.32c.04.383.21.695.53.938.33.243.75.364 1.27.364.49 0 .87-.107 1.15-.322q.42-.322.42-.812a.79.79 0 0 0-.45-.742c-.29-.168-.76-.331-1.38-.49-.57-.15-1.04-.299-1.4-.448a2.7 2.7 0 0 1-.93-.686c-.25-.308-.37-.71-.37-1.204 0-.392.11-.751.35-1.078q.345-.49.99-.77.645-.294 1.47-.294c.85 0 1.54.215 2.06.644q.78.644.84 1.764h-1.28a1.28 1.28 0 0 0-.49-.966c-.28-.243-.68-.364-1.17-.364-.46 0-.82.098-1.09.294s-.41.453-.41.77q0 .378.24.63c.17.159.37.29.61.392.26.093.6.2 1.04.322.55.15 1 .299 1.34.448.35.14.64.355.89.644q.375.434.39 1.134c0 .42-.12.798-.35 1.134s-.57.602-1 .798c-.42.187-.9.28-1.45.28m8.4-7.938c.58 0 1.11.126 1.57.378.47.243.83.611 1.09 1.106.28.495.41 1.097.41 1.806V28.5h-1.26v-4.34q0-1.148-.57-1.75c-.39-.41-.91-.616-1.57-.616-.67 0-1.21.21-1.61.63-.39.42-.59 1.031-.59 1.834V28.5h-1.27V18.14h1.27v3.78c.25-.392.6-.695 1.04-.91s.94-.322 1.49-.322"/><path fill="#fff" d="m1292.36 24.95 4.95-4.95 1.42 1.414-6.37 6.364-6.36-6.364 1.41-1.414z"/></svg>