<svg xmlns="http://www.w3.org/2000/svg" width="1170" height="56" fill="none"><path fill="#000" d="M19.396 21.06 15.356 35h-2.04l-3.24-11.22L6.716 35l-2.02.02-3.9-13.96h1.94l3.04 11.82 3.36-11.82h2.04l3.2 11.78 3.06-11.78zm2.932 1.2q-.52 0-.88-.36t-.36-.88.36-.88.88-.36q.5 0 .84.36.36.36.36.88t-.36.88a1.1 1.1 0 0 1-.84.36m.88 1.78V35h-1.82V24.04zm6.982 11.14q-1.26 0-2.26-.42-1-.44-1.58-1.2a3.24 3.24 0 0 1-.64-1.78h1.88q.08.82.76 1.34.7.52 1.82.52 1.04 0 1.64-.46t.6-1.16q0-.72-.64-1.06-.64-.36-1.98-.7-1.22-.32-2-.64a3.8 3.8 0 0 1-1.32-.98q-.54-.66-.54-1.72 0-.84.5-1.54t1.42-1.1q.92-.42 2.1-.42 1.82 0 2.94.92t1.2 2.52h-1.82q-.06-.86-.7-1.38-.621-.52-1.68-.52-.981 0-1.56.42t-.58 1.1q0 .54.34.9.36.34.88.56.54.2 1.48.46 1.179.32 1.92.64.74.3 1.26.92.54.62.56 1.62 0 .9-.5 1.62t-1.42 1.14q-.9.4-2.08.4m12.009-11.34q1.24 0 2.24.54.999.52 1.56 1.58.58 1.06.58 2.58V35h-1.8v-6.2q0-1.64-.82-2.5-.82-.88-2.24-.88-1.44 0-2.3.9-.84.9-.84 2.62V35h-1.82V20.2h1.82v5.4a3.6 3.6 0 0 1 1.48-1.3q.96-.46 2.14-.46m9.173-3.64V35h-1.82V20.2zm4.042 2.06q-.52 0-.88-.36t-.36-.88.36-.88.88-.36q.5 0 .84.36.36.36.36.88t-.36.88a1.1 1.1 0 0 1-.84.36m.88 1.78V35h-1.82V24.04zm6.982 11.14q-1.26 0-2.26-.42-1-.44-1.58-1.2a3.24 3.24 0 0 1-.64-1.78h1.88q.08.82.76 1.34.7.52 1.82.52 1.04 0 1.64-.46t.6-1.16q0-.72-.64-1.06-.64-.36-1.98-.7-1.22-.32-2-.64a3.8 3.8 0 0 1-1.32-.98q-.54-.66-.54-1.72 0-.84.5-1.54t1.42-1.1q.92-.42 2.1-.42 1.82 0 2.94.92t1.2 2.52h-1.82q-.06-.86-.7-1.38-.621-.52-1.68-.52-.981 0-1.56.42t-.58 1.1q0 .54.34.9.36.34.88.56.54.2 1.48.46 1.179.32 1.92.64.74.3 1.26.92.54.62.56 1.62 0 .9-.5 1.62t-1.42 1.14q-.9.4-2.08.4m8.789-9.64V32q0 .8.34 1.14.34.32 1.18.32h1.34V35h-1.64q-1.521 0-2.28-.7-.76-.7-.76-2.3v-6.46h-1.42v-1.5h1.42v-2.76h1.82v2.76h2.86v1.5zm15.077 13.18q-1.92-1.88-3-4.78-1.06-2.9-1.06-6.26 0-3.44 1.12-6.42 1.14-3 3.24-4.94h1.9v.18q-2.24 2.1-3.38 5.06-1.12 2.94-1.12 6.12 0 3.1 1.06 5.92a14.4 14.4 0 0 0 3.14 4.94v.18zm3.662-6.94V30.4l7.02-9.72h2.18v9.52h2v1.58h-2V35h-1.8v-3.22zm7.48-9.2-5.38 7.62h5.38zm5.258 16.14v-.18a14.2 14.2 0 0 0 3.12-4.94 16.4 16.4 0 0 0 1.08-5.92q0-3.18-1.14-6.12-1.12-2.96-3.36-5.06v-.18h1.9q2.1 1.94 3.22 4.94 1.14 2.98 1.14 6.42 0 3.36-1.08 6.26-1.06 2.9-2.98 4.78z"/><rect width="222" height="55" x="947.5" y=".5" stroke="#000" stroke-opacity=".5" rx="3.5"/><path fill="#000" d="M1007.91 22.88V34h-1.82v-7.616L1002.7 34h-1.27l-3.406-7.616V34H996.2V22.88h1.968l3.902 8.72 3.89-8.72zm6.22 11.264q-1.245 0-2.25-.56a4.2 4.2 0 0 1-1.59-1.6q-.57-1.04-.57-2.4c0-.896.19-1.69.59-2.384q.585-1.04 1.62-1.6 1.02-.56 2.28-.56c.85 0 1.61.187 2.29.56a4.15 4.15 0 0 1 1.62 1.6c.39.693.59 1.488.59 2.384s-.2 1.69-.61 2.384c-.4.693-.96 1.232-1.66 1.616-.7.373-1.46.56-2.31.56m0-1.584q.705 0 1.32-.336c.41-.224.75-.56 1-1.008q.39-.672.39-1.632c0-.64-.13-1.179-.37-1.616-.25-.448-.57-.784-.98-1.008-.4-.224-.84-.336-1.31-.336s-.91.112-1.31.336-.71.56-.94 1.008q-.36.656-.36 1.616 0 1.424.72 2.208c.49.512 1.11.768 1.84.768m9.79-.192 2.5-7.184h1.93L1024.99 34h-2.17l-3.35-8.816h1.95zm13.89-2.992q0 .496-.06.896h-6.74c.05.704.32 1.27.79 1.696.46.427 1.04.64 1.72.64.98 0 1.68-.41 2.08-1.232h1.97a4.03 4.03 0 0 1-1.45 2c-.7.512-1.56.768-2.6.768-.84 0-1.6-.187-2.27-.56a4.24 4.24 0 0 1-1.57-1.6c-.37-.693-.56-1.493-.56-2.4s.18-1.701.55-2.384c.37-.693.89-1.227 1.55-1.6.67-.373 1.44-.56 2.3-.56.84 0 1.58.181 2.23.544s1.15.875 1.52 1.536q.54.976.54 2.256m-1.9-.576q-.015-1.008-.72-1.616c-.47-.405-1.05-.608-1.75-.608-.63 0-1.16.203-1.61.608-.45.395-.72.933-.8 1.616zm14.56 2.928h-4.66l-.8 2.272h-1.9l3.98-11.136h2.11L1053.19 34h-1.92zm-.52-1.488-1.8-5.168-1.83 5.168zm6.79-8.08V34h-1.82V22.16zm4.22 0V34h-1.82V22.16zm13.74.72v1.488h-2.96V34h-1.83v-9.632h-2.97V22.88zm5.67 11.264c-.83 0-1.59-.187-2.26-.56a4.13 4.13 0 0 1-1.58-1.6c-.39-.693-.58-1.493-.58-2.4 0-.896.2-1.69.59-2.384a4.15 4.15 0 0 1 1.62-1.6c.68-.373 1.45-.56 2.29-.56s1.6.187 2.29.56c.68.373 1.22.907 1.61 1.6.4.693.59 1.488.59 2.384q0 1.343-.6 2.384a4.26 4.26 0 0 1-1.67 1.616c-.69.373-1.46.56-2.3.56m0-1.584c.47 0 .9-.112 1.31-.336.42-.224.75-.56 1.01-1.008.25-.448.38-.992.38-1.632s-.12-1.179-.37-1.616a2.46 2.46 0 0 0-.97-1.008 2.7 2.7 0 0 0-1.31-.336q-.705 0-1.32.336c-.39.224-.71.56-.94 1.008-.23.437-.35.976-.35 1.616q0 1.424.72 2.208c.49.512 1.1.768 1.84.768m16.49-4.272c.59.107 1.1.421 1.52.944.41.523.62 1.115.62 1.776q0 .848-.45 1.536-.435.672-1.26 1.072c-.56.256-1.2.384-1.94.384h-4.45V22.88h4.24c.76 0 1.41.128 1.96.384q.81.384 1.23 1.04c.27.427.41.907.41 1.44q0 .96-.51 1.6c-.34.427-.8.741-1.37.944m-4.13-.736h2.25c.6 0 1.06-.133 1.4-.4q.51-.416.51-1.184 0-.751-.51-1.168c-.34-.288-.8-.432-1.4-.432h-2.25zm2.46 4.96c.62 0 1.11-.15 1.46-.448s.53-.715.53-1.248c0-.544-.19-.976-.56-1.296-.38-.32-.87-.48-1.49-.48h-2.4v3.472zm5.18-2.96c0-.885.18-1.67.55-2.352q.555-1.024 1.5-1.584a4.04 4.04 0 0 1 2.11-.576c.7 0 1.3.139 1.81.416.52.267.94.603 1.25 1.008v-1.28h1.84V34h-1.84v-1.312q-.465.624-1.26 1.04-.81.416-1.83.416c-.76 0-1.45-.192-2.08-.576a4.24 4.24 0 0 1-1.5-1.632c-.37-.704-.55-1.499-.55-2.384m7.22.032c0-.608-.13-1.136-.38-1.584s-.58-.79-.98-1.024a2.6 2.6 0 0 0-1.31-.352c-.47 0-.91.117-1.31.352-.41.224-.74.56-1 1.008q-.36.656-.36 1.568t.36 1.6c.26.459.59.81 1 1.056.41.235.85.352 1.31.352.47 0 .9-.117 1.31-.352.4-.235.73-.576.98-1.024.25-.459.38-.992.38-1.6m7.79-4.544c.68 0 1.28.139 1.81.416.53.267.94.603 1.24 1.008v-1.28h1.84v8.96q0 1.215-.51 2.16c-.34.64-.84 1.141-1.49 1.504-.64.363-1.4.544-2.3.544-1.2 0-2.19-.283-2.98-.848-.79-.555-1.23-1.312-1.34-2.272h1.81c.14.459.43.827.88 1.104.46.288 1 .432 1.63.432.74 0 1.33-.224 1.78-.672s.68-1.099.68-1.952v-1.472q-.465.624-1.26 1.056c-.52.277-1.12.416-1.79.416-.77 0-1.47-.192-2.11-.576a4.26 4.26 0 0 1-1.51-1.632q-.54-1.056-.54-2.384t.54-2.352c.37-.683.88-1.21 1.51-1.584a4 4 0 0 1 2.11-.576m3.05 4.544c0-.608-.12-1.136-.38-1.584-.25-.448-.57-.79-.98-1.024-.4-.235-.84-.352-1.31-.352s-.91.117-1.31.352q-.615.336-.99 1.008c-.25.437-.37.96-.37 1.568s.12 1.141.37 1.6q.375.688.99 1.056c.42.235.85.352 1.31.352.47 0 .91-.117 1.31-.352.41-.235.73-.576.98-1.024.26-.459.38-.992.38-1.6"/></svg>